<?xml version="1.0" encoding="utf-8"?>
<!-- Generator: Adobe Illustrator 27.0.0, SVG Export Plug-In . SVG Version: 6.00 Build 0)  -->
<svg version="1.1" id="Intelliopia" xmlns="http://www.w3.org/2000/svg" xmlns:xlink="http://www.w3.org/1999/xlink" x="0px"
	 y="0px" viewBox="0 0 609.5 134.5" style="enable-background:new 0 0 609.5 134.5;" xml:space="preserve">
<style type="text/css">
	.st0{fill:#FFFFFF;}
	.st1{fill:#DB80EB;}
	.st2{fill:url(#SVGID_1_);}
	.st3{fill:url(#SVGID_00000063598330685996884060000006457495721874260865_);}
	.st4{fill:url(#SVGID_00000034770123153423655020000014912042475593407152_);}
</style>
<path class="st0" d="M262.4,62.9h47v11.5h-47V62.9z M262.4,51.3h47V39.7h-47V51.3z M262.4,97.6h47V86.1h-47V97.6z M211.3,51.2h16.2
	v46.5h12.3V51.2h16.2V39.7h-44.7V51.2z M138.3,97.6h12.3V39.7h-12.3V97.6z M192.2,70.8l-34.8-31.1v57.9h12.3v-31l34.8,31V39.7h-12.3
	V70.8z M371,39.7h-12.3v57.9h36.1V86.1H371V39.7z M583.7,39.6l-25.7,58h13.3l12.4-28l12.5,28h13.3L583.7,39.6z M541.5,97.6h12.3
	V39.7h-12.3V97.6z M401.6,97.6h12.3V39.7h-12.3V97.6z M328.2,39.7h-12.3v57.9H352V86.1h-23.8V39.7z"/>
<path id="envision_tomorrow_x2C__xA0_today_00000034050134880858479490000005968422348100174732_" class="st1" d="M149.4,132.6h-11
	v-13.8h11v2.8h-8.3v2.8h8.2v2.8h-8.2v2.8h8.3V132.6z M171.5,132.6h-1.7l-9.3-9.4v9.4h-2.8v-13.8h2.3l8.7,9v-9h2.7V132.6z
	 M193.1,118.8l-5.6,13.8h-2.8l-5.5-13.8h3.2l3.7,10.2l3.9-10.2H193.1z M203.7,132.6H201v-13.8h2.8V132.6z M225.2,129.9
	c0,1.8-1,2.8-2.8,2.8h-9.9v-2.8h9.9v-2.8H215c-1.6,0-2.8-0.9-2.8-2.8v-2.8c0-1.8,1.1-2.8,2.8-2.8h9.4v2.8H215v2.8h7.3
	c1.7,0,2.8,1.1,2.8,2.8V129.9z M236.5,132.6h-2.8v-13.8h2.8V132.6z M252,132.9c-3.9,0-7.2-3.2-7.2-7.1c0-3.9,3.2-7.2,7.2-7.2
	c3.9,0,7.1,3.3,7.1,7.2S255.9,132.9,252,132.9z M252,121.3c-2.4,0-4.4,2-4.4,4.4c0,2.4,2,4.4,4.4,4.4c2.4,0,4.4-2,4.4-4.4
	C256.4,123.4,254.4,121.3,252,121.3z M281.4,132.6h-1.7l-9.3-9.4v9.4h-2.8v-13.8h2.3l8.7,9v-9h2.7V132.6z M316.4,121.6h-5.5v11h-2.7
	v-11h-5.5v-2.8h13.8V121.6z M330.2,132.9c-3.9,0-7.2-3.2-7.2-7.1c0-3.9,3.2-7.2,7.2-7.2c3.9,0,7.1,3.3,7.1,7.2
	S334.1,132.9,330.2,132.9z M330.2,121.3c-2.4,0-4.4,2-4.4,4.4c0,2.4,2,4.4,4.4,4.4c2.4,0,4.4-2,4.4-4.4
	C334.6,123.4,332.6,121.3,330.2,121.3z M362.3,132.6h-2.8v-7.9l-3.8,7.9h-3.5l-3.8-7.9v7.9h-2.8v-13.8h2.9l5.4,11.1l5.4-11.1h2.8
	V132.6z M377.9,132.9c-3.9,0-7.2-3.2-7.2-7.1c0-3.9,3.2-7.2,7.2-7.2c3.9,0,7.1,3.3,7.1,7.2S381.8,132.9,377.9,132.9z M377.9,121.3
	c-2.4,0-4.4,2-4.4,4.4c0,2.4,2,4.4,4.4,4.4c2.4,0,4.4-2,4.4-4.4C382.3,123.4,380.3,121.3,377.9,121.3z M407.3,132.6h-4.2l-6.5-5.5
	h-0.4v5.5h-2.8v-13.8H404c1.5,0,2.8,1.2,2.8,2.8v2.8c0,1.8-0.9,2.8-2.8,2.8h-3.4L407.3,132.6z M404,124.5v-2.9h-7.8v2.9H404z
	 M429,132.6h-4.2l-6.5-5.5h-0.4v5.5h-2.8v-13.8h10.6c1.5,0,2.8,1.2,2.8,2.8v2.8c0,1.8-0.9,2.8-2.8,2.8h-3.4L429,132.6z M425.7,124.5
	v-2.9h-7.8v2.9H425.7z M443.6,132.9c-3.9,0-7.2-3.2-7.2-7.1c0-3.9,3.2-7.2,7.2-7.2c3.9,0,7.1,3.3,7.1,7.2S447.5,132.9,443.6,132.9z
	 M443.6,121.3c-2.4,0-4.4,2-4.4,4.4c0,2.4,2,4.4,4.4,4.4c2.4,0,4.4-2,4.4-4.4C448,123.4,446,121.3,443.6,121.3z M479.2,118.8
	l-5.3,13.8H471l-2.9-8.8l-3,8.8h-3l-5.1-13.8h3.1l3.5,10l3.4-10h2.2l3.1,10l3.7-10H479.2z M485.3,134.5l-0.4-0.6
	c0.6-0.3,1-0.7,1.1-1.3c-0.9,0-1.5-0.8-1.5-1.7c0-1.1,0.7-1.9,1.9-1.9c1,0,1.9,0.7,1.9,2C488.4,132.7,487.3,134.1,485.3,134.5z
	 M523.2,121.6h-5.5v11h-2.7v-11h-5.5v-2.8h13.8V121.6z M537,132.9c-3.9,0-7.2-3.2-7.2-7.1c0-3.9,3.2-7.2,7.2-7.2
	c3.9,0,7.1,3.3,7.1,7.2S540.9,132.9,537,132.9z M537,121.3c-2.4,0-4.4,2-4.4,4.4c0,2.4,2,4.4,4.4,4.4c2.4,0,4.4-2,4.4-4.4
	C541.4,123.4,539.4,121.3,537,121.3z M566.4,129.9c0,1.8-0.9,2.8-2.8,2.8h-11.1v-13.8h11.1c1.5,0,2.8,1.3,2.8,2.8V129.9z
	 M563.6,129.9v-8.3h-8.3v8.3H563.6z M588.7,132.6h-2.8v-5.5h-8.3v5.5h-2.8v-11c0-1.7,1.1-2.8,2.8-2.8h8.3c1.6,0,2.8,1.2,2.8,2.8
	V132.6z M585.9,124.3v-2.8h-8.3v2.8H585.9z M609.5,118.8l-5.6,9v4.8h-2.8v-4.8l-5.5-9h3.2l3.7,6.2l3.8-6.2H609.5z"/>
<linearGradient id="SVGID_1_" gradientUnits="userSpaceOnUse" x1="473.0191" y1="90.1234" x2="523.1088" y2="40.0336">
	<stop  offset="0" style="stop-color:#5934DF"/>
	<stop  offset="1" style="stop-color:#DB80EB"/>
</linearGradient>
<path class="st2" d="M512.7,39.3h-31.8v6.3c5.2,6.3,8.3,14.3,8.3,23.1c0,8.8-3.1,16.8-8.3,23.1V98h20.4V83.6h11.3
	c12.3,0.2,22.4-9.4,23-20.9C536.3,50.3,525.9,39.2,512.7,39.3z M515.9,62.1c-0.2,3.1-2.7,5.6-6,6h-8.8V55.1h8.8
	C513.5,55.5,516.1,58.7,515.9,62.1z"/>
<linearGradient id="SVGID_00000134941121014852496450000017715998906673834908_" gradientUnits="userSpaceOnUse" x1="429.4431" y1="92.3535" x2="476.8207" y2="44.9758">
	<stop  offset="0" style="stop-color:#5934DF"/>
	<stop  offset="1" style="stop-color:#DB80EB"/>
</linearGradient>
<path style="fill:url(#SVGID_00000134941121014852496450000017715998906673834908_);" d="M480.9,49.9c-6-8.9-16.2-14.8-27.8-14.8
	c-18.5,0-33.5,15-33.5,33.5c0,18.5,15,33.5,33.5,33.5c11.6,0,21.7-5.8,27.8-14.7c3.6-5.4,5.7-11.8,5.7-18.8
	C486.6,61.7,484.5,55.3,480.9,49.9z M453.1,80.5c-6.5,0-11.8-5.3-11.8-11.8c0-6.5,5.3-11.8,11.8-11.8S465,62.1,465,68.7
	C465,75.2,459.7,80.5,453.1,80.5z"/>
<linearGradient id="SVGID_00000029035236395864146690000013875699413519673732_" gradientUnits="userSpaceOnUse" x1="-1.1487" y1="102.4689" x2="86.0143" y2="15.3059">
	<stop  offset="0" style="stop-color:#5934DF"/>
	<stop  offset="1" style="stop-color:#DB80EB"/>
</linearGradient>
<path style="fill:url(#SVGID_00000029035236395864146690000013875699413519673732_);" d="M99,48.8v34.3c0,27.3-22.2,49.5-49.5,49.5
	h0C22.2,132.6,0,110.5,0,83.1V55.3h19c3.2,0,5.8,2.6,5.8,5.8v22.4C24.7,97,35.6,108,49,108.3c13.9,0.3,25.2-11.4,25.2-25.3V48.4
	c0-9.9-5.8-18.4-14.2-22.4c-1.4-0.7-2.3-2-2.3-3.6V0C81.2,3.9,99,24.3,99,48.8z M5.4,38.8l29.8,2.8c3.7,0.4,6.9-2.8,6.5-6.5
	L38.8,5.4C38.6,2.3,36,0,32.9,0H0v32.9C0,36,2.3,38.6,5.4,38.8z"/>
</svg>
