<?xml version="1.0" encoding="utf-8"?>
<!-- Generator: Adobe Illustrator 27.0.0, SVG Export Plug-In . SVG Version: 6.00 Build 0)  -->
<svg version="1.1" id="Intelliopia" xmlns="http://www.w3.org/2000/svg" xmlns:xlink="http://www.w3.org/1999/xlink" x="0px"
	 y="0px" viewBox="0 0 609.5 134.5" style="enable-background:new 0 0 609.5 134.5;" xml:space="preserve">
<style type="text/css">
	.st0{fill:#1E1441;}
	.st1{fill:#DB80EB;}
	.st2{fill:url(#SVGID_1_);}
	.st3{fill:url(#SVGID_00000145776771471546698570000000295350584210941587_);}
	.st4{fill:url(#SVGID_00000088132931013778434940000001566845603519353744_);}
</style>
<path class="st0" d="M261.9,62.8h47v11.5h-47V62.8z M261.9,51.2h47V39.6h-47V51.2z M261.9,97.5h47V86h-47V97.5z M210.8,51.1H227
	v46.5h12.3V51.1h16.2V39.6h-44.7V51.1z M137.8,97.5h12.3V39.6h-12.3V97.5z M191.7,70.7l-34.8-31.1v57.9h12.3v-31l34.8,31V39.6h-12.3
	V70.7z M370.5,39.6h-12.3v57.9h36.1V86h-23.8V39.6z M583.3,39.5l-25.7,58h13.3l12.4-28l12.5,28H609L583.3,39.5z M541,97.5h12.3V39.6
	H541V97.5z M401.1,97.5h12.3V39.6h-12.3V97.5z M327.7,39.6h-12.3v57.9h36.1V86h-23.8V39.6z"/>
<path id="envision_tomorrow_x2C__xA0_today_00000150096578200256701250000011058934612431765682_" class="st1" d="M148.9,132.5h-11
	v-13.8h11v2.8h-8.3v2.8h8.2v2.8h-8.2v2.8h8.3V132.5z M171,132.5h-1.7l-9.3-9.4v9.4h-2.8v-13.8h2.3l8.7,9v-9h2.7V132.5z M192.7,118.7
	l-5.6,13.8h-2.8l-5.5-13.8h3.2l3.7,10.2l3.9-10.2H192.7z M203.3,132.5h-2.8v-13.8h2.8V132.5z M224.7,129.8c0,1.8-1,2.8-2.8,2.8H212
	v-2.8h9.9V127h-7.3c-1.6,0-2.8-0.9-2.8-2.8v-2.8c0-1.8,1.1-2.8,2.8-2.8h9.4v2.8h-9.4v2.8h7.3c1.7,0,2.8,1.1,2.8,2.8V129.8z
	 M236,132.5h-2.8v-13.8h2.8V132.5z M251.6,132.8c-3.9,0-7.2-3.2-7.2-7.1c0-3.9,3.2-7.2,7.2-7.2c3.9,0,7.1,3.3,7.1,7.2
	S255.4,132.8,251.6,132.8z M251.6,121.2c-2.4,0-4.4,2-4.4,4.4c0,2.4,2,4.4,4.4,4.4c2.4,0,4.4-2,4.4-4.4
	C255.9,123.3,254,121.2,251.6,121.2z M280.9,132.5h-1.7l-9.3-9.4v9.4h-2.8v-13.8h2.3l8.7,9v-9h2.7V132.5z M315.9,121.5h-5.5v11h-2.7
	v-11h-5.5v-2.8h13.8V121.5z M329.8,132.8c-3.9,0-7.2-3.2-7.2-7.1c0-3.9,3.2-7.2,7.2-7.2c3.9,0,7.1,3.3,7.1,7.2
	S333.6,132.8,329.8,132.8z M329.8,121.2c-2.4,0-4.4,2-4.4,4.4c0,2.4,2,4.4,4.4,4.4c2.4,0,4.4-2,4.4-4.4
	C334.1,123.3,332.2,121.2,329.8,121.2z M361.9,132.5h-2.8v-7.9l-3.8,7.9h-3.5l-3.8-7.9v7.9h-2.8v-13.8h2.9l5.4,11.1l5.4-11.1h2.8
	V132.5z M377.4,132.8c-3.9,0-7.2-3.2-7.2-7.1c0-3.9,3.2-7.2,7.2-7.2c3.9,0,7.1,3.3,7.1,7.2S381.3,132.8,377.4,132.8z M377.4,121.2
	c-2.4,0-4.4,2-4.4,4.4c0,2.4,2,4.4,4.4,4.4c2.4,0,4.4-2,4.4-4.4C381.8,123.3,379.8,121.2,377.4,121.2z M406.8,132.5h-4.2l-6.5-5.5
	h-0.4v5.5H393v-13.8h10.6c1.5,0,2.8,1.2,2.8,2.8v2.8c0,1.8-0.9,2.8-2.8,2.8h-3.4L406.8,132.5z M403.5,124.4v-2.9h-7.8v2.9H403.5z
	 M428.5,132.5h-4.2l-6.5-5.5h-0.4v5.5h-2.8v-13.8h10.6c1.5,0,2.8,1.2,2.8,2.8v2.8c0,1.8-0.9,2.8-2.8,2.8h-3.4L428.5,132.5z
	 M425.3,124.4v-2.9h-7.8v2.9H425.3z M443.2,132.8c-3.9,0-7.2-3.2-7.2-7.1c0-3.9,3.2-7.2,7.2-7.2c3.9,0,7.1,3.3,7.1,7.2
	S447,132.8,443.2,132.8z M443.2,121.2c-2.4,0-4.4,2-4.4,4.4c0,2.4,2,4.4,4.4,4.4c2.4,0,4.4-2,4.4-4.4
	C447.5,123.3,445.6,121.2,443.2,121.2z M478.7,118.7l-5.3,13.8h-2.9l-2.9-8.8l-3,8.8h-3l-5.1-13.8h3.1l3.5,10l3.4-10h2.2l3.1,10
	l3.7-10H478.7z M484.8,134.4l-0.4-0.6c0.6-0.3,1-0.7,1.1-1.3c-0.9,0-1.5-0.8-1.5-1.7c0-1.1,0.7-1.9,1.9-1.9c1,0,1.9,0.7,1.9,2
	C487.9,132.6,486.9,134,484.8,134.4z M522.7,121.5h-5.5v11h-2.7v-11h-5.5v-2.8h13.8V121.5z M536.6,132.8c-3.9,0-7.2-3.2-7.2-7.1
	c0-3.9,3.2-7.2,7.2-7.2c3.9,0,7.1,3.3,7.1,7.2S540.4,132.8,536.6,132.8z M536.6,121.2c-2.4,0-4.4,2-4.4,4.4c0,2.4,2,4.4,4.4,4.4
	c2.4,0,4.4-2,4.4-4.4C540.9,123.3,539,121.2,536.6,121.2z M565.9,129.8c0,1.8-0.9,2.8-2.8,2.8h-11.1v-13.8h11.1
	c1.5,0,2.8,1.3,2.8,2.8V129.8z M563.2,129.8v-8.3h-8.3v8.3H563.2z M588.2,132.5h-2.8V127h-8.3v5.5h-2.8v-11c0-1.7,1.1-2.8,2.8-2.8
	h8.3c1.6,0,2.8,1.2,2.8,2.8V132.5z M585.5,124.2v-2.8h-8.3v2.8H585.5z M609,118.7l-5.6,9v4.8h-2.8v-4.8l-5.5-9h3.2l3.7,6.2l3.8-6.2
	H609z"/>
<linearGradient id="SVGID_1_" gradientUnits="userSpaceOnUse" x1="472.5449" y1="90.023" x2="522.6347" y2="39.9332">
	<stop  offset="0" style="stop-color:#5934DF"/>
	<stop  offset="1" style="stop-color:#DB80EB"/>
</linearGradient>
<path class="st2" d="M512.2,39.2h-31.8v6.3c5.2,6.3,8.3,14.3,8.3,23.1c0,8.8-3.1,16.8-8.3,23.1v6.3h20.4V83.5h11.3
	c12.3,0.2,22.4-9.4,23-20.9C535.9,50.2,525.4,39.1,512.2,39.2z M515.4,62c-0.2,3.1-2.7,5.6-6,6h-8.8V55h8.8
	C513,55.4,515.7,58.6,515.4,62z"/>
<linearGradient id="SVGID_00000130636025016630460220000003977393204956971937_" gradientUnits="userSpaceOnUse" x1="428.9689" y1="92.253" x2="476.3466" y2="44.8754">
	<stop  offset="0" style="stop-color:#5934DF"/>
	<stop  offset="1" style="stop-color:#DB80EB"/>
</linearGradient>
<path style="fill:url(#SVGID_00000130636025016630460220000003977393204956971937_);" d="M480.4,49.8c-6-8.9-16.2-14.8-27.8-14.8
	c-18.5,0-33.5,15-33.5,33.5c0,18.5,15,33.5,33.5,33.5c11.6,0,21.7-5.8,27.8-14.7c3.6-5.4,5.7-11.8,5.7-18.8
	C486.2,61.6,484,55.2,480.4,49.8z M452.7,80.4c-6.5,0-11.8-5.3-11.8-11.8c0-6.5,5.3-11.8,11.8-11.8s11.8,5.3,11.8,11.8
	C464.5,75.1,459.2,80.4,452.7,80.4z"/>
<linearGradient id="SVGID_00000146499459001769331400000013763149915479663037_" gradientUnits="userSpaceOnUse" x1="-1.6229" y1="102.387" x2="85.5401" y2="15.224">
	<stop  offset="0" style="stop-color:#5934DF"/>
	<stop  offset="1" style="stop-color:#DB80EB"/>
</linearGradient>
<path style="fill:url(#SVGID_00000146499459001769331400000013763149915479663037_);" d="M98.5,48.7V83c0,27.3-22.2,49.5-49.5,49.5
	h0c-27.3,0-49.5-22.2-49.5-49.5V55.2h19c3.2,0,5.8,2.6,5.8,5.8v22.4c0,13.5,10.8,24.5,24.3,24.8c13.9,0.3,25.2-11.4,25.2-25.3V48.3
	c0-9.9-5.8-18.4-14.2-22.4c-1.4-0.7-2.3-2-2.3-3.6V-0.1C80.7,3.9,98.5,24.2,98.5,48.7z M4.9,38.8l29.8,2.8c3.7,0.4,6.9-2.8,6.5-6.5
	L38.4,5.3c-0.3-3.1-2.9-5.4-5.9-5.4H-0.5v32.9C-0.5,35.9,1.9,38.5,4.9,38.8z"/>
</svg>
