<svg width="1067" height="832" viewBox="0 0 1067 832" fill="none" xmlns="http://www.w3.org/2000/svg">
<path fill-rule="evenodd" clip-rule="evenodd" d="M804.154 85.779C712.954 54.0773 587.84 47.1921 424.105 90.1067C408.078 94.3074 391.68 84.7201 387.479 68.6929C383.279 52.6657 392.866 36.2678 408.893 32.0671C675.635 -37.8455 859.702 14.6034 964.876 111.936C1010.94 154.566 1041.11 205.258 1055.76 256.314C1064.97 288.439 1068.09 320.875 1065 351.594C1059.99 401.303 1038.53 447.292 999.755 478.342C965.84 505.497 921.205 519.209 868.617 516.287C848.787 561.984 815.331 593.453 772 609.984C728.402 626.617 677.322 627.216 623.943 616.148C576.335 680.444 537.966 728.008 507.795 761.415C491.501 779.457 477.253 793.755 464.954 804.443C453.172 814.684 441.265 823.327 429.72 827.855C423.861 830.153 415.799 832.32 406.743 831.228C396.525 829.995 387.248 824.827 380.898 816.31C375.267 808.758 373.356 800.509 372.665 794.475C371.948 788.203 372.277 781.888 373.007 776.094C374.536 763.958 378.495 749.355 384.238 733.164C331.608 731.284 289.109 720.039 257.224 699.392C222.859 677.139 203.279 645.554 196.33 609.497C158.984 602.42 126.808 583.157 107.211 551.091C83.3758 512.088 82.3225 460.972 102.847 405.224C108.571 389.675 125.815 381.711 141.364 387.435C156.912 393.16 164.876 410.404 159.152 425.953C142.677 470.704 147.123 501.338 158.408 519.803C165.899 532.06 178.271 542.015 195.75 547.624C202.916 499.688 226.164 448.24 259.87 398.437C229.374 368.354 199.897 335.712 172.046 300.795C161.715 287.842 163.839 268.967 176.792 258.635C189.745 248.303 208.621 250.428 218.952 263.381C243.679 294.381 269.623 323.326 296.291 350.052C297.35 348.777 298.414 347.504 299.485 346.233C365.465 267.916 457.991 193.962 563.356 144.995C638.088 110.265 720.121 87.7517 804.154 85.779ZM929.192 160.777C827.688 132.68 722.557 145.668 625.359 183.696C653.693 215.387 683.538 244.501 713.822 269.8C759.922 231.999 808.734 202.521 857.867 189.344C889.105 180.966 921.042 179.033 952.449 186.282C945.422 177.543 937.675 169.013 929.192 160.777ZM1004.49 303.457C1002.51 288.447 994.62 273.88 982.377 264.973C969.084 255.301 955.677 249.098 942.308 245.574C921.165 240 898.235 240.637 873.409 247.296C838.472 256.666 801.132 277.61 763.077 307.239C785.709 322.715 808.265 335.714 830.302 345.727C868.663 363.156 903.72 370.751 934.013 368.247C950.094 366.917 965.308 362.721 979.528 355.073C998.168 345.047 1007.26 324.44 1004.49 303.457ZM972.468 422.136C961.587 425.142 950.395 427.097 938.956 428.043C895.3 431.651 849.766 420.472 805.484 400.353C775.723 386.832 745.747 368.92 716.242 347.659C714.731 349.087 713.219 350.526 711.707 351.977C702.09 361.211 692.557 370.829 683.136 380.76C750.381 425.577 807.172 447.746 852.844 454.431C902.747 461.736 938.451 450.564 962.253 431.505C965.858 428.619 969.266 425.491 972.468 422.136ZM634.061 345.362C609.669 326.474 584.099 304.802 557.377 280.07C545.217 268.815 526.236 269.549 514.982 281.709C503.728 293.869 504.462 312.85 516.622 324.104C543.298 348.794 569.184 370.847 594.253 390.411C562.471 428.299 532.645 468.472 505.823 508.208C451.362 479.437 394.765 440.034 340.009 391.344C341.771 389.194 343.558 387.043 345.371 384.891C401.65 318.089 479.493 254.29 568.086 209.391C599.502 245.871 633.434 280.096 668.628 310.164C656.955 321.426 645.419 333.195 634.061 345.362ZM304.355 439.898C269.813 493.081 252.325 542.939 253.467 581.57C254.337 610.993 265.781 633.452 289.836 649.029C313.238 664.182 351.391 674.594 409.675 673.347C426.145 639.086 447.705 599.824 473.119 558.773C416.807 528.509 359.454 488.37 304.355 439.898ZM527.44 585.037C497.721 632.576 473.312 677.757 456.448 714.971C452.378 723.952 448.852 732.245 445.848 739.811C451.183 734.344 456.983 728.157 463.267 721.2C488.873 692.847 521.546 652.757 562.154 598.648C550.697 594.584 539.115 590.042 527.44 585.037ZM407.659 772.052C407.659 772.052 407.707 772.032 407.799 772.003C407.704 772.04 407.659 772.052 407.659 772.052ZM560.859 533.971C585.914 497.362 613.544 460.54 642.788 425.918C702.817 466.83 757.619 492.75 806.783 505.983C793.1 529.746 773.839 545.065 750.614 553.925C717.243 566.656 672.45 567.193 618.991 553.407C600.264 548.578 580.814 542.074 560.859 533.971Z" fill="#6D4DF2"/>
<path d="M229 139.088C229 166.15 207.062 188.088 180 188.088C152.938 188.088 131 166.15 131 139.088C131 112.026 152.938 90.0879 180 90.0879C207.062 90.0879 229 112.026 229 139.088Z" fill="#64E1B0"/>
<path d="M466 61.0879C466 88.1498 444.062 110.088 417 110.088C389.938 110.088 368 88.1498 368 61.0879C368 34.0259 389.938 12.0879 417 12.0879C444.062 12.0879 466 34.0259 466 61.0879Z" fill="#64E1B0"/>
<path d="M653 171.088C653 206.986 623.899 236.088 588 236.088C552.101 236.088 523 206.986 523 171.088C523 135.189 552.101 106.088 588 106.088C623.899 106.088 653 135.189 653 171.088Z" fill="#64E1B0"/>
<path d="M369 394.088C369 432.748 337.66 464.088 299 464.088C260.34 464.088 229 432.748 229 394.088C229 355.428 260.34 324.088 299 324.088C337.66 324.088 369 355.428 369 394.088Z" fill="#64E1B0"/>
<path d="M907 491.088C907 526.986 877.899 556.088 842 556.088C806.101 556.088 777 526.986 777 491.088C777 455.189 806.101 426.088 842 426.088C877.899 426.088 907 455.189 907 491.088Z" fill="#64E1B0"/>
<path d="M66 270.088C66 288.313 51.2254 303.088 33 303.088C14.7746 303.088 0 288.313 0 270.088C0 251.862 14.7746 237.088 33 237.088C51.2254 237.088 66 251.862 66 270.088Z" fill="#64E1B0"/>
<path d="M344 229.088C344 242.895 332.807 254.088 319 254.088C305.193 254.088 294 242.895 294 229.088C294 215.281 305.193 204.088 319 204.088C332.807 204.088 344 215.281 344 229.088Z" fill="#64E1B0"/>
<path d="M671 688.088C671 701.895 659.807 713.088 646 713.088C632.193 713.088 621 701.895 621 688.088C621 674.281 632.193 663.088 646 663.088C659.807 663.088 671 674.281 671 688.088Z" fill="#64E1B0"/>
</svg>
