<svg xmlns="http://www.w3.org/2000/svg" version="1.2" viewBox="0 0 1027 548" width="1027" height="548"><defs fill="#000000"><clipPath clipPathUnits="userSpaceOnUse" id="cp1" fill="#000000"><path d="m-569-806h2160v2160h-2160z" fill="#000000"/></clipPath><clipPath clipPathUnits="userSpaceOnUse" id="cp2" fill="#000000"><path d="m592.53 146.8c-5.98-16.43 2.52-34.97 19.84-37.38 20.63-2.86 41.74-1.41 61.98 4.39 30.45 8.73 57.35 26.88 76.85 51.84 19.5 24.96 30.6 55.46 31.71 87.12 1.1 31.65-7.84 62.85-25.55 89.11-17.72 26.26-43.29 46.24-73.06 57.07-29.76 10.84-62.2 11.97-92.65 3.24-30.45-8.73-57.35-26.88-76.85-51.84-15.38-19.69-25.53-42.81-29.68-67.23-1.85-10.89 6.92-20.2 17.96-20.58l36.98-1.29c0.68 19.62 7.56 38.53 19.65 54.01 12.1 15.47 28.78 26.72 47.66 32.14 18.87 5.41 38.98 4.71 57.44-2.01 18.45-6.72 34.31-19.1 45.29-35.39 10.98-16.28 16.53-35.62 15.84-55.25-0.68-19.62-7.56-38.53-19.66-54.01-12.09-15.47-28.77-26.72-47.65-32.14-10.69-3.07-21.79-4.17-32.75-3.33-13.95 1.07-28.57-5.32-33.35-18.47z" fill="#000000"/></clipPath><clipPath clipPathUnits="userSpaceOnUse" id="cp3" fill="#000000"><path d="m540 258c0 82.84-67.16 150-150 150-82.84 0-150-67.16-150-150 0-82.84 67.16-150 150-150 82.84 0 150 67.16 150 150zm-243 0c0 51.36 41.64 93 93 93 51.36 0 93-41.64 93-93 0-51.36-41.64-93-93-93-51.36 0-93 41.64-93 93z" fill="#000000"/></clipPath></defs><style>.a{fill:#000000}</style><g clip-path="url(#cp1)"><g clip-path="url(#cp2)"><path class="a" d="m620.1 164.9c12.9-1.8 26.1-0.9 38.8 2.7l30.9-107.6c-27.8-8-56.8-10-85.1-6zm-13 183.4c-19.1-5.4-36-16.8-48.2-32.5l-88.2 69c26.8 34.3 63.7 59.2 105.5 71.2zm-67-87.1l56-2-2-55.9-56 1.9zm210.4-95c-19.4-24.8-46.1-42.8-76.4-51.5l-30.8 107.7c7.5 2.1 14.1 6.6 18.9 12.8zm-76.3-51.5c-17.2-4.9-34.9-6.7-52.5-5.3l8.6 111.6c4.3-0.3 8.8 0.1 13 1.3zm-52.5-5.3c2.6-0.2 6 0.2 10 2.2 4.4 2.3 10.4 7.4 13.6 16l-105.3 38.3c16.3 44.6 60.7 57.5 90.3 55.2zm-16.9-55.5c-60.9 8.5-79.9 70.4-64.8 112l105.3-38.3c2.1 6 2.1 13.4-1.5 20.5-4 7.9-12.5 15.2-23.6 16.7zm-45.8 262c-9.6-12.4-16-26.9-18.6-42.2l-110.4 18.8c5.7 33.5 19.7 65.3 40.8 92.3zm-53.9 2.6l37-1.3-3.9-111.9-37 1.3zm153.9-150.9c19 5.5 35.9 16.9 48.1 32.5l88.3-68.9c-26.8-34.3-63.7-59.2-105.6-71.2zm15.5-53.8l15.4-53.9zm32.7 86.3c12.3 15.7 19.2 34.8 19.9 54.6l111.9-3.9c-1.5-43.5-16.7-85.3-43.5-119.6zm19.9 54.6c0.7 19.8-4.9 39.4-16 55.8l92.8 62.7c24.3-36.1 36.6-79 35.1-122.4zm-16 55.8c-11.1 16.5-27.1 29-45.8 35.8l38.3 105.2c40.9-14.9 76-42.3 100.3-78.4zm-45.7 35.8c-18.7 6.8-39 7.5-58.1 2l-30.9 107.7c41.8 12 86.4 10.4 127.3-4.4zm-150.4 4l44.1-34.5zm-30.7-87.2c1.1 31.5 12.2 61.8 31.5 86.6l88.3-69c-4.8-6.1-7.6-13.7-7.8-21.5zm56.2 10.6c4.7 27.5-17.8 44.1-35.3 44.7l-3.9-111.9c-39.6 1.4-79.6 36.6-71.2 85.9zm-55.2 9.4l55.2-9.4zm30.4 66.6c19.4 24.8 46.1 42.9 76.4 51.5l30.9-107.6c-7.5-2.2-14.2-6.6-19-12.8zm76.3 51.5c30.3 8.7 62.5 7.5 92.1-3.2l-38.3-105.3c-7.4 2.7-15.4 3-22.9 0.8zm92.1-3.2c29.5-10.7 54.9-30.6 72.5-56.7l-92.8-62.6c-4.4 6.5-10.7 11.4-18.1 14.1zm72.6-56.7c17.6-26.1 26.5-57.1 25.4-88.5l-111.9 3.9c0.2 7.8-2 15.5-6.3 21.9zm25.3-88.5c-1.1-31.4-12.1-61.7-31.5-86.5l-88.2 68.9c4.8 6.2 7.5 13.7 7.8 21.5zm-123.3-84.2l15.5-53.8zm-32.8-3.3l4.3 55.8zm-33.3-18.5l-52.7 19.2zm19.9-37.4l-7.7-55.5zm-109.3 153.2l1.9 55.9z" fill="#000000"/></g><path class="a" d="m106.4 146.8c-5.9-16.4 2.6-35 19.9-37.4 20.6-2.8 41.7-1.4 62 4.4 30.4 8.7 57.3 26.9 76.8 51.9 19.5 24.9 30.6 55.4 31.7 87.1 1.1 31.6-7.8 62.8-25.5 89.1-17.7 26.2-43.3 46.2-73.1 57.1-29.8 10.8-62.2 11.9-92.6 3.2-30.5-8.7-57.4-26.9-76.9-51.9-13-16.5-22.2-35.6-27.3-55.8-4.2-16.9 9.8-31.8 27.2-32.4 14-0.5 25.4 10.7 29.7 24 3.3 10.5 8.5 20.4 15.3 29.2 12.1 15.4 28.8 26.7 47.7 32.1 18.9 5.4 39 4.7 57.4-2 18.5-6.7 34.3-19.1 45.3-35.4 11-16.3 16.5-35.6 15.9-55.2-0.7-19.7-7.6-38.6-19.7-54.1-12.1-15.4-28.8-26.7-47.7-32.1-10.7-3.1-21.7-4.2-32.7-3.3-14 1-28.6-5.3-33.4-18.5z" fill="#000000"/><g clip-path="url(#cp3)"><path class="a" d="m484 258c0 51.9-42.1 94-94 94v112c113.8 0 206-92.2 206-206zm-94 94c-51.9 0-94-42.1-94-94h-112c0 113.8 92.2 206 206 206zm-94-94c0-51.9 42.1-94 94-94v-112c-113.8 0-206 92.2-206 206zm94-94c51.9 0 94 42.1 94 94h112c0-113.8-92.2-206-206-206zm-149 94c0 82.3 66.7 149 149 149v-112c-20.4 0-37-16.6-37-37zm149 149c82.3 0 149-66.7 149-149h-112c0 20.4-16.6 37-37 37zm149-149c0-82.3-66.7-149-149-149v112c20.4 0 37 16.6 37 37zm-149-149c-82.3 0-149 66.7-149 149h112c0-20.4 16.6-37 37-37z" fill="#000000"/></g><path fill-rule="evenodd" class="a" d="m398.2 54.3q4 1.9 9.8 0.8 6.7-1.3 9.9-6 3.3-4.8 5.2-10.7 0.5-2.4 0.8-5.9 0.3-3.5 0-6.8-0.1-3.5-1.1-6.2-0.8-2.7-2.4-3.5l-5.8 11.1q0.1 0.3 0.7 2.2 0.8 1.8 1.2 3.4 0.4 1.6 0.6 3 0.1 1.4-0.2 1.8-2.7 2.2-6.3 3.1-3.5 1-5.7 0.5-4.3-0.9-5.7-3.5-1.5-2.7-1.5-7.3 0-0.5 0-1.4 0-1.1-0.1-2.3-0.2-1.1-0.5-1.9-0.2-0.9-0.6-0.9-2.3 0-3.2 2.1-1 2-1.1 4.1-0.3 2.4-1.3 6-0.9 3.7-3 6.1-2.2 2.5-4.4 4.1-2.1 1.4-4.8 2.5-2.5 1.1-5.2 1.3-2.7 0-5.1-1.7-1.6-1.5-2.1-3.1-0.5-1.6-0.5-3.8 0.2-2.4 0.7-4.7 0.6-2.4 1.6-4.2 1.5-3-0.4-2.8-1.9 0.6-3.6 2.8-1.6 2.1-2.9 5-1.2 3-1.9 6.5-0.6 3.3-0.3 6.5 0.6 7.1 4.5 10 3.9 2.9 9.2 2.7 6.5-0.2 11.2-3.8 4.5-3.5 8-10.5 2.3 3.5 6.3 5.4zm478.8 53.7c-82.8 0-150 67.2-150 150 0 82.8 67.2 150 150 150 82.8 0 150-67.2 150-150 0-82.8-67.2-150-150-150zm0 57c51.4 0 93 41.6 93 93 0 51.4-41.6 93-93 93-51.4 0-93-41.6-93-93 0-51.4 41.6-93 93-93z" fill="#000000"/><path fill-rule="evenodd" class="a" d="m851.6 74.5q5.2-3 10.3-6 5.1-3 9.8-6.5 4.9-3.5 9.7-7.6 4.8-4.2 9.2-9.4-4.3-1.3-9-4.3-4.8-3-7.7-6.5-1.4-1.8-1.7-4.5-0.3-2.8 0.5-5.2 1.2-3.8 3.5-8.3 2.3-4.4 5.5-8.1 3.2-3.6 7-5.9 4-2.3 7.9-2.2 5 0.3 7.2 4.8 2.2 4.3 2.7 10 0.6 5.7 0 11.3-0.5 5.5-0.8 8.1 0 0.8 0.5 1.2 1.9 1.2 2.5 2.1 0.8 1 1.3 2.2 0.9 2.4 0.3 5.8-0.5 3.3-1.9 5-1.3 1.6-2.2 1.6-1-0.1-2-1.6-0.7-0.9-1.5-1.7-0.7-1-2.1-1.6-4.4 5.4-9.5 10.3-4.9 5-10.5 9.1-5.7 4-11.9 7.1-6.2 3.2-13 5.3-2.7 0.8-5.6 1.1-2.8 0.2-3.1-0.6-0.4-1 1.1-2.3 1.4-1.4 3.5-2.7zm29.8-53.4q3.3 4.7 7.9 7.4 4.6 2.5 8.4 3.4h0.4q0-1.2 0.1-3.3 0.2-2.2 0-4.4 0-2.3-0.6-4.3-0.5-2.1-1.9-3.5-1.3-1.1-3.7-1-2.2 0-4.4 0.8-2.2 0.8-4.1 2.2-1.8 1.3-2.1 2.7zm-220.4 13.5q-7.9 3.7-16.6 7.7-8.6 3.9-16.7 7.6-8.1 3.6-15.1 6.8-6.9 3.2-11.9 5.3-1.1 0.4-1.6 0-0.4-0.5 0-1.5l7.8-15.5q0.8-1.3 1.6-1.8 1-0.6 1.8-1.1l57.9-25.7q2.5-1.2 1.6 1.2l-6.5 14.8q-0.5 1.4-2.3 2.2zm-416.9 500.3q-0.1 5 1.9 7.9 2.1 2.8 5.9 2.8 0.3 0 0.3 0.5 0 0.6-0.3 0.6-2.5 0-3.9-0.1l-5-0.1-5.8 0.1q-1.4 0.1-3.9 0.1-0.3 0-0.3-0.6 0-0.5 0.3-0.5 3.7 0 5.9-2.9 2.2-2.9 2.3-7.8l0.8-38.4v-0.1q-1.9-3.5-3.9-5.1-1.9-1.5-4.5-1.5-0.3 0-0.3-0.6 0-0.5 0.3-0.5h4.3q1.3 0.1 3.3 0.1l4.9-0.1q0.8 0 2.1 0 1.2 0 1.8 0.8 0.7 0.8 2.4 4l20 38 17.5-40.5q0.5-1.3 1.1-1.8 0.6-0.5 1.6-0.5 0.8 0 1.9 0 1.1 0.1 2.4 0.1l5.4-0.1q1.3 0 3.7 0 0.3 0 0.3 0.5 0 0.6-0.3 0.6-4.3 0-6.2 1.7-1.9 1.8-1.8 5.5l2.2 42.2q0.2 2.9 0.7 4.2 0.5 1.3 1.8 1.7 1.4 0.5 4.2 0.5 0.2 0 0.2 0.5 0 0.6-0.2 0.6-3.1 0-4.9-0.1l-6.8-0.1-6.9 0.1q-1.7 0.1-4.8 0.1-0.2 0-0.2-0.6 0-0.5 0.2-0.5 3 0 4.3-0.5 1.5-0.5 2-1.8 0.4-1.3 0.3-4.1l-2-38-18.9 44.8q-0.2 0.4-0.7 0.4-0.6 0-0.7-0.4l-23.2-44.6z" fill="#000000"/><path fill-rule="evenodd" class="a" d="m361.9 526.5q0 8.7-4.3 13.4-4.4 4.7-12 4.7-7.9 0-12.2-5.3-4.3-5.3-4.3-16.4v-26.5q0-2.8 0.5-4.1 0.5-1.4 1.8-2 1.4-0.5 4.2-0.5 0.3 0 0.3-0.6 0-0.5-0.3-0.5h-4.7q-4.2 0.2-6.9 0.2-2.5 0-6.7-0.2h-4.9q-0.3 0-0.3 0.5 0 0.6 0.3 0.6 2.9 0 4.1 0.5 1.4 0.5 1.9 1.8 0.5 1.3 0.5 4.1v30q0 6.7 3 11.7 3 4.9 8.2 7.5 5.3 2.6 12 2.6 6.8 0 12-2.6 5.2-2.7 8-7.6 2.9-4.9 2.9-11.4v-25.9q0-5 2-7.9 2-2.8 5.6-2.8 0.2 0 0.2-0.6 0-0.5-0.2-0.5h-4.2q-3.3 0.2-5.1 0.2-2.1 0-5.6-0.2h-4.4q-0.1 0-0.1 0.5 0 0.6 0.1 0.6 4.1 0 6.3 2.8 2.3 2.9 2.3 7.9zm61.9-11.2h-29.6v-18.9q0-2.7 0.5-4 0.7-1.4 2.2-2 1.6-0.5 4.9-0.5 0.2 0 0.2-0.6 0-0.6-0.2-0.6l-5 0.1q-4.6 0.2-8.1 0.2-2.6 0-6.8-0.2l-5-0.1q-0.2 0-0.2 0.6 0 0.6 0.2 0.6 3.2 0 4.5 0.5 1.5 0.5 2 1.8 0.6 1.3 0.6 4.1v43q0 2.7-0.6 4.1-0.5 1.3-2 1.8-1.4 0.5-4.6 0.5-0.2 0-0.2 0.5 0 0.6 0.2 0.6 3.2 0 5-0.1l6.9-0.1 8 0.1q1.9 0.1 5.1 0.1 0.2 0 0.2-0.6 0-0.5-0.2-0.5-3.4 0-5-0.5-1.5-0.5-2.1-1.8-0.5-1.4-0.5-4.1v-21.4h29.6v21.4q0 2.8-0.5 4.1-0.6 1.3-2.1 1.8-1.6 0.5-5 0.5-0.3 0-0.3 0.5 0 0.6 0.3 0.6 2.9 0 4.5-0.1l8.3-0.1 7 0.1q2 0.1 5.2 0.1 0.2 0 0.2-0.6 0-0.5-0.2-0.5-3.2 0-4.7-0.5-1.5-0.5-2-1.8-0.5-1.4-0.5-4.1v-43q0-2.8 0.5-4.1 0.5-1.3 2-1.8 1.5-0.5 4.7-0.5 0.2 0 0.2-0.6 0-0.6-0.2-0.6l-5.2 0.1q-4.6 0.2-7 0.2-3.7 0-8.3-0.2l-4.5-0.1q-0.3 0-0.3 0.6 0 0.6 0.3 0.6 3.4 0 5 0.5 1.5 0.6 2.1 2 0.5 1.3 0.5 4zm81.7 27.9q-2.1-2.5-5.4-9.1l-22.9-45.7q-0.1-0.3-0.8-0.3-0.7 0-0.9 0.3l-19.9 44.3q-2.3 5.4-4.1 8.2-1.7 2.7-3.5 3.8-1.7 1-4.3 1-0.4 0-0.4 0.6 0 0.5 0.4 0.5 1.9 0 5.1-0.2 3.4-0.1 5.9-0.1 2.6 0 6.1 0.1 3.1 0.2 4.7 0.2 0.5 0 0.5-0.5 0-0.6-0.5-0.6-3.9 0-6.3-1.8-2.3-1.9-2.3-5.2 0-2.4 1.2-5.1l3.6-8h22.5l6.3 12.5q1.8 3.7 1.8 5.3 0 1.3-1.1 1.9-1 0.4-3.4 0.4-0.3 0-0.3 0.6 0 0.5 0.3 0.5 1.9 0 5-0.2 3.3-0.1 5.6-0.1 1.7 0 5.8 0.1 3.8 0.2 5.7 0.2 0.4 0 0.4-0.5 0-0.6-0.4-0.6-2.3 0-4.4-2.5zm-42.6-20.2l9.5-21.2 10.5 21.2zm61-21.5l23.2 44.7q0.1 0.4 0.7 0.4 0.5 0 0.7-0.4l18.9-44.8 2 37.9q0.1 2.8-0.3 4.1-0.5 1.3-2 1.9-1.3 0.4-4.3 0.4-0.2 0-0.2 0.6 0 0.5 0.2 0.5 3.1 0 4.8-0.1l6.9-0.1 6.8 0.1q1.8 0.1 4.9 0.1 0.2 0 0.2-0.5 0-0.6-0.2-0.6-2.8 0-4.2-0.4-1.3-0.5-1.8-1.8-0.5-1.3-0.7-4.2l-2.2-42.2q-0.1-3.7 1.8-5.4 1.9-1.8 6.2-1.8 0.3 0 0.3-0.6 0-0.5-0.3-0.5-2.4 0-3.7 0.1l-5.4 0.1q-1.3 0-2.4-0.1-1.1-0.1-1.9-0.1-1 0-1.6 0.5-0.6 0.5-1.1 1.8l-17.5 40.5-20-38q-1.7-3.1-2.4-4-0.6-0.8-1.8-0.8-1.3 0-2.1 0.1l-4.9 0.1q-2 0-3.3-0.1l-4.3-0.1q-0.3 0-0.3 0.5 0 0.6 0.3 0.6 2.6 0 4.5 1.6 2 1.6 3.9 5v0.1l-0.8 38.4q-0.1 5-2.3 7.8-2.2 2.9-5.9 2.9-0.3 0-0.3 0.6 0 0.5 0.3 0.5 2.5 0 3.9-0.1l5.8-0.1 5 0.1q1.4 0.1 3.9 0.1 0.3 0 0.3-0.5 0-0.6-0.3-0.6-3.8 0-5.9-2.8-2-2.8-1.9-7.9zm78.7 0l23.2 44.7q0.1 0.4 0.7 0.4 0.5 0 0.7-0.4l18.9-44.8 2 37.9q0.1 2.8-0.3 4.1-0.5 1.3-1.9 1.9-1.4 0.4-4.4 0.4-0.2 0-0.2 0.6 0 0.6 0.2 0.6 3.1 0 4.8-0.1l6.9-0.1 6.8 0.1q1.8 0.1 4.9 0.1 0.2 0 0.2-0.6 0-0.6-0.2-0.6-2.8 0-4.2-0.4-1.3-0.5-1.8-1.8-0.5-1.3-0.7-4.2l-2.2-42.1q-0.1-3.7 1.8-5.5 1.9-1.8 6.2-1.8 0.3 0 0.3-0.5 0-0.6-0.3-0.6-2.4 0-3.6 0.1l-5.5 0.1q-1.3 0-2.4-0.1-1-0.1-1.9-0.1-1 0-1.6 0.6-0.6 0.4-1.1 1.7l-17.5 40.5-20-38q-1.7-3.1-2.3-4-0.7-0.8-1.9-0.8-1.3 0-2.1 0.1l-4.9 0.1q-2 0-3.3-0.1l-4.3-0.1q-0.3 0-0.3 0.6 0 0.5 0.3 0.5 2.6 0 4.5 1.6 2 1.6 3.9 5v0.1l-0.8 38.5q-0.1 4.9-2.3 7.8-2.2 2.8-5.9 2.8-0.3 0-0.3 0.6 0 0.6 0.3 0.6 2.5 0 3.9-0.1l5.8-0.1 5.1 0.1q1.3 0.1 3.8 0.1 0.3 0 0.3-0.6 0-0.6-0.3-0.6-3.8 0-5.9-2.7-2-2.9-1.9-7.9zm126 41.7q-2.1-2.6-5.3-9.1l-23-45.7q-0.1-0.3-0.8-0.3-0.6 0-0.8 0.3l-19.9 44.3q-2.4 5.3-4.2 8.1-1.7 2.7-3.4 3.8-1.8 1.1-4.4 1.1-0.3 0-0.3 0.5 0 0.6 0.3 0.6 2 0 5.1-0.2 3.5-0.2 6-0.2 2.5 0 6 0.2 3.1 0.2 4.8 0.2 0.4 0 0.4-0.6 0-0.5-0.4-0.5-4 0-6.3-1.9-2.3-1.9-2.3-5.2 0-2.3 1.2-5l3.6-8.1h22.5l6.2 12.5q1.9 3.8 1.9 5.3 0 1.3-1.1 1.9-1 0.5-3.4 0.5-0.4 0-0.4 0.5 0 0.6 0.4 0.6 1.8 0 4.9-0.2 3.3-0.2 5.6-0.2 1.8 0 5.8 0.2 3.9 0.2 5.7 0.2 0.5 0 0.5-0.6 0-0.5-0.5-0.5-2.3 0-4.4-2.5zm-42.6-20.3l9.5-21.1 10.6 21.1zm91.9 20.5q7-3.8 11-10.6 4.1-7 4.1-16 0-8-3.9-14.4-4-6.4-11.2-10.1-7.2-3.8-16.4-3.8-1.7 0-6.5 0.2-3.9 0.3-7.7 0.3-2.4 0-6.7-0.2l-4.8-0.1q-0.3 0-0.3 0.6 0 0.5 0.3 0.5 2.8 0 4.1 0.6 1.4 0.5 1.8 1.8 0.6 1.3 0.6 4.1v43q0 2.7-0.6 4.1-0.4 1.3-1.8 1.8-1.4 0.5-4.3 0.5-0.2 0-0.2 0.5 0 0.6 0.2 0.6 3.1 0 4.9-0.1l6.8-0.1q2.7 0 4.8 0.1 2.2 0.1 3.7 0.2 4 0.3 7 0.3 8.2 0 15.1-3.8zm-23.5 0.1q-1.9-1.6-1.9-5.3v-41.8q0-3.6 2.1-4.7 2.1-1.1 7.8-1.1 5.8 0 10.2 3.7 4.4 3.7 6.8 10.2 2.3 6.4 2.3 14.3 0 8.3-2.5 14.2-2.5 6-7 9-4.5 3-10.4 3-5.5 0-7.4-1.5z" fill="#000000"/></g></svg>