<svg width="61" height="61" viewBox="0 0 61 61" fill="none" xmlns="http://www.w3.org/2000/svg">
<path d="M40.6551 0.794922C40.5171 0.794922 40.379 0.848938 40.283 0.950969C40.187 1.053 40.127 1.18504 40.127 1.32308V4.82213H36.916C34.1132 4.82213 31.6404 6.20254 30.146 8.32718H22.8838C22.7938 6.91676 21.6294 5.79442 20.201 5.79442C19.5888 5.79442 19.0246 6.00448 18.5685 6.35259V5.82443C18.5685 4.33598 17.3561 3.11162 15.8737 3.11162C14.7694 3.11162 13.8151 3.78982 13.4069 4.75611C12.9268 4.29397 12.2726 4.00588 11.5524 4.00588C10.184 4.00588 9.05564 5.0442 8.88159 6.37059C8.42545 6.01049 7.84928 5.79442 7.22509 5.79442C5.79666 5.79442 4.63231 6.92276 4.54228 8.32718H1.02523C0.887187 8.32718 0.749146 8.3812 0.653117 8.47723C0.557088 8.57926 0.49707 8.7113 0.49707 8.84934C0.49707 8.98738 0.551087 9.12542 0.653117 9.22145C0.755148 9.31748 0.887187 9.3775 1.02523 9.3775H4.53028V20.1207H1.02523C0.887187 20.1207 0.749146 20.1747 0.653117 20.2768C0.557088 20.3788 0.49707 20.5108 0.49707 20.6489C0.49707 20.7869 0.551087 20.925 0.653117 21.021C0.755148 21.123 0.887187 21.177 1.02523 21.177H4.53028V24.382C4.53028 27.1848 5.91069 29.6636 8.03533 31.158V38.4142C6.62491 38.5042 5.49657 39.6746 5.49657 41.103C5.49657 41.7152 5.70663 42.2854 6.05474 42.7355H5.52658C4.03813 42.7355 2.81377 43.9419 2.81377 45.4243C2.81377 46.5286 3.49197 47.4829 4.45226 47.8971C3.99012 48.3772 3.70203 49.0314 3.70203 49.7516C3.70203 51.12 4.74034 52.2484 6.06674 52.4224C5.70663 52.8785 5.49057 53.4547 5.49057 54.0789C5.49057 55.5073 6.61891 56.6717 8.02933 56.7617V60.2668C8.02933 60.4048 8.08335 60.5368 8.18538 60.6389C8.28741 60.7349 8.41945 60.7949 8.55749 60.7949C8.84557 60.7949 9.08565 60.5548 9.08565 60.2668V56.7617H19.8289V60.2668C19.8289 60.4048 19.8829 60.5428 19.9849 60.6389C20.0809 60.7349 20.219 60.7949 20.357 60.7949C20.6451 60.7949 20.8852 60.5548 20.8852 60.2668V56.7617H24.0961C26.899 56.7617 29.3717 55.3813 30.8722 53.2567H38.1284C38.2184 54.6671 39.3887 55.7954 40.8112 55.7954C41.4233 55.7954 41.9875 55.5854 42.4437 55.2373V55.7594C42.4437 57.2479 43.656 58.4722 45.1385 58.4722C46.2428 58.4722 47.1971 57.794 47.6052 56.8277C48.0853 57.2899 48.7395 57.578 49.4598 57.578C50.8282 57.578 51.9565 56.5456 52.1306 55.2192C52.5867 55.5794 53.1629 55.7954 53.7871 55.7954C55.2155 55.7954 56.3798 54.6671 56.4759 53.2567H59.9749C60.113 53.2567 60.251 53.2026 60.347 53.1006C60.4431 52.9986 60.5031 52.8665 60.5031 52.7285C60.5031 52.5905 60.4491 52.4524 60.347 52.3564C60.245 52.2604 60.113 52.2003 59.9749 52.2003H56.4759V41.4631H59.9749C60.113 41.4631 60.251 41.4091 60.347 41.3071C60.4431 41.205 60.5031 41.073 60.5031 40.935C60.5031 40.7969 60.4491 40.6589 60.347 40.5629C60.251 40.4668 60.113 40.4068 59.9749 40.4068H56.4759V37.1958C56.4759 34.393 55.0954 31.9203 52.9708 30.4198V23.1636C54.3812 23.0736 55.5096 21.9033 55.5096 20.4748C55.5096 19.8626 55.2995 19.2925 54.9514 18.8423H55.4796C56.968 18.8423 58.1924 17.636 58.1924 16.1535C58.1924 15.0492 57.5142 14.0949 56.5479 13.6808C57.01 13.2006 57.2981 12.5464 57.2981 11.8262C57.2981 10.4578 56.2598 9.32948 54.9334 9.16143C55.2935 8.70529 55.5096 8.12912 55.5096 7.50493C55.5096 6.07651 54.3812 4.90616 52.9708 4.81613V1.32308C52.9708 1.03499 52.7427 0.794922 52.4487 0.794922C52.3106 0.794922 52.1726 0.848938 52.0765 0.950969C51.9805 1.053 51.9205 1.18504 51.9205 1.32308V4.82213H41.1773V1.32308C41.1773 1.03499 40.9432 0.794922 40.6491 0.794922H40.6551ZM15.8677 4.17394C16.78 4.17394 17.5002 4.90015 17.5002 5.83043V14.413C17.5002 14.6591 17.6742 14.8751 17.9143 14.9292C17.9563 14.9412 17.9923 14.9412 18.0343 14.9412C18.0583 14.9412 18.0883 14.9412 18.1124 14.9352C18.1244 14.9352 18.1364 14.9352 18.1544 14.9292C18.1604 14.9292 18.1724 14.9292 18.1784 14.9232C18.2144 14.9112 18.2504 14.8992 18.2864 14.8811C18.2864 14.8811 18.2984 14.8811 18.2984 14.8751C18.3104 14.8751 18.3164 14.8631 18.3224 14.8571C18.3224 14.8571 18.3224 14.8571 18.3344 14.8571C18.3404 14.8511 18.3524 14.8451 18.3584 14.8331C18.3644 14.8331 18.3704 14.8211 18.3824 14.8151C18.3824 14.8151 18.3884 14.8091 18.3944 14.8031L18.4244 14.7731C18.4365 14.7611 18.4425 14.7491 18.4485 14.7431C18.4485 14.7431 18.4605 14.7191 18.4725 14.7131C18.4725 14.7131 18.4725 14.7131 18.4725 14.7071C18.4845 14.6831 18.4965 14.6591 18.5085 14.6351C18.5085 14.6291 18.5145 14.6231 18.5205 14.6171C18.5205 14.6171 18.5205 14.6111 18.5205 14.6051C18.5205 14.5931 18.5265 14.5871 18.5325 14.5751C18.5385 14.551 18.5445 14.527 18.5505 14.503C18.5505 14.503 18.5505 14.473 18.5505 14.461C18.5505 14.461 18.5505 14.431 18.5505 14.419V8.50123C18.5505 7.57095 19.2707 6.84474 20.183 6.84474C21.0952 6.84474 21.8155 7.57095 21.8155 8.50123V20.6549C21.8155 20.6909 21.8155 20.7269 21.8275 20.7629C21.8275 20.7689 21.8275 20.7749 21.8275 20.7809C21.8335 20.8169 21.8455 20.8469 21.8575 20.8769C21.8575 20.8769 21.8635 20.8889 21.8695 20.8889C21.8695 20.8889 21.8695 20.889 21.8695 20.895C21.8815 20.919 21.8995 20.949 21.9175 20.967C21.9175 20.967 21.9235 20.979 21.9295 20.979C21.9535 21.009 21.9775 21.033 22.0015 21.051C22.0075 21.051 22.0135 21.063 22.0195 21.063C22.0435 21.081 22.0675 21.093 22.0915 21.111C22.0975 21.111 22.1035 21.117 22.1096 21.123C22.1396 21.135 22.1756 21.147 22.2116 21.159H22.2236C22.2596 21.165 22.2956 21.171 22.3316 21.171H26.2508C25.7166 25.0422 23.3879 28.3792 20.0569 30.4258C20.0569 30.4258 20.0449 30.4258 20.0449 30.4378C20.0209 30.4558 19.9969 30.4738 19.9729 30.4918L19.9489 30.5158C19.9489 30.5158 19.9129 30.5578 19.8949 30.5819C19.8889 30.5879 19.8829 30.5999 19.8769 30.6059C19.8589 30.6299 19.8469 30.6599 19.8349 30.6839C19.8349 30.6899 19.8349 30.7019 19.8229 30.7079C19.8109 30.7379 19.8049 30.7679 19.7989 30.7979C19.7989 30.8099 19.7989 30.8159 19.7989 30.8219C19.7989 30.8399 19.7989 30.8519 19.7989 30.8699V38.4022H9.09165V30.9C9.10365 30.7739 9.06164 30.6479 8.98362 30.5458C8.98362 30.5458 8.96561 30.5218 8.95361 30.5158C8.95361 30.5098 8.9416 30.5038 8.9356 30.4978C8.9236 30.4858 8.90559 30.4678 8.89359 30.4558C8.89359 30.4558 8.89359 30.4558 8.88759 30.4558L8.85758 30.4318C6.88899 29.1414 5.5926 26.9208 5.5926 24.376V20.6609V8.50123C5.5926 7.57095 6.31281 6.84474 7.22509 6.84474C8.13736 6.84474 8.85758 7.57095 8.85758 8.50123V14.407C8.85758 14.545 8.91159 14.6831 9.01363 14.7791C9.11565 14.8811 9.24769 14.9352 9.38574 14.9352C9.52378 14.9352 9.66182 14.8811 9.75785 14.7791C9.85988 14.6771 9.91389 14.545 9.91389 14.407V6.7187C9.91389 5.78842 10.6341 5.0622 11.5464 5.0622C12.4587 5.0622 13.1789 5.78842 13.1789 6.7187V14.413C13.1789 14.449 13.1789 14.485 13.1909 14.521C13.1909 14.533 13.1969 14.545 13.2029 14.557C13.2089 14.5811 13.2209 14.6111 13.2269 14.6291C13.2269 14.6411 13.2389 14.6471 13.2449 14.6531C13.2569 14.6771 13.2689 14.7011 13.2869 14.7251C13.2989 14.7371 13.3049 14.7491 13.3169 14.7551C13.3289 14.7671 13.3469 14.7851 13.3589 14.7971C13.3709 14.8091 13.3889 14.8211 13.4009 14.8271C13.4189 14.8391 13.437 14.8511 13.455 14.8571C13.467 14.8691 13.479 14.8751 13.497 14.8811C13.521 14.8932 13.551 14.9052 13.575 14.9112C13.581 14.9112 13.593 14.9112 13.599 14.9172C13.635 14.9232 13.671 14.9292 13.713 14.9292C13.737 14.9292 13.7671 14.9292 13.7851 14.9232C13.7911 14.9232 13.7971 14.9232 13.8091 14.9232C13.8151 14.9232 13.8211 14.9232 13.8331 14.9232C13.8451 14.9232 13.8511 14.9232 13.8571 14.9172H13.8691C13.8931 14.9172 13.9111 14.9052 13.9351 14.8932C13.9351 14.8932 13.9411 14.8932 13.9471 14.8932C13.9531 14.8932 13.9651 14.8871 13.9711 14.8811C13.9711 14.8811 13.9771 14.8811 13.9831 14.8751C13.9891 14.8751 13.9951 14.8691 14.0071 14.8631C14.0071 14.8631 14.0131 14.8571 14.0191 14.8511C14.0251 14.8511 14.0311 14.8391 14.0371 14.8391C14.0371 14.8391 14.0491 14.8331 14.0491 14.8271L14.0611 14.8151C14.0611 14.8151 14.0731 14.8091 14.0731 14.8031C14.0731 14.7971 14.0851 14.7911 14.0851 14.7911C14.0911 14.7851 14.0971 14.7791 14.1092 14.7671C14.1092 14.7671 14.1212 14.7491 14.1332 14.7371C14.1332 14.7311 14.1452 14.7251 14.1452 14.7191C14.1452 14.7191 14.1512 14.7071 14.1572 14.7071C14.1572 14.7011 14.1632 14.6951 14.1692 14.6831C14.1692 14.6831 14.1812 14.6591 14.1872 14.6471C14.1872 14.6471 14.1872 14.6471 14.1872 14.6351C14.1992 14.6171 14.2052 14.5931 14.2112 14.5691C14.2112 14.5691 14.2172 14.539 14.2232 14.533C14.2232 14.533 14.2292 14.503 14.2292 14.491C14.2292 14.479 14.2292 14.467 14.2292 14.455C14.2292 14.443 14.2292 14.431 14.2292 14.419V5.83043C14.2292 4.90015 14.9494 4.17394 15.8617 4.17394H15.8557H15.8677ZM36.91 5.88445H52.8028C53.733 5.88445 54.4593 6.60466 54.4593 7.51694C54.4593 8.42921 53.733 9.14943 52.8028 9.14943H46.897C46.7589 9.14943 46.6209 9.20344 46.5249 9.30548C46.4288 9.4015 46.3688 9.53955 46.3748 9.67759C46.3748 9.96567 46.6089 10.2057 46.903 10.2057H54.5973C55.5276 10.2057 56.2538 10.926 56.2538 11.8382C56.2538 12.7505 55.5276 13.4707 54.5973 13.4707H46.903C46.867 13.4707 46.831 13.4707 46.795 13.4827C46.783 13.4827 46.7649 13.4887 46.7529 13.4947C46.7289 13.5007 46.7109 13.5067 46.6869 13.5187C46.6749 13.5187 46.6629 13.5307 46.6569 13.5367C46.6329 13.5487 46.6149 13.5608 46.5909 13.5788C46.5789 13.5908 46.5669 13.5968 46.5609 13.6088C46.5489 13.6208 46.5309 13.6328 46.5189 13.6508C46.5069 13.6628 46.4949 13.6808 46.4829 13.6928C46.4709 13.7048 46.4589 13.7288 46.4529 13.7468C46.4469 13.7588 46.4409 13.7708 46.4348 13.7828C46.4228 13.8068 46.4108 13.8368 46.4048 13.8608C46.4048 13.8728 46.4048 13.8848 46.3988 13.8909C46.3868 13.9269 46.3868 13.9629 46.3868 13.9989C46.3868 14.0349 46.3868 14.0709 46.3988 14.1069C46.3988 14.1189 46.3988 14.1309 46.4108 14.1429C46.4168 14.1669 46.4288 14.1969 46.4409 14.2209L46.4529 14.251C46.4529 14.251 46.4769 14.293 46.4889 14.317C46.5009 14.329 46.5129 14.347 46.5249 14.359C46.5369 14.371 46.5489 14.383 46.5669 14.401C46.5789 14.413 46.5909 14.425 46.6089 14.437C46.6269 14.449 46.6449 14.461 46.6629 14.467C46.6749 14.473 46.6869 14.479 46.7049 14.491C46.7289 14.503 46.7589 14.515 46.783 14.521C46.789 14.521 46.801 14.521 46.807 14.527C46.843 14.539 46.879 14.539 46.921 14.539H55.5036C56.4338 14.539 57.1601 15.2593 57.1601 16.1715C57.1601 17.0838 56.4338 17.804 55.5036 17.804H46.921C46.783 17.804 46.6449 17.858 46.5489 17.9601C46.4529 18.0621 46.3928 18.1941 46.3988 18.3322C46.3988 18.6203 46.6329 18.8603 46.927 18.8603H52.8328C53.763 18.8603 54.4893 19.5806 54.4893 20.4928C54.4893 21.4051 53.763 22.1253 52.8328 22.1253H40.6791C40.6431 22.1253 40.6131 22.1253 40.5771 22.1373C40.5651 22.1373 40.5591 22.1373 40.5531 22.1373C40.5231 22.1433 40.4871 22.1553 40.4571 22.1673C40.4571 22.1673 40.4451 22.1673 40.4391 22.1793C40.4391 22.1793 40.391 22.2093 40.367 22.2274L40.343 22.2394C40.343 22.2394 40.289 22.2874 40.271 22.3114C40.271 22.3114 40.271 22.3174 40.265 22.3234C40.265 22.3234 40.229 22.3774 40.211 22.4074C40.211 22.4074 40.205 22.4194 40.199 22.4254C40.187 22.4554 40.175 22.4914 40.169 22.5214C40.169 22.5274 40.169 22.5334 40.169 22.5454C40.163 22.5815 40.157 22.6175 40.157 22.6535V26.5787C36.2858 26.0445 32.9488 23.7158 30.9022 20.3848C30.9022 20.3848 30.8962 20.3788 30.8902 20.3728C30.8722 20.3488 30.8542 20.3248 30.8362 20.3008C30.7341 20.1927 30.5961 20.1327 30.4521 20.1267H22.9138V9.3835H30.4581C30.5601 9.3835 30.6621 9.35349 30.7461 9.29347C30.8002 9.25746 30.8482 9.20945 30.8842 9.14943C32.1746 7.18084 34.3952 5.88445 36.94 5.88445H36.91ZM27.3431 21.189H30.122C32.3606 24.6761 35.9557 27.1128 40.121 27.641V30.4258C36.6339 32.6645 34.1972 36.2596 33.669 40.4248H30.8842C28.6455 36.9378 25.0504 34.501 20.8852 33.9729V31.188C24.3722 28.9494 26.815 25.3543 27.3431 21.189ZM41.1773 23.1876H51.9205V30.7139C51.9205 30.7559 51.9205 30.7919 51.9325 30.8339V30.8459C51.9385 30.8759 51.9505 30.912 51.9625 30.936C51.9625 30.948 51.9745 30.954 51.9745 30.96C51.9865 30.984 51.9985 31.008 52.0165 31.032C52.0285 31.044 52.0345 31.05 52.0405 31.062C52.0585 31.086 52.0765 31.098 52.0945 31.116C52.1066 31.122 52.1126 31.128 52.1186 31.14C52.1246 31.152 52.1366 31.152 52.1426 31.164C54.1112 32.4544 55.4075 34.6751 55.4075 37.2198V53.1126C55.4075 54.0429 54.6873 54.7631 53.7751 54.7631C52.8628 54.7631 52.1426 54.0369 52.1426 53.1126V47.2008C52.1426 47.0628 52.0885 46.9248 51.9865 46.8287C51.8845 46.7327 51.7524 46.6727 51.6144 46.6787C51.4764 46.6787 51.3383 46.7327 51.2423 46.8347C51.1463 46.9308 51.0862 47.0688 51.0862 47.2068V54.9012C51.0862 55.8314 50.366 56.5577 49.4538 56.5577C48.5415 56.5577 47.8213 55.8314 47.8213 54.9012V47.1708C47.8213 47.1708 47.8213 47.1468 47.8213 47.1348C47.8213 47.1348 47.8213 47.1168 47.8213 47.1108C47.8213 47.1108 47.8213 47.0988 47.8213 47.0928C47.8213 47.0808 47.8213 47.0688 47.8093 47.0628C47.8093 47.0628 47.8093 47.0628 47.8093 47.0568C47.8093 47.0448 47.8093 47.0388 47.7973 47.0268C47.7973 47.0268 47.7973 47.0208 47.7973 47.0148C47.7973 47.0028 47.7913 46.9968 47.7853 46.9848C47.7853 46.9728 47.7733 46.9668 47.7733 46.9608V46.9488C47.7733 46.9488 47.7733 46.9428 47.7733 46.9368C47.7733 46.9248 47.7612 46.9188 47.7552 46.9128C47.7552 46.9128 47.7432 46.9007 47.7432 46.8947C47.7432 46.8887 47.7372 46.8827 47.7312 46.8827C47.7252 46.8827 47.7192 46.8707 47.7192 46.8647C47.7192 46.8647 47.7132 46.8527 47.7072 46.8527L47.6772 46.8227C47.6772 46.8227 47.6652 46.8167 47.6652 46.8107C47.6592 46.8107 47.6532 46.7987 47.6472 46.7987C47.6412 46.7987 47.6352 46.7867 47.6232 46.7807C47.6232 46.7807 47.6172 46.7807 47.6112 46.7747C47.5992 46.7627 47.5812 46.7567 47.5692 46.7507C47.5572 46.7507 47.5512 46.7387 47.5452 46.7387C47.5452 46.7387 47.5392 46.7387 47.5332 46.7387C47.5212 46.7387 47.5152 46.7327 47.5092 46.7267C47.5092 46.7267 47.5032 46.7267 47.4972 46.7267C47.4852 46.7267 47.4792 46.7207 47.4672 46.7147C47.4672 46.7147 47.4672 46.7147 47.4612 46.7147C47.4492 46.7147 47.4371 46.7087 47.4311 46.7027H47.4191C47.4131 46.7027 47.4071 46.7027 47.3951 46.7027C47.3831 46.7027 47.3711 46.7027 47.3591 46.7027H47.3171C47.2811 46.7027 47.2451 46.7027 47.2091 46.7147C47.1971 46.7147 47.1791 46.7207 47.1671 46.7267C47.1431 46.7327 47.1251 46.7387 47.1011 46.7507C47.089 46.7507 47.077 46.7627 47.071 46.7687C47.047 46.7807 47.029 46.7927 47.005 46.8107C46.993 46.8227 46.981 46.8287 46.975 46.8407C46.963 46.8527 46.945 46.8647 46.933 46.8827C46.921 46.9008 46.909 46.9128 46.897 46.9308C46.885 46.9488 46.873 46.9608 46.867 46.9848C46.861 46.9968 46.855 47.0088 46.849 47.0208C46.837 47.0448 46.831 47.0688 46.825 47.0928C46.825 47.1048 46.819 47.1168 46.813 47.1288C46.801 47.1648 46.801 47.2008 46.801 47.2369V55.8194C46.801 56.7497 46.0807 57.4759 45.1685 57.4759C44.2562 57.4759 43.536 56.7497 43.536 55.8194V47.2369C43.536 47.2369 43.536 47.2128 43.536 47.1948C43.536 47.1708 43.53 47.1408 43.524 47.1108C43.524 47.1108 43.524 47.1108 43.524 47.1048C43.524 47.0808 43.512 47.0628 43.5 47.0388C43.494 47.0148 43.482 46.9968 43.47 46.9788C43.47 46.9788 43.47 46.9668 43.464 46.9668C43.464 46.9608 43.458 46.9488 43.452 46.9428C43.452 46.9428 43.452 46.9368 43.446 46.9308C43.4339 46.9068 43.4159 46.8887 43.3979 46.8707C43.3859 46.8587 43.3739 46.8467 43.3679 46.8407C43.3619 46.8347 43.3439 46.8227 43.3379 46.8167C43.3379 46.8167 43.3199 46.8047 43.3139 46.7987C43.3139 46.7987 43.3079 46.7987 43.3019 46.7927C43.2899 46.7927 43.2839 46.7807 43.2779 46.7807C43.2539 46.7687 43.2359 46.7567 43.2119 46.7507H43.1879V46.7387C43.1759 46.7387 43.1639 46.7327 43.1519 46.7267H43.1099C43.0798 46.7147 43.0498 46.7147 43.0198 46.7147C42.8818 46.7147 42.7437 46.7687 42.6477 46.8707C42.5517 46.9728 42.4917 47.1048 42.4917 47.2429V53.1486C42.4917 54.0789 41.7715 54.7991 40.8592 54.7991C39.9469 54.7991 39.2267 54.0729 39.2267 53.1486V41.019V40.995C39.2267 40.971 39.2267 40.941 39.2207 40.917C39.2207 40.905 39.2207 40.8989 39.2207 40.8929C39.2207 40.8809 39.2207 40.8749 39.2207 40.8689C39.2207 40.8689 39.2207 40.8629 39.2207 40.8569C39.2207 40.8449 39.2207 40.8329 39.2087 40.8269C39.2087 40.8269 39.2087 40.8269 39.2087 40.8209L39.1967 40.7849C39.1967 40.7849 39.1967 40.7729 39.1907 40.7729C39.1787 40.7489 39.1667 40.7309 39.1547 40.7069C39.1487 40.6949 39.1427 40.6829 39.1307 40.6769C39.1307 40.6769 39.1307 40.6709 39.1247 40.6649C39.1187 40.6589 39.1127 40.6469 39.1007 40.6409C39.0706 40.6049 39.0406 40.5809 39.0046 40.5569C39.0046 40.5569 38.9926 40.5508 38.9926 40.5448C38.9866 40.5448 38.9806 40.5328 38.9686 40.5328C38.9686 40.5328 38.9626 40.5328 38.9566 40.5328C38.9566 40.5328 38.9566 40.5328 38.9506 40.5328C38.9506 40.5328 38.9506 40.5328 38.9446 40.5328H38.9326V40.5268C38.9086 40.5148 38.8786 40.5028 38.8486 40.4968H38.8426C38.8426 40.4968 38.7886 40.4848 38.7645 40.4848C38.7645 40.4848 38.7345 40.4848 38.7225 40.4848H34.7974C35.3315 36.6137 37.6602 33.2767 40.9912 31.2301C41.1593 31.128 41.2553 30.936 41.2373 30.7379V27.2809C41.2373 27.2509 41.2373 27.2208 41.2373 27.1908L41.2493 23.2477L41.1773 23.1876ZM20.8852 35.0352C24.7624 35.5694 28.0933 37.8981 30.146 41.2291C30.146 41.2291 30.146 41.229 30.152 41.2411C30.17 41.2651 30.188 41.2951 30.212 41.3131C30.212 41.3191 30.224 41.3251 30.23 41.3311C30.254 41.3551 30.278 41.3731 30.302 41.3911C30.308 41.3911 30.314 41.3971 30.326 41.4031C30.35 41.4211 30.38 41.4331 30.404 41.4451C30.416 41.4451 30.428 41.4571 30.4341 41.4571C30.4641 41.4691 30.4881 41.4751 30.5181 41.4751C30.5301 41.4751 30.5421 41.4751 30.5481 41.4751C30.5661 41.4751 30.5781 41.4751 30.5961 41.4811H38.1284V52.2183H30.5961C30.4941 52.2183 30.392 52.2484 30.308 52.3084C30.308 52.3084 30.302 52.3084 30.296 52.3144C30.272 52.3264 30.254 52.3444 30.236 52.3684C30.224 52.3744 30.218 52.3804 30.212 52.3924C30.194 52.4104 30.182 52.4284 30.17 52.4464C30.17 52.4464 30.164 52.4584 30.158 52.4584C28.8676 54.427 26.6469 55.7234 24.1022 55.7234H8.20938C7.2791 55.7234 6.55289 55.0032 6.55289 54.0909C6.55289 53.1786 7.2791 52.4584 8.20938 52.4584H14.1152C14.4032 52.4584 14.6433 52.2243 14.6433 51.9303C14.6433 51.6362 14.4092 51.4021 14.1152 51.4021H6.42085C5.49057 51.4021 4.76435 50.6819 4.76435 49.7696C4.76435 48.8573 5.49057 48.1371 6.42085 48.1371H14.1152C14.1152 48.1371 14.1692 48.1371 14.1872 48.1371C14.1932 48.1371 14.1992 48.1371 14.2112 48.1371C14.2172 48.1371 14.2232 48.1371 14.2352 48.1371C14.2472 48.1371 14.2532 48.1371 14.2592 48.1371H14.2712C14.2952 48.1311 14.3132 48.1251 14.3372 48.1131C14.3372 48.1131 14.3432 48.1131 14.3492 48.1131C14.3612 48.1131 14.3672 48.1071 14.3732 48.1011C14.3732 48.1011 14.3792 48.1011 14.3852 48.1011C14.3972 48.0951 14.4032 48.0891 14.4152 48.0771C14.4152 48.0771 14.4272 48.0651 14.4333 48.0651C14.4393 48.0651 14.4453 48.0591 14.4453 48.0531L14.4573 48.0411L14.4693 48.0291L14.4813 48.0171C14.4813 48.0171 14.4933 48.0051 14.4933 47.9991C14.4933 47.9991 14.4993 47.9931 14.5053 47.9871C14.5053 47.9871 14.5053 47.9871 14.5053 47.9811C14.5113 47.9751 14.5173 47.9691 14.5233 47.9571L14.5353 47.9331C14.5353 47.9331 14.5473 47.9091 14.5593 47.903C14.5593 47.903 14.5593 47.8971 14.5653 47.891C14.5653 47.885 14.5773 47.873 14.5773 47.867C14.5773 47.867 14.5773 47.861 14.5833 47.855C14.5833 47.855 14.5833 47.849 14.5833 47.843C14.5833 47.837 14.5893 47.825 14.5953 47.819C14.5953 47.807 14.6013 47.801 14.6073 47.789C14.6073 47.789 14.6073 47.789 14.6073 47.783C14.6073 47.771 14.6133 47.759 14.6193 47.753C14.6193 47.753 14.6193 47.729 14.6253 47.717C14.6253 47.717 14.6253 47.693 14.6253 47.681C14.6253 47.681 14.6253 47.657 14.6253 47.639C14.6253 47.627 14.6253 47.615 14.6253 47.603C14.6253 47.591 14.6253 47.579 14.6253 47.567C14.6253 47.561 14.6253 47.555 14.6253 47.5489C14.6253 47.5429 14.6253 47.5369 14.6253 47.5249C14.6253 47.5129 14.6253 47.5009 14.6133 47.4949C14.6133 47.4949 14.6073 47.4709 14.6013 47.4589C14.6013 47.4589 14.6013 47.4529 14.6013 47.4469C14.6013 47.4409 14.5953 47.4289 14.5893 47.4229C14.5893 47.4229 14.5893 47.4169 14.5893 47.4109C14.5893 47.3989 14.5773 47.3929 14.5773 47.3869C14.5713 47.3689 14.5593 47.3569 14.5533 47.3389C14.5533 47.3389 14.5413 47.3269 14.5413 47.3209C14.5413 47.3149 14.5353 47.3089 14.5293 47.3089C14.5293 47.3089 14.5293 47.3089 14.5293 47.3029C14.5233 47.2969 14.5173 47.2909 14.5053 47.2789L14.4753 47.2489C14.4753 47.2489 14.4633 47.2429 14.4633 47.2369C14.4573 47.2369 14.4513 47.2248 14.4453 47.2248C14.4453 47.2248 14.4333 47.2188 14.4333 47.2128L14.4092 47.2008C14.4092 47.2008 14.4032 47.2008 14.3972 47.1948L14.3732 47.1828C14.3732 47.1828 14.3672 47.1828 14.3612 47.1768C14.3492 47.1768 14.3432 47.1708 14.3372 47.1648C14.3372 47.1648 14.3312 47.1648 14.3252 47.1648C14.3132 47.1648 14.3072 47.1588 14.3012 47.1528C14.3012 47.1528 14.2952 47.1528 14.2892 47.1528C14.2772 47.1528 14.2712 47.1468 14.2592 47.1408C14.2592 47.1408 14.2592 47.1408 14.2532 47.1408C14.2352 47.1408 14.2172 47.1288 14.1992 47.1288C14.1932 47.1288 14.1872 47.1288 14.1752 47.1288C14.1512 47.1288 14.1272 47.1228 14.1032 47.1228H5.53258C4.6023 47.1228 3.87608 46.4026 3.87608 45.4903C3.87608 44.5781 4.6023 43.8578 5.53258 43.8578H14.1212C14.4092 43.8578 14.6493 43.6238 14.6493 43.3297C14.6493 43.3177 14.6493 43.2997 14.6493 43.2877C14.6493 43.2637 14.6433 43.2337 14.6373 43.2156C14.6373 43.2156 14.6373 43.2096 14.6373 43.2036C14.6373 43.1796 14.6253 43.1616 14.6193 43.1376C14.6133 43.1196 14.6013 43.0956 14.5893 43.0776C14.5893 43.0776 14.5893 43.0656 14.5833 43.0656C14.5833 43.0536 14.5713 43.0476 14.5713 43.0416H14.5653C14.5653 43.0416 14.5533 43.0176 14.5473 43.0056C14.5353 42.9936 14.5293 42.9876 14.5233 42.9756L14.4933 42.9456C14.4873 42.9456 14.4813 42.9336 14.4753 42.9336C14.4693 42.9336 14.4633 42.9216 14.4573 42.9156H14.4453C14.4453 42.9156 14.4333 42.9036 14.4333 42.8976C14.4212 42.8916 14.4092 42.8855 14.4032 42.8735C14.4032 42.8735 14.3972 42.8735 14.3912 42.8675C14.3912 42.8675 14.3672 42.8555 14.3552 42.8495C14.3492 42.8495 14.3432 42.8435 14.3372 42.8375H14.3312C14.3312 42.8375 14.3072 42.8255 14.3012 42.8255C14.2652 42.8135 14.2292 42.8075 14.1872 42.8015C14.1872 42.8015 14.1632 42.8015 14.1512 42.8015H8.20938C7.2791 42.8015 6.55289 42.0813 6.55289 41.169C6.55289 40.2568 7.2791 39.5365 8.20938 39.5365H20.363C20.363 39.5365 20.393 39.5365 20.405 39.5365C20.405 39.5365 20.405 39.5365 20.411 39.5365C20.4651 39.5365 20.5191 39.5185 20.5731 39.4945H20.5851C20.5971 39.4945 20.6031 39.4825 20.6091 39.4825C20.6151 39.4825 20.6211 39.4765 20.6331 39.4705C20.6331 39.4705 20.6451 39.4645 20.6511 39.4585C20.6511 39.4585 20.6511 39.4585 20.6571 39.4585C20.6691 39.4525 20.6811 39.4465 20.6871 39.4345C20.6871 39.4345 20.6931 39.4285 20.6991 39.4225C20.7051 39.4165 20.7111 39.4105 20.7231 39.4045L20.7411 39.3865L20.7531 39.3745C20.7591 39.3625 20.7712 39.3505 20.7772 39.3445C20.7772 39.3445 20.7772 39.3385 20.7832 39.3325C20.7832 39.3205 20.7952 39.3145 20.8012 39.3085C20.8012 39.3025 20.8132 39.2965 20.8132 39.2905C20.8132 39.2845 20.8252 39.2785 20.8252 39.2665C20.8252 39.2665 20.8372 39.2425 20.8432 39.2244C20.8432 39.2244 20.8432 39.2244 20.8432 39.2124C20.8432 39.2004 20.8552 39.1884 20.8552 39.1824C20.8552 39.1764 20.8552 39.1704 20.8612 39.1644C20.8672 39.1584 20.8612 39.1524 20.8672 39.1404C20.8672 39.1404 20.8792 39.0864 20.8792 39.0564V39.0384C20.8792 39.0384 20.8792 39.0204 20.8792 39.0144V35.0952L20.8852 35.0352Z" fill="white" stroke="white" stroke-width="0.4"/>
</svg>
