<svg width="62" height="61" viewBox="0 0 62 61" fill="none" xmlns="http://www.w3.org/2000/svg">
<path d="M52.5305 28.0599H39.5157C39.4613 28.0599 39.4225 28.0832 39.3681 28.091C39.3137 28.0987 39.2749 28.091 39.2205 28.1143C39.2205 28.1143 39.2049 28.122 39.2049 28.1298C39.1428 28.1531 39.0962 28.192 39.0418 28.2308C39.0029 28.2619 38.9563 28.2774 38.9252 28.3085C38.8864 28.3474 38.8631 28.394 38.832 28.4406C38.8009 28.4872 38.762 28.5261 38.7387 28.5727C38.7232 28.6115 38.7154 28.6659 38.7077 28.7126C38.6921 28.7747 38.6688 28.8369 38.6688 28.899C38.6688 28.899 38.6688 28.9146 38.6688 28.9223C38.6688 28.9767 38.6921 29.0156 38.6999 29.07C38.7077 29.1244 38.6999 29.1632 38.7232 29.2176C39.1739 30.453 39.3992 31.7506 39.3992 33.0793C39.3992 39.3342 34.3098 44.4157 28.0627 44.4157C21.8157 44.4157 16.7263 39.3264 16.7263 33.0793C16.7263 26.8322 21.8157 21.7429 28.0627 21.7429C29.3914 21.7429 30.689 21.9682 31.9244 22.4189C31.9711 22.4344 32.0177 22.4344 32.0643 22.4422C32.1109 22.4499 32.1575 22.4732 32.2119 22.4732C32.2197 22.4732 32.2275 22.4732 32.2352 22.4732C32.2974 22.4732 32.3596 22.4499 32.4217 22.4344C32.4683 22.4189 32.515 22.4189 32.5616 22.3955C32.6082 22.3722 32.647 22.3412 32.6937 22.3101C32.7403 22.279 32.7869 22.2557 32.8258 22.2168C32.8568 22.1858 32.8801 22.1391 32.9035 22.1003C32.9423 22.0459 32.9812 21.9993 33.0045 21.9371C33.0045 21.9371 33.0122 21.9216 33.02 21.9216C33.0355 21.875 33.0355 21.8283 33.0433 21.7739C33.0511 21.7196 33.0744 21.6807 33.0744 21.6341V8.60378C33.0744 6.81668 31.6214 5.35592 29.8265 5.35592H26.3067C24.5196 5.35592 23.0589 6.80891 23.0589 8.60378V12.2246C20.8677 12.753 18.7854 13.6154 16.8584 14.7965L14.3021 12.2401C13.6882 11.6263 12.8724 11.2922 12.0099 11.2922C11.1474 11.2922 10.3316 11.6263 9.71775 12.2401L7.23135 14.7265C5.96484 15.9931 5.96484 18.0521 7.23135 19.3109L9.78768 21.8672C8.60664 23.7941 7.74417 25.8765 7.21581 28.0676H3.58722C1.80012 28.0676 0.339355 29.5206 0.339355 31.3155V34.8353C0.339355 36.6224 1.79235 38.0832 3.58722 38.0832H7.20804C7.7364 40.2743 8.59887 42.3567 9.77991 44.2837L7.22358 46.84C6.60975 47.4538 6.27564 48.2697 6.27564 49.1321C6.27564 49.9946 6.60975 50.8105 7.22358 51.4243L9.70999 53.9107C10.3394 54.5401 11.1707 54.8586 12.0021 54.8586C12.8335 54.8586 13.6649 54.5401 14.2943 53.9107L16.8506 51.3544C18.7776 52.5354 20.8599 53.3979 23.0511 53.9262V57.5471C23.0511 59.3342 24.5041 60.7949 26.299 60.7949H29.8188C31.6059 60.7949 33.0666 59.3419 33.0666 57.5471V53.9262C35.2578 53.3979 37.3401 52.5354 39.2671 51.3544L41.8234 53.9185C42.4528 54.5478 43.2842 54.8664 44.1156 54.8664C44.947 54.8664 45.7784 54.5478 46.4077 53.9185L48.8941 51.4321C49.508 50.8182 49.8421 50.0024 49.8421 49.1399C49.8421 48.2774 49.508 47.4616 48.8941 46.8478L46.3378 44.2914C47.5188 42.3645 48.3813 40.2821 48.9097 38.091H52.5305C54.3176 38.091 55.7784 36.638 55.7784 34.8431V31.3233C55.7784 29.5362 54.3254 28.0754 52.5305 28.0754V28.0599ZM54.069 34.8198C54.069 35.6667 53.3774 36.3582 52.5305 36.3582H48.2337C48.2337 36.3582 48.1793 36.3738 48.1482 36.3738C48.0861 36.3738 48.0317 36.3893 47.9773 36.4049C47.9229 36.4204 47.884 36.4359 47.8374 36.467C47.7908 36.4981 47.7442 36.5214 47.6976 36.5603C47.6587 36.5913 47.6199 36.6302 47.5888 36.669C47.5577 36.7079 47.5266 36.7545 47.4955 36.8011C47.4645 36.8555 47.4489 36.9021 47.4256 36.9565C47.4178 36.9876 47.3945 37.0032 47.3945 37.0342C46.8895 39.4973 45.9338 41.805 44.5429 43.9107C44.5274 43.934 44.5274 43.9651 44.5118 43.9884C44.4808 44.0428 44.4652 44.0894 44.4497 44.1438C44.4342 44.1982 44.4264 44.2448 44.4186 44.2992C44.4186 44.3536 44.4186 44.408 44.4186 44.4624C44.4186 44.5168 44.4342 44.5711 44.4497 44.6178C44.4652 44.6722 44.4885 44.711 44.5118 44.7654C44.5429 44.8198 44.5662 44.8586 44.6051 44.9053C44.6206 44.9286 44.6284 44.9519 44.6517 44.9752L47.6898 48.0133C48.2881 48.6115 48.2881 49.5906 47.6898 50.1889L45.2034 52.6753C44.6051 53.2736 43.6261 53.2736 43.0278 52.6753L39.9897 49.6372C39.9897 49.6372 39.9431 49.6061 39.9198 49.5906C39.8732 49.5517 39.8265 49.5206 39.7799 49.4973C39.7333 49.474 39.6867 49.4507 39.6323 49.4352C39.5779 49.4196 39.5313 49.4119 39.4769 49.4041C39.4225 49.3963 39.3681 49.4041 39.3137 49.4041C39.2593 49.4041 39.2127 49.4196 39.1583 49.4352C39.1039 49.4507 39.0495 49.474 39.0029 49.4973C38.9796 49.5129 38.9485 49.5129 38.9252 49.5284C36.8195 50.9192 34.5119 51.875 32.0488 52.38C32.0177 52.38 32.0021 52.4033 31.9711 52.4111C31.9167 52.4266 31.8623 52.4499 31.8157 52.481C31.769 52.5121 31.7224 52.5354 31.6836 52.5665C31.6447 52.6053 31.6059 52.6364 31.5748 52.683C31.5437 52.7219 31.5126 52.7685 31.4815 52.8151C31.4582 52.8617 31.4349 52.9084 31.4194 52.9628C31.4038 53.0171 31.3883 53.0715 31.3883 53.1259C31.3883 53.157 31.3728 53.1803 31.3728 53.2114V57.5082C31.3728 58.3551 30.6812 59.0467 29.8343 59.0467H26.3145C25.4676 59.0467 24.776 58.3551 24.776 57.5082V53.2114C24.776 53.2114 24.7605 53.157 24.7605 53.1259C24.7605 53.0715 24.7449 53.0171 24.7294 52.9628C24.7139 52.9084 24.6906 52.8617 24.6672 52.8151C24.6362 52.7685 24.6129 52.7219 24.574 52.683C24.5429 52.6442 24.5041 52.6053 24.4652 52.5665C24.4264 52.5354 24.3798 52.5043 24.3331 52.481C24.2787 52.4499 24.2321 52.4344 24.1777 52.4111C24.1467 52.4033 24.1311 52.38 24.1 52.38C21.6369 51.875 19.3293 50.9192 17.2236 49.5284C17.2003 49.5129 17.1692 49.5129 17.1459 49.4973C17.0915 49.4662 17.0449 49.4507 16.9905 49.4352C16.9361 49.4196 16.8895 49.4119 16.8351 49.4041C16.7807 49.4041 16.7263 49.4041 16.6719 49.4041C16.6175 49.4041 16.5631 49.4196 16.5165 49.4352C16.4621 49.4507 16.4155 49.474 16.3689 49.4973C16.3145 49.5284 16.2756 49.5517 16.229 49.5906C16.2057 49.6061 16.1824 49.6139 16.1591 49.6372L13.121 52.6753C12.5227 53.2736 11.5437 53.2736 10.9454 52.6753L8.45901 50.1889C8.17152 49.9014 8.00835 49.5129 8.00835 49.1011C8.00835 48.6892 8.16375 48.3007 8.45901 48.0133L11.4971 44.9752C11.4971 44.9752 11.5282 44.9286 11.5437 44.9053C11.5826 44.8586 11.6136 44.812 11.6369 44.7654C11.6603 44.7188 11.6836 44.6722 11.6991 44.6178C11.7146 44.5634 11.7224 44.5168 11.7302 44.4624C11.7302 44.408 11.7302 44.3536 11.7302 44.2992C11.7302 44.2448 11.7146 44.1982 11.6991 44.1438C11.6836 44.0894 11.6603 44.035 11.6369 43.9884C11.6214 43.9651 11.6214 43.934 11.6059 43.9107C10.215 41.805 9.25932 39.4973 8.75427 37.0342C8.75427 37.0032 8.73096 36.9798 8.72319 36.9565C8.70765 36.9021 8.68434 36.8478 8.65326 36.8011C8.62218 36.7545 8.59887 36.7079 8.56002 36.669C8.52894 36.6302 8.49009 36.5913 8.45124 36.5603C8.41239 36.5214 8.36577 36.4903 8.31138 36.467C8.26476 36.4437 8.21814 36.4282 8.16375 36.4049C8.10936 36.3893 8.05497 36.3738 7.99281 36.3738C7.96173 36.3738 7.93842 36.3582 7.90734 36.3582H3.58722C2.74029 36.3582 2.04876 35.6667 2.04876 34.8198V31.3C2.04876 30.453 2.74029 29.7615 3.58722 29.7615H7.88403C7.99281 29.7615 8.09382 29.7382 8.19483 29.6993C8.22591 29.6838 8.25699 29.6683 8.28807 29.645C8.35023 29.6139 8.40462 29.575 8.45124 29.5362C8.48232 29.5051 8.50563 29.4818 8.52894 29.4429C8.56779 29.3963 8.60664 29.3497 8.62995 29.2875C8.65326 29.2487 8.66103 29.2098 8.67657 29.1632C8.68434 29.1321 8.70765 29.1088 8.71542 29.0777C9.22047 26.6147 10.1762 24.307 11.567 22.2013C11.5826 22.178 11.5826 22.1469 11.5981 22.1236C11.6292 22.0692 11.6447 22.0226 11.6603 21.9682C11.6758 21.9138 11.6836 21.8672 11.6913 21.8128C11.6913 21.7584 11.6913 21.704 11.6913 21.6496C11.6913 21.5952 11.6758 21.5408 11.6603 21.4942C11.6447 21.4398 11.6214 21.3932 11.5981 21.3466C11.567 21.2922 11.5437 21.2534 11.5049 21.2067C11.4893 21.1834 11.4738 21.1601 11.4582 21.1368L8.42016 18.0987C7.82187 17.5004 7.82187 16.5214 8.42016 15.9231L10.9066 13.4367C11.1941 13.1492 11.5826 12.9861 11.9944 12.9861C12.4062 12.9861 12.7947 13.1415 13.0822 13.4367L16.1202 16.4748C16.1202 16.4748 16.128 16.4748 16.1358 16.4826C16.2057 16.5525 16.2912 16.6069 16.3844 16.6457C16.4077 16.6535 16.4233 16.6613 16.4466 16.669C16.5398 16.7001 16.6331 16.7234 16.7341 16.7234C16.8351 16.7234 16.9283 16.7001 17.0216 16.669C17.0526 16.6613 17.076 16.6457 17.107 16.6302C17.1381 16.6147 17.177 16.5991 17.208 16.5836C19.3137 15.1927 21.6292 14.237 24.0845 13.732C24.1156 13.732 24.1311 13.7087 24.1622 13.7009C24.2166 13.6854 24.271 13.6621 24.3176 13.631C24.3642 13.5999 24.4108 13.5766 24.4497 13.5455C24.4885 13.5067 24.5274 13.4756 24.5585 13.429C24.5896 13.3901 24.6206 13.3435 24.6517 13.2969C24.675 13.2502 24.6983 13.2036 24.7139 13.1492C24.7294 13.0948 24.7449 13.0405 24.7449 12.9861C24.7449 12.955 24.7605 12.9317 24.7605 12.9006V8.60378C24.7605 7.75685 25.452 7.06532 26.299 7.06532H29.8188C30.6657 7.06532 31.3572 7.75685 31.3572 8.60378V20.4608C30.285 20.1811 29.1816 20.0335 28.055 20.0335C20.8677 20.0335 15.0169 25.8843 15.0169 33.0715C15.0169 40.2588 20.8677 46.1174 28.055 46.1174C35.2422 46.1174 41.093 40.2666 41.093 33.0793C41.093 31.9527 40.9532 30.8493 40.6657 29.7771H52.5227C53.3697 29.7771 54.0612 30.4686 54.0612 31.3155V34.8353L54.069 34.8198ZM28.055 23.8563C22.9812 23.8563 18.8553 27.9822 18.8553 33.056C18.8553 38.1298 22.9812 42.2557 28.055 42.2557C33.1288 42.2557 37.2547 38.1298 37.2547 33.056C37.2547 27.9822 33.1288 23.8563 28.055 23.8563ZM28.055 40.5463C23.9213 40.5463 20.5647 37.1896 20.5647 33.056C20.5647 28.9223 23.9213 25.5657 28.055 25.5657C32.1886 25.5657 35.5453 28.9223 35.5453 33.056C35.5453 37.1896 32.1886 40.5463 28.055 40.5463ZM35.3666 24.7032C35.0324 25.0373 35.0324 25.5735 35.3666 25.9076C35.5297 26.0708 35.7551 26.1562 35.9648 26.1562C36.1746 26.1562 36.4 26.0708 36.5631 25.9076L51.7846 10.6861C52.2275 10.9115 52.7248 11.0436 53.2609 11.0436C55.0946 11.0436 56.5864 9.55172 56.5864 7.718C56.5864 5.88428 55.0946 4.39244 53.2609 4.39244C51.4272 4.39244 49.9353 5.88428 49.9353 7.718C49.9353 8.40176 50.1451 9.03113 50.4948 9.55949L35.3588 24.6955L35.3666 24.7032ZM53.2687 6.11738C54.1622 6.11738 54.8926 6.84776 54.8926 7.74131C54.8926 8.63486 54.17 9.36524 53.2687 9.36524C52.3673 9.36524 51.6447 8.63486 51.6447 7.74131C51.6447 6.84776 52.3673 6.11738 53.2687 6.11738ZM33.696 24.2837C33.8281 24.3614 33.9757 24.4002 34.1233 24.4002C34.4186 24.4002 34.7061 24.2448 34.8615 23.9729L40.4559 14.2837C40.4559 14.2837 40.4637 14.2526 40.4714 14.237C40.4948 14.1826 40.5103 14.1283 40.5258 14.0739C40.5414 14.0195 40.5569 13.9651 40.5569 13.9107C40.5569 13.8952 40.5647 13.8796 40.5647 13.8563V7.32173C41.9788 6.941 43.0355 5.65895 43.0355 4.12049C43.0355 2.28676 41.5437 0.794922 39.71 0.794922C37.8763 0.794922 36.3844 2.28676 36.3844 4.12049C36.3844 5.65895 37.4411 6.941 38.8553 7.32173V13.6232L33.3774 23.1104C33.1443 23.5144 33.2842 24.0428 33.6882 24.2759L33.696 24.2837ZM38.0938 4.12826C38.0938 3.2347 38.8242 2.50432 39.7178 2.50432C40.6113 2.50432 41.3417 3.2347 41.3417 4.12826C41.3417 5.02181 40.6191 5.75219 39.7178 5.75219C38.8164 5.75219 38.0938 5.02181 38.0938 4.12826ZM58.3347 18.5105C56.7962 18.5105 55.5142 19.5673 55.1334 20.9814H46.9439C46.7962 20.9814 46.6486 21.0203 46.5165 21.098L37.1925 26.4826C36.7885 26.7157 36.6486 27.2363 36.8817 27.6481C37.0371 27.92 37.3246 28.0754 37.6199 28.0754C37.7675 28.0754 37.9151 28.0366 38.0472 27.9589L47.1692 22.6908H55.1334C55.5142 24.1049 56.7962 25.1617 58.3347 25.1617C60.1684 25.1617 61.6603 23.6698 61.6603 21.8361C61.6603 20.0024 60.1684 18.5105 58.3347 18.5105ZM58.3347 23.46C57.4411 23.46 56.7108 22.7297 56.7108 21.8361C56.7108 20.9426 57.4334 20.2122 58.3347 20.2122C59.236 20.2122 59.9586 20.9426 59.9586 21.8361C59.9586 22.7297 59.236 23.46 58.3347 23.46Z" fill="white"/>
</svg>
