<svg width="61" height="62" viewBox="0 0 61 62" fill="none" xmlns="http://www.w3.org/2000/svg">
<path d="M46.9108 51.1799H40.4286C39.1372 51.1799 38.8453 52.3927 39.7942 53.095C40.871 53.8959 41.5054 54.7235 41.7852 55.5285C42.3556 57.1677 41.4761 58.5923 40.134 59.5025C37.5993 61.2257 33.7385 61.2257 31.2037 59.5025C29.863 58.5923 28.9821 57.1677 29.5525 55.5285C29.8323 54.7235 30.4627 53.8959 31.5435 53.095C32.4537 52.4153 32.2045 51.1799 30.9012 51.1799H24.1431C21.9522 51.1799 20.161 49.3888 20.161 47.1978V41.2927H17.8341C16.84 41.2927 16.0284 40.4811 16.0284 39.4869V36.3817C15.0728 36.0872 14.1439 35.7021 13.259 35.2329L11.0641 37.4279C10.3618 38.1302 9.21298 38.1302 8.51065 37.4279L4.37398 33.2912C3.67166 32.5929 3.67166 31.4401 4.37398 30.7418L6.56892 28.5428C6.10115 27.6593 5.71467 26.7291 5.42015 25.7735H2.31498C1.32079 25.7735 0.513184 24.9619 0.513184 23.9677V18.1199C0.513184 17.1257 1.32213 16.3141 2.31498 16.3141H5.42015C5.71467 15.3585 6.09982 14.4297 6.56892 13.5448L4.37398 11.3458C3.67166 10.6475 3.67166 9.49472 4.37398 8.79639L8.51065 4.65972C9.21298 3.95739 10.3618 3.95739 11.0641 4.65972L13.259 6.85466C14.1426 6.38555 15.0728 6.00041 16.0284 5.70588V2.60072C16.0284 1.60653 16.84 0.794922 17.8341 0.794922H23.686C24.6802 0.794922 25.4878 1.60653 25.4878 2.60072V5.70588C26.4473 6.00041 27.3735 6.38555 28.2571 6.85466L30.456 4.65972C31.1584 3.95739 32.3071 3.95739 33.0095 4.65972L37.1461 8.79639C37.8445 9.49472 37.8445 10.6475 37.1461 11.3458L34.9472 13.5448C35.4163 14.4283 35.8015 15.3585 36.096 16.3141H39.2011C40.1953 16.3141 41.0069 17.1257 41.0069 18.1199V20.4921H46.9121C49.103 20.4921 50.8942 22.2832 50.8942 24.4741V31.1309C50.8942 32.4263 52.0923 32.5023 52.7866 31.5654C53.5875 30.4886 54.4151 29.8582 55.2201 29.5783C56.8593 29.004 58.2839 29.8875 59.1942 31.2255C60.924 33.7723 60.9173 37.6438 59.1795 40.1825C58.2693 41.5126 56.8406 42.3922 55.2134 41.8178C54.4085 41.5339 53.5809 40.8995 52.7879 39.8187C52.1869 39.0031 50.8955 39.2137 50.8955 40.3251V47.1965C50.8915 49.3888 49.1017 51.1799 46.9108 51.1799ZM49.0524 12.8171C48.5606 13.3115 47.8063 12.5639 48.3008 12.0655L51.6138 8.72975C52.1082 8.23533 52.8639 8.98296 52.3695 9.47739L49.0524 12.8171ZM54.7336 22.0047C54.0606 22.1979 53.7661 21.1771 54.4391 20.9852L59.6073 19.4859C60.2803 19.29 60.5748 20.3135 59.9018 20.5054L54.7336 22.0047ZM40.0994 6.73072C39.9101 7.40639 38.8866 7.11587 39.0759 6.44419L40.5418 1.26936C40.7311 0.593686 41.7546 0.880214 41.5653 1.55589L40.0994 6.73072ZM11.8717 48.7238C12.3661 48.2253 13.1218 48.977 12.6273 49.4714L9.31027 52.8071C8.8185 53.3055 8.0642 52.5539 8.55863 52.0595L11.8717 48.7238ZM6.19444 39.5335C6.86345 39.3403 7.16197 40.3611 6.48896 40.557L1.32079 42.0536C0.647785 42.2496 0.353261 41.23 1.02627 41.0341L6.19444 39.5335ZM20.8287 54.8062C21.0179 54.1305 22.0414 54.421 21.8522 55.0927L20.3862 60.2715C20.197 60.9445 19.1695 60.6567 19.3627 59.985L20.8287 54.8062ZM20.161 40.2279V30.3193C15.306 30.0101 11.4652 25.9788 11.4652 21.0451C11.4652 16.1115 15.6285 11.7523 20.7581 11.7523C25.8876 11.7523 29.7484 15.6171 30.0362 20.4934H39.9408V18.1212C39.9408 17.7134 39.605 17.3802 39.1998 17.3802H35.6975C35.463 17.3802 35.2524 17.2256 35.1844 16.9911C34.8672 15.8583 34.4141 14.7628 33.8397 13.7353C33.7078 13.5314 33.7345 13.2516 33.9117 13.0743L36.3905 10.5955C36.677 10.309 36.677 9.83589 36.3905 9.54936L32.2538 5.41269C31.9673 5.12616 31.4982 5.12616 31.2077 5.41269L28.7289 7.89149C28.5663 8.05808 28.3064 8.09939 28.0945 7.97812C27.067 7.40373 25.9795 6.94662 24.8454 6.62544C24.6042 6.57613 24.423 6.36156 24.423 6.10436V2.60205C24.423 2.19824 24.0911 1.86507 23.686 1.86507H17.8341C17.4303 1.86507 17.0932 2.19691 17.0932 2.60205V6.10436C17.0932 6.36156 16.9119 6.57613 16.6734 6.62544C15.5406 6.94662 14.4478 7.40373 13.4243 7.97812C13.2084 8.09939 12.9525 8.05808 12.7859 7.89149L10.3071 5.41269C10.0206 5.12616 9.55148 5.12616 9.26495 5.41269L5.12562 9.54936C4.83909 9.83589 4.83909 10.309 5.12562 10.5955L7.60442 13.0743C7.78567 13.2516 7.80832 13.5314 7.68039 13.7353C7.102 14.7628 6.64888 15.8583 6.3317 16.9911C6.26774 17.2256 6.05184 17.3802 5.82129 17.3802H2.31498C1.91117 17.3802 1.578 17.7121 1.578 18.1212V23.9691C1.578 24.3769 1.90984 24.71 2.31498 24.71H5.82129C6.05184 24.71 6.2664 24.8646 6.3317 25.0992C6.64888 26.232 7.102 27.3274 7.68039 28.3549C7.80832 28.5628 7.78567 28.8387 7.60442 29.0159L5.12562 31.4948C4.83909 31.7813 4.83909 32.2544 5.12562 32.5409L9.26629 36.6776C9.55281 36.9641 10.0219 36.9641 10.3084 36.6776L12.7873 34.1988C12.9538 34.0362 13.2097 33.9909 13.4256 34.1122C14.4491 34.6905 15.5406 35.1437 16.6747 35.4648C16.9133 35.5141 17.0945 35.7287 17.0945 35.9859V39.4882C17.0945 39.892 17.4303 40.2292 17.8355 40.2292H20.161V40.2279ZM20.161 29.2492V24.4741C20.161 22.2832 21.9522 20.4921 24.1431 20.4921H28.9674C28.6836 16.2048 25.1173 12.8158 20.7581 12.8158C16.3988 12.8158 12.53 16.4993 12.53 21.0438C12.53 25.3884 15.8951 28.9426 20.161 29.2492ZM40.4272 50.1124H46.9094C48.5113 50.1124 49.8214 48.7984 49.8214 47.1965V40.3251C49.8214 38.1902 52.4321 37.5452 53.6408 39.1884C54.2979 40.0879 54.9482 40.601 55.5559 40.8129C58.4878 41.8444 60.9053 35.6407 58.3092 31.8226C57.6856 30.9004 56.722 30.1794 55.5666 30.5792C54.9549 30.7951 54.3005 31.3082 53.6355 32.1997C52.3055 33.9909 49.82 33.4205 49.82 31.1309V24.4741C49.82 22.8722 48.5087 21.5582 46.9081 21.5582H24.1418C22.5399 21.5582 21.2258 22.8722 21.2258 24.4741V47.1965C21.2258 48.7984 22.5399 50.1124 24.1418 50.1124H30.8998C33.2347 50.1124 33.9037 52.6619 32.1725 53.9466C31.281 54.6116 30.7679 55.2646 30.556 55.8776C29.5285 58.8242 35.7348 61.2044 39.5397 58.6203C40.4619 57.9966 41.1829 57.0331 40.7791 55.8776C40.5672 55.2659 40.0541 54.6116 39.1625 53.9466C37.39 52.6325 38.1123 50.1124 40.4272 50.1124Z" fill="white" stroke="white" stroke-width="0.6"/>
</svg>
