<svg width="64" height="61" viewBox="0 0 64 61" fill="none" xmlns="http://www.w3.org/2000/svg">
<path fill-rule="evenodd" clip-rule="evenodd" d="M48.3932 18.3148C54.124 21.0525 59.082 25.1722 62.8217 30.3004L63.1885 30.7982L62.8217 31.296C60.9355 33.883 58.7283 36.2212 56.2591 38.2581C53.8489 40.2491 51.2095 41.9324 48.3932 43.275C44.6731 48.1544 38.9815 51.1213 32.8512 51.3833V55.2082C32.8512 55.6798 32.4713 56.0596 31.9998 56.0596C31.5282 56.0596 31.1483 55.6798 31.1483 55.2082V51.3833C25.018 51.1279 19.3265 48.1544 15.6064 43.275C12.7901 41.9324 10.1441 40.2426 7.74041 38.2581C5.27125 36.2212 3.06406 33.883 1.17781 31.296L0.811035 30.7982L1.17781 30.3004C4.91757 25.1722 9.87555 21.0525 15.6064 18.3148C19.3199 13.4355 25.018 10.462 31.1483 10.2066V6.38165C31.1483 5.91008 31.5282 5.53021 31.9998 5.53021C32.4713 5.53021 32.8512 5.91008 32.8512 6.38165V10.2066C38.9815 10.462 44.6796 13.4355 48.3932 18.3148ZM3.69937 18.341V5.16344C3.69937 3.69635 4.89138 2.50434 6.36501 2.49779H19.5426C20.0142 2.49779 20.394 2.11792 20.394 1.64636C20.394 1.17479 20.0142 0.794922 19.5426 0.794922H6.36501C3.9548 0.794922 2.00304 2.75322 1.9965 5.15689V18.3476C1.9965 18.8192 2.37637 19.199 2.84793 19.199C3.31949 19.199 3.69937 18.8192 3.69937 18.3476V18.341ZM44.4504 2.49779H57.6345C59.1016 2.49779 60.2936 3.6898 60.3002 5.16344V18.3476C60.3002 18.8192 60.68 19.199 61.1516 19.199C61.6232 19.199 62.003 18.8192 62.003 18.3476V5.16344C62.003 2.75322 60.0447 0.801471 57.6345 0.801471H44.4504C43.9788 0.801471 43.5989 1.18134 43.5989 1.65291C43.5989 2.12447 43.9788 2.50434 44.4504 2.50434V2.49779ZM60.2936 43.2488V56.4329C60.2871 57.9 59.0951 59.0855 57.628 59.0921H44.4438C43.9723 59.0921 43.5924 59.4719 43.5924 59.9435C43.5924 60.415 43.9723 60.7949 44.4438 60.7949H57.628C60.0382 60.7949 61.9899 58.8366 61.9965 56.4329V43.2488C61.9965 42.7772 61.6166 42.3974 61.1451 42.3974C60.6735 42.3974 60.2936 42.7772 60.2936 43.2488ZM19.5426 59.0921H6.36501C4.89792 59.0921 3.70592 57.8935 3.69937 56.4264V43.2488C3.69937 42.7772 3.31949 42.3974 2.84793 42.3974C2.37637 42.3974 1.9965 42.7772 1.9965 43.2488V56.4329C1.9965 58.8432 3.9548 60.7949 6.36501 60.7949H19.5426C20.0142 60.7949 20.394 60.415 20.394 59.9435C20.394 59.4719 20.0142 59.0921 19.5426 59.0921ZM16.6674 29.9468C17.1389 29.9468 17.5188 30.3266 17.5188 30.7982C17.5188 31.2698 17.1389 31.6496 16.6674 31.6496H13.111C13.5498 41.4215 21.3699 49.235 31.1418 49.6804V46.124C31.1418 45.6525 31.5217 45.2726 31.9932 45.2726C32.4648 45.2726 32.8447 45.6525 32.8447 46.124V49.6804C42.6165 49.2416 50.4366 41.4215 50.8754 31.6496H47.3191C46.8475 31.6496 46.4676 31.2698 46.4676 30.7982C46.4676 30.3266 46.8475 29.9468 47.3191 29.9468H50.8754C50.4366 20.1749 42.6165 12.3548 32.8447 11.916V15.4724C32.8447 15.9439 32.4648 16.3238 31.9932 16.3238C31.5217 16.3238 31.1418 15.9439 31.1418 15.4724V11.916C21.3699 12.3548 13.5498 20.1815 13.111 29.9533H16.6674V29.9468ZM11.4081 31.6496H7.58322C7.11166 31.6496 6.73179 31.2698 6.73179 30.7982C6.73179 30.3266 7.11166 29.9468 7.58322 29.9468H11.4081C11.5326 26.8947 12.3316 23.9081 13.7594 21.2032C9.54152 23.6461 5.8607 26.9078 2.91998 30.7982C5.8607 34.6821 9.54807 37.9437 13.7594 40.3867C12.3382 37.6817 11.5326 34.6951 11.4081 31.6431V31.6496ZM52.5783 29.9533H56.3967C56.8682 29.9533 57.2481 30.3332 57.2481 30.8047C57.2481 31.2763 56.8682 31.6562 56.3967 31.6562H52.5718C52.4473 34.7082 51.6483 37.6948 50.2205 40.3998C54.4384 37.9568 58.1257 34.6951 61.0665 30.8047C58.1257 26.9209 54.4384 23.6527 50.2205 21.2097C51.6483 23.9147 52.4473 26.9012 52.5718 29.9533H52.5783ZM31.9932 18.8257C25.3782 18.8257 20.0207 24.1897 20.0207 30.7982C20.0207 37.4066 25.3848 42.7707 31.9932 42.7707C38.6082 42.7707 43.9657 37.4066 43.9657 30.7982C43.9657 27.6217 42.7017 24.5762 40.4617 22.3297C38.2152 20.0832 35.1697 18.8192 31.9932 18.8257ZM39.2566 23.5348C35.2418 19.5265 28.7381 19.5265 24.7298 23.5348C20.7215 27.5496 20.7215 34.0533 24.7298 38.0616C28.7447 42.0699 35.2483 42.0699 39.2566 38.0616C41.1822 36.136 42.2628 33.5293 42.2628 30.8047C42.2628 28.0802 41.1822 25.4604 39.2501 23.5348H39.2566Z" fill="white"/>
</svg>
