<svg width="23" height="25" viewBox="0 0 23 25" fill="none" xmlns="http://www.w3.org/2000/svg">
<g clip-path="url(#clip0_1118_1301)">
<g clip-path="url(#clip1_1118_1301)">
<path d="M22.5 12.2598C22.5 13.2198 21.3206 14.011 21.0844 14.896C20.8406 15.811 21.4575 17.0861 20.9944 17.8867C20.5238 18.7004 19.1081 18.7979 18.4481 19.4579C17.7881 20.1179 17.6906 21.5336 16.8769 22.0042C16.0763 22.4673 14.8012 21.8504 13.8862 22.0942C13.0012 22.3304 12.21 23.5098 11.25 23.5098C10.29 23.5098 9.49875 22.3304 8.61375 22.0942C7.69875 21.8504 6.42375 22.4673 5.62313 22.0042C4.80938 21.5336 4.71187 20.1179 4.05188 19.4579C3.39188 18.7979 1.97625 18.7004 1.50563 17.8867C1.0425 17.0861 1.65938 15.811 1.41563 14.896C1.17938 14.011 0 13.2198 0 12.2598C0 11.2998 1.17938 10.5085 1.41563 9.62352C1.65938 8.70852 1.0425 7.43352 1.50563 6.6329C1.97625 5.81915 3.39188 5.72164 4.05188 5.06165C4.71187 4.40165 4.80938 2.98602 5.62313 2.5154C6.42375 2.05227 7.69875 2.66915 8.61375 2.4254C9.49875 2.18915 10.29 1.00977 11.25 1.00977C12.21 1.00977 13.0012 2.18915 13.8862 2.4254C14.8012 2.66915 16.0763 2.05227 16.8769 2.5154C17.6906 2.98602 17.7881 4.40165 18.4481 5.06165C19.1081 5.72164 20.5238 5.81915 20.9944 6.6329C21.4575 7.43352 20.8406 8.70852 21.0844 9.62352C21.3206 10.5085 22.5 11.2998 22.5 12.2598Z" fill="url(#paint0_linear_1118_1301)"/>
<path d="M14.5011 8.90731L10.2186 13.1898L7.99863 10.9717C7.51676 10.4898 6.73488 10.4898 6.25301 10.9717C5.77113 11.4536 5.77113 12.2355 6.25301 12.7173L9.36738 15.8317C9.83613 16.3005 10.5974 16.3005 11.0661 15.8317L16.2449 10.653C16.7268 10.1711 16.7268 9.38918 16.2449 8.90731C15.763 8.42543 14.983 8.42543 14.5011 8.90731Z" fill="white"/>
</g>
</g>
<defs>
<linearGradient id="paint0_linear_1118_1301" x1="11.25" y1="23.5098" x2="11.25" y2="1.00977" gradientUnits="userSpaceOnUse">
<stop stop-color="#5934DF"/>
<stop offset="1" stop-color="#DB80EB"/>
</linearGradient>
<clipPath id="clip0_1118_1301">
<rect width="23" height="24" fill="white" transform="translate(0 0.259766)"/>
</clipPath>
<clipPath id="clip1_1118_1301">
<rect width="23" height="24" fill="white" transform="translate(0 0.259766)"/>
</clipPath>
</defs>
</svg>
