<svg xmlns="http://www.w3.org/2000/svg" xmlns:xlink="http://www.w3.org/1999/xlink" version="1.1" id="Layer_1" x="0px" y="0px" viewBox="0 0 1932.5 2095.8" style="enable-background:new 0 0 1932.5 2095.8;" xml:space="preserve">
<style type="text/css">
	.st0{fill-rule:evenodd;clip-rule:evenodd;fill:#ffffff;}
	.st1{fill-rule:evenodd;clip-rule:evenodd;}
</style>
<path class="st0" d="M774.9,509.6c1.6,1.6,365.5,831.5,365.1,830.8H901.6c0-2.6-112.9-270.6-111.8-272H532.8  C535.1,1069.2,778.5,506.8,774.9,509.6L774.9,509.6z M0,0h558.8c1.6-0.4-555.1,1340.3-557,1338.6C1.9,1336.7,0.6-0.9,0,0L0,0z   M984.2,0h577.9l-0.4,1339.3C1562.1,1343.6,984.2,0,984.2,0L984.2,0z" fill="#ffffff"/>
<path class="st1" d="M226.9,1550.1l124.1,531.3h-90.5l-21.3-99.4H127l-20.7,99.4H15.9L140,1550.1H226.9z M222.2,1891.7l-39-198.9  l-39,198.9H222.2L222.2,1891.7z M554.5,2081.4l-2.4-46.3h-3c-12.4,36.5-39,60.7-72.7,60.7c-79.8,0-113.5-93.3-113.5-208.7  c0-98.7,24.8-205.7,114.7-205.7c31.3,0,46.1,11.4,68.6,41v-172.3H626v531.3L554.5,2081.4L554.5,2081.4L554.5,2081.4z M497.8,1759.6  c-21.9,0-52,21.3-52,129c0,50.1,6.5,130.5,52,130.5c43.7,0,52-72.1,52-130.5C549.8,1780.9,519,1759.6,497.8,1759.6z M682.3,1887.9  c0-119.2,41.4-206.5,135.4-206.5c93.4,0,135.4,87.3,135.4,206.5c0,120.7-42.6,207.9-135.4,207.9  C724.2,2095.8,682.3,2008.5,682.3,1887.9z M870.3,1887.9c0-104.7-21.9-129-52.6-129c-24.2,0-52.6,18.2-52.6,129  c0,113.1,28.4,130.5,52.6,130.5C851.9,2018.4,870.3,1986.5,870.3,1887.9z M1079.5,2081.4H1008v-531.3h80.4V1727  c16.5-37.9,47.9-45.5,68-45.5c84.5,0,115.3,88.8,115.3,205.7c0,116.1-30.1,208.7-114.7,208.7c-34.9,0-55.6-17.5-72.7-60.7h-2.4  L1079.5,2081.4L1079.5,2081.4z M1136.8,2018.4c43.7,0,52-72.1,52-130.5c0-107.8-30.7-129-52-129c-21.9,0-52,21.3-52,129  C1084.8,1937.9,1091.3,2018.4,1136.8,2018.4z M1574.4,1969.8c-20.1,116.9-85.1,126-128.9,126c-49.1,0-133-18.2-133-207.9  c0-132.1,54.4-206.5,138.9-206.5c53.2,0,128.3,29.6,128.3,214.1v21.3h-184.5c0,91.1,31.3,101.7,53.8,101.7  c18.3,0,37.2-5.3,44.9-48.6L1574.4,1969.8L1574.4,1969.8L1574.4,1969.8z M1497,1852.2c-2.4-78.2-21.3-93.4-47.9-93.4  c-45.5,0-53.2,64.5-53.8,93.4H1497L1497,1852.2z M1602.8,31.2V0h136.3v31.2h-50.5v132.5h-35.4V31.2H1602.8L1602.8,31.2z M1783,37.3  v126.4h-35.4V0h46.7l46.2,128.8L1886.3,0h46.2v163.7h-35.4V37.3l-44.8,126.4h-25L1783,37.3z" fill="#ffffff"/>
</svg>