<svg xmlns="http://www.w3.org/2000/svg" version="1.1" viewBox="0 0 800 800" width="200" height="200">
<path transform="translate(0)" d="m0 0h800v800h-800z" fill="#1e1441"/>
<path transform="translate(350,48)" d="m0 0h10l8 4 7 6 2 5v10l-3 8-5 6-6 4-4 1h-13l-6 8-13 22-13 25-10 17-1 4 30-8 34-9 17-4h2v-8l5-8 10-11 8-4h18l9 4 12 16 2 7v9l-3 11-5 6-4 3-1 19v194l4-4 9-17 8-14 12-24 6-9 3-6-2-5-1-3v-11l5-5h13l5 3 2 7-1 8-5 6-12 3-6 13-5 14-9 17-6 9-11 22 2 4 5 4 7-1 17-8 13-8 21-10 7-5 16-5-1-10 4-10 7-7 7-3h9l10 5 6 8 2 6v9l-4 7-7 6 2 10 8 20 4 9 6 16 2 13h8l5 4 2 9-3 8-8 5-6-1-6-5-2-5v-9l4-4-1-7-8-20-7-17-7-18-1-5-6 1-10-5-5-5-9 3-15 8-10 6-19 9-14 7-13 6 1 4v13l-3 10-1 4 11 5 8 5 9 10 6 5 8-1h9l5 4 1 2v13l-4 4-3 1h-10l-6-4-4-6 1-4-2-5-4-2-7-8-13-10-8-5-6 1-6 4-2 3v125l11 8 8 11h102l8-10 8-7 8-3 4-1h14l10-14 8-8 4-5-1-5-5-7-55 1-3 6-6 4-7-1-5-3-3-6v-10l3-5 6-2h8l5 4 2 4 54 1 1-8 7-8 8-5h14l2-6 9-17 4-4 3-6-4-8v-7l5-8 2-2h9l6 4 2 3 1 11-4 7-7 3h-5l-8 16-8 15v5l4 4 6-1 33-18 20-12 24-9 1-3v-15l4-10 6-4-1-10-6-28-4-25-9-5-3-7v-5l5-6 6-3 6 1 6 6 1 9-6 7 1 9 9 38 4 17 13 2 6 4 4 11v15l-3 6-5 4-9 3h-8l-11-4-5-3-22 11-12 7-10 7-18 9-14 5-5 5v7l-1 7 12 12 13 8 6 1 11-1 5 2 4 8v7l-5 8-4 3-9-2-5-4-2-5v-8l-5-5-15-9-9-8-3-1-8 5-4 1h-9l-4-1-4 6-8 8-7 11-1 4 10 9 5 8 1 4v12l-3 10-4 6-6 5-8 3-8 2h-10l-14-4-7-4-3-6h-107l-5 7-12 5h-2l2 13 4 18 5 15 2 9 9 3 8 5 6 7 3 5h95v-7l-6-7-8-7-8-10-1-1-11 1-7-3-4-5-1-2v-6l5-7 4-2h10l6 4 2 3 1 6v6l7 9 14 12 4 1 7-5 3-1h8l7 3 5 2 16-16 5-4 3-4h2v-2l6-5h2l2-4 4-5-1-9 2-5 6-5h11l4 4 2 5v8l-5 8-3 2h-5l-5-1-8 6-10 7-9 12-4 5-8 7-2 2 1 6 1 7-3 8-5 7-9 5-8 1-12-6-6-8-2-4h-95l-3 10-4 5-12 6h-10l-6-3-4-5-2-3-9 2-21 9-16 8-4 8-10 4-9-3-3-6v-8l4-6 2-2h11l5 4 6-1 20-9 21-8v-9l7-12 4-4-1-10-3-16-7-26v-4h-10l-8-2h-5l-6 12-5 11-5 9-1 3 2 4v10l-2 3h-2v2l-8 3-7-1-6-4-4 1-13 6-25 10-5 3-2 11-6 9-8 5-6 2-9-1-8-6-5-7-2-7 1-8 5-8 7-7 3-1h11l7 3 6 5v2l4 1 6-4 27-11 12-5 2-8 5-4 13-2 10-17 9-16-1-5-5-10-1-6v-14l4-10 7-9 4-1v-131l-8-7-3-1h-75l-3 9-3 13-8 20-5 11-10 25-5 11-5 18-2 9-8 20-6 16-1 5 5 6 4-2 14-10 16-12 10-8 7-6 5-5 13-6v-10l4-6 3-3 3-1h8l5 5 2 6v8l-4 5-2 1h-8l-8-1-10 6-12 11-8 7-12 9-13 7-9 10-2 1-1 4 2 12 3 2 27 5h13l4-4 2-1h7l6 3 5 5v7l-4 6-4 3-3 1h-8l-4-4-3-7v-3l-23-3-19-3-5 5-6 8-9 6-7 3-7 1h-6l-4 10 1 6 3 3v10l-5 7-7 3-10-2-5-6v-13l5-4 9-2 3-9 1-7-9-7-6-7-3-6-1-12-15-4-24-6-20-6-7-1-2 5-7 7-7 3-10-1-10-6-6-10v-11l4-8 4-4-2-6-7-12-5-7-7-19-7-13-7-10-9-16-9-3-3-6v-8l4-7 4-3 9-69-6-2-5-4-3-8-1-5v-9l4-8 6-5 5-2h15l6 4 5 8 1 3v11l-4 10-6 7-9 2-6 42-2 16v12l6 5 1 2v7l-4 6 4 10 10 17 3 5 6 16 8 15 9 13 3 6h14l2-9 11-30 6-14 7-14 12-30 3-14 5-13 1-4-3-4v-11l-10-7-13-6h-6l-5 3h-7l-6-5-3-7 1-5 5-5 3-2h8l7 6 3 7 12 5 9 6 5 2 4-5 10-5h4l-1-86-8-4-5-6-1-5-40 7-5 1-1 5-4 4h-12l-5-3-2-2-1-8 4-8 4-3 3-1h7l5 4 2 4 7-1 35-6 2-9 3-3-1-5-8-11-9-16-9-10-5-4-13-17-2-4-7 2h-7l-9-3-8-7-4-8 1-10 4-8 7-6 7-3h10l9 6 6 10 1 3v10l-3 5-2 4 12 16 12 14 6 8 9 13 11 14 9-1-1-87-7-5-3-7 1-8 6-4 10-1 5 3 3 4v8l-4 8-2 1v88l6 3 6 5 8-1 16-5 11-5 20-7 2-9 5-5 2-4-2-43v-10l-10-3-8-6-4-8v-11l4-8 6-5-1-6-7-16-7-14-1-5-8-1-4-6-1-4v-7l4-5 2-1h11l5 3 3 4v7l-4 6 1 7 7 16 8 17 4 1h6l9 5 13-22 7-8 6-14 3-8 7-10 6-8-1-4-4-4-3-10 1-9 6-7 8-5z" fill="#ffffff"/>
<path transform="translate(382,154)" d="m0 0 5 1 4 11 5 4v7l-10 27-7 15-8 21-6 13-4 18-4 12-9 20-8 20-9 21-8 24-6 20-12 28-9 22-6 14-3 15-10 26-3 9-4-2-9-9-7-8v-2l-4-2-6-7-8-10-9-10-9-12 2-6-1-10-3-7 1-5 5-6 8-7 11-10 9-14 6-7 6-6h12l8-3 1-1v-13l-3-5-4-2h-10l-6 3-2 4v9l1 5-5 4-4 2-3 7-6 8-15 16-13 11-3 3-6-3v-86l1-1 10-2 5-4 3-5 1-4v-10l2-3 24-8 15-4 10-4h5l5 4 5 1 8-4 3-8-1-7-4-6-7-4-2-38v-17l11-6 5-7 1-11 3-2 32-6 24-6z" fill="#1e1441"/>
<path transform="translate(185,447)" d="m0 0 6 1 3 2v19l-5 61-4 4-5 2-2 5-1 7 4 6 5 2h9l7-3 2-3-1-10-7-7v-16l5-59 2-7 2-2 4 1 11 13 10 11 8 7 8 9 6 9 9 11 5 4-2 9-12 31-3 7-5 22-2 4-13 3-8 4-5 6-4 8-44-11-21-6-3-10-4-6-4-3 1-7 11-24 10-24 7-15 7-25 8-19 4-10z" fill="#1e1441"/>
<path transform="translate(410,197)" d="m0 0h1v189l-6 4-6 8-3 6-1 1h-60l1-6 6-14 7-19 6-13 4-13 4-17 9-24 11-26 11-29 4-15 7-21 4-10z" fill="#1e1441"/>
<path transform="translate(434,60)" d="m0 0h10l5 5 2 4v3l23 4 39 8 20 4h6l4-7 7-6 5-2h9l10 5 6 8 2 5v9l-4 8-7 6-8 3v126l12 3 3 2 12-2 33-14 6-2v-8l4-9 2-1-1-10-3-22-4-36-9-4-4-5-1-5 3-6 5-4 2-1h6l7 6 2 5-1 6-5 5h-2l4 27 6 32 2 10 10 5 3 4 1 5-2 8-4 5-5 2h-9l-5-4-5 2-14 6-20 6-10 6v14l-4 9-6 5-9 2-13-1-6-4-5-7-1-3v-15l5-8 12-5v-125l-4 1-12 16-7 8-10 15-6 10 2 5-1 9-4 6-6 1-7-2-5-5-1-3v-8l7-6 8-1 3-1 8-16 7-10 8-9 8-12 1-4-5-8-1-3v-7l-20-1-20-3-45-9-4 2-5 4-2 1h-7l-7-6-2-6 1-8 5-6z" fill="#ffffff"/>
<path transform="translate(704,228)" d="m0 0h9l8 4 7 8 3 7-1 8-4 8-5 5-8 4h-12l-4 11-7 15-9 22-6 12-10 30-2 9 3 6 4 9 1 4v8l-6 12-5 4-3 1h-13l-8-4-5-6-2-7v-10l4-11 8-5 3-1 11-1 3-7 5-12 4-14 2-10 7-15 8-20 9-20 1-5-4-5-4 1-14 11-9 9-15 9-12 10-1 4v9l-4 5-2 1h-8l-8-2-3-8 1-8 5-6 5-2 10 1 11-8 15-8 6-5 8-10 13-10h2v-9l5-10 6-5z" fill="#ffffff"/>
</svg>