<svg xmlns="http://www.w3.org/2000/svg" xmlns:xlink="http://www.w3.org/1999/xlink" version="1.1" id="Layer_1" x="0px" y="0px" viewBox="0 0 198.4 117.9" style="enable-background:new 0 0 198.4 117.9;" xml:space="preserve">
<style type="text/css">
	.st0{fill:#ffffff;}
	.st1{fill-rule:evenodd;clip-rule:evenodd;fill:#ffffff;}
</style>
<path class="st0" d="M55.9,42.8c0,2.4,0.3,4.4,0.7,5.8c0.5,1.4,1.2,3,2.1,4.7c0.3,0.5,0.5,1,0.5,1.5c0,0.7-0.4,1.3-1.3,2l-4.2,2.8  c-0.6,0.4-1.2,0.6-1.7,0.6c-0.7,0-1.3-0.3-2-0.9c-0.9-1-1.7-2-2.4-3.1c-0.7-1.1-1.3-2.4-2-3.9c-5.1,6-11.6,9.1-19.4,9.1  c-5.5,0-10-1.6-13.2-4.7c-3.2-3.2-4.9-7.4-4.9-12.6c0-5.6,2-10.1,6-13.5s9.4-5.1,16.2-5.1c2.2,0,4.6,0.2,7,0.5s4.9,0.9,7.6,1.4v-4.8  c0-5-1.1-8.5-3.1-10.5c-2.1-2-5.7-3-10.8-3c-2.3,0-4.7,0.3-7.1,0.9c-2.4,0.6-4.8,1.3-7.1,2.2c-1.1,0.5-1.8,0.7-2.3,0.9  c-0.5,0.1-0.8,0.2-1.1,0.2c-0.9,0-1.4-0.7-1.4-2V7.9c0-1.1,0.1-1.8,0.5-2.3c0.3-0.5,0.9-0.9,1.8-1.4c2.3-1.2,5.1-2.2,8.3-3  C25.8,0.3,29.3,0,32.9,0c7.9,0,13.6,1.8,17.3,5.3c3.6,3.5,5.5,8.9,5.5,16.1v21.3L55.9,42.8L55.9,42.8z M29.1,52.7  c2.2,0,4.4-0.4,6.8-1.2c2.4-0.8,4.5-2.2,6.3-4.2c1.1-1.2,1.8-2.6,2.2-4.2s0.7-3.5,0.7-5.7v-2.8c-1.9-0.5-4-0.9-6.1-1.1  c-2.1-0.3-4.2-0.4-6.2-0.4c-4.4,0-7.7,0.9-9.8,2.6c-2.2,1.8-3.2,4.3-3.2,7.5c0,3.1,0.8,5.4,2.4,7C23.8,51.9,26.1,52.7,29.1,52.7z   M82.1,59.8c-1.2,0-2-0.2-2.5-0.7c-0.5-0.4-1-1.3-1.4-2.6L62.7,5.9c-0.4-1.3-0.6-2.2-0.6-2.6c0-1.1,0.5-1.6,1.6-1.6h6.5  c1.3,0,2.1,0.2,2.6,0.7c0.5,0.4,0.9,1.3,1.3,2.6l11.1,43.4L95.5,5c0.3-1.3,0.7-2.2,1.3-2.6c0.5-0.4,1.5-0.7,2.6-0.7h5.3  c1.3,0,2.1,0.2,2.6,0.7c0.5,0.4,1,1.3,1.3,2.6L119,49l11.4-44c0.4-1.3,0.9-2.2,1.3-2.6c0.5-0.4,1.4-0.7,2.6-0.7h6.1  c1.1,0,1.6,0.5,1.6,1.6c0,0.3-0.1,0.7-0.1,1.1c-0.1,0.4-0.2,0.9-0.5,1.6l-15.9,50.7c-0.4,1.3-0.9,2.2-1.4,2.6s-1.4,0.7-2.5,0.7h-5.7  c-1.3,0-2.1-0.2-2.6-0.7s-1-1.3-1.3-2.6l-10.2-42.3L91.7,56.5c-0.3,1.3-0.7,2.2-1.3,2.6c-0.5,0.5-1.5,0.7-2.6,0.7  C87.8,59.8,82.1,59.8,82.1,59.8z M166.9,61.6c-3.4,0-6.9-0.4-10.2-1.2c-3.3-0.8-5.9-1.6-7.6-2.6c-1.1-0.6-1.8-1.2-2-1.8  c-0.3-0.6-0.4-1.2-0.4-1.8v-3.3c0-1.4,0.5-2,1.5-2c0.4,0,0.8,0.1,1.2,0.2s1,0.4,1.6,0.7c2.2,1,4.7,1.8,7.3,2.3s5.2,0.8,7.9,0.8  c4.2,0,7.4-0.7,9.6-2.2c2.2-1.4,3.4-3.5,3.4-6.2c0-1.8-0.6-3.3-1.8-4.6c-1.2-1.2-3.4-2.4-6.7-3.4l-9.6-3c-4.8-1.5-8.4-3.7-10.6-6.7  c-2.2-2.9-3.3-6.1-3.3-9.5c0-2.8,0.6-5.2,1.8-7.3s2.8-3.9,4.8-5.4s4.2-2.6,6.9-3.4c2.6-0.8,5.4-1.1,8.3-1.1c1.5,0,3,0.1,4.4,0.3  c1.5,0.2,2.9,0.5,4.3,0.7c1.3,0.3,2.6,0.7,3.8,1.1c1.2,0.4,2.1,0.8,2.8,1.2c0.9,0.5,1.6,1.1,2,1.6s0.6,1.2,0.6,2.2v3.1  c0,1.4-0.5,2.1-1.5,2.1c-0.5,0-1.4-0.3-2.5-0.8c-3.8-1.7-8-2.6-12.7-2.6c-3.8,0-6.7,0.6-8.8,1.8c-2,1.2-3.1,3.2-3.1,5.8  c0,1.8,0.7,3.4,2,4.7c1.3,1.2,3.8,2.5,7.3,3.6l9.4,3c4.8,1.5,8.2,3.6,10.2,6.3c2,2.7,3,5.8,3,9.2c0,2.8-0.6,5.4-1.7,7.6  c-1.2,2.2-2.8,4.2-4.8,5.8c-2,1.6-4.5,2.8-7.3,3.7C173.4,61.1,170.3,61.6,166.9,61.6z" fill="#000000"/>
<path class="st1" d="M179.4,93.5c-21.7,15.9-53.2,24.4-80.4,24.4c-38,0-72.3-14-98.1-37.2c-2-1.8-0.2-4.3,2.2-2.9  c28,16.1,62.5,25.9,98.2,25.9c24.1,0,50.5-5,74.9-15.2C179.8,86.9,182.9,90.9,179.4,93.5z M188.4,83.2c-2.8-3.5-18.3-1.7-25.4-0.9  c-2.1,0.3-2.4-1.6-0.5-3c12.4-8.7,32.8-6.2,35.2-3.3c2.4,3-0.7,23.2-12.3,32.9c-1.8,1.5-3.5,0.7-2.7-1.2  C185.3,101.4,191.2,86.7,188.4,83.2z" fill="#000000"/>
</svg>