<svg width="61" height="61" viewBox="0 0 61 61" fill="none" xmlns="http://www.w3.org/2000/svg">
<path d="M53.8139 23.0665C55.4048 23.0665 56.6969 21.7744 56.6969 20.1835V18.8731H59.0557C60.0674 18.8731 60.8904 18.0501 60.8904 17.0384V14.5853C60.8904 13.8514 60.4553 13.1883 59.7791 12.9L32.2988 1.12141C31.316 0.699439 30.1864 0.699439 29.2009 1.12141L1.72061 12.8973C1.04442 13.1883 0.609375 13.8488 0.609375 14.5826V17.0357C0.609375 18.0474 1.43237 18.8704 2.44403 18.8704H4.80284V20.1808C4.80284 21.7717 6.09497 23.0638 7.68587 23.0638H7.94796V48.7487H7.68587C6.09497 48.7487 4.80284 50.0408 4.80284 51.6317V55.0389H3.4924C1.9015 55.0389 0.609375 56.331 0.609375 57.9219V60.0186C0.609375 60.4537 0.96058 60.8049 1.39567 60.8049H60.1042C60.5393 60.8049 60.8905 60.4537 60.8905 60.0186V57.9219C60.8905 56.331 59.5984 55.0389 58.0075 55.0389H56.697V51.6317C56.697 50.0408 55.4049 48.7487 53.814 48.7487H53.5519V23.0638H53.814L53.8139 23.0665ZM2.18189 17.0384V14.5853C2.18189 14.4804 2.24479 14.3861 2.34177 14.3441L29.8221 2.56552C30.4118 2.31391 31.0906 2.31391 31.6803 2.56552L59.1606 14.3441C59.2576 14.3861 59.3205 14.4804 59.3205 14.5853V17.0384C59.3205 17.1826 59.2025 17.3005 59.0584 17.3005H2.44386C2.29971 17.3005 2.18189 17.1826 2.18189 17.0384ZM6.37536 20.1835V18.8731H55.1243V20.1835C55.1243 20.9069 54.5372 21.4939 53.8138 21.4939H7.68567C6.96231 21.4939 6.37536 20.9069 6.37536 20.1835ZM43.0685 48.7514V23.0666H45.6894V48.7514H43.0685ZM36.7783 48.7514V38.0054C36.7783 34.6821 34.0736 31.9773 30.7502 31.9773C27.4268 31.9773 24.7221 34.682 24.7221 38.0054V48.7514H20.0045V23.0666H41.4958V48.7514H36.7783ZM26.2947 48.7514V38.0054C26.2947 35.5496 28.2945 33.5499 30.7502 33.5499C33.206 33.5499 35.2058 35.5496 35.2058 38.0054V48.7514H26.2947ZM15.811 48.7514V23.0666H18.4319V48.7514H15.811ZM9.5208 23.0666H14.2384V48.7514H9.5208V23.0666ZM59.3184 57.9247V59.2352H2.18256V57.9247C2.18256 57.2014 2.76965 56.6143 3.493 56.6143H58.0081C58.7314 56.6143 59.3184 57.2014 59.3184 57.9247ZM55.1249 51.6345V55.0417H6.37603V51.6345C6.37603 50.9112 6.96312 50.3241 7.68647 50.3241H53.8146C54.538 50.3241 55.1249 50.9112 55.1249 51.6345ZM51.9798 48.7515H47.2622V23.0667H51.9798V48.7515ZM30.7501 14.6797C32.9177 14.6797 34.6815 12.9159 34.6815 10.7483C34.6815 8.58082 32.9177 6.81694 30.7501 6.81694C28.5826 6.81694 26.8188 8.58082 26.8188 10.7483C26.8188 12.9159 28.5826 14.6797 30.7501 14.6797ZM30.7501 8.38953C32.0501 8.38953 33.109 9.44836 33.109 10.7483C33.109 12.0483 32.0501 13.1071 30.7501 13.1071C29.4502 13.1071 28.3913 12.0483 28.3913 10.7483C28.3913 9.44836 29.4502 8.38953 30.7501 8.38953Z" fill="black"/>
<path d="M53.8139 23.0665C55.4048 23.0665 56.6969 21.7744 56.6969 20.1835V18.8731H59.0557C60.0674 18.8731 60.8904 18.0501 60.8904 17.0384V14.5853C60.8904 13.8514 60.4553 13.1883 59.7791 12.9L32.2988 1.12141C31.316 0.699439 30.1864 0.699439 29.2009 1.12141L1.72061 12.8973C1.04442 13.1883 0.609375 13.8488 0.609375 14.5826V17.0357C0.609375 18.0474 1.43237 18.8704 2.44403 18.8704H4.80284V20.1808C4.80284 21.7717 6.09497 23.0638 7.68587 23.0638H7.94796V48.7487H7.68587C6.09497 48.7487 4.80284 50.0408 4.80284 51.6317V55.0389H3.4924C1.9015 55.0389 0.609375 56.331 0.609375 57.9219V60.0186C0.609375 60.4537 0.96058 60.8049 1.39567 60.8049H60.1042C60.5393 60.8049 60.8905 60.4537 60.8905 60.0186V57.9219C60.8905 56.331 59.5984 55.0389 58.0075 55.0389H56.697V51.6317C56.697 50.0408 55.4049 48.7487 53.814 48.7487H53.5519V23.0638H53.814L53.8139 23.0665ZM2.18189 17.0384V14.5853C2.18189 14.4804 2.24479 14.3861 2.34177 14.3441L29.8221 2.56552C30.4118 2.31391 31.0906 2.31391 31.6803 2.56552L59.1606 14.3441C59.2576 14.3861 59.3205 14.4804 59.3205 14.5853V17.0384C59.3205 17.1826 59.2025 17.3005 59.0584 17.3005H2.44386C2.29971 17.3005 2.18189 17.1826 2.18189 17.0384ZM6.37536 20.1835V18.8731H55.1243V20.1835C55.1243 20.9069 54.5372 21.4939 53.8138 21.4939H7.68567C6.96231 21.4939 6.37536 20.9069 6.37536 20.1835ZM43.0685 48.7514V23.0666H45.6894V48.7514H43.0685ZM36.7783 48.7514V38.0054C36.7783 34.6821 34.0736 31.9773 30.7502 31.9773C27.4268 31.9773 24.7221 34.682 24.7221 38.0054V48.7514H20.0045V23.0666H41.4958V48.7514H36.7783ZM26.2947 48.7514V38.0054C26.2947 35.5496 28.2945 33.5499 30.7502 33.5499C33.206 33.5499 35.2058 35.5496 35.2058 38.0054V48.7514H26.2947ZM15.811 48.7514V23.0666H18.4319V48.7514H15.811ZM9.5208 23.0666H14.2384V48.7514H9.5208V23.0666ZM59.3184 57.9247V59.2352H2.18256V57.9247C2.18256 57.2014 2.76965 56.6143 3.493 56.6143H58.0081C58.7314 56.6143 59.3184 57.2014 59.3184 57.9247ZM55.1249 51.6345V55.0417H6.37603V51.6345C6.37603 50.9112 6.96312 50.3241 7.68647 50.3241H53.8146C54.538 50.3241 55.1249 50.9112 55.1249 51.6345ZM51.9798 48.7515H47.2622V23.0667H51.9798V48.7515ZM30.7501 14.6797C32.9177 14.6797 34.6815 12.9159 34.6815 10.7483C34.6815 8.58082 32.9177 6.81694 30.7501 6.81694C28.5826 6.81694 26.8188 8.58082 26.8188 10.7483C26.8188 12.9159 28.5826 14.6797 30.7501 14.6797ZM30.7501 8.38953C32.0501 8.38953 33.109 9.44836 33.109 10.7483C33.109 12.0483 32.0501 13.1071 30.7501 13.1071C29.4502 13.1071 28.3913 12.0483 28.3913 10.7483C28.3913 9.44836 29.4502 8.38953 30.7501 8.38953Z" fill="url(#paint0_linear_858_1684)"/>
<defs>
<linearGradient id="paint0_linear_858_1684" x1="30.7499" y1="60.8049" x2="30.7499" y2="0.804932" gradientUnits="userSpaceOnUse">
<stop stop-color="#5934DF"/>
<stop offset="1" stop-color="#DB80EB"/>
</linearGradient>
</defs>
</svg>
