<svg width="48" height="49" viewBox="0 0 48 49" fill="none" xmlns="http://www.w3.org/2000/svg">
<g clip-path="url(#clip0_1320_4183)">
<path fill-rule="evenodd" clip-rule="evenodd" d="M29.1427 6.97225H24.8571V0.972113C24.8571 0.498554 24.4736 0.11499 24 0.11499C23.5264 0.11499 23.1429 0.498554 23.1429 0.972113V6.97225H18.8573V0.972113C18.8573 0.498554 18.4737 0.11499 18.0001 0.11499C17.5266 0.11499 17.143 0.498554 17.143 0.972113V6.97225H7.71438C7.24082 6.97225 6.85726 7.35581 6.85726 7.82937V17.258H0.857123C0.383563 17.258 0 17.6416 0 18.1151C0 18.5887 0.383563 18.9722 0.857123 18.9722H6.85726V23.2579H0.857123C0.383563 23.2579 0 23.6414 0 24.115C0 24.5886 0.383563 24.9721 0.857123 24.9721H6.85726V29.2577H0.857123C0.383563 29.2577 0 29.6413 0 30.1149C0 30.5884 0.383563 30.972 0.857123 30.972H6.85726V40.4006C6.85726 40.8742 7.24082 41.2577 7.71438 41.2577H17.143V47.2579C17.143 47.7314 17.5266 48.115 18.0001 48.115C18.4737 48.115 18.8573 47.7314 18.8573 47.2579V41.2577H23.1429V47.2579C23.1429 47.7314 23.5264 48.115 24 48.115C24.4736 48.115 24.8571 47.7314 24.8571 47.2579V41.2577H29.1427V47.2579C29.1427 47.7314 29.5263 48.115 29.9999 48.115C30.4734 48.115 30.857 47.7314 30.857 47.2579V41.2577H40.2856C40.7592 41.2577 41.1427 40.8742 41.1427 40.4006V30.972H47.1429C47.6164 30.972 48 30.5884 48 30.1149C48 29.6413 47.6164 29.2577 47.1429 29.2577H41.1427V24.9721H47.1429C47.6164 24.9721 48 24.5886 48 24.115C48 23.6414 47.6164 23.2579 47.1429 23.2579H41.1427V18.9722H47.1429C47.6164 18.9722 48 18.5887 48 18.1151C48 17.6416 47.6164 17.258 47.1429 17.258H41.1427V7.82937C41.1427 7.35581 40.7592 6.97225 40.2856 6.97225H30.857V0.972113C30.857 0.498554 30.4734 0.11499 29.9999 0.11499C29.5263 0.11499 29.1427 0.498554 29.1427 0.972113V6.97225ZM8.57178 18.1146V8.68595H39.4282V39.5424H8.57178V18.1146ZM15.4288 18.1146V30.1143C15.4288 30.5879 15.8123 30.9714 16.2859 30.9714C16.7595 30.9714 17.143 30.5879 17.143 30.1143V18.1146C17.143 17.641 16.7595 17.2575 16.2859 17.2575C15.8123 17.2575 15.4288 17.641 15.4288 18.1146ZM24 22.4002C21.6343 22.4002 19.7144 24.3202 19.7144 26.6858C19.7144 29.0515 21.6343 30.9714 24 30.9714C26.3657 30.9714 28.2856 29.0515 28.2856 26.6858C28.2856 24.3202 26.3657 22.4002 24 22.4002ZM30.857 18.9717V30.114C30.857 30.5876 31.2405 30.9712 31.7141 30.9712C32.1877 30.9712 32.5712 30.5876 32.5712 30.114V18.9717H36.8568C37.3304 18.9717 37.714 18.5881 37.714 18.1146C37.714 17.641 37.3304 17.2575 36.8568 17.2575H26.5714C26.0978 17.2575 25.7142 17.641 25.7142 18.1146C25.7142 18.5881 26.0978 18.9717 26.5714 18.9717H30.857ZM24 24.1144C25.4185 24.1144 26.5714 25.2673 26.5714 26.6858C26.5714 28.1043 25.4185 29.2572 24 29.2572C22.5815 29.2572 21.4286 28.1043 21.4286 26.6858C21.4286 25.2673 22.5815 24.1144 24 24.1144Z" fill="#8C71FF"/>
</g>
<defs>
<clipPath id="clip0_1320_4183">
<rect width="48" height="48" fill="white" transform="translate(0 0.11499)"/>
</clipPath>
</defs>
</svg>
