<svg width="48" height="49" viewBox="0 0 48 49" fill="none" xmlns="http://www.w3.org/2000/svg">
<g clip-path="url(#clip0_1320_4191)">
<path d="M24.0001 12.6224C19.0542 12.6224 14.0489 13.8275 14.0489 16.1346V33.6956C14.0489 36.0027 19.0542 37.2078 24.0001 37.2078C28.9459 37.2078 33.9513 36.0027 33.9513 33.6956V16.1346C33.9513 13.8275 28.9459 12.6224 24.0001 12.6224ZM32.7805 27.8419C32.7805 28.7954 29.3621 30.1834 24.0001 30.1834C18.638 30.1834 15.2196 28.7954 15.2196 27.8419V23.7261C16.9871 24.8968 20.5061 25.5005 24.0001 25.5005C27.494 25.5005 31.0127 24.8922 32.7805 23.7261V27.8419ZM32.7805 21.9883C32.7805 22.9418 29.3621 24.3297 24.0001 24.3297C18.638 24.3297 15.2196 22.9418 15.2196 21.9883V17.8725C16.9871 19.0432 20.5061 19.6468 24.0001 19.6468C27.494 19.6468 31.0127 19.0386 32.7805 17.8725V21.9883ZM24.0001 13.7932C29.3621 13.7932 32.7805 15.1811 32.7805 16.1346C32.7805 17.0881 29.3621 18.4761 24.0001 18.4761C18.638 18.4761 15.2196 17.0881 15.2196 16.1346C15.2196 15.1811 18.638 13.7932 24.0001 13.7932ZM24.0001 36.037C18.638 36.037 15.2196 34.6491 15.2196 33.6956V29.5798C16.9871 30.7505 20.5061 31.3541 24.0001 31.3541C27.494 31.3541 31.0127 30.7459 32.7805 29.5798V33.6956C32.7805 34.6491 29.3621 36.037 24.0001 36.037ZM23.4147 7.88685V9.69551C23.4147 10.0179 23.6777 10.2809 24.0001 10.2809C24.3225 10.2809 24.5854 10.0179 24.5854 9.69551V7.88685C26.2409 7.6056 27.5122 6.16506 27.5122 4.42723C27.5122 2.49049 25.9368 0.915039 24.0001 0.915039C22.0633 0.915039 20.4879 2.49049 20.4879 4.42723C20.4879 6.16506 21.7592 7.60558 23.4147 7.88685ZM24.0001 2.08577C25.2942 2.08577 26.3415 3.13304 26.3415 4.42723C26.3415 5.72141 25.2942 6.76868 24.0001 6.76868C22.7059 6.76868 21.6586 5.72141 21.6586 4.42723C21.6586 3.13304 22.7059 2.08577 24.0001 2.08577ZM24.5854 41.9432V40.1346C24.5854 39.8122 24.3225 39.5492 24.0001 39.5492C23.6777 39.5492 23.4147 39.8122 23.4147 40.1346V41.9432C21.7592 42.2245 20.4879 43.665 20.4879 45.4029C20.4879 47.3396 22.0633 48.915 24.0001 48.915C25.9368 48.915 27.5122 47.3396 27.5122 45.4029C27.5122 43.665 26.2409 42.2245 24.5854 41.9432ZM24.0001 47.7443C22.7059 47.7443 21.6586 46.697 21.6586 45.4029C21.6586 44.1087 22.7059 43.0614 24.0001 43.0614C25.2942 43.0614 26.3415 44.1087 26.3415 45.4029C26.3415 46.697 25.2942 47.7443 24.0001 47.7443ZM44.4878 21.4029C42.75 21.4029 41.3095 22.6743 41.0282 24.3297H38.0488C37.7264 24.3297 37.4634 24.5927 37.4634 24.9151C37.4634 25.2375 37.7264 25.5005 38.0488 25.5005H41.0282C41.3094 27.1559 42.75 28.4273 44.4878 28.4273C46.4246 28.4273 48 26.8518 48 24.9151C48 22.9784 46.4246 21.4029 44.4878 21.4029ZM44.4878 27.2566C43.1936 27.2566 42.1464 26.2093 42.1464 24.9151C42.1464 23.6209 43.1936 22.5736 44.4878 22.5736C45.782 22.5736 46.8293 23.6209 46.8293 24.9151C46.8293 26.2093 45.782 27.2566 44.4878 27.2566ZM6.97181 25.5005H9.9512C10.2736 25.5005 10.5366 25.2375 10.5366 24.9151C10.5366 24.5927 10.2736 24.3297 9.9512 24.3297H6.97181C6.69056 22.6743 5.25002 21.4029 3.51219 21.4029C1.57545 21.4029 0 22.9784 0 24.9151C0 26.8518 1.57545 28.4273 3.51219 28.4273C5.25002 28.4273 6.69054 27.1559 6.97181 25.5005ZM1.17073 24.9151C1.17073 23.6209 2.218 22.5736 3.51219 22.5736C4.80637 22.5736 5.85364 23.6209 5.85364 24.9151C5.85364 26.2093 4.80637 27.2566 3.51219 27.2566C2.218 27.2566 1.17073 26.2093 1.17073 24.9151ZM36.878 12.6224C37.0312 12.6224 37.1775 12.563 37.2941 12.4532L39.4024 10.345C39.9946 10.7657 40.6966 10.9944 41.4329 10.9944C42.3704 10.9944 43.253 10.6308 43.9138 9.96316C44.5746 9.30234 44.9451 8.41745 44.9451 7.48221C44.9451 6.54469 44.5815 5.66208 43.9138 5.00126C43.253 4.34044 42.3681 3.97002 41.4329 3.97002C40.4954 3.97002 39.6127 4.33359 38.9519 5.00126C38.2911 5.66208 37.9207 6.54697 37.9207 7.48221C37.9207 8.22076 38.1493 8.92273 38.5701 9.51272L36.4618 11.621C36.2332 11.8496 36.2332 12.2177 36.4618 12.4465C36.5785 12.5631 36.7248 12.6224 36.878 12.6224ZM39.775 5.82695C40.2209 5.38107 40.8063 5.14096 41.4305 5.14096C42.057 5.14096 42.6424 5.38791 43.086 5.82695C43.5319 6.26597 43.772 6.85819 43.772 7.48242C43.772 8.10893 43.525 8.6943 43.086 9.13789C42.2011 10.0228 40.6577 10.0228 39.7727 9.13789C39.3268 8.692 39.0867 8.10665 39.0867 7.48242C39.0913 6.8559 39.3314 6.27054 39.775 5.82695ZM10.7058 37.3769L8.5976 39.4852C8.00539 39.0644 7.30342 38.8358 6.56709 38.8358C5.62957 38.8358 4.74695 39.1993 4.08614 39.867C3.42532 40.5278 3.0549 41.4127 3.0549 42.348C3.0549 43.2855 3.41846 44.1681 4.08614 44.8289C4.74695 45.4897 5.63185 45.8601 6.56709 45.8601C7.50461 45.8601 8.38722 45.4966 9.04804 44.8289C9.70885 44.1681 10.0793 43.2832 10.0793 42.348C10.0793 41.6094 9.85062 40.9074 9.42987 40.3174L11.5381 38.2092C11.7668 37.9805 11.7668 37.6124 11.5381 37.3837C11.3095 37.1551 10.9345 37.1483 10.7058 37.3769ZM8.2249 44.0033C7.77901 44.4491 7.19366 44.6892 6.56943 44.6892C5.94291 44.6892 5.35755 44.4423 4.91396 44.0033C4.46808 43.5642 4.22797 42.972 4.22797 42.3478C4.22797 41.7213 4.47492 41.1359 4.91396 40.6923C5.35298 40.2464 5.9452 40.0063 6.56943 40.0063C7.19594 40.0063 7.78131 40.2533 8.2249 40.6923C8.67078 41.1313 8.91089 41.7235 8.91089 42.3478C8.9086 42.9743 8.66851 43.5597 8.2249 44.0033ZM39.4002 39.4896L37.2874 37.3767C37.0588 37.1481 36.6906 37.1481 36.4619 37.3767C36.2333 37.6054 36.2333 37.9735 36.4619 38.2022L38.5702 40.3105C38.1495 40.9027 37.9208 41.6047 37.9208 42.341C37.9208 43.2785 38.2844 44.1611 38.952 44.8219C39.638 45.5079 40.5389 45.8463 41.433 45.8463C42.3339 45.8463 43.2302 45.5079 43.9139 44.8219C45.2836 43.4523 45.2836 41.2229 43.9139 39.8532C42.686 38.6367 40.7699 38.5178 39.4002 39.4896ZM43.0885 44.0033C42.1762 44.9156 40.6876 44.9156 39.7752 44.0033C38.8629 43.0909 38.8629 41.6023 39.7752 40.69C40.2325 40.2327 40.8293 40.004 41.4307 40.004C42.0275 40.004 42.6312 40.2326 43.0862 40.69C44.0031 41.6046 44.0031 43.0909 43.0885 44.0033ZM9.42536 9.51475C10.3972 8.14511 10.2805 6.2312 9.05037 5.00106C7.68073 3.63142 5.45131 3.63142 4.08162 5.00106C2.71198 6.37069 2.71198 8.60011 4.08162 9.96524C4.74244 10.6261 5.62733 10.9965 6.56257 10.9965C7.30112 10.9965 8.00309 10.7678 8.59308 10.3471L10.7013 12.4553C10.8225 12.5628 10.9689 12.6222 11.1221 12.6222C11.2753 12.6222 11.4216 12.5628 11.5382 12.453C11.7669 12.2244 11.7669 11.8563 11.5382 11.6276L9.42536 9.51475ZM4.91168 9.13975C3.99933 8.2274 3.99933 6.73882 4.91168 5.82647C5.36899 5.36915 5.9658 5.14048 6.56715 5.14048C7.17077 5.14048 7.76761 5.36914 8.22262 5.82647C9.13496 6.73882 9.13496 8.2274 8.22262 9.13975C7.31027 10.0521 5.82397 10.0521 4.91168 9.13975Z" fill="#8C71FF"/>
</g>
<defs>
<clipPath id="clip0_1320_4191">
<rect width="48" height="48" fill="white" transform="translate(0 0.915039)"/>
</clipPath>
</defs>
</svg>
