<svg width="48" height="49" viewBox="0 0 48 49" fill="none" xmlns="http://www.w3.org/2000/svg">
<g clip-path="url(#clip0_1320_4175)">
<path d="M44.8038 20.0765C46.5666 20.0746 47.9961 18.6451 47.998 16.8804V12.9425C47.9884 12.5746 47.6859 12.2817 47.318 12.2817C46.95 12.2817 46.6475 12.5746 46.6379 12.9425V16.8804C46.636 17.8938 45.8152 18.7145 44.8038 18.7164H36.9127V14.4337C36.9127 12.4359 35.2924 10.8176 33.2947 10.8176H30.8287V4.35773C30.8441 3.56206 31.503 2.92825 32.2986 2.94172H33.1405C33.5162 2.94172 33.8206 2.63732 33.8206 2.26165C33.8206 1.88597 33.5162 1.58158 33.1405 1.58158H32.2986C30.7516 1.5681 29.4859 2.81072 29.4685 4.35773V10.8196H24.6734V1.20424C24.6637 0.836272 24.3613 0.543457 23.9933 0.543457C23.6253 0.543457 23.3228 0.836292 23.3132 1.20424V10.8196H18.9766V4.35773C18.9612 2.81072 17.6935 1.56812 16.1465 1.58158H14.4646C14.0889 1.58158 13.7845 1.88598 13.7845 2.26165C13.7845 2.63733 14.0889 2.94172 14.4646 2.94172H16.1484H16.1465C16.9441 2.92823 17.601 3.56206 17.6164 4.35773V10.8196H13.5553C11.5574 10.8196 9.93916 12.4378 9.93916 14.4357V18.7165H3.19423C2.18278 18.7145 1.36211 17.8938 1.36013 16.8824V12.9426C1.3505 12.5746 1.04803 12.2818 0.680067 12.2818C0.312099 12.2818 0.0096173 12.5746 0 12.9426V16.8804C0.00192642 18.6451 1.4314 20.0747 3.19423 20.0766H9.94113V26.3244L4.04203 26.3225C3.66635 26.3225 3.36196 26.6269 3.36196 27.0025C3.36196 27.3782 3.66636 27.6826 4.04203 27.6826H9.94113V32.5779L3.19423 32.5799C1.43145 32.5818 0.00192346 34.0093 0 35.7741V39.712C0.00963259 40.0799 0.312099 40.3727 0.680067 40.3727C1.04803 40.3727 1.35052 40.0799 1.36013 39.712V35.7702C1.36206 34.7588 2.18278 33.9381 3.19423 33.9362H9.94113V34.177C9.94113 36.1748 11.5594 37.7931 13.5572 37.7931H16.5434V44.2529C16.528 45.0486 15.871 45.6824 15.0734 45.669H13.3877C13.012 45.669 12.7076 45.9734 12.7076 46.349C12.7076 46.7247 13.012 47.0291 13.3877 47.0291H15.0715C16.6185 47.0407 17.8842 45.7999 17.9016 44.2529V37.7911H22.2383V47.4064C22.2383 47.7821 22.5427 48.0865 22.9183 48.0865C23.294 48.0865 23.5984 47.7821 23.5984 47.4064V37.7911H28.3936V44.2529C28.409 45.7999 29.6767 47.0426 31.2237 47.0291H32.0656C32.4412 47.0291 32.7456 46.7247 32.7456 46.349C32.7456 45.9733 32.4412 45.669 32.0656 45.669H31.2237C30.4261 45.6824 29.7691 45.0486 29.7537 44.2529V37.7911H33.2985C35.2964 37.7911 36.9147 36.1728 36.9147 34.175V33.9342H44.8058C45.8191 33.9361 46.6399 34.7568 46.6399 35.7683V39.7061C46.6514 40.0741 46.952 40.3689 47.3199 40.3689C47.6879 40.3689 47.9904 40.0741 48 39.7061V35.7702C47.9981 34.0074 46.5686 32.5779 44.8058 32.576H36.9147V27.6806H43.956C44.3317 27.6806 44.6361 27.3762 44.6361 27.0006C44.6361 26.6249 44.3317 26.3205 43.956 26.3205H36.9127V20.0727L44.8038 20.0765ZM35.5525 34.177C35.5505 35.4215 34.5429 36.4291 33.2984 36.431H13.5553C12.3108 36.4291 11.3013 35.4215 11.3013 34.177V14.4339C11.3013 13.1894 12.3108 12.1818 13.5553 12.1798H33.2984C34.5429 12.1818 35.5505 13.1894 35.5525 14.4339V34.177ZM29.0985 16.2661H17.7511C16.4449 16.268 15.3872 17.3257 15.3853 18.6319V29.9754C15.3853 31.2835 16.4448 32.3431 17.7511 32.3451H29.0946C30.4027 32.3431 31.4604 31.2855 31.4623 29.9793V18.6358C31.4623 17.3296 30.4047 16.27 29.0985 16.2661ZM30.1061 29.9794C30.1061 30.5342 29.6553 30.9851 29.0985 30.9851H17.7511C17.1962 30.9851 16.7454 30.5343 16.7454 29.9794V18.6359C16.7454 18.3681 16.8514 18.1119 17.0402 17.9231C17.229 17.7324 17.4852 17.6264 17.7511 17.6264H29.0945C29.6513 17.6264 30.1021 18.0772 30.1021 18.6321L30.1061 29.9794Z" fill="#8C71FF"/>
</g>
<defs>
<clipPath id="clip0_1320_4175">
<rect width="48" height="47.543" fill="white" transform="translate(0 0.543457)"/>
</clipPath>
</defs>
</svg>
