<svg width="48" height="49" viewBox="0 0 48 49" fill="none" xmlns="http://www.w3.org/2000/svg">
<g clip-path="url(#clip0_1320_4165)">
<path d="M40.1331 27.0862C42.2099 27.0862 44.1664 26.273 45.6583 24.7914C47.1664 23.2893 48 21.2961 48 19.1764C48 16.9591 47.1074 14.9088 45.4912 13.3966C44.0096 12.0149 42.1162 11.2689 40.1069 11.2689H40.0905C39.8093 9.65072 39.0002 8.1691 37.7733 7.0543C36.4017 5.80297 34.6225 5.11407 32.7638 5.11407C31.2719 5.11407 29.8107 5.56855 28.5838 6.39801C27.8481 4.84297 26.7211 3.50806 25.2924 2.50538C23.6192 1.33351 21.6463 0.711914 19.5919 0.711914C17.3949 0.711914 15.308 1.41709 13.5653 2.74585C12.0001 3.93604 10.8099 5.5889 10.174 7.44148C7.59591 7.35181 5.06669 8.28727 3.1671 10.0339C1.15351 11.8885 0 14.5217 0 17.261C0 19.8962 1.0333 22.3683 2.90623 24.2371C4.61815 25.9389 6.83553 26.9232 9.19785 27.0659L5.16457 31.2602C5.06063 31.3703 5.00356 31.515 5.00356 31.6678V35.7378C3.52804 36.015 2.40505 37.3091 2.40505 38.8621C2.40505 40.6148 3.83373 42.0455 5.58848 42.0455C7.3412 42.0455 8.77191 40.6169 8.77191 38.8621C8.77191 37.3071 7.65101 36.0129 6.1734 35.7378V31.9022L10.7957 27.0924H16.8791V32.7746L13.6122 37.4907C13.5449 37.5905 13.5082 37.7047 13.5082 37.8249V42.4105C12.0327 42.6877 10.9097 43.9818 10.9097 45.5348C10.9097 47.2875 12.3384 48.7182 14.0931 48.7182C15.8459 48.7182 17.2766 47.2896 17.2766 45.5348C17.2766 43.9798 16.1557 42.6857 14.6781 42.4105V38.0063L17.945 33.2903C18.0123 33.1904 18.049 33.0763 18.049 32.956L18.0469 27.0865H23.4151V38.4974C21.9395 38.7746 20.8166 40.0687 20.8166 41.6217C20.8166 43.3744 22.2452 44.8051 24 44.8051C25.7527 44.8051 27.1834 43.3765 27.1834 41.6217C27.1834 40.0667 26.0625 38.7726 24.5849 38.4974V27.0865H29.9531V32.9498C29.9531 33.07 29.9897 33.1842 30.057 33.284L33.324 38.0001V42.4042C31.8484 42.6814 30.7254 43.9756 30.7254 45.5286C30.7254 47.2813 32.1541 48.712 33.9089 48.712C35.6616 48.712 37.0923 47.2833 37.0923 45.5286C37.0923 43.9735 35.9714 42.6794 34.4938 42.4042V37.8186C34.4938 37.6984 34.4571 37.5843 34.3899 37.4844L31.1229 32.7684L31.1209 27.0861H37.2043L41.8266 31.8959V35.7315C40.3511 36.0087 39.2281 37.3028 39.2281 38.8558C39.2281 40.6086 40.6567 42.0393 42.4115 42.0393C44.1642 42.0393 45.5949 40.6106 45.5949 38.8558C45.5949 37.3008 44.474 36.0067 42.9964 35.7315V31.6616C42.9964 31.5108 42.9393 31.364 42.8354 31.254L38.8286 27.0862H40.08L40.1331 27.0862ZM7.59604 38.856C7.59604 39.9667 6.69318 40.8696 5.58245 40.8696C4.47173 40.8696 3.56886 39.9667 3.56886 38.856C3.56886 37.7453 4.47173 36.8424 5.58245 36.8424C6.69318 36.8424 7.59604 37.7453 7.59604 38.856ZM16.1009 45.5285C16.1009 46.6392 15.198 47.5421 14.0873 47.5421C12.9766 47.5421 12.0737 46.6392 12.0737 45.5285C12.0737 44.4178 12.9766 43.5149 14.0873 43.5149C15.198 43.5149 16.1009 44.4178 16.1009 45.5285ZM26.0139 41.6277C26.0139 42.7384 25.111 43.6413 24.0003 43.6413C22.8895 43.6413 21.9867 42.7384 21.9867 41.6277C21.9867 40.517 22.8895 39.6141 24.0003 39.6141C25.111 39.6121 26.0139 40.5149 26.0139 41.6277ZM35.9269 45.5285C35.9269 46.6392 35.024 47.5421 33.9133 47.5421C32.8025 47.5421 31.8997 46.6392 31.8997 45.5285C31.8997 44.4178 32.8025 43.5149 33.9133 43.5149C35.024 43.5149 35.9269 44.4178 35.9269 45.5285ZM44.4317 38.856C44.4317 39.9667 43.5288 40.8696 42.4181 40.8696C41.3074 40.8696 40.4045 39.9667 40.4045 38.856C40.4045 37.7453 41.3074 36.8424 42.4181 36.8424C43.5288 36.8424 44.4317 37.7453 44.4317 38.856ZM1.16825 17.2608C1.16825 14.8132 2.15871 12.555 3.96037 10.8962C5.75995 9.2372 8.10369 8.43419 10.5452 8.63803C10.8224 8.65841 11.0771 8.48722 11.1566 8.21616C12.2368 4.49065 15.7055 1.88802 19.5942 1.88802C23.2096 1.88802 26.5072 4.15841 27.8011 7.53321C27.8683 7.71051 28.0212 7.84095 28.2026 7.89394C28.386 7.94082 28.5837 7.89394 28.7243 7.7737C29.8514 6.81991 31.2861 6.29207 32.7678 6.29207C36.0082 6.29207 38.6842 8.71731 39.002 11.9373C39.0326 12.2511 39.3097 12.4855 39.6236 12.4651C41.5128 12.3347 43.3124 12.9766 44.6901 14.2647C46.0678 15.5527 46.8301 17.3013 46.8301 19.1906C46.8301 20.9963 46.1208 22.696 44.8328 23.9759C43.555 25.2436 41.8736 25.9426 40.0903 25.9263H9.82961H9.78274C7.50828 25.9263 5.35815 25.0337 3.72955 23.4114C2.08076 21.7585 1.16772 19.5778 1.16772 17.2606L1.16825 17.2608Z" fill="#8C71FF"/>
</g>
<defs>
<clipPath id="clip0_1320_4165">
<rect width="48" height="48.0063" fill="white" transform="translate(0 0.711914)"/>
</clipPath>
</defs>
</svg>
