<svg xmlns="http://www.w3.org/2000/svg" version="1.1" viewBox="0 0 2048 318" width="1080" height="168">
<path transform="translate(0)" d="m0 0h2048v318h-2048z" fill="#1e1441"/>
<path transform="translate(824,114)" d="m0 0h20l21 2 19 4 3 2v12l-8-1-28-3h-27l-16 3-14 7-5 5-4 7-1 4v15l3 8 5 6 8 5 12 4 12 2h29l17-2 12-19 30-48 7-10h40l6 8 16 26 12 19 16 26 4 6 1-84 1-1h65l20 1 19 3 16 6 8 6 4 7v10l-4 6-7 6-11 5-13 3-9 1 5 4 16 10 18 13 10 7 1-87 1-1h39l8 7 8 8 8 7 15 15 8 7 15 15 8 7 1 1v-66l1-1h128l10 8 11 10 8 7 14 12 3 3 4-2 14-12 13-12 11-9 6-5h37v3l-11 9-13 11-10 8-13 11-10 8-7 6h-2v38l-1 1h-35l-1-1-1-37-11-10-11-9-13-11-13-10h-70l-1 20h70v16h-69v25h83l1 1v15l-1 1h-117l-10-1-7-7-8-7-11-11-8-7-12-12-8-7-11-11-7-6-1 68-1 1h-22l-47-1-15-12-19-14-11-7v-19l17-1 13-3 7-4 2-4-1-6-4-4-8-3-6-1-40-2v80l-1 1h-30l-41-1-10-19-1-2-59-1-2 5-9 16-7 2h-53l-24-1-24-4-15-5-13-7-9-7-7-10-2-5-1-12 3-11 5-8 9-9 14-8 18-6 14-3z" fill="#ffffff"/>
<path transform="translate(575,79)" d="m0 0 2 1-1 4-30 11-25 12-18 11-14 11-10 9-8 10-7 11-4 12v15l4 10 6 8 10 7 13 6 19 5 14 2h36l29-4 12-2 1 4-12 5-32 8-22 3-25 1-17-1-17-3-16-5-16-8-11-10-6-9-3-9-1-11 2-12 6-14 8-11 11-12 10-9 16-11 16-9 19-9 19-7 26-7z" fill="#ffffff"/>
<path transform="translate(623,104)" d="m0 0h17l22 3 15 5 12 7 7 8 4 8 1 4v8l-4 12-7 12-15 15-14 10-16 9-15 7-14 5h-3v-4l17-10 14-10 12-11 7-8 7-12 3-11-1-11-6-10-9-6-12-5-15-3-10-1h-13l-21 2-24 5h-5l1-4 10-4 24-6 19-3z" fill="#ffffff"/>
<path transform="translate(546,123)" d="m0 0 3 3-16 14-6 8-3 10 1 8 4 6 5 4 7 3 10 2h14l20-4 15-6 11-6 10-8 8-9 4 1-2 6-7 9-7 7-14 9-15 7-20 6-13 2h-22l-16-4-8-4-5-4-4-6-1-3v-12l5-10 9-10 12-9 16-8z" fill="#ffffff"/>
<path transform="translate(938,136)" d="m0 0 3 4 15 28 2 4h-40l6-12 13-23z" fill="#1e1441"/>
</svg>