<svg width="48" height="49" viewBox="0 0 48 49" fill="none" xmlns="http://www.w3.org/2000/svg">
<path d="M20.098 30.5726C22.281 29.5794 24.0583 27.8688 25.1341 25.7253C26.21 23.5818 26.5196 21.1346 26.0115 18.7906C25.5034 16.4467 24.2081 14.3474 22.3412 12.8418C20.4743 11.3363 18.1482 10.5152 15.7498 10.5152C13.3515 10.5152 11.0254 11.3363 9.15848 12.8418C7.29156 14.3474 5.99633 16.4467 5.4882 18.7906C4.98008 21.1346 5.28969 23.5818 6.36555 25.7253C7.44141 27.8688 9.21867 29.5794 11.4017 30.5726C7.24097 31.6511 3.63404 34.2467 1.28985 37.8495C1.23436 37.9319 1.19582 38.0246 1.17647 38.1221C1.15711 38.2196 1.15733 38.32 1.1771 38.4174C1.19688 38.5148 1.23582 38.6073 1.29166 38.6895C1.3475 38.7717 1.41913 38.842 1.50238 38.8963C1.58563 38.9506 1.67885 38.9879 1.7766 39.0058C1.87436 39.0238 1.97472 39.0221 2.07183 39.001C2.16894 38.9798 2.26088 38.9395 2.3423 38.8825C2.42372 38.8255 2.49299 38.7529 2.5461 38.6689C3.97623 36.4696 5.93305 34.6624 8.23888 33.4114C10.5447 32.1604 13.1265 31.5051 15.7498 31.5051C18.3732 31.5051 20.955 32.1604 23.2608 33.4114C25.5666 34.6624 27.5235 36.4696 28.9536 38.6689C29.0067 38.7529 29.076 38.8255 29.1574 38.8825C29.2388 38.9395 29.3307 38.9798 29.4279 39.001C29.525 39.0221 29.6253 39.0238 29.7231 39.0058C29.8208 38.9879 29.9141 38.9506 29.9973 38.8963C30.0806 38.842 30.1522 38.7717 30.208 38.6895C30.2639 38.6073 30.3028 38.5148 30.3226 38.4174C30.3424 38.32 30.3426 38.2196 30.3232 38.1221C30.3039 38.0246 30.2653 37.9319 30.2098 37.8495C27.8657 34.2467 24.2587 31.6511 20.098 30.5726ZM6.74985 21.0101C6.74985 19.2301 7.27769 17.49 8.26662 16.01C9.25555 14.5299 10.6612 13.3764 12.3057 12.6952C13.9502 12.014 15.7598 11.8358 17.5057 12.183C19.2515 12.5303 20.8551 13.3875 22.1138 14.6461C23.3725 15.9048 24.2296 17.5085 24.5769 19.2543C24.9242 21.0001 24.746 22.8097 24.0648 24.4543C23.3836 26.0988 22.23 27.5044 20.75 28.4933C19.2699 29.4823 17.5299 30.0101 15.7498 30.0101C13.3637 30.0076 11.0759 29.0586 9.38863 27.3713C7.70134 25.684 6.75233 23.3963 6.74985 21.0101ZM46.4998 38.8882C46.3332 38.9965 46.1304 39.0342 45.936 38.993C45.7416 38.9519 45.5715 38.8353 45.463 38.6689C44.0338 36.4669 42.0757 34.6581 39.7676 33.4076C37.4595 32.1571 34.8749 31.5048 32.2498 31.5101C32.0509 31.5101 31.8602 31.4311 31.7195 31.2904C31.5789 31.1498 31.4998 30.959 31.4998 30.7601C31.4998 30.5612 31.5789 30.3704 31.7195 30.2298C31.8602 30.0891 32.0509 30.0101 32.2498 30.0101C33.5755 30.0094 34.8846 29.7158 36.0837 29.1504C37.2827 28.585 38.342 27.7616 39.1859 26.7393C40.0298 25.7169 40.6374 24.5207 40.9653 23.2363C41.2932 21.9518 41.3333 20.6108 41.0827 19.309C40.8322 18.0072 40.2971 16.7769 39.5158 15.7059C38.7345 14.635 37.7263 13.7498 36.5632 13.1137C35.4001 12.4777 34.1109 12.1064 32.7876 12.0265C31.4644 11.9466 30.1398 12.1599 28.9086 12.6514C28.8171 12.6883 28.7193 12.7068 28.6206 12.706C28.522 12.7051 28.4245 12.6848 28.3337 12.6462C28.2429 12.6076 28.1606 12.5516 28.0914 12.4812C28.0223 12.4108 27.9677 12.3275 27.9308 12.236C27.8939 12.1446 27.8753 12.0467 27.8762 11.9481C27.8771 11.8494 27.8974 11.7519 27.9359 11.6611C27.9745 11.5703 28.0306 11.488 28.1009 11.4189C28.1713 11.3498 28.2546 11.2952 28.3461 11.2582C30.9071 10.1642 33.7978 10.1324 36.3823 11.1697C38.9668 12.207 41.0333 14.2285 42.1273 16.7895C43.2214 19.3505 43.2532 22.2412 42.2159 24.8257C41.1786 27.4102 39.1571 29.4767 36.5961 30.5707C40.7583 31.6515 44.3655 34.2507 46.708 37.857C46.8155 38.0218 46.854 38.2223 46.815 38.4152C46.7761 38.6081 46.6629 38.778 46.4998 38.8882Z" fill="white"/>
</svg>
