<svg width="42" height="41" viewBox="0 0 42 41" fill="none" xmlns="http://www.w3.org/2000/svg">
<path d="M17.8928 5.60662V1.64823C17.8928 1.1429 18.3139 0.679688 18.8613 0.679688H22.8197C23.3672 0.679688 23.7883 1.10079 23.7883 1.64823V5.64873C23.7883 6.19617 23.3672 6.61727 22.8197 6.61727H18.8613C18.3139 6.61727 17.8507 6.15406 17.8928 5.60662ZM31.4103 0.679688H27.4519C26.9044 0.679688 26.4833 1.10079 26.4833 1.64823V5.60662C26.4833 6.15406 26.9044 6.57516 27.4519 6.57516H31.4103C31.9577 6.57516 32.3788 6.15406 32.3788 5.60662V1.64823C32.4209 1.10079 31.9577 0.679688 31.4103 0.679688ZM40.0429 0.679688H36.0845C35.5371 0.679688 35.116 1.1429 35.116 1.64823V5.60662C35.116 6.15406 35.5371 6.57516 36.0845 6.57516H40.0429C40.5904 6.57516 41.0115 6.15406 41.0115 5.60662V1.64823C41.0115 1.10079 40.5904 0.679688 40.0429 0.679688ZM18.8613 15.2078H22.8197C23.3672 15.2078 23.7883 14.7867 23.7883 14.2393V10.2809C23.7883 9.73345 23.3672 9.31235 22.8197 9.31235H18.8613C18.3139 9.31235 17.8928 9.73345 17.8928 10.2809V14.2393C17.8507 14.7867 18.3139 15.2078 18.8613 15.2078ZM31.4103 9.27024H27.4519C26.9044 9.27024 26.4833 9.69134 26.4833 10.2388V14.1972C26.4833 14.7446 26.9044 15.1657 27.4519 15.1657H31.4103C31.9577 15.1657 32.3788 14.7446 32.3788 14.1972V10.2388C32.4209 9.73345 31.9577 9.27024 31.4103 9.27024ZM40.0429 9.27024H36.0845C35.5371 9.27024 35.116 9.69134 35.116 10.2388V14.1972C35.116 14.7446 35.5371 15.1657 36.0845 15.1657H40.0429C40.5904 15.1657 41.0115 14.7446 41.0115 14.1972V10.2388C41.0115 9.73345 40.5904 9.27024 40.0429 9.27024ZM18.8613 23.8405H22.8197C23.3672 23.8405 23.7883 23.3773 23.7883 22.8719V18.9136C23.7883 18.3661 23.3672 17.945 22.8197 17.945H18.8613C18.3139 17.945 17.8928 18.4082 17.8928 18.9136V22.8719C17.8507 23.3773 18.3139 23.8405 18.8613 23.8405ZM31.4103 17.9029H27.4519C26.9044 17.9029 26.4833 18.3661 26.4833 18.8714V22.8298C26.4833 23.3773 26.9044 23.7984 27.4519 23.7984H31.4103C31.9577 23.7984 32.3788 23.3352 32.3788 22.8298V18.8714C32.4209 18.324 31.9577 17.9029 31.4103 17.9029ZM40.0429 17.9029H36.0845C35.5371 17.9029 35.116 18.3661 35.116 18.8714V22.8298C35.116 23.3773 35.5371 23.7984 36.0845 23.7984H40.0429C40.5904 23.7984 41.0115 23.3352 41.0115 22.8298V18.8714C41.0115 18.324 40.5904 17.9029 40.0429 17.9029ZM29.6837 33.2732L25.22 29.736C24.2936 29.0201 22.9882 29.1464 22.2302 30.0307C21.4301 30.9572 20.8826 31.5467 20.7142 31.7152C19.3667 33.0627 16.84 30.7887 13.8502 27.7989C10.8603 24.809 8.58636 22.3245 9.9339 20.9349C10.1023 20.7664 10.6919 20.219 11.6183 19.4189C12.5026 18.6609 12.629 17.3134 11.9131 16.429L8.37581 11.9653C7.74415 11.2073 6.69139 10.9125 5.80707 11.3337C4.58586 11.839 2.81722 13.2707 2.22767 13.8603C-0.930618 17.1028 2.14345 25.4407 9.21802 32.4731C16.2926 39.5056 24.5884 42.6218 27.8309 39.4214C28.4204 38.8318 29.8101 37.0632 30.3575 35.842C30.7365 34.9156 30.4838 33.8628 29.6837 33.2732Z" fill="white"/>
</svg>
