<svg width="48" height="49" viewBox="0 0 48 49" fill="none" xmlns="http://www.w3.org/2000/svg">
<path d="M24.056 35.2198C24.4987 35.2198 24.872 35.0678 25.176 34.7638C25.48 34.4598 25.632 34.0864 25.632 33.6438C25.632 33.2011 25.4787 32.8278 25.172 32.5238C24.868 32.2198 24.4947 32.0678 24.052 32.0678C23.6093 32.0678 23.236 32.2204 22.932 32.5258C22.628 32.8311 22.4767 33.2044 22.478 33.6458C22.478 34.0884 22.63 34.4618 22.934 34.7658C23.2407 35.0698 23.6147 35.2218 24.056 35.2218M24.006 42.7598C21.518 42.7598 19.178 42.2878 16.986 41.3438C14.7953 40.3984 12.8893 39.1158 11.268 37.4958C9.64667 35.8758 8.36333 33.9718 7.418 31.7838C6.47267 29.5958 6 27.2564 6 24.7658C6 22.2751 6.47267 19.9351 7.418 17.7458C8.362 15.5551 9.64267 13.6491 11.26 12.0278C12.8773 10.4064 14.782 9.1231 16.974 8.17777C19.166 7.23243 21.506 6.75977 23.994 6.75977C26.482 6.75977 28.822 7.23243 31.014 8.17777C33.2047 9.12177 35.1107 10.4031 36.732 12.0218C38.3533 13.6404 39.6367 15.5451 40.582 17.7358C41.5273 19.9264 42 22.2658 42 24.7538C42 27.2418 41.528 29.5818 40.584 31.7738C39.64 33.9658 38.3573 35.8718 36.736 37.4918C35.1147 39.1118 33.2107 40.3951 31.024 41.3418C28.8373 42.2884 26.498 42.7611 24.006 42.7598ZM24 40.7598C28.4667 40.7598 32.25 39.2098 35.35 36.1098C38.45 33.0098 40 29.2264 40 24.7598C40 20.2931 38.45 16.5098 35.35 13.4098C32.25 10.3098 28.4667 8.75977 24 8.75977C19.5333 8.75977 15.75 10.3098 12.65 13.4098C9.55 16.5098 8 20.2931 8 24.7598C8 29.2264 9.55 33.0098 12.65 36.1098C15.75 39.2098 19.5333 40.7598 24 40.7598ZM24.124 16.2378C25.1373 16.2378 26.0093 16.5518 26.74 17.1798C27.4733 17.8078 27.84 18.5938 27.84 19.5378C27.84 20.2711 27.6333 20.9338 27.22 21.5258C26.8093 22.1178 26.3333 22.6638 25.792 23.1638C25.1067 23.7851 24.5033 24.4684 23.982 25.2138C23.4607 25.9604 23.1613 26.7824 23.084 27.6798C23.0587 27.9411 23.1407 28.1598 23.33 28.3358C23.5167 28.5104 23.7367 28.5978 23.99 28.5978C24.258 28.5978 24.484 28.5084 24.668 28.3298C24.8507 28.1498 24.9667 27.9378 25.016 27.6938C25.1493 27.0204 25.4173 26.4211 25.82 25.8958C26.2213 25.3718 26.6627 24.8758 27.144 24.4078C27.836 23.7198 28.45 22.9698 28.986 22.1578C29.5233 21.3471 29.792 20.4424 29.792 19.4438C29.792 17.9758 29.2347 16.7638 28.12 15.8078C27.0067 14.8531 25.7 14.3758 24.2 14.3758C23.088 14.3758 22.0527 14.6358 21.094 15.1558C20.1367 15.6758 19.3707 16.3958 18.796 17.3158C18.6653 17.5371 18.6233 17.7658 18.67 18.0018C18.7167 18.2378 18.8433 18.4171 19.05 18.5398C19.314 18.6784 19.5807 18.7104 19.85 18.6358C20.1193 18.5611 20.3567 18.4064 20.562 18.1718C21.006 17.6198 21.5287 17.1598 22.13 16.7918C22.73 16.4211 23.3947 16.2378 24.124 16.2378Z" fill="white"/>
</svg>
