<svg width="40" height="41" viewBox="0 0 40 41" fill="none" xmlns="http://www.w3.org/2000/svg">
<path d="M23.4358 38.5618V39.0728C23.4358 39.9586 22.7397 40.6797 21.8796 40.6797H18.8991C18.0589 40.6797 17.3668 39.9875 17.3428 39.1263C10.7257 38.1251 5.09683 33.329 2.89247 26.8107H3.94464C6.09299 32.7769 11.3018 37.1527 17.4068 38.1086C17.5949 37.4452 18.195 36.959 18.8991 36.959H21.8796C22.7357 36.959 23.4358 37.6801 23.4358 38.5618ZM13.7022 2.60799L13.7102 2.64096L14.4063 4.72583V4.74232C14.5584 5.18319 15.0104 5.42217 15.4425 5.29032C16.9107 4.82884 18.447 4.59398 19.9992 4.59398C21.5515 4.59398 23.0837 4.82884 24.556 5.29032C24.9801 5.42217 25.4241 5.19143 25.5802 4.76292C25.5842 4.7588 25.5842 4.75056 25.5882 4.74232V4.72583L26.2963 2.60799L26.3763 2.36902C26.4243 2.22893 26.4123 2.07647 26.3483 1.94462C26.2803 1.80865 26.1683 1.70565 26.0242 1.6562C24.0879 1.00931 22.0596 0.679688 19.9992 0.679688C17.9389 0.679688 15.9106 1.00931 13.9743 1.66032C13.8302 1.70977 13.7182 1.80865 13.6502 1.94462C13.5862 2.07647 13.5742 2.22893 13.6222 2.36902L13.7022 2.60799ZM38.5663 16.444C37.8942 13.329 36.4739 10.4036 34.4456 7.97264C32.4453 5.5705 29.9009 3.69576 27.0644 2.52559C27.0604 2.55031 27.0484 2.57503 27.0404 2.60387L26.8404 3.21368L26.3643 4.64755L26.2563 4.97305C26.2163 5.09666 26.1602 5.21203 26.0962 5.31916C30.793 7.29279 34.3096 11.409 35.6018 16.444H38.5663ZM39.4664 17.8037C39.3624 17.4246 39.0623 17.1692 38.7223 17.1692H35.4978C35.3497 17.1692 35.2297 17.2928 35.2297 17.4452V25.8012C35.2297 25.9537 35.3497 26.0773 35.4978 26.0773H38.7263C39.0663 26.0773 39.3664 25.826 39.4704 25.4469C40.1785 22.9335 40.1745 20.3624 39.4704 17.8037H39.4664ZM3.13651 25.966C3.32054 25.9001 3.51257 25.9537 3.64059 26.0855H4.50073C4.64876 26.0855 4.76877 25.9619 4.76877 25.8095V17.4494C4.76877 17.2969 4.64876 17.1733 4.50073 17.1733H1.27621C0.936152 17.1733 0.636103 17.4288 0.532086 17.8078C0.176029 19.0892 0 20.3707 0 21.6521C0 22.9335 0.176029 24.1984 0.532086 25.4592C0.636103 25.8342 0.936152 26.0897 1.27621 26.0897H2.95248C3.00049 26.032 3.0645 25.9908 3.13651 25.966ZM13.9063 5.31916C13.8382 5.21203 13.7862 5.09666 13.7462 4.97305L13.6382 4.64755L13.1581 3.2178L12.9541 2.60387C12.9461 2.57915 12.9381 2.55443 12.9301 2.52559C10.0976 3.69576 7.55323 5.5705 5.5569 7.97264C3.52857 10.4077 2.10834 13.329 1.43623 16.444H4.39671C5.69292 11.409 9.2095 7.29279 13.9063 5.31916ZM28.1006 28.8338C28.0005 28.9409 27.9725 29.1016 28.0326 29.2376L30.3809 34.5899L24.1159 31.6809C24.0719 31.6603 24.0199 31.648 23.9719 31.648C23.9319 31.648 23.8919 31.6521 23.8519 31.6686C22.6197 32.13 21.3235 32.3649 19.9992 32.3649C13.7622 32.3649 8.68941 27.1403 8.68941 20.7168C8.68941 14.2932 13.7622 9.06864 19.9992 9.06864C26.2363 9.06864 31.3091 14.2932 31.3091 20.7168C31.3091 23.7617 30.1689 26.6459 28.1006 28.8338ZM15.7946 20.3501C15.7946 19.4972 15.1225 18.8049 14.2943 18.8049C13.4662 18.8049 12.7941 19.4972 12.7941 20.3501C12.7941 21.203 13.4662 21.8952 14.2943 21.8952C15.1225 21.8952 15.7946 21.203 15.7946 20.3501ZM21.4995 20.3501C21.4995 19.4972 20.8274 18.8049 19.9992 18.8049C19.1711 18.8049 18.499 19.4972 18.499 20.3501C18.499 21.203 19.1711 21.8952 19.9992 21.8952C20.8274 21.8952 21.4995 21.203 21.4995 20.3501ZM27.2044 20.3501C27.2044 19.4972 26.5323 18.8049 25.7042 18.8049C24.876 18.8049 24.2039 19.4972 24.2039 20.3501C24.2039 21.203 24.876 21.8952 25.7042 21.8952C26.5323 21.8952 27.2044 21.203 27.2044 20.3501Z" fill="white"/>
</svg>
