<svg width="40" height="41" viewBox="0 0 40 41" fill="none" xmlns="http://www.w3.org/2000/svg">
<path d="M39.1659 16.8817L33.0188 11.7884V3.88496C32.9749 2.08474 31.5259 0.679688 29.7696 0.679688H14.1823C14.0067 0.679688 13.875 0.723595 13.7433 0.855319L7.15708 7.35367C7.02536 7.4854 6.98145 7.61712 6.98145 7.79275V11.7884L0.834361 16.8817C0.395283 17.2768 0.131836 17.8037 0.131836 18.4184V40.065C0.131836 40.4162 0.395283 40.6797 0.746545 40.6797H39.2537C39.6049 40.6797 39.8684 40.4162 39.8684 40.065V18.4184C39.8684 17.8476 39.6049 17.2768 39.1659 16.8817ZM9.26466 7.79275C9.26466 7.66103 9.39638 7.5293 9.5281 7.5293H12.6016C13.3481 7.5293 13.9628 6.91459 13.9628 6.16816V3.22634C13.9628 3.09462 14.0945 2.96289 14.2262 2.96289H29.7696C30.2965 2.96289 30.6917 3.35806 30.6917 3.88496V22.2823L20.4611 30.4053C20.1977 30.6248 19.8025 30.6248 19.5391 30.4053L9.26466 21.9311V7.79275ZM37.4096 37.65C37.4096 38.0013 37.1461 38.2648 36.7948 38.2648H3.16147C2.81021 38.2648 2.54676 38.0013 2.54676 37.65V20.7895C2.54676 20.2626 3.16147 19.9991 3.55664 20.3065L18.9683 33.0836C19.583 33.5666 20.4611 33.5666 21.0319 33.0836L36.3997 20.3504C36.7948 20.043 37.4096 20.3065 37.4096 20.8334V37.65ZM12.5577 10.3394C12.5577 9.90032 12.909 9.54906 13.3481 9.54906H26.5643C27.0034 9.54906 27.3547 9.90032 27.3547 10.3394C27.3547 10.7785 27.0034 11.1297 26.5643 11.1297H13.3481C12.9529 11.1297 12.6016 10.7785 12.5577 10.3394ZM12.5577 15.301C12.5577 14.8619 12.909 14.5106 13.3481 14.5106H26.6082C27.0034 14.5106 27.3547 14.818 27.3547 15.2571C27.3547 15.6962 27.0034 16.0474 26.5643 16.0474H13.3481C12.9529 16.0474 12.5577 15.7401 12.5577 15.301ZM26.5643 20.7016H13.3481C12.909 20.7016 12.5577 20.3504 12.5577 19.9113C12.5577 19.4722 12.909 19.121 13.3481 19.121H26.5643C27.0034 19.121 27.3547 19.4722 27.3547 19.9113C27.3547 20.3504 27.0034 20.7016 26.5643 20.7016Z" fill="white"/>
</svg>
