<svg width="42" height="43" viewBox="0 0 42 43" fill="none" xmlns="http://www.w3.org/2000/svg">
<path d="M7.539 10.5605L21 19.3105L34.461 10.5605H7.539ZM8.078 33.3105C7.29983 33.3105 6.63425 33.0335 6.08125 32.4793C5.52825 31.9251 5.25117 31.2607 5.25 30.486V11.6368C5.25 10.8598 5.52708 10.1948 6.08125 9.6418C6.63542 9.0888 7.30042 8.81171 8.07625 8.81055H33.9238C34.7008 8.81055 35.3658 9.08763 35.9188 9.6418C36.4718 10.196 36.7488 10.861 36.75 11.6368V21.3965C36.75 21.645 36.666 21.8533 36.498 22.0213C36.33 22.1893 36.1218 22.2727 35.8733 22.2715C35.6248 22.2704 35.4171 22.187 35.2503 22.0213C35.0834 21.8556 35 21.6474 35 21.3965V12.1093L21.784 20.7613C21.6743 20.8418 21.413 20.9176 21 20.9888C20.8542 20.9888 20.7177 20.973 20.5905 20.9415C20.4645 20.9089 20.3397 20.8488 20.216 20.7613L7 12.1075V30.4825C7 30.7975 7.10092 31.056 7.30275 31.2578C7.50458 31.4596 7.763 31.5605 8.078 31.5605H17.0625C17.311 31.5605 17.5187 31.6445 17.6855 31.8125C17.8523 31.9805 17.9363 32.1888 17.9375 32.4373C17.9387 32.6858 17.8547 32.8935 17.6855 33.0603C17.5163 33.2271 17.3087 33.3105 17.0625 33.3105H8.078ZM27.1058 34.805L36.4403 25.4688C36.6036 25.3055 36.8043 25.218 37.0423 25.2063C37.2803 25.1946 37.4926 25.2821 37.6793 25.4688C37.8659 25.6555 37.9593 25.862 37.9593 26.0883C37.9593 26.3146 37.8659 26.5211 37.6793 26.7078L28.0945 36.2925C27.8122 36.5749 27.4826 36.716 27.1058 36.716C26.7289 36.716 26.3988 36.5749 26.1153 36.2925L21.4988 31.6743C21.3354 31.511 21.2479 31.3103 21.2363 31.0723C21.2246 30.8343 21.3121 30.6225 21.4988 30.437C21.6854 30.2515 21.8919 30.1582 22.1183 30.157C22.3446 30.1559 22.5505 30.2492 22.736 30.437L27.1058 34.805Z" fill="#DB80EB"/>
</svg>
