<svg width="48" height="49" viewBox="0 0 48 49" fill="none" xmlns="http://www.w3.org/2000/svg">
<path d="M25.875 23.2598C25.875 23.6306 25.765 23.9931 25.559 24.3015C25.353 24.6098 25.0601 24.8501 24.7175 24.992C24.3749 25.134 23.9979 25.1711 23.6342 25.0987C23.2705 25.0264 22.9364 24.8478 22.6742 24.5856C22.412 24.3234 22.2334 23.9893 22.161 23.6256C22.0887 23.2618 22.1258 22.8848 22.2677 22.5422C22.4096 22.1996 22.65 21.9068 22.9583 21.7008C23.2666 21.4947 23.6292 21.3848 24 21.3848C24.4973 21.3848 24.9742 21.5823 25.3258 21.9339C25.6775 22.2856 25.875 22.7625 25.875 23.2598ZM15.75 21.3848C15.3792 21.3848 15.0166 21.4947 14.7083 21.7008C14.4 21.9068 14.1596 22.1996 14.0177 22.5422C13.8758 22.8848 13.8387 23.2618 13.911 23.6256C13.9834 23.9893 14.162 24.3234 14.4242 24.5856C14.6864 24.8478 15.0205 25.0264 15.3842 25.0987C15.7479 25.1711 16.1249 25.134 16.4675 24.992C16.8101 24.8501 17.103 24.6098 17.309 24.3015C17.515 23.9931 17.625 23.6306 17.625 23.2598C17.625 22.7625 17.4275 22.2856 17.0758 21.9339C16.7242 21.5823 16.2473 21.3848 15.75 21.3848ZM32.25 21.3848C31.8792 21.3848 31.5166 21.4947 31.2083 21.7008C30.9 21.9068 30.6596 22.1996 30.5177 22.5422C30.3758 22.8848 30.3387 23.2618 30.411 23.6256C30.4834 23.9893 30.6619 24.3234 30.9242 24.5856C31.1864 24.8478 31.5205 25.0264 31.8842 25.0987C32.2479 25.1711 32.6249 25.134 32.9675 24.992C33.3101 24.8501 33.603 24.6098 33.809 24.3015C34.015 23.9931 34.125 23.6306 34.125 23.2598C34.125 22.7625 33.9275 22.2856 33.5758 21.9339C33.2242 21.5823 32.7473 21.3848 32.25 21.3848ZM43.125 11.2598V35.2598C43.125 35.956 42.8484 36.6236 42.3562 37.1159C41.8639 37.6082 41.1962 37.8848 40.5 37.8848H28.9519L26.28 42.5723C26.0505 42.9745 25.7187 43.3088 25.3183 43.5414C24.9179 43.7739 24.4631 43.8964 24 43.8964C23.5369 43.8964 23.0821 43.7739 22.6817 43.5414C22.2813 43.3088 21.9495 42.9745 21.72 42.5723L19.0481 37.8848H7.5C6.80381 37.8848 6.13613 37.6082 5.64384 37.1159C5.15156 36.6236 4.875 35.956 4.875 35.2598V11.2598C4.875 10.5636 5.15156 9.89589 5.64384 9.40361C6.13613 8.91133 6.80381 8.63477 7.5 8.63477H40.5C41.1962 8.63477 41.8639 8.91133 42.3562 9.40361C42.8484 9.89589 43.125 10.5636 43.125 11.2598ZM40.875 11.2598C40.875 11.1603 40.8355 11.0649 40.7652 10.9946C40.6948 10.9243 40.5995 10.8848 40.5 10.8848H7.5C7.40054 10.8848 7.30516 10.9243 7.23483 10.9946C7.16451 11.0649 7.125 11.1603 7.125 11.2598V35.2598C7.125 35.3592 7.16451 35.4546 7.23483 35.5249C7.30516 35.5953 7.40054 35.6348 7.5 35.6348H19.7006C19.8985 35.6343 20.0931 35.6861 20.2646 35.7848C20.4361 35.8836 20.5785 36.0259 20.6775 36.1973L23.6775 41.4473C23.7102 41.505 23.7576 41.553 23.815 41.5864C23.8723 41.6198 23.9374 41.6374 24.0037 41.6374C24.0701 41.6374 24.1352 41.6198 24.1926 41.5864C24.2499 41.553 24.2973 41.505 24.33 41.4473L27.33 36.1973C27.429 36.0259 27.5714 35.8836 27.7429 35.7848C27.9144 35.6861 28.109 35.6343 28.3069 35.6348H40.5C40.5995 35.6348 40.6948 35.5953 40.7652 35.5249C40.8355 35.4546 40.875 35.3592 40.875 35.2598V11.2598Z" fill="white"/>
</svg>
