<svg width="48" height="49" viewBox="0 0 48 49" fill="none" xmlns="http://www.w3.org/2000/svg">
<path d="M8.61601 21.7598C8.15868 21.7598 7.77468 21.6051 7.46401 21.2958C7.15334 20.9864 6.99868 20.6024 7.00001 20.1438V9.37577C7.00001 8.91844 7.15468 8.53444 7.46401 8.22377C7.77334 7.91311 8.15734 7.75844 8.61601 7.75977H19.384C19.8427 7.75977 20.2267 7.91444 20.536 8.22377C20.8453 8.53311 21 8.91711 21 9.37577V20.1438C21 20.6024 20.8453 20.9864 20.536 21.2958C20.2267 21.6051 19.8427 21.7598 19.384 21.7598H8.61601ZM28.616 21.7598C28.1587 21.7598 27.7747 21.6051 27.464 21.2958C27.1533 20.9864 26.9987 20.6024 27 20.1438V9.37577C27 8.91844 27.1547 8.53444 27.464 8.22377C27.7733 7.91311 28.1573 7.75844 28.616 7.75977H39.384C39.8427 7.75977 40.2267 7.91444 40.536 8.22377C40.8453 8.53311 41 8.91711 41 9.37577V20.1438C41 20.6024 40.8453 20.9864 40.536 21.2958C40.2267 21.6051 39.8427 21.7598 39.384 21.7598H28.616ZM8.61601 41.7598C8.15868 41.7598 7.77468 41.6051 7.46401 41.2958C7.15334 40.9864 6.99868 40.6024 7.00001 40.1438V29.3758C7.00001 28.9171 7.15468 28.5331 7.46401 28.2238C7.77334 27.9144 8.15734 27.7598 8.61601 27.7598H19.384C19.8427 27.7598 20.2267 27.9144 20.536 28.2238C20.8453 28.5331 21 28.9171 21 29.3758V40.1438C21 40.6011 20.8453 40.9851 20.536 41.2958C20.2267 41.6064 19.8427 41.7611 19.384 41.7598H8.61601ZM34 41.7598C33.716 41.7598 33.478 41.6638 33.286 41.4718C33.094 41.2798 32.9987 41.0424 33 40.7598V35.7598H27.95C27.6913 35.7598 27.4687 35.6638 27.282 35.4718C27.0953 35.2798 27.0013 35.0418 27 34.7578C26.9987 34.4738 27.0947 34.2364 27.288 34.0458C27.4813 33.8551 27.7187 33.7598 28 33.7598H33V28.7098C33 28.4511 33.096 28.2284 33.288 28.0418C33.48 27.8551 33.718 27.7611 34.002 27.7598C34.286 27.7584 34.5233 27.8544 34.714 28.0478C34.9047 28.2411 35 28.4784 35 28.7598V33.7598H40.05C40.3087 33.7598 40.532 33.8558 40.72 34.0478C40.9067 34.2398 41 34.4778 41 34.7618C41 35.0458 40.904 35.2831 40.712 35.4738C40.52 35.6644 40.2827 35.7598 40 35.7598H35V40.8098C35 41.0684 34.904 41.2918 34.712 41.4798C34.52 41.6664 34.284 41.7598 34 41.7598ZM29 9.75977V19.7598H39V9.75977H29ZM9.00001 9.75977V19.7598H19V9.75977H9.00001ZM9.00001 29.7598V39.7598H19V29.7598H9.00001Z" fill="white"/>
</svg>
