<svg width="38" height="41" viewBox="0 0 38 41" fill="none" xmlns="http://www.w3.org/2000/svg">
<path d="M34.4514 29.0872C34.431 29.0709 34.4065 29.0586 34.3861 29.0423C34.2881 28.977 34.1901 28.9157 34.088 28.8545C32.2872 27.7479 29.727 26.8577 26.7054 26.2901C26.199 26.1962 25.709 26.5311 25.6151 27.0374C25.5212 27.5437 25.856 28.0337 26.3624 28.1276C28.5674 28.5441 30.4865 29.1321 31.9932 29.8467C30.7315 30.4469 29.1676 30.9614 27.3914 31.3534C25.1864 31.8434 22.6547 32.1415 19.9393 32.1987V18.4094C22.0177 18.193 23.8838 17.2579 25.2885 15.8573C26.8973 14.2485 27.8936 12.0272 27.8936 9.57311C27.8936 7.11905 26.8973 4.89365 25.2885 3.28483C23.6796 1.67601 21.4583 0.679688 19.0043 0.679688C16.5502 0.679688 14.3248 1.67601 12.716 3.28483C11.1072 4.89365 10.1108 7.11497 10.1108 9.57311C10.1108 12.0313 11.1072 14.2526 12.716 15.8573C14.1166 17.2579 15.9826 18.193 18.0651 18.4094V25.6205C13.5694 25.7103 9.50652 26.4535 6.50121 27.605C5.42322 28.0174 4.47181 28.491 3.67148 29.0137C3.60615 29.0464 3.5449 29.0872 3.48773 29.1362C1.81358 30.2754 0.854004 31.6433 0.854004 33.146C0.854004 35.4 3.00999 37.3518 6.49712 38.687C9.71068 39.9202 14.1329 40.6797 19.0002 40.6797C23.8675 40.6797 28.2897 39.9202 31.5032 38.687C34.9904 37.3477 37.1464 35.4 37.1464 33.146C37.1464 31.6148 36.1664 30.2346 34.4555 29.0913L34.4514 29.0872ZM10.6049 31.3534C8.8246 30.9614 7.26478 30.4469 5.99896 29.8467C6.36237 29.6752 6.7462 29.5119 7.15862 29.3567C9.96793 28.2787 13.794 27.5845 18.0569 27.4947V32.1987C15.3416 32.1456 12.8058 31.8434 10.6049 31.3575V31.3534Z" fill="white"/>
</svg>
