<svg width="42" height="43" viewBox="0 0 42 43" fill="none" xmlns="http://www.w3.org/2000/svg">
<path d="M9.40625 19.5732H32.5938M9.40625 14.3232H32.5938M9.40625 24.8232H23.8438M35.4375 8.19824H6.5625C5.86631 8.19824 5.19863 8.4748 4.70634 8.96709C4.21406 9.45937 3.9375 10.127 3.9375 10.8232V28.3232C3.9375 29.0194 4.21406 29.6871 4.70634 30.1794C5.19863 30.6717 5.86631 30.9482 6.5625 30.9482H7.9975V37.4232L15.225 30.9482H35.4375C36.1337 30.9482 36.8014 30.6717 37.2937 30.1794C37.7859 29.6871 38.0625 29.0194 38.0625 28.3232V10.8232C38.0625 10.127 37.7859 9.45937 37.2937 8.96709C36.8014 8.4748 36.1337 8.19824 35.4375 8.19824Z" stroke="#DB80EB" stroke-width="1.5" stroke-linecap="round" stroke-linejoin="round"/>
</svg>
