<svg width="36" height="37" viewBox="0 0 36 37" fill="none" xmlns="http://www.w3.org/2000/svg">
<path d="M5.66714 18.4738C4.24514 15.9958 3.55814 13.9708 3.14414 11.9188C2.53214 8.88279 3.93314 5.91729 6.25364 4.02429C7.23464 3.22479 8.35964 3.49929 8.94014 4.53879L10.2496 6.88929C11.2876 8.75229 11.8066 9.68229 11.7046 10.6693C11.6011 11.6578 10.9006 12.4618 9.50114 14.0698L5.66714 18.4738ZM5.66714 18.4738C8.54564 23.4928 13.0621 28.0138 18.0871 30.8938M18.0871 30.8938C20.5666 32.3158 22.5901 33.0028 24.6421 33.4168C27.6781 34.0288 30.6436 32.6278 32.5351 30.3073C33.3361 29.3263 33.0616 28.2013 32.0221 27.6208L29.6716 26.3113C27.8086 25.2733 26.8786 24.7543 25.8916 24.8563C24.9031 24.9598 24.0991 25.6603 22.4911 27.0598L18.0871 30.8938ZM21.0001 5.06079V9.26079M28.4251 8.13579L25.4551 11.1058M31.5001 15.5608H27.3001" stroke="#DB80EB" stroke-width="1.5" stroke-linecap="round" stroke-linejoin="round"/>
</svg>
