<svg width="16" height="16" viewBox="0 0 16 16" fill="none" xmlns="http://www.w3.org/2000/svg">
<g clip-path="url(#clip0_1236_1880)">
<path d="M0 0.799687C0 0.515243 0.115556 0.257465 0.346667 0.0263538C0.577778 -0.204758 0.853333 -0.320312 1.17333 -0.320312H14.8267C15.1467 -0.320312 15.4222 -0.204758 15.6533 0.0263538C15.8844 0.257465 16 0.515243 16 0.799687V14.5597C16 14.8441 15.8844 15.1019 15.6533 15.333C15.4222 15.5641 15.1467 15.6797 14.8267 15.6797H1.17333C0.853333 15.6797 0.577778 15.5641 0.346667 15.333C0.115556 15.1019 0 14.8441 0 14.5597V0.799687ZM4.96 13.0664V5.86635H2.56V13.0664H4.96ZM3.73333 4.85302C4.16 4.85302 4.49778 4.73746 4.74667 4.50635C4.99556 4.27524 5.11111 3.98191 5.09333 3.62635C5.07556 3.2708 4.95111 2.96858 4.72 2.71969C4.48889 2.4708 4.16889 2.34635 3.76 2.34635C3.35111 2.34635 3.02222 2.4708 2.77333 2.71969C2.52444 2.96858 2.4 3.2708 2.4 3.62635C2.4 3.98191 2.52444 4.27524 2.77333 4.50635C3.02222 4.73746 3.34222 4.85302 3.73333 4.85302ZM8.64 13.0664V9.01302C8.64 8.76413 8.67556 8.56858 8.74667 8.42635C8.81778 8.21302 8.96 8.01747 9.17333 7.83969C9.38667 7.66191 9.65333 7.57302 9.97333 7.57302C10.4 7.57302 10.7111 7.71524 10.9067 7.99969C11.1022 8.28413 11.2 8.69302 11.2 9.22635V13.0664H13.6V8.90635C13.6 7.83969 13.3422 7.0308 12.8267 6.47969C12.3111 5.92858 11.6444 5.65302 10.8267 5.65302C10.2578 5.65302 9.77778 5.79524 9.38667 6.07969C9.10222 6.25747 8.85333 6.52413 8.64 6.87969V5.86635H6.24C6.27556 6.1508 6.27556 7.4308 6.24 9.70635V13.0664H8.64Z" fill="white"/>
</g>
<defs>
<clipPath id="clip0_1236_1880">
<rect width="16" height="16" fill="white" transform="matrix(1 0 0 -1 0 16)"/>
</clipPath>
</defs>
</svg>
