<svg width="42" height="43" viewBox="0 0 42 43" fill="none" xmlns="http://www.w3.org/2000/svg">
<path d="M21 10.5686C19.8213 10.5686 18.6908 10.1003 17.8573 9.26683C17.0238 8.43333 16.5556 7.30287 16.5556 6.12413C16.5556 4.94539 17.0238 3.81493 17.8573 2.98143C18.6908 2.14794 19.8213 1.67969 21 1.67969C22.1787 1.67969 23.3092 2.14794 24.1427 2.98143C24.9762 3.81493 25.4444 4.94539 25.4444 6.12413C25.4444 7.30287 24.9762 8.43333 24.1427 9.26683C23.3092 10.1003 22.1787 10.5686 21 10.5686ZM21 10.5686V19.4575M21 19.4575C22.7681 19.4575 24.4638 20.1598 25.714 21.4101C26.9643 22.6603 27.6667 24.356 27.6667 26.1241C27.6667 27.8922 26.9643 29.5879 25.714 30.8382C24.4638 32.0884 22.7681 32.7908 21 32.7908C19.2319 32.7908 17.5362 32.0884 16.286 30.8382C15.0357 29.5879 14.3333 27.8922 14.3333 26.1241C14.3333 24.356 15.0357 22.6603 16.286 21.4101C17.5362 20.1598 19.2319 19.4575 21 19.4575ZM9.22222 34.5686L15.4444 30.1241M32.7778 34.5686L26.5556 30.1241M1 37.2352C1 38.414 1.46825 39.5444 2.30175 40.3779C3.13524 41.2114 4.2657 41.6797 5.44444 41.6797C6.62318 41.6797 7.75365 41.2114 8.58714 40.3779C9.42064 39.5444 9.88889 38.414 9.88889 37.2352C9.88889 36.0565 9.42064 34.926 8.58714 34.0925C7.75365 33.2591 6.62318 32.7908 5.44444 32.7908C4.2657 32.7908 3.13524 33.2591 2.30175 34.0925C1.46825 34.926 1 36.0565 1 37.2352ZM32.1111 37.2352C32.1111 38.414 32.5794 39.5444 33.4129 40.3779C34.2464 41.2114 35.3768 41.6797 36.5556 41.6797C37.7343 41.6797 38.8648 41.2114 39.6983 40.3779C40.5317 39.5444 41 38.414 41 37.2352C41 36.0565 40.5317 34.926 39.6983 34.0925C38.8648 33.2591 37.7343 32.7908 36.5556 32.7908C35.3768 32.7908 34.2464 33.2591 33.4129 34.0925C32.5794 34.926 32.1111 36.0565 32.1111 37.2352Z" stroke="white" stroke-width="2" stroke-linecap="round" stroke-linejoin="round"/>
</svg>
