<svg width="17" height="16" viewBox="0 0 17 16" fill="none" xmlns="http://www.w3.org/2000/svg">
<g clip-path="url(#clip0_1236_1885)">
<path d="M5.14 2.66609C5.63778 2.66609 6.06444 2.71054 6.42 2.79943C6.77556 2.88832 7.10444 3.02165 7.40667 3.19943C7.70889 3.3772 7.93111 3.62609 8.07333 3.94609C8.21556 4.26609 8.28667 4.6572 8.28667 5.11943C8.28667 5.6172 8.17111 6.02609 7.94 6.34609C7.70889 6.66609 7.38 6.93276 6.95333 7.14609C7.55778 7.32387 8.01111 7.64387 8.31333 8.10609C8.61556 8.56832 8.76667 9.08387 8.76667 9.65276C8.76667 10.115 8.66889 10.5328 8.47333 10.9061C8.27778 11.2794 8.01111 11.5816 7.67333 11.8128C7.33556 12.0439 6.95333 12.2128 6.52667 12.3194C6.1 12.4261 5.67333 12.4794 5.24667 12.4794H0.5V2.66609H5.14ZM4.87333 6.66609C5.26444 6.66609 5.58444 6.5772 5.83333 6.39943C6.08222 6.22165 6.20667 5.91943 6.20667 5.49276C6.20667 5.24387 6.16222 5.04832 6.07333 4.90609C5.98444 4.76387 5.86889 4.64832 5.72667 4.55943C5.58444 4.47054 5.45111 4.4172 5.32667 4.39943C5.20222 4.38165 4.99778 4.37276 4.71333 4.37276H2.68667V6.66609H4.87333ZM4.98 10.8261C5.15778 10.8261 5.35333 10.8083 5.56667 10.7728C5.78 10.7372 5.95778 10.6661 6.1 10.5594C6.24222 10.4528 6.34889 10.3283 6.42 10.1861C6.52667 9.9372 6.58 9.72387 6.58 9.54609C6.58 9.04832 6.43778 8.68387 6.15333 8.45276C5.86889 8.22165 5.49556 8.10609 5.03333 8.10609H2.68667V10.8261H4.98ZM11.8067 10.8261C12.0911 11.1105 12.5178 11.2528 13.0867 11.2528C13.4778 11.2528 13.8244 11.1461 14.1267 10.9328C14.4289 10.7194 14.6156 10.5061 14.6867 10.2928H16.3933C16.1089 11.1461 15.6733 11.7683 15.0867 12.1594C14.5 12.5505 13.8333 12.7461 13.0867 12.7461C12.5533 12.7461 12.0556 12.6572 11.5933 12.4794C11.1311 12.3016 10.7311 12.035 10.3933 11.6794C10.0556 11.3239 9.81556 10.9239 9.67333 10.4794C9.53111 10.035 9.46 9.52832 9.46 8.95943C9.46 8.39054 9.54 7.88387 9.7 7.43943C9.86 6.99498 10.1089 6.59498 10.4467 6.23943C10.7844 5.88387 11.1667 5.63498 11.5933 5.49276C12.0556 5.27943 12.5533 5.17276 13.0867 5.17276C13.6911 5.17276 14.2244 5.2972 14.6867 5.54609C15.1489 5.79498 15.5133 6.11498 15.78 6.50609C16.0467 6.8972 16.2511 7.34165 16.3933 7.83943C16.5 8.40832 16.5356 8.94165 16.5 9.43943H11.3267C11.3267 9.72387 11.3711 9.99054 11.46 10.2394C11.5489 10.4883 11.6644 10.6839 11.8067 10.8261ZM14.0467 7.09276C13.7978 6.80832 13.4422 6.66609 12.98 6.66609C12.6956 6.66609 12.4289 6.7372 12.18 6.87943C12.0378 6.95054 11.8778 7.07498 11.7 7.25276C11.5578 7.39498 11.4689 7.55498 11.4333 7.73276V7.83943C11.3978 8.0172 11.38 8.14165 11.38 8.21276H14.58C14.5089 7.71498 14.3311 7.34165 14.0467 7.09276ZM10.9533 3.35943H14.9V4.31943H10.9533V3.35943Z" fill="white"/>
</g>
<defs>
<clipPath id="clip0_1236_1885">
<rect width="16" height="16" fill="white" transform="matrix(1 0 0 -1 0.5 16)"/>
</clipPath>
</defs>
</svg>
