<svg width="42" height="49" viewBox="0 0 42 49" fill="none" xmlns="http://www.w3.org/2000/svg">
<g clip-path="url(#clip0_858_1850)">
<path d="M29.5091 38.2094C27.6378 38.2094 26.7022 35.9346 28.0225 34.6093C28.2928 34.3484 28.615 34.1501 28.9893 34.0562V31.2387C28.9893 30.5499 30.0289 30.5499 30.0289 31.2387V34.0562C30.767 34.244 31.3595 34.8388 31.5467 35.5798H33.0644C33.7402 35.5798 33.7402 36.6128 33.0644 36.6128H31.5467C31.318 37.5416 30.4863 38.2094 29.5091 38.2094ZM28.7606 36.8529C29.4259 37.5207 30.5695 37.0407 30.5695 36.1015C30.5695 35.1519 29.4259 34.6823 28.7606 35.3502C28.3448 35.7571 28.3448 36.4354 28.7606 36.8529ZM29.5091 45.6289C24.2592 45.6289 20.0073 41.3609 20.0073 36.0911C20.0073 30.8212 24.2592 26.5532 29.5091 26.5532C34.759 26.5532 39.0109 30.8212 39.0109 36.0911C39.0109 41.3609 34.759 45.6289 29.5091 45.6289ZM23.5315 42.1018C26.8374 45.4202 32.1912 45.4202 35.4971 42.1018C38.8029 38.7834 38.8029 33.4092 35.4971 30.0908C32.1912 26.7723 26.8374 26.7723 23.5315 30.0908C20.2256 33.4092 20.2256 38.7834 23.5315 42.1018ZM29.5091 48.5195C23.0741 48.5195 17.741 43.5732 17.1796 37.1972H13.2188C12.9278 37.1972 12.6991 36.9676 12.6991 36.6755V20.5425L10.2041 23.0469V36.6755C10.2041 36.9676 9.97535 37.1972 9.68427 37.1972H5.22446C4.93338 37.1972 4.70467 36.9676 4.70467 36.6755V28.5568L3.62351 29.6421C3.41559 29.8508 3.09332 29.8508 2.8854 29.6421L0.276054 27.0228C0.0681381 26.8141 0.0681381 26.4906 0.276054 26.2819L13.7802 12.7264C13.9881 12.5177 14.3104 12.5177 14.5183 12.7264L18.8846 17.1093L30.8605 5.09821L29.5195 3.75206C29.2492 3.48074 29.3427 2.97985 29.7898 2.87549L38.1168 0.537984C38.5015 0.433631 38.8653 0.788432 38.751 1.18497L36.4119 9.56452C36.3079 9.95063 35.8193 10.0759 35.549 9.7941L34.208 8.45838L34.1768 8.48969V24.5914C38.7614 26.4697 41.8801 30.9673 41.8801 36.1015C41.8905 42.9575 36.3495 48.5195 29.5091 48.5195ZM17.1381 36.1537L17.1589 35.3293V22.1078L14.1545 19.092L13.749 19.4989V36.1537H17.1381ZM18.1984 31.0508C18.8118 29.6734 19.6539 28.4316 20.6934 27.3776V22.0243L19.2588 23.4748C19.0509 23.6731 18.7286 23.6731 18.5207 23.4748L18.1984 23.1513V31.0508ZM21.733 26.428C22.7518 25.6036 23.9057 24.9357 25.1532 24.4557V17.5475L21.733 20.9912V26.428ZM26.1928 24.1218C26.9933 23.8922 27.8354 23.7565 28.6982 23.6939V13.9995L26.1928 16.5144V24.1218ZM29.7274 23.6731C30.9125 23.6939 32.0665 23.8818 33.1476 24.2157V9.53322L29.7274 12.9664V23.6731ZM21.4939 44.1367C25.9225 48.5821 33.106 48.5821 37.5243 44.1367C41.9529 39.6913 41.9529 32.4909 37.5243 28.0455C33.0644 23.5687 25.8913 23.6313 21.4939 28.0455C17.0757 32.4909 17.0653 39.6913 21.4939 44.1367ZM8.88379 24.3722L5.74425 27.5237V36.1641H9.16448V24.0905L8.88379 24.3722ZM18.5207 18.2154L14.1545 13.8326L1.37801 26.6576L3.25965 28.5464L13.7802 17.9858C13.9881 17.7771 14.3104 17.7771 14.5183 17.9858L18.8846 22.3686L33.8441 7.35224C34.0521 7.14353 34.3743 7.14353 34.5822 7.35224L35.6634 8.42708L37.5139 1.77979L30.8813 3.64771L31.9625 4.72254C32.1704 4.93125 32.1704 5.25474 31.9625 5.46345L19.2588 18.2154C19.0509 18.4241 18.7286 18.4241 18.5207 18.2154Z" fill="#6D4DF2"/>
</g>
<defs>
<clipPath id="clip0_858_1850">
<rect width="41.76" height="48" fill="white" transform="translate(0.120117 0.519531)"/>
</clipPath>
</defs>
</svg>
