<svg width="34" height="49" viewBox="0 0 34 49" fill="none" xmlns="http://www.w3.org/2000/svg">
<g clip-path="url(#clip0_858_1804)">
<path d="M29.0002 48.7197H5.0002C3.72755 48.7185 2.50739 48.2123 1.60749 47.3124C0.707587 46.4125 0.201466 45.1924 0.200195 43.9197V5.51973C0.201466 4.24708 0.707587 3.02692 1.60749 2.12702C2.50739 1.22712 3.72755 0.720997 5.0002 0.719727L29.0002 0.719727C30.2728 0.720997 31.493 1.22712 32.3929 2.12702C33.2928 3.02692 33.7989 4.24708 33.8002 5.51973V43.9197C33.7989 45.1924 33.2928 46.4125 32.3929 47.3124C31.493 48.2123 30.2728 48.7185 29.0002 48.7197ZM5.0002 2.31973C4.1515 2.31973 3.33757 2.65687 2.73745 3.25698C2.13734 3.8571 1.8002 4.67103 1.8002 5.51973V43.9197C1.8002 44.7684 2.13734 45.5824 2.73745 46.1825C3.33757 46.7826 4.1515 47.1197 5.0002 47.1197H29.0002C29.8489 47.1197 30.6628 46.7826 31.2629 46.1825C31.8631 45.5824 32.2002 44.7684 32.2002 43.9197V5.51973C32.2002 4.67103 31.8631 3.8571 31.2629 3.25698C30.6628 2.65687 29.8489 2.31973 29.0002 2.31973H5.0002Z" fill="#6D4DF2"/>
<path d="M18.6006 6.31973H15.4006C15.1884 6.31973 14.9849 6.23544 14.8349 6.08541C14.6849 5.93538 14.6006 5.7319 14.6006 5.51973C14.6006 5.30755 14.6849 5.10407 14.8349 4.95404C14.9849 4.80401 15.1884 4.71973 15.4006 4.71973H18.6006C18.8128 4.71973 19.0162 4.80401 19.1663 4.95404C19.3163 5.10407 19.4006 5.30755 19.4006 5.51973C19.4006 5.7319 19.3163 5.93538 19.1663 6.08541C19.0162 6.23544 18.8128 6.31973 18.6006 6.31973Z" fill="#6D4DF2"/>
<path d="M17.0002 44.7196C17.442 44.7196 17.8002 44.3615 17.8002 43.9196C17.8002 43.4778 17.442 43.1196 17.0002 43.1196C16.5584 43.1196 16.2002 43.4778 16.2002 43.9196C16.2002 44.3615 16.5584 44.7196 17.0002 44.7196Z" fill="#6D4DF2"/>
<path d="M18.6006 29.5199H15.4006C15.1884 29.5199 14.9849 29.4356 14.8349 29.2856C14.6849 29.1356 14.6006 28.9321 14.6006 28.7199C14.6006 28.5077 14.6849 28.3043 14.8349 28.1542C14.9849 28.0042 15.1884 27.9199 15.4006 27.9199H18.6006C18.8128 27.9199 19.0162 28.0042 19.1663 28.1542C19.3163 28.3043 19.4006 28.5077 19.4006 28.7199C19.4006 28.9321 19.3163 29.1356 19.1663 29.2856C19.0162 29.4356 18.8128 29.5199 18.6006 29.5199Z" fill="#6D4DF2"/>
<path d="M20.2 32.7196H13.8C13.5878 32.7196 13.3843 32.6353 13.2343 32.4853C13.0843 32.3353 13 32.1318 13 31.9196C13 31.7075 13.0843 31.504 13.2343 31.3539C13.3843 31.2039 13.5878 31.1196 13.8 31.1196H20.2C20.4122 31.1196 20.6157 31.2039 20.7657 31.3539C20.9157 31.504 21 31.7075 21 31.9196C21 32.1318 20.9157 32.3353 20.7657 32.4853C20.6157 32.6353 20.4122 32.7196 20.2 32.7196Z" fill="#6D4DF2"/>
<path d="M19.0002 40.7196H15.0002C14.2576 40.7196 13.5454 40.4246 13.0203 39.8995C12.4952 39.3744 12.2002 38.6622 12.2002 37.9196C12.2002 37.177 12.4952 36.4648 13.0203 35.9397C13.5454 35.4146 14.2576 35.1196 15.0002 35.1196H19.0002C19.7428 35.1196 20.455 35.4146 20.9801 35.9397C21.5052 36.4648 21.8002 37.177 21.8002 37.9196C21.8002 38.6622 21.5052 39.3744 20.9801 39.8995C20.455 40.4246 19.7428 40.7196 19.0002 40.7196ZM15.0002 36.7196C14.6819 36.7196 14.3767 36.8461 14.1517 37.0711C13.9266 37.2961 13.8002 37.6014 13.8002 37.9196C13.8002 38.2379 13.9266 38.5431 14.1517 38.7682C14.3767 38.9932 14.6819 39.1196 15.0002 39.1196H19.0002C19.3185 39.1196 19.6237 38.9932 19.8487 38.7682C20.0738 38.5431 20.2002 38.2379 20.2002 37.9196C20.2002 37.6014 20.0738 37.2961 19.8487 37.0711C19.6237 36.8461 19.3185 36.7196 19.0002 36.7196H15.0002Z" fill="#6D4DF2"/>
<path d="M17.0002 26.3197C15.2597 26.3197 13.5583 25.8036 12.1112 24.8367C10.664 23.8697 9.53611 22.4953 8.87006 20.8873C8.20401 19.2794 8.02974 17.51 8.36929 15.8029C8.70884 14.0959 9.54696 12.5279 10.7777 11.2972C12.0084 10.0665 13.5764 9.22837 15.2834 8.88882C16.9904 8.54927 18.7598 8.72354 20.3678 9.38959C21.9758 10.0556 23.3502 11.1836 24.3171 12.6307C25.2841 14.0779 25.8002 15.7793 25.8002 17.5197C25.7974 19.8528 24.8694 22.0895 23.2197 23.7392C21.57 25.389 19.3333 26.317 17.0002 26.3197ZM17.0002 10.3197C15.5762 10.3197 14.1841 10.742 13.0001 11.5331C11.8161 12.3243 10.8932 13.4488 10.3483 14.7644C9.80331 16.08 9.66073 17.5277 9.93854 18.9244C10.2164 20.321 10.9021 21.604 11.909 22.6109C12.916 23.6178 14.1989 24.3036 15.5955 24.5814C16.9922 24.8592 18.4399 24.7166 19.7555 24.1717C21.0711 23.6267 22.1956 22.7039 22.9868 21.5198C23.7779 20.3358 24.2002 18.9438 24.2002 17.5197C24.1979 15.6109 23.4386 13.7809 22.0888 12.4311C20.739 11.0814 18.909 10.3221 17.0002 10.3197Z" fill="#6D4DF2"/>
<path d="M15.3999 20.7198C15.1878 20.7197 14.9843 20.6354 14.8343 20.4854L13.2343 18.8854C13.0886 18.7345 13.008 18.5324 13.0098 18.3226C13.0116 18.1129 13.0958 17.9122 13.2441 17.7639C13.3924 17.6156 13.5931 17.5314 13.8028 17.5296C14.0126 17.5278 14.2147 17.6084 14.3655 17.7542L15.3999 18.7886L19.6343 14.5542C19.7852 14.4084 19.9873 14.3278 20.1971 14.3296C20.4068 14.3314 20.6075 14.4156 20.7558 14.5639C20.9041 14.7122 20.9883 14.9129 20.9901 15.1226C20.9919 15.3324 20.9113 15.5345 20.7655 15.6854L15.9655 20.4854C15.8155 20.6354 15.6121 20.7197 15.3999 20.7198Z" fill="#6D4DF2"/>
</g>
<defs>
<clipPath id="clip0_858_1804">
<rect width="33.6" height="48" fill="white" transform="translate(0.200195 0.719727)"/>
</clipPath>
</defs>
</svg>
