<svg width="64" height="64" viewBox="0 0 64 64" fill="none" xmlns="http://www.w3.org/2000/svg">
<g clip-path="url(#clip0_923_935)">
<g clip-path="url(#clip1_923_935)">
<path d="M16 30.9512V48.0001H33.0489L29.4933 44.4445H19.5556V34.5067L16 30.9512Z" fill="white"/>
<path d="M61.991 57.4045L56.8888 52.2311V56.8889H7.11101V49.5111H10.6666V46.6667H7.11101V34.8445H10.6666V32H7.11101V20.6222H10.6666V17.7778H7.11101V7.84002L35.4488 36.0178V31.0045L6.59545 2.29335C6.34679 2.04263 6.0291 1.87164 5.68288 1.80219C5.33666 1.73273 4.97761 1.76795 4.65148 1.90336C4.32536 2.03877 4.04695 2.26823 3.85175 2.56248C3.65655 2.85674 3.5534 3.20246 3.55545 3.55557V58.6667C3.55545 59.1382 3.74275 59.5904 4.07615 59.9238C4.40955 60.2572 4.86173 60.4445 5.33323 60.4445H60.7288C61.0819 60.4465 61.4276 60.3434 61.7219 60.1482C62.0161 59.953 62.2456 59.6746 62.381 59.3484C62.5164 59.0223 62.5516 58.6632 62.4822 58.317C62.4127 57.9708 62.2417 57.6531 61.991 57.4045Z" fill="white"/>
<path d="M42.6666 53.3334H49.7778C50.7207 53.3334 51.6251 52.9588 52.2919 52.292C52.9587 51.6252 53.3333 50.7208 53.3333 49.7778V15.4667L49.2444 7.9467C48.9282 7.39883 48.4715 6.94524 47.9215 6.63273C47.3715 6.32023 46.7481 6.16012 46.1155 6.16892C45.4687 6.17406 44.8355 6.35556 44.2841 6.69389C43.7328 7.03221 43.2842 7.51454 42.9866 8.08892L39.1111 15.5023V49.7778C39.1111 50.7208 39.4857 51.6252 40.1525 52.292C40.8193 52.9588 41.7236 53.3334 42.6666 53.3334ZM42.6666 16.3556L46.1155 9.65337L49.7778 16.3734V42.6667H42.6666V16.3556ZM42.6666 45.5645H49.7778V49.9023H42.6666V45.5645Z" fill="white"/>
</g>
</g>
<defs>
<clipPath id="clip0_923_935">
<rect width="64" height="64" fill="white"/>
</clipPath>
<clipPath id="clip1_923_935">
<rect width="64" height="64" fill="white"/>
</clipPath>
</defs>
</svg>
