<svg width="28" height="49" viewBox="0 0 28 49" fill="none" xmlns="http://www.w3.org/2000/svg">
<g clip-path="url(#clip0_858_1832)">
<path fill-rule="evenodd" clip-rule="evenodd" d="M27.8768 44.7876C27.8768 47.0654 26.0222 48.9199 23.7444 48.9199H4.25639C1.97857 48.9199 0.124023 47.0654 0.124023 44.7876V5.05229C0.124023 2.77447 1.97857 0.919922 4.25639 0.919922H23.7444C26.0222 0.919922 27.8768 2.77447 27.8768 5.05229V44.7876ZM4.25202 2.22901C2.6942 2.22901 1.42875 3.49447 1.42875 5.05229H1.43311V44.7876C1.43311 46.3454 2.69857 47.6108 4.25639 47.6108H23.7444C25.3022 47.6108 26.5677 46.3454 26.5677 44.7876V5.05229C26.5677 3.49447 25.3022 2.22901 23.7444 2.22901H21.1611V3.49447C21.1611 5.06101 19.8869 6.33956 18.316 6.33956H9.68039C8.11384 6.33956 6.8353 5.06538 6.8353 3.49447V2.22901H4.25202ZM19.8564 2.22901H8.14875V3.49447C8.14875 4.34101 8.83821 5.03047 9.68475 5.03047H18.3204C19.1669 5.03047 19.8564 4.34101 19.8564 3.49447V2.22901ZM9.43183 21.5468C9.43183 22.8995 8.36274 23.9992 7.04928 23.9992C5.73147 23.9992 4.66238 22.8995 4.66238 21.5468C4.66238 20.1941 5.73583 19.0944 7.04928 19.0944C8.36274 19.0944 9.43183 20.1941 9.43183 21.5468ZM8.12274 21.5512C8.12274 20.9184 7.64274 20.4079 7.04928 20.4079C6.45583 20.4079 5.97147 20.9184 5.97147 21.5512C5.97147 22.1839 6.46019 22.6944 7.04928 22.6944C7.63838 22.6944 8.12274 22.1839 8.12274 21.5512ZM14.0004 23.9992C15.3139 23.9992 16.3873 22.8995 16.3873 21.5468C16.3873 20.1941 15.3182 19.0944 14.0004 19.0944C12.6826 19.0944 11.6135 20.1941 11.6135 21.5468C11.6135 22.8995 12.6826 23.9992 14.0004 23.9992ZM14.0004 20.4079C14.5939 20.4079 15.0782 20.9184 15.0782 21.5512C15.0782 22.1839 14.5939 22.6944 14.0004 22.6944C13.407 22.6944 12.9226 22.1839 12.9226 21.5512C12.9226 20.9184 13.407 20.4079 14.0004 20.4079ZM23.3392 21.5468C23.3392 22.8995 22.2658 23.9992 20.9523 23.9992C19.6389 23.9992 18.5698 22.8995 18.5698 21.5468C18.5698 20.1941 19.6345 19.0944 20.9523 19.0944C22.2701 19.0944 23.3392 20.1941 23.3392 21.5468ZM22.0301 21.5512C22.0301 20.9184 21.5458 20.4079 20.9523 20.4079C20.3632 20.4079 19.8789 20.9184 19.8789 21.5512C19.8789 22.1839 20.3589 22.6944 20.9523 22.6944C21.5458 22.6944 22.0301 22.1839 22.0301 21.5512ZM7.04928 31.8493C8.36274 31.8493 9.43183 30.7497 9.43183 29.397C9.43183 28.0442 8.36274 26.9446 7.04928 26.9446C5.73583 26.9446 4.66238 28.0442 4.66238 29.397C4.66238 30.7497 5.73147 31.8493 7.04928 31.8493ZM7.04928 28.2581C7.64274 28.2581 8.12274 28.7686 8.12274 29.4013C8.12274 30.0341 7.63838 30.5446 7.04928 30.5446C6.46019 30.5446 5.97147 30.0341 5.97147 29.4013C5.97147 28.7686 6.45583 28.2581 7.04928 28.2581ZM16.3873 29.397C16.3873 30.7497 15.3139 31.8493 14.0004 31.8493C12.6826 31.8493 11.6135 30.7497 11.6135 29.397C11.6135 28.0442 12.6826 26.9446 14.0004 26.9446C15.3182 26.9446 16.3873 28.0442 16.3873 29.397ZM15.0782 29.4013C15.0782 28.7686 14.5939 28.2581 14.0004 28.2581C13.407 28.2581 12.9226 28.7686 12.9226 29.4013C12.9226 30.0341 13.407 30.5446 14.0004 30.5446C14.5939 30.5446 15.0782 30.0341 15.0782 29.4013ZM20.9523 31.8493C22.2658 31.8493 23.3392 30.7497 23.3392 29.397C23.3392 28.0442 22.2701 26.9446 20.9523 26.9446C19.6345 26.9446 18.5698 28.0442 18.5698 29.397C18.5698 30.7497 19.6389 31.8493 20.9523 31.8493ZM20.9523 28.2581C21.5458 28.2581 22.0301 28.7686 22.0301 29.4013C22.0301 30.0341 21.5458 30.5446 20.9523 30.5446C20.3589 30.5446 19.8789 30.0341 19.8789 29.4013C19.8789 28.7686 20.3632 28.2581 20.9523 28.2581ZM9.43183 37.2471C9.43183 38.5999 8.36274 39.6995 7.04928 39.6995C5.73147 39.6995 4.66238 38.5999 4.66238 37.2471C4.66238 35.8944 5.73583 34.7948 7.04928 34.7948C8.36274 34.7948 9.43183 35.8944 9.43183 37.2471ZM8.12274 37.2515C8.12274 36.6188 7.64274 36.1082 7.04928 36.1082C6.45583 36.1082 5.97147 36.6188 5.97147 37.2515C5.97147 37.8842 6.46019 38.3948 7.04928 38.3948C7.63838 38.3948 8.12274 37.8842 8.12274 37.2515Z" fill="#6D4DF2"/>
</g>
<defs>
<clipPath id="clip0_858_1832">
<rect width="27.7527" height="48" fill="white" transform="translate(0.124023 0.919922)"/>
</clipPath>
</defs>
</svg>
