<svg width="64" height="65" viewBox="0 0 64 65" fill="none" xmlns="http://www.w3.org/2000/svg">
<g clip-path="url(#clip0_858_2029)">
<path d="M16.34 8.80469C16.7538 7.63438 17.5203 6.6212 18.534 5.9048C19.5477 5.1884 20.7587 4.80404 22 4.80469H34C35.2413 4.80404 36.4523 5.1884 37.466 5.9048C38.4797 6.6212 39.2462 7.63438 39.66 8.80469H42C43.5913 8.80469 45.1174 9.43683 46.2426 10.562C47.3679 11.6873 48 13.2134 48 14.8047V30.7887C47.3227 30.7887 46.66 30.9007 46.012 31.1247C46.0604 30.2229 45.9046 29.3218 45.5562 28.4886C45.2078 27.6554 44.6759 26.9116 44 26.3127V14.8047C44 14.2743 43.7893 13.7655 43.4142 13.3905C43.0391 13.0154 42.5304 12.8047 42 12.8047H39.66C39.2462 13.975 38.4797 14.9882 37.466 15.7046C36.4523 16.421 35.2413 16.8053 34 16.8047H22C20.7587 16.8053 19.5477 16.421 18.534 15.7046C17.5203 14.9882 16.7538 13.975 16.34 12.8047H14C13.4696 12.8047 12.9609 13.0154 12.5858 13.3905C12.2107 13.7655 12 14.2743 12 14.8047V54.8047C12 55.3351 12.2107 55.8438 12.5858 56.2189C12.9609 56.594 13.4696 56.8047 14 56.8047H26.352L26.248 57.1567C25.892 58.4047 25.96 59.6687 26.36 60.8047H14C12.4087 60.8047 10.8826 60.1725 9.75736 59.0473C8.63214 57.9221 8 56.396 8 54.8047V14.8047C8 13.2134 8.63214 11.6873 9.75736 10.562C10.8826 9.43683 12.4087 8.80469 14 8.80469H16.34ZM22 8.80469C21.4696 8.80469 20.9609 9.0154 20.5858 9.39048C20.2107 9.76555 20 10.2743 20 10.8047C20 11.3351 20.2107 11.8438 20.5858 12.2189C20.9609 12.594 21.4696 12.8047 22 12.8047H34C34.5304 12.8047 35.0391 12.594 35.4142 12.2189C35.7893 11.8438 36 11.3351 36 10.8047C36 10.2743 35.7893 9.76555 35.4142 9.39048C35.0391 9.0154 34.5304 8.80469 34 8.80469H22ZM33.48 60.1727C33.254 60.4105 32.9733 60.5893 32.6622 60.6936C32.3512 60.7978 32.0194 60.8242 31.6957 60.7705C31.3721 60.7169 31.0666 60.5847 30.8058 60.3857C30.5451 60.1866 30.3371 59.9267 30.2 59.6287C30.0042 59.198 29.9673 58.7119 30.096 58.2567L38.096 30.2567C38.168 30.004 38.289 29.768 38.4522 29.5621C38.6153 29.3562 38.8175 29.1845 39.047 29.0567C39.2766 28.9289 39.529 28.8476 39.79 28.8174C40.051 28.7872 40.3153 28.8087 40.568 28.8807C40.8207 28.9527 41.0567 29.0737 41.2626 29.2369C41.4685 29.4 41.6402 29.6022 41.768 29.8317C41.8957 30.0613 41.9771 30.3137 42.0073 30.5747C42.0375 30.8357 42.016 31.1 41.944 31.3527L33.944 59.3527C33.8568 59.6591 33.6978 59.9402 33.48 60.1727ZM25.52 38.0847C25.6907 37.8851 25.8204 37.6538 25.9018 37.4041C25.9831 37.1543 26.0145 36.891 25.994 36.6291C25.9736 36.3673 25.9018 36.112 25.7827 35.8779C25.6636 35.6438 25.4996 35.4354 25.3 35.2647C25.1004 35.094 24.8691 34.9642 24.6194 34.8829C24.3696 34.8016 24.1063 34.7702 23.8444 34.7906C23.5826 34.8111 23.3273 34.8829 23.0932 35.002C22.8591 35.121 22.6507 35.2851 22.48 35.4847L16.48 42.4847C16.1701 42.847 15.9999 43.308 15.9999 43.7847C15.9999 44.2614 16.1701 44.7224 16.48 45.0847L22.48 52.0847C22.6507 52.2843 22.8591 52.4483 23.0932 52.5674C23.3273 52.6865 23.5826 52.7583 23.8444 52.7787C24.1063 52.7992 24.3696 52.7678 24.6194 52.6865C24.8691 52.6051 25.1004 52.4754 25.3 52.3047C25.4996 52.134 25.6636 51.9256 25.7827 51.6915C25.9018 51.4574 25.9736 51.2021 25.994 50.9403C26.0145 50.6784 25.9831 50.4151 25.9018 50.1653C25.8204 49.9156 25.6907 49.6843 25.52 49.4847L20.636 43.7847L25.52 38.0847ZM46.7 52.3007C46.5004 52.13 46.3363 51.9216 46.2172 51.6875C46.0982 51.4534 46.0263 51.1981 46.0059 50.9363C45.9855 50.6744 46.0168 50.4111 46.0982 50.1613C46.1795 49.9116 46.3093 49.6803 46.48 49.4807L51.368 43.7847L46.48 38.0847C46.1352 37.6816 45.9647 37.158 46.006 36.6291C46.0472 36.1003 46.2969 35.6095 46.7 35.2647C47.1031 34.9199 47.6267 34.7494 48.1556 34.7906C48.6844 34.8319 49.1752 35.0816 49.52 35.4847L55.52 42.4847C55.8299 42.847 56.0001 43.308 56.0001 43.7847C56.0001 44.2614 55.8299 44.7224 55.52 45.0847L49.52 52.0847C49.1747 52.4873 48.6836 52.7362 48.1547 52.7767C47.6259 52.8172 47.1026 52.646 46.7 52.3007Z" fill="white"/>
</g>
<defs>
<clipPath id="clip0_858_2029">
<rect width="64" height="64" fill="white" transform="translate(0 0.804688)"/>
</clipPath>
</defs>
</svg>
