<svg width="62" height="65" viewBox="0 0 62 65" fill="none" xmlns="http://www.w3.org/2000/svg">
<path d="M46.8431 31.0114C46.8431 22.2682 39.7087 15.1338 30.9655 15.1338C22.2223 15.1338 15.0879 22.2682 15.0879 31.0114C15.0879 32.2704 15.2278 33.5294 15.5775 34.7884C15.9972 36.8168 16.7666 38.0759 17.8158 39.8245C18.0256 40.2442 18.3054 40.6639 18.5852 41.1535C18.9349 41.7131 19.2147 42.2726 19.5644 42.7622C20.9633 45.0704 21.8027 46.3994 21.8027 49.1273V55.7021C21.8027 57.3808 22.9917 58.7098 24.6005 58.9896C25.2999 62.5568 27.3983 64.795 30.9655 64.795C34.5327 64.795 36.701 62.5568 37.3305 58.9896C38.9393 58.7098 40.1283 57.3108 40.1283 55.7021V49.1273C40.1283 46.3994 40.9677 45.0005 42.3666 42.7622C42.6464 42.2726 42.9961 41.7131 43.3458 41.1535C43.6256 40.6639 43.9054 40.2442 44.1152 39.8245C45.1644 38.0759 45.9338 36.8168 46.3535 34.7884C46.7032 33.5294 46.8431 32.2704 46.8431 31.0114ZM37.4005 50.8059H24.6704V49.1972C24.6704 48.8475 24.6704 48.5677 24.6005 48.2879H37.4005C37.4005 48.5677 37.3305 48.8475 37.3305 49.1972V50.8059H37.4005ZM36.771 56.3316H25.16C24.8103 56.3316 24.6005 56.0519 24.6005 55.7721V53.6037H37.3305V55.7721C37.4005 56.0519 37.1207 56.3316 36.771 56.3316ZM30.9655 62.0672C30.1961 62.0672 28.2376 62.0671 27.4682 59.1294H34.5327C33.7633 62.0671 31.7349 62.0672 30.9655 62.0672ZM43.6256 34.2289C43.2759 35.7677 42.7163 36.8169 41.7371 38.4256C41.4573 38.8453 41.2475 39.265 40.9677 39.7546C40.618 40.3141 40.3382 40.8737 40.0584 41.2933C39.2191 42.6923 38.4497 43.9513 37.96 45.4201H24.1109C23.6212 43.9513 22.9218 42.6923 22.0125 41.2933C21.7327 40.8037 21.383 40.3141 21.1032 39.7546C20.8234 39.265 20.5436 38.7753 20.3338 38.4256C19.3546 36.7469 18.795 35.7677 18.4453 34.1589C18.1655 33.1098 18.0256 32.0606 18.0256 31.0114C18.0256 23.807 23.901 17.9316 31.1054 17.9316C38.3098 17.9316 44.1852 23.807 44.1852 31.0114C44.0453 32.0606 43.9054 33.1097 43.6256 34.2289Z" fill="white"/>
<path d="M59.7825 29.6123H53.977C53.2076 29.6123 52.5781 30.2418 52.5781 31.0112C52.5781 31.7806 53.2076 32.4101 53.977 32.4101H59.7825C60.5519 32.4101 61.1814 31.7806 61.1814 31.0112C61.1814 30.2418 60.5519 29.6123 59.7825 29.6123Z" fill="white"/>
<path d="M47.1929 16.1829C47.5426 16.1829 47.8923 16.043 48.1721 15.7632L52.2989 11.6364C52.8584 11.0769 52.8584 10.2375 52.2989 9.67797C51.7393 9.11841 50.9 9.11841 50.3404 9.67797L46.2136 13.8047C45.6541 14.3643 45.6541 15.2036 46.2136 15.7632C46.4934 16.043 46.8431 16.1829 47.1929 16.1829Z" fill="white"/>
<path d="M30.9643 9.3982C31.7337 9.3982 32.3632 8.76869 32.3632 7.99929V2.19383C32.3632 1.42443 31.7337 0.794922 30.9643 0.794922C30.1949 0.794922 29.5654 1.42443 29.5654 2.19383V7.99929C29.5654 8.76869 30.1949 9.3982 30.9643 9.3982Z" fill="white"/>
<path d="M13.7584 15.7632C14.0382 16.043 14.3879 16.1829 14.7376 16.1829C15.0873 16.1829 15.4371 16.043 15.7168 15.7632C16.2764 15.2036 16.2764 14.3643 15.7168 13.8047L11.59 9.67797C11.0305 9.11841 10.1911 9.11841 9.63159 9.67797C9.07202 10.2375 9.07202 11.0769 9.63159 11.6364L13.7584 15.7632Z" fill="white"/>
<path d="M8.02273 29.6123H2.21727C1.44787 29.6123 0.818359 30.2418 0.818359 31.0112C0.818359 31.7806 1.44787 32.4101 2.21727 32.4101H8.02273C8.79213 32.4101 9.42164 31.7806 9.42164 31.0112C9.42164 30.2418 8.79213 29.6123 8.02273 29.6123Z" fill="white"/>
<path d="M13.7584 46.2595L9.63159 50.3863C9.07202 50.9458 9.07202 51.7852 9.63159 52.3448C9.91137 52.6246 10.2611 52.7644 10.6108 52.7644C10.9606 52.7644 11.3103 52.6246 11.59 52.3448L15.7168 48.218C16.2764 47.6584 16.2764 46.8191 15.7168 46.2595C15.1573 45.7 14.248 45.7 13.7584 46.2595Z" fill="white"/>
<path d="M48.1721 46.2595C47.6125 45.7 46.7732 45.7 46.2136 46.2595C45.6541 46.8191 45.6541 47.6584 46.2136 48.218L50.3404 52.3448C50.6202 52.6246 50.9699 52.7644 51.3196 52.7644C51.6694 52.7644 52.0191 52.6246 52.2989 52.3448C52.8584 51.7852 52.8584 50.9458 52.2989 50.3863L48.1721 46.2595Z" fill="white"/>
</svg>
