<svg width="64" height="65" viewBox="0 0 64 65" fill="none" xmlns="http://www.w3.org/2000/svg">
<g clip-path="url(#clip0_858_2019)">
<g clip-path="url(#clip1_858_2019)">
<path d="M4 28.8047C5.08333 28.8047 6.11458 28.5964 7.09375 28.1797C8.07292 27.763 8.91667 27.1901 9.625 26.4609C10.3333 25.7318 10.9062 24.888 11.3438 23.9297C11.7812 22.9714 12 21.9297 12 20.8047C12 19.3255 11.9688 17.8464 11.9062 16.3672C11.8438 14.888 11.8854 13.4505 12.0312 12.0547C12.1771 10.6589 12.5104 9.29427 13.0312 7.96094C13.5521 6.6276 14.375 5.40885 15.5 4.30469C16.625 3.17969 17.9271 2.3151 19.4062 1.71094C20.8854 1.10677 22.4167 0.804688 24 0.804688V4.80469C22.8958 4.80469 21.8646 5.01302 20.9062 5.42969C19.9479 5.84635 19.1042 6.41927 18.375 7.14844C17.6458 7.8776 17.0729 8.73177 16.6562 9.71094C16.2396 10.6901 16.0208 11.7214 16 12.8047C16 13.9714 16.0208 15.1172 16.0625 16.2422C16.1042 17.3672 16.1146 18.4818 16.0938 19.5859C16.0729 20.6901 15.9688 21.7526 15.7812 22.7734C15.5938 23.7943 15.3125 24.7839 14.9375 25.7422C14.5625 26.7005 14.0208 27.5964 13.3125 28.4297C12.6042 29.263 11.7188 30.0547 10.6562 30.8047C11.7396 31.5339 12.625 32.3255 13.3125 33.1797C14 34.0339 14.5417 34.9297 14.9375 35.8672C15.3333 36.8047 15.6146 37.7839 15.7812 38.8047C15.9479 39.8255 16.0417 40.888 16.0625 41.9922C16.0833 43.0964 16.0833 44.2109 16.0625 45.3359C16.0417 46.4609 16.0208 47.6172 16 48.8047C16 49.9089 16.2083 50.9401 16.625 51.8984C17.0417 52.8568 17.6146 53.7005 18.3438 54.4297C19.0729 55.1589 19.9167 55.7318 20.875 56.1484C21.8333 56.5651 22.875 56.7839 24 56.8047V60.8047C22.4167 60.8047 20.8854 60.5026 19.4062 59.8984C17.9271 59.2943 16.625 58.4297 15.5 57.3047C14.375 56.1797 13.5625 54.9609 13.0625 53.6484C12.5625 52.3359 12.2292 50.9818 12.0625 49.5859C11.8958 48.1901 11.8438 46.7422 11.9062 45.2422C11.9688 43.7422 12 42.263 12 40.8047C12 39.7214 11.7917 38.6901 11.375 37.7109C10.9583 36.7318 10.3854 35.888 9.65625 35.1797C8.92708 34.4714 8.07292 33.8984 7.09375 33.4609C6.11458 33.0234 5.08333 32.8047 4 32.8047V28.8047ZM40 0.804688C41.5833 0.804688 43.1146 1.10677 44.5938 1.71094C46.0729 2.3151 47.375 3.17969 48.5 4.30469C49.625 5.42969 50.4375 6.64844 50.9375 7.96094C51.4375 9.27344 51.7708 10.6276 51.9375 12.0234C52.1042 13.4193 52.1562 14.8672 52.0938 16.3672C52.0312 17.8672 52 19.3464 52 20.8047C52 21.9089 52.2083 22.9401 52.625 23.8984C53.0417 24.8568 53.6146 25.7005 54.3438 26.4297C55.0729 27.1589 55.9167 27.7318 56.875 28.1484C57.8333 28.5651 58.875 28.7839 60 28.8047V32.8047C58.8958 32.8047 57.8646 33.013 56.9062 33.4297C55.9479 33.8464 55.1042 34.4193 54.375 35.1484C53.6458 35.8776 53.0729 36.7318 52.6562 37.7109C52.2396 38.6901 52.0208 39.7214 52 40.8047C52 42.2839 52.0312 43.763 52.0938 45.2422C52.1562 46.7214 52.1146 48.1589 51.9688 49.5547C51.8229 50.9505 51.4896 52.3151 50.9688 53.6484C50.4479 54.9818 49.625 56.2005 48.5 57.3047C47.375 58.4297 46.0729 59.2943 44.5938 59.8984C43.1146 60.5026 41.5833 60.8047 40 60.8047V56.8047C41.0833 56.8047 42.1146 56.5964 43.0938 56.1797C44.0729 55.763 44.9167 55.1901 45.625 54.4609C46.3333 53.7318 46.9062 52.888 47.3438 51.9297C47.7812 50.9714 48 49.9297 48 48.8047C48 47.638 47.9792 46.4922 47.9375 45.3672C47.8958 44.2422 47.8854 43.1276 47.9062 42.0234C47.9271 40.9193 48.0312 39.8568 48.2188 38.8359C48.4062 37.8151 48.6875 36.8255 49.0625 35.8672C49.4375 34.9089 49.9792 34.013 50.6875 33.1797C51.3958 32.3464 52.2812 31.5547 53.3438 30.8047C52.2604 30.0755 51.375 29.2839 50.6875 28.4297C50 27.5755 49.4583 26.6797 49.0625 25.7422C48.6667 24.8047 48.3854 23.8255 48.2188 22.8047C48.0521 21.7839 47.9583 20.7214 47.9375 19.6172C47.9167 18.513 47.9167 17.3984 47.9375 16.2734C47.9583 15.1484 47.9792 13.9922 48 12.8047C48 11.7214 47.7917 10.6901 47.375 9.71094C46.9583 8.73177 46.3854 7.88802 45.6562 7.17969C44.9271 6.47135 44.0729 5.89844 43.0938 5.46094C42.1146 5.02344 41.0833 4.80469 40 4.80469V0.804688Z" fill="white"/>
</g>
</g>
<defs>
<clipPath id="clip0_858_2019">
<rect width="64" height="64" fill="white" transform="translate(0 0.804688)"/>
</clipPath>
<clipPath id="clip1_858_2019">
<rect width="64" height="64" fill="white" transform="translate(0 0.804688)"/>
</clipPath>
</defs>
</svg>
