<svg width="64" height="65" viewBox="0 0 64 65" fill="none" xmlns="http://www.w3.org/2000/svg">
<g clip-path="url(#clip0_858_2024)">
<path d="M16.8278 33.4663C17.8796 31.3628 19.0252 29.3362 20.2646 27.3865C21.5064 25.4369 22.8748 23.5313 24.3698 21.6698L19.162 20.6079C18.8137 20.5197 18.4767 20.531 18.151 20.6418C17.8253 20.7527 17.5312 20.937 17.2689 21.1948L9.03817 29.4289C8.90698 29.5579 8.86288 29.7094 8.90585 29.8836C8.94883 30.0577 9.05739 30.1889 9.23155 30.2771L16.8278 33.4663ZM55.6879 8.11936C50.4676 8.49256 45.8705 9.64042 41.8965 11.563C37.9225 13.4855 34.1849 16.1974 30.6836 19.6987C28.1821 22.2047 25.9983 24.8149 24.1323 27.529C22.2663 30.2432 20.7283 32.9404 19.5182 35.6206L29.123 45.205C31.8032 43.995 34.5106 42.4569 37.2451 40.591C39.9796 38.725 42.6011 36.5389 45.1094 34.0328C48.6107 30.5316 51.3226 26.8086 53.2451 22.8641C55.1677 18.9195 56.3155 14.3371 56.6887 9.11682C56.6887 8.97885 56.6785 8.85105 56.6582 8.73344C56.6378 8.61583 56.5655 8.49369 56.4411 8.36703C56.3167 8.24037 56.1945 8.16799 56.0746 8.1499C55.9548 8.1318 55.827 8.12049 55.6913 8.11597M37.5539 27.2373C36.5587 26.2398 36.0611 25.0444 36.0611 23.6512C36.0611 22.2579 36.5587 21.0625 37.5539 20.0651C38.549 19.0676 39.7478 18.57 41.1501 18.5723C42.5524 18.5745 43.7501 19.0721 44.743 20.0651C45.7359 21.058 46.2335 22.2534 46.2358 23.6512C46.2381 25.049 45.7405 26.2432 44.743 27.2339C43.7455 28.2245 42.5468 28.7221 41.1467 28.7267C39.7467 28.7312 38.5479 28.2336 37.5505 27.2339M31.274 47.9565L34.4665 55.5731C34.5547 55.745 34.6848 55.8423 34.8567 55.8649C35.0286 55.8875 35.1812 55.8332 35.3147 55.7021L43.5488 47.5324C43.8089 47.2723 43.9932 46.9783 44.1018 46.6503C44.2126 46.3246 44.2239 45.9887 44.1357 45.6427L43.0738 40.4349C41.2123 41.9322 39.3068 43.2972 37.3571 44.5299C35.4074 45.7626 33.3774 46.9048 31.274 47.9565ZM59.9355 7.62403C59.9084 13.2785 58.8363 18.4943 56.7193 23.2712C54.6022 28.0481 51.4436 32.5355 47.2434 36.7334C47.0263 36.9506 46.8193 37.1462 46.6226 37.3204C46.4258 37.4945 46.22 37.6902 46.0051 37.9073L47.4402 44.937C47.6212 45.8508 47.5759 46.7363 47.3045 47.5935C47.0308 48.4485 46.5626 49.2062 45.8999 49.8666L36.4512 59.3153C35.7772 59.9893 34.955 60.2381 33.9847 60.0617C33.0167 59.8875 32.3494 59.3436 31.983 58.4298L27.9186 48.8454L15.8948 36.7538L6.31043 32.6893C5.39666 32.3252 4.85948 31.658 4.6989 30.6876C4.53831 29.7173 4.79502 28.8952 5.46904 28.2211L14.9143 18.7725C15.5748 18.112 16.337 17.6563 17.201 17.4052C18.0628 17.1519 18.9505 17.1168 19.8643 17.3L26.8906 18.7351C27.1077 18.518 27.2932 18.3224 27.447 18.1482C27.5985 17.974 27.7829 17.7784 28 17.5613C32.1979 13.3634 36.6853 10.1946 41.4623 8.0549C46.2392 5.91523 51.456 4.83183 57.1128 4.80469C57.477 4.81826 57.8309 4.89064 58.1747 5.02182C58.5185 5.15301 58.8386 5.36788 59.1349 5.66644C59.4312 5.96499 59.6347 6.27373 59.7455 6.59264C59.8564 6.91156 59.9174 7.25535 59.9288 7.62403M8.72943 46.4162C10.0571 45.0908 11.6698 44.4349 13.5674 44.4485C15.4651 44.462 17.0777 45.1338 18.4054 46.4637C19.7331 47.7937 20.3936 49.4063 20.3868 51.3017C20.38 53.2016 19.7128 54.8143 18.3851 56.1397C16.4987 58.0261 14.2799 59.2135 11.7286 59.7021C9.17727 60.1883 6.60107 60.5559 4 60.8047C4.2488 58.1584 4.62765 55.5709 5.13656 53.0422C5.64546 50.5135 6.84083 48.3048 8.72943 46.4162ZM11.1518 48.8827C10.1453 49.8892 9.44756 51.071 9.05852 52.4281C8.66949 53.7852 8.38338 55.192 8.20017 56.6486C9.65903 56.4654 11.067 56.1714 12.4241 55.7665C13.7812 55.3617 14.9618 54.6571 15.9661 53.6529C16.6446 52.9743 16.9907 52.1657 17.0042 51.2271C17.0156 50.2862 16.6819 49.4764 16.0034 48.7979C15.3249 48.1194 14.5163 47.7948 13.5776 47.8242C12.639 47.8513 11.8304 48.2042 11.1518 48.8827Z" fill="white"/>
</g>
<defs>
<clipPath id="clip0_858_2024">
<rect width="64" height="64" fill="white" transform="translate(0 0.804688)"/>
</clipPath>
</defs>
</svg>
