<svg width="48" height="49" viewBox="0 0 48 49" fill="none" xmlns="http://www.w3.org/2000/svg">
<g clip-path="url(#clip0_858_1822)">
<path d="M49.129 44.3662C49.129 44.5286 49.0653 44.6828 48.9501 44.798L45.5825 48.141C45.4612 48.2623 45.3091 48.3198 45.1508 48.3198C44.9925 48.3198 44.8342 48.2623 44.719 48.141C44.4826 47.8984 44.4826 47.5139 44.7252 47.2775L47.0361 44.983H36.5386C36.2014 44.983 35.928 44.7096 35.928 44.3724C35.928 44.0352 36.2014 43.7618 36.5386 43.7618H47.0545L44.7436 41.4344C44.5072 41.1918 44.5072 40.8074 44.7498 40.5709C44.9924 40.3345 45.3768 40.3345 45.6133 40.5771L48.9562 43.9447C49.0652 44.0455 49.129 44.2038 49.129 44.3662ZM45.2905 23.9176C45.2905 18.3502 43.138 13.097 39.2273 9.1333C35.5801 5.43264 30.7899 3.24325 25.6477 2.90799L27.1732 1.35987C27.4097 1.11726 27.4097 0.732809 27.1671 0.496386C26.9245 0.259952 26.54 0.259952 26.3036 0.502554L23.7933 3.03958C23.6782 3.15471 23.6144 3.31301 23.6144 3.47132C23.6144 3.63374 23.6823 3.78793 23.7995 3.90307L26.3365 6.41335C26.4578 6.52848 26.6099 6.59222 26.7682 6.59222C26.9265 6.59222 27.0848 6.52848 27.2041 6.40718C27.4405 6.16458 27.4405 5.78013 27.1979 5.5437L25.7814 4.14358C35.9704 4.94333 44.0647 13.5637 44.0647 23.9174C44.0647 34.8549 35.1646 43.755 24.2272 43.755H0.610637C0.273466 43.755 0 44.0284 0 44.3656C0 44.7028 0.273439 44.9762 0.610637 44.9762H24.2272C35.843 44.9762 45.2905 35.5298 45.2905 23.9176ZM11.1434 40.4188C11.2544 40.5093 11.3901 40.5504 11.5217 40.5504C11.7006 40.5504 11.8794 40.4723 12.0007 40.3181C12.2104 40.0549 12.1693 39.6705 11.9 39.4608C7.12611 35.6717 4.3894 30.0033 4.3894 23.918C4.3894 14.7074 10.6373 6.77575 19.5785 4.62942C19.9054 4.55129 20.111 4.21823 20.0308 3.89341C19.9527 3.56652 19.6196 3.36093 19.2948 3.4411C14.7738 4.52458 10.6784 7.1356 7.7631 10.7891C4.75734 14.5514 3.16806 19.0949 3.16806 23.9202C3.17012 30.3819 6.07514 36.3977 11.1429 40.4193L11.1434 40.4188ZM17.7698 16.2081C18.6374 15.4865 19.6119 14.9231 20.6748 14.5346L20.8331 11.6933C20.8496 11.3664 21.1168 11.1135 21.4437 11.1135H26.8922C27.2191 11.1135 27.4864 11.3664 27.5028 11.6933L27.6612 14.5346C28.1875 14.7299 28.6974 14.9704 29.1825 15.25C29.6677 15.5296 30.1344 15.8545 30.5662 16.2081L33.1073 14.9231C33.3972 14.7751 33.7488 14.882 33.9132 15.1657L36.6394 19.882C36.8018 20.1617 36.7175 20.5235 36.4441 20.6983L34.0592 22.2566C34.2484 23.373 34.2484 24.4997 34.0592 25.614L36.4441 27.1724C36.7175 27.3512 36.8018 27.709 36.6394 27.9886L33.9132 32.7049C33.7508 32.9845 33.3972 33.0894 33.1073 32.9475L30.5662 31.6625C29.6986 32.3842 28.7241 32.9475 27.6612 33.3361L27.5028 36.1774C27.4864 36.5043 27.2191 36.7572 26.8922 36.7572L21.448 36.7551C21.1211 36.7551 20.8538 36.5022 20.8373 36.1753L20.679 33.334C20.1527 33.1387 19.6428 32.8982 19.1576 32.6185C18.6724 32.3389 18.2057 32.0141 17.774 31.6605L15.2329 32.9454C14.943 33.0935 14.5914 32.9866 14.427 32.7028L11.7008 27.9865C11.5384 27.7069 11.6227 27.3451 11.8961 27.1703L14.281 25.6119C14.0918 24.4956 14.0918 23.3689 14.281 22.2546L11.8961 20.6962C11.6227 20.5173 11.5384 20.1596 11.7008 19.88L14.427 15.1637C14.5894 14.8841 14.943 14.7792 15.2329 14.9211L17.7698 16.2081ZM17.5847 17.4828L15.1957 16.278L13.0493 19.9931L15.2924 21.461C15.5021 21.5988 15.609 21.8558 15.5555 22.0984C15.2985 23.3134 15.2985 24.5511 15.5555 25.7723C15.609 26.0191 15.5021 26.2719 15.2924 26.4097L13.0493 27.8776L15.1957 31.5927L17.5847 30.3879C17.8109 30.2728 18.0802 30.3098 18.2694 30.4784C18.7279 30.8896 19.2315 31.2576 19.764 31.5619C20.3006 31.8723 20.8701 32.1252 21.454 32.3143C21.6966 32.3925 21.859 32.6083 21.8755 32.8612L22.0235 35.5339H26.3121L26.4602 32.8551C26.4766 32.6022 26.6452 32.3863 26.8816 32.3082C28.072 31.9237 29.1391 31.3028 30.0663 30.4722C30.2555 30.3036 30.5248 30.2666 30.7509 30.3817L33.14 31.5865L35.2863 27.8715L33.0433 26.4035C32.8336 26.2658 32.7267 26.0088 32.7802 25.7662C33.0372 24.5511 33.0372 23.3134 32.7802 22.0922C32.7267 21.8455 32.8336 21.5926 33.0433 21.4549L35.2863 19.9869L33.14 16.2718L30.7509 17.4766C30.5248 17.5918 30.2555 17.5548 30.0663 17.3862C29.6078 16.975 29.1041 16.607 28.5717 16.3027C28.0351 15.9922 27.4655 15.7394 26.8817 15.5502C26.6391 15.4721 26.4767 15.2562 26.4602 15.0033L26.3122 12.3306H22.0235L21.8755 15.0033C21.8591 15.2562 21.6905 15.4721 21.454 15.5502C20.2637 15.9347 19.1966 16.5556 18.2694 17.3862C18.0864 17.5609 17.813 17.5979 17.5847 17.4828ZM19.5646 26.5966C18.8532 25.3651 18.6641 23.9341 19.0321 22.5587C19.4001 21.1853 20.2801 20.0381 21.5116 19.3268C22.7431 18.6154 24.174 18.4263 25.5494 18.7943C26.9228 19.1623 28.07 20.0422 28.7814 21.2737C29.4927 22.5052 29.6818 23.9362 29.3138 25.3116C28.9458 26.685 28.0659 27.8322 26.8344 28.5435C26.0141 29.0164 25.1033 29.259 24.1822 29.259C23.7196 29.259 23.255 29.1953 22.7986 29.074C21.4231 28.708 20.2759 27.8301 19.5646 26.5966ZM20.6234 25.988C21.1703 26.9358 22.0544 27.6142 23.1132 27.898C24.172 28.1817 25.276 28.0357 26.2238 27.4868C27.1716 26.9399 27.85 26.0558 28.1338 24.997C28.4175 23.9382 28.2715 22.8342 27.7226 21.8864C27.1757 20.9386 26.2916 20.2602 25.2328 19.9764C24.8792 19.8818 24.5215 19.8346 24.1638 19.8346C23.4524 19.8346 22.7534 20.0196 22.1222 20.3876C21.1744 20.9345 20.496 21.8186 20.2123 22.8774C19.9285 23.9341 20.0745 25.0341 20.6234 25.988Z" fill="#6D4DF2"/>
</g>
<defs>
<clipPath id="clip0_858_1822">
<rect width="48" height="48" fill="white" transform="translate(0 0.319824)"/>
</clipPath>
</defs>
</svg>
