<svg width="61" height="61" viewBox="0 0 61 61" fill="none" xmlns="http://www.w3.org/2000/svg">
<path d="M30.7505 54.2291C17.7131 54.2291 7.10645 43.6224 7.10645 30.585C7.10645 17.5476 17.7131 6.94092 30.7505 6.94092C43.7879 6.94092 54.3946 17.5476 54.3946 30.585C54.3946 43.6224 43.7879 54.2291 30.7505 54.2291ZM30.7505 8.46634C18.5542 8.46634 8.63187 18.3887 8.63187 30.585C8.63187 42.7813 18.5542 52.7036 30.7505 52.7036C42.9468 52.7036 52.8692 42.7813 52.8692 30.585C52.8692 18.3887 42.9468 8.46634 30.7505 8.46634Z" fill="white"/>
<path d="M30.7503 46.6019C21.9185 46.6019 14.7334 39.4168 14.7334 30.585C14.7334 30.1638 15.0748 29.8223 15.4961 29.8223C15.9174 29.8223 16.2588 30.1638 16.2588 30.585C16.2588 38.5755 22.7597 45.0765 30.7503 45.0765C36.5114 45.0765 41.7258 41.665 44.0346 36.3854C44.2034 35.9996 44.6527 35.8233 45.039 35.9922C45.4249 36.1609 45.601 36.6107 45.4322 36.9966C42.8805 42.8316 37.1176 46.6019 30.7503 46.6019Z" fill="white"/>
<path d="M46.0044 31.3478C45.5833 31.3478 45.2417 31.0062 45.2417 30.5851C45.2417 22.5944 38.7407 16.0935 30.7502 16.0935C25.1018 16.0935 19.9292 19.4118 17.5723 24.5473C17.3966 24.9302 16.9438 25.098 16.561 24.9223C16.1782 24.7466 16.0101 24.2938 16.186 23.911C18.7907 18.2355 24.5076 14.5681 30.7502 14.5681C39.582 14.5681 46.7671 21.7532 46.7671 30.5851C46.7671 31.0062 46.4256 31.3478 46.0044 31.3478Z" fill="white"/>
<path d="M30.7489 40.2461C25.4217 40.2461 21.0879 35.9121 21.0879 30.5851C21.0879 25.2579 25.4217 20.9241 30.7489 20.9241C36.0759 20.9241 40.4099 25.2579 40.4099 30.5851C40.4099 35.9121 36.0759 40.2461 30.7489 40.2461ZM30.7489 22.4495C26.2629 22.4495 22.6133 26.0991 22.6133 30.5851C22.6133 35.0711 26.2629 38.7207 30.7489 38.7207C35.2349 38.7207 38.8845 35.0711 38.8845 30.5851C38.8845 26.0991 35.2349 22.4495 30.7489 22.4495Z" fill="white"/>
<path d="M30.751 28.8053C30.3298 28.8053 29.9883 28.4637 29.9883 28.0426V1.34767C29.9883 0.926529 30.3298 0.584961 30.751 0.584961C31.1721 0.584961 31.5137 0.926529 31.5137 1.34767V28.0426C31.5137 28.4637 31.1721 28.8053 30.751 28.8053Z" fill="white"/>
<path d="M30.751 60.5851C30.3298 60.5851 29.9883 60.2436 29.9883 59.8224V34.3987C29.9883 33.9776 30.3298 33.636 30.751 33.636C31.1721 33.636 31.5137 33.9776 31.5137 34.3987V59.8224C31.5137 60.2436 31.1721 60.5851 30.751 60.5851Z" fill="white"/>
<path d="M59.9879 31.3477H33.293C32.8718 31.3477 32.5303 31.0061 32.5303 30.585C32.5303 30.1638 32.8718 29.8223 33.293 29.8223H59.9879C60.409 29.8223 60.7506 30.1638 60.7506 30.585C60.7506 31.0061 60.409 31.3477 59.9879 31.3477Z" fill="white"/>
<path d="M26.9364 31.3477H1.51271C1.09157 31.3477 0.75 31.0061 0.75 30.585C0.75 30.1638 1.09157 29.8223 1.51271 29.8223H26.9364C27.3576 29.8223 27.6992 30.1638 27.6992 30.585C27.6992 31.0061 27.3576 31.3477 26.9364 31.3477Z" fill="white"/>
</svg>
