<svg width="48" height="49" viewBox="0 0 48 49" fill="none" xmlns="http://www.w3.org/2000/svg">
<g clip-path="url(#clip0_858_2457)">
<path d="M40.1331 26.8855C42.2099 26.8855 44.1664 26.0723 45.6583 24.5907C47.1664 23.0886 48 21.0955 48 18.9757C48 16.7584 47.1074 14.7081 45.4912 13.196C44.0096 11.8142 42.1162 11.0683 40.1069 11.0683H40.0905C39.8093 9.45004 39.0002 7.96841 37.7733 6.85362C36.4017 5.60228 34.6225 4.91338 32.7638 4.91338C31.2719 4.91338 29.8107 5.36786 28.5838 6.19732C27.8481 4.64229 26.7211 3.30737 25.2924 2.3047C23.6192 1.13283 21.6463 0.51123 19.5919 0.51123C17.3949 0.51123 15.308 1.21641 13.5653 2.54517C12.0001 3.73535 10.8099 5.38822 10.174 7.2408C7.59591 7.15112 5.06669 8.08658 3.1671 9.8332C1.15351 11.6878 0 14.321 0 17.0603C0 19.6955 1.0333 22.1676 2.90623 24.0364C4.61815 25.7382 6.83553 26.7225 9.19785 26.8652L5.16457 31.0595C5.06063 31.1696 5.00356 31.3143 5.00356 31.4671V35.5371C3.52804 35.8143 2.40505 37.1084 2.40505 38.6614C2.40505 40.4141 3.83373 41.8448 5.58848 41.8448C7.3412 41.8448 8.77191 40.4162 8.77191 38.6614C8.77191 37.1064 7.65101 35.8123 6.1734 35.5371V31.7015L10.7957 26.8917H16.8791V32.574L13.6122 37.29C13.5449 37.3898 13.5082 37.504 13.5082 37.6242V42.2098C12.0327 42.487 10.9097 43.7811 10.9097 45.3341C10.9097 47.0868 12.3384 48.5176 14.0931 48.5176C15.8459 48.5176 17.2766 47.0889 17.2766 45.3341C17.2766 43.7791 16.1557 42.485 14.6781 42.2098V37.8056L17.945 33.0896C18.0123 32.9897 18.049 32.8756 18.049 32.7554L18.0469 26.8858H23.4151V38.2967C21.9395 38.5739 20.8166 39.868 20.8166 41.421C20.8166 43.1738 22.2452 44.6045 24 44.6045C25.7527 44.6045 27.1834 43.1758 27.1834 41.421C27.1834 39.866 26.0625 38.5719 24.5849 38.2967V26.8858H29.9531V32.7491C29.9531 32.8693 29.9897 32.9835 30.057 33.0833L33.324 37.7994V42.2036C31.8484 42.4807 30.7254 43.7749 30.7254 45.3279C30.7254 47.0806 32.1541 48.5113 33.9089 48.5113C35.6616 48.5113 37.0923 47.0826 37.0923 45.3279C37.0923 43.7728 35.9714 42.4787 34.4938 42.2036V37.618C34.4938 37.4977 34.4571 37.3836 34.3899 37.2837L31.1229 32.5677L31.1209 26.8855H37.2043L41.8266 31.6952V35.5308C40.3511 35.808 39.2281 37.1022 39.2281 38.6552C39.2281 40.4079 40.6567 41.8386 42.4115 41.8386C44.1642 41.8386 45.5949 40.4099 45.5949 38.6552C45.5949 37.1001 44.474 35.806 42.9964 35.5308V31.4609C42.9964 31.3101 42.9393 31.1633 42.8354 31.0533L38.8286 26.8855H40.08L40.1331 26.8855ZM7.59604 38.6553C7.59604 39.7661 6.69318 40.6689 5.58245 40.6689C4.47173 40.6689 3.56886 39.7661 3.56886 38.6553C3.56886 37.5446 4.47173 36.6418 5.58245 36.6418C6.69318 36.6418 7.59604 37.5446 7.59604 38.6553ZM16.1009 45.3278C16.1009 46.4386 15.198 47.3414 14.0873 47.3414C12.9766 47.3414 12.0737 46.4386 12.0737 45.3278C12.0737 44.2171 12.9766 43.3142 14.0873 43.3142C15.198 43.3142 16.1009 44.2171 16.1009 45.3278ZM26.0139 41.427C26.0139 42.5377 25.111 43.4406 24.0003 43.4406C22.8895 43.4406 21.9867 42.5377 21.9867 41.427C21.9867 40.3163 22.8895 39.4134 24.0003 39.4134C25.111 39.4114 26.0139 40.3143 26.0139 41.427ZM35.9269 45.3278C35.9269 46.4386 35.024 47.3414 33.9133 47.3414C32.8025 47.3414 31.8997 46.4386 31.8997 45.3278C31.8997 44.2171 32.8025 43.3142 33.9133 43.3142C35.024 43.3142 35.9269 44.2171 35.9269 45.3278ZM44.4317 38.6553C44.4317 39.7661 43.5288 40.6689 42.4181 40.6689C41.3074 40.6689 40.4045 39.7661 40.4045 38.6553C40.4045 37.5446 41.3074 36.6418 42.4181 36.6418C43.5288 36.6418 44.4317 37.5446 44.4317 38.6553ZM1.16825 17.0601C1.16825 14.6125 2.15871 12.3543 3.96037 10.6955C5.75995 9.03651 8.10369 8.23351 10.5452 8.43735C10.8224 8.45773 11.0771 8.28653 11.1566 8.01548C12.2368 4.28996 15.7055 1.68733 19.5942 1.68733C23.2096 1.68733 26.5072 3.95772 27.8011 7.33252C27.8683 7.50983 28.0212 7.64026 28.2026 7.69326C28.386 7.74013 28.5837 7.69326 28.7243 7.57301C29.8514 6.61923 31.2861 6.09139 32.7678 6.09139C36.0082 6.09139 38.6842 8.51663 39.002 11.7366C39.0326 12.0504 39.3097 12.2848 39.6236 12.2644C41.5128 12.134 43.3124 12.776 44.6901 14.064C46.0678 15.352 46.8301 17.1007 46.8301 18.9899C46.8301 20.7956 46.1208 22.4954 44.8328 23.7752C43.555 25.0429 41.8736 25.7419 40.0903 25.7256H9.82961H9.78274C7.50828 25.7256 5.35815 24.833 3.72955 23.2107C2.08076 21.5578 1.16772 19.3771 1.16772 17.06L1.16825 17.0601Z" fill="#8C71FF"/>
</g>
<defs>
<clipPath id="clip0_858_2457">
<rect width="48" height="48.0063" fill="white" transform="translate(0 0.51123)"/>
</clipPath>
</defs>
</svg>
