<svg width="61" height="61" viewBox="0 0 61 61" fill="none" xmlns="http://www.w3.org/2000/svg">
<path fill-rule="evenodd" clip-rule="evenodd" d="M40.6384 14.6563C40.6384 22.4112 34.3317 28.7179 26.5768 28.7179C18.822 28.7179 12.5152 22.4112 12.5152 14.6563C12.5152 6.90149 18.822 0.594727 26.5768 0.594727C34.3317 0.594727 40.6384 6.90149 40.6384 14.6563ZM39.2094 14.6563C39.2094 7.69222 33.5409 2.02375 26.5768 2.02375C19.6127 2.02375 13.9442 7.69222 13.9442 14.6563C13.9442 21.6205 19.6127 27.2889 26.5768 27.2889C33.5409 27.2889 39.2094 21.6205 39.2094 14.6563ZM37.7336 56.2981H41.0965C41.4967 56.2981 41.811 56.622 41.8206 57.0126V59.8802C41.8206 60.2708 41.4967 60.5947 41.1061 60.5947H12.0587C11.6681 60.5947 11.3442 60.2708 11.3442 59.8802V57.0126C11.3442 56.622 11.6681 56.2981 12.0587 56.2981H15.4217L17.6034 52.1158H4.48491C2.28421 52.1158 0.493164 50.3248 0.493164 48.1241V16.0187C0.493164 13.818 2.28421 12.0269 4.48491 12.0269H10.4963C10.8869 12.0269 11.2109 12.3508 11.2109 12.7414C11.2109 13.132 10.8869 13.456 10.4963 13.456H4.48491C3.07494 13.456 1.92219 14.6087 1.92219 16.0187V48.1241C1.92219 49.5341 3.07494 50.6868 4.48491 50.6868H36.3045C36.6951 50.6868 37.019 51.0107 37.019 51.4013C37.019 51.7919 36.6951 52.1158 36.3045 52.1158H35.5519L37.7336 56.2981ZM33.9419 52.1158H19.2134L17.0317 56.2981H36.1235L33.9419 52.1158ZM12.7637 59.1657H40.382V57.7272H12.7637V59.1657ZM60.3119 32.4431C53.5098 32.0906 49.7086 26.8318 49.6705 26.7746C49.5371 26.5841 49.318 26.4698 49.0893 26.4698C48.8607 26.4698 48.6416 26.5841 48.5082 26.7746C48.4701 26.8318 44.6594 32.0906 37.8572 32.4431C37.4761 32.4621 37.1808 32.7765 37.1808 33.1576V47.1906C37.1808 48.3243 37.5238 49.4008 38.162 50.325C39.8769 52.7924 43.5828 56.2697 48.8035 58.6228C48.8988 58.6609 48.9941 58.6895 49.0989 58.6895C49.2037 58.6895 49.2989 58.6705 49.3942 58.6228C54.6149 56.2697 58.3113 52.7924 60.0261 50.325C60.6644 49.4008 61.0074 48.3243 61.0074 47.1906V33.1576C60.9883 32.7765 60.693 32.4621 60.3119 32.4431ZM59.5593 47.1906C59.5593 48.029 59.3116 48.8292 58.8353 49.5056C57.2538 51.773 53.8813 54.955 49.0798 57.1748C44.2783 54.9455 40.8962 51.7635 39.3148 49.5056C38.8385 48.8292 38.5908 48.029 38.5908 47.1906V33.8245C44.183 33.291 47.746 29.8613 49.0798 28.337C50.404 29.8708 53.9671 33.291 59.5593 33.8245V47.1906ZM40.5916 34.9585C44.2499 34.1773 46.9651 32.2814 48.6037 30.8238C48.88 30.5856 49.2896 30.5856 49.5564 30.8238C51.195 32.2814 53.9101 34.1773 57.5684 34.9585C57.8923 35.0252 58.1305 35.3205 58.1305 35.6539V47.1909C58.1305 47.7339 57.9686 48.2484 57.6637 48.6866C56.349 50.5825 53.4909 53.3453 49.4039 55.4316C49.2991 55.4793 49.1943 55.5078 49.08 55.5078C48.9657 55.5078 48.8609 55.4888 48.7561 55.4316C44.6691 53.3357 41.8111 50.5729 40.4963 48.6866C40.1915 48.2484 40.0295 47.7339 40.0295 47.1909V35.6539C40.0295 35.3205 40.2582 35.0252 40.5916 34.9585ZM56.4919 47.8769C56.6253 47.6768 56.7015 47.4386 56.7015 47.1909V36.2255C53.348 35.3967 50.7758 33.72 49.08 32.3005C47.3842 33.72 44.812 35.3967 41.4586 36.2255V47.1909C41.4586 47.4386 41.5252 47.6768 41.6681 47.8769C42.7923 49.4964 45.3931 52.0401 49.08 53.9931C52.7669 52.0401 55.3677 49.4964 56.4919 47.8769ZM18.6984 13.3513C19.0795 13.4465 19.4701 13.2179 19.5654 12.8368C20.3942 9.6072 23.2999 7.35887 26.6248 7.35887C29.6543 7.35887 32.3218 9.24518 33.3983 12.0175L32.7314 11.6364C32.3885 11.4364 31.9502 11.5602 31.7597 11.9032C31.5596 12.2461 31.6835 12.6844 32.0265 12.8749L34.2748 14.161C34.3796 14.2277 34.5034 14.2563 34.6273 14.2563C34.694 14.2563 34.7511 14.2468 34.8178 14.2277C34.9988 14.1801 35.1608 14.0562 35.2465 13.8943L36.5327 11.6459C36.7327 11.303 36.6089 10.8647 36.2659 10.6742C35.9229 10.4741 35.4847 10.598 35.2942 10.941L34.8464 11.7317C33.6174 8.28297 30.3497 5.92985 26.6343 5.92985C22.6521 5.92985 19.1843 8.62594 18.1935 12.4843C18.0887 12.8559 18.3174 13.2465 18.6984 13.3513ZM26.6356 23.383C22.8058 23.383 19.4429 20.8775 18.3187 17.2478L17.8614 18.048C17.728 18.2767 17.4899 18.41 17.2422 18.41C17.1278 18.41 17.004 18.3815 16.8897 18.3148C16.5467 18.1242 16.4229 17.686 16.6229 17.343L17.909 15.0947C17.9948 14.9327 18.1567 14.8089 18.3378 14.7613C18.5188 14.7041 18.7188 14.7327 18.8808 14.828L21.1291 16.1141C21.4721 16.3046 21.5959 16.7428 21.3959 17.0858C21.2053 17.4288 20.7671 17.5526 20.4241 17.3526L19.7477 16.9715C20.7385 19.9248 23.4822 21.954 26.6356 21.954C29.9605 21.954 32.8662 19.6962 33.695 16.4761C33.7903 16.095 34.1809 15.8664 34.562 15.9616C34.943 16.0569 35.1717 16.4475 35.0764 16.8286C34.0856 20.687 30.6178 23.383 26.6356 23.383ZM44.7447 43.1894C44.4684 42.9131 44.0112 42.9131 43.7349 43.1894C43.4586 43.4656 43.4586 43.9229 43.7349 44.1992L46.5453 47.0096C46.6787 47.143 46.8597 47.2192 47.0502 47.2192C47.2407 47.2192 47.4218 47.143 47.5551 47.0096L54.4145 40.1503C54.6907 39.874 54.6907 39.4167 54.4145 39.1405C54.1382 38.8642 53.6809 38.8642 53.4046 39.1405L47.0502 45.4949L44.7447 43.1894ZM8.20953 32.024H21.3185C21.7091 32.024 22.033 32.3479 22.033 32.7385C22.033 33.1291 21.7091 33.453 21.3185 33.453H8.20953C7.8094 33.453 7.49502 33.1291 7.49502 32.7385C7.49502 32.3479 7.81893 32.024 8.20953 32.024ZM22.033 36.292C22.033 35.9014 21.7091 35.5775 21.3185 35.5775H8.20953C7.81893 35.5775 7.49502 35.9014 7.49502 36.292C7.49502 36.6826 7.81893 37.0065 8.20953 37.0065H21.3185C21.7091 37.0065 22.033 36.6826 22.033 36.292ZM7.49502 39.8362C7.49502 39.4456 7.81893 39.1217 8.20953 39.1217H16.2692C16.6598 39.1217 16.9837 39.4456 16.9837 39.8362C16.9837 40.2268 16.6598 40.5507 16.2692 40.5507H8.20953C7.81893 40.5507 7.49502 40.2268 7.49502 39.8362ZM35.7422 43.7515C35.7422 43.3609 35.4183 43.037 35.0277 43.037H5.74223V17.2765H10.4866C10.8772 17.2765 11.2011 16.9525 11.2011 16.5619C11.2011 16.1713 10.8772 15.8474 10.4866 15.8474H5.02771C4.63711 15.8474 4.3132 16.1713 4.3132 16.5619V43.7515C4.3132 44.1421 4.63711 44.466 5.02771 44.466H35.0277C35.4183 44.466 35.7422 44.1517 35.7422 43.7515ZM47.4126 17.2762H42.6587C42.2586 17.2762 41.9442 16.9618 41.9442 16.5712C41.9442 16.1806 42.2681 15.8567 42.6587 15.8567H48.1271C48.5177 15.8567 48.8416 16.1806 48.8416 16.5712V23.6497C48.8416 24.0403 48.5177 24.3547 48.1271 24.3547C47.7365 24.3547 47.4126 24.0308 47.4126 23.6402V17.2762ZM42.6587 13.456H48.6701C50.0801 13.456 51.2329 14.5992 51.2329 16.0187V26.1838C51.2329 26.5744 51.5568 26.8983 51.9474 26.8983C52.338 26.8983 52.6619 26.5744 52.6619 26.1838V16.0187C52.6619 13.818 50.8708 12.0269 48.6701 12.0269H42.6587C42.2681 12.0269 41.9442 12.3508 41.9442 12.7414C41.9442 13.132 42.2681 13.456 42.6587 13.456ZM26.5785 49.7249C25.3971 49.7249 24.4349 48.7627 24.4349 47.5814C24.4349 46.3905 25.3971 45.4378 26.5785 45.4378C27.7598 45.4378 28.722 46.4 28.722 47.5814C28.722 48.7627 27.7598 49.7249 26.5785 49.7249ZM26.5785 48.2959C26.9691 48.2959 27.293 47.972 27.293 47.5814C27.293 47.1812 26.9691 46.8669 26.5785 46.8669C26.1879 46.8669 25.8639 47.1908 25.8639 47.5814C25.8639 47.972 26.1879 48.2959 26.5785 48.2959Z" fill="black"/>
<path fill-rule="evenodd" clip-rule="evenodd" d="M40.6384 14.6563C40.6384 22.4112 34.3317 28.7179 26.5768 28.7179C18.822 28.7179 12.5152 22.4112 12.5152 14.6563C12.5152 6.90149 18.822 0.594727 26.5768 0.594727C34.3317 0.594727 40.6384 6.90149 40.6384 14.6563ZM39.2094 14.6563C39.2094 7.69222 33.5409 2.02375 26.5768 2.02375C19.6127 2.02375 13.9442 7.69222 13.9442 14.6563C13.9442 21.6205 19.6127 27.2889 26.5768 27.2889C33.5409 27.2889 39.2094 21.6205 39.2094 14.6563ZM37.7336 56.2981H41.0965C41.4967 56.2981 41.811 56.622 41.8206 57.0126V59.8802C41.8206 60.2708 41.4967 60.5947 41.1061 60.5947H12.0587C11.6681 60.5947 11.3442 60.2708 11.3442 59.8802V57.0126C11.3442 56.622 11.6681 56.2981 12.0587 56.2981H15.4217L17.6034 52.1158H4.48491C2.28421 52.1158 0.493164 50.3248 0.493164 48.1241V16.0187C0.493164 13.818 2.28421 12.0269 4.48491 12.0269H10.4963C10.8869 12.0269 11.2109 12.3508 11.2109 12.7414C11.2109 13.132 10.8869 13.456 10.4963 13.456H4.48491C3.07494 13.456 1.92219 14.6087 1.92219 16.0187V48.1241C1.92219 49.5341 3.07494 50.6868 4.48491 50.6868H36.3045C36.6951 50.6868 37.019 51.0107 37.019 51.4013C37.019 51.7919 36.6951 52.1158 36.3045 52.1158H35.5519L37.7336 56.2981ZM33.9419 52.1158H19.2134L17.0317 56.2981H36.1235L33.9419 52.1158ZM12.7637 59.1657H40.382V57.7272H12.7637V59.1657ZM60.3119 32.4431C53.5098 32.0906 49.7086 26.8318 49.6705 26.7746C49.5371 26.5841 49.318 26.4698 49.0893 26.4698C48.8607 26.4698 48.6416 26.5841 48.5082 26.7746C48.4701 26.8318 44.6594 32.0906 37.8572 32.4431C37.4761 32.4621 37.1808 32.7765 37.1808 33.1576V47.1906C37.1808 48.3243 37.5238 49.4008 38.162 50.325C39.8769 52.7924 43.5828 56.2697 48.8035 58.6228C48.8988 58.6609 48.9941 58.6895 49.0989 58.6895C49.2037 58.6895 49.2989 58.6705 49.3942 58.6228C54.6149 56.2697 58.3113 52.7924 60.0261 50.325C60.6644 49.4008 61.0074 48.3243 61.0074 47.1906V33.1576C60.9883 32.7765 60.693 32.4621 60.3119 32.4431ZM59.5593 47.1906C59.5593 48.029 59.3116 48.8292 58.8353 49.5056C57.2538 51.773 53.8813 54.955 49.0798 57.1748C44.2783 54.9455 40.8962 51.7635 39.3148 49.5056C38.8385 48.8292 38.5908 48.029 38.5908 47.1906V33.8245C44.183 33.291 47.746 29.8613 49.0798 28.337C50.404 29.8708 53.9671 33.291 59.5593 33.8245V47.1906ZM40.5916 34.9585C44.2499 34.1773 46.9651 32.2814 48.6037 30.8238C48.88 30.5856 49.2896 30.5856 49.5564 30.8238C51.195 32.2814 53.9101 34.1773 57.5684 34.9585C57.8923 35.0252 58.1305 35.3205 58.1305 35.6539V47.1909C58.1305 47.7339 57.9686 48.2484 57.6637 48.6866C56.349 50.5825 53.4909 53.3453 49.4039 55.4316C49.2991 55.4793 49.1943 55.5078 49.08 55.5078C48.9657 55.5078 48.8609 55.4888 48.7561 55.4316C44.6691 53.3357 41.8111 50.5729 40.4963 48.6866C40.1915 48.2484 40.0295 47.7339 40.0295 47.1909V35.6539C40.0295 35.3205 40.2582 35.0252 40.5916 34.9585ZM56.4919 47.8769C56.6253 47.6768 56.7015 47.4386 56.7015 47.1909V36.2255C53.348 35.3967 50.7758 33.72 49.08 32.3005C47.3842 33.72 44.812 35.3967 41.4586 36.2255V47.1909C41.4586 47.4386 41.5252 47.6768 41.6681 47.8769C42.7923 49.4964 45.3931 52.0401 49.08 53.9931C52.7669 52.0401 55.3677 49.4964 56.4919 47.8769ZM18.6984 13.3513C19.0795 13.4465 19.4701 13.2179 19.5654 12.8368C20.3942 9.6072 23.2999 7.35887 26.6248 7.35887C29.6543 7.35887 32.3218 9.24518 33.3983 12.0175L32.7314 11.6364C32.3885 11.4364 31.9502 11.5602 31.7597 11.9032C31.5596 12.2461 31.6835 12.6844 32.0265 12.8749L34.2748 14.161C34.3796 14.2277 34.5034 14.2563 34.6273 14.2563C34.694 14.2563 34.7511 14.2468 34.8178 14.2277C34.9988 14.1801 35.1608 14.0562 35.2465 13.8943L36.5327 11.6459C36.7327 11.303 36.6089 10.8647 36.2659 10.6742C35.9229 10.4741 35.4847 10.598 35.2942 10.941L34.8464 11.7317C33.6174 8.28297 30.3497 5.92985 26.6343 5.92985C22.6521 5.92985 19.1843 8.62594 18.1935 12.4843C18.0887 12.8559 18.3174 13.2465 18.6984 13.3513ZM26.6356 23.383C22.8058 23.383 19.4429 20.8775 18.3187 17.2478L17.8614 18.048C17.728 18.2767 17.4899 18.41 17.2422 18.41C17.1278 18.41 17.004 18.3815 16.8897 18.3148C16.5467 18.1242 16.4229 17.686 16.6229 17.343L17.909 15.0947C17.9948 14.9327 18.1567 14.8089 18.3378 14.7613C18.5188 14.7041 18.7188 14.7327 18.8808 14.828L21.1291 16.1141C21.4721 16.3046 21.5959 16.7428 21.3959 17.0858C21.2053 17.4288 20.7671 17.5526 20.4241 17.3526L19.7477 16.9715C20.7385 19.9248 23.4822 21.954 26.6356 21.954C29.9605 21.954 32.8662 19.6962 33.695 16.4761C33.7903 16.095 34.1809 15.8664 34.562 15.9616C34.943 16.0569 35.1717 16.4475 35.0764 16.8286C34.0856 20.687 30.6178 23.383 26.6356 23.383ZM44.7447 43.1894C44.4684 42.9131 44.0112 42.9131 43.7349 43.1894C43.4586 43.4656 43.4586 43.9229 43.7349 44.1992L46.5453 47.0096C46.6787 47.143 46.8597 47.2192 47.0502 47.2192C47.2407 47.2192 47.4218 47.143 47.5551 47.0096L54.4145 40.1503C54.6907 39.874 54.6907 39.4167 54.4145 39.1405C54.1382 38.8642 53.6809 38.8642 53.4046 39.1405L47.0502 45.4949L44.7447 43.1894ZM8.20953 32.024H21.3185C21.7091 32.024 22.033 32.3479 22.033 32.7385C22.033 33.1291 21.7091 33.453 21.3185 33.453H8.20953C7.8094 33.453 7.49502 33.1291 7.49502 32.7385C7.49502 32.3479 7.81893 32.024 8.20953 32.024ZM22.033 36.292C22.033 35.9014 21.7091 35.5775 21.3185 35.5775H8.20953C7.81893 35.5775 7.49502 35.9014 7.49502 36.292C7.49502 36.6826 7.81893 37.0065 8.20953 37.0065H21.3185C21.7091 37.0065 22.033 36.6826 22.033 36.292ZM7.49502 39.8362C7.49502 39.4456 7.81893 39.1217 8.20953 39.1217H16.2692C16.6598 39.1217 16.9837 39.4456 16.9837 39.8362C16.9837 40.2268 16.6598 40.5507 16.2692 40.5507H8.20953C7.81893 40.5507 7.49502 40.2268 7.49502 39.8362ZM35.7422 43.7515C35.7422 43.3609 35.4183 43.037 35.0277 43.037H5.74223V17.2765H10.4866C10.8772 17.2765 11.2011 16.9525 11.2011 16.5619C11.2011 16.1713 10.8772 15.8474 10.4866 15.8474H5.02771C4.63711 15.8474 4.3132 16.1713 4.3132 16.5619V43.7515C4.3132 44.1421 4.63711 44.466 5.02771 44.466H35.0277C35.4183 44.466 35.7422 44.1517 35.7422 43.7515ZM47.4126 17.2762H42.6587C42.2586 17.2762 41.9442 16.9618 41.9442 16.5712C41.9442 16.1806 42.2681 15.8567 42.6587 15.8567H48.1271C48.5177 15.8567 48.8416 16.1806 48.8416 16.5712V23.6497C48.8416 24.0403 48.5177 24.3547 48.1271 24.3547C47.7365 24.3547 47.4126 24.0308 47.4126 23.6402V17.2762ZM42.6587 13.456H48.6701C50.0801 13.456 51.2329 14.5992 51.2329 16.0187V26.1838C51.2329 26.5744 51.5568 26.8983 51.9474 26.8983C52.338 26.8983 52.6619 26.5744 52.6619 26.1838V16.0187C52.6619 13.818 50.8708 12.0269 48.6701 12.0269H42.6587C42.2681 12.0269 41.9442 12.3508 41.9442 12.7414C41.9442 13.132 42.2681 13.456 42.6587 13.456ZM26.5785 49.7249C25.3971 49.7249 24.4349 48.7627 24.4349 47.5814C24.4349 46.3905 25.3971 45.4378 26.5785 45.4378C27.7598 45.4378 28.722 46.4 28.722 47.5814C28.722 48.7627 27.7598 49.7249 26.5785 49.7249ZM26.5785 48.2959C26.9691 48.2959 27.293 47.972 27.293 47.5814C27.293 47.1812 26.9691 46.8669 26.5785 46.8669C26.1879 46.8669 25.8639 47.1908 25.8639 47.5814C25.8639 47.972 26.1879 48.2959 26.5785 48.2959Z" fill="url(#paint0_linear_858_2260)"/>
<defs>
<linearGradient id="paint0_linear_858_2260" x1="30.7503" y1="60.5947" x2="30.7503" y2="0.594727" gradientUnits="userSpaceOnUse">
<stop stop-color="#5934DF"/>
<stop offset="1" stop-color="#DB80EB"/>
</linearGradient>
</defs>
</svg>
