<svg width="61" height="61" viewBox="0 0 61 61" fill="none" xmlns="http://www.w3.org/2000/svg">
<path d="M43.7363 27.2312V21.6142C43.7363 17.2152 40.1587 13.6376 35.7597 13.6376H29.2334V1.31011C29.2334 0.910711 28.9076 0.584961 28.5082 0.584961H0.952685C0.553289 0.584961 0.227539 0.910711 0.227539 1.31011V28.8656C0.227539 29.265 0.553289 29.5908 0.952685 29.5908H13.2802V36.1171C13.2802 40.5161 16.8577 44.0937 21.2568 44.0937H26.922C27.0239 53.203 34.462 60.585 43.5945 60.585C52.7923 60.585 60.2729 53.1044 60.2729 43.9066C60.2729 34.7575 52.8655 27.3073 43.733 27.2312L43.7363 27.2312ZM1.67783 28.1405V2.03525H27.7831V13.6376H21.2568C16.8577 13.6376 13.2802 17.2152 13.2802 21.6142V28.1405H1.67783ZM14.7305 36.1171V21.6142C14.7305 18.0168 17.6594 15.0879 21.2568 15.0879H35.7597C39.357 15.0879 42.286 18.0168 42.286 21.6142V27.2822C34.1165 27.9195 27.5851 34.4657 26.9702 42.6437H21.2568C17.6595 42.6437 14.7305 39.7145 14.7305 36.1171ZM43.5949 59.1347C35.1991 59.1347 28.3668 52.3024 28.3668 43.9066C28.3668 35.5108 35.1991 28.6786 43.5949 28.6786C51.9907 28.6786 58.8229 35.5108 58.8229 43.9066C58.8229 52.3024 51.9907 59.1347 43.5949 59.1347Z" fill="white"/>
</svg>
