<svg width="44" height="49" viewBox="0 0 44 49" fill="none" xmlns="http://www.w3.org/2000/svg">
<g clip-path="url(#clip0_858_2501)">
<path fill-rule="evenodd" clip-rule="evenodd" d="M22.5763 6.75928C26.3375 6.90622 29.7291 8.49191 32.219 10.9817C34.8333 13.5959 36.4516 17.2102 36.4516 21.2001C36.4516 21.2531 36.4455 21.3042 36.4312 21.3531C36.3659 21.6082 36.1353 21.7939 35.8619 21.7899C35.8333 21.7899 35.8047 21.7878 35.7782 21.7837L8.23773 21.7817C8.20303 21.7878 8.16834 21.7919 8.13364 21.7919C7.8112 21.7919 7.54997 21.5307 7.54997 21.2082V21.2001C7.54997 17.2103 9.16834 13.5959 11.7826 10.9816C14.2683 8.49598 17.6559 6.91027 21.4133 6.76132L21.3867 4.12868C21.0745 4.03481 20.7949 3.86542 20.5725 3.64094C20.2194 3.28788 20.001 2.80012 20.001 2.26342C20.001 1.72468 20.2194 1.23896 20.5725 0.885899C20.9255 0.532844 21.4133 0.314453 21.95 0.314453C22.4887 0.314453 22.9744 0.532818 23.3275 0.885899C23.6826 1.23487 23.901 1.72264 23.901 2.25934C23.901 2.79809 23.6826 3.28584 23.3295 3.63686C23.1132 3.85319 22.8479 4.01849 22.5499 4.11441L22.5763 6.75928ZM23.36 27.706C23.4967 27.4142 23.8437 27.2877 24.1355 27.4224C24.4273 27.5591 24.5539 27.906 24.4192 28.1979L20.6437 36.2936C20.507 36.5855 20.16 36.712 19.8682 36.5773C19.5764 36.4406 19.4498 36.0936 19.5845 35.8018L23.36 27.706ZM25.6599 35.0855C25.3967 35.2712 25.0334 35.208 24.8477 34.9447C24.662 34.6814 24.7253 34.3182 24.9885 34.1325L27.9435 32.059C27.9558 32.0508 27.964 32.0427 27.966 32.0345C27.9701 32.0284 27.9721 32.0161 27.9721 32.0019C27.9721 31.9876 27.9701 31.9753 27.966 31.9692C27.9619 31.961 27.9538 31.9529 27.9435 31.9447L24.9885 29.8712C24.7253 29.6855 24.662 29.3223 24.8477 29.059C25.0334 28.7957 25.3967 28.7325 25.6599 28.9182L28.615 30.9917C28.7823 31.11 28.9129 31.259 29.0027 31.4304C29.0925 31.6039 29.1395 31.7978 29.1395 32.0019C29.1395 32.206 29.0925 32.3998 29.0027 32.5733C28.9129 32.7468 28.7823 32.8958 28.615 33.0121L25.6599 35.0855ZM19.0108 34.1325C19.2741 34.3182 19.3374 34.6815 19.1516 34.9447C18.9659 35.208 18.6027 35.2712 18.3394 35.0855L15.3844 33.0121C15.217 32.8937 15.0864 32.7447 14.9966 32.5733C14.9068 32.3998 14.8599 32.206 14.8599 32.0019C14.8599 31.7977 14.9068 31.6039 14.9966 31.4304C15.0864 31.2569 15.217 31.108 15.3844 30.9916L18.3394 28.9182C18.6027 28.7325 18.9659 28.7957 19.1516 29.059C19.3374 29.3222 19.2741 29.6855 19.0108 29.8712L16.0558 31.9447C16.0436 31.9529 16.0354 31.961 16.0334 31.9692C16.0293 31.9753 16.0272 31.9875 16.0272 32.0018C16.0272 32.0161 16.0293 32.0284 16.0334 32.0345C16.0374 32.0426 16.0456 32.0508 16.0558 32.059L19.0108 34.1325ZM22.5026 1.70874C22.3618 1.56793 22.1659 1.48018 21.9496 1.48018C21.7332 1.48018 21.5373 1.56793 21.3965 1.70874C21.2557 1.84956 21.1679 2.04547 21.1679 2.2618C21.1679 2.47812 21.2557 2.67404 21.3965 2.81486C21.5373 2.95567 21.7332 3.04342 21.9496 3.04342C22.1659 3.04342 22.3618 2.95567 22.5026 2.81486C22.6434 2.67404 22.7312 2.47813 22.7312 2.2618C22.7332 2.04548 22.6455 1.84956 22.5026 1.70874ZM12.4822 39.9431L31.5189 39.941C33.7801 35.7982 35.1944 30.221 35.2801 24.0536H8.72126C8.80493 30.221 10.221 35.8001 12.4822 39.9431ZM30.8392 41.1043L13.164 41.1063C15.5211 44.8593 18.623 47.1468 22.0006 47.1468C25.3781 47.1468 28.482 44.8571 30.8392 41.1043ZM27.6535 11.8784C26.9923 11.8784 26.3943 12.1458 25.9617 12.5784C25.5291 13.011 25.2617 13.609 25.2617 14.2702C25.2617 14.9294 25.5291 15.5294 25.9617 15.962C26.3943 16.3947 26.9923 16.662 27.6535 16.662C28.3147 16.662 28.9127 16.3947 29.3453 15.962C29.778 15.5294 30.0453 14.9314 30.0453 14.2702C30.0453 13.609 29.778 13.011 29.3453 12.5784C28.9107 12.1457 28.3127 11.8784 27.6535 11.8784ZM28.5188 13.4049C28.2963 13.1825 27.9902 13.0458 27.6535 13.0458C27.3148 13.0458 27.0086 13.1825 26.7862 13.4049C26.5637 13.6274 26.427 13.9335 26.427 14.2723C26.427 14.6111 26.5637 14.9172 26.7862 15.1376C27.0086 15.36 27.3147 15.4967 27.6535 15.4967C27.9923 15.4967 28.2984 15.36 28.5188 15.1376C28.7412 14.9151 28.878 14.609 28.878 14.2723C28.878 13.9335 28.7392 13.6254 28.5188 13.4049ZM16.3475 11.8784C15.6863 11.8784 15.0883 12.1458 14.6557 12.5784C14.223 13.011 13.9557 13.609 13.9557 14.2702C13.9557 14.9294 14.223 15.5294 14.6557 15.962C15.0883 16.3947 15.6863 16.662 16.3475 16.662C17.0087 16.662 17.6067 16.3947 18.0393 15.962C18.4719 15.5294 18.7393 14.9314 18.7393 14.2702C18.7393 13.609 18.4719 13.011 18.0393 12.5784C17.6067 12.1457 17.0087 11.8784 16.3475 11.8784ZM17.2148 13.4049C16.9924 13.1825 16.6863 13.0458 16.3496 13.0458C16.0108 13.0458 15.7047 13.1825 15.4822 13.4049C15.2598 13.6274 15.123 13.9335 15.123 14.2723C15.123 14.6111 15.2598 14.9172 15.4822 15.1376C15.7047 15.36 16.0108 15.4967 16.3496 15.4967C16.6883 15.4967 16.9945 15.36 17.2148 15.1376C17.4373 14.9151 17.574 14.609 17.574 14.2723C17.574 13.9335 17.4352 13.6254 17.2148 13.4049ZM40.0695 37.9085C40.5593 37.9085 41.0042 37.7085 41.3266 37.384C41.6491 37.0615 41.8511 36.6166 41.8511 36.1269L41.8491 25.8332C41.8491 25.3455 41.6491 24.8985 41.3246 24.5761C41.0022 24.2537 40.5572 24.0537 40.0675 24.0537C39.5778 24.0537 39.1328 24.2537 38.8104 24.5761C38.488 24.8986 38.2859 25.3435 38.2859 25.8332V36.129C38.2859 36.6167 38.4859 37.0637 38.8104 37.3861C39.1369 37.7085 39.5798 37.9085 40.0695 37.9085ZM40.0695 39.0758C39.2573 39.0758 38.5206 38.7452 37.9879 38.2105C37.4533 37.6759 37.1227 36.9391 37.1227 36.1289V25.8332C37.1227 25.023 37.4533 24.2843 37.9879 23.7516C38.5226 23.2169 39.2593 22.8863 40.0695 22.8863C40.8818 22.8863 41.6185 23.2169 42.1512 23.7516C42.6858 24.2862 43.0164 25.023 43.0164 25.8332V36.1289C43.0164 36.9391 42.6858 37.6779 42.1512 38.2105C41.6185 38.7452 40.8797 39.0758 40.0695 39.0758ZM3.93126 37.8922C4.42104 37.8922 4.86595 37.6922 5.18835 37.3677C5.5108 37.0452 5.71283 36.6003 5.71283 36.1106L5.71079 25.8169C5.71079 25.3292 5.5108 24.8822 5.18631 24.5598C4.86387 24.2374 4.41895 24.0374 3.92921 24.0374C3.43948 24.0374 2.99452 24.2374 2.67212 24.5598C2.34967 24.8823 2.14968 25.3272 2.14968 25.8169V36.1127C2.14968 36.6004 2.34967 37.0474 2.67212 37.3698C2.9966 37.6922 3.44147 37.8922 3.93126 37.8922ZM3.93126 39.0595C3.11902 39.0595 2.38232 38.7289 1.84964 38.1942C1.31498 37.6596 0.984375 36.9228 0.984375 36.1126V25.8169C0.984375 25.0046 1.31498 24.268 1.84964 23.7353C2.38431 23.2006 3.12105 22.87 3.93126 22.87C4.74349 22.87 5.48019 23.2006 6.01287 23.7353C6.54754 24.2699 6.87814 25.0067 6.87814 25.8169V36.1126C6.87814 36.9249 6.54753 37.6616 6.01287 38.1942C5.48024 38.7289 4.74146 39.0595 3.93126 39.0595ZM32.3123 40.9146C34.8694 36.4412 36.4511 30.2719 36.4511 23.4698V23.4534C36.4511 23.4269 36.447 23.4024 36.4449 23.3759C36.4062 23.0881 36.1613 22.8698 35.8633 22.8718C35.8205 22.8718 35.7796 22.8779 35.7388 22.8861H8.27201C8.22711 22.8759 8.18221 22.8698 8.13324 22.8698C7.81079 22.8698 7.54957 23.131 7.54957 23.4534V23.4698C7.54957 30.272 9.13115 36.4388 11.6883 40.9146C14.3025 45.486 17.9456 48.3145 22.0002 48.3145C26.0549 48.3145 29.698 45.4859 32.3123 40.9146ZM31.394 11.8068C28.9899 9.40273 25.6696 7.91707 22.0005 7.91707C18.3314 7.91707 15.0108 9.40482 12.607 11.8068C10.3315 14.0823 8.87851 17.1801 8.72951 20.6167H35.27C35.1231 17.18 33.6701 14.082 31.3946 11.8068H31.394Z" fill="#8C71FF"/>
</g>
<defs>
<clipPath id="clip0_858_2501">
<rect width="42.032" height="48" fill="white" transform="translate(0.984375 0.314453)"/>
</clipPath>
</defs>
</svg>
