<svg width="61" height="61" viewBox="0 0 61 61" fill="none" xmlns="http://www.w3.org/2000/svg">
<path fill-rule="evenodd" clip-rule="evenodd" d="M8.66094 30.5847C8.66094 31.0501 8.28521 31.4258 7.81978 31.4258C7.35434 31.4258 6.97852 31.0502 6.97852 30.5848C6.97852 17.7518 17.417 7.3133 30.25 7.3133H50.6504L45.3569 2.01976C45.0288 1.69174 45.0289 1.15903 45.3569 0.830992C45.6849 0.50295 46.2176 0.50295 46.5457 0.830992L53.2747 7.56007C53.4261 7.71147 53.5215 7.92176 53.5215 8.15447C53.5215 8.38718 53.4261 8.59746 53.2747 8.74887L46.5457 15.478C46.383 15.6434 46.1671 15.7247 45.9513 15.7247C45.7354 15.7247 45.5223 15.6434 45.3569 15.478C45.0288 15.1499 45.0288 14.6172 45.3569 14.2892L50.6504 8.99564H30.25C18.3451 8.99564 8.66094 18.6798 8.66094 30.5847ZM46.7924 33.5284C46.7924 33.9939 46.4166 34.3696 45.9512 34.3696H42.2894C42.0679 35.0789 41.7819 35.7771 41.4427 36.4248L44.0362 39.0183C44.3642 39.3463 44.3642 39.879 44.0362 40.207L39.8754 44.3679C39.5473 44.6959 39.0146 44.6959 38.6866 44.3679L36.0931 41.7772C35.4426 42.1164 34.7473 42.4024 34.0379 42.6239V46.2857C34.0379 46.7511 33.6622 47.1268 33.1967 47.1268H27.3088C26.8434 47.1268 26.4677 46.7511 26.4677 46.2857V42.6239C25.7583 42.4024 25.063 42.1164 24.4125 41.7772L21.819 44.3679C21.4909 44.6959 20.9582 44.6959 20.6302 44.3679L16.4694 40.207C16.1413 39.879 16.1413 39.3463 16.4694 39.0183L19.0629 36.4248C18.7208 35.7687 18.4376 35.0733 18.2245 34.3696H14.5516C14.0861 34.3696 13.7104 33.9939 13.7104 33.5284V27.6405C13.7104 27.175 14.0861 26.7993 14.5516 26.7993H18.2245C18.4376 26.0956 18.7208 25.4002 19.0629 24.7442L16.4694 22.1506C16.1413 21.8226 16.1413 21.2899 16.4694 20.9619L20.6302 16.801C20.9582 16.473 21.4909 16.473 21.819 16.801L24.4125 19.3946C25.0686 19.0553 25.7639 18.7721 26.4677 18.559V14.886C26.4677 14.4206 26.8434 14.0449 27.3088 14.0449H33.1967C33.6622 14.0449 34.0379 14.4206 34.0379 14.886V18.559C34.7417 18.7693 35.437 19.0525 36.0931 19.3946L38.6866 16.801C39.0146 16.473 39.5473 16.473 39.8754 16.801L44.0362 20.9619C44.3642 21.2899 44.3642 21.8226 44.0362 22.1506L41.4427 24.7442C41.7819 25.3947 42.0679 26.09 42.2894 26.7993H45.9512C46.4166 26.7993 46.7924 27.1751 46.7924 27.6405V33.5284ZM39.6735 36.1388C40.181 35.2865 40.5848 34.3135 40.8371 33.321C40.9324 32.9481 41.2688 32.6874 41.6529 32.6874H45.1099V28.4817H41.6529C41.2688 28.4817 40.9323 28.221 40.837 27.8481C40.5846 26.8584 40.1809 25.8854 39.6734 25.0303C39.4772 24.6994 39.5304 24.276 39.8024 24.0041L42.2501 21.5563L39.2781 18.5871L36.8304 21.0349C36.5585 21.3097 36.1351 21.3629 35.8042 21.1639C34.9379 20.6452 33.9678 20.2527 33.0005 20.0227C32.622 19.933 32.3528 19.5938 32.3528 19.2041V15.7273H28.1471V19.2041C28.1471 19.5938 27.8779 19.933 27.4994 20.0227C26.5322 20.2526 25.562 20.648 24.6957 21.1639C24.3648 21.3601 23.9415 21.3097 23.6695 21.0349L21.2218 18.5871L18.2498 21.5563L20.6975 24.0041C20.9723 24.276 21.0227 24.6994 20.8265 25.0303C20.3078 25.8966 19.9125 26.8667 19.6854 27.834C19.5956 28.2125 19.2564 28.4817 18.8667 28.4817H15.39V32.6874H18.8667C19.2564 32.6874 19.5956 32.9537 19.6854 33.3351C19.9153 34.3023 20.3106 35.2725 20.8265 36.1388C21.0227 36.4697 20.9695 36.893 20.6975 37.165L18.2498 39.6127L21.2218 42.5819L23.6695 40.1342C23.9415 39.8622 24.362 39.8062 24.6957 40.0052C25.548 40.5127 26.5238 40.9165 27.5135 41.1688C27.8864 41.2641 28.1472 41.5978 28.1472 41.9847V45.4417H32.3528V41.9847C32.3528 41.5978 32.6136 41.2641 32.9865 41.1688C33.9762 40.9164 34.952 40.5155 35.8043 40.0052C36.1352 39.8089 36.5585 39.8622 36.8305 40.1342L39.2782 42.5819L42.2502 39.6127L39.8025 37.165C39.5277 36.893 39.4773 36.4697 39.6735 36.1388ZM23.5208 30.5847C23.5208 26.8753 26.5405 23.8557 30.2499 23.8557C33.9593 23.8557 36.979 26.8753 36.979 30.5847C36.979 34.2942 33.9593 37.3138 30.2499 37.3138C26.5405 37.3138 23.5208 34.2942 23.5208 30.5847ZM25.2031 30.5846C25.2031 33.3688 27.4658 35.6314 30.2499 35.6314C33.0341 35.6314 35.2967 33.3688 35.2967 30.5846C35.2967 27.8005 33.0341 25.5378 30.2499 25.5378C27.4658 25.5378 25.2031 27.8005 25.2031 30.5846ZM52.6802 29.7434C52.2147 29.7434 51.839 30.1191 51.839 30.5845C51.839 42.4894 42.1549 52.1736 30.25 52.1736H9.84955L15.1431 46.88C15.4711 46.552 15.4711 46.0193 15.1431 45.6913C14.8151 45.3632 14.2824 45.3632 13.9543 45.6913L7.22525 52.4203C7.07384 52.5718 6.97852 52.782 6.97852 53.0147C6.97852 53.2474 7.07384 53.4577 7.22525 53.6091L13.9543 60.3382C14.1198 60.5037 14.3328 60.585 14.5487 60.585C14.7646 60.585 14.9805 60.5037 15.1431 60.3382C15.4712 60.0102 15.4712 59.4775 15.1431 59.1495L9.84958 53.8559H30.25C43.083 53.8559 53.5215 43.4174 53.5215 30.5844C53.5215 30.119 53.1456 29.7434 52.6802 29.7434Z" fill="white"/>
</svg>
