<svg width="63" height="61" viewBox="0 0 63 61" fill="none" xmlns="http://www.w3.org/2000/svg">
<path fill-rule="evenodd" clip-rule="evenodd" d="M17.3933 23.6903C17.3154 23.7396 17.2245 23.7734 17.1284 23.7864L13.6859 25.0222V36.7227C13.6859 41.3309 16.4067 44.5864 19.8907 47.2681L31.7448 56.3933L43.5988 47.2681C47.0829 44.5863 49.8036 41.3307 49.8036 36.7227L49.8114 25.0222L46.3689 23.7864C46.2728 23.7734 46.182 23.7422 46.1041 23.6903L42.0671 22.2391C42.0281 22.2287 41.9918 22.2157 41.9554 22.2001L31.7503 18.5344L17.3933 23.6903ZM3.20241 29.9418C2.11205 29.9418 1.56427 31.2659 2.33529 32.0369C3.10637 32.808 4.43035 32.2601 4.43035 31.1697C4.43035 30.4896 3.88004 29.9418 3.20241 29.9418ZM1.43966 29.4044C3.00775 27.8363 5.69996 28.9527 5.69996 31.1672C5.69996 31.7565 5.49487 32.3017 5.15218 32.7275L7.64707 36.0869H12.424V29.542H7.33291C7.10705 29.542 6.90714 29.4226 6.79551 29.246L4.13964 25.6711C2.51187 26.328 0.712761 25.1285 0.712761 23.3579C0.712761 21.1434 3.40498 20.0271 4.97307 21.5952C5.87136 22.4935 5.95185 23.9265 5.1548 24.9208L7.6497 28.2803H12.4266V24.5808C12.4266 24.2848 12.6291 24.0382 12.9017 23.9681L16.4247 22.7038L16.4195 14.2246C16.4195 6.71915 22.5438 0.594727 30.0494 0.594727H33.4478C40.9533 0.594727 47.0777 6.71901 47.0777 14.2246V22.7011L50.6552 23.9862C50.9122 24.0797 51.0731 24.3211 51.0731 24.5807H51.0757V28.2802H55.8527L58.3475 24.9208C57.0417 23.2956 58.2022 20.8656 60.2947 20.8656C62.5092 20.8656 63.6255 23.5578 62.0574 25.1259C61.3565 25.8269 60.2947 26.0527 59.36 25.6763L56.7042 29.2512C56.5925 29.4303 56.3952 29.5471 56.1668 29.5471H51.0757V36.0921H55.8526L58.3475 32.7326C57.0417 31.1075 58.2021 28.6774 60.2946 28.6774C62.5091 28.6774 63.6255 31.3697 62.0574 32.9377C61.3564 33.6387 60.2946 33.8645 59.36 33.4881L56.7041 37.063C56.5925 37.2421 56.3952 37.3616 56.1667 37.3616H51.0601C50.8264 42.084 47.9785 45.5004 44.3747 48.2732L32.1339 57.6895C31.9002 57.8712 31.5757 57.8608 31.355 57.6843L19.1221 48.268C15.5186 45.4953 12.6707 42.0762 12.4368 37.3564H7.33013C7.10426 37.3564 6.90436 37.237 6.79273 37.0578L4.13686 33.4829C2.50909 34.1398 0.709979 32.9403 0.709979 31.1671C0.707383 30.4791 0.987898 29.8561 1.43966 29.4044ZM3.20241 22.1302C2.11205 22.1302 1.56427 23.4543 2.33529 24.2253C3.10637 24.9964 4.43035 24.4485 4.43035 23.3581C4.43035 22.678 3.88004 22.1302 3.20241 22.1302ZM61.1641 30.3003C60.393 29.5292 59.069 30.077 59.069 31.1674C59.069 32.2578 60.3931 32.8056 61.1641 32.0346C61.6418 31.5569 61.6418 30.7806 61.1641 30.3003ZM61.1641 22.4884C60.393 21.7174 59.069 22.2652 59.069 23.3556C59.069 24.4459 60.3931 24.9937 61.1641 24.2227C61.6418 23.7476 61.6418 22.9688 61.1641 22.4884ZM11.1858 52.4924C10.1733 52.4924 9.66439 53.723 10.381 54.437C11.0976 55.1509 12.3255 54.6421 12.3255 53.6322C12.3255 53.0013 11.814 52.4924 11.1858 52.4924ZM9.48527 51.9291C9.77604 51.6357 10.1447 51.4202 10.5523 51.3086V46.4252H8.70123C8.22094 48.1932 5.99087 48.8033 4.67719 47.4922C3.16626 45.9813 4.24364 43.3851 6.37767 43.3851C7.47581 43.3851 8.41824 44.125 8.69864 45.1583H14.2155C15.0488 45.1583 15.0488 46.4252 14.2155 46.4252H11.8166V51.3086C13.5846 51.7915 14.1947 54.0215 12.8836 55.3326C11.3727 56.8436 8.77653 55.7662 8.77653 53.6321C8.77913 52.9675 9.04913 52.3653 9.48527 51.9291ZM7.52001 45.7918C7.52001 44.7793 6.28941 44.2704 5.57548 44.987C4.86155 45.7009 5.36779 46.9315 6.38026 46.9315C7.00853 46.9315 7.52001 46.42 7.52001 45.7918ZM17.0792 57.0463C16.0667 57.0463 15.5578 58.2743 16.2744 58.9909C16.9883 59.7048 18.2189 59.1986 18.2189 58.1861C18.2189 57.5578 17.7074 57.0463 17.0792 57.0463ZM15.3787 56.4856C15.6694 56.1948 16.0355 55.9767 16.4457 55.8651V50.3483C16.4457 49.5149 17.7126 49.5149 17.7126 50.3483V55.8651C19.4806 56.348 20.0907 58.578 18.7796 59.8891C17.2687 61.4001 14.6725 60.3227 14.6725 58.1886C14.6725 57.5214 14.9425 56.9191 15.3787 56.4856ZM52.9447 51.3088C54.7127 51.7917 55.3227 54.0218 54.0117 55.3329C52.5008 56.8438 49.9046 55.7664 49.9046 53.6324C49.9046 52.5342 50.6445 51.5918 51.6778 51.3114V46.428L49.2789 46.4254C48.4455 46.4254 48.4455 45.1585 49.2789 45.1585H54.7957C55.2786 43.3905 57.5087 42.7805 58.8198 44.0915C60.3307 45.6024 59.2533 48.1986 57.1193 48.1986C56.0211 48.1986 55.0787 47.4587 54.7983 46.4254H52.9472V51.3088L52.9447 51.3088ZM53.1186 52.8249C52.4047 52.111 51.1741 52.6172 51.1741 53.6297C51.1741 54.6422 52.4021 55.1511 53.1186 54.4345C53.5625 53.9906 53.5625 53.2689 53.1186 52.8249ZM56.3119 44.9871C55.5979 45.7011 56.1042 46.9317 57.1166 46.9317C58.1291 46.9317 58.638 45.7037 57.9214 44.9871C57.4775 44.5406 56.7584 44.5406 56.3119 44.9871ZM47.0511 55.8649C48.8191 56.3478 49.4318 58.5778 48.1182 59.8889C46.6072 61.3999 44.0111 60.3225 44.0111 58.1884C44.0111 57.0903 44.751 56.1479 45.7842 55.8675V50.3506C45.7842 49.5173 47.0511 49.5173 47.0511 50.3506V55.8649ZM47.2251 57.381C46.5112 56.6671 45.2805 57.1733 45.2805 58.1858C45.2805 59.1983 46.5086 59.7071 47.2251 58.9906C47.669 58.5466 47.669 57.825 47.2251 57.381ZM45.8102 22.2448L42.8558 21.183V14.2099C42.8558 8.99676 38.5929 4.7338 33.3797 4.7338H30.1163C24.9032 4.7338 20.6402 8.9967 20.6402 14.2099V21.183L17.6858 22.2448V14.2256C17.6858 7.41864 23.2442 1.86246 30.049 1.86246H33.4474C40.2517 1.86246 45.8105 7.42083 45.8105 14.2256L45.8131 22.2448H45.8102ZM21.9073 20.7287V14.2098C21.9073 9.69508 25.6017 6.00048 30.1166 6.00048H33.38C37.8948 6.00048 41.5893 9.69481 41.5893 14.2098V20.7287L31.9631 17.2707C31.8307 17.2213 31.6801 17.2188 31.5347 17.2707L21.9073 20.7287ZM20.6378 33.2627C19.8044 33.2627 19.8044 31.9958 20.6378 31.9958H23.9998C24.8332 31.9958 24.8332 33.2627 23.9998 33.2627H20.6378ZM39.4989 33.2627C38.6655 33.2627 38.6655 31.9958 39.4989 31.9958H42.8609C43.6942 31.9958 43.6942 33.2627 42.8609 33.2627H39.4989ZM29.4286 36.256C27.1206 34.7762 26.7546 31.5388 28.7043 29.5866C30.384 27.907 33.11 27.907 34.7923 29.5866C36.7421 31.5363 36.376 34.7763 34.068 36.256V41.7236C34.068 43.7979 31.5342 44.7767 30.1038 43.3461C29.6884 42.9308 29.4314 42.357 29.4314 41.7236L29.4286 36.256ZM29.1509 34.2077C27.9333 32.2087 29.3663 29.5943 31.7496 29.5943C34.1329 29.5943 35.566 32.2087 34.3484 34.2077C33.6085 35.4227 32.8037 35.1786 32.8037 35.8926H32.8011V41.7236C32.8011 42.0065 32.6843 42.2636 32.4974 42.4505C31.8613 43.0866 30.6957 42.6686 30.6957 41.7236V35.8926C30.6957 35.1761 29.8934 35.4253 29.1509 34.2077Z" fill="black"/>
<path fill-rule="evenodd" clip-rule="evenodd" d="M17.3933 23.6903C17.3154 23.7396 17.2245 23.7734 17.1284 23.7864L13.6859 25.0222V36.7227C13.6859 41.3309 16.4067 44.5864 19.8907 47.2681L31.7448 56.3933L43.5988 47.2681C47.0829 44.5863 49.8036 41.3307 49.8036 36.7227L49.8114 25.0222L46.3689 23.7864C46.2728 23.7734 46.182 23.7422 46.1041 23.6903L42.0671 22.2391C42.0281 22.2287 41.9918 22.2157 41.9554 22.2001L31.7503 18.5344L17.3933 23.6903ZM3.20241 29.9418C2.11205 29.9418 1.56427 31.2659 2.33529 32.0369C3.10637 32.808 4.43035 32.2601 4.43035 31.1697C4.43035 30.4896 3.88004 29.9418 3.20241 29.9418ZM1.43966 29.4044C3.00775 27.8363 5.69996 28.9527 5.69996 31.1672C5.69996 31.7565 5.49487 32.3017 5.15218 32.7275L7.64707 36.0869H12.424V29.542H7.33291C7.10705 29.542 6.90714 29.4226 6.79551 29.246L4.13964 25.6711C2.51187 26.328 0.712761 25.1285 0.712761 23.3579C0.712761 21.1434 3.40498 20.0271 4.97307 21.5952C5.87136 22.4935 5.95185 23.9265 5.1548 24.9208L7.6497 28.2803H12.4266V24.5808C12.4266 24.2848 12.6291 24.0382 12.9017 23.9681L16.4247 22.7038L16.4195 14.2246C16.4195 6.71915 22.5438 0.594727 30.0494 0.594727H33.4478C40.9533 0.594727 47.0777 6.71901 47.0777 14.2246V22.7011L50.6552 23.9862C50.9122 24.0797 51.0731 24.3211 51.0731 24.5807H51.0757V28.2802H55.8527L58.3475 24.9208C57.0417 23.2956 58.2022 20.8656 60.2947 20.8656C62.5092 20.8656 63.6255 23.5578 62.0574 25.1259C61.3565 25.8269 60.2947 26.0527 59.36 25.6763L56.7042 29.2512C56.5925 29.4303 56.3952 29.5471 56.1668 29.5471H51.0757V36.0921H55.8526L58.3475 32.7326C57.0417 31.1075 58.2021 28.6774 60.2946 28.6774C62.5091 28.6774 63.6255 31.3697 62.0574 32.9377C61.3564 33.6387 60.2946 33.8645 59.36 33.4881L56.7041 37.063C56.5925 37.2421 56.3952 37.3616 56.1667 37.3616H51.0601C50.8264 42.084 47.9785 45.5004 44.3747 48.2732L32.1339 57.6895C31.9002 57.8712 31.5757 57.8608 31.355 57.6843L19.1221 48.268C15.5186 45.4953 12.6707 42.0762 12.4368 37.3564H7.33013C7.10426 37.3564 6.90436 37.237 6.79273 37.0578L4.13686 33.4829C2.50909 34.1398 0.709979 32.9403 0.709979 31.1671C0.707383 30.4791 0.987898 29.8561 1.43966 29.4044ZM3.20241 22.1302C2.11205 22.1302 1.56427 23.4543 2.33529 24.2253C3.10637 24.9964 4.43035 24.4485 4.43035 23.3581C4.43035 22.678 3.88004 22.1302 3.20241 22.1302ZM61.1641 30.3003C60.393 29.5292 59.069 30.077 59.069 31.1674C59.069 32.2578 60.3931 32.8056 61.1641 32.0346C61.6418 31.5569 61.6418 30.7806 61.1641 30.3003ZM61.1641 22.4884C60.393 21.7174 59.069 22.2652 59.069 23.3556C59.069 24.4459 60.3931 24.9937 61.1641 24.2227C61.6418 23.7476 61.6418 22.9688 61.1641 22.4884ZM11.1858 52.4924C10.1733 52.4924 9.66439 53.723 10.381 54.437C11.0976 55.1509 12.3255 54.6421 12.3255 53.6322C12.3255 53.0013 11.814 52.4924 11.1858 52.4924ZM9.48527 51.9291C9.77604 51.6357 10.1447 51.4202 10.5523 51.3086V46.4252H8.70123C8.22094 48.1932 5.99087 48.8033 4.67719 47.4922C3.16626 45.9813 4.24364 43.3851 6.37767 43.3851C7.47581 43.3851 8.41824 44.125 8.69864 45.1583H14.2155C15.0488 45.1583 15.0488 46.4252 14.2155 46.4252H11.8166V51.3086C13.5846 51.7915 14.1947 54.0215 12.8836 55.3326C11.3727 56.8436 8.77653 55.7662 8.77653 53.6321C8.77913 52.9675 9.04913 52.3653 9.48527 51.9291ZM7.52001 45.7918C7.52001 44.7793 6.28941 44.2704 5.57548 44.987C4.86155 45.7009 5.36779 46.9315 6.38026 46.9315C7.00853 46.9315 7.52001 46.42 7.52001 45.7918ZM17.0792 57.0463C16.0667 57.0463 15.5578 58.2743 16.2744 58.9909C16.9883 59.7048 18.2189 59.1986 18.2189 58.1861C18.2189 57.5578 17.7074 57.0463 17.0792 57.0463ZM15.3787 56.4856C15.6694 56.1948 16.0355 55.9767 16.4457 55.8651V50.3483C16.4457 49.5149 17.7126 49.5149 17.7126 50.3483V55.8651C19.4806 56.348 20.0907 58.578 18.7796 59.8891C17.2687 61.4001 14.6725 60.3227 14.6725 58.1886C14.6725 57.5214 14.9425 56.9191 15.3787 56.4856ZM52.9447 51.3088C54.7127 51.7917 55.3227 54.0218 54.0117 55.3329C52.5008 56.8438 49.9046 55.7664 49.9046 53.6324C49.9046 52.5342 50.6445 51.5918 51.6778 51.3114V46.428L49.2789 46.4254C48.4455 46.4254 48.4455 45.1585 49.2789 45.1585H54.7957C55.2786 43.3905 57.5087 42.7805 58.8198 44.0915C60.3307 45.6024 59.2533 48.1986 57.1193 48.1986C56.0211 48.1986 55.0787 47.4587 54.7983 46.4254H52.9472V51.3088L52.9447 51.3088ZM53.1186 52.8249C52.4047 52.111 51.1741 52.6172 51.1741 53.6297C51.1741 54.6422 52.4021 55.1511 53.1186 54.4345C53.5625 53.9906 53.5625 53.2689 53.1186 52.8249ZM56.3119 44.9871C55.5979 45.7011 56.1042 46.9317 57.1166 46.9317C58.1291 46.9317 58.638 45.7037 57.9214 44.9871C57.4775 44.5406 56.7584 44.5406 56.3119 44.9871ZM47.0511 55.8649C48.8191 56.3478 49.4318 58.5778 48.1182 59.8889C46.6072 61.3999 44.0111 60.3225 44.0111 58.1884C44.0111 57.0903 44.751 56.1479 45.7842 55.8675V50.3506C45.7842 49.5173 47.0511 49.5173 47.0511 50.3506V55.8649ZM47.2251 57.381C46.5112 56.6671 45.2805 57.1733 45.2805 58.1858C45.2805 59.1983 46.5086 59.7071 47.2251 58.9906C47.669 58.5466 47.669 57.825 47.2251 57.381ZM45.8102 22.2448L42.8558 21.183V14.2099C42.8558 8.99676 38.5929 4.7338 33.3797 4.7338H30.1163C24.9032 4.7338 20.6402 8.9967 20.6402 14.2099V21.183L17.6858 22.2448V14.2256C17.6858 7.41864 23.2442 1.86246 30.049 1.86246H33.4474C40.2517 1.86246 45.8105 7.42083 45.8105 14.2256L45.8131 22.2448H45.8102ZM21.9073 20.7287V14.2098C21.9073 9.69508 25.6017 6.00048 30.1166 6.00048H33.38C37.8948 6.00048 41.5893 9.69481 41.5893 14.2098V20.7287L31.9631 17.2707C31.8307 17.2213 31.6801 17.2188 31.5347 17.2707L21.9073 20.7287ZM20.6378 33.2627C19.8044 33.2627 19.8044 31.9958 20.6378 31.9958H23.9998C24.8332 31.9958 24.8332 33.2627 23.9998 33.2627H20.6378ZM39.4989 33.2627C38.6655 33.2627 38.6655 31.9958 39.4989 31.9958H42.8609C43.6942 31.9958 43.6942 33.2627 42.8609 33.2627H39.4989ZM29.4286 36.256C27.1206 34.7762 26.7546 31.5388 28.7043 29.5866C30.384 27.907 33.11 27.907 34.7923 29.5866C36.7421 31.5363 36.376 34.7763 34.068 36.256V41.7236C34.068 43.7979 31.5342 44.7767 30.1038 43.3461C29.6884 42.9308 29.4314 42.357 29.4314 41.7236L29.4286 36.256ZM29.1509 34.2077C27.9333 32.2087 29.3663 29.5943 31.7496 29.5943C34.1329 29.5943 35.566 32.2087 34.3484 34.2077C33.6085 35.4227 32.8037 35.1786 32.8037 35.8926H32.8011V41.7236C32.8011 42.0065 32.6843 42.2636 32.4974 42.4505C31.8613 43.0866 30.6957 42.6686 30.6957 41.7236V35.8926C30.6957 35.1761 29.8934 35.4253 29.1509 34.2077Z" fill="url(#paint0_linear_858_2283)"/>
<defs>
<linearGradient id="paint0_linear_858_2283" x1="31.7501" y1="60.5947" x2="31.7501" y2="0.594727" gradientUnits="userSpaceOnUse">
<stop stop-color="#5934DF"/>
<stop offset="1" stop-color="#DB80EB"/>
</linearGradient>
</defs>
</svg>
