<svg width="61" height="61" viewBox="0 0 61 61" fill="none" xmlns="http://www.w3.org/2000/svg">
<path d="M59.5377 12.1942L56.9666 11.64C56.8248 11.234 56.6573 10.828 56.464 10.4285L57.8945 8.21821C58.2747 7.62536 58.1974 6.87142 57.7012 6.37523L54.9174 3.59787C54.4212 3.10168 53.6608 3.01791 53.0744 3.40455L50.8641 4.83512C50.471 4.64824 50.0651 4.4807 49.6527 4.33249L49.0985 1.76133C48.9503 1.07183 48.3574 0.594971 47.655 0.594971H43.7242C43.0218 0.594971 42.4289 1.07183 42.2807 1.76133L41.7265 4.33249C41.3206 4.47425 40.9146 4.6418 40.5151 4.83512L38.3048 3.40455C37.7119 3.02436 36.958 3.10168 36.4618 3.59787L33.6844 6.37523C33.1883 6.87142 33.1045 7.63181 33.4911 8.21821L34.9217 10.4285C34.7348 10.8216 34.5673 11.2276 34.4191 11.64L31.8479 12.1942C31.1584 12.3424 30.6815 12.9352 30.6815 13.6376V17.5684C30.6815 18.2708 31.1584 18.8637 31.8479 19.0119L34.4191 19.5661C34.5608 19.9721 34.7284 20.378 34.9217 20.7775L33.4911 22.9878C33.1109 23.5807 33.1883 24.3346 33.6844 24.8308L36.4618 27.6082C36.958 28.1044 37.7184 28.1881 38.3048 27.8015L40.5151 26.3709C40.9082 26.5578 41.3141 26.7318 41.7265 26.8736L42.2807 29.4447C42.4289 30.1342 43.0218 30.6111 43.7242 30.6111H47.655C48.3574 30.6111 48.9503 30.1342 49.0985 29.4447L49.6527 26.8736C50.0586 26.7318 50.471 26.5643 50.8641 26.3709L53.0744 27.8015C53.6673 28.1817 54.4212 28.1044 54.9174 27.6082L57.6948 24.8308C58.1909 24.3346 58.2747 23.5742 57.8881 22.9878L56.4575 20.7775C56.6444 20.3845 56.8184 19.9785 56.9601 19.5661L59.5313 19.0119C60.2208 18.8637 60.6977 18.2708 60.6977 17.5684V13.6376C60.7041 12.9352 60.2272 12.3424 59.5377 12.1942ZM59.2091 17.5556L56.6444 18.1097C56.1353 18.2193 55.7358 18.5737 55.5618 19.0634C55.4329 19.4243 55.2847 19.7916 55.1172 20.1396C54.8916 20.61 54.9238 21.1449 55.2074 21.583L56.6315 23.7869L53.8735 26.5449L51.6696 25.1208C51.2314 24.8373 50.6966 24.805 50.2262 25.0306C49.8782 25.1981 49.5173 25.3463 49.15 25.4752C48.6603 25.6492 48.3059 26.0487 48.1963 26.5578L47.6421 29.1225H43.7371L43.1829 26.5578C43.0733 26.0487 42.7189 25.6492 42.2292 25.4752C41.8683 25.3463 41.5075 25.1981 41.153 25.0306C40.6826 24.805 40.1478 24.8373 39.7096 25.1208L37.5057 26.5449L34.7477 23.7869L36.1718 21.583C36.4554 21.1449 36.4876 20.61 36.262 20.1396C36.0945 19.7916 35.9463 19.4308 35.8174 19.0634C35.6434 18.5737 35.2439 18.2193 34.7348 18.1097L32.1701 17.5556V13.6505L34.7348 13.0963C35.2439 12.9868 35.6434 12.6323 35.8174 12.1426C35.9463 11.7817 36.0945 11.4144 36.262 11.0665C36.4876 10.596 36.4554 10.0612 36.1718 9.623L34.7477 7.41916L37.5057 4.66113L39.7096 6.08525C40.1478 6.36879 40.6826 6.40101 41.153 6.17547C41.501 6.00792 41.8619 5.85971 42.2292 5.73083C42.7189 5.55684 43.0733 5.15732 43.1829 4.64824L43.7371 2.08353H47.6421L48.1963 4.64824C48.3059 5.15732 48.6603 5.55684 49.15 5.73083C49.5109 5.85971 49.8782 6.00792 50.2262 6.17547C50.6966 6.40101 51.2314 6.36879 51.6696 6.08525L53.8735 4.66113L56.6315 7.41916L55.2074 9.623C54.9238 10.0612 54.8916 10.596 55.1172 11.0665C55.2847 11.4144 55.4329 11.7753 55.5618 12.1426C55.7358 12.6323 56.1353 12.9868 56.6444 13.0963L59.2091 13.6505V17.5556ZM29.8567 47.1528L27.6206 45.7673C27.6206 45.3356 27.6013 44.8974 27.5562 44.4592L29.6441 42.8611C30.2047 42.4358 30.3787 41.6947 30.0823 41.0568L28.4004 37.5062C28.0975 36.8746 27.4144 36.5396 26.7314 36.7007L24.1731 37.2999C23.8702 36.9906 23.5416 36.6942 23.2001 36.4171L23.5416 33.8137C23.6318 33.1178 23.2387 32.467 22.575 32.2285L18.8762 30.9075C18.2124 30.6691 17.4971 30.9204 17.1234 31.5197L15.7379 33.7557C15.3062 33.7557 14.868 33.7751 14.4298 33.8202L12.8317 31.7323C12.4064 31.1782 11.6653 30.9977 11.0274 31.2941L7.47674 32.976C6.84522 33.2789 6.51014 33.962 6.67124 34.645L7.27053 37.2033C6.96122 37.5062 6.66479 37.8348 6.3877 38.1763L3.78433 37.8348C3.08838 37.7446 2.43753 38.1377 2.19911 38.8014L0.890976 42.5067C0.652549 43.1704 0.903864 43.8857 1.50316 44.2595L3.73922 45.6449C3.73922 46.0767 3.75855 46.5149 3.80366 46.953L1.71581 48.5512C1.16162 48.9765 0.981192 49.7175 1.27762 50.3555L2.9595 53.9061C3.26237 54.5376 3.94543 54.8727 4.62849 54.7116L7.18676 54.1123C7.48962 54.4216 7.81827 54.7181 8.1598 54.9951L7.81827 57.5985C7.72805 58.2945 8.12113 58.9453 8.78487 59.1837L12.4837 60.5048C12.6513 60.5628 12.8188 60.595 12.9863 60.595C13.4825 60.595 13.9594 60.3437 14.2365 59.8926L15.6155 57.6501C16.0472 57.6501 16.4854 57.6307 16.9236 57.5856L18.5217 59.6735C18.947 60.2277 19.6881 60.4081 20.3261 60.1117L23.8767 58.4298C24.5082 58.1269 24.8433 57.4439 24.6822 56.7608L24.0829 54.2025C24.3922 53.8997 24.6886 53.571 24.9657 53.2295L27.5691 53.571C28.2651 53.6612 28.9159 53.2682 29.1543 52.6044L30.4753 48.9056C30.7009 48.2418 30.4496 47.5201 29.8567 47.1528ZM27.7431 52.0825L25.1397 51.7409C24.6242 51.67 24.128 51.8698 23.7994 52.2758C23.5609 52.5787 23.2967 52.8622 23.0196 53.1393C22.6523 53.5066 22.4977 54.0221 22.6201 54.5247L23.2194 57.0766L19.6945 58.7455L18.0964 56.6641C17.7807 56.2517 17.2845 56.0391 16.769 56.0971C16.4017 56.1357 16.0344 56.1551 15.667 56.1551C15.6477 56.1551 15.6219 56.1551 15.6026 56.1551C15.0871 56.1551 14.6167 56.4128 14.346 56.851L12.967 59.0806L9.29394 57.7725L9.63547 55.1691C9.70636 54.6536 9.50659 54.151 9.10062 53.8288C8.8042 53.5839 8.51422 53.3261 8.23713 53.0491C7.86982 52.6818 7.3543 52.5271 6.85167 52.6495L4.29985 53.2488L2.63085 49.724L4.71226 48.1259C5.12468 47.8101 5.33733 47.3139 5.27933 46.7984C5.24067 46.4118 5.22134 46.0251 5.22134 45.6385C5.22134 45.123 4.96358 44.6461 4.52539 44.3754L2.29577 42.9964L3.6039 39.3234L6.20727 39.6649C6.72279 39.7358 7.21898 39.536 7.54762 39.13C7.79249 38.8336 8.05025 38.5436 8.32734 38.2665C8.69465 37.8992 8.84931 37.3837 8.72687 36.8811L8.12758 34.3293L11.6524 32.6603L13.2506 34.7417C13.5663 35.1541 14.0625 35.3667 14.578 35.3088C14.9647 35.2701 15.3577 35.2508 15.7379 35.2508C16.2535 35.2572 16.7303 34.993 17.001 34.5548L18.38 32.3252L22.053 33.6333L21.7115 36.2367C21.6406 36.7522 21.8404 37.2484 22.2464 37.577C22.5428 37.8219 22.8328 38.0797 23.1099 38.3568C23.4772 38.7241 23.9927 38.8787 24.4953 38.7563L27.0471 38.157L28.7161 41.6819L26.6347 43.28C26.2223 43.5957 26.0097 44.0919 26.0676 44.6074C26.1063 44.9941 26.1256 45.3807 26.1256 45.7673C26.1256 46.2829 26.3834 46.7597 26.8216 47.0304L29.0512 48.4094L27.7431 52.0825ZM10.0286 27.2924C10.3379 18.2902 16.2921 10.4543 24.7273 7.65114L22.1948 6.69743C21.8082 6.54922 21.6149 6.12391 21.7566 5.73728C21.9048 5.35064 22.3301 5.15732 22.7168 5.29908L27.2727 7.01963C27.6593 7.16784 27.8526 7.59314 27.7109 7.97978L25.9903 12.5357C25.8808 12.8321 25.5908 13.019 25.2944 13.019C25.2042 13.019 25.1204 13.0061 25.0302 12.9739C24.6435 12.8257 24.4502 12.4004 24.592 12.0137L25.7712 8.89483C17.6196 11.3178 11.82 18.7606 11.5236 27.344C11.5107 27.75 11.1756 28.0657 10.7761 28.0657C10.7696 28.0657 10.7567 28.0657 10.7503 28.0657C10.3379 28.0464 10.0157 27.7048 10.0286 27.2924ZM52.6749 31.6357C51.9789 35.7792 50.0844 39.6069 47.2039 42.6936C44.6972 45.3872 41.5783 47.3655 38.1115 48.4867L40.702 49.7497C41.0757 49.9302 41.2239 50.3748 41.0435 50.7486C40.9146 51.0128 40.6504 51.1674 40.3733 51.1674C40.2638 51.1674 40.1542 51.1416 40.0447 51.0901L35.6628 48.9571C35.289 48.7767 35.1408 48.3321 35.3212 47.9583L37.4542 43.5764C37.6346 43.2026 38.0792 43.0544 38.453 43.2349C38.8268 43.4153 38.975 43.8599 38.7945 44.2337L37.3769 47.1464C44.5683 44.9361 49.9298 38.8658 51.1928 31.3908C51.2637 30.9848 51.6438 30.7077 52.0563 30.7786C52.4687 30.8431 52.7458 31.2297 52.6749 31.6357ZM45.6896 7.94112C41.4623 7.94112 38.0213 11.3822 38.0213 15.6095C38.0213 19.8367 41.4623 23.2778 45.6896 23.2778C49.9169 23.2778 53.358 19.8367 53.358 15.6095C53.358 11.3822 49.9169 7.94112 45.6896 7.94112ZM45.6896 21.7764C42.2872 21.7764 39.5163 19.0055 39.5163 15.603C39.5163 12.2006 42.2872 9.42968 45.6896 9.42968C49.092 9.42968 51.8629 12.2006 51.8629 15.603C51.8629 19.0055 49.092 21.7764 45.6896 21.7764ZM45.6896 10.9698C43.1378 10.9698 41.0564 13.0512 41.0564 15.603C41.0564 18.1548 43.1378 20.2363 45.6896 20.2363C48.2414 20.2363 50.3228 18.1548 50.3228 15.603C50.3228 13.0512 48.2414 10.9698 45.6896 10.9698ZM45.6896 18.7412C43.9562 18.7412 42.5514 17.33 42.5514 15.603C42.5514 13.876 43.9626 12.4648 45.6896 12.4648C47.4166 12.4648 48.8278 13.876 48.8278 15.603C48.8278 17.33 47.4166 18.7412 45.6896 18.7412ZM15.6799 38.041C11.4527 38.041 8.01159 41.4821 8.01159 45.7094C8.01159 49.9366 11.4527 53.3777 15.6799 53.3777C19.9072 53.3777 23.3483 49.9366 23.3483 45.7094C23.3483 41.4821 19.9072 38.041 15.6799 38.041ZM15.6799 51.8763C12.2775 51.8763 9.50659 49.1053 9.50659 45.7029C9.50659 42.3005 12.2775 39.5296 15.6799 39.5296C19.0824 39.5296 21.8533 42.3005 21.8533 45.7029C21.8533 49.1053 19.0824 51.8763 15.6799 51.8763ZM15.6799 41.0697C13.1281 41.0697 11.0467 43.1511 11.0467 45.7029C11.0467 48.2547 13.1281 50.3361 15.6799 50.3361C18.2318 50.3361 20.3132 48.2547 20.3132 45.7029C20.3132 43.1511 18.2318 41.0697 15.6799 41.0697ZM15.6799 48.8476C13.9465 48.8476 12.5417 47.4363 12.5417 45.7094C12.5417 43.9824 13.9529 42.5711 15.6799 42.5711C17.4069 42.5711 18.8182 43.9824 18.8182 45.7094C18.8182 47.4363 17.4069 48.8476 15.6799 48.8476Z" fill="black"/>
<path d="M59.5377 12.1942L56.9666 11.64C56.8248 11.234 56.6573 10.828 56.464 10.4285L57.8945 8.21821C58.2747 7.62536 58.1974 6.87142 57.7012 6.37523L54.9174 3.59787C54.4212 3.10168 53.6608 3.01791 53.0744 3.40455L50.8641 4.83512C50.471 4.64824 50.0651 4.4807 49.6527 4.33249L49.0985 1.76133C48.9503 1.07183 48.3574 0.594971 47.655 0.594971H43.7242C43.0218 0.594971 42.4289 1.07183 42.2807 1.76133L41.7265 4.33249C41.3206 4.47425 40.9146 4.6418 40.5151 4.83512L38.3048 3.40455C37.7119 3.02436 36.958 3.10168 36.4618 3.59787L33.6844 6.37523C33.1883 6.87142 33.1045 7.63181 33.4911 8.21821L34.9217 10.4285C34.7348 10.8216 34.5673 11.2276 34.4191 11.64L31.8479 12.1942C31.1584 12.3424 30.6815 12.9352 30.6815 13.6376V17.5684C30.6815 18.2708 31.1584 18.8637 31.8479 19.0119L34.4191 19.5661C34.5608 19.9721 34.7284 20.378 34.9217 20.7775L33.4911 22.9878C33.1109 23.5807 33.1883 24.3346 33.6844 24.8308L36.4618 27.6082C36.958 28.1044 37.7184 28.1881 38.3048 27.8015L40.5151 26.3709C40.9082 26.5578 41.3141 26.7318 41.7265 26.8736L42.2807 29.4447C42.4289 30.1342 43.0218 30.6111 43.7242 30.6111H47.655C48.3574 30.6111 48.9503 30.1342 49.0985 29.4447L49.6527 26.8736C50.0586 26.7318 50.471 26.5643 50.8641 26.3709L53.0744 27.8015C53.6673 28.1817 54.4212 28.1044 54.9174 27.6082L57.6948 24.8308C58.1909 24.3346 58.2747 23.5742 57.8881 22.9878L56.4575 20.7775C56.6444 20.3845 56.8184 19.9785 56.9601 19.5661L59.5313 19.0119C60.2208 18.8637 60.6977 18.2708 60.6977 17.5684V13.6376C60.7041 12.9352 60.2272 12.3424 59.5377 12.1942ZM59.2091 17.5556L56.6444 18.1097C56.1353 18.2193 55.7358 18.5737 55.5618 19.0634C55.4329 19.4243 55.2847 19.7916 55.1172 20.1396C54.8916 20.61 54.9238 21.1449 55.2074 21.583L56.6315 23.7869L53.8735 26.5449L51.6696 25.1208C51.2314 24.8373 50.6966 24.805 50.2262 25.0306C49.8782 25.1981 49.5173 25.3463 49.15 25.4752C48.6603 25.6492 48.3059 26.0487 48.1963 26.5578L47.6421 29.1225H43.7371L43.1829 26.5578C43.0733 26.0487 42.7189 25.6492 42.2292 25.4752C41.8683 25.3463 41.5075 25.1981 41.153 25.0306C40.6826 24.805 40.1478 24.8373 39.7096 25.1208L37.5057 26.5449L34.7477 23.7869L36.1718 21.583C36.4554 21.1449 36.4876 20.61 36.262 20.1396C36.0945 19.7916 35.9463 19.4308 35.8174 19.0634C35.6434 18.5737 35.2439 18.2193 34.7348 18.1097L32.1701 17.5556V13.6505L34.7348 13.0963C35.2439 12.9868 35.6434 12.6323 35.8174 12.1426C35.9463 11.7817 36.0945 11.4144 36.262 11.0665C36.4876 10.596 36.4554 10.0612 36.1718 9.623L34.7477 7.41916L37.5057 4.66113L39.7096 6.08525C40.1478 6.36879 40.6826 6.40101 41.153 6.17547C41.501 6.00792 41.8619 5.85971 42.2292 5.73083C42.7189 5.55684 43.0733 5.15732 43.1829 4.64824L43.7371 2.08353H47.6421L48.1963 4.64824C48.3059 5.15732 48.6603 5.55684 49.15 5.73083C49.5109 5.85971 49.8782 6.00792 50.2262 6.17547C50.6966 6.40101 51.2314 6.36879 51.6696 6.08525L53.8735 4.66113L56.6315 7.41916L55.2074 9.623C54.9238 10.0612 54.8916 10.596 55.1172 11.0665C55.2847 11.4144 55.4329 11.7753 55.5618 12.1426C55.7358 12.6323 56.1353 12.9868 56.6444 13.0963L59.2091 13.6505V17.5556ZM29.8567 47.1528L27.6206 45.7673C27.6206 45.3356 27.6013 44.8974 27.5562 44.4592L29.6441 42.8611C30.2047 42.4358 30.3787 41.6947 30.0823 41.0568L28.4004 37.5062C28.0975 36.8746 27.4144 36.5396 26.7314 36.7007L24.1731 37.2999C23.8702 36.9906 23.5416 36.6942 23.2001 36.4171L23.5416 33.8137C23.6318 33.1178 23.2387 32.467 22.575 32.2285L18.8762 30.9075C18.2124 30.6691 17.4971 30.9204 17.1234 31.5197L15.7379 33.7557C15.3062 33.7557 14.868 33.7751 14.4298 33.8202L12.8317 31.7323C12.4064 31.1782 11.6653 30.9977 11.0274 31.2941L7.47674 32.976C6.84522 33.2789 6.51014 33.962 6.67124 34.645L7.27053 37.2033C6.96122 37.5062 6.66479 37.8348 6.3877 38.1763L3.78433 37.8348C3.08838 37.7446 2.43753 38.1377 2.19911 38.8014L0.890976 42.5067C0.652549 43.1704 0.903864 43.8857 1.50316 44.2595L3.73922 45.6449C3.73922 46.0767 3.75855 46.5149 3.80366 46.953L1.71581 48.5512C1.16162 48.9765 0.981192 49.7175 1.27762 50.3555L2.9595 53.9061C3.26237 54.5376 3.94543 54.8727 4.62849 54.7116L7.18676 54.1123C7.48962 54.4216 7.81827 54.7181 8.1598 54.9951L7.81827 57.5985C7.72805 58.2945 8.12113 58.9453 8.78487 59.1837L12.4837 60.5048C12.6513 60.5628 12.8188 60.595 12.9863 60.595C13.4825 60.595 13.9594 60.3437 14.2365 59.8926L15.6155 57.6501C16.0472 57.6501 16.4854 57.6307 16.9236 57.5856L18.5217 59.6735C18.947 60.2277 19.6881 60.4081 20.3261 60.1117L23.8767 58.4298C24.5082 58.1269 24.8433 57.4439 24.6822 56.7608L24.0829 54.2025C24.3922 53.8997 24.6886 53.571 24.9657 53.2295L27.5691 53.571C28.2651 53.6612 28.9159 53.2682 29.1543 52.6044L30.4753 48.9056C30.7009 48.2418 30.4496 47.5201 29.8567 47.1528ZM27.7431 52.0825L25.1397 51.7409C24.6242 51.67 24.128 51.8698 23.7994 52.2758C23.5609 52.5787 23.2967 52.8622 23.0196 53.1393C22.6523 53.5066 22.4977 54.0221 22.6201 54.5247L23.2194 57.0766L19.6945 58.7455L18.0964 56.6641C17.7807 56.2517 17.2845 56.0391 16.769 56.0971C16.4017 56.1357 16.0344 56.1551 15.667 56.1551C15.6477 56.1551 15.6219 56.1551 15.6026 56.1551C15.0871 56.1551 14.6167 56.4128 14.346 56.851L12.967 59.0806L9.29394 57.7725L9.63547 55.1691C9.70636 54.6536 9.50659 54.151 9.10062 53.8288C8.8042 53.5839 8.51422 53.3261 8.23713 53.0491C7.86982 52.6818 7.3543 52.5271 6.85167 52.6495L4.29985 53.2488L2.63085 49.724L4.71226 48.1259C5.12468 47.8101 5.33733 47.3139 5.27933 46.7984C5.24067 46.4118 5.22134 46.0251 5.22134 45.6385C5.22134 45.123 4.96358 44.6461 4.52539 44.3754L2.29577 42.9964L3.6039 39.3234L6.20727 39.6649C6.72279 39.7358 7.21898 39.536 7.54762 39.13C7.79249 38.8336 8.05025 38.5436 8.32734 38.2665C8.69465 37.8992 8.84931 37.3837 8.72687 36.8811L8.12758 34.3293L11.6524 32.6603L13.2506 34.7417C13.5663 35.1541 14.0625 35.3667 14.578 35.3088C14.9647 35.2701 15.3577 35.2508 15.7379 35.2508C16.2535 35.2572 16.7303 34.993 17.001 34.5548L18.38 32.3252L22.053 33.6333L21.7115 36.2367C21.6406 36.7522 21.8404 37.2484 22.2464 37.577C22.5428 37.8219 22.8328 38.0797 23.1099 38.3568C23.4772 38.7241 23.9927 38.8787 24.4953 38.7563L27.0471 38.157L28.7161 41.6819L26.6347 43.28C26.2223 43.5957 26.0097 44.0919 26.0676 44.6074C26.1063 44.9941 26.1256 45.3807 26.1256 45.7673C26.1256 46.2829 26.3834 46.7597 26.8216 47.0304L29.0512 48.4094L27.7431 52.0825ZM10.0286 27.2924C10.3379 18.2902 16.2921 10.4543 24.7273 7.65114L22.1948 6.69743C21.8082 6.54922 21.6149 6.12391 21.7566 5.73728C21.9048 5.35064 22.3301 5.15732 22.7168 5.29908L27.2727 7.01963C27.6593 7.16784 27.8526 7.59314 27.7109 7.97978L25.9903 12.5357C25.8808 12.8321 25.5908 13.019 25.2944 13.019C25.2042 13.019 25.1204 13.0061 25.0302 12.9739C24.6435 12.8257 24.4502 12.4004 24.592 12.0137L25.7712 8.89483C17.6196 11.3178 11.82 18.7606 11.5236 27.344C11.5107 27.75 11.1756 28.0657 10.7761 28.0657C10.7696 28.0657 10.7567 28.0657 10.7503 28.0657C10.3379 28.0464 10.0157 27.7048 10.0286 27.2924ZM52.6749 31.6357C51.9789 35.7792 50.0844 39.6069 47.2039 42.6936C44.6972 45.3872 41.5783 47.3655 38.1115 48.4867L40.702 49.7497C41.0757 49.9302 41.2239 50.3748 41.0435 50.7486C40.9146 51.0128 40.6504 51.1674 40.3733 51.1674C40.2638 51.1674 40.1542 51.1416 40.0447 51.0901L35.6628 48.9571C35.289 48.7767 35.1408 48.3321 35.3212 47.9583L37.4542 43.5764C37.6346 43.2026 38.0792 43.0544 38.453 43.2349C38.8268 43.4153 38.975 43.8599 38.7945 44.2337L37.3769 47.1464C44.5683 44.9361 49.9298 38.8658 51.1928 31.3908C51.2637 30.9848 51.6438 30.7077 52.0563 30.7786C52.4687 30.8431 52.7458 31.2297 52.6749 31.6357ZM45.6896 7.94112C41.4623 7.94112 38.0213 11.3822 38.0213 15.6095C38.0213 19.8367 41.4623 23.2778 45.6896 23.2778C49.9169 23.2778 53.358 19.8367 53.358 15.6095C53.358 11.3822 49.9169 7.94112 45.6896 7.94112ZM45.6896 21.7764C42.2872 21.7764 39.5163 19.0055 39.5163 15.603C39.5163 12.2006 42.2872 9.42968 45.6896 9.42968C49.092 9.42968 51.8629 12.2006 51.8629 15.603C51.8629 19.0055 49.092 21.7764 45.6896 21.7764ZM45.6896 10.9698C43.1378 10.9698 41.0564 13.0512 41.0564 15.603C41.0564 18.1548 43.1378 20.2363 45.6896 20.2363C48.2414 20.2363 50.3228 18.1548 50.3228 15.603C50.3228 13.0512 48.2414 10.9698 45.6896 10.9698ZM45.6896 18.7412C43.9562 18.7412 42.5514 17.33 42.5514 15.603C42.5514 13.876 43.9626 12.4648 45.6896 12.4648C47.4166 12.4648 48.8278 13.876 48.8278 15.603C48.8278 17.33 47.4166 18.7412 45.6896 18.7412ZM15.6799 38.041C11.4527 38.041 8.01159 41.4821 8.01159 45.7094C8.01159 49.9366 11.4527 53.3777 15.6799 53.3777C19.9072 53.3777 23.3483 49.9366 23.3483 45.7094C23.3483 41.4821 19.9072 38.041 15.6799 38.041ZM15.6799 51.8763C12.2775 51.8763 9.50659 49.1053 9.50659 45.7029C9.50659 42.3005 12.2775 39.5296 15.6799 39.5296C19.0824 39.5296 21.8533 42.3005 21.8533 45.7029C21.8533 49.1053 19.0824 51.8763 15.6799 51.8763ZM15.6799 41.0697C13.1281 41.0697 11.0467 43.1511 11.0467 45.7029C11.0467 48.2547 13.1281 50.3361 15.6799 50.3361C18.2318 50.3361 20.3132 48.2547 20.3132 45.7029C20.3132 43.1511 18.2318 41.0697 15.6799 41.0697ZM15.6799 48.8476C13.9465 48.8476 12.5417 47.4363 12.5417 45.7094C12.5417 43.9824 13.9529 42.5711 15.6799 42.5711C17.4069 42.5711 18.8182 43.9824 18.8182 45.7094C18.8182 47.4363 17.4069 48.8476 15.6799 48.8476Z" fill="url(#paint0_linear_858_2225)"/>
<defs>
<linearGradient id="paint0_linear_858_2225" x1="30.7497" y1="60.595" x2="30.7497" y2="0.594971" gradientUnits="userSpaceOnUse">
<stop stop-color="#5934DF"/>
<stop offset="1" stop-color="#DB80EB"/>
</linearGradient>
</defs>
</svg>
