<svg width="74" height="61" viewBox="0 0 74 61" fill="none" xmlns="http://www.w3.org/2000/svg">
<path d="M67.7763 12.7839C67.7763 11.4718 67.3872 10.1891 66.6583 9.09812C65.9294 8.00711 64.8933 7.15672 63.6811 6.65449C62.4689 6.15225 61.1351 6.02072 59.8481 6.27652C58.5612 6.53233 57.379 7.16398 56.451 8.09161C55.523 9.01924 54.8909 10.2012 54.6347 11.488C54.3784 12.7749 54.5094 14.1088 55.0112 15.3212C55.513 16.5336 56.363 17.5699 57.4538 18.2993C58.5445 19.0286 59.827 19.4181 61.1391 19.4186C62.8985 19.4171 64.5855 18.7177 65.8298 17.4738C67.0741 16.23 67.7741 14.5433 67.7763 12.7839ZM56.2556 12.7839C56.2556 11.8174 56.5422 10.8727 57.0792 10.0691C57.6162 9.2656 58.3794 8.63935 59.2724 8.26962C60.1653 7.89988 61.1478 7.80326 62.0957 7.99199C63.0435 8.18071 63.9141 8.6463 64.5974 9.32986C65.2806 10.0134 65.7457 10.8842 65.934 11.8322C66.1222 12.7801 66.0251 13.7626 65.6549 14.6554C65.2848 15.5481 64.6581 16.3111 63.8543 16.8476C63.0505 17.3842 62.1056 17.6704 61.1391 17.6699C59.8442 17.6677 58.6029 17.1522 57.6875 16.2363C56.772 15.3204 56.2571 14.0789 56.2556 12.7839ZM65.4959 27.0549C69.2494 22.4819 73.3338 17.1317 73.3338 12.7839C73.3338 9.5512 72.0496 6.4509 69.7637 4.16503C67.4778 1.87916 64.3775 0.594971 61.1448 0.594971C57.9121 0.594971 54.8118 1.87916 52.526 4.16503C50.2401 6.4509 48.9559 9.5512 48.9559 12.7839C48.9559 17.1317 53.0378 22.4819 56.7905 27.0549C53.411 27.6158 50.277 28.915 50.277 31.1482C50.277 34.0611 55.7442 35.5854 61.1448 35.5854C66.5454 35.5854 72.0127 34.0611 72.0127 31.1482C72.0094 28.9166 68.8697 27.6158 65.4959 27.0549ZM61.1391 2.34368C63.9075 2.34626 66.5618 3.44696 68.5195 5.40426C70.4773 7.36155 71.5786 10.0156 71.5818 12.7839C71.5818 16.9683 66.5975 22.9867 62.9586 27.3817C62.3139 28.1573 61.6952 28.9076 61.1391 29.5987C60.5863 28.9076 59.9668 28.1597 59.323 27.3817C55.6857 22.9867 50.7014 16.9683 50.7014 12.7839C50.7046 10.0164 51.8052 7.36313 53.7619 5.40598C55.7186 3.44882 58.3716 2.34755 61.1391 2.34368ZM61.1391 33.8367C55.6573 33.8367 52.02 32.2189 52.02 31.1482C52.02 30.3742 54.1264 29.1036 58.0897 28.6353C58.9661 29.6922 59.7912 30.6929 60.4473 31.5466C60.5291 31.653 60.6342 31.7392 60.7546 31.7985C60.875 31.8578 61.0074 31.8886 61.1416 31.8886C61.2758 31.8886 61.4082 31.8578 61.5286 31.7985C61.649 31.7392 61.7541 31.653 61.8359 31.5466C62.4862 30.6929 63.3147 29.6938 64.1935 28.6345C68.1559 29.1036 70.2624 30.3767 70.2624 31.1482C70.2607 32.2221 66.6235 33.8367 61.1391 33.8367ZM49.6762 23.2412C45.8073 24.1501 40.3676 25.872 37.8068 30.3051C36.0296 33.3806 35.8743 37.4252 37.3466 42.3282C38.6474 46.663 36.9296 49.2995 35.2581 50.7482C33.009 52.5235 30.2107 53.4577 27.3462 53.3896C25.7626 53.4196 24.1906 53.1131 22.7342 52.4904C22.6267 52.4442 22.5296 52.3769 22.4485 52.2925C22.3675 52.2081 22.3042 52.1083 22.2625 51.999C22.2207 51.8898 22.2013 51.7732 22.2053 51.6563C22.2094 51.5393 22.2369 51.4244 22.2862 51.3183C22.3354 51.2122 22.4055 51.117 22.4922 51.0384C22.5789 50.9599 22.6805 50.8995 22.791 50.8609C22.9014 50.8223 23.0185 50.8063 23.1353 50.8137C23.252 50.8212 23.3661 50.852 23.4708 50.9043C26.2235 52.1815 31.2713 51.8888 34.1126 49.4263C35.9768 47.8109 36.5011 45.5923 35.6719 42.8307C34.0557 37.4479 34.2646 32.9392 36.293 29.4296C39.1953 24.4094 45.0943 22.5193 49.2787 21.5388C49.5015 21.4935 49.7333 21.5368 49.9248 21.6594C50.1163 21.7821 50.2525 21.9746 50.3046 22.196C50.3566 22.4174 50.3203 22.6503 50.2035 22.8455C50.0866 23.0406 49.8984 23.1825 49.6786 23.2412H49.6762ZM18.9888 37.7935C18.9883 36.4811 18.5987 35.1983 17.869 34.1074C17.1394 33.0165 16.1027 32.1665 14.8899 31.6649C13.6772 31.1633 12.3429 31.0327 11.0559 31.2895C9.76886 31.5463 8.58692 32.179 7.65954 33.1076C6.73217 34.0363 6.10103 35.2191 5.84596 36.5064C5.59089 37.7938 5.72335 39.1279 6.22659 40.34C6.72982 41.552 7.58122 42.5876 8.67309 43.3158C9.76496 44.0439 11.0483 44.4319 12.3606 44.4306C14.1193 44.428 15.8051 43.7281 17.0484 42.4843C18.2917 41.2406 18.991 39.5545 18.9929 37.7959L18.9888 37.7935ZM7.46816 37.7935C7.46864 36.8275 7.75544 35.8833 8.29233 35.0803C8.82921 34.2773 9.59208 33.6514 10.4845 33.2818C11.377 32.9121 12.359 32.8153 13.3064 33.0036C14.2539 33.1919 15.1243 33.6568 15.8076 34.3396C16.4909 35.0223 16.9566 35.8923 17.1456 36.8396C17.3347 37.7869 17.2387 38.769 16.8698 39.6617C16.5009 40.5545 15.8757 41.3179 15.0731 41.8554C14.2705 42.393 13.3266 42.6806 12.3606 42.6819C11.0648 42.681 9.82232 42.166 8.90582 41.25C7.98932 40.334 7.47373 39.0917 7.47222 37.7959L7.46816 37.7935ZM16.7125 52.0669C20.466 47.4939 24.5471 42.1404 24.5471 37.7959C24.5471 34.5628 23.2628 31.462 20.9766 29.1759C18.6904 26.8897 15.5897 25.6053 12.3566 25.6053C9.12344 25.6053 6.02272 26.8897 3.73655 29.1759C1.45037 31.462 0.166016 34.5628 0.166016 37.7959C0.166016 42.1437 4.24715 47.4939 8.00066 52.0669C4.62112 52.6278 1.4871 53.9269 1.4871 56.1602C1.49035 59.0731 6.95761 60.595 12.3606 60.595C17.7637 60.595 23.2285 59.0706 23.2285 56.1578C23.2261 53.9286 20.0839 52.6278 16.7125 52.0669ZM12.3606 27.3557C15.1281 27.3595 17.7812 28.4608 19.7379 30.418C21.6946 32.3751 22.7952 35.0284 22.7984 37.7959C22.7984 41.9803 17.8141 47.9995 14.1744 52.3945C13.5305 53.1725 12.911 53.9196 12.3582 54.6107C11.8054 53.9196 11.1859 53.1725 10.542 52.3945C6.90233 47.9995 1.91798 41.9778 1.91798 37.7959C1.92121 35.0275 3.02253 32.3735 4.98028 30.4162C6.93803 28.459 9.59229 27.3583 12.3606 27.3557ZM12.3606 58.8487C6.87875 58.8487 3.2415 57.2309 3.2415 56.1602C3.2415 55.3862 5.34792 54.1156 9.31117 53.6473C10.1876 54.7041 11.0127 55.7049 11.6688 56.5585C11.7506 56.665 11.8557 56.7512 11.9761 56.8105C12.0965 56.8698 12.2289 56.9006 12.3631 56.9006C12.4973 56.9006 12.6297 56.8698 12.7501 56.8105C12.8705 56.7512 12.9756 56.665 13.0574 56.5585C13.7077 55.7049 14.5362 54.7058 15.415 53.6465C19.3774 54.1156 21.483 55.3887 21.483 56.1602C21.4765 57.2309 17.8401 58.8487 12.3606 58.8487Z" fill="black"/>
<path d="M67.7763 12.7839C67.7763 11.4718 67.3872 10.1891 66.6583 9.09812C65.9294 8.00711 64.8933 7.15672 63.6811 6.65449C62.4689 6.15225 61.1351 6.02072 59.8481 6.27652C58.5612 6.53233 57.379 7.16398 56.451 8.09161C55.523 9.01924 54.8909 10.2012 54.6347 11.488C54.3784 12.7749 54.5094 14.1088 55.0112 15.3212C55.513 16.5336 56.363 17.5699 57.4538 18.2993C58.5445 19.0286 59.827 19.4181 61.1391 19.4186C62.8985 19.4171 64.5855 18.7177 65.8298 17.4738C67.0741 16.23 67.7741 14.5433 67.7763 12.7839ZM56.2556 12.7839C56.2556 11.8174 56.5422 10.8727 57.0792 10.0691C57.6162 9.2656 58.3794 8.63935 59.2724 8.26962C60.1653 7.89988 61.1478 7.80326 62.0957 7.99199C63.0435 8.18071 63.9141 8.6463 64.5974 9.32986C65.2806 10.0134 65.7457 10.8842 65.934 11.8322C66.1222 12.7801 66.0251 13.7626 65.6549 14.6554C65.2848 15.5481 64.6581 16.3111 63.8543 16.8476C63.0505 17.3842 62.1056 17.6704 61.1391 17.6699C59.8442 17.6677 58.6029 17.1522 57.6875 16.2363C56.772 15.3204 56.2571 14.0789 56.2556 12.7839ZM65.4959 27.0549C69.2494 22.4819 73.3338 17.1317 73.3338 12.7839C73.3338 9.5512 72.0496 6.4509 69.7637 4.16503C67.4778 1.87916 64.3775 0.594971 61.1448 0.594971C57.9121 0.594971 54.8118 1.87916 52.526 4.16503C50.2401 6.4509 48.9559 9.5512 48.9559 12.7839C48.9559 17.1317 53.0378 22.4819 56.7905 27.0549C53.411 27.6158 50.277 28.915 50.277 31.1482C50.277 34.0611 55.7442 35.5854 61.1448 35.5854C66.5454 35.5854 72.0127 34.0611 72.0127 31.1482C72.0094 28.9166 68.8697 27.6158 65.4959 27.0549ZM61.1391 2.34368C63.9075 2.34626 66.5618 3.44696 68.5195 5.40426C70.4773 7.36155 71.5786 10.0156 71.5818 12.7839C71.5818 16.9683 66.5975 22.9867 62.9586 27.3817C62.3139 28.1573 61.6952 28.9076 61.1391 29.5987C60.5863 28.9076 59.9668 28.1597 59.323 27.3817C55.6857 22.9867 50.7014 16.9683 50.7014 12.7839C50.7046 10.0164 51.8052 7.36313 53.7619 5.40598C55.7186 3.44882 58.3716 2.34755 61.1391 2.34368ZM61.1391 33.8367C55.6573 33.8367 52.02 32.2189 52.02 31.1482C52.02 30.3742 54.1264 29.1036 58.0897 28.6353C58.9661 29.6922 59.7912 30.6929 60.4473 31.5466C60.5291 31.653 60.6342 31.7392 60.7546 31.7985C60.875 31.8578 61.0074 31.8886 61.1416 31.8886C61.2758 31.8886 61.4082 31.8578 61.5286 31.7985C61.649 31.7392 61.7541 31.653 61.8359 31.5466C62.4862 30.6929 63.3147 29.6938 64.1935 28.6345C68.1559 29.1036 70.2624 30.3767 70.2624 31.1482C70.2607 32.2221 66.6235 33.8367 61.1391 33.8367ZM49.6762 23.2412C45.8073 24.1501 40.3676 25.872 37.8068 30.3051C36.0296 33.3806 35.8743 37.4252 37.3466 42.3282C38.6474 46.663 36.9296 49.2995 35.2581 50.7482C33.009 52.5235 30.2107 53.4577 27.3462 53.3896C25.7626 53.4196 24.1906 53.1131 22.7342 52.4904C22.6267 52.4442 22.5296 52.3769 22.4485 52.2925C22.3675 52.2081 22.3042 52.1083 22.2625 51.999C22.2207 51.8898 22.2013 51.7732 22.2053 51.6563C22.2094 51.5393 22.2369 51.4244 22.2862 51.3183C22.3354 51.2122 22.4055 51.117 22.4922 51.0384C22.5789 50.9599 22.6805 50.8995 22.791 50.8609C22.9014 50.8223 23.0185 50.8063 23.1353 50.8137C23.252 50.8212 23.3661 50.852 23.4708 50.9043C26.2235 52.1815 31.2713 51.8888 34.1126 49.4263C35.9768 47.8109 36.5011 45.5923 35.6719 42.8307C34.0557 37.4479 34.2646 32.9392 36.293 29.4296C39.1953 24.4094 45.0943 22.5193 49.2787 21.5388C49.5015 21.4935 49.7333 21.5368 49.9248 21.6594C50.1163 21.7821 50.2525 21.9746 50.3046 22.196C50.3566 22.4174 50.3203 22.6503 50.2035 22.8455C50.0866 23.0406 49.8984 23.1825 49.6786 23.2412H49.6762ZM18.9888 37.7935C18.9883 36.4811 18.5987 35.1983 17.869 34.1074C17.1394 33.0165 16.1027 32.1665 14.8899 31.6649C13.6772 31.1633 12.3429 31.0327 11.0559 31.2895C9.76886 31.5463 8.58692 32.179 7.65954 33.1076C6.73217 34.0363 6.10103 35.2191 5.84596 36.5064C5.59089 37.7938 5.72335 39.1279 6.22659 40.34C6.72982 41.552 7.58122 42.5876 8.67309 43.3158C9.76496 44.0439 11.0483 44.4319 12.3606 44.4306C14.1193 44.428 15.8051 43.7281 17.0484 42.4843C18.2917 41.2406 18.991 39.5545 18.9929 37.7959L18.9888 37.7935ZM7.46816 37.7935C7.46864 36.8275 7.75544 35.8833 8.29233 35.0803C8.82921 34.2773 9.59208 33.6514 10.4845 33.2818C11.377 32.9121 12.359 32.8153 13.3064 33.0036C14.2539 33.1919 15.1243 33.6568 15.8076 34.3396C16.4909 35.0223 16.9566 35.8923 17.1456 36.8396C17.3347 37.7869 17.2387 38.769 16.8698 39.6617C16.5009 40.5545 15.8757 41.3179 15.0731 41.8554C14.2705 42.393 13.3266 42.6806 12.3606 42.6819C11.0648 42.681 9.82232 42.166 8.90582 41.25C7.98932 40.334 7.47373 39.0917 7.47222 37.7959L7.46816 37.7935ZM16.7125 52.0669C20.466 47.4939 24.5471 42.1404 24.5471 37.7959C24.5471 34.5628 23.2628 31.462 20.9766 29.1759C18.6904 26.8897 15.5897 25.6053 12.3566 25.6053C9.12344 25.6053 6.02272 26.8897 3.73655 29.1759C1.45037 31.462 0.166016 34.5628 0.166016 37.7959C0.166016 42.1437 4.24715 47.4939 8.00066 52.0669C4.62112 52.6278 1.4871 53.9269 1.4871 56.1602C1.49035 59.0731 6.95761 60.595 12.3606 60.595C17.7637 60.595 23.2285 59.0706 23.2285 56.1578C23.2261 53.9286 20.0839 52.6278 16.7125 52.0669ZM12.3606 27.3557C15.1281 27.3595 17.7812 28.4608 19.7379 30.418C21.6946 32.3751 22.7952 35.0284 22.7984 37.7959C22.7984 41.9803 17.8141 47.9995 14.1744 52.3945C13.5305 53.1725 12.911 53.9196 12.3582 54.6107C11.8054 53.9196 11.1859 53.1725 10.542 52.3945C6.90233 47.9995 1.91798 41.9778 1.91798 37.7959C1.92121 35.0275 3.02253 32.3735 4.98028 30.4162C6.93803 28.459 9.59229 27.3583 12.3606 27.3557ZM12.3606 58.8487C6.87875 58.8487 3.2415 57.2309 3.2415 56.1602C3.2415 55.3862 5.34792 54.1156 9.31117 53.6473C10.1876 54.7041 11.0127 55.7049 11.6688 56.5585C11.7506 56.665 11.8557 56.7512 11.9761 56.8105C12.0965 56.8698 12.2289 56.9006 12.3631 56.9006C12.4973 56.9006 12.6297 56.8698 12.7501 56.8105C12.8705 56.7512 12.9756 56.665 13.0574 56.5585C13.7077 55.7049 14.5362 54.7058 15.415 53.6465C19.3774 54.1156 21.483 55.3887 21.483 56.1602C21.4765 57.2309 17.8401 58.8487 12.3606 58.8487Z" fill="url(#paint0_linear_858_2207)"/>
<defs>
<linearGradient id="paint0_linear_858_2207" x1="36.7499" y1="60.595" x2="36.7499" y2="0.594971" gradientUnits="userSpaceOnUse">
<stop stop-color="#5934DF"/>
<stop offset="1" stop-color="#DB80EB"/>
</linearGradient>
</defs>
</svg>
