<svg width="61" height="61" viewBox="0 0 61 61" fill="none" xmlns="http://www.w3.org/2000/svg">
<path fill-rule="evenodd" clip-rule="evenodd" d="M40.9449 20.6784C41.4179 19.1775 41.6582 17.6256 41.6582 16.048C41.6582 7.52591 34.7266 0.594971 26.2051 0.594971C18.6956 0.594971 12.2935 6.02053 11.0001 13.3409C5.29075 13.6835 0.75 18.4366 0.75 24.2305C0.75 30.2466 5.64375 35.1404 11.6599 35.1404H39.8412C43.8503 35.1404 47.1125 31.8779 47.1125 27.8691C47.1125 24.2333 44.4329 21.2137 40.9455 20.6796L40.9449 20.6784ZM39.8403 33.3215H11.6564C6.64251 33.3215 2.56419 29.2434 2.56419 24.2293C2.56419 19.218 6.64231 15.1397 11.6538 15.1397H11.6564C11.6794 15.1422 11.7638 15.1473 11.7817 15.1448C12.2393 15.1448 12.628 14.8022 12.6842 14.347C13.5305 7.54307 19.3448 2.4095 26.2018 2.4095C33.7212 2.4095 39.8372 8.52796 39.8372 16.0449C39.8372 17.8014 39.4997 19.5247 38.8324 21.1662C38.7173 21.45 38.7531 21.7721 38.927 22.0253C39.1008 22.2784 39.4051 22.4216 39.6966 22.4165L39.7241 22.4149L39.7244 22.4149C39.7629 22.4126 39.8289 22.4088 39.8397 22.4088C42.8466 22.4113 45.2908 24.8557 45.2908 27.8624C45.2908 30.8692 42.844 33.3161 39.8372 33.3161L39.8403 33.3215ZM43.4716 44.2287H30.749C29.2456 44.2287 28.0209 45.4509 28.0209 46.9569V54.2282C28.0209 55.7316 29.243 56.9563 30.749 56.9563H36.2026V58.7742H35.2924C34.7913 58.7742 34.3822 59.1807 34.3822 59.6844C34.3822 60.1855 34.7887 60.5946 35.2924 60.5946H38.9282C39.4293 60.5946 39.8384 60.188 39.8384 59.6844C39.8384 59.1832 39.4319 58.7742 38.9282 58.7742H38.018V56.9563H43.4716C44.9751 56.9563 46.1998 55.7341 46.1998 54.2282V46.9569C46.1998 45.4534 44.9776 44.2287 43.4716 44.2287ZM44.3842 54.2282C44.3842 54.7293 43.9751 55.1384 43.474 55.1384H30.7464C30.2453 55.1384 29.8362 54.7293 29.8362 54.2282V46.9569C29.8362 46.4557 30.2453 46.0467 30.7464 46.0467H43.474C43.9751 46.0467 44.3842 46.4557 44.3842 46.9569V54.2282ZM52.5688 36.9575H58.0224C59.5284 36.9575 60.7505 38.1822 60.7505 39.6856V57.8668C60.7505 59.3728 59.5258 60.595 58.0224 60.595H52.5688C51.0628 60.595 49.8406 59.3703 49.8406 57.8668V39.6856C49.8406 38.1797 51.0653 36.9575 52.5688 36.9575ZM58.0198 58.7771C58.521 58.7771 58.93 58.368 58.93 57.8668V39.6856C58.93 39.1845 58.521 38.7754 58.0198 38.7754H52.5662C52.0651 38.7754 51.656 39.1845 51.656 39.6856V57.8668C51.656 58.368 52.0651 58.7771 52.5662 58.7771H58.0198ZM53.4764 39.6856C52.9753 39.6856 52.5662 40.0922 52.5662 40.5958V41.506C52.5662 42.0072 52.9727 42.4162 53.4764 42.4162C53.9775 42.4162 54.3866 42.0097 54.3866 41.506V40.5958C54.3866 40.0947 53.9801 39.6856 53.4764 39.6856ZM52.5662 44.2313C52.5662 43.7276 52.9753 43.3211 53.4764 43.3211C53.9801 43.3211 54.3866 43.7301 54.3866 44.2313V47.8671C54.3866 48.3707 53.9775 48.7773 53.4764 48.7773C52.9727 48.7773 52.5662 48.3682 52.5662 47.8671V44.2313ZM50.4817 19.4178C50.8371 19.0624 50.8371 18.4871 50.4817 18.1317L48.3979 16.0479H49.84C53.3479 16.0479 56.2039 18.9013 56.2039 22.4118V30.5936C56.2039 31.0947 56.6104 31.5038 57.1141 31.5038C57.6152 31.5038 58.0243 31.0973 58.0243 30.5936V22.4118C58.0243 17.9016 54.3527 14.2301 49.8425 14.2301H48.4005L50.4843 12.1463C50.8397 11.7909 50.8397 11.2156 50.4843 10.8602C50.1289 10.5048 49.5536 10.5048 49.1982 10.8602L45.5625 14.496C45.2071 14.8514 45.2071 15.4267 45.5625 15.782L49.1982 19.4178C49.3747 19.5942 49.6073 19.6837 49.84 19.6837C50.0727 19.6837 50.3053 19.5942 50.4817 19.4178ZM20.105 46.3155C20.4603 45.9601 21.0356 45.9601 21.391 46.3155L21.386 46.3154L25.0217 49.9512C25.3771 50.3065 25.3771 50.8818 25.0217 51.2372L21.386 54.873C21.2095 55.0494 20.9769 55.1389 20.7442 55.1389C20.5115 55.1389 20.2789 55.0494 20.1024 54.873C19.747 54.5177 19.747 53.9424 20.1024 53.587L22.1862 51.5032H18.0161C13.5059 51.5032 9.83432 47.8316 9.83432 43.3214V36.9575C9.83432 36.4538 10.2434 36.0473 10.7445 36.0473C11.2482 36.0473 11.6547 36.4564 11.6547 36.9575V43.3214C11.6547 46.8319 14.5107 49.6853 18.0186 49.6853H22.1888L20.105 47.6015C19.7496 47.2462 19.7496 46.6709 20.105 46.3155Z" fill="black"/>
<path fill-rule="evenodd" clip-rule="evenodd" d="M40.9449 20.6784C41.4179 19.1775 41.6582 17.6256 41.6582 16.048C41.6582 7.52591 34.7266 0.594971 26.2051 0.594971C18.6956 0.594971 12.2935 6.02053 11.0001 13.3409C5.29075 13.6835 0.75 18.4366 0.75 24.2305C0.75 30.2466 5.64375 35.1404 11.6599 35.1404H39.8412C43.8503 35.1404 47.1125 31.8779 47.1125 27.8691C47.1125 24.2333 44.4329 21.2137 40.9455 20.6796L40.9449 20.6784ZM39.8403 33.3215H11.6564C6.64251 33.3215 2.56419 29.2434 2.56419 24.2293C2.56419 19.218 6.64231 15.1397 11.6538 15.1397H11.6564C11.6794 15.1422 11.7638 15.1473 11.7817 15.1448C12.2393 15.1448 12.628 14.8022 12.6842 14.347C13.5305 7.54307 19.3448 2.4095 26.2018 2.4095C33.7212 2.4095 39.8372 8.52796 39.8372 16.0449C39.8372 17.8014 39.4997 19.5247 38.8324 21.1662C38.7173 21.45 38.7531 21.7721 38.927 22.0253C39.1008 22.2784 39.4051 22.4216 39.6966 22.4165L39.7241 22.4149L39.7244 22.4149C39.7629 22.4126 39.8289 22.4088 39.8397 22.4088C42.8466 22.4113 45.2908 24.8557 45.2908 27.8624C45.2908 30.8692 42.844 33.3161 39.8372 33.3161L39.8403 33.3215ZM43.4716 44.2287H30.749C29.2456 44.2287 28.0209 45.4509 28.0209 46.9569V54.2282C28.0209 55.7316 29.243 56.9563 30.749 56.9563H36.2026V58.7742H35.2924C34.7913 58.7742 34.3822 59.1807 34.3822 59.6844C34.3822 60.1855 34.7887 60.5946 35.2924 60.5946H38.9282C39.4293 60.5946 39.8384 60.188 39.8384 59.6844C39.8384 59.1832 39.4319 58.7742 38.9282 58.7742H38.018V56.9563H43.4716C44.9751 56.9563 46.1998 55.7341 46.1998 54.2282V46.9569C46.1998 45.4534 44.9776 44.2287 43.4716 44.2287ZM44.3842 54.2282C44.3842 54.7293 43.9751 55.1384 43.474 55.1384H30.7464C30.2453 55.1384 29.8362 54.7293 29.8362 54.2282V46.9569C29.8362 46.4557 30.2453 46.0467 30.7464 46.0467H43.474C43.9751 46.0467 44.3842 46.4557 44.3842 46.9569V54.2282ZM52.5688 36.9575H58.0224C59.5284 36.9575 60.7505 38.1822 60.7505 39.6856V57.8668C60.7505 59.3728 59.5258 60.595 58.0224 60.595H52.5688C51.0628 60.595 49.8406 59.3703 49.8406 57.8668V39.6856C49.8406 38.1797 51.0653 36.9575 52.5688 36.9575ZM58.0198 58.7771C58.521 58.7771 58.93 58.368 58.93 57.8668V39.6856C58.93 39.1845 58.521 38.7754 58.0198 38.7754H52.5662C52.0651 38.7754 51.656 39.1845 51.656 39.6856V57.8668C51.656 58.368 52.0651 58.7771 52.5662 58.7771H58.0198ZM53.4764 39.6856C52.9753 39.6856 52.5662 40.0922 52.5662 40.5958V41.506C52.5662 42.0072 52.9727 42.4162 53.4764 42.4162C53.9775 42.4162 54.3866 42.0097 54.3866 41.506V40.5958C54.3866 40.0947 53.9801 39.6856 53.4764 39.6856ZM52.5662 44.2313C52.5662 43.7276 52.9753 43.3211 53.4764 43.3211C53.9801 43.3211 54.3866 43.7301 54.3866 44.2313V47.8671C54.3866 48.3707 53.9775 48.7773 53.4764 48.7773C52.9727 48.7773 52.5662 48.3682 52.5662 47.8671V44.2313ZM50.4817 19.4178C50.8371 19.0624 50.8371 18.4871 50.4817 18.1317L48.3979 16.0479H49.84C53.3479 16.0479 56.2039 18.9013 56.2039 22.4118V30.5936C56.2039 31.0947 56.6104 31.5038 57.1141 31.5038C57.6152 31.5038 58.0243 31.0973 58.0243 30.5936V22.4118C58.0243 17.9016 54.3527 14.2301 49.8425 14.2301H48.4005L50.4843 12.1463C50.8397 11.7909 50.8397 11.2156 50.4843 10.8602C50.1289 10.5048 49.5536 10.5048 49.1982 10.8602L45.5625 14.496C45.2071 14.8514 45.2071 15.4267 45.5625 15.782L49.1982 19.4178C49.3747 19.5942 49.6073 19.6837 49.84 19.6837C50.0727 19.6837 50.3053 19.5942 50.4817 19.4178ZM20.105 46.3155C20.4603 45.9601 21.0356 45.9601 21.391 46.3155L21.386 46.3154L25.0217 49.9512C25.3771 50.3065 25.3771 50.8818 25.0217 51.2372L21.386 54.873C21.2095 55.0494 20.9769 55.1389 20.7442 55.1389C20.5115 55.1389 20.2789 55.0494 20.1024 54.873C19.747 54.5177 19.747 53.9424 20.1024 53.587L22.1862 51.5032H18.0161C13.5059 51.5032 9.83432 47.8316 9.83432 43.3214V36.9575C9.83432 36.4538 10.2434 36.0473 10.7445 36.0473C11.2482 36.0473 11.6547 36.4564 11.6547 36.9575V43.3214C11.6547 46.8319 14.5107 49.6853 18.0186 49.6853H22.1888L20.105 47.6015C19.7496 47.2462 19.7496 46.6709 20.105 46.3155Z" fill="url(#paint0_linear_858_2234)"/>
<defs>
<linearGradient id="paint0_linear_858_2234" x1="30.7503" y1="60.595" x2="30.7503" y2="0.594971" gradientUnits="userSpaceOnUse">
<stop stop-color="#5934DF"/>
<stop offset="1" stop-color="#DB80EB"/>
</linearGradient>
</defs>
</svg>
