<svg width="61" height="61" viewBox="0 0 61 61" fill="none" xmlns="http://www.w3.org/2000/svg">
<path fill-rule="evenodd" clip-rule="evenodd" d="M44.167 4.58496H55.4447C56.16 4.58496 56.7398 5.16464 56.7398 5.88003L56.743 17.1576C56.743 17.873 56.1636 18.4525 55.4482 18.4525C54.7328 18.4525 54.1534 17.873 54.1534 17.1576V9.00675L36.4568 26.7034C36.2043 26.9559 35.8708 27.0821 35.5407 27.0821C35.2072 27.0821 34.877 26.9559 34.6245 26.7034C34.1196 26.1952 34.1196 25.3762 34.6245 24.8712L52.3212 7.17461H44.167C43.4517 7.17461 42.8722 6.59517 42.8722 5.87978C42.8722 5.1644 43.4517 4.58496 44.167 4.58496ZM10.714 56.585H50.7827C54.0683 56.585 56.7389 53.9111 56.7389 50.6255V24.9172C56.7389 24.2018 56.1595 23.6224 55.4441 23.6224C54.7287 23.6224 54.1492 24.2018 54.1492 24.9172V50.6255C54.1492 52.4836 52.6375 53.9953 50.7827 53.9953H10.714C8.85915 53.9953 7.34746 52.4804 7.34746 50.6255V10.5602C7.34746 8.70209 8.85915 7.19363 10.714 7.19363H36.3867C37.1021 7.19363 37.6816 6.61419 37.6816 5.8988C37.6816 5.18341 37.1021 4.60398 36.3867 4.60398H10.714C7.42842 4.60398 4.75781 7.27782 4.75781 10.5602V50.6255C4.75781 53.9111 7.42842 56.585 10.714 56.585Z" fill="white"/>
</svg>
