<svg width="48" height="45" viewBox="0 0 48 45" fill="none" xmlns="http://www.w3.org/2000/svg">
<g clip-path="url(#clip0_858_2491)">
<path d="M0.244381 26.3399L6.94471 30.0344C7.0871 30.1133 7.25836 30.1133 7.39883 30.0344L12.8347 27.0365L20.135 31.6104L17.1409 33.2786C16.9831 33.3672 16.9042 33.5403 16.9004 33.6769C16.8985 33.7616 16.8292 40.4581 16.8311 40.5059C16.8292 40.679 16.9235 40.8387 17.0736 40.9215L23.7739 44.616C23.8451 44.6545 23.9221 44.6737 24.001 44.6737C24.0799 44.6737 24.1568 44.6545 24.228 44.616L30.9283 40.9215C31.0784 40.8387 31.1708 40.681 31.1708 40.5097V33.6882C31.1708 33.5342 31.0784 33.3611 30.9283 33.2764L28.194 31.7678L35.4387 27.1824L40.6031 30.0302C40.7455 30.1091 40.9167 30.1091 41.0572 30.0302L47.7575 26.3357C47.9076 26.253 48 26.0952 48 25.9239V19.1064C48 18.9582 47.9096 18.7793 47.7575 18.6946L41.0572 15.0001C40.9148 14.9212 40.7436 14.9212 40.6012 15.0001L37.8976 16.5068L31.1111 11.5709C31.1496 11.5017 31.1727 11.4228 31.1727 11.3419L31.1708 4.52043C31.1708 4.37034 31.0822 4.19331 30.9283 4.10864L24.228 0.414151C24.0856 0.335257 23.9124 0.335257 23.7719 0.414151L17.1391 4.10864C16.9851 4.19523 16.9024 4.36649 16.8986 4.50696C16.8966 4.59162 16.8274 11.2881 16.8293 11.3359C16.8274 11.509 16.9216 11.6687 17.0717 11.7515L17.7722 12.1383L10.5255 16.7217L7.39675 14.9957C7.25436 14.9168 7.0831 14.9168 6.94071 14.9957L0.309835 18.6941C0.152051 18.7826 0.0731559 18.9558 0.0693087 19.0924C0.0673841 19.177 -0.00188663 25.8735 3.94286e-05 25.9213C-0.00188466 26.0945 0.0924017 26.2542 0.244413 26.3388L0.244381 26.3399ZM13.4002 25.6491L12.8634 25.9454L10.6505 24.5581C10.4312 24.4195 10.1387 24.4869 10.0021 24.7063C9.86354 24.9256 9.93088 25.2162 10.1502 25.3547L11.9205 26.4631L7.64109 28.826V23.0784L13.4001 19.9034L13.4002 25.6491ZM23.529 43.4117L17.7735 40.2368L17.8312 34.4872L23.5306 37.6621L23.529 43.4117ZM30.2294 40.2349L24.4704 43.4117V37.6641L30.2294 34.4872V40.2349ZM29.7272 33.6907L24.0391 36.8272C24.0257 36.8272 24.016 36.8195 24.0026 36.8195C23.991 36.8195 23.9795 36.8252 23.9679 36.8272L18.3375 33.6907L24.0044 30.535L27.0485 32.2129L29.7272 33.6907ZM40.3604 28.8263L36.3465 26.6115L37.7031 25.7533C37.9225 25.6148 37.9879 25.3242 37.8493 25.1048C37.7108 24.8855 37.4183 24.8181 37.2009 24.9586L35.4056 26.0939L34.6032 25.6513L34.6609 19.9017L40.3603 23.0767L40.3584 28.8263L40.3604 28.8263ZM47.0608 25.6494L41.3018 28.8244V23.0767L47.0608 19.9018V25.6494ZM40.8318 15.9496L46.5563 19.1053L40.8683 22.2418C40.8548 22.2418 40.8452 22.2341 40.8317 22.2341C40.8202 22.2341 40.8086 22.2399 40.7971 22.2418L35.1647 19.1073L40.8318 15.9496ZM27.978 10.4581L29.423 11.5088L24.47 14.2392V8.4916L30.2289 5.31665V10.9313L28.5299 9.69595C28.3201 9.54394 28.0257 9.59012 27.8718 9.79986C27.7217 10.0115 27.7682 10.3061 27.978 10.4581ZM24.0025 1.36428L29.727 4.52194L24.039 7.65841C24.0255 7.65841 24.0159 7.65072 24.0024 7.65072C23.9909 7.65072 23.9793 7.65649 23.9678 7.65841L18.3374 4.52194L24.0025 1.36428ZM17.7736 11.066L17.8313 5.3164L23.5307 8.49135V14.239L19.6226 12.0839L21.4179 10.9486C21.6373 10.81 21.7027 10.5195 21.5642 10.3001C21.4256 10.0808 21.1351 10.0153 20.9157 10.1539L18.6817 11.5663L17.7736 11.066ZM18.7146 12.6593L23.7736 15.4494C23.8448 15.4879 23.9217 15.5071 24.0006 15.5071C24.0795 15.5071 24.1565 15.4879 24.2277 15.4494L30.264 12.1205L36.9909 17.0119L33.9699 18.6956C33.8121 18.7841 33.7332 18.9573 33.7294 19.0939C33.7275 19.1786 33.6582 25.875 33.6601 25.9228C33.6582 26.096 33.7525 26.2557 33.9026 26.3384L34.4971 26.6655L27.2525 31.251L24.2276 29.5827C24.0852 29.5038 23.914 29.5038 23.7716 29.5827L21.0719 31.0874L13.7755 26.5155L14.0988 26.3385C14.2489 26.2557 14.3413 26.0979 14.3413 25.9267V19.1071C14.3413 18.9571 14.2527 18.78 14.0988 18.6954L11.4684 17.2445L18.7146 12.6593ZM7.17299 15.9497L12.8975 19.1054L7.20944 22.2419C7.19597 22.2419 7.18635 22.2342 7.17288 22.2342C7.16133 22.2342 7.14979 22.2399 7.13824 22.2419L1.50586 19.1073L7.17299 15.9497ZM1.0022 19.902L6.70157 23.077V28.8246L0.946039 25.6497L1.0022 19.902Z" fill="#8C71FF"/>
<path d="M20.0423 25.0735L23.7657 27.2229C23.8388 27.2652 23.9196 27.2864 24.0005 27.2864C24.0813 27.2864 24.1621 27.2652 24.2352 27.2229L27.9566 25.0735C28.1029 24.9889 28.1914 24.8349 28.1914 24.6656V20.3669C28.1914 20.1995 28.101 20.0436 27.9566 19.9589L24.2352 17.8096C24.089 17.7249 23.91 17.7249 23.7638 17.8096L20.0404 19.9589C19.8942 20.0436 19.8057 20.1976 19.8057 20.3669V24.6656C19.8076 24.833 19.898 24.9889 20.0423 25.0735ZM20.7485 20.6382L24.0005 18.7602L27.2524 20.6382V24.3924L24.0005 26.2704L20.7485 24.3924V20.6382Z" fill="#8C71FF"/>
</g>
<defs>
<clipPath id="clip0_858_2491">
<rect width="48" height="44.3187" fill="white" transform="translate(0 0.35498)"/>
</clipPath>
</defs>
</svg>
