<svg width="48" height="49" viewBox="0 0 48 49" fill="none" xmlns="http://www.w3.org/2000/svg">
<g clip-path="url(#clip0_858_2483)">
<path d="M24.0001 12.4222C19.0542 12.4222 14.0489 13.6273 14.0489 15.9344V33.4954C14.0489 35.8025 19.0542 37.0076 24.0001 37.0076C28.9459 37.0076 33.9513 35.8025 33.9513 33.4954V15.9344C33.9513 13.6273 28.9459 12.4222 24.0001 12.4222ZM32.7805 27.6417C32.7805 28.5952 29.3621 29.9832 24.0001 29.9832C18.638 29.9832 15.2196 28.5952 15.2196 27.6417V23.5259C16.9871 24.6966 20.5061 25.3003 24.0001 25.3003C27.494 25.3003 31.0127 24.692 32.7805 23.5259V27.6417ZM32.7805 21.7881C32.7805 22.7416 29.3621 24.1295 24.0001 24.1295C18.638 24.1295 15.2196 22.7416 15.2196 21.7881V17.6723C16.9871 18.843 20.5061 19.4466 24.0001 19.4466C27.494 19.4466 31.0127 18.8384 32.7805 17.6723V21.7881ZM24.0001 13.593C29.3621 13.593 32.7805 14.9809 32.7805 15.9344C32.7805 16.8879 29.3621 18.2759 24.0001 18.2759C18.638 18.2759 15.2196 16.8879 15.2196 15.9344C15.2196 14.9809 18.638 13.593 24.0001 13.593ZM24.0001 35.8368C18.638 35.8368 15.2196 34.4489 15.2196 33.4954V29.3796C16.9871 30.5503 20.5061 31.1539 24.0001 31.1539C27.494 31.1539 31.0127 30.5457 32.7805 29.3796V33.4954C32.7805 34.4489 29.3621 35.8368 24.0001 35.8368ZM23.4147 7.68665V9.49531C23.4147 9.81772 23.6777 10.0807 24.0001 10.0807C24.3225 10.0807 24.5854 9.81772 24.5854 9.49531V7.68665C26.2409 7.4054 27.5122 5.96486 27.5122 4.22703C27.5122 2.29029 25.9368 0.714844 24.0001 0.714844C22.0633 0.714844 20.4879 2.29029 20.4879 4.22703C20.4879 5.96486 21.7592 7.40538 23.4147 7.68665ZM24.0001 1.88557C25.2942 1.88557 26.3415 2.93285 26.3415 4.22703C26.3415 5.52121 25.2942 6.56849 24.0001 6.56849C22.7059 6.56849 21.6586 5.52121 21.6586 4.22703C21.6586 2.93285 22.7059 1.88557 24.0001 1.88557ZM24.5854 41.743V39.9344C24.5854 39.612 24.3225 39.349 24.0001 39.349C23.6777 39.349 23.4147 39.612 23.4147 39.9344V41.743C21.7592 42.0243 20.4879 43.4648 20.4879 45.2027C20.4879 47.1394 22.0633 48.7148 24.0001 48.7148C25.9368 48.7148 27.5122 47.1394 27.5122 45.2027C27.5122 43.4648 26.2409 42.0243 24.5854 41.743ZM24.0001 47.5441C22.7059 47.5441 21.6586 46.4968 21.6586 45.2027C21.6586 43.9085 22.7059 42.8612 24.0001 42.8612C25.2942 42.8612 26.3415 43.9085 26.3415 45.2027C26.3415 46.4968 25.2942 47.5441 24.0001 47.5441ZM44.4878 21.2027C42.75 21.2027 41.3095 22.4741 41.0282 24.1295H38.0488C37.7264 24.1295 37.4634 24.3925 37.4634 24.7149C37.4634 25.0373 37.7264 25.3003 38.0488 25.3003H41.0282C41.3094 26.9557 42.75 28.2271 44.4878 28.2271C46.4246 28.2271 48 26.6516 48 24.7149C48 22.7782 46.4246 21.2027 44.4878 21.2027ZM44.4878 27.0564C43.1936 27.0564 42.1464 26.0091 42.1464 24.7149C42.1464 23.4207 43.1936 22.3734 44.4878 22.3734C45.782 22.3734 46.8293 23.4207 46.8293 24.7149C46.8293 26.0091 45.782 27.0564 44.4878 27.0564ZM6.97181 25.3003H9.9512C10.2736 25.3003 10.5366 25.0373 10.5366 24.7149C10.5366 24.3925 10.2736 24.1295 9.9512 24.1295H6.97181C6.69056 22.4741 5.25002 21.2027 3.51219 21.2027C1.57545 21.2027 0 22.7782 0 24.7149C0 26.6516 1.57545 28.2271 3.51219 28.2271C5.25002 28.2271 6.69054 26.9557 6.97181 25.3003ZM1.17073 24.7149C1.17073 23.4207 2.218 22.3734 3.51219 22.3734C4.80637 22.3734 5.85364 23.4207 5.85364 24.7149C5.85364 26.0091 4.80637 27.0564 3.51219 27.0564C2.218 27.0564 1.17073 26.0091 1.17073 24.7149ZM36.878 12.4222C37.0312 12.4222 37.1775 12.3628 37.2941 12.253L39.4024 10.1448C39.9946 10.5655 40.6966 10.7942 41.4329 10.7942C42.3704 10.7942 43.253 10.4306 43.9138 9.76296C44.5746 9.10215 44.9451 8.21725 44.9451 7.28201C44.9451 6.34449 44.5815 5.46188 43.9138 4.80106C43.253 4.14024 42.3681 3.76983 41.4329 3.76983C40.4954 3.76983 39.6127 4.13339 38.9519 4.80106C38.2911 5.46188 37.9207 6.34678 37.9207 7.28201C37.9207 8.02057 38.1493 8.72254 38.5701 9.31252L36.4618 11.4208C36.2332 11.6494 36.2332 12.0176 36.4618 12.2463C36.5785 12.3629 36.7248 12.4222 36.878 12.4222ZM39.775 5.62675C40.2209 5.18087 40.8063 4.94077 41.4305 4.94077C42.057 4.94077 42.6424 5.18772 43.086 5.62675C43.5319 6.06578 43.772 6.65799 43.772 7.28222C43.772 7.90874 43.525 8.4941 43.086 8.93769C42.2011 9.82259 40.6577 9.82259 39.7727 8.93769C39.3268 8.49181 39.0867 7.90646 39.0867 7.28222C39.0913 6.65571 39.3314 6.07034 39.775 5.62675ZM10.7058 37.1767L8.5976 39.285C8.00539 38.8642 7.30342 38.6356 6.56709 38.6356C5.62957 38.6356 4.74695 38.9991 4.08614 39.6668C3.42532 40.3276 3.0549 41.2125 3.0549 42.1478C3.0549 43.0853 3.41846 43.9679 4.08614 44.6287C4.74695 45.2895 5.63185 45.6599 6.56709 45.6599C7.50461 45.6599 8.38722 45.2964 9.04804 44.6287C9.70885 43.9679 10.0793 43.083 10.0793 42.1478C10.0793 41.4092 9.85062 40.7072 9.42987 40.1172L11.5381 38.009C11.7668 37.7803 11.7668 37.4122 11.5381 37.1835C11.3095 36.9549 10.9345 36.9481 10.7058 37.1767ZM8.2249 43.8031C7.77901 44.2489 7.19366 44.489 6.56943 44.489C5.94291 44.489 5.35755 44.2421 4.91396 43.8031C4.46808 43.364 4.22797 42.7718 4.22797 42.1476C4.22797 41.5211 4.47492 40.9357 4.91396 40.4921C5.35298 40.0462 5.9452 39.8061 6.56943 39.8061C7.19594 39.8061 7.78131 40.0531 8.2249 40.4921C8.67078 40.9311 8.91089 41.5233 8.91089 42.1476C8.9086 42.7741 8.66851 43.3595 8.2249 43.8031ZM39.4002 39.2894L37.2874 37.1765C37.0588 36.9479 36.6906 36.9479 36.4619 37.1765C36.2333 37.4052 36.2333 37.7733 36.4619 38.002L38.5702 40.1103C38.1495 40.7025 37.9208 41.4045 37.9208 42.1408C37.9208 43.0783 38.2844 43.9609 38.952 44.6217C39.638 45.3077 40.5389 45.6461 41.433 45.6461C42.3339 45.6461 43.2302 45.3077 43.9139 44.6217C45.2836 43.2521 45.2836 41.0227 43.9139 39.653C42.686 38.4366 40.7699 38.3176 39.4002 39.2894ZM43.0885 43.8031C42.1762 44.7154 40.6876 44.7154 39.7752 43.8031C38.8629 42.8907 38.8629 41.4021 39.7752 40.4898C40.2325 40.0325 40.8293 39.8038 41.4307 39.8038C42.0275 39.8038 42.6312 40.0324 43.0862 40.4898C44.0031 41.4044 44.0031 42.8907 43.0885 43.8031ZM9.42536 9.31455C10.3972 7.94491 10.2805 6.03101 9.05037 4.80086C7.68073 3.43123 5.45131 3.43123 4.08162 4.80086C2.71198 6.1705 2.71198 8.39992 4.08162 9.76505C4.74244 10.4259 5.62733 10.7963 6.56257 10.7963C7.30112 10.7963 8.00309 10.5676 8.59308 10.1469L10.7013 12.2551C10.8225 12.3626 10.9689 12.4221 11.1221 12.4221C11.2753 12.4221 11.4216 12.3626 11.5382 12.2528C11.7669 12.0242 11.7669 11.6561 11.5382 11.4274L9.42536 9.31455ZM4.91168 8.93955C3.99933 8.02721 3.99933 6.53862 4.91168 5.62627C5.36899 5.16896 5.9658 4.94029 6.56715 4.94029C7.17077 4.94029 7.76761 5.16894 8.22262 5.62627C9.13496 6.53862 9.13496 8.02721 8.22262 8.93955C7.31027 9.8519 5.82397 9.8519 4.91168 8.93955Z" fill="#8C71FF"/>
</g>
<defs>
<clipPath id="clip0_858_2483">
<rect width="48" height="48" fill="white" transform="translate(0 0.714844)"/>
</clipPath>
</defs>
</svg>
