<svg width="48" height="49" viewBox="0 0 48 49" fill="none" xmlns="http://www.w3.org/2000/svg">
<g clip-path="url(#clip0_858_2475)">
<path fill-rule="evenodd" clip-rule="evenodd" d="M29.1427 7.77181H24.8571V1.77167C24.8571 1.29811 24.4736 0.914551 24 0.914551C23.5264 0.914551 23.1429 1.29811 23.1429 1.77167V7.77181H18.8573V1.77167C18.8573 1.29811 18.4737 0.914551 18.0001 0.914551C17.5266 0.914551 17.143 1.29811 17.143 1.77167V7.77181H7.71438C7.24082 7.77181 6.85726 8.15537 6.85726 8.62893V18.0576H0.857123C0.383563 18.0576 0 18.4411 0 18.9147C0 19.3882 0.383563 19.7718 0.857123 19.7718H6.85726V24.0574H0.857123C0.383563 24.0574 0 24.441 0 24.9146C0 25.3881 0.383563 25.7717 0.857123 25.7717H6.85726V30.0573H0.857123C0.383563 30.0573 0 30.4409 0 30.9144C0 31.388 0.383563 31.7715 0.857123 31.7715H6.85726V41.2002C6.85726 41.6737 7.24082 42.0573 7.71438 42.0573H17.143V48.0574C17.143 48.531 17.5266 48.9146 18.0001 48.9146C18.4737 48.9146 18.8573 48.531 18.8573 48.0574V42.0573H23.1429V48.0574C23.1429 48.531 23.5264 48.9146 24 48.9146C24.4736 48.9146 24.8571 48.531 24.8571 48.0574V42.0573H29.1427V48.0574C29.1427 48.531 29.5263 48.9146 29.9999 48.9146C30.4734 48.9146 30.857 48.531 30.857 48.0574V42.0573H40.2856C40.7592 42.0573 41.1427 41.6737 41.1427 41.2002V31.7715H47.1429C47.6164 31.7715 48 31.388 48 30.9144C48 30.4409 47.6164 30.0573 47.1429 30.0573H41.1427V25.7717H47.1429C47.6164 25.7717 48 25.3881 48 24.9146C48 24.441 47.6164 24.0574 47.1429 24.0574H41.1427V19.7718H47.1429C47.6164 19.7718 48 19.3882 48 18.9147C48 18.4411 47.6164 18.0576 47.1429 18.0576H41.1427V8.62893C41.1427 8.15537 40.7592 7.77181 40.2856 7.77181H30.857V1.77167C30.857 1.29811 30.4734 0.914551 29.9999 0.914551C29.5263 0.914551 29.1427 1.29811 29.1427 1.77167V7.77181ZM8.57178 18.9141V9.48551H39.4282V40.3419H8.57178V18.9141ZM15.4288 18.9141V30.9139C15.4288 31.3874 15.8123 31.771 16.2859 31.771C16.7595 31.771 17.143 31.3874 17.143 30.9139V18.9141C17.143 18.4406 16.7595 18.057 16.2859 18.057C15.8123 18.057 15.4288 18.4406 15.4288 18.9141ZM24 23.1998C21.6343 23.1998 19.7144 25.1197 19.7144 27.4854C19.7144 29.851 21.6343 31.771 24 31.771C26.3657 31.771 28.2856 29.851 28.2856 27.4854C28.2856 25.1197 26.3657 23.1998 24 23.1998ZM30.857 19.7713V30.9136C30.857 31.3872 31.2405 31.7707 31.7141 31.7707C32.1877 31.7707 32.5712 31.3872 32.5712 30.9136V19.7713H36.8568C37.3304 19.7713 37.714 19.3877 37.714 18.9141C37.714 18.4406 37.3304 18.057 36.8568 18.057H26.5714C26.0978 18.057 25.7142 18.4406 25.7142 18.9141C25.7142 19.3877 26.0978 19.7713 26.5714 19.7713H30.857ZM24 24.914C25.4185 24.914 26.5714 26.0669 26.5714 27.4854C26.5714 28.9039 25.4185 30.0567 24 30.0567C22.5815 30.0567 21.4286 28.9039 21.4286 27.4854C21.4286 26.0669 22.5815 24.914 24 24.914Z" fill="#8C71FF"/>
</g>
<defs>
<clipPath id="clip0_858_2475">
<rect width="48" height="48" fill="white" transform="translate(0 0.914551)"/>
</clipPath>
</defs>
</svg>
