<svg width="61" height="61" viewBox="0 0 61 61" fill="none" xmlns="http://www.w3.org/2000/svg">
<path d="M30.7501 15.229C24.5677 15.229 18.3111 16.7353 18.3111 19.6192V41.5704C18.3111 44.4543 24.5677 45.9606 30.7501 45.9606C36.9324 45.9606 43.1891 44.4543 43.1891 41.5704V19.6192C43.1891 16.7353 36.9324 15.229 30.7501 15.229ZM41.7257 34.2533C41.7257 35.4452 37.4526 37.1801 30.7501 37.1801C24.0475 37.1801 19.7745 35.4452 19.7745 34.2533V29.1086C21.9839 30.572 26.3827 31.3265 30.7501 31.3265C35.1175 31.3265 39.5159 30.5662 41.7257 29.1086V34.2533ZM41.7257 26.9363C41.7257 28.1281 37.4526 29.8631 30.7501 29.8631C24.0475 29.8631 19.7745 28.1281 19.7745 26.9363V21.7915C21.9839 23.2549 26.3827 24.0094 30.7501 24.0094C35.1175 24.0094 39.5159 23.2491 41.7257 21.7915V26.9363ZM30.7501 16.6924C37.4526 16.6924 41.7257 18.4273 41.7257 19.6192C41.7257 20.8111 37.4526 22.546 30.7501 22.546C24.0475 22.546 19.7745 20.8111 19.7745 19.6192C19.7745 18.4273 24.0475 16.6924 30.7501 16.6924ZM30.7501 44.4972C24.0475 44.4972 19.7745 42.7623 19.7745 41.5704V36.4256C21.9839 37.889 26.3827 38.6436 30.7501 38.6436C35.1175 38.6436 39.5159 37.8832 41.7257 36.4256V41.5704C41.7257 42.7623 37.4526 44.4972 30.7501 44.4972ZM30.0184 9.30949V11.5703C30.0184 11.9733 30.3471 12.302 30.7501 12.302C31.1531 12.302 31.4818 11.9733 31.4818 11.5703V9.30949C33.5511 8.95792 35.1403 7.15725 35.1403 4.98496C35.1403 2.56404 33.171 0.594727 30.7501 0.594727C28.3292 0.594727 26.3598 2.56404 26.3598 4.98496C26.3598 7.15725 27.949 8.9579 30.0184 9.30949ZM30.7501 2.05814C32.3678 2.05814 33.6769 3.36723 33.6769 4.98496C33.6769 6.60269 32.3678 7.91178 30.7501 7.91178C29.1323 7.91178 27.8232 6.60269 27.8232 4.98496C27.8232 3.36723 29.1323 2.05814 30.7501 2.05814ZM31.4818 51.88V49.6191C31.4818 49.2161 31.1531 48.8874 30.7501 48.8874C30.3471 48.8874 30.0184 49.2161 30.0184 49.6191V51.88C27.949 52.2315 26.3598 54.0322 26.3598 56.2045C26.3598 58.6254 28.3292 60.5947 30.7501 60.5947C33.171 60.5947 35.1403 58.6254 35.1403 56.2045C35.1403 54.0322 33.5511 52.2315 31.4818 51.88ZM30.7501 59.1313C29.1323 59.1313 27.8232 57.8222 27.8232 56.2045C27.8232 54.5868 29.1323 53.2777 30.7501 53.2777C32.3678 53.2777 33.6769 54.5868 33.6769 56.2045C33.6769 57.8222 32.3678 59.1313 30.7501 59.1313ZM56.3598 26.2046C54.1875 26.2046 52.3868 27.7938 52.0352 29.8631H48.311C47.908 29.8631 47.5793 30.1918 47.5793 30.5948C47.5793 30.9978 47.908 31.3265 48.311 31.3265H52.0352C52.3868 33.3958 54.1875 34.985 56.3598 34.985C58.7807 34.985 60.75 33.0157 60.75 30.5948C60.75 28.1739 58.7807 26.2046 56.3598 26.2046ZM56.3598 33.5216C54.742 33.5216 53.4329 32.2125 53.4329 30.5948C53.4329 28.9771 54.742 27.668 56.3598 27.668C57.9775 27.668 59.2866 28.9771 59.2866 30.5948C59.2866 32.2125 57.9775 33.5216 56.3598 33.5216ZM9.46476 31.3265H13.189C13.592 31.3265 13.9207 30.9978 13.9207 30.5948C13.9207 30.1918 13.592 29.8631 13.189 29.8631H9.46476C9.1132 27.7938 7.31252 26.2046 5.14023 26.2046C2.71931 26.2046 0.75 28.1739 0.75 30.5948C0.75 33.0157 2.71931 34.985 5.14023 34.985C7.31252 34.985 9.11318 33.3958 9.46476 31.3265ZM2.21341 30.5948C2.21341 28.9771 3.52251 27.668 5.14023 27.668C6.75796 27.668 8.06706 28.9771 8.06706 30.5948C8.06706 32.2125 6.75796 33.5216 5.14023 33.5216C3.52251 33.5216 2.21341 32.2125 2.21341 30.5948ZM46.8475 15.229C47.039 15.229 47.2219 15.1547 47.3676 15.0175L50.003 12.3822C50.7432 12.9081 51.6207 13.1939 52.5411 13.1939C53.713 13.1939 54.8163 12.7395 55.6423 11.9049C56.4683 11.0789 56.9313 9.97273 56.9313 8.80369C56.9313 7.63179 56.4769 6.52852 55.6423 5.7025C54.8163 4.87648 53.7101 4.41345 52.5411 4.41345C51.3692 4.41345 50.2659 4.86791 49.4399 5.7025C48.6139 6.52852 48.1509 7.63464 48.1509 8.80369C48.1509 9.72688 48.4367 10.6043 48.9626 11.3418L46.3273 13.9771C46.0415 14.263 46.0415 14.7231 46.3273 15.009C46.4731 15.1548 46.6559 15.229 46.8475 15.229ZM50.4688 6.73461C51.0262 6.17726 51.7579 5.87713 52.5381 5.87713C53.3213 5.87713 54.053 6.18582 54.6075 6.73461C55.1648 7.28339 55.465 8.02366 55.465 8.80395C55.465 9.5871 55.1563 10.3188 54.6075 10.8733C53.5014 11.9794 51.5721 11.9794 50.4659 10.8733C49.9085 10.3159 49.6084 9.58424 49.6084 8.80395C49.6141 8.02081 49.9143 7.2891 50.4688 6.73461ZM14.1323 46.1721L11.497 48.8074C10.7567 48.2815 9.87927 47.9956 8.95886 47.9956C7.78696 47.9956 6.68369 48.4501 5.85767 49.2847C5.03165 50.1107 4.56863 51.2168 4.56863 52.3859C4.56863 53.5578 5.02308 54.661 5.85767 55.4871C6.68369 56.3131 7.78981 56.7761 8.95886 56.7761C10.1308 56.7761 11.234 56.3216 12.06 55.4871C12.8861 54.661 13.3491 53.5549 13.3491 52.3859C13.3491 51.4627 13.0633 50.5852 12.5373 49.8477L15.1726 47.2124C15.4585 46.9266 15.4585 46.4664 15.1726 46.1806C14.8868 45.8947 14.4182 45.8863 14.1323 46.1721ZM11.0311 54.455C10.4738 55.0123 9.74208 55.3125 8.96179 55.3125C8.17864 55.3125 7.44694 55.0038 6.89245 54.455C6.33509 53.9062 6.03496 53.1659 6.03496 52.3856C6.03496 51.6025 6.34366 50.8708 6.89245 50.3163C7.44123 49.759 8.1815 49.4588 8.96179 49.4588C9.74493 49.4588 10.4766 49.7675 11.0311 50.3163C11.5885 50.8651 11.8886 51.6054 11.8886 52.3856C11.8857 53.1688 11.5856 53.9005 11.0311 54.455ZM50.0003 48.8129L47.3593 46.1719C47.0735 45.886 46.6133 45.886 46.3274 46.1719C46.0416 46.4577 46.0416 46.9178 46.3274 47.2037L48.9627 49.839C48.4368 50.5793 48.151 51.4567 48.151 52.3772C48.151 53.5491 48.6054 54.6523 49.44 55.4783C50.2975 56.3358 51.4236 56.7588 52.5412 56.7588C53.6674 56.7588 54.7878 56.3358 55.6424 55.4783C57.3544 53.7663 57.3544 50.9795 55.6424 49.2674C54.1075 47.7469 51.7123 47.5982 50.0003 48.8129ZM54.6106 54.455C53.4702 55.5954 51.6095 55.5954 50.469 54.455C49.3286 53.3145 49.3286 51.4538 50.469 50.3134C51.0407 49.7417 51.7867 49.4559 52.5384 49.4559C53.2843 49.4559 54.0389 49.7417 54.6077 50.3134C55.7538 51.4567 55.7539 53.3145 54.6106 54.455ZM12.5317 11.3444C13.7465 9.63231 13.6007 7.23993 12.063 5.70225C10.3509 3.99021 7.56414 3.99021 5.85202 5.70225C4.13998 7.4143 4.13998 10.2011 5.85202 11.9075C6.67804 12.7335 7.78416 13.1965 8.95321 13.1965C9.8764 13.1965 10.7539 12.9107 11.4914 12.3848L14.1267 15.0201C14.2781 15.1544 14.4611 15.2287 14.6526 15.2287C14.8441 15.2287 15.027 15.1544 15.1728 15.0172C15.4586 14.7314 15.4586 14.2713 15.1728 13.9854L12.5317 11.3444ZM6.8896 10.8756C5.74916 9.73518 5.74916 7.87445 6.8896 6.73401C7.46124 6.16237 8.20725 5.87653 8.95893 5.87653C9.71347 5.87653 10.4595 6.16235 11.0283 6.73401C12.1687 7.87445 12.1687 9.73518 11.0283 10.8756C9.88783 12.0161 8.02996 12.0161 6.8896 10.8756Z" fill="black"/>
<path d="M30.7501 15.229C24.5677 15.229 18.3111 16.7353 18.3111 19.6192V41.5704C18.3111 44.4543 24.5677 45.9606 30.7501 45.9606C36.9324 45.9606 43.1891 44.4543 43.1891 41.5704V19.6192C43.1891 16.7353 36.9324 15.229 30.7501 15.229ZM41.7257 34.2533C41.7257 35.4452 37.4526 37.1801 30.7501 37.1801C24.0475 37.1801 19.7745 35.4452 19.7745 34.2533V29.1086C21.9839 30.572 26.3827 31.3265 30.7501 31.3265C35.1175 31.3265 39.5159 30.5662 41.7257 29.1086V34.2533ZM41.7257 26.9363C41.7257 28.1281 37.4526 29.8631 30.7501 29.8631C24.0475 29.8631 19.7745 28.1281 19.7745 26.9363V21.7915C21.9839 23.2549 26.3827 24.0094 30.7501 24.0094C35.1175 24.0094 39.5159 23.2491 41.7257 21.7915V26.9363ZM30.7501 16.6924C37.4526 16.6924 41.7257 18.4273 41.7257 19.6192C41.7257 20.8111 37.4526 22.546 30.7501 22.546C24.0475 22.546 19.7745 20.8111 19.7745 19.6192C19.7745 18.4273 24.0475 16.6924 30.7501 16.6924ZM30.7501 44.4972C24.0475 44.4972 19.7745 42.7623 19.7745 41.5704V36.4256C21.9839 37.889 26.3827 38.6436 30.7501 38.6436C35.1175 38.6436 39.5159 37.8832 41.7257 36.4256V41.5704C41.7257 42.7623 37.4526 44.4972 30.7501 44.4972ZM30.0184 9.30949V11.5703C30.0184 11.9733 30.3471 12.302 30.7501 12.302C31.1531 12.302 31.4818 11.9733 31.4818 11.5703V9.30949C33.5511 8.95792 35.1403 7.15725 35.1403 4.98496C35.1403 2.56404 33.171 0.594727 30.7501 0.594727C28.3292 0.594727 26.3598 2.56404 26.3598 4.98496C26.3598 7.15725 27.949 8.9579 30.0184 9.30949ZM30.7501 2.05814C32.3678 2.05814 33.6769 3.36723 33.6769 4.98496C33.6769 6.60269 32.3678 7.91178 30.7501 7.91178C29.1323 7.91178 27.8232 6.60269 27.8232 4.98496C27.8232 3.36723 29.1323 2.05814 30.7501 2.05814ZM31.4818 51.88V49.6191C31.4818 49.2161 31.1531 48.8874 30.7501 48.8874C30.3471 48.8874 30.0184 49.2161 30.0184 49.6191V51.88C27.949 52.2315 26.3598 54.0322 26.3598 56.2045C26.3598 58.6254 28.3292 60.5947 30.7501 60.5947C33.171 60.5947 35.1403 58.6254 35.1403 56.2045C35.1403 54.0322 33.5511 52.2315 31.4818 51.88ZM30.7501 59.1313C29.1323 59.1313 27.8232 57.8222 27.8232 56.2045C27.8232 54.5868 29.1323 53.2777 30.7501 53.2777C32.3678 53.2777 33.6769 54.5868 33.6769 56.2045C33.6769 57.8222 32.3678 59.1313 30.7501 59.1313ZM56.3598 26.2046C54.1875 26.2046 52.3868 27.7938 52.0352 29.8631H48.311C47.908 29.8631 47.5793 30.1918 47.5793 30.5948C47.5793 30.9978 47.908 31.3265 48.311 31.3265H52.0352C52.3868 33.3958 54.1875 34.985 56.3598 34.985C58.7807 34.985 60.75 33.0157 60.75 30.5948C60.75 28.1739 58.7807 26.2046 56.3598 26.2046ZM56.3598 33.5216C54.742 33.5216 53.4329 32.2125 53.4329 30.5948C53.4329 28.9771 54.742 27.668 56.3598 27.668C57.9775 27.668 59.2866 28.9771 59.2866 30.5948C59.2866 32.2125 57.9775 33.5216 56.3598 33.5216ZM9.46476 31.3265H13.189C13.592 31.3265 13.9207 30.9978 13.9207 30.5948C13.9207 30.1918 13.592 29.8631 13.189 29.8631H9.46476C9.1132 27.7938 7.31252 26.2046 5.14023 26.2046C2.71931 26.2046 0.75 28.1739 0.75 30.5948C0.75 33.0157 2.71931 34.985 5.14023 34.985C7.31252 34.985 9.11318 33.3958 9.46476 31.3265ZM2.21341 30.5948C2.21341 28.9771 3.52251 27.668 5.14023 27.668C6.75796 27.668 8.06706 28.9771 8.06706 30.5948C8.06706 32.2125 6.75796 33.5216 5.14023 33.5216C3.52251 33.5216 2.21341 32.2125 2.21341 30.5948ZM46.8475 15.229C47.039 15.229 47.2219 15.1547 47.3676 15.0175L50.003 12.3822C50.7432 12.9081 51.6207 13.1939 52.5411 13.1939C53.713 13.1939 54.8163 12.7395 55.6423 11.9049C56.4683 11.0789 56.9313 9.97273 56.9313 8.80369C56.9313 7.63179 56.4769 6.52852 55.6423 5.7025C54.8163 4.87648 53.7101 4.41345 52.5411 4.41345C51.3692 4.41345 50.2659 4.86791 49.4399 5.7025C48.6139 6.52852 48.1509 7.63464 48.1509 8.80369C48.1509 9.72688 48.4367 10.6043 48.9626 11.3418L46.3273 13.9771C46.0415 14.263 46.0415 14.7231 46.3273 15.009C46.4731 15.1548 46.6559 15.229 46.8475 15.229ZM50.4688 6.73461C51.0262 6.17726 51.7579 5.87713 52.5381 5.87713C53.3213 5.87713 54.053 6.18582 54.6075 6.73461C55.1648 7.28339 55.465 8.02366 55.465 8.80395C55.465 9.5871 55.1563 10.3188 54.6075 10.8733C53.5014 11.9794 51.5721 11.9794 50.4659 10.8733C49.9085 10.3159 49.6084 9.58424 49.6084 8.80395C49.6141 8.02081 49.9143 7.2891 50.4688 6.73461ZM14.1323 46.1721L11.497 48.8074C10.7567 48.2815 9.87927 47.9956 8.95886 47.9956C7.78696 47.9956 6.68369 48.4501 5.85767 49.2847C5.03165 50.1107 4.56863 51.2168 4.56863 52.3859C4.56863 53.5578 5.02308 54.661 5.85767 55.4871C6.68369 56.3131 7.78981 56.7761 8.95886 56.7761C10.1308 56.7761 11.234 56.3216 12.06 55.4871C12.8861 54.661 13.3491 53.5549 13.3491 52.3859C13.3491 51.4627 13.0633 50.5852 12.5373 49.8477L15.1726 47.2124C15.4585 46.9266 15.4585 46.4664 15.1726 46.1806C14.8868 45.8947 14.4182 45.8863 14.1323 46.1721ZM11.0311 54.455C10.4738 55.0123 9.74208 55.3125 8.96179 55.3125C8.17864 55.3125 7.44694 55.0038 6.89245 54.455C6.33509 53.9062 6.03496 53.1659 6.03496 52.3856C6.03496 51.6025 6.34366 50.8708 6.89245 50.3163C7.44123 49.759 8.1815 49.4588 8.96179 49.4588C9.74493 49.4588 10.4766 49.7675 11.0311 50.3163C11.5885 50.8651 11.8886 51.6054 11.8886 52.3856C11.8857 53.1688 11.5856 53.9005 11.0311 54.455ZM50.0003 48.8129L47.3593 46.1719C47.0735 45.886 46.6133 45.886 46.3274 46.1719C46.0416 46.4577 46.0416 46.9178 46.3274 47.2037L48.9627 49.839C48.4368 50.5793 48.151 51.4567 48.151 52.3772C48.151 53.5491 48.6054 54.6523 49.44 55.4783C50.2975 56.3358 51.4236 56.7588 52.5412 56.7588C53.6674 56.7588 54.7878 56.3358 55.6424 55.4783C57.3544 53.7663 57.3544 50.9795 55.6424 49.2674C54.1075 47.7469 51.7123 47.5982 50.0003 48.8129ZM54.6106 54.455C53.4702 55.5954 51.6095 55.5954 50.469 54.455C49.3286 53.3145 49.3286 51.4538 50.469 50.3134C51.0407 49.7417 51.7867 49.4559 52.5384 49.4559C53.2843 49.4559 54.0389 49.7417 54.6077 50.3134C55.7538 51.4567 55.7539 53.3145 54.6106 54.455ZM12.5317 11.3444C13.7465 9.63231 13.6007 7.23993 12.063 5.70225C10.3509 3.99021 7.56414 3.99021 5.85202 5.70225C4.13998 7.4143 4.13998 10.2011 5.85202 11.9075C6.67804 12.7335 7.78416 13.1965 8.95321 13.1965C9.8764 13.1965 10.7539 12.9107 11.4914 12.3848L14.1267 15.0201C14.2781 15.1544 14.4611 15.2287 14.6526 15.2287C14.8441 15.2287 15.027 15.1544 15.1728 15.0172C15.4586 14.7314 15.4586 14.2713 15.1728 13.9854L12.5317 11.3444ZM6.8896 10.8756C5.74916 9.73518 5.74916 7.87445 6.8896 6.73401C7.46124 6.16237 8.20725 5.87653 8.95893 5.87653C9.71347 5.87653 10.4595 6.16235 11.0283 6.73401C12.1687 7.87445 12.1687 9.73518 11.0283 10.8756C9.88783 12.0161 8.02996 12.0161 6.8896 10.8756Z" fill="url(#paint0_linear_858_2251)"/>
<defs>
<linearGradient id="paint0_linear_858_2251" x1="30.75" y1="60.5947" x2="30.75" y2="0.594727" gradientUnits="userSpaceOnUse">
<stop stop-color="#5934DF"/>
<stop offset="1" stop-color="#DB80EB"/>
</linearGradient>
</defs>
</svg>
