<svg width="77" height="61" viewBox="0 0 77 61" fill="none" xmlns="http://www.w3.org/2000/svg">
<path d="M30.1625 16.6918V4.51291C30.1699 2.38957 31.8907 0.668758 34.0141 0.665071H69.4494C71.5727 0.668764 73.2935 2.38957 73.3009 4.51291V32.4006C73.2935 34.5239 71.5727 36.2448 69.4494 36.2484H69.4014C70.0698 36.5549 70.6791 36.9796 71.1997 37.5003C73.6148 39.919 73.6148 43.837 71.1997 46.2595C71.0225 46.433 70.8378 46.5955 70.6421 46.7506C71.9383 47.1937 73.1163 47.9286 74.0837 48.8961C75.7602 50.5652 76.7019 52.8326 76.7019 55.1996V59.6974C76.7019 60.1922 76.303 60.5947 75.8082 60.5947H11.624C8.71412 60.5873 6.35813 58.2277 6.35445 55.3178V42.4743H6.07011C3.16024 42.4706 0.800562 40.1147 0.796875 37.2048V21.1632C0.800568 18.6928 2.80573 16.6913 5.27621 16.6876H11.1366C10.8153 16.4365 10.5088 16.1706 10.2171 15.8826C7.65804 13.3198 6.89363 9.46821 8.27838 6.12282C9.6669 2.77715 12.9313 0.594727 16.5538 0.594727C20.1764 0.594727 23.4409 2.77715 24.8256 6.12282C26.2141 9.46849 25.446 13.32 22.8869 15.8826C22.5989 16.1706 22.2924 16.4402 21.9674 16.6876L30.1625 16.6918ZM64.2432 36.2491H53.5712C53.3311 38.0216 52.5113 39.6686 51.2448 40.9315C50.8533 41.3192 50.4287 41.67 49.9707 41.9729C54.0512 43.1213 57.2307 46.3377 58.3274 50.433C58.6819 49.8791 59.0955 49.3658 59.5571 48.9042C60.5246 47.9367 61.7026 47.2018 62.995 46.755C62.803 46.6036 62.6147 46.4411 62.4411 46.2639C60.0261 43.8451 60.0261 39.9271 62.4411 37.5084C62.9618 36.9877 63.5711 36.563 64.2431 36.2529L64.2432 36.2491ZM66.8244 37.4788C64.7232 37.4788 62.9138 38.9633 62.5039 41.0238C62.094 43.0844 63.1945 45.1487 65.1369 45.9536C67.0793 46.755 69.3171 46.0755 70.484 44.3288C71.6508 42.582 71.4182 40.252 69.9338 38.7675C69.1066 37.944 67.9877 37.4788 66.8244 37.4788ZM58.7336 55.2039V58.8044H74.9113V55.2039C74.9002 51.2711 71.7171 48.088 67.7843 48.0732H65.8603C61.9312 48.088 58.7448 51.2711 58.7336 55.2039ZM24.0772 37.4787C21.9797 37.4787 20.174 38.9632 19.7678 41.0201C19.3579 43.077 20.4583 45.1375 22.397 45.9388C24.332 46.7401 26.5698 46.0643 27.733 44.3177C28.8999 42.5747 28.671 40.252 27.1865 38.7675C26.363 37.944 25.2442 37.4787 24.0772 37.4787ZM19.6976 37.5009H19.7013C21.0824 36.1198 23.0322 35.4736 24.9635 35.7505V29.1183C24.9635 26.2084 27.3269 23.8451 30.2404 23.8451H41.2452C42.6743 23.7712 43.7969 22.5932 43.7969 21.1642C43.7969 19.7314 42.6743 18.5534 41.2452 18.4796H17.2722C17.0358 18.498 16.7958 18.5091 16.5558 18.5091C16.3158 18.5091 16.072 18.4943 15.8357 18.4796H5.27808C3.79361 18.4796 2.59349 19.6797 2.58971 21.1605V37.2058C2.5934 39.126 4.14802 40.6807 6.0683 40.6844H6.35264L6.34895 24.813C6.34895 24.3182 6.75146 23.9157 7.24629 23.9157C7.74112 23.9157 8.13993 24.3182 8.13993 24.813V55.3259C8.13993 57.2461 9.69824 58.8045 11.6185 58.8082H14.1887V55.2041C14.1887 53.4648 14.6983 51.7661 15.6548 50.3185V41.0903C15.6548 40.5955 16.0573 40.193 16.5521 40.193C17.0469 40.193 17.4457 40.5955 17.4457 41.0903V48.3207C18.2803 47.6339 19.2293 47.1021 20.2523 46.7513C20.0566 46.5999 19.8719 46.4337 19.6947 46.2601C18.5314 45.1006 17.8815 43.5238 17.8815 41.8805C17.8815 40.2409 18.5314 38.6642 19.6947 37.5046L19.6976 37.5009ZM26.7619 36.2971H26.7656C28.5751 37.1686 29.8527 38.8635 30.1888 40.8429C30.5249 42.8222 29.8786 44.8421 28.4569 46.2602C28.2834 46.4374 28.0987 46.5999 27.903 46.7513C29.1992 47.1981 30.3735 47.9293 31.341 48.9004C31.8062 49.362 32.2198 49.8753 32.5707 50.4292C33.6748 46.334 36.8505 43.1176 40.9348 41.9692C40.4732 41.6664 40.0412 41.3192 39.6497 40.9315C38.3793 39.6686 37.5633 38.0216 37.3233 36.2491H34.0146C31.8912 36.2454 30.1704 34.5246 30.1631 32.4012V25.6435C28.2724 25.6841 26.7583 27.2314 26.7583 29.1258L26.7619 36.2971ZM32.1682 58.801V55.2043C32.1608 51.5484 29.4023 48.4908 25.7687 48.1105C25.5286 48.0846 25.2849 48.0736 25.0449 48.0699H23.1135C21.2229 48.0736 19.4134 48.8232 18.0803 50.1599C17.7923 50.4553 17.5264 50.7692 17.2901 51.1053H17.2827C16.4408 52.3017 15.9902 53.7308 15.9902 55.1931V58.7936H32.1641L32.1682 58.801ZM53.619 34.4584H69.4498C70.5834 34.4547 71.4993 33.5352 71.503 32.4015V4.5138C71.4993 3.38383 70.5835 2.46429 69.4498 2.4606H34.0144C32.8808 2.46429 31.9649 3.38379 31.9576 4.5138V16.6927H41.2448C43.6525 16.7813 45.5579 18.7569 45.5579 21.1683C45.5579 23.576 43.6525 25.5553 41.2448 25.644H31.9576V32.4054V32.4017C31.9649 33.5353 32.8807 34.4512 34.0144 34.4586H37.2788C37.6333 30.2082 41.1857 26.9401 45.4508 26.9401C49.716 26.9401 53.2682 30.208 53.619 34.4584ZM49.9779 30.6068C47.8176 28.4465 44.4351 28.1143 41.8945 29.8129C39.3538 31.5079 38.3678 34.7649 39.5385 37.5862C40.7054 40.4075 43.7038 42.0101 46.7024 41.4156C49.6972 40.8174 51.8538 38.1881 51.8538 35.1343C51.8575 33.4356 51.1818 31.8071 49.9779 30.6068ZM46.7763 43.3321H44.1249C38.5193 43.3506 33.9776 47.889 33.9587 53.4946V58.8011H56.9457V53.4946C56.9272 47.889 52.3858 43.3473 46.7763 43.3321ZM56.3073 30.0756C55.8125 30.0756 55.4099 29.6767 55.4099 29.1819C55.4099 28.6871 55.8125 28.2846 56.3073 28.2846H64.7674H64.7637C65.2585 28.2846 65.661 28.6871 65.661 29.1819C65.661 29.6767 65.2585 30.0756 64.7637 30.0756H56.3073ZM52.7253 22.8415C52.2304 22.8415 51.8279 22.4427 51.8279 21.9478C51.8279 21.453 52.2304 21.0505 52.7253 21.0505H64.7671H64.7634C65.2582 21.0505 65.6607 21.453 65.6607 21.9478C65.6607 22.4427 65.2582 22.8415 64.7634 22.8415H52.7253ZM52.7253 15.6037C52.2304 15.6037 51.8279 15.2012 51.8279 14.7064C51.8279 14.2116 52.2304 13.8128 52.7253 13.8128H64.7671H64.7634C65.2582 13.8128 65.6607 14.2116 65.6607 14.7064C65.6607 15.2012 65.2582 15.6037 64.7634 15.6037H52.7253ZM38.6888 8.36598C38.194 8.36598 37.7951 7.96347 37.7951 7.46864C37.7951 6.97381 38.194 6.575 38.6888 6.575H64.7671C65.2619 6.575 65.6644 6.97382 65.6644 7.46864C65.6644 7.96347 65.2619 8.36598 64.7671 8.36598H38.6888ZM15.9116 16.6932H17.2004H17.1967C21.0114 16.3497 23.8769 13.0669 23.707 9.24119C23.5335 5.41547 20.3836 2.40586 16.5542 2.40586C12.7248 2.40586 9.57488 5.41547 9.40132 9.24119C9.23145 13.0669 12.0971 16.3497 15.9116 16.6932Z" fill="black"/>
<path d="M30.1625 16.6918V4.51291C30.1699 2.38957 31.8907 0.668758 34.0141 0.665071H69.4494C71.5727 0.668764 73.2935 2.38957 73.3009 4.51291V32.4006C73.2935 34.5239 71.5727 36.2448 69.4494 36.2484H69.4014C70.0698 36.5549 70.6791 36.9796 71.1997 37.5003C73.6148 39.919 73.6148 43.837 71.1997 46.2595C71.0225 46.433 70.8378 46.5955 70.6421 46.7506C71.9383 47.1937 73.1163 47.9286 74.0837 48.8961C75.7602 50.5652 76.7019 52.8326 76.7019 55.1996V59.6974C76.7019 60.1922 76.303 60.5947 75.8082 60.5947H11.624C8.71412 60.5873 6.35813 58.2277 6.35445 55.3178V42.4743H6.07011C3.16024 42.4706 0.800562 40.1147 0.796875 37.2048V21.1632C0.800568 18.6928 2.80573 16.6913 5.27621 16.6876H11.1366C10.8153 16.4365 10.5088 16.1706 10.2171 15.8826C7.65804 13.3198 6.89363 9.46821 8.27838 6.12282C9.6669 2.77715 12.9313 0.594727 16.5538 0.594727C20.1764 0.594727 23.4409 2.77715 24.8256 6.12282C26.2141 9.46849 25.446 13.32 22.8869 15.8826C22.5989 16.1706 22.2924 16.4402 21.9674 16.6876L30.1625 16.6918ZM64.2432 36.2491H53.5712C53.3311 38.0216 52.5113 39.6686 51.2448 40.9315C50.8533 41.3192 50.4287 41.67 49.9707 41.9729C54.0512 43.1213 57.2307 46.3377 58.3274 50.433C58.6819 49.8791 59.0955 49.3658 59.5571 48.9042C60.5246 47.9367 61.7026 47.2018 62.995 46.755C62.803 46.6036 62.6147 46.4411 62.4411 46.2639C60.0261 43.8451 60.0261 39.9271 62.4411 37.5084C62.9618 36.9877 63.5711 36.563 64.2431 36.2529L64.2432 36.2491ZM66.8244 37.4788C64.7232 37.4788 62.9138 38.9633 62.5039 41.0238C62.094 43.0844 63.1945 45.1487 65.1369 45.9536C67.0793 46.755 69.3171 46.0755 70.484 44.3288C71.6508 42.582 71.4182 40.252 69.9338 38.7675C69.1066 37.944 67.9877 37.4788 66.8244 37.4788ZM58.7336 55.2039V58.8044H74.9113V55.2039C74.9002 51.2711 71.7171 48.088 67.7843 48.0732H65.8603C61.9312 48.088 58.7448 51.2711 58.7336 55.2039ZM24.0772 37.4787C21.9797 37.4787 20.174 38.9632 19.7678 41.0201C19.3579 43.077 20.4583 45.1375 22.397 45.9388C24.332 46.7401 26.5698 46.0643 27.733 44.3177C28.8999 42.5747 28.671 40.252 27.1865 38.7675C26.363 37.944 25.2442 37.4787 24.0772 37.4787ZM19.6976 37.5009H19.7013C21.0824 36.1198 23.0322 35.4736 24.9635 35.7505V29.1183C24.9635 26.2084 27.3269 23.8451 30.2404 23.8451H41.2452C42.6743 23.7712 43.7969 22.5932 43.7969 21.1642C43.7969 19.7314 42.6743 18.5534 41.2452 18.4796H17.2722C17.0358 18.498 16.7958 18.5091 16.5558 18.5091C16.3158 18.5091 16.072 18.4943 15.8357 18.4796H5.27808C3.79361 18.4796 2.59349 19.6797 2.58971 21.1605V37.2058C2.5934 39.126 4.14802 40.6807 6.0683 40.6844H6.35264L6.34895 24.813C6.34895 24.3182 6.75146 23.9157 7.24629 23.9157C7.74112 23.9157 8.13993 24.3182 8.13993 24.813V55.3259C8.13993 57.2461 9.69824 58.8045 11.6185 58.8082H14.1887V55.2041C14.1887 53.4648 14.6983 51.7661 15.6548 50.3185V41.0903C15.6548 40.5955 16.0573 40.193 16.5521 40.193C17.0469 40.193 17.4457 40.5955 17.4457 41.0903V48.3207C18.2803 47.6339 19.2293 47.1021 20.2523 46.7513C20.0566 46.5999 19.8719 46.4337 19.6947 46.2601C18.5314 45.1006 17.8815 43.5238 17.8815 41.8805C17.8815 40.2409 18.5314 38.6642 19.6947 37.5046L19.6976 37.5009ZM26.7619 36.2971H26.7656C28.5751 37.1686 29.8527 38.8635 30.1888 40.8429C30.5249 42.8222 29.8786 44.8421 28.4569 46.2602C28.2834 46.4374 28.0987 46.5999 27.903 46.7513C29.1992 47.1981 30.3735 47.9293 31.341 48.9004C31.8062 49.362 32.2198 49.8753 32.5707 50.4292C33.6748 46.334 36.8505 43.1176 40.9348 41.9692C40.4732 41.6664 40.0412 41.3192 39.6497 40.9315C38.3793 39.6686 37.5633 38.0216 37.3233 36.2491H34.0146C31.8912 36.2454 30.1704 34.5246 30.1631 32.4012V25.6435C28.2724 25.6841 26.7583 27.2314 26.7583 29.1258L26.7619 36.2971ZM32.1682 58.801V55.2043C32.1608 51.5484 29.4023 48.4908 25.7687 48.1105C25.5286 48.0846 25.2849 48.0736 25.0449 48.0699H23.1135C21.2229 48.0736 19.4134 48.8232 18.0803 50.1599C17.7923 50.4553 17.5264 50.7692 17.2901 51.1053H17.2827C16.4408 52.3017 15.9902 53.7308 15.9902 55.1931V58.7936H32.1641L32.1682 58.801ZM53.619 34.4584H69.4498C70.5834 34.4547 71.4993 33.5352 71.503 32.4015V4.5138C71.4993 3.38383 70.5835 2.46429 69.4498 2.4606H34.0144C32.8808 2.46429 31.9649 3.38379 31.9576 4.5138V16.6927H41.2448C43.6525 16.7813 45.5579 18.7569 45.5579 21.1683C45.5579 23.576 43.6525 25.5553 41.2448 25.644H31.9576V32.4054V32.4017C31.9649 33.5353 32.8807 34.4512 34.0144 34.4586H37.2788C37.6333 30.2082 41.1857 26.9401 45.4508 26.9401C49.716 26.9401 53.2682 30.208 53.619 34.4584ZM49.9779 30.6068C47.8176 28.4465 44.4351 28.1143 41.8945 29.8129C39.3538 31.5079 38.3678 34.7649 39.5385 37.5862C40.7054 40.4075 43.7038 42.0101 46.7024 41.4156C49.6972 40.8174 51.8538 38.1881 51.8538 35.1343C51.8575 33.4356 51.1818 31.8071 49.9779 30.6068ZM46.7763 43.3321H44.1249C38.5193 43.3506 33.9776 47.889 33.9587 53.4946V58.8011H56.9457V53.4946C56.9272 47.889 52.3858 43.3473 46.7763 43.3321ZM56.3073 30.0756C55.8125 30.0756 55.4099 29.6767 55.4099 29.1819C55.4099 28.6871 55.8125 28.2846 56.3073 28.2846H64.7674H64.7637C65.2585 28.2846 65.661 28.6871 65.661 29.1819C65.661 29.6767 65.2585 30.0756 64.7637 30.0756H56.3073ZM52.7253 22.8415C52.2304 22.8415 51.8279 22.4427 51.8279 21.9478C51.8279 21.453 52.2304 21.0505 52.7253 21.0505H64.7671H64.7634C65.2582 21.0505 65.6607 21.453 65.6607 21.9478C65.6607 22.4427 65.2582 22.8415 64.7634 22.8415H52.7253ZM52.7253 15.6037C52.2304 15.6037 51.8279 15.2012 51.8279 14.7064C51.8279 14.2116 52.2304 13.8128 52.7253 13.8128H64.7671H64.7634C65.2582 13.8128 65.6607 14.2116 65.6607 14.7064C65.6607 15.2012 65.2582 15.6037 64.7634 15.6037H52.7253ZM38.6888 8.36598C38.194 8.36598 37.7951 7.96347 37.7951 7.46864C37.7951 6.97381 38.194 6.575 38.6888 6.575H64.7671C65.2619 6.575 65.6644 6.97382 65.6644 7.46864C65.6644 7.96347 65.2619 8.36598 64.7671 8.36598H38.6888ZM15.9116 16.6932H17.2004H17.1967C21.0114 16.3497 23.8769 13.0669 23.707 9.24119C23.5335 5.41547 20.3836 2.40586 16.5542 2.40586C12.7248 2.40586 9.57488 5.41547 9.40132 9.24119C9.23145 13.0669 12.0971 16.3497 15.9116 16.6932Z" fill="url(#paint0_linear_858_2292)"/>
<defs>
<linearGradient id="paint0_linear_858_2292" x1="38.7494" y1="60.5947" x2="38.7494" y2="0.594727" gradientUnits="userSpaceOnUse">
<stop stop-color="#5934DF"/>
<stop offset="1" stop-color="#DB80EB"/>
</linearGradient>
</defs>
</svg>
