<svg width="62" height="61" viewBox="0 0 62 61" fill="none" xmlns="http://www.w3.org/2000/svg">
<path d="M61.4552 55.653C61.4552 55.856 61.3755 56.0488 61.2316 56.1927L57.0221 60.3714C56.8705 60.523 56.6803 60.595 56.4824 60.595C56.2845 60.595 56.0866 60.523 55.9427 60.3714C55.6472 60.0681 55.6472 59.5876 55.9504 59.292L58.839 56.424H45.7172C45.2957 56.424 44.9539 56.0822 44.9539 55.6607C44.9539 55.2392 45.2957 54.8974 45.7172 54.8974H58.862L55.9735 51.9882C55.6779 51.685 55.6779 51.2044 55.9812 50.9089C56.2844 50.6133 56.765 50.6133 57.0605 50.9166L61.2393 55.1261C61.3755 55.252 61.4552 55.45 61.4552 55.653ZM56.6571 30.0922C56.6571 23.133 53.9664 16.5665 49.0781 11.6118C44.5191 6.98599 38.5313 4.24925 32.1036 3.83017L34.0105 1.89502C34.306 1.59177 34.306 1.1112 34.0028 0.815673C33.6995 0.520131 33.2189 0.520131 32.9234 0.823383L29.7856 3.99466C29.6416 4.13858 29.562 4.33646 29.562 4.53434C29.562 4.73736 29.6468 4.93011 29.7933 5.07402L32.9646 8.21188C33.1162 8.3558 33.3064 8.43546 33.5042 8.43546C33.7021 8.43546 33.9 8.3558 34.0491 8.20417C34.3446 7.90092 34.3446 7.42035 34.0413 7.12482L32.2707 5.37467C45.007 6.37435 55.1248 17.1498 55.1248 30.092C55.1248 43.7638 43.9997 54.8889 30.3279 54.8889H0.807241C0.385777 54.8889 0.0439453 55.2307 0.0439453 55.6522C0.0439453 56.0737 0.385744 56.4155 0.807241 56.4155H30.3279C44.8478 56.4155 56.6571 44.6075 56.6571 30.0922ZM13.9732 50.7187C14.112 50.8318 14.2816 50.8832 14.4461 50.8832C14.6696 50.8832 14.8932 50.7855 15.0449 50.5928C15.307 50.2639 15.2556 49.7833 14.9189 49.5212C8.95158 44.7848 5.53069 37.6993 5.53069 30.0927C5.53069 18.5794 13.3406 8.66488 24.517 5.98196C24.9257 5.8843 25.1826 5.46798 25.0824 5.06195C24.9848 4.65334 24.5684 4.39635 24.1624 4.49657C18.5112 5.85092 13.3919 9.1147 9.74782 13.6815C5.99062 18.3844 4.00402 24.0638 4.00402 30.0955C4.00659 38.1725 7.63787 45.6923 13.9725 50.7193L13.9732 50.7187ZM22.2562 20.4553C23.3407 19.5533 24.5588 18.8491 25.8874 18.3634L26.0853 14.8118C26.1059 14.4032 26.44 14.087 26.8486 14.087H33.6592C34.0678 14.087 34.4019 14.4031 34.4225 14.8118L34.6204 18.3634C35.2783 18.6075 35.9157 18.9082 36.5221 19.2577C37.1286 19.6072 37.712 20.0133 38.2517 20.4553L41.4281 18.8491C41.7904 18.6641 42.2299 18.7977 42.4355 19.1524L45.8432 25.0477C46.0462 25.3973 45.9408 25.8496 45.599 26.068L42.618 28.016C42.8544 29.4115 42.8544 30.8198 42.618 32.2127L45.599 34.1607C45.9408 34.3842 46.0462 34.8314 45.8432 35.1809L42.4355 41.0763C42.2324 41.4258 41.7904 41.5569 41.4281 41.3796L38.2517 39.7734C37.1672 40.6754 35.949 41.3796 34.6204 41.8653L34.4225 45.4169C34.402 45.8255 34.0679 46.1416 33.6592 46.1416L26.8539 46.1391C26.4453 46.1391 26.1112 45.823 26.0906 45.4143L25.8927 41.8627C25.2348 41.6186 24.5974 41.3179 23.991 40.9684C23.3845 40.6189 22.8011 40.2128 22.2614 39.7708L19.085 41.377C18.7227 41.562 18.2832 41.4284 18.0776 41.0737L14.6699 35.1784C14.4669 34.8288 14.5723 34.3765 14.9141 34.1581L17.8951 32.2101C17.6587 30.8146 17.6587 29.4063 17.8951 28.0134L14.9141 26.0655C14.5723 25.8419 14.4669 25.3947 14.6699 25.0452L18.0776 19.1498C18.2807 18.8003 18.7227 18.6692 19.085 18.8465L22.2562 20.4553ZM22.0249 22.0487L19.0386 20.5427L16.3556 25.1865L19.1594 27.0215C19.4215 27.1937 19.5552 27.5149 19.4883 27.8181C19.1671 29.337 19.1671 30.8841 19.4883 32.4106C19.5552 32.719 19.4215 33.0351 19.1594 33.2073L16.3556 35.0422L19.0386 39.6861L22.0249 38.1801C22.3076 38.0362 22.6442 38.0824 22.8807 38.2932C23.4538 38.8071 24.0834 39.2672 24.749 39.6475C25.4197 40.0356 26.1316 40.3517 26.8614 40.5881C27.1647 40.6858 27.3677 40.9556 27.3883 41.2717L27.5733 44.6126H32.9341L33.1192 41.264C33.1397 40.9479 33.3505 40.6781 33.646 40.5804C35.134 40.0998 36.4678 39.3237 37.6268 38.2855C37.8633 38.0747 38.1999 38.0285 38.4826 38.1724L41.4689 39.6784L44.1519 35.0345L41.3481 33.1996C41.086 33.0274 40.9523 32.7061 41.0192 32.4029C41.3404 30.8841 41.3404 29.337 41.0192 27.8104C40.9523 27.5021 41.086 27.186 41.3481 27.0138L44.1519 25.1788L41.4689 20.535L38.4826 22.041C38.1999 22.1849 37.8633 22.1386 37.6268 21.9279C37.0537 21.4139 36.4241 20.9539 35.7585 20.5736C35.0878 20.1855 34.3759 19.8694 33.6461 19.633C33.3428 19.5353 33.1398 19.2655 33.1192 18.9493L32.9342 15.6084H27.5734L27.3883 18.9493C27.3678 19.2654 27.157 19.5353 26.8615 19.633C25.3735 20.1135 24.0397 20.8897 22.8807 21.9279C22.6519 22.1464 22.3101 22.1926 22.0249 22.0487ZM24.4997 33.4409C23.6105 31.9015 23.3741 30.1128 23.8341 28.3935C24.2941 26.6768 25.3941 25.2428 26.9334 24.3536C28.4728 23.4644 30.2615 23.228 31.9807 23.688C33.6975 24.1481 35.1315 25.248 36.0207 26.7873C36.9099 28.3267 37.1463 30.1154 36.6863 31.8347C36.2262 33.5514 35.1263 34.9854 33.5869 35.8746C32.5615 36.4657 31.423 36.7689 30.2717 36.7689C29.6935 36.7689 29.1127 36.6893 28.5422 36.5377C26.8229 36.0802 25.3889 34.9828 24.4997 33.4409ZM25.8232 32.6802C26.5068 33.865 27.6119 34.713 28.9354 35.0677C30.2589 35.4223 31.639 35.2399 32.8237 34.5537C34.0085 33.8701 34.8565 32.765 35.2112 31.4415C35.5658 30.118 35.3834 28.7379 34.6972 27.5532C34.0136 26.3684 32.9085 25.5204 31.585 25.1657C31.143 25.0475 30.6958 24.9884 30.2487 24.9884C29.3594 24.9884 28.4857 25.2197 27.6967 25.6797C26.512 26.3633 25.664 27.4684 25.3093 28.7919C24.9546 30.1128 25.137 31.4878 25.8232 32.6802Z" fill="#6D4DF2"/>
<path d="M61.4552 55.653C61.4552 55.856 61.3755 56.0488 61.2316 56.1927L57.0221 60.3714C56.8705 60.523 56.6803 60.595 56.4824 60.595C56.2845 60.595 56.0866 60.523 55.9427 60.3714C55.6472 60.0681 55.6472 59.5876 55.9504 59.292L58.839 56.424H45.7172C45.2957 56.424 44.9539 56.0822 44.9539 55.6607C44.9539 55.2392 45.2957 54.8974 45.7172 54.8974H58.862L55.9735 51.9882C55.6779 51.685 55.6779 51.2044 55.9812 50.9089C56.2844 50.6133 56.765 50.6133 57.0605 50.9166L61.2393 55.1261C61.3755 55.252 61.4552 55.45 61.4552 55.653ZM56.6571 30.0922C56.6571 23.133 53.9664 16.5665 49.0781 11.6118C44.5191 6.98599 38.5313 4.24925 32.1036 3.83017L34.0105 1.89502C34.306 1.59177 34.306 1.1112 34.0028 0.815673C33.6995 0.520131 33.2189 0.520131 32.9234 0.823383L29.7856 3.99466C29.6416 4.13858 29.562 4.33646 29.562 4.53434C29.562 4.73736 29.6468 4.93011 29.7933 5.07402L32.9646 8.21188C33.1162 8.3558 33.3064 8.43546 33.5042 8.43546C33.7021 8.43546 33.9 8.3558 34.0491 8.20417C34.3446 7.90092 34.3446 7.42035 34.0413 7.12482L32.2707 5.37467C45.007 6.37435 55.1248 17.1498 55.1248 30.092C55.1248 43.7638 43.9997 54.8889 30.3279 54.8889H0.807241C0.385777 54.8889 0.0439453 55.2307 0.0439453 55.6522C0.0439453 56.0737 0.385744 56.4155 0.807241 56.4155H30.3279C44.8478 56.4155 56.6571 44.6075 56.6571 30.0922ZM13.9732 50.7187C14.112 50.8318 14.2816 50.8832 14.4461 50.8832C14.6696 50.8832 14.8932 50.7855 15.0449 50.5928C15.307 50.2639 15.2556 49.7833 14.9189 49.5212C8.95158 44.7848 5.53069 37.6993 5.53069 30.0927C5.53069 18.5794 13.3406 8.66488 24.517 5.98196C24.9257 5.8843 25.1826 5.46798 25.0824 5.06195C24.9848 4.65334 24.5684 4.39635 24.1624 4.49657C18.5112 5.85092 13.3919 9.1147 9.74782 13.6815C5.99062 18.3844 4.00402 24.0638 4.00402 30.0955C4.00659 38.1725 7.63787 45.6923 13.9725 50.7193L13.9732 50.7187ZM22.2562 20.4553C23.3407 19.5533 24.5588 18.8491 25.8874 18.3634L26.0853 14.8118C26.1059 14.4032 26.44 14.087 26.8486 14.087H33.6592C34.0678 14.087 34.4019 14.4031 34.4225 14.8118L34.6204 18.3634C35.2783 18.6075 35.9157 18.9082 36.5221 19.2577C37.1286 19.6072 37.712 20.0133 38.2517 20.4553L41.4281 18.8491C41.7904 18.6641 42.2299 18.7977 42.4355 19.1524L45.8432 25.0477C46.0462 25.3973 45.9408 25.8496 45.599 26.068L42.618 28.016C42.8544 29.4115 42.8544 30.8198 42.618 32.2127L45.599 34.1607C45.9408 34.3842 46.0462 34.8314 45.8432 35.1809L42.4355 41.0763C42.2324 41.4258 41.7904 41.5569 41.4281 41.3796L38.2517 39.7734C37.1672 40.6754 35.949 41.3796 34.6204 41.8653L34.4225 45.4169C34.402 45.8255 34.0679 46.1416 33.6592 46.1416L26.8539 46.1391C26.4453 46.1391 26.1112 45.823 26.0906 45.4143L25.8927 41.8627C25.2348 41.6186 24.5974 41.3179 23.991 40.9684C23.3845 40.6189 22.8011 40.2128 22.2614 39.7708L19.085 41.377C18.7227 41.562 18.2832 41.4284 18.0776 41.0737L14.6699 35.1784C14.4669 34.8288 14.5723 34.3765 14.9141 34.1581L17.8951 32.2101C17.6587 30.8146 17.6587 29.4063 17.8951 28.0134L14.9141 26.0655C14.5723 25.8419 14.4669 25.3947 14.6699 25.0452L18.0776 19.1498C18.2807 18.8003 18.7227 18.6692 19.085 18.8465L22.2562 20.4553ZM22.0249 22.0487L19.0386 20.5427L16.3556 25.1865L19.1594 27.0215C19.4215 27.1937 19.5552 27.5149 19.4883 27.8181C19.1671 29.337 19.1671 30.8841 19.4883 32.4106C19.5552 32.719 19.4215 33.0351 19.1594 33.2073L16.3556 35.0422L19.0386 39.6861L22.0249 38.1801C22.3076 38.0362 22.6442 38.0824 22.8807 38.2932C23.4538 38.8071 24.0834 39.2672 24.749 39.6475C25.4197 40.0356 26.1316 40.3517 26.8614 40.5881C27.1647 40.6858 27.3677 40.9556 27.3883 41.2717L27.5733 44.6126H32.9341L33.1192 41.264C33.1397 40.9479 33.3505 40.6781 33.646 40.5804C35.134 40.0998 36.4678 39.3237 37.6268 38.2855C37.8633 38.0747 38.1999 38.0285 38.4826 38.1724L41.4689 39.6784L44.1519 35.0345L41.3481 33.1996C41.086 33.0274 40.9523 32.7061 41.0192 32.4029C41.3404 30.8841 41.3404 29.337 41.0192 27.8104C40.9523 27.5021 41.086 27.186 41.3481 27.0138L44.1519 25.1788L41.4689 20.535L38.4826 22.041C38.1999 22.1849 37.8633 22.1386 37.6268 21.9279C37.0537 21.4139 36.4241 20.9539 35.7585 20.5736C35.0878 20.1855 34.3759 19.8694 33.6461 19.633C33.3428 19.5353 33.1398 19.2655 33.1192 18.9493L32.9342 15.6084H27.5734L27.3883 18.9493C27.3678 19.2654 27.157 19.5353 26.8615 19.633C25.3735 20.1135 24.0397 20.8897 22.8807 21.9279C22.6519 22.1464 22.3101 22.1926 22.0249 22.0487ZM24.4997 33.4409C23.6105 31.9015 23.3741 30.1128 23.8341 28.3935C24.2941 26.6768 25.3941 25.2428 26.9334 24.3536C28.4728 23.4644 30.2615 23.228 31.9807 23.688C33.6975 24.1481 35.1315 25.248 36.0207 26.7873C36.9099 28.3267 37.1463 30.1154 36.6863 31.8347C36.2262 33.5514 35.1263 34.9854 33.5869 35.8746C32.5615 36.4657 31.423 36.7689 30.2717 36.7689C29.6935 36.7689 29.1127 36.6893 28.5422 36.5377C26.8229 36.0802 25.3889 34.9828 24.4997 33.4409ZM25.8232 32.6802C26.5068 33.865 27.6119 34.713 28.9354 35.0677C30.2589 35.4223 31.639 35.2399 32.8237 34.5537C34.0085 33.8701 34.8565 32.765 35.2112 31.4415C35.5658 30.118 35.3834 28.7379 34.6972 27.5532C34.0136 26.3684 32.9085 25.5204 31.585 25.1657C31.143 25.0475 30.6958 24.9884 30.2487 24.9884C29.3594 24.9884 28.4857 25.2197 27.6967 25.6797C26.512 26.3633 25.664 27.4684 25.3093 28.7919C24.9546 30.1128 25.137 31.4878 25.8232 32.6802Z" fill="url(#paint0_linear_858_2216)"/>
<defs>
<linearGradient id="paint0_linear_858_2216" x1="30.7496" y1="60.595" x2="30.7496" y2="0.594971" gradientUnits="userSpaceOnUse">
<stop stop-color="#5934DF"/>
<stop offset="1" stop-color="#DB80EB"/>
</linearGradient>
</defs>
</svg>
