<svg width="48" height="48" viewBox="0 0 48 48" fill="none" xmlns="http://www.w3.org/2000/svg">
<g clip-path="url(#clip0_858_2467)">
<path d="M44.8038 19.8763C46.5666 19.8744 47.9961 18.4449 47.998 16.6802V12.7423C47.9884 12.3744 47.6859 12.0815 47.318 12.0815C46.95 12.0815 46.6475 12.3744 46.6379 12.7423V16.6802C46.636 17.6936 45.8152 18.5143 44.8038 18.5162H36.9127V14.2335C36.9127 12.2357 35.2924 10.6174 33.2947 10.6174H30.8287V4.15753C30.8441 3.36186 31.503 2.72806 32.2986 2.74152H33.1405C33.5162 2.74152 33.8206 2.43713 33.8206 2.06145C33.8206 1.68578 33.5162 1.38139 33.1405 1.38139H32.2986C30.7516 1.3679 29.4859 2.61053 29.4685 4.15753V10.6194H24.6734V1.00404C24.6637 0.636076 24.3613 0.343262 23.9933 0.343262C23.6253 0.343262 23.3228 0.636096 23.3132 1.00404V10.6194H18.9766V4.15753C18.9612 2.61053 17.6935 1.36792 16.1465 1.38139H14.4646C14.0889 1.38139 13.7845 1.68578 13.7845 2.06145C13.7845 2.43713 14.0889 2.74152 14.4646 2.74152H16.1484H16.1465C16.9441 2.72803 17.601 3.36186 17.6164 4.15753V10.6194H13.5553C11.5574 10.6194 9.93916 12.2376 9.93916 14.2355V18.5163H3.19423C2.18278 18.5143 1.36211 17.6936 1.36013 16.6822V12.7424C1.3505 12.3744 1.04803 12.0816 0.680067 12.0816C0.312099 12.0816 0.0096173 12.3744 0 12.7424V16.6802C0.00192642 18.4449 1.4314 19.8745 3.19423 19.8764H9.94113V26.1242L4.04203 26.1223C3.66635 26.1223 3.36196 26.4267 3.36196 26.8023C3.36196 27.178 3.66636 27.4824 4.04203 27.4824H9.94113V32.3778L3.19423 32.3797C1.43145 32.3816 0.00192346 33.8092 0 35.5739V39.5118C0.00963259 39.8797 0.312099 40.1726 0.680067 40.1726C1.04803 40.1726 1.35052 39.8797 1.36013 39.5118V35.5701C1.36206 34.5586 2.18278 33.7379 3.19423 33.736H9.94113V33.9768C9.94113 35.9746 11.5594 37.5929 13.5572 37.5929H16.5434V44.0527C16.528 44.8484 15.871 45.4822 15.0734 45.4688H13.3877C13.012 45.4688 12.7076 45.7732 12.7076 46.1488C12.7076 46.5245 13.012 46.8289 13.3877 46.8289H15.0715C16.6185 46.8405 17.8842 45.5998 17.9016 44.0527V37.5909H22.2383V47.2062C22.2383 47.5819 22.5427 47.8863 22.9183 47.8863C23.294 47.8863 23.5984 47.5819 23.5984 47.2062V37.5909H28.3936V44.0527C28.409 45.5998 29.6767 46.8424 31.2237 46.8289H32.0656C32.4412 46.8289 32.7456 46.5245 32.7456 46.1488C32.7456 45.7732 32.4412 45.4688 32.0656 45.4688H31.2237C30.4261 45.4822 29.7691 44.8484 29.7537 44.0527V37.5909H33.2985C35.2964 37.5909 36.9147 35.9726 36.9147 33.9748V33.734H44.8058C45.8191 33.7359 46.6399 34.5566 46.6399 35.5681V39.5059C46.6514 39.8739 46.952 40.1687 47.3199 40.1687C47.6879 40.1687 47.9904 39.8739 48 39.5059V35.57C47.9981 33.8072 46.5686 32.3777 44.8058 32.3758H36.9147V27.4804H43.956C44.3317 27.4804 44.6361 27.176 44.6361 26.8004C44.6361 26.4247 44.3317 26.1203 43.956 26.1203H36.9127V19.8725L44.8038 19.8763ZM35.5525 33.9768C35.5505 35.2213 34.5429 36.2289 33.2984 36.2308H13.5553C12.3108 36.2289 11.3013 35.2213 11.3013 33.9768V14.2337C11.3013 12.9892 12.3108 11.9816 13.5553 11.9797H33.2984C34.5429 11.9816 35.5505 12.9892 35.5525 14.2337V33.9768ZM29.0985 16.0659H17.7511C16.4449 16.0678 15.3872 17.1255 15.3853 18.4317V29.7752C15.3853 31.0833 16.4448 32.1429 17.7511 32.1449H29.0946C30.4027 32.1429 31.4604 31.0853 31.4623 29.7791V18.4356C31.4623 17.1294 30.4047 16.0698 29.0985 16.0659ZM30.1061 29.7792C30.1061 30.3341 29.6553 30.7849 29.0985 30.7849H17.7511C17.1962 30.7849 16.7454 30.3341 16.7454 29.7792V18.4357C16.7454 18.1679 16.8514 17.9117 17.0402 17.7229C17.229 17.5322 17.4852 17.4262 17.7511 17.4262H29.0945C29.6513 17.4262 30.1021 17.877 30.1021 18.4319L30.1061 29.7792Z" fill="#8C71FF"/>
</g>
<defs>
<clipPath id="clip0_858_2467">
<rect width="48" height="47.543" fill="white" transform="translate(0 0.343262)"/>
</clipPath>
</defs>
</svg>
