<svg width="69" height="61" viewBox="0 0 69 61" fill="none" xmlns="http://www.w3.org/2000/svg">
<path fill-rule="evenodd" clip-rule="evenodd" d="M62.2528 38.2732H28.0443V39.5747C28.0443 42.8434 30.71 45.5091 33.9787 45.5091H61.4611C62.0323 45.5091 62.4872 45.964 62.4872 46.5352C62.4872 47.1064 62.0217 47.5613 61.4611 47.5613H33.9787C29.5781 47.5613 25.9921 43.9753 25.9921 39.5747V37.3804L18.7021 4.26403C18.5222 3.4495 17.7818 2.85712 16.9567 2.85712H11.53C10.9588 2.85712 10.5039 2.40225 10.5039 1.83102C10.5039 1.2598 10.9588 0.804932 11.53 0.804932H16.9567C18.7444 0.804932 20.3205 2.07432 20.7119 3.81974L22.1189 10.2196L67.5737 10.209C67.8805 10.209 68.1767 10.3465 68.3671 10.5898C68.5575 10.8331 68.6421 11.1399 68.5787 11.4467L63.2578 37.4587C63.1626 37.9347 62.7394 38.2732 62.2528 38.2732ZM27.8417 36.2316H61.4172L66.3149 12.2718L22.5631 12.2824L27.8417 36.2316ZM1.92648 16.2385H18.4603C19.021 16.2385 19.4864 15.7836 19.4864 15.2124C19.4864 14.6411 19.0316 14.1863 18.4603 14.1863H1.92648C1.35526 14.1863 0.900391 14.6517 0.900391 15.2124C0.900391 15.773 1.35526 16.2385 1.92648 16.2385ZM20.4897 25.8012H8.30349C7.73227 25.8012 7.2774 25.3464 7.2774 24.7751C7.2774 24.2039 7.73227 23.749 8.30349 23.749H20.4897C21.0609 23.749 21.5158 24.2039 21.5158 24.7751C21.5158 25.3464 21.0503 25.8012 20.4897 25.8012ZM15.2657 35.3743H22.5224C23.083 35.3743 23.5485 34.9194 23.5485 34.3482C23.5485 33.7769 23.0936 33.3221 22.5224 33.3221H15.2657C14.6945 33.3221 14.2396 33.7769 14.2396 34.3482C14.2396 34.9194 14.6945 35.3743 15.2657 35.3743ZM35.5325 60.8049C32.6234 60.8049 30.2539 58.4354 30.2539 55.5264C30.2539 52.6173 32.6234 50.2478 35.5325 50.2478C38.4415 50.2478 40.811 52.6173 40.811 55.5264C40.811 58.4354 38.4415 60.8049 35.5325 60.8049ZM35.5325 52.3C33.7553 52.3 32.3061 53.7492 32.3061 55.5264C32.3061 57.3035 33.7553 58.7527 35.5325 58.7527C37.3096 58.7527 38.7588 57.3035 38.7588 55.5264C38.7588 53.7492 37.3096 52.3 35.5325 52.3ZM48.9567 55.5266C48.9567 58.4356 51.3263 60.8052 54.2353 60.8052C57.1549 60.8052 59.5244 58.4356 59.5138 55.5266C59.5138 52.6176 57.1443 50.248 54.2353 50.248C51.3263 50.248 48.9567 52.6176 48.9567 55.5266ZM51.0089 55.5266C51.0089 53.7494 52.4581 52.3002 54.2353 52.3002C56.023 52.3002 57.4617 53.7494 57.4617 55.5266C57.4617 57.3037 56.0124 58.753 54.2353 58.753C52.4581 58.753 51.0089 57.3037 51.0089 55.5266Z" fill="black"/>
<path fill-rule="evenodd" clip-rule="evenodd" d="M62.2528 38.2732H28.0443V39.5747C28.0443 42.8434 30.71 45.5091 33.9787 45.5091H61.4611C62.0323 45.5091 62.4872 45.964 62.4872 46.5352C62.4872 47.1064 62.0217 47.5613 61.4611 47.5613H33.9787C29.5781 47.5613 25.9921 43.9753 25.9921 39.5747V37.3804L18.7021 4.26403C18.5222 3.4495 17.7818 2.85712 16.9567 2.85712H11.53C10.9588 2.85712 10.5039 2.40225 10.5039 1.83102C10.5039 1.2598 10.9588 0.804932 11.53 0.804932H16.9567C18.7444 0.804932 20.3205 2.07432 20.7119 3.81974L22.1189 10.2196L67.5737 10.209C67.8805 10.209 68.1767 10.3465 68.3671 10.5898C68.5575 10.8331 68.6421 11.1399 68.5787 11.4467L63.2578 37.4587C63.1626 37.9347 62.7394 38.2732 62.2528 38.2732ZM27.8417 36.2316H61.4172L66.3149 12.2718L22.5631 12.2824L27.8417 36.2316ZM1.92648 16.2385H18.4603C19.021 16.2385 19.4864 15.7836 19.4864 15.2124C19.4864 14.6411 19.0316 14.1863 18.4603 14.1863H1.92648C1.35526 14.1863 0.900391 14.6517 0.900391 15.2124C0.900391 15.773 1.35526 16.2385 1.92648 16.2385ZM20.4897 25.8012H8.30349C7.73227 25.8012 7.2774 25.3464 7.2774 24.7751C7.2774 24.2039 7.73227 23.749 8.30349 23.749H20.4897C21.0609 23.749 21.5158 24.2039 21.5158 24.7751C21.5158 25.3464 21.0503 25.8012 20.4897 25.8012ZM15.2657 35.3743H22.5224C23.083 35.3743 23.5485 34.9194 23.5485 34.3482C23.5485 33.7769 23.0936 33.3221 22.5224 33.3221H15.2657C14.6945 33.3221 14.2396 33.7769 14.2396 34.3482C14.2396 34.9194 14.6945 35.3743 15.2657 35.3743ZM35.5325 60.8049C32.6234 60.8049 30.2539 58.4354 30.2539 55.5264C30.2539 52.6173 32.6234 50.2478 35.5325 50.2478C38.4415 50.2478 40.811 52.6173 40.811 55.5264C40.811 58.4354 38.4415 60.8049 35.5325 60.8049ZM35.5325 52.3C33.7553 52.3 32.3061 53.7492 32.3061 55.5264C32.3061 57.3035 33.7553 58.7527 35.5325 58.7527C37.3096 58.7527 38.7588 57.3035 38.7588 55.5264C38.7588 53.7492 37.3096 52.3 35.5325 52.3ZM48.9567 55.5266C48.9567 58.4356 51.3263 60.8052 54.2353 60.8052C57.1549 60.8052 59.5244 58.4356 59.5138 55.5266C59.5138 52.6176 57.1443 50.248 54.2353 50.248C51.3263 50.248 48.9567 52.6176 48.9567 55.5266ZM51.0089 55.5266C51.0089 53.7494 52.4581 52.3002 54.2353 52.3002C56.023 52.3002 57.4617 53.7494 57.4617 55.5266C57.4617 57.3037 56.0124 58.753 54.2353 58.753C52.4581 58.753 51.0089 57.3037 51.0089 55.5266Z" fill="url(#paint0_linear_858_1704)"/>
<defs>
<linearGradient id="paint0_linear_858_1704" x1="34.7499" y1="60.8052" x2="34.7499" y2="0.804932" gradientUnits="userSpaceOnUse">
<stop stop-color="#5934DF"/>
<stop offset="1" stop-color="#DB80EB"/>
</linearGradient>
</defs>
</svg>
