<svg width="62" height="61" viewBox="0 0 62 61" fill="none" xmlns="http://www.w3.org/2000/svg">
<path d="M2.22272 33.2359L6.84862 34.1599L4.43217 38.4972C3.95705 39.3513 4.10571 40.4181 4.79653 41.109L6.14031 42.4615C6.83405 43.1494 7.898 43.2981 8.75204 42.8258L13.0981 40.4007L14.0221 45.0645C14.232 46.0847 15.1269 46.8163 16.1675 46.8222H16.9458V55.2081C16.9487 58.2978 19.4526 60.8017 22.5424 60.8046H55.4368C56.9263 60.8105 58.3575 60.2246 59.4127 59.1752C60.4679 58.1259 61.0625 56.6976 61.0654 55.2081V19.1423C61.0683 17.1106 60.3046 15.1547 58.9288 13.6622L49.4668 3.40186C48.572 2.4341 47.4556 1.70252 46.2109 1.26524C45.3568 0.965011 44.459 0.807605 43.5525 0.804688H22.5654C19.4756 0.810518 16.9717 3.31442 16.9688 6.40126V12.6187H16.1905V12.6216C15.1499 12.6245 14.255 13.3591 14.0451 14.3764L13.1211 19.0402L8.75167 16.5858C7.90054 16.1107 6.83659 16.2565 6.13993 16.9414L4.79616 18.294C4.10533 18.9877 3.95667 20.0517 4.4318 20.9057L6.84825 25.243L2.22235 26.1758C1.19049 26.3711 0.438457 27.2718 0.435547 28.3212V31.0903C0.444292 32.1396 1.19086 33.0377 2.22272 33.2359ZM58.0429 14.4172C58.3723 14.7757 58.6609 15.1692 58.9057 15.589H48.3655C47.3686 15.589 46.5612 14.7816 46.5612 13.7876V2.67052C47.3395 3.04071 48.0419 3.55664 48.6278 4.18622L58.0429 14.4172ZM18.1356 6.39545C18.1386 3.94989 20.1207 1.96774 22.5663 1.96483H43.5534C44.183 1.96483 44.8126 2.05519 45.4189 2.22716V13.7874C45.4219 15.4256 46.7511 16.7519 48.3892 16.7548H59.457C59.7252 17.5039 59.8651 18.2939 59.868 19.0867V55.2078C59.868 57.6562 57.8859 59.6384 55.4374 59.6384H22.5661C20.1205 59.6355 18.1384 57.6533 18.1355 55.2078V46.7898H18.9138C19.9544 46.7898 20.8522 46.0552 21.0591 45.035L21.9919 40.3712L26.3292 42.7964C27.1833 43.2861 28.2589 43.1491 28.9643 42.4611L30.308 41.1086C30.9989 40.4178 31.1475 39.3509 30.6724 38.4969L28.2559 34.1596L32.9197 33.2355C33.9225 33.0082 34.6366 32.1191 34.6366 31.0902V28.3211C34.6366 27.2805 33.9021 26.3826 32.8818 26.1757L28.218 25.2429L30.6345 20.9056C31.1096 20.0516 30.9609 18.9876 30.2701 18.2939L28.9643 16.9414C28.2676 16.2564 27.2036 16.1106 26.3525 16.5857L22.0152 19.0022L21.0824 14.3384C20.8609 13.3298 19.9689 12.6099 18.9371 12.6128H18.1588L18.1356 6.39545ZM1.63471 28.3213C1.63179 27.8375 1.97283 27.4148 2.45091 27.3186L7.57237 26.2838V26.2867C7.76184 26.2488 7.92216 26.1206 8.00086 25.9428L8.14078 25.6075V25.6105C8.21365 25.4472 8.21365 25.2607 8.14078 25.0974L5.4824 20.3404C5.2667 19.9527 5.32209 19.4688 5.62232 19.1423L6.96609 17.7898C7.28673 17.4459 7.79685 17.3613 8.21077 17.5887L12.9766 20.2383H12.9737C13.134 20.317 13.3205 20.317 13.4809 20.2383L13.8161 20.0984H13.8132C13.9939 20.0255 14.1251 19.8681 14.1629 19.6787L15.2064 14.6038C15.3055 14.1258 15.7224 13.7847 16.2092 13.7789H18.9375C19.4243 13.7818 19.844 14.1258 19.9403 14.6038L20.9663 19.7253C21.0042 19.9148 21.1354 20.0722 21.3161 20.1451L21.6513 20.285H21.6484C21.8087 20.3637 21.9952 20.3637 22.1556 20.285L26.9185 17.5887C27.3178 17.3642 27.8133 17.4313 28.1398 17.7519L29.4836 19.1423C29.813 19.463 29.8829 19.9644 29.6555 20.3637L27.0059 25.1207C26.9243 25.2811 26.9243 25.4705 27.0059 25.6338L27.1458 25.969V25.9661C27.2187 26.1439 27.3761 26.2721 27.5656 26.31L32.687 27.3448V27.3419C33.1651 27.4381 33.509 27.8578 33.512 28.3446V31.1137C33.5061 31.6005 33.1622 32.0173 32.687 32.1165L27.5336 33.1338C27.3441 33.1746 27.1867 33.3058 27.1138 33.4836L26.9739 33.8188C26.8923 33.9762 26.8923 34.1657 26.9739 34.3231L29.6235 39.0802C29.8509 39.4795 29.7809 39.9808 29.4545 40.3015L28.1107 41.654H28.1078C27.7842 41.9717 27.2887 42.0417 26.8894 41.8231L22.1236 39.1647C21.9632 39.0889 21.7767 39.0889 21.6193 39.1647L21.2841 39.3046C21.1033 39.3804 20.9722 39.5407 20.9343 39.7331L19.9403 44.7933C19.8471 45.2742 19.4244 45.6182 18.9376 45.6182H16.1685C15.6963 45.5978 15.2998 45.2568 15.2065 44.7933L14.1805 39.6776C14.1397 39.4882 14.0085 39.3279 13.8307 39.2521L13.4955 39.1122C13.4226 39.083 13.3468 39.0684 13.271 39.0713C13.1719 39.0713 13.0757 39.0976 12.9912 39.1413L8.21085 41.8084C7.80859 42.027 7.31308 41.9571 6.98952 41.6364L5.62247 40.2839C5.30183 39.9604 5.23187 39.4648 5.45049 39.0655L8.10886 34.3084C8.18173 34.1481 8.18173 33.9616 8.10886 33.8012L7.96895 33.466V33.4689C7.89316 33.2882 7.73284 33.157 7.54046 33.1191L2.419 32.0931C1.94679 31.9911 1.60578 31.5743 1.60279 31.0904L1.63471 28.3213ZM17.5379 36.1737C20.1555 36.1737 22.5195 34.5938 23.5192 32.1745C24.522 29.7522 23.9652 26.9685 22.1114 25.1176C20.2604 23.2666 17.4738 22.7127 15.0545 23.7184C12.6351 24.7241 11.0581 27.0851 11.0611 29.7055C11.0669 33.2792 13.9643 36.1737 17.5379 36.1737ZM17.5379 24.3978C19.6833 24.3978 21.6188 25.6891 22.4408 27.6741C23.2628 29.6591 22.808 31.9415 21.2923 33.4601C19.7736 34.9788 17.4883 35.4335 15.5062 34.6115C13.5212 33.7895 12.227 31.854 12.227 29.7058C12.227 26.7734 14.6055 24.3978 17.5379 24.3978ZM23.9594 14.1284H38.4232C39.3823 14.1255 40.1605 13.3472 40.1634 12.3883V8.67176C40.1605 7.71273 39.3822 6.93451 38.4232 6.9316H23.9744C23.5051 6.92285 23.0562 7.10066 22.721 7.43005C22.3887 7.75651 22.2021 8.20543 22.2021 8.67181V12.3883C22.2021 12.8547 22.3887 13.3036 22.721 13.6301C23.0562 13.9565 23.5051 14.1373 23.9744 14.1285L23.9594 14.1284ZM23.3852 8.68631H23.3823C23.3823 8.36859 23.6388 8.11208 23.9565 8.11208H38.4233C38.5749 8.11208 38.7235 8.17329 38.8314 8.28114C38.9392 8.38899 38.9975 8.53474 38.9975 8.68631V12.4028C38.9975 12.5544 38.9392 12.703 38.8314 12.8109C38.7235 12.9188 38.5749 12.977 38.4233 12.977H23.9744C23.6567 12.977 23.3973 12.7205 23.3973 12.4028L23.3852 8.68631ZM38.9944 20.5003H46.3487L46.3429 20.5032C46.6664 20.5032 46.9258 20.7626 46.9258 21.0862C46.9258 21.4068 46.6664 21.6692 46.3429 21.6692H39.0061C38.6855 21.6692 38.4232 21.4068 38.4232 21.0862C38.4232 20.7626 38.6855 20.5032 39.0061 20.5032L38.9944 20.5003ZM38.9944 25.3886L54.3589 25.3915C54.6795 25.3915 54.9419 25.6538 54.9419 25.9745C54.9419 26.2951 54.6795 26.5574 54.3589 26.5574H39.0064C38.6857 26.5574 38.4234 26.2951 38.4234 25.9745C38.4234 25.6538 38.6857 25.3915 39.0064 25.3915L38.9944 25.3886ZM54.9297 31.163L54.9239 31.1659C54.921 31.4865 54.6616 31.7459 54.3409 31.7489H39.0056C38.6849 31.7489 38.4226 31.4894 38.4226 31.1659C38.4226 30.8452 38.6849 30.5829 39.0056 30.5829H54.3581C54.6729 30.5829 54.9323 30.8365 54.9411 31.1513L54.9297 31.163ZM54.9297 36.3485L54.9239 36.3514C54.921 36.6721 54.6616 36.9315 54.3409 36.9344H39.0056C38.6849 36.9344 38.4226 36.6721 38.4226 36.3514C38.4226 36.0308 38.6849 35.7685 39.0056 35.7685H54.3581C54.6729 35.7714 54.9265 36.0221 54.9411 36.3369L54.9297 36.3485ZM54.9297 41.5341L54.9239 41.537C54.9239 41.8576 54.6645 42.12 54.3409 42.12H39.0056C38.6849 42.12 38.4226 41.8576 38.4226 41.537C38.4226 41.2135 38.6849 40.954 39.0056 40.954H54.3581C54.6729 40.9569 54.9265 41.2076 54.9411 41.5195L54.9297 41.5341ZM31.1383 47.4368H25.224C24.0697 47.4397 23.1369 48.3724 23.134 49.5267V55.4498C23.1369 56.6012 24.0726 57.534 25.224 57.534H31.1383C31.6922 57.534 32.2256 57.3153 32.6162 56.9247C33.0097 56.5341 33.2312 56.0036 33.2312 55.4498V49.5267C33.2312 48.3724 32.2955 47.4368 31.1383 47.4368ZM32.0624 55.4496H32.0653C32.0653 55.6944 31.9662 55.9276 31.7942 56.0996C31.6193 56.2745 31.3832 56.3678 31.1383 56.3678H25.224C24.9792 56.3678 24.7431 56.2745 24.5711 56.0996C24.3962 55.9276 24.3 55.6944 24.3 55.4496V49.5265C24.3 49.0164 24.7139 48.6025 25.224 48.6025H31.1384C31.6514 48.6025 32.0653 49.0164 32.0653 49.5265L32.0624 55.4496ZM36.2306 49.751C36.2277 49.5965 36.2889 49.4478 36.3997 49.3371C36.5075 49.2263 36.6591 49.168 36.8136 49.168H45.8002C46.1208 49.168 46.3832 49.4303 46.3832 49.751C46.3832 50.0745 46.1208 50.334 45.8002 50.334H36.8136C36.6591 50.334 36.5104 50.2728 36.4026 50.1649C36.2918 50.0541 36.2306 49.9055 36.2306 49.751ZM54.8479 52.4881C54.8479 52.8087 54.5855 53.0711 54.2649 53.0711H36.8133C36.4926 53.0711 36.2303 52.8087 36.2303 52.4881C36.2303 52.1674 36.4926 51.9051 36.8133 51.9051H54.288C54.5999 51.9168 54.8479 52.1762 54.8479 52.4881ZM54.8479 55.2252C54.8479 55.3797 54.7896 55.5283 54.6788 55.6391C54.568 55.7499 54.4194 55.8082 54.2649 55.8082H36.8133C36.4926 55.8082 36.2303 55.5458 36.2303 55.2252C36.2303 54.9016 36.4926 54.6422 36.8133 54.6422H54.288C54.5999 54.6539 54.8479 54.9104 54.8479 55.2252Z" fill="black"/>
<path d="M2.22272 33.2359L6.84862 34.1599L4.43217 38.4972C3.95705 39.3513 4.10571 40.4181 4.79653 41.109L6.14031 42.4615C6.83405 43.1494 7.898 43.2981 8.75204 42.8258L13.0981 40.4007L14.0221 45.0645C14.232 46.0847 15.1269 46.8163 16.1675 46.8222H16.9458V55.2081C16.9487 58.2978 19.4526 60.8017 22.5424 60.8046H55.4368C56.9263 60.8105 58.3575 60.2246 59.4127 59.1752C60.4679 58.1259 61.0625 56.6976 61.0654 55.2081V19.1423C61.0683 17.1106 60.3046 15.1547 58.9288 13.6622L49.4668 3.40186C48.572 2.4341 47.4556 1.70252 46.2109 1.26524C45.3568 0.965011 44.459 0.807605 43.5525 0.804688H22.5654C19.4756 0.810518 16.9717 3.31442 16.9688 6.40126V12.6187H16.1905V12.6216C15.1499 12.6245 14.255 13.3591 14.0451 14.3764L13.1211 19.0402L8.75167 16.5858C7.90054 16.1107 6.83659 16.2565 6.13993 16.9414L4.79616 18.294C4.10533 18.9877 3.95667 20.0517 4.4318 20.9057L6.84825 25.243L2.22235 26.1758C1.19049 26.3711 0.438457 27.2718 0.435547 28.3212V31.0903C0.444292 32.1396 1.19086 33.0377 2.22272 33.2359ZM58.0429 14.4172C58.3723 14.7757 58.6609 15.1692 58.9057 15.589H48.3655C47.3686 15.589 46.5612 14.7816 46.5612 13.7876V2.67052C47.3395 3.04071 48.0419 3.55664 48.6278 4.18622L58.0429 14.4172ZM18.1356 6.39545C18.1386 3.94989 20.1207 1.96774 22.5663 1.96483H43.5534C44.183 1.96483 44.8126 2.05519 45.4189 2.22716V13.7874C45.4219 15.4256 46.7511 16.7519 48.3892 16.7548H59.457C59.7252 17.5039 59.8651 18.2939 59.868 19.0867V55.2078C59.868 57.6562 57.8859 59.6384 55.4374 59.6384H22.5661C20.1205 59.6355 18.1384 57.6533 18.1355 55.2078V46.7898H18.9138C19.9544 46.7898 20.8522 46.0552 21.0591 45.035L21.9919 40.3712L26.3292 42.7964C27.1833 43.2861 28.2589 43.1491 28.9643 42.4611L30.308 41.1086C30.9989 40.4178 31.1475 39.3509 30.6724 38.4969L28.2559 34.1596L32.9197 33.2355C33.9225 33.0082 34.6366 32.1191 34.6366 31.0902V28.3211C34.6366 27.2805 33.9021 26.3826 32.8818 26.1757L28.218 25.2429L30.6345 20.9056C31.1096 20.0516 30.9609 18.9876 30.2701 18.2939L28.9643 16.9414C28.2676 16.2564 27.2036 16.1106 26.3525 16.5857L22.0152 19.0022L21.0824 14.3384C20.8609 13.3298 19.9689 12.6099 18.9371 12.6128H18.1588L18.1356 6.39545ZM1.63471 28.3213C1.63179 27.8375 1.97283 27.4148 2.45091 27.3186L7.57237 26.2838V26.2867C7.76184 26.2488 7.92216 26.1206 8.00086 25.9428L8.14078 25.6075V25.6105C8.21365 25.4472 8.21365 25.2607 8.14078 25.0974L5.4824 20.3404C5.2667 19.9527 5.32209 19.4688 5.62232 19.1423L6.96609 17.7898C7.28673 17.4459 7.79685 17.3613 8.21077 17.5887L12.9766 20.2383H12.9737C13.134 20.317 13.3205 20.317 13.4809 20.2383L13.8161 20.0984H13.8132C13.9939 20.0255 14.1251 19.8681 14.1629 19.6787L15.2064 14.6038C15.3055 14.1258 15.7224 13.7847 16.2092 13.7789H18.9375C19.4243 13.7818 19.844 14.1258 19.9403 14.6038L20.9663 19.7253C21.0042 19.9148 21.1354 20.0722 21.3161 20.1451L21.6513 20.285H21.6484C21.8087 20.3637 21.9952 20.3637 22.1556 20.285L26.9185 17.5887C27.3178 17.3642 27.8133 17.4313 28.1398 17.7519L29.4836 19.1423C29.813 19.463 29.8829 19.9644 29.6555 20.3637L27.0059 25.1207C26.9243 25.2811 26.9243 25.4705 27.0059 25.6338L27.1458 25.969V25.9661C27.2187 26.1439 27.3761 26.2721 27.5656 26.31L32.687 27.3448V27.3419C33.1651 27.4381 33.509 27.8578 33.512 28.3446V31.1137C33.5061 31.6005 33.1622 32.0173 32.687 32.1165L27.5336 33.1338C27.3441 33.1746 27.1867 33.3058 27.1138 33.4836L26.9739 33.8188C26.8923 33.9762 26.8923 34.1657 26.9739 34.3231L29.6235 39.0802C29.8509 39.4795 29.7809 39.9808 29.4545 40.3015L28.1107 41.654H28.1078C27.7842 41.9717 27.2887 42.0417 26.8894 41.8231L22.1236 39.1647C21.9632 39.0889 21.7767 39.0889 21.6193 39.1647L21.2841 39.3046C21.1033 39.3804 20.9722 39.5407 20.9343 39.7331L19.9403 44.7933C19.8471 45.2742 19.4244 45.6182 18.9376 45.6182H16.1685C15.6963 45.5978 15.2998 45.2568 15.2065 44.7933L14.1805 39.6776C14.1397 39.4882 14.0085 39.3279 13.8307 39.2521L13.4955 39.1122C13.4226 39.083 13.3468 39.0684 13.271 39.0713C13.1719 39.0713 13.0757 39.0976 12.9912 39.1413L8.21085 41.8084C7.80859 42.027 7.31308 41.9571 6.98952 41.6364L5.62247 40.2839C5.30183 39.9604 5.23187 39.4648 5.45049 39.0655L8.10886 34.3084C8.18173 34.1481 8.18173 33.9616 8.10886 33.8012L7.96895 33.466V33.4689C7.89316 33.2882 7.73284 33.157 7.54046 33.1191L2.419 32.0931C1.94679 31.9911 1.60578 31.5743 1.60279 31.0904L1.63471 28.3213ZM17.5379 36.1737C20.1555 36.1737 22.5195 34.5938 23.5192 32.1745C24.522 29.7522 23.9652 26.9685 22.1114 25.1176C20.2604 23.2666 17.4738 22.7127 15.0545 23.7184C12.6351 24.7241 11.0581 27.0851 11.0611 29.7055C11.0669 33.2792 13.9643 36.1737 17.5379 36.1737ZM17.5379 24.3978C19.6833 24.3978 21.6188 25.6891 22.4408 27.6741C23.2628 29.6591 22.808 31.9415 21.2923 33.4601C19.7736 34.9788 17.4883 35.4335 15.5062 34.6115C13.5212 33.7895 12.227 31.854 12.227 29.7058C12.227 26.7734 14.6055 24.3978 17.5379 24.3978ZM23.9594 14.1284H38.4232C39.3823 14.1255 40.1605 13.3472 40.1634 12.3883V8.67176C40.1605 7.71273 39.3822 6.93451 38.4232 6.9316H23.9744C23.5051 6.92285 23.0562 7.10066 22.721 7.43005C22.3887 7.75651 22.2021 8.20543 22.2021 8.67181V12.3883C22.2021 12.8547 22.3887 13.3036 22.721 13.6301C23.0562 13.9565 23.5051 14.1373 23.9744 14.1285L23.9594 14.1284ZM23.3852 8.68631H23.3823C23.3823 8.36859 23.6388 8.11208 23.9565 8.11208H38.4233C38.5749 8.11208 38.7235 8.17329 38.8314 8.28114C38.9392 8.38899 38.9975 8.53474 38.9975 8.68631V12.4028C38.9975 12.5544 38.9392 12.703 38.8314 12.8109C38.7235 12.9188 38.5749 12.977 38.4233 12.977H23.9744C23.6567 12.977 23.3973 12.7205 23.3973 12.4028L23.3852 8.68631ZM38.9944 20.5003H46.3487L46.3429 20.5032C46.6664 20.5032 46.9258 20.7626 46.9258 21.0862C46.9258 21.4068 46.6664 21.6692 46.3429 21.6692H39.0061C38.6855 21.6692 38.4232 21.4068 38.4232 21.0862C38.4232 20.7626 38.6855 20.5032 39.0061 20.5032L38.9944 20.5003ZM38.9944 25.3886L54.3589 25.3915C54.6795 25.3915 54.9419 25.6538 54.9419 25.9745C54.9419 26.2951 54.6795 26.5574 54.3589 26.5574H39.0064C38.6857 26.5574 38.4234 26.2951 38.4234 25.9745C38.4234 25.6538 38.6857 25.3915 39.0064 25.3915L38.9944 25.3886ZM54.9297 31.163L54.9239 31.1659C54.921 31.4865 54.6616 31.7459 54.3409 31.7489H39.0056C38.6849 31.7489 38.4226 31.4894 38.4226 31.1659C38.4226 30.8452 38.6849 30.5829 39.0056 30.5829H54.3581C54.6729 30.5829 54.9323 30.8365 54.9411 31.1513L54.9297 31.163ZM54.9297 36.3485L54.9239 36.3514C54.921 36.6721 54.6616 36.9315 54.3409 36.9344H39.0056C38.6849 36.9344 38.4226 36.6721 38.4226 36.3514C38.4226 36.0308 38.6849 35.7685 39.0056 35.7685H54.3581C54.6729 35.7714 54.9265 36.0221 54.9411 36.3369L54.9297 36.3485ZM54.9297 41.5341L54.9239 41.537C54.9239 41.8576 54.6645 42.12 54.3409 42.12H39.0056C38.6849 42.12 38.4226 41.8576 38.4226 41.537C38.4226 41.2135 38.6849 40.954 39.0056 40.954H54.3581C54.6729 40.9569 54.9265 41.2076 54.9411 41.5195L54.9297 41.5341ZM31.1383 47.4368H25.224C24.0697 47.4397 23.1369 48.3724 23.134 49.5267V55.4498C23.1369 56.6012 24.0726 57.534 25.224 57.534H31.1383C31.6922 57.534 32.2256 57.3153 32.6162 56.9247C33.0097 56.5341 33.2312 56.0036 33.2312 55.4498V49.5267C33.2312 48.3724 32.2955 47.4368 31.1383 47.4368ZM32.0624 55.4496H32.0653C32.0653 55.6944 31.9662 55.9276 31.7942 56.0996C31.6193 56.2745 31.3832 56.3678 31.1383 56.3678H25.224C24.9792 56.3678 24.7431 56.2745 24.5711 56.0996C24.3962 55.9276 24.3 55.6944 24.3 55.4496V49.5265C24.3 49.0164 24.7139 48.6025 25.224 48.6025H31.1384C31.6514 48.6025 32.0653 49.0164 32.0653 49.5265L32.0624 55.4496ZM36.2306 49.751C36.2277 49.5965 36.2889 49.4478 36.3997 49.3371C36.5075 49.2263 36.6591 49.168 36.8136 49.168H45.8002C46.1208 49.168 46.3832 49.4303 46.3832 49.751C46.3832 50.0745 46.1208 50.334 45.8002 50.334H36.8136C36.6591 50.334 36.5104 50.2728 36.4026 50.1649C36.2918 50.0541 36.2306 49.9055 36.2306 49.751ZM54.8479 52.4881C54.8479 52.8087 54.5855 53.0711 54.2649 53.0711H36.8133C36.4926 53.0711 36.2303 52.8087 36.2303 52.4881C36.2303 52.1674 36.4926 51.9051 36.8133 51.9051H54.288C54.5999 51.9168 54.8479 52.1762 54.8479 52.4881ZM54.8479 55.2252C54.8479 55.3797 54.7896 55.5283 54.6788 55.6391C54.568 55.7499 54.4194 55.8082 54.2649 55.8082H36.8133C36.4926 55.8082 36.2303 55.5458 36.2303 55.2252C36.2303 54.9016 36.4926 54.6422 36.8133 54.6422H54.288C54.5999 54.6539 54.8479 54.9104 54.8479 55.2252Z" fill="url(#paint0_linear_858_2701)"/>
<defs>
<linearGradient id="paint0_linear_858_2701" x1="30.7505" y1="60.8047" x2="30.7505" y2="0.804688" gradientUnits="userSpaceOnUse">
<stop stop-color="#5934DF"/>
<stop offset="1" stop-color="#DB80EB"/>
</linearGradient>
</defs>
</svg>
