<svg width="34" height="49" viewBox="0 0 34 49" fill="none" xmlns="http://www.w3.org/2000/svg">
<g clip-path="url(#clip0_858_2731)">
<path d="M29.0002 48.9248H5.0002C3.72755 48.9235 2.50739 48.4174 1.60749 47.5175C0.707587 46.6176 0.201466 45.3975 0.200195 44.1248V5.7248C0.201466 4.45216 0.707587 3.23199 1.60749 2.3321C2.50739 1.4322 3.72755 0.926075 5.0002 0.924805L29.0002 0.924805C30.2728 0.926075 31.493 1.4322 32.3929 2.3321C33.2928 3.23199 33.7989 4.45216 33.8002 5.7248V44.1248C33.7989 45.3975 33.2928 46.6176 32.3929 47.5175C31.493 48.4174 30.2728 48.9235 29.0002 48.9248ZM5.0002 2.5248C4.1515 2.5248 3.33757 2.86195 2.73745 3.46206C2.13734 4.06218 1.8002 4.87611 1.8002 5.7248V44.1248C1.8002 44.9735 2.13734 45.7874 2.73745 46.3875C3.33757 46.9877 4.1515 47.3248 5.0002 47.3248H29.0002C29.8489 47.3248 30.6628 46.9877 31.2629 46.3875C31.8631 45.7874 32.2002 44.9735 32.2002 44.1248V5.7248C32.2002 4.87611 31.8631 4.06218 31.2629 3.46206C30.6628 2.86195 29.8489 2.5248 29.0002 2.5248H5.0002Z" fill="#8C71FF"/>
<path d="M18.6006 6.5248H15.4006C15.1884 6.5248 14.9849 6.44052 14.8349 6.29049C14.6849 6.14046 14.6006 5.93698 14.6006 5.7248C14.6006 5.51263 14.6849 5.30915 14.8349 5.15912C14.9849 5.00909 15.1884 4.9248 15.4006 4.9248H18.6006C18.8128 4.9248 19.0162 5.00909 19.1663 5.15912C19.3163 5.30915 19.4006 5.51263 19.4006 5.7248C19.4006 5.93698 19.3163 6.14046 19.1663 6.29049C19.0162 6.44052 18.8128 6.5248 18.6006 6.5248Z" fill="#8C71FF"/>
<path d="M17.0002 44.9247C17.442 44.9247 17.8002 44.5665 17.8002 44.1247C17.8002 43.6829 17.442 43.3247 17.0002 43.3247C16.5584 43.3247 16.2002 43.6829 16.2002 44.1247C16.2002 44.5665 16.5584 44.9247 17.0002 44.9247Z" fill="#8C71FF"/>
<path d="M18.6006 29.725H15.4006C15.1884 29.725 14.9849 29.6407 14.8349 29.4907C14.6849 29.3407 14.6006 29.1372 14.6006 28.925C14.6006 28.7128 14.6849 28.5093 14.8349 28.3593C14.9849 28.2093 15.1884 28.125 15.4006 28.125H18.6006C18.8128 28.125 19.0162 28.2093 19.1663 28.3593C19.3163 28.5093 19.4006 28.7128 19.4006 28.925C19.4006 29.1372 19.3163 29.3407 19.1663 29.4907C19.0162 29.6407 18.8128 29.725 18.6006 29.725Z" fill="#8C71FF"/>
<path d="M20.2 32.9247H13.8C13.5878 32.9247 13.3843 32.8404 13.2343 32.6904C13.0843 32.5404 13 32.3369 13 32.1247C13 31.9125 13.0843 31.7091 13.2343 31.559C13.3843 31.409 13.5878 31.3247 13.8 31.3247H20.2C20.4122 31.3247 20.6157 31.409 20.7657 31.559C20.9157 31.7091 21 31.9125 21 32.1247C21 32.3369 20.9157 32.5404 20.7657 32.6904C20.6157 32.8404 20.4122 32.9247 20.2 32.9247Z" fill="#8C71FF"/>
<path d="M19.0002 40.9247H15.0002C14.2576 40.9247 13.5454 40.6297 13.0203 40.1046C12.4952 39.5795 12.2002 38.8673 12.2002 38.1247C12.2002 37.3821 12.4952 36.6699 13.0203 36.1448C13.5454 35.6197 14.2576 35.3247 15.0002 35.3247H19.0002C19.7428 35.3247 20.455 35.6197 20.9801 36.1448C21.5052 36.6699 21.8002 37.3821 21.8002 38.1247C21.8002 38.8673 21.5052 39.5795 20.9801 40.1046C20.455 40.6297 19.7428 40.9247 19.0002 40.9247ZM15.0002 36.9247C14.6819 36.9247 14.3767 37.0511 14.1517 37.2762C13.9266 37.5012 13.8002 37.8064 13.8002 38.1247C13.8002 38.443 13.9266 38.7482 14.1517 38.9732C14.3767 39.1983 14.6819 39.3247 15.0002 39.3247H19.0002C19.3185 39.3247 19.6237 39.1983 19.8487 38.9732C20.0738 38.7482 20.2002 38.443 20.2002 38.1247C20.2002 37.8064 20.0738 37.5012 19.8487 37.2762C19.6237 37.0511 19.3185 36.9247 19.0002 36.9247H15.0002Z" fill="#8C71FF"/>
<path d="M17.0002 26.5248C15.2597 26.5248 13.5583 26.0087 12.1112 25.0417C10.664 24.0748 9.53611 22.7004 8.87006 21.0924C8.20401 19.4844 8.02974 17.715 8.36929 16.008C8.70884 14.301 9.54696 12.733 10.7777 11.5023C12.0084 10.2716 13.5764 9.43345 15.2834 9.0939C16.9904 8.75435 18.7598 8.92862 20.3678 9.59467C21.9758 10.2607 23.3502 11.3886 24.3171 12.8358C25.2841 14.2829 25.8002 15.9843 25.8002 17.7248C25.7974 20.0579 24.8694 22.2946 23.2197 23.9443C21.57 25.594 19.3333 26.5221 17.0002 26.5248ZM17.0002 10.5248C15.5762 10.5248 14.1841 10.9471 13.0001 11.7382C11.8161 12.5294 10.8932 13.6539 10.3483 14.9695C9.80331 16.2851 9.66073 17.7328 9.93854 19.1295C10.2164 20.5261 10.9021 21.809 11.909 22.816C12.916 23.8229 14.1989 24.5087 15.5955 24.7865C16.9922 25.0643 18.4399 24.9217 19.7555 24.3767C21.0711 23.8318 22.1956 22.9089 22.9868 21.7249C23.7779 20.5409 24.2002 19.1488 24.2002 17.7248C24.1979 15.816 23.4386 13.986 22.0888 12.6362C20.739 11.2865 18.909 10.5271 17.0002 10.5248Z" fill="#8C71FF"/>
<path d="M15.3999 20.9248C15.1878 20.9248 14.9843 20.8405 14.8343 20.6904L13.2343 19.0904C13.0886 18.9396 13.008 18.7375 13.0098 18.5277C13.0116 18.318 13.0958 18.1173 13.2441 17.969C13.3924 17.8207 13.5931 17.7365 13.8028 17.7347C14.0126 17.7329 14.2147 17.8135 14.3655 17.9592L15.3999 18.9936L19.6343 14.7592C19.7852 14.6135 19.9873 14.5329 20.1971 14.5347C20.4068 14.5365 20.6075 14.6207 20.7558 14.769C20.9041 14.9173 20.9883 15.118 20.9901 15.3277C20.9919 15.5375 20.9113 15.7396 20.7655 15.8904L15.9655 20.6904C15.8155 20.8405 15.6121 20.9248 15.3999 20.9248Z" fill="#8C71FF"/>
</g>
<defs>
<clipPath id="clip0_858_2731">
<rect width="33.6" height="48" fill="white" transform="translate(0.200195 0.924805)"/>
</clipPath>
</defs>
</svg>
