<svg width="78" height="61" viewBox="0 0 78 61" fill="none" xmlns="http://www.w3.org/2000/svg">
<path d="M59.8424 25.6776C62.3635 25.6776 64.7605 26.2099 66.9257 27.1667V8.91819H50.1269L50.0224 9.17944C49.8264 9.66276 49.5031 10.0579 49.0981 10.3322C48.6932 10.6065 48.2066 10.76 47.6874 10.76H1.75848V46.8164C1.75848 47.966 2.22873 49.0142 2.98307 49.7653C3.74071 50.5229 4.78568 50.9932 5.93854 50.9932H44.0716C42.9221 48.655 42.2755 46.0262 42.2755 43.2438C42.2755 38.3943 44.2415 34.0017 47.4189 30.8248C50.5965 27.6473 54.992 25.6814 59.8379 25.6814L59.8424 25.6776ZM8.73442 47.0151C8.27396 47.0151 7.89841 46.6396 7.89841 46.1791C7.89841 45.7187 8.27396 45.3431 8.73442 45.3431H36.6071C37.0676 45.3431 37.4431 45.7187 37.4431 46.1791C37.4431 46.6396 37.0676 47.0151 36.6071 47.0151H8.73442ZM8.73442 43.7756C8.27396 43.7756 7.89841 43.4 7.89841 42.9396C7.89841 42.4791 8.27396 42.1036 8.73442 42.1036H36.6071C37.0676 42.1036 37.4431 42.4791 37.4431 42.9396C37.4431 43.4 37.0676 43.7756 36.6071 43.7756H8.73442ZM8.73442 40.536C8.27396 40.536 7.89841 40.1605 7.89841 39.7C7.89841 39.2396 8.27396 38.864 8.73442 38.864H36.6071C37.0676 38.864 37.4431 39.2396 37.4431 39.7C37.4431 40.1605 37.0676 40.536 36.6071 40.536H8.73442ZM8.73442 37.2965C8.27396 37.2965 7.89841 36.9209 7.89841 36.4605C7.89841 36 8.27396 35.6245 8.73442 35.6245H36.6071C37.0676 35.6245 37.4431 36 37.4431 36.4605C37.4431 36.9209 37.0676 37.2965 36.6071 37.2965H8.73442ZM8.73442 34.0569C8.27396 34.0569 7.89841 33.6814 7.89841 33.2209C7.89841 32.7605 8.27396 32.3849 8.73442 32.3849H36.6071C37.0676 32.3849 37.4431 32.7605 37.4431 33.2209C37.4431 33.6814 37.0676 34.0569 36.6071 34.0569H8.73442ZM8.73442 30.8174C8.27396 30.8174 7.89841 30.4418 7.89841 29.9814C7.89841 29.5209 8.27396 29.1454 8.73442 29.1454H36.6071C37.0676 29.1454 37.4431 29.5209 37.4431 29.9814C37.4431 30.4418 37.0676 30.8174 36.6071 30.8174H8.73442ZM21.2027 25.9026C21.6632 25.9026 22.0387 26.2781 22.0387 26.7386C22.0387 27.199 21.6632 27.5746 21.2027 27.5746H8.73442C8.27396 27.5746 7.89841 27.199 7.89841 26.7386C7.89841 26.2781 8.27396 25.9026 8.73442 25.9026H21.2027ZM43.4064 16.739H59.9503C60.4107 16.739 60.7863 17.1146 60.7863 17.575V20.3508C60.7863 20.8113 60.4107 21.1869 59.9503 21.1869H43.4064C42.9459 21.1869 42.5704 20.8113 42.5704 20.3508V17.575C42.5704 17.1146 42.9459 16.739 43.4064 16.739ZM59.1143 18.411H44.2424V19.5116H59.1143V18.411ZM8.73442 21.1869C8.27396 21.1869 7.89841 20.8113 7.89841 20.3508C7.89841 19.8904 8.27396 19.5148 8.73442 19.5148H31.4865C31.947 19.5148 32.3225 19.8904 32.3225 20.3508C32.3225 20.8113 31.947 21.1869 31.4865 21.1869H8.73442ZM16.7908 16.1413C17.2513 16.1413 17.6268 16.5169 17.6268 16.9774C17.6268 17.4378 17.2513 17.8134 16.7908 17.8134H8.73442C8.27396 17.8134 7.89841 17.4378 7.89841 16.9774C7.89841 16.5169 8.27396 16.1413 8.73442 16.1413H16.7908ZM18.0906 6.61832C17.6301 6.61832 17.2546 6.24276 17.2546 5.7823C17.2546 5.32185 17.6301 4.94629 18.0906 4.94629H20.2688C20.7293 4.94629 21.1048 5.32185 21.1048 5.7823C21.1048 6.24276 20.7293 6.61832 20.2688 6.61832H18.0906ZM12.3202 6.61832C11.8597 6.61832 11.4842 6.24276 11.4842 5.7823C11.4842 5.32185 11.8597 4.94629 12.3202 4.94629H14.4984C14.9589 4.94629 15.3344 5.32185 15.3344 5.7823C15.3344 6.24276 14.9589 6.61832 14.4984 6.61832H12.3202ZM6.54975 6.61832C6.08929 6.61832 5.71374 6.24276 5.71374 5.7823C5.71374 5.32185 6.08929 4.94629 6.54975 4.94629H8.72799C9.18845 4.94629 9.564 5.32185 9.564 5.7823C9.564 6.24276 9.18845 6.61832 8.72799 6.61832H6.54975ZM66.9258 7.24533V6.66077C66.9258 5.51125 66.4555 4.46298 65.7012 3.7119C64.9436 2.95426 63.8986 2.48396 62.7457 2.48396H52.7236L50.8001 7.24857H66.926L66.9258 7.24533ZM50.9237 2.48072H5.93612C4.7866 2.48072 3.73832 2.95098 2.98725 3.70531C2.22961 4.46295 1.75931 5.50792 1.75931 6.66079V9.08389H47.6882C47.8678 9.08389 48.0344 9.0349 48.165 8.94673C48.2989 8.8553 48.4099 8.7214 48.4752 8.55812C49.2949 6.53338 50.1113 4.50538 50.9278 2.48072H50.9237ZM68.5978 28.0151C69.94 28.789 71.1744 29.7361 72.2619 30.8236C75.4394 34.0011 77.4053 38.3967 77.4053 43.2425C77.4053 48.0954 75.4393 52.4847 72.2619 55.6615C69.0844 58.839 64.6921 60.8049 59.8429 60.8049C54.9938 60.8049 50.6008 58.839 47.4239 55.6615C46.5161 54.7537 45.7095 53.7478 45.0172 52.6604H5.94356C4.33683 52.6604 2.8738 52.004 1.81574 50.9427C0.751164 49.8781 0.0947266 48.4151 0.0947266 46.8083V6.65376C0.0947266 5.04703 0.751131 3.58401 1.81248 2.52595C2.87706 1.46137 4.34009 0.804932 5.94682 0.804932H62.7564C64.3632 0.804932 65.8262 1.46134 66.8843 2.52269C67.9488 3.58727 68.6053 5.05029 68.6053 6.65702V28.0113L68.5978 28.0151ZM62.1775 27.522C64.3818 29.0927 66.2073 31.0946 67.5658 33.3741C69.1758 36.0748 70.1294 39.1706 70.2796 42.4072H75.7105C75.5015 38.3512 73.7707 34.6969 71.0764 32.0063C68.6664 29.5963 65.5546 28.0216 62.1775 27.522ZM75.7109 44.0792H70.2833C70.1527 47.2927 69.2285 50.3689 67.6348 53.0663C66.2796 55.3556 64.4377 57.3737 62.1877 58.9642C65.6363 58.4515 68.7256 56.8349 71.077 54.4804C73.768 51.7894 75.4986 48.1349 75.7109 44.0792ZM57.4916 58.9644C55.2416 57.3708 53.3998 55.3559 52.0445 53.0666C50.4476 50.3724 49.5234 47.2929 49.396 44.0795H43.9685C44.1742 48.0211 45.8299 51.7081 48.6025 54.4803C50.957 56.8348 54.0429 58.4517 57.4916 58.9644ZM43.9683 42.4072H49.3991C49.4481 41.3654 49.5787 40.34 49.7845 39.3439C50.049 38.0736 50.4409 36.8392 50.9438 35.6636C51.1234 35.239 51.6132 35.0431 52.0378 35.2227C52.4623 35.4023 52.6583 35.8922 52.4786 36.3167C52.0149 37.3944 51.659 38.5243 51.4173 39.6836C51.2312 40.5784 51.1136 41.4862 51.0646 42.4071H59.0002V28.5151C58.7063 28.7078 58.4222 28.9103 58.1414 29.1193C57.4752 29.6156 56.8449 30.161 56.2571 30.7456C55.9305 31.0689 55.4015 31.0689 55.0782 30.7423C54.7548 30.4157 54.7548 29.8867 55.0814 29.5633C55.7182 28.9298 56.4072 28.3321 57.1388 27.7836L57.4947 27.5223C54.0429 28.0318 50.9503 29.6515 48.5954 32.0061C45.9044 34.6971 44.1736 38.3513 43.9613 42.4069L43.9683 42.4072ZM60.6752 28.5151V42.4072H68.6108C68.4638 39.4779 67.5952 36.6759 66.1354 34.23C64.7867 31.9669 62.9318 30.0042 60.6753 28.5183L60.6752 28.5151ZM68.6173 44.0792H60.6752V57.9779C62.9775 56.4724 64.852 54.4902 66.1975 52.2173C67.6442 49.7745 68.4867 46.9889 68.6173 44.0825V44.0792ZM59.0032 57.9779V44.0792H51.061C51.1917 46.9857 52.0342 49.7713 53.4809 52.214C54.8263 54.487 56.6976 56.4692 59.0032 57.9747V57.9779Z" fill="black"/>
<path d="M59.8424 25.6776C62.3635 25.6776 64.7605 26.2099 66.9257 27.1667V8.91819H50.1269L50.0224 9.17944C49.8264 9.66276 49.5031 10.0579 49.0981 10.3322C48.6932 10.6065 48.2066 10.76 47.6874 10.76H1.75848V46.8164C1.75848 47.966 2.22873 49.0142 2.98307 49.7653C3.74071 50.5229 4.78568 50.9932 5.93854 50.9932H44.0716C42.9221 48.655 42.2755 46.0262 42.2755 43.2438C42.2755 38.3943 44.2415 34.0017 47.4189 30.8248C50.5965 27.6473 54.992 25.6814 59.8379 25.6814L59.8424 25.6776ZM8.73442 47.0151C8.27396 47.0151 7.89841 46.6396 7.89841 46.1791C7.89841 45.7187 8.27396 45.3431 8.73442 45.3431H36.6071C37.0676 45.3431 37.4431 45.7187 37.4431 46.1791C37.4431 46.6396 37.0676 47.0151 36.6071 47.0151H8.73442ZM8.73442 43.7756C8.27396 43.7756 7.89841 43.4 7.89841 42.9396C7.89841 42.4791 8.27396 42.1036 8.73442 42.1036H36.6071C37.0676 42.1036 37.4431 42.4791 37.4431 42.9396C37.4431 43.4 37.0676 43.7756 36.6071 43.7756H8.73442ZM8.73442 40.536C8.27396 40.536 7.89841 40.1605 7.89841 39.7C7.89841 39.2396 8.27396 38.864 8.73442 38.864H36.6071C37.0676 38.864 37.4431 39.2396 37.4431 39.7C37.4431 40.1605 37.0676 40.536 36.6071 40.536H8.73442ZM8.73442 37.2965C8.27396 37.2965 7.89841 36.9209 7.89841 36.4605C7.89841 36 8.27396 35.6245 8.73442 35.6245H36.6071C37.0676 35.6245 37.4431 36 37.4431 36.4605C37.4431 36.9209 37.0676 37.2965 36.6071 37.2965H8.73442ZM8.73442 34.0569C8.27396 34.0569 7.89841 33.6814 7.89841 33.2209C7.89841 32.7605 8.27396 32.3849 8.73442 32.3849H36.6071C37.0676 32.3849 37.4431 32.7605 37.4431 33.2209C37.4431 33.6814 37.0676 34.0569 36.6071 34.0569H8.73442ZM8.73442 30.8174C8.27396 30.8174 7.89841 30.4418 7.89841 29.9814C7.89841 29.5209 8.27396 29.1454 8.73442 29.1454H36.6071C37.0676 29.1454 37.4431 29.5209 37.4431 29.9814C37.4431 30.4418 37.0676 30.8174 36.6071 30.8174H8.73442ZM21.2027 25.9026C21.6632 25.9026 22.0387 26.2781 22.0387 26.7386C22.0387 27.199 21.6632 27.5746 21.2027 27.5746H8.73442C8.27396 27.5746 7.89841 27.199 7.89841 26.7386C7.89841 26.2781 8.27396 25.9026 8.73442 25.9026H21.2027ZM43.4064 16.739H59.9503C60.4107 16.739 60.7863 17.1146 60.7863 17.575V20.3508C60.7863 20.8113 60.4107 21.1869 59.9503 21.1869H43.4064C42.9459 21.1869 42.5704 20.8113 42.5704 20.3508V17.575C42.5704 17.1146 42.9459 16.739 43.4064 16.739ZM59.1143 18.411H44.2424V19.5116H59.1143V18.411ZM8.73442 21.1869C8.27396 21.1869 7.89841 20.8113 7.89841 20.3508C7.89841 19.8904 8.27396 19.5148 8.73442 19.5148H31.4865C31.947 19.5148 32.3225 19.8904 32.3225 20.3508C32.3225 20.8113 31.947 21.1869 31.4865 21.1869H8.73442ZM16.7908 16.1413C17.2513 16.1413 17.6268 16.5169 17.6268 16.9774C17.6268 17.4378 17.2513 17.8134 16.7908 17.8134H8.73442C8.27396 17.8134 7.89841 17.4378 7.89841 16.9774C7.89841 16.5169 8.27396 16.1413 8.73442 16.1413H16.7908ZM18.0906 6.61832C17.6301 6.61832 17.2546 6.24276 17.2546 5.7823C17.2546 5.32185 17.6301 4.94629 18.0906 4.94629H20.2688C20.7293 4.94629 21.1048 5.32185 21.1048 5.7823C21.1048 6.24276 20.7293 6.61832 20.2688 6.61832H18.0906ZM12.3202 6.61832C11.8597 6.61832 11.4842 6.24276 11.4842 5.7823C11.4842 5.32185 11.8597 4.94629 12.3202 4.94629H14.4984C14.9589 4.94629 15.3344 5.32185 15.3344 5.7823C15.3344 6.24276 14.9589 6.61832 14.4984 6.61832H12.3202ZM6.54975 6.61832C6.08929 6.61832 5.71374 6.24276 5.71374 5.7823C5.71374 5.32185 6.08929 4.94629 6.54975 4.94629H8.72799C9.18845 4.94629 9.564 5.32185 9.564 5.7823C9.564 6.24276 9.18845 6.61832 8.72799 6.61832H6.54975ZM66.9258 7.24533V6.66077C66.9258 5.51125 66.4555 4.46298 65.7012 3.7119C64.9436 2.95426 63.8986 2.48396 62.7457 2.48396H52.7236L50.8001 7.24857H66.926L66.9258 7.24533ZM50.9237 2.48072H5.93612C4.7866 2.48072 3.73832 2.95098 2.98725 3.70531C2.22961 4.46295 1.75931 5.50792 1.75931 6.66079V9.08389H47.6882C47.8678 9.08389 48.0344 9.0349 48.165 8.94673C48.2989 8.8553 48.4099 8.7214 48.4752 8.55812C49.2949 6.53338 50.1113 4.50538 50.9278 2.48072H50.9237ZM68.5978 28.0151C69.94 28.789 71.1744 29.7361 72.2619 30.8236C75.4394 34.0011 77.4053 38.3967 77.4053 43.2425C77.4053 48.0954 75.4393 52.4847 72.2619 55.6615C69.0844 58.839 64.6921 60.8049 59.8429 60.8049C54.9938 60.8049 50.6008 58.839 47.4239 55.6615C46.5161 54.7537 45.7095 53.7478 45.0172 52.6604H5.94356C4.33683 52.6604 2.8738 52.004 1.81574 50.9427C0.751164 49.8781 0.0947266 48.4151 0.0947266 46.8083V6.65376C0.0947266 5.04703 0.751131 3.58401 1.81248 2.52595C2.87706 1.46137 4.34009 0.804932 5.94682 0.804932H62.7564C64.3632 0.804932 65.8262 1.46134 66.8843 2.52269C67.9488 3.58727 68.6053 5.05029 68.6053 6.65702V28.0113L68.5978 28.0151ZM62.1775 27.522C64.3818 29.0927 66.2073 31.0946 67.5658 33.3741C69.1758 36.0748 70.1294 39.1706 70.2796 42.4072H75.7105C75.5015 38.3512 73.7707 34.6969 71.0764 32.0063C68.6664 29.5963 65.5546 28.0216 62.1775 27.522ZM75.7109 44.0792H70.2833C70.1527 47.2927 69.2285 50.3689 67.6348 53.0663C66.2796 55.3556 64.4377 57.3737 62.1877 58.9642C65.6363 58.4515 68.7256 56.8349 71.077 54.4804C73.768 51.7894 75.4986 48.1349 75.7109 44.0792ZM57.4916 58.9644C55.2416 57.3708 53.3998 55.3559 52.0445 53.0666C50.4476 50.3724 49.5234 47.2929 49.396 44.0795H43.9685C44.1742 48.0211 45.8299 51.7081 48.6025 54.4803C50.957 56.8348 54.0429 58.4517 57.4916 58.9644ZM43.9683 42.4072H49.3991C49.4481 41.3654 49.5787 40.34 49.7845 39.3439C50.049 38.0736 50.4409 36.8392 50.9438 35.6636C51.1234 35.239 51.6132 35.0431 52.0378 35.2227C52.4623 35.4023 52.6583 35.8922 52.4786 36.3167C52.0149 37.3944 51.659 38.5243 51.4173 39.6836C51.2312 40.5784 51.1136 41.4862 51.0646 42.4071H59.0002V28.5151C58.7063 28.7078 58.4222 28.9103 58.1414 29.1193C57.4752 29.6156 56.8449 30.161 56.2571 30.7456C55.9305 31.0689 55.4015 31.0689 55.0782 30.7423C54.7548 30.4157 54.7548 29.8867 55.0814 29.5633C55.7182 28.9298 56.4072 28.3321 57.1388 27.7836L57.4947 27.5223C54.0429 28.0318 50.9503 29.6515 48.5954 32.0061C45.9044 34.6971 44.1736 38.3513 43.9613 42.4069L43.9683 42.4072ZM60.6752 28.5151V42.4072H68.6108C68.4638 39.4779 67.5952 36.6759 66.1354 34.23C64.7867 31.9669 62.9318 30.0042 60.6753 28.5183L60.6752 28.5151ZM68.6173 44.0792H60.6752V57.9779C62.9775 56.4724 64.852 54.4902 66.1975 52.2173C67.6442 49.7745 68.4867 46.9889 68.6173 44.0825V44.0792ZM59.0032 57.9779V44.0792H51.061C51.1917 46.9857 52.0342 49.7713 53.4809 52.214C54.8263 54.487 56.6976 56.4692 59.0032 57.9747V57.9779Z" fill="url(#paint0_linear_858_2665)"/>
<defs>
<linearGradient id="paint0_linear_858_2665" x1="38.75" y1="60.8049" x2="38.75" y2="0.804932" gradientUnits="userSpaceOnUse">
<stop stop-color="#5934DF"/>
<stop offset="1" stop-color="#DB80EB"/>
</linearGradient>
</defs>
</svg>
