<svg width="61" height="61" viewBox="0 0 61 61" fill="none" xmlns="http://www.w3.org/2000/svg">
<path d="M56.7954 29.5967H45.8579C43.6779 29.5967 41.902 31.3701 41.902 33.5526V56.849C41.902 59.029 43.6754 60.8049 45.8579 60.8049H56.7954C58.9754 60.8049 60.7513 59.0315 60.7513 56.849V33.55C60.7513 31.37 58.9754 29.5967 56.7954 29.5967ZM45.8579 30.8987H56.7954C58.2571 30.8987 59.4468 32.0885 59.4468 33.5501V54.6072H43.2062V33.5501C43.2062 32.0884 44.3963 30.8987 45.8579 30.8987ZM56.7954 59.5007H45.8579C44.3962 59.5007 43.2065 58.3109 43.2065 56.8493V55.9114H59.447V56.8493C59.447 58.311 58.257 59.5007 56.7954 59.5007ZM53.5129 57.5751C53.5129 57.9343 53.2211 58.2261 52.8619 58.2261H49.794C49.4348 58.2261 49.143 57.9343 49.143 57.5751C49.143 57.216 49.4348 56.9242 49.794 56.9242H52.8619C53.2211 56.9242 53.5129 57.216 53.5129 57.5751ZM34.0822 8.91668C34.0822 8.5575 34.3741 8.26569 34.7332 8.26569H50.6245C50.9837 8.26569 51.2755 8.55752 51.2755 8.91668V23.4383L53.0464 21.6674C53.3008 21.413 53.7149 21.413 53.9693 21.6674C54.2237 21.9218 54.2237 22.3359 53.9693 22.5903L51.0784 25.4811C51.0186 25.541 50.9487 25.5859 50.8739 25.6158C50.7966 25.6482 50.7143 25.6657 50.627 25.6657H50.6245H50.622H50.6195H50.617C50.5297 25.6657 50.4474 25.6482 50.3726 25.6158C50.2952 25.5834 50.2229 25.536 50.1605 25.4736L47.2747 22.5878C47.0203 22.3333 47.0203 21.9193 47.2747 21.6649C47.5291 21.4105 47.9432 21.4105 48.1976 21.6649L49.9685 23.4358L49.9735 9.5674H34.7335C34.3743 9.5674 34.0822 9.27584 34.0822 8.91668ZM31.977 51.9056C31.977 52.2648 31.6852 52.5566 31.326 52.5566L15.4348 52.5591C15.0756 52.5591 14.7838 52.2672 14.7838 51.9081L14.7813 37.3839L13.0104 39.1548C12.7559 39.4092 12.3419 39.4092 12.0875 39.1548C11.8331 38.9004 11.8331 38.4863 12.0875 38.2319L14.9734 35.3461C15.0906 35.2313 15.2502 35.1615 15.4248 35.1615H15.4273C15.6044 35.1615 15.764 35.2338 15.8813 35.3486L18.7671 38.2344C19.0216 38.4889 19.0216 38.9029 18.7671 39.1573C18.5127 39.4117 18.0987 39.4117 17.8443 39.1573L16.0733 37.3864L16.0858 51.2548H31.3258C31.685 51.2548 31.977 51.5464 31.977 51.9056ZM33.0296 27.1597C31.2362 27.1597 29.7796 28.6189 29.7796 30.4097C29.7796 32.2031 31.2388 33.6597 33.0296 33.6597C34.823 33.6597 36.2796 32.2006 36.2796 30.4097C36.2796 28.6188 34.823 27.1597 33.0296 27.1597ZM33.0296 32.3578C31.9571 32.3578 31.084 31.4848 31.084 30.4122C31.084 29.3397 31.9571 28.4667 33.0296 28.4667C34.1022 28.4667 34.9752 29.3397 34.9752 30.4122C34.9752 31.4848 34.1022 32.3578 33.0296 32.3578ZM40.0388 29.3222C40.7347 28.9206 41.0266 28.0876 40.7272 27.3417C40.4304 26.6009 40.0288 25.9075 39.5325 25.2789C39.0361 24.6504 38.1706 24.4833 37.4747 24.8873C37.0855 25.1118 36.6041 25.1118 36.2175 24.8898C35.8284 24.6654 35.5889 24.2488 35.5889 23.7999C35.5889 22.9942 35.0128 22.3282 34.2171 22.2135C33.4364 22.1012 32.6208 22.1012 31.8375 22.2135C31.0418 22.3282 30.4632 22.9942 30.4657 23.7999C30.4657 24.2488 30.2262 24.6654 29.8371 24.8898C29.4505 25.1143 28.9666 25.1143 28.58 24.8873C28.4752 24.8275 28.3655 24.7801 28.2557 24.7452C26.2429 21.1385 22.8581 18.5992 18.9497 17.6389C19.9374 17.1126 20.7954 16.3718 21.4589 15.4788H26.2579C27.6173 15.4788 28.7223 14.3739 28.7223 13.0145V9.25808C28.7223 7.8987 27.6173 6.79371 26.2579 6.79371H24.729C23.0753 3.14204 19.4735 0.804932 15.4325 0.804932C11.3915 0.804932 7.79239 3.13955 6.13602 6.79371L4.60455 6.79122C3.24517 6.79122 2.14018 7.8962 2.14018 9.25559V13.012C2.14018 14.3714 3.24517 15.4763 4.60455 15.4763H6.56755C6.92672 15.4763 7.21853 15.1845 7.21853 14.8254L7.22103 7.57476C8.61285 4.2499 11.823 2.10729 15.4345 2.10729C19.0437 2.10729 22.2541 4.24741 23.6455 7.56978V14.1723H22.2362C22.6852 13.2095 22.9372 12.1394 22.9372 11.0095C22.9372 6.87148 19.5699 3.50415 15.4318 3.50415C11.2962 3.50665 7.92897 6.87142 7.92897 11.0121C7.92897 13.8805 9.54779 16.3773 11.9173 17.6395C5.51217 19.2184 0.748047 25.0101 0.748047 31.8967C0.748047 32.2559 1.03988 32.5477 1.39904 32.5477H25.2497C25.1848 32.8495 25.2073 33.1713 25.3295 33.4805C25.6263 34.2214 26.0279 34.9148 26.5243 35.5433C27.0206 36.1719 27.8861 36.339 28.5821 35.9374C28.9712 35.713 29.4526 35.713 29.8392 35.9349C30.2283 36.1594 30.4678 36.576 30.4678 37.0249C30.4678 37.8306 31.044 38.4966 31.8396 38.6113C32.2312 38.6687 32.6303 38.6961 33.0294 38.6961H33.0319C33.4285 38.6961 33.8276 38.6687 34.2192 38.6113C35.0149 38.4966 35.5935 37.8306 35.591 37.0249C35.591 36.576 35.8305 36.1594 36.2196 35.9349C36.6062 35.7105 37.0901 35.713 37.4768 35.9374C38.1726 36.339 39.0357 36.1744 39.5346 35.5458C40.0309 34.9173 40.4325 34.2239 40.7293 33.483C41.0287 32.7372 40.7368 31.9041 40.0409 31.5026C39.6518 31.2781 39.4099 30.8615 39.4099 30.4126C39.4074 29.9636 39.6497 29.5467 40.0388 29.3222ZM5.91667 14.1717H4.60466C3.96363 14.1717 3.44482 13.6503 3.44482 13.0118V9.25543C3.44482 8.6144 3.96613 8.09559 4.60466 8.09559H5.91417L5.91667 14.1717ZM24.9508 8.09559H26.2603C26.9014 8.09559 27.4202 8.61689 27.4202 9.25543V13.0118C27.4202 13.6528 26.8989 14.1717 26.2603 14.1717H24.9508V8.09559ZM9.2345 11.0114C9.2345 7.59172 12.0157 4.81063 15.4353 4.81063C18.8549 4.81063 21.6361 7.59178 21.6361 11.0114C21.6361 12.1663 21.3168 13.2463 20.7655 14.1741H15.2956C14.9364 14.1741 14.6446 14.466 14.6446 14.8251C14.6446 15.1843 14.9364 15.4761 15.2956 15.4761H19.7304C18.6154 16.5487 17.1039 17.2096 15.4377 17.2096H15.4352H15.4327C12.0155 17.2096 9.2345 14.4285 9.2345 11.0114ZM15.4328 18.5142H15.4353H15.4378C20.1395 18.5142 24.452 20.9636 26.874 24.952C26.7468 25.0417 26.6295 25.149 26.5273 25.2787C26.0309 25.9073 25.6294 26.6007 25.3325 27.3415C25.0332 28.0873 25.325 28.9204 26.0209 29.322C26.41 29.5465 26.652 29.963 26.652 30.412C26.652 30.7238 26.5347 31.0181 26.3327 31.2451L2.07083 31.2426C2.41255 24.1689 8.27402 18.5168 15.4328 18.5142ZM39.3907 28.1919C38.5975 28.6483 38.1062 29.4989 38.1062 30.4118C38.1062 31.3247 38.5975 32.1753 39.3907 32.6318C39.5229 32.7066 39.5753 32.8587 39.5179 32.9984C39.2685 33.622 38.9318 34.2056 38.5127 34.737C38.418 34.8542 38.2633 34.8841 38.1311 34.8093C37.3404 34.3529 36.3577 34.3504 35.567 34.8068C34.7763 35.2633 34.2849 36.1138 34.2874 37.0292C34.2874 37.1814 34.1827 37.3011 34.033 37.3236C33.7038 37.371 33.3645 37.3959 33.0303 37.3959C32.6936 37.3959 32.3569 37.371 32.0276 37.3236C31.878 37.3011 31.7732 37.1814 31.7732 37.0292C31.7757 36.1163 31.2843 35.2633 30.4936 34.8068C30.0995 34.5798 29.6556 34.4651 29.2141 34.4651C28.7701 34.4651 28.3261 34.5798 27.9295 34.8093C27.7998 34.8841 27.6427 34.8542 27.5479 34.737C27.1289 34.2082 26.7921 33.622 26.5427 32.9984C26.4878 32.8587 26.5402 32.7066 26.6699 32.6318C27.4631 32.1753 27.9545 31.3247 27.9545 30.4118C27.9545 29.4989 27.4631 28.6484 26.6699 28.1919C26.5377 28.1171 26.4853 27.9649 26.5427 27.8252C26.7921 27.2017 27.1289 26.6155 27.5479 26.0867C27.6402 25.9694 27.7973 25.9395 27.9295 26.0143C28.7202 26.4708 29.7029 26.4733 30.4936 26.0168C31.2843 25.5604 31.7757 24.7098 31.7732 23.7944C31.7732 23.6423 31.878 23.5225 32.0276 23.5001C32.6886 23.4053 33.3746 23.4053 34.0355 23.5001C34.1852 23.5225 34.2899 23.6423 34.2899 23.7944C34.2874 24.7073 34.7788 25.5604 35.5695 26.0168C36.3602 26.4733 37.3429 26.4733 38.1336 26.0143C38.2633 25.9395 38.4204 25.9694 38.5152 26.0867C38.9343 26.6155 39.271 27.2016 39.5204 27.8252C39.5728 27.9649 39.5204 28.1146 39.3907 28.1919Z" fill="black"/>
<path d="M56.7954 29.5967H45.8579C43.6779 29.5967 41.902 31.3701 41.902 33.5526V56.849C41.902 59.029 43.6754 60.8049 45.8579 60.8049H56.7954C58.9754 60.8049 60.7513 59.0315 60.7513 56.849V33.55C60.7513 31.37 58.9754 29.5967 56.7954 29.5967ZM45.8579 30.8987H56.7954C58.2571 30.8987 59.4468 32.0885 59.4468 33.5501V54.6072H43.2062V33.5501C43.2062 32.0884 44.3963 30.8987 45.8579 30.8987ZM56.7954 59.5007H45.8579C44.3962 59.5007 43.2065 58.3109 43.2065 56.8493V55.9114H59.447V56.8493C59.447 58.311 58.257 59.5007 56.7954 59.5007ZM53.5129 57.5751C53.5129 57.9343 53.2211 58.2261 52.8619 58.2261H49.794C49.4348 58.2261 49.143 57.9343 49.143 57.5751C49.143 57.216 49.4348 56.9242 49.794 56.9242H52.8619C53.2211 56.9242 53.5129 57.216 53.5129 57.5751ZM34.0822 8.91668C34.0822 8.5575 34.3741 8.26569 34.7332 8.26569H50.6245C50.9837 8.26569 51.2755 8.55752 51.2755 8.91668V23.4383L53.0464 21.6674C53.3008 21.413 53.7149 21.413 53.9693 21.6674C54.2237 21.9218 54.2237 22.3359 53.9693 22.5903L51.0784 25.4811C51.0186 25.541 50.9487 25.5859 50.8739 25.6158C50.7966 25.6482 50.7143 25.6657 50.627 25.6657H50.6245H50.622H50.6195H50.617C50.5297 25.6657 50.4474 25.6482 50.3726 25.6158C50.2952 25.5834 50.2229 25.536 50.1605 25.4736L47.2747 22.5878C47.0203 22.3333 47.0203 21.9193 47.2747 21.6649C47.5291 21.4105 47.9432 21.4105 48.1976 21.6649L49.9685 23.4358L49.9735 9.5674H34.7335C34.3743 9.5674 34.0822 9.27584 34.0822 8.91668ZM31.977 51.9056C31.977 52.2648 31.6852 52.5566 31.326 52.5566L15.4348 52.5591C15.0756 52.5591 14.7838 52.2672 14.7838 51.9081L14.7813 37.3839L13.0104 39.1548C12.7559 39.4092 12.3419 39.4092 12.0875 39.1548C11.8331 38.9004 11.8331 38.4863 12.0875 38.2319L14.9734 35.3461C15.0906 35.2313 15.2502 35.1615 15.4248 35.1615H15.4273C15.6044 35.1615 15.764 35.2338 15.8813 35.3486L18.7671 38.2344C19.0216 38.4889 19.0216 38.9029 18.7671 39.1573C18.5127 39.4117 18.0987 39.4117 17.8443 39.1573L16.0733 37.3864L16.0858 51.2548H31.3258C31.685 51.2548 31.977 51.5464 31.977 51.9056ZM33.0296 27.1597C31.2362 27.1597 29.7796 28.6189 29.7796 30.4097C29.7796 32.2031 31.2388 33.6597 33.0296 33.6597C34.823 33.6597 36.2796 32.2006 36.2796 30.4097C36.2796 28.6188 34.823 27.1597 33.0296 27.1597ZM33.0296 32.3578C31.9571 32.3578 31.084 31.4848 31.084 30.4122C31.084 29.3397 31.9571 28.4667 33.0296 28.4667C34.1022 28.4667 34.9752 29.3397 34.9752 30.4122C34.9752 31.4848 34.1022 32.3578 33.0296 32.3578ZM40.0388 29.3222C40.7347 28.9206 41.0266 28.0876 40.7272 27.3417C40.4304 26.6009 40.0288 25.9075 39.5325 25.2789C39.0361 24.6504 38.1706 24.4833 37.4747 24.8873C37.0855 25.1118 36.6041 25.1118 36.2175 24.8898C35.8284 24.6654 35.5889 24.2488 35.5889 23.7999C35.5889 22.9942 35.0128 22.3282 34.2171 22.2135C33.4364 22.1012 32.6208 22.1012 31.8375 22.2135C31.0418 22.3282 30.4632 22.9942 30.4657 23.7999C30.4657 24.2488 30.2262 24.6654 29.8371 24.8898C29.4505 25.1143 28.9666 25.1143 28.58 24.8873C28.4752 24.8275 28.3655 24.7801 28.2557 24.7452C26.2429 21.1385 22.8581 18.5992 18.9497 17.6389C19.9374 17.1126 20.7954 16.3718 21.4589 15.4788H26.2579C27.6173 15.4788 28.7223 14.3739 28.7223 13.0145V9.25808C28.7223 7.8987 27.6173 6.79371 26.2579 6.79371H24.729C23.0753 3.14204 19.4735 0.804932 15.4325 0.804932C11.3915 0.804932 7.79239 3.13955 6.13602 6.79371L4.60455 6.79122C3.24517 6.79122 2.14018 7.8962 2.14018 9.25559V13.012C2.14018 14.3714 3.24517 15.4763 4.60455 15.4763H6.56755C6.92672 15.4763 7.21853 15.1845 7.21853 14.8254L7.22103 7.57476C8.61285 4.2499 11.823 2.10729 15.4345 2.10729C19.0437 2.10729 22.2541 4.24741 23.6455 7.56978V14.1723H22.2362C22.6852 13.2095 22.9372 12.1394 22.9372 11.0095C22.9372 6.87148 19.5699 3.50415 15.4318 3.50415C11.2962 3.50665 7.92897 6.87142 7.92897 11.0121C7.92897 13.8805 9.54779 16.3773 11.9173 17.6395C5.51217 19.2184 0.748047 25.0101 0.748047 31.8967C0.748047 32.2559 1.03988 32.5477 1.39904 32.5477H25.2497C25.1848 32.8495 25.2073 33.1713 25.3295 33.4805C25.6263 34.2214 26.0279 34.9148 26.5243 35.5433C27.0206 36.1719 27.8861 36.339 28.5821 35.9374C28.9712 35.713 29.4526 35.713 29.8392 35.9349C30.2283 36.1594 30.4678 36.576 30.4678 37.0249C30.4678 37.8306 31.044 38.4966 31.8396 38.6113C32.2312 38.6687 32.6303 38.6961 33.0294 38.6961H33.0319C33.4285 38.6961 33.8276 38.6687 34.2192 38.6113C35.0149 38.4966 35.5935 37.8306 35.591 37.0249C35.591 36.576 35.8305 36.1594 36.2196 35.9349C36.6062 35.7105 37.0901 35.713 37.4768 35.9374C38.1726 36.339 39.0357 36.1744 39.5346 35.5458C40.0309 34.9173 40.4325 34.2239 40.7293 33.483C41.0287 32.7372 40.7368 31.9041 40.0409 31.5026C39.6518 31.2781 39.4099 30.8615 39.4099 30.4126C39.4074 29.9636 39.6497 29.5467 40.0388 29.3222ZM5.91667 14.1717H4.60466C3.96363 14.1717 3.44482 13.6503 3.44482 13.0118V9.25543C3.44482 8.6144 3.96613 8.09559 4.60466 8.09559H5.91417L5.91667 14.1717ZM24.9508 8.09559H26.2603C26.9014 8.09559 27.4202 8.61689 27.4202 9.25543V13.0118C27.4202 13.6528 26.8989 14.1717 26.2603 14.1717H24.9508V8.09559ZM9.2345 11.0114C9.2345 7.59172 12.0157 4.81063 15.4353 4.81063C18.8549 4.81063 21.6361 7.59178 21.6361 11.0114C21.6361 12.1663 21.3168 13.2463 20.7655 14.1741H15.2956C14.9364 14.1741 14.6446 14.466 14.6446 14.8251C14.6446 15.1843 14.9364 15.4761 15.2956 15.4761H19.7304C18.6154 16.5487 17.1039 17.2096 15.4377 17.2096H15.4352H15.4327C12.0155 17.2096 9.2345 14.4285 9.2345 11.0114ZM15.4328 18.5142H15.4353H15.4378C20.1395 18.5142 24.452 20.9636 26.874 24.952C26.7468 25.0417 26.6295 25.149 26.5273 25.2787C26.0309 25.9073 25.6294 26.6007 25.3325 27.3415C25.0332 28.0873 25.325 28.9204 26.0209 29.322C26.41 29.5465 26.652 29.963 26.652 30.412C26.652 30.7238 26.5347 31.0181 26.3327 31.2451L2.07083 31.2426C2.41255 24.1689 8.27402 18.5168 15.4328 18.5142ZM39.3907 28.1919C38.5975 28.6483 38.1062 29.4989 38.1062 30.4118C38.1062 31.3247 38.5975 32.1753 39.3907 32.6318C39.5229 32.7066 39.5753 32.8587 39.5179 32.9984C39.2685 33.622 38.9318 34.2056 38.5127 34.737C38.418 34.8542 38.2633 34.8841 38.1311 34.8093C37.3404 34.3529 36.3577 34.3504 35.567 34.8068C34.7763 35.2633 34.2849 36.1138 34.2874 37.0292C34.2874 37.1814 34.1827 37.3011 34.033 37.3236C33.7038 37.371 33.3645 37.3959 33.0303 37.3959C32.6936 37.3959 32.3569 37.371 32.0276 37.3236C31.878 37.3011 31.7732 37.1814 31.7732 37.0292C31.7757 36.1163 31.2843 35.2633 30.4936 34.8068C30.0995 34.5798 29.6556 34.4651 29.2141 34.4651C28.7701 34.4651 28.3261 34.5798 27.9295 34.8093C27.7998 34.8841 27.6427 34.8542 27.5479 34.737C27.1289 34.2082 26.7921 33.622 26.5427 32.9984C26.4878 32.8587 26.5402 32.7066 26.6699 32.6318C27.4631 32.1753 27.9545 31.3247 27.9545 30.4118C27.9545 29.4989 27.4631 28.6484 26.6699 28.1919C26.5377 28.1171 26.4853 27.9649 26.5427 27.8252C26.7921 27.2017 27.1289 26.6155 27.5479 26.0867C27.6402 25.9694 27.7973 25.9395 27.9295 26.0143C28.7202 26.4708 29.7029 26.4733 30.4936 26.0168C31.2843 25.5604 31.7757 24.7098 31.7732 23.7944C31.7732 23.6423 31.878 23.5225 32.0276 23.5001C32.6886 23.4053 33.3746 23.4053 34.0355 23.5001C34.1852 23.5225 34.2899 23.6423 34.2899 23.7944C34.2874 24.7073 34.7788 25.5604 35.5695 26.0168C36.3602 26.4733 37.3429 26.4733 38.1336 26.0143C38.2633 25.9395 38.4204 25.9694 38.5152 26.0867C38.9343 26.6155 39.271 27.2016 39.5204 27.8252C39.5728 27.9649 39.5204 28.1146 39.3907 28.1919Z" fill="url(#paint0_linear_858_2674)"/>
<defs>
<linearGradient id="paint0_linear_858_2674" x1="30.7497" y1="60.8049" x2="30.7497" y2="0.804932" gradientUnits="userSpaceOnUse">
<stop stop-color="#5934DF"/>
<stop offset="1" stop-color="#DB80EB"/>
</linearGradient>
</defs>
</svg>
