<svg width="48" height="42" viewBox="0 0 48 42" fill="none" xmlns="http://www.w3.org/2000/svg">
<g clip-path="url(#clip0_858_2771)">
<path d="M32.2007 35.9098H15.7996C15.5213 35.9098 15.2622 35.761 15.123 35.5193L6.92275 21.3166C6.78356 21.0749 6.78356 20.7773 6.92275 20.5337L15.123 6.33093C15.2622 6.08928 15.5213 5.94043 15.7996 5.94043H32.2007C32.479 5.94043 32.7381 6.08928 32.8773 6.33093L41.0776 20.5337C41.2167 20.7753 41.2167 21.073 41.0776 21.3166L32.8773 35.5193C32.7381 35.761 32.481 35.9098 32.2007 35.9098ZM16.2505 34.3459H31.7483L39.4983 20.9241L31.7483 7.50225L16.2505 7.50419L8.50055 20.926L16.2505 34.3459Z" fill="#8C71FF"/>
<path d="M35.6086 41.8135H12.3915C12.1131 41.8135 11.8541 41.6647 11.7149 41.423L0.106343 21.3163C-0.0328436 21.0746 -0.0328436 20.777 0.106343 20.5334L11.7149 0.426628C11.8541 0.184985 12.1131 0.0361328 12.3915 0.0361328H35.6086C35.887 0.0361328 36.146 0.184985 36.2852 0.426628L47.8938 20.5334C48.033 20.775 48.033 21.0727 47.8938 21.3163L36.2852 41.423C36.146 41.6647 35.887 41.8135 35.6086 41.8135ZM12.8419 40.2496H35.1563L46.3145 20.9258L35.1583 1.60191H12.8419L1.68563 20.9258L12.8419 40.2496Z" fill="#8C71FF"/>
<path d="M32.2005 7.50417C32.0691 7.50417 31.9337 7.47131 31.81 7.39978C31.4369 7.18327 31.3074 6.7058 31.5239 6.33072L34.9321 0.426726C35.1486 0.0536264 35.626 -0.0758801 36.0011 0.140623C36.3742 0.357136 36.5037 0.834603 36.2872 1.20968L32.8791 7.11368C32.7322 7.36305 32.4712 7.50417 32.2005 7.50417Z" fill="#8C71FF"/>
<path d="M47.2171 21.7069H40.4011C39.97 21.7069 39.6182 21.357 39.6182 20.924C39.6182 20.4929 39.9681 20.1411 40.4011 20.1411H47.2171C47.6482 20.1411 48.0001 20.491 48.0001 20.924C47.9981 21.3571 47.6482 21.7069 47.2171 21.7069Z" fill="#8C71FF"/>
<path d="M35.6087 41.8137C35.338 41.8137 35.0751 41.6726 34.9301 41.4233L31.522 35.5193C31.3055 35.1462 31.435 34.6667 31.8081 34.4502C32.1812 34.2337 32.6606 34.3632 32.8771 34.7363L36.2853 40.6403C36.5018 41.0134 36.3723 41.4928 35.9992 41.7094C35.8754 41.7789 35.742 41.8137 35.6087 41.8137Z" fill="#8C71FF"/>
<path d="M12.391 41.8137C12.2595 41.8137 12.1242 41.7809 12.0005 41.7093C11.6274 41.4928 11.4979 41.0154 11.7144 40.6403L15.1225 34.7363C15.339 34.3632 15.8165 34.2337 16.1915 34.4502C16.5646 34.6667 16.6942 35.1442 16.4776 35.5192L13.0695 41.4232C12.9245 41.6746 12.6616 41.8137 12.391 41.8137Z" fill="#8C71FF"/>
<path d="M0.782911 21.7069C0.35182 21.7069 0 21.357 0 20.924C0 20.4929 0.3499 20.1411 0.782911 20.1411H7.59899C8.03008 20.1411 8.3819 20.491 8.3819 20.924C8.3819 21.3551 8.032 21.7069 7.59899 21.7069H0.782911Z" fill="#8C71FF"/>
<path d="M15.802 7.50417C15.5314 7.50417 15.2685 7.36305 15.1235 7.11368L11.7153 1.20968C11.4988 0.836581 11.6283 0.357139 12.0014 0.140626C12.3745 -0.0758867 12.854 0.0536347 13.0705 0.42673L16.4786 6.33073C16.6951 6.70383 16.5656 7.18327 16.1925 7.39978C16.0688 7.46937 15.9335 7.50417 15.802 7.50417Z" fill="#8C71FF"/>
<path d="M23.9997 21.707C23.5686 21.707 23.2168 21.3571 23.2168 20.9241V6.72334C23.2168 6.29225 23.5667 5.94043 23.9997 5.94043C24.4308 5.94043 24.7826 6.29033 24.7826 6.72334V20.9261C24.7826 21.3572 24.4308 21.707 23.9997 21.707Z" fill="#8C71FF"/>
<path d="M24.0013 21.7072C23.7307 21.7072 23.4678 21.5661 23.3228 21.3167C23.1062 20.9436 23.2358 20.4641 23.6089 20.2476L35.9093 13.145C36.2824 12.9285 36.7618 13.058 36.9783 13.4311C37.1948 13.8042 37.0653 14.2837 36.6922 14.5002L24.3918 21.6028C24.2681 21.6743 24.1327 21.7072 24.0013 21.7072Z" fill="#8C71FF"/>
<path d="M36.3007 28.8097C36.1693 28.8097 36.034 28.7769 35.9102 28.7053L23.6098 21.6027C23.2367 21.3862 23.1072 20.9087 23.3237 20.5337C23.5402 20.1606 24.0177 20.0311 24.3928 20.2476L36.6932 27.3502C37.0663 27.5667 37.1958 28.0441 36.9793 28.4192C36.8343 28.6705 36.5714 28.8097 36.3007 28.8097Z" fill="#8C71FF"/>
<path d="M23.9997 35.9097C23.5686 35.9097 23.2168 35.5598 23.2168 35.1267V20.926C23.2168 20.4949 23.5667 20.1431 23.9997 20.1431C24.4308 20.1431 24.7826 20.493 24.7826 20.926V35.1287C24.7826 35.5618 24.4308 35.9097 23.9997 35.9097Z" fill="#8C71FF"/>
<path d="M11.7005 28.8097C11.4299 28.8097 11.167 28.6686 11.022 28.4192C10.8055 28.0461 10.935 27.5667 11.3081 27.3502L23.6085 20.2476C23.9816 20.031 24.461 20.1606 24.6775 20.5337C24.8941 20.9068 24.7645 21.3862 24.3914 21.6027L12.091 28.7053C11.9673 28.7749 11.8339 28.8097 11.7005 28.8097Z" fill="#8C71FF"/>
<path d="M23.998 21.7072C23.8666 21.7072 23.7312 21.6743 23.6075 21.6028L11.3071 14.5002C10.934 14.2837 10.8045 13.8062 11.021 13.4311C11.2375 13.058 11.715 12.9285 12.09 13.145L24.3905 20.2476C24.7636 20.4641 24.8931 20.9416 24.6766 21.3167C24.5335 21.568 24.2706 21.7072 23.998 21.7072Z" fill="#8C71FF"/>
</g>
<defs>
<clipPath id="clip0_858_2771">
<rect width="48" height="41.778" fill="white" transform="translate(0 0.0356445)"/>
</clipPath>
</defs>
</svg>
