<svg width="68" height="61" viewBox="0 0 68 61" fill="none" xmlns="http://www.w3.org/2000/svg">
<path d="M63.5407 26.5703H49.303C47.323 26.573 45.7186 28.1801 45.7159 30.1601V32.6418C45.7186 33.6478 46.1425 34.6056 46.8856 35.2817C46.1425 35.9632 45.7186 36.9237 45.7159 37.9298V40.4115C45.7186 41.4175 46.1425 42.3754 46.883 43.0541C46.1398 43.7329 45.7159 44.6934 45.7159 45.6995V48.1812C45.7186 49.1872 46.1425 50.1477 46.883 50.8238C46.1398 51.5026 45.7132 52.4631 45.7132 53.4692V55.9509C45.7159 57.9308 47.3203 59.5379 49.3003 59.5406H63.5408C65.5208 59.5406 67.1278 57.9336 67.1305 55.9509V53.4692C67.1305 52.4631 66.7066 51.5026 65.9635 50.8238C66.7066 50.1451 67.1305 49.1873 67.1305 48.1812V45.6995C67.1305 44.6934 66.7066 43.7329 65.9635 43.0541C66.7066 42.3754 67.1305 41.4176 67.1305 40.4115V37.9298C67.1305 36.9237 66.7066 35.9632 65.9635 35.2844C66.7066 34.6057 67.1305 33.6479 67.1305 32.6418V30.1601C67.1278 28.1774 65.5234 26.5703 63.5407 26.5703ZM65.239 55.9504C65.2363 56.8867 64.4771 57.646 63.5407 57.6487H49.303C48.3666 57.646 47.6074 56.8867 47.6047 55.9504V53.4687C47.6074 52.5324 48.3666 51.7704 49.303 51.7704H63.5407C64.4771 51.7704 65.2363 52.5324 65.239 53.4687V55.9504ZM63.5407 49.8817H49.2865C48.3582 49.8683 47.6097 49.1144 47.6097 48.1834V45.6991C47.6124 44.7654 48.369 44.0089 49.3026 44.0062H63.5403C64.4766 44.0062 65.2359 44.7655 65.2386 45.7045V48.1862C65.2332 49.1145 64.4847 49.871 63.5565 49.8818L63.5407 49.8817ZM63.5407 42.1124H49.2892C48.3582 42.1017 47.6071 41.3451 47.6044 40.4141V37.9298C47.6071 36.9934 48.3664 36.2342 49.3027 36.2315H63.5405C64.4768 36.2342 65.2361 36.9934 65.2387 37.9298V40.4115C65.2361 41.3424 64.4848 42.099 63.5539 42.1098H63.5378L63.5407 42.1124ZM63.5407 34.3431H49.2782C48.3499 34.3244 47.6095 33.5705 47.6041 32.6448V30.1605C47.6068 29.2241 48.3661 28.4649 49.3024 28.4622H63.5402C64.4765 28.4622 65.2358 29.2241 65.2385 30.1605V32.6422C65.2358 33.5732 64.4846 34.3297 63.5536 34.3405H63.5375L63.5407 34.3431ZM56.4232 22.238C59.2644 22.238 61.9902 21.1085 63.9995 19.099C66.0088 17.0895 67.1385 14.3637 67.1385 11.52C67.1385 8.67879 66.009 5.95294 63.9995 3.94366C61.99 1.93437 59.2642 0.804688 56.4232 0.804688C53.5794 0.804688 50.8535 1.93416 48.8442 3.94366C46.8347 5.95315 45.7052 8.67893 45.7052 11.52C45.7079 14.3611 46.84 17.087 48.8469 19.0963C50.8563 21.1031 53.5822 22.2353 56.4232 22.238ZM56.4232 2.69598C59.9915 2.69598 63.2082 4.84764 64.5737 8.14492C65.9393 11.4422 65.1854 15.2356 62.6608 17.7604C60.1388 20.285 56.3426 21.0388 53.0453 19.6733C49.748 18.3078 47.599 15.0909 47.599 11.5201C47.6044 6.65068 51.5509 2.70147 56.4232 2.69598ZM52.2191 14.106C52.1601 13.8619 52.2004 13.6016 52.3345 13.387C52.466 13.1724 52.6806 13.0194 52.9274 12.9631C53.1716 12.9068 53.4318 12.9524 53.6438 13.0865C53.8584 13.2207 54.0086 13.4353 54.0623 13.6821C54.3842 15.0853 55.8625 15.5413 57.1852 15.3696C57.821 15.3374 58.3898 14.9672 58.6823 14.4011C58.8271 14.0121 58.7359 13.5748 58.4462 13.2743C57.9632 12.7484 57.2818 12.4507 56.5681 12.456C56.0181 12.3889 55.4789 12.2655 54.9557 12.0885L54.9262 12.0777V12.075C53.6142 11.6565 52.7101 10.4492 52.6753 9.07289C52.7396 7.68586 53.6492 6.48392 54.9664 6.0493C55.1542 5.97955 55.3474 5.92321 55.5432 5.8776V4.93322C55.5432 4.41274 55.9671 3.98885 56.4903 3.98885C57.0108 3.98885 57.4347 4.41274 57.4347 4.93322V5.85342C58.8808 6.19415 60.0532 7.25391 60.5361 8.65702C60.7212 9.14798 60.4744 9.6926 59.9861 9.8777C59.4978 10.0628 58.9505 9.81868 58.7654 9.32771C58.5776 8.69187 58.1295 8.16334 57.5312 7.87625C56.9303 7.59187 56.2381 7.57041 55.6237 7.82528C55.0469 7.99698 54.6311 8.50137 54.5693 9.09967C54.5613 9.60137 54.9369 10.0333 55.6237 10.315V10.3177C56.0208 10.4465 56.4313 10.535 56.8499 10.5833C58.0276 10.6369 59.133 11.1735 59.9056 12.0642C60.6327 12.8959 60.842 14.0602 60.4476 15.0932C59.9164 16.3085 58.7601 17.1376 57.4374 17.2449V18.1061C57.4374 18.6292 57.0135 19.0531 56.4903 19.0531C55.9672 19.0531 55.5433 18.6292 55.5433 18.1061V17.1912C53.9148 16.9283 52.6028 15.7104 52.2191 14.106ZM42.7053 34.6192L38.2517 31.2039C37.9137 30.9437 37.4415 30.9437 37.1007 31.2039L32.6498 34.6192C32.4164 34.799 32.2796 35.0753 32.2796 35.3705V59.8569C32.2796 60.3801 32.7035 60.804 33.2266 60.804H42.1285C42.6517 60.804 43.0755 60.3801 43.0755 59.8569V35.3677C43.0729 35.0753 42.9361 34.799 42.7053 34.6192ZM41.1787 58.9155H34.1739V35.8349L37.6777 33.1466L41.1816 35.8349L41.1787 58.9155ZM26.7446 41.4957L22.2936 38.0803V38.083C21.9529 37.8228 21.4807 37.8228 21.1427 38.083L16.6917 41.4984V41.4957C16.4583 41.6754 16.3215 41.9544 16.3215 42.2469V59.8576C16.3215 60.3808 16.7427 60.8047 17.2659 60.8047H26.1677C26.6909 60.8047 27.1148 60.3808 27.1148 59.8576V42.2524C27.1175 41.9546 26.9806 41.6755 26.7446 41.4957ZM25.2234 58.9127H18.213V42.7134L21.7169 40.0251L25.2208 42.7134L25.2234 58.9127ZM10.7844 42.3645L6.33346 38.9518C5.99542 38.6916 5.52322 38.6916 5.18249 38.9518L0.731565 42.3645C0.498156 42.5443 0.361328 42.8206 0.361328 43.1157V59.8569C0.361328 60.3801 0.785226 60.804 1.30838 60.804H10.2102C10.7334 60.804 11.1546 60.3801 11.1546 59.8569V43.1157C11.1546 42.8206 11.0178 42.5443 10.7844 42.3645ZM9.26323 58.9127H2.25287V43.5829L5.75942 40.8946L9.2633 43.5829L9.26323 58.9127ZM20.0992 31.3994L39.2305 18.3286L38.9944 18.951H38.9971C38.9032 19.1871 38.9059 19.45 39.0078 19.6834C39.1124 19.9142 39.3029 20.0966 39.539 20.1851C39.7778 20.2764 40.0407 20.2656 40.2715 20.161C40.5022 20.0537 40.6793 19.8605 40.7651 19.6217L42.069 16.1796C42.1763 15.8979 42.1414 15.5813 41.9777 15.3291C41.8141 15.0769 41.5378 14.916 41.2373 14.8999L37.7281 14.7013C37.4732 14.6799 37.2183 14.7603 37.0252 14.9294C36.832 15.0957 36.7166 15.3345 36.7005 15.5894C36.6871 15.8442 36.7757 16.0937 36.95 16.2842C37.1217 16.472 37.3632 16.582 37.6181 16.5901L38.3585 16.633L28.1016 23.6406C29.6657 21.3333 30.4518 19.195 29.7381 17.0004C29.7301 16.979 29.722 16.9575 29.714 16.9387L29.7059 16.9226L29.7086 16.92C29.6925 16.8851 29.6764 16.8502 29.6577 16.818C27.1008 12.2518 22.7489 9.28703 16.7235 8.00474C16.4096 7.93767 16.0823 8.03425 15.8569 8.2623C15.6289 8.49034 15.5323 8.81765 15.6021 9.13154C17.0776 15.879 20.1629 19.7477 24.78 20.633C24.831 20.6411 24.8846 20.6491 24.9383 20.6491H25.1046C26.0866 20.6759 27.0578 20.4237 27.9029 19.9167C27.3019 21.902 25.3944 24.2173 22.733 27.3082L19.0333 29.8355C18.2311 30.4043 17.2546 30.6753 16.2726 30.6055L5.78011 30.026C5.26231 30.0045 4.82234 30.4043 4.79549 30.9194C4.76598 31.4372 5.15767 31.8825 5.67544 31.9174L16.168 32.4969C16.2994 32.505 16.4309 32.5077 16.5597 32.5077H16.557C17.826 32.513 19.0628 32.1267 20.1011 31.3969L20.0992 31.3994ZM25.1055 18.7579H25.0545C21.5721 18.055 19.1923 15.254 17.8134 10.2152C22.3931 11.4761 25.6609 13.8183 27.7722 17.3409V17.3383C27.2517 18.3041 26.2 18.8622 25.1081 18.7548L25.1055 18.7579Z" fill="black"/>
<path d="M63.5407 26.5703H49.303C47.323 26.573 45.7186 28.1801 45.7159 30.1601V32.6418C45.7186 33.6478 46.1425 34.6056 46.8856 35.2817C46.1425 35.9632 45.7186 36.9237 45.7159 37.9298V40.4115C45.7186 41.4175 46.1425 42.3754 46.883 43.0541C46.1398 43.7329 45.7159 44.6934 45.7159 45.6995V48.1812C45.7186 49.1872 46.1425 50.1477 46.883 50.8238C46.1398 51.5026 45.7132 52.4631 45.7132 53.4692V55.9509C45.7159 57.9308 47.3203 59.5379 49.3003 59.5406H63.5408C65.5208 59.5406 67.1278 57.9336 67.1305 55.9509V53.4692C67.1305 52.4631 66.7066 51.5026 65.9635 50.8238C66.7066 50.1451 67.1305 49.1873 67.1305 48.1812V45.6995C67.1305 44.6934 66.7066 43.7329 65.9635 43.0541C66.7066 42.3754 67.1305 41.4176 67.1305 40.4115V37.9298C67.1305 36.9237 66.7066 35.9632 65.9635 35.2844C66.7066 34.6057 67.1305 33.6479 67.1305 32.6418V30.1601C67.1278 28.1774 65.5234 26.5703 63.5407 26.5703ZM65.239 55.9504C65.2363 56.8867 64.4771 57.646 63.5407 57.6487H49.303C48.3666 57.646 47.6074 56.8867 47.6047 55.9504V53.4687C47.6074 52.5324 48.3666 51.7704 49.303 51.7704H63.5407C64.4771 51.7704 65.2363 52.5324 65.239 53.4687V55.9504ZM63.5407 49.8817H49.2865C48.3582 49.8683 47.6097 49.1144 47.6097 48.1834V45.6991C47.6124 44.7654 48.369 44.0089 49.3026 44.0062H63.5403C64.4766 44.0062 65.2359 44.7655 65.2386 45.7045V48.1862C65.2332 49.1145 64.4847 49.871 63.5565 49.8818L63.5407 49.8817ZM63.5407 42.1124H49.2892C48.3582 42.1017 47.6071 41.3451 47.6044 40.4141V37.9298C47.6071 36.9934 48.3664 36.2342 49.3027 36.2315H63.5405C64.4768 36.2342 65.2361 36.9934 65.2387 37.9298V40.4115C65.2361 41.3424 64.4848 42.099 63.5539 42.1098H63.5378L63.5407 42.1124ZM63.5407 34.3431H49.2782C48.3499 34.3244 47.6095 33.5705 47.6041 32.6448V30.1605C47.6068 29.2241 48.3661 28.4649 49.3024 28.4622H63.5402C64.4765 28.4622 65.2358 29.2241 65.2385 30.1605V32.6422C65.2358 33.5732 64.4846 34.3297 63.5536 34.3405H63.5375L63.5407 34.3431ZM56.4232 22.238C59.2644 22.238 61.9902 21.1085 63.9995 19.099C66.0088 17.0895 67.1385 14.3637 67.1385 11.52C67.1385 8.67879 66.009 5.95294 63.9995 3.94366C61.99 1.93437 59.2642 0.804688 56.4232 0.804688C53.5794 0.804688 50.8535 1.93416 48.8442 3.94366C46.8347 5.95315 45.7052 8.67893 45.7052 11.52C45.7079 14.3611 46.84 17.087 48.8469 19.0963C50.8563 21.1031 53.5822 22.2353 56.4232 22.238ZM56.4232 2.69598C59.9915 2.69598 63.2082 4.84764 64.5737 8.14492C65.9393 11.4422 65.1854 15.2356 62.6608 17.7604C60.1388 20.285 56.3426 21.0388 53.0453 19.6733C49.748 18.3078 47.599 15.0909 47.599 11.5201C47.6044 6.65068 51.5509 2.70147 56.4232 2.69598ZM52.2191 14.106C52.1601 13.8619 52.2004 13.6016 52.3345 13.387C52.466 13.1724 52.6806 13.0194 52.9274 12.9631C53.1716 12.9068 53.4318 12.9524 53.6438 13.0865C53.8584 13.2207 54.0086 13.4353 54.0623 13.6821C54.3842 15.0853 55.8625 15.5413 57.1852 15.3696C57.821 15.3374 58.3898 14.9672 58.6823 14.4011C58.8271 14.0121 58.7359 13.5748 58.4462 13.2743C57.9632 12.7484 57.2818 12.4507 56.5681 12.456C56.0181 12.3889 55.4789 12.2655 54.9557 12.0885L54.9262 12.0777V12.075C53.6142 11.6565 52.7101 10.4492 52.6753 9.07289C52.7396 7.68586 53.6492 6.48392 54.9664 6.0493C55.1542 5.97955 55.3474 5.92321 55.5432 5.8776V4.93322C55.5432 4.41274 55.9671 3.98885 56.4903 3.98885C57.0108 3.98885 57.4347 4.41274 57.4347 4.93322V5.85342C58.8808 6.19415 60.0532 7.25391 60.5361 8.65702C60.7212 9.14798 60.4744 9.6926 59.9861 9.8777C59.4978 10.0628 58.9505 9.81868 58.7654 9.32771C58.5776 8.69187 58.1295 8.16334 57.5312 7.87625C56.9303 7.59187 56.2381 7.57041 55.6237 7.82528C55.0469 7.99698 54.6311 8.50137 54.5693 9.09967C54.5613 9.60137 54.9369 10.0333 55.6237 10.315V10.3177C56.0208 10.4465 56.4313 10.535 56.8499 10.5833C58.0276 10.6369 59.133 11.1735 59.9056 12.0642C60.6327 12.8959 60.842 14.0602 60.4476 15.0932C59.9164 16.3085 58.7601 17.1376 57.4374 17.2449V18.1061C57.4374 18.6292 57.0135 19.0531 56.4903 19.0531C55.9672 19.0531 55.5433 18.6292 55.5433 18.1061V17.1912C53.9148 16.9283 52.6028 15.7104 52.2191 14.106ZM42.7053 34.6192L38.2517 31.2039C37.9137 30.9437 37.4415 30.9437 37.1007 31.2039L32.6498 34.6192C32.4164 34.799 32.2796 35.0753 32.2796 35.3705V59.8569C32.2796 60.3801 32.7035 60.804 33.2266 60.804H42.1285C42.6517 60.804 43.0755 60.3801 43.0755 59.8569V35.3677C43.0729 35.0753 42.9361 34.799 42.7053 34.6192ZM41.1787 58.9155H34.1739V35.8349L37.6777 33.1466L41.1816 35.8349L41.1787 58.9155ZM26.7446 41.4957L22.2936 38.0803V38.083C21.9529 37.8228 21.4807 37.8228 21.1427 38.083L16.6917 41.4984V41.4957C16.4583 41.6754 16.3215 41.9544 16.3215 42.2469V59.8576C16.3215 60.3808 16.7427 60.8047 17.2659 60.8047H26.1677C26.6909 60.8047 27.1148 60.3808 27.1148 59.8576V42.2524C27.1175 41.9546 26.9806 41.6755 26.7446 41.4957ZM25.2234 58.9127H18.213V42.7134L21.7169 40.0251L25.2208 42.7134L25.2234 58.9127ZM10.7844 42.3645L6.33346 38.9518C5.99542 38.6916 5.52322 38.6916 5.18249 38.9518L0.731565 42.3645C0.498156 42.5443 0.361328 42.8206 0.361328 43.1157V59.8569C0.361328 60.3801 0.785226 60.804 1.30838 60.804H10.2102C10.7334 60.804 11.1546 60.3801 11.1546 59.8569V43.1157C11.1546 42.8206 11.0178 42.5443 10.7844 42.3645ZM9.26323 58.9127H2.25287V43.5829L5.75942 40.8946L9.2633 43.5829L9.26323 58.9127ZM20.0992 31.3994L39.2305 18.3286L38.9944 18.951H38.9971C38.9032 19.1871 38.9059 19.45 39.0078 19.6834C39.1124 19.9142 39.3029 20.0966 39.539 20.1851C39.7778 20.2764 40.0407 20.2656 40.2715 20.161C40.5022 20.0537 40.6793 19.8605 40.7651 19.6217L42.069 16.1796C42.1763 15.8979 42.1414 15.5813 41.9777 15.3291C41.8141 15.0769 41.5378 14.916 41.2373 14.8999L37.7281 14.7013C37.4732 14.6799 37.2183 14.7603 37.0252 14.9294C36.832 15.0957 36.7166 15.3345 36.7005 15.5894C36.6871 15.8442 36.7757 16.0937 36.95 16.2842C37.1217 16.472 37.3632 16.582 37.6181 16.5901L38.3585 16.633L28.1016 23.6406C29.6657 21.3333 30.4518 19.195 29.7381 17.0004C29.7301 16.979 29.722 16.9575 29.714 16.9387L29.7059 16.9226L29.7086 16.92C29.6925 16.8851 29.6764 16.8502 29.6577 16.818C27.1008 12.2518 22.7489 9.28703 16.7235 8.00474C16.4096 7.93767 16.0823 8.03425 15.8569 8.2623C15.6289 8.49034 15.5323 8.81765 15.6021 9.13154C17.0776 15.879 20.1629 19.7477 24.78 20.633C24.831 20.6411 24.8846 20.6491 24.9383 20.6491H25.1046C26.0866 20.6759 27.0578 20.4237 27.9029 19.9167C27.3019 21.902 25.3944 24.2173 22.733 27.3082L19.0333 29.8355C18.2311 30.4043 17.2546 30.6753 16.2726 30.6055L5.78011 30.026C5.26231 30.0045 4.82234 30.4043 4.79549 30.9194C4.76598 31.4372 5.15767 31.8825 5.67544 31.9174L16.168 32.4969C16.2994 32.505 16.4309 32.5077 16.5597 32.5077H16.557C17.826 32.513 19.0628 32.1267 20.1011 31.3969L20.0992 31.3994ZM25.1055 18.7579H25.0545C21.5721 18.055 19.1923 15.254 17.8134 10.2152C22.3931 11.4761 25.6609 13.8183 27.7722 17.3409V17.3383C27.2517 18.3041 26.2 18.8622 25.1081 18.7548L25.1055 18.7579Z" fill="url(#paint0_linear_858_2710)"/>
<defs>
<linearGradient id="paint0_linear_858_2710" x1="33.7499" y1="60.8047" x2="33.7499" y2="0.804688" gradientUnits="userSpaceOnUse">
<stop stop-color="#5934DF"/>
<stop offset="1" stop-color="#DB80EB"/>
</linearGradient>
</defs>
</svg>
