<svg width="48" height="49" viewBox="0 0 48 49" fill="none" xmlns="http://www.w3.org/2000/svg">
<g clip-path="url(#clip0_858_2759)">
<path fill-rule="evenodd" clip-rule="evenodd" d="M19.528 47.145C22.0589 47.145 24.5052 46.9006 26.8006 46.4185L26.8003 46.4228C27.2759 46.3183 27.7514 46.6294 27.8514 47.1094C27.9536 47.5894 27.6448 48.0604 27.1648 48.1604C24.7494 48.6671 22.1807 48.9248 19.5276 48.9248C8.57982 48.9248 0.00292969 44.6052 0.00292969 39.0902V9.27075C0.00292969 4.59112 8.57982 0.927027 19.5253 0.924805C30.4754 0.924805 39.05 4.59112 39.05 9.26848V15.2321C39.05 15.7232 38.6523 16.1209 38.1612 16.1209C37.6702 16.1209 37.2724 15.7232 37.2724 15.2321V12.7857C34.2195 15.6565 27.5135 17.6119 19.5253 17.6119C11.5395 17.6119 4.83131 15.6565 1.77826 12.7857V18.2141C1.77826 22.4757 9.41317 26.0865 18.7967 26.2642C19.29 26.2731 19.6788 26.6775 19.6699 27.1686C19.6611 27.6552 19.2655 28.0418 18.7811 28.0418H18.7656C11.1489 27.8976 4.7471 25.5912 1.78074 22.316V28.6511C1.78074 32.9127 9.41564 36.5235 18.7991 36.7012L19.5279 36.7079C20.019 36.7079 20.4167 37.1056 20.4167 37.5967C20.4167 38.0878 20.019 38.4855 19.5279 38.4855L18.7635 38.4788C11.1491 38.3346 4.74511 36.0282 1.78097 32.7529V39.0881C1.78097 43.4543 9.90905 47.145 19.528 47.145ZM37.2751 9.27069C37.2751 6.16429 29.9872 2.70463 19.528 2.70463C9.06888 2.70463 1.78097 6.16434 1.78097 9.27069C1.78097 12.3771 9.06888 15.8368 19.528 15.8368C29.9872 15.8368 37.2751 12.377 37.2751 9.27069ZM47.0964 21.7053C47.3342 21.7187 47.5652 21.7942 47.7341 21.9609H47.7322C47.901 22.1275 47.9966 22.3564 47.9966 22.5942V32.3201C47.9966 36.4265 46.1657 40.2639 42.9793 42.8504L35.7397 48.723C35.5775 48.8541 35.3775 48.9208 35.1798 48.9208C34.982 48.9208 34.782 48.8563 34.6198 48.723L27.3825 42.8504C24.1939 40.2639 22.3653 36.4264 22.3653 32.3201V22.5942C22.3653 22.3564 22.4608 22.1275 22.6297 21.9609C22.7986 21.7942 23.0474 21.7076 23.2652 21.7053C29.6202 21.8098 34.6908 18.9634 34.7397 18.9345C35.0153 18.7789 35.3486 18.7789 35.6219 18.9345C35.6731 18.9634 40.7812 21.8275 47.0964 21.7053ZM41.8613 41.4702C44.6321 39.2239 46.2209 35.8885 46.2209 32.3199H46.2231V23.4785C40.8171 23.3474 36.5375 21.4031 35.1843 20.7143C33.8311 21.4032 29.5494 23.3474 24.1455 23.4785V32.3199C24.1455 35.8885 25.7343 39.2215 28.5073 41.4702L35.1843 46.8874L41.8613 41.4702Z" fill="#8C71FF"/>
</g>
<defs>
<clipPath id="clip0_858_2759">
<rect width="47.9937" height="48" fill="white" transform="translate(0.00292969 0.924805)"/>
</clipPath>
</defs>
</svg>
