<svg width="60" height="61" viewBox="0 0 60 61" fill="none" xmlns="http://www.w3.org/2000/svg">
<path fill-rule="evenodd" clip-rule="evenodd" d="M49.9399 3.16564C49.7108 2.9418 49.4011 2.81946 49.0809 2.83248C48.4224 2.83248 47.8888 3.36606 47.8888 4.0246C47.8888 4.68312 48.4223 5.21673 49.0809 5.21673C49.4089 5.21673 49.7212 5.07617 49.9399 4.83151C50.4006 4.3656 50.4006 3.616 49.9399 3.1527V3.16564ZM11.259 2.99906C11.0403 2.78302 10.7436 2.65809 10.4339 2.65288C9.77793 2.65288 9.24699 3.18387 9.24699 3.83974C9.24699 4.15469 9.37193 4.45922 9.59317 4.68564C9.81701 4.90688 10.1189 5.03182 10.4339 5.03182C10.7514 5.03182 11.0559 4.90688 11.2798 4.68304C11.5036 4.45919 11.6286 4.15466 11.6259 3.83974C11.6259 3.52479 11.5036 3.22286 11.2798 2.99903L11.259 2.99906ZM55.0959 8.32967H55.0985C54.6977 7.93924 54.0808 7.88458 53.6174 8.19953C53.1567 8.51187 52.9798 9.10793 53.1958 9.62327C53.4144 10.1386 53.9636 10.4275 54.5102 10.3182C55.0568 10.2089 55.4499 9.7274 55.4499 9.17036C55.4421 8.85542 55.3093 8.55609 55.0777 8.34265L55.0959 8.32967ZM6.09494 8.32967C5.70451 7.93404 5.08765 7.86896 4.62176 8.17349C4.15325 8.48063 3.96844 9.0715 4.17406 9.58944C4.37969 10.1074 4.92368 10.4094 5.47027 10.3104C6.01947 10.2115 6.42291 9.74038 6.43591 9.18338C6.43591 8.86583 6.30837 8.5639 6.08192 8.34267L6.09494 8.32967ZM32.1623 26.4477C32.7193 26.3202 33.2632 26.1458 33.789 25.9272C34.3174 25.7085 34.8276 25.4456 35.3143 25.1411C35.6423 24.9433 36.0588 24.9667 36.3607 25.201L37.8599 26.2993L39.8589 24.3004L38.7605 22.7543C38.5419 22.455 38.5262 22.0515 38.7189 21.7366C38.7657 21.6637 38.8178 21.583 38.8646 21.4971L38.9167 21.4112L38.9193 21.4086C39.1379 21.0234 39.3331 20.6252 39.5049 20.2165C39.721 19.6881 39.8953 19.1415 40.0255 18.5846C40.1244 18.2097 40.4523 17.9417 40.8376 17.9182L42.6439 17.6319V14.7532L40.7725 14.4591C40.4133 14.407 40.1218 14.1441 40.0333 13.7927C39.9005 13.2357 39.7235 12.6892 39.5049 12.1608C39.3357 11.7521 39.1405 11.3539 38.9193 10.9686C38.8984 10.9374 38.8802 10.9062 38.8672 10.8749L38.7214 10.6355H38.7188C38.5184 10.3075 38.5419 9.89107 38.7787 9.58916L39.8771 8.08992L37.8781 6.09094L36.3528 7.20497V7.20237C36.0535 7.42361 35.65 7.44184 35.3351 7.24402C34.8484 6.94209 34.3382 6.6818 33.8073 6.46315C33.2815 6.24191 32.7375 6.06752 32.1831 5.93738C31.8109 5.83326 31.5454 5.50791 31.5168 5.12526L31.2356 3.32671L28.3309 3.32411L28.0367 5.19035H28.0393C27.9847 5.55215 27.7244 5.84367 27.373 5.93737C26.8212 6.0597 26.2824 6.22369 25.7592 6.42931C25.2309 6.65315 24.7207 6.91604 24.234 7.21537C23.906 7.4184 23.4895 7.39497 23.1876 7.15551L21.6884 6.06233L19.6894 8.06131L20.8086 9.59439C21.0273 9.89372 21.0429 10.2946 20.8477 10.6095C20.7956 10.6902 20.7488 10.7682 20.7019 10.8489C20.6863 10.8802 20.6681 10.9114 20.6473 10.9426C20.4078 11.3331 20.1944 11.7417 20.0096 12.1607C19.7935 12.6891 19.6191 13.2331 19.489 13.7875C19.3849 14.1571 19.0595 14.4252 18.6769 14.4538L16.8705 14.735V17.5876L18.742 17.8818V17.8765C19.1012 17.9312 19.3901 18.1941 19.4812 18.5429C19.614 19.0999 19.7883 19.6464 20.0018 20.1774C20.1736 20.5861 20.3714 20.9843 20.5874 21.3696L20.6395 21.4555C20.6863 21.5361 20.7332 21.622 20.7852 21.6949H20.7878C20.9909 22.0229 20.9674 22.4393 20.728 22.7412L19.6296 24.2405L21.6286 26.2395L23.1539 25.1202C23.4558 24.9016 23.8566 24.886 24.1741 25.0812C24.6765 25.4091 25.2075 25.6929 25.7593 25.9271C26.285 26.1457 26.829 26.3201 27.386 26.4477C27.7556 26.5518 28.0211 26.8771 28.0524 27.2598L28.3335 29.0661H31.1861L31.4803 27.1947L31.4751 27.1921C31.5297 26.8355 31.7926 26.544 32.1414 26.4529L32.1623 26.4477ZM33.547 12.3869H33.5496C35.3455 14.1829 35.6266 16.9992 34.2185 19.1128C32.8103 21.2289 30.1034 22.0541 27.7531 21.0883C25.4027 20.1227 24.0622 17.6318 24.549 15.1383C25.0357 12.6421 27.2169 10.8384 29.7572 10.8279C31.181 10.8253 32.5449 11.3901 33.5496 12.4001L33.547 12.3869ZM29.7572 9.00326C33.18 9.00586 36.1264 11.4265 36.7903 14.7842C37.4566 18.1419 35.6581 21.5021 32.493 22.8114C29.328 24.118 25.6812 23.0092 23.7815 20.1617C21.8814 17.3142 22.2588 13.5192 24.6795 11.101C26.0251 9.75274 27.8519 8.99806 29.7572 9.00326ZM32.1102 42.0777C30.9831 40.9559 29.221 40.7867 27.9014 41.6716C26.5817 42.5566 26.0716 44.251 26.6807 45.719C27.2923 47.187 28.8566 48.0173 30.4132 47.705C31.9722 47.3901 33.0915 46.021 33.0889 44.4306C33.0889 43.5483 32.7401 42.7023 32.1154 42.0777L32.1102 42.0777ZM27.2377 48.9155L26.9253 48.9832C26.7561 49.0222 26.5896 49.0743 26.4256 49.1342C25.2153 49.5975 24.1845 50.4356 23.4869 51.5261C22.7529 52.648 22.3834 53.9676 22.4276 55.3055C22.4406 55.6907 22.5447 56.0655 22.7269 56.4038C22.9143 56.7396 23.1798 57.0259 23.5 57.2367C25.3663 58.4289 27.5448 59.0353 29.7572 58.9832C31.9696 59.0353 34.1482 58.4288 36.0144 57.2367C36.3346 57.0259 36.6001 56.7396 36.7875 56.4038C36.9697 56.0655 37.0738 55.6907 37.0868 55.3055C37.1311 53.9676 36.7615 52.648 36.0275 51.5261C35.3299 50.4356 34.2992 49.5975 33.0889 49.1342C32.9249 49.0743 32.7583 49.0222 32.5891 48.9832L32.2768 48.9155C30.7098 49.7849 28.8046 49.7849 27.2377 48.9155ZM52.3395 42.0777C51.7486 41.3385 50.8715 40.8856 49.9293 40.8309C48.9844 40.7763 48.0604 41.125 47.3889 41.7914C46.7174 42.4577 46.3607 43.3765 46.4076 44.3213C46.4544 45.2662 46.8995 46.1459 47.6335 46.742C48.2243 47.4838 49.1015 47.9367 50.0463 47.9913C50.9912 48.046 51.9126 47.6972 52.5841 47.0309C53.2556 46.3646 53.6148 45.4458 53.5654 44.5009C53.5185 43.5561 53.0735 42.6737 52.3395 42.0777ZM47.467 48.9155L47.1546 48.9832C46.9855 49.0222 46.8189 49.0743 46.6549 49.1342C45.4576 49.6027 44.4399 50.4408 43.7501 51.5261C43.0135 52.6454 42.6439 53.9676 42.6908 55.3055C42.7038 55.6907 42.8053 56.0655 42.9901 56.4038C43.1749 56.7396 43.4352 57.0233 43.7501 57.2367C45.6164 58.4289 47.7949 59.0379 50.0073 58.9832C52.2197 59.0353 54.3983 58.4288 56.2645 57.2367C56.5821 57.0207 56.845 56.737 57.0376 56.4038C57.2198 56.0655 57.3239 55.6907 57.3369 55.3055C57.3812 53.9676 57.0116 52.648 56.2776 51.5261C55.58 50.4356 54.5493 49.5975 53.339 49.1342C53.175 49.0743 53.0084 49.0222 52.8392 48.9832L52.5269 48.9155C50.96 49.7849 49.0547 49.7849 47.4878 48.9155H47.467ZM11.8812 42.0777C10.7568 40.9533 8.99465 40.7789 7.6724 41.6586C6.35014 42.541 5.8348 44.2354 6.44123 45.706C7.05029 47.174 8.61198 48.0095 10.1711 47.6998C11.7302 47.3901 12.852 46.021 12.852 44.4307C12.852 43.5483 12.5032 42.7023 11.8812 42.0777ZM13.6511 47.476C15.1607 48.085 16.4413 49.1496 17.3159 50.5213C18.2477 51.9607 18.7136 53.6525 18.6485 55.3652C18.6225 56.0289 18.4429 56.6744 18.1227 57.2574C17.8 57.8404 17.3419 58.3376 16.7901 58.7098C14.6297 60.1101 12.1024 60.8389 9.52847 60.8024C6.94646 60.8493 4.40869 60.1283 2.2382 58.7306C1.689 58.3532 1.23352 57.856 0.905549 57.2782C0.5854 56.6951 0.40841 56.047 0.387587 55.3859C0.335531 53.6655 0.81966 51.9736 1.77228 50.5421C2.63904 49.1704 3.90659 48.098 5.40322 47.4759C3.90659 45.4353 4.11481 42.6112 5.89776 40.8127C6.63958 40.0708 7.58963 39.5737 8.6229 39.3863V27.0333C8.62811 23.7173 11.3038 21.026 14.6198 20.9973H18.3367C18.3393 20.9661 18.3393 20.9375 18.3367 20.9088C18.1571 20.4742 18.0035 20.0291 17.8786 19.5762L15.8796 19.269V19.2716C15.4033 19.2352 15.0337 18.8396 15.0311 18.3632V17.0904H8.60211C7.45423 17.0826 6.36366 16.6011 5.58286 15.7578C4.789 14.9197 4.34909 13.8082 4.35169 12.6526V12.0331C3.88057 11.9003 3.45368 11.6505 3.10493 11.3069C2.24596 10.448 1.9883 9.15695 2.45422 8.03253C2.92013 6.9107 4.01595 6.17934 5.23146 6.17934C6.44698 6.17934 7.54282 6.91077 8.00611 8.03253C8.47202 9.15695 8.21434 10.448 7.3554 11.3069C7.01704 11.6505 6.59799 11.9056 6.13729 12.0461V12.6682C6.12949 13.358 6.39237 14.0243 6.86872 14.5267C7.3112 14.9978 7.92804 15.2685 8.57618 15.2737H15.0338L15.0312 13.9801C15.0312 13.5324 15.3566 13.1524 15.799 13.0873L17.85 12.7672C17.9776 12.3143 18.1311 11.8692 18.3107 11.4345C18.3133 11.4059 18.3133 11.3773 18.3107 11.3486H13.4929C12.4075 11.3408 11.3768 10.8775 10.6532 10.068C9.91137 9.25331 9.50271 8.19139 9.50791 7.09035V6.69733C8.26114 6.29649 7.41264 5.13559 7.41005 3.82379C7.40744 2.81911 7.90719 1.87686 8.7453 1.31468C9.5808 0.755071 10.6428 0.648352 11.572 1.03357C12.5038 1.41878 13.1806 2.24388 13.3757 3.23038C13.5709 4.21947 13.2612 5.23975 12.548 5.95032C12.207 6.29389 11.788 6.54897 11.3273 6.69734V7.09036C11.3247 7.73587 11.5616 8.36052 11.9936 8.84207C12.3815 9.26633 12.9254 9.5084 13.5007 9.5084H18.4721L17.7641 8.56874C17.4648 8.20695 17.4856 7.676 17.8161 7.34284L20.9343 4.22463H20.937C21.2571 3.9253 21.7464 3.89928 22.0952 4.16476L23.761 5.36468C24.1671 5.13824 24.5862 4.93782 25.013 4.75822C25.4477 4.57602 25.8927 4.42245 26.3457 4.29752L26.658 2.29854H26.6606C26.71 1.84044 27.0979 1.49688 27.5586 1.49948H31.9574C32.4051 1.49948 32.7851 1.82483 32.8554 2.26469L33.1756 4.31571V4.31831C33.6285 4.44585 34.0736 4.59942 34.5082 4.77902C34.9351 4.9482 35.3515 5.14601 35.755 5.36466L37.374 4.16474C37.7332 3.86281 38.2641 3.88623 38.5947 4.21679L41.7129 7.335V7.3376C42.0226 7.65515 42.0591 8.15492 41.7988 8.51667L41.0856 9.54221H46.057C46.6296 9.53961 47.1762 9.30014 47.5614 8.87588C47.9935 8.39435 48.233 7.76965 48.2278 7.12418V6.88992C47.754 6.75458 47.3219 6.50731 46.968 6.16376C46.1064 5.3022 45.8488 4.006 46.3147 2.88157C46.7806 1.75455 47.879 1.02053 49.0971 1.02053C50.3152 1.02053 51.4137 1.75455 51.8822 2.88157C52.3481 4.006 52.0878 5.3022 51.2263 6.16376C50.8853 6.50473 50.4688 6.75981 50.0081 6.90298V7.13724C50.0134 8.23821 49.6047 9.3002 48.8629 10.1149C48.1393 10.9244 47.1086 11.3877 46.0232 11.3955H41.1455C41.1429 11.4242 41.1429 11.4528 41.1455 11.4814C41.3251 11.9161 41.4786 12.3612 41.6062 12.8141L43.6052 13.1212C44.0815 13.1524 44.4511 13.5481 44.4511 14.027V15.3206H50.9087L50.9061 15.318C51.5542 15.3128 52.171 15.0447 52.6135 14.5736C53.0899 14.0712 53.3528 13.4049 53.345 12.7126V12.0931C52.8843 11.9525 52.4652 11.6974 52.1269 11.3539C51.2679 10.4949 51.0102 9.20128 51.4762 8.07946C51.9421 6.95763 53.0379 6.22627 54.2534 6.22627C55.4663 6.22627 56.5621 6.9577 57.028 8.07946C57.494 9.20122 57.2363 10.4949 56.3773 11.3539C56.039 11.6974 55.6199 11.9525 55.1592 12.0931V12.7126C55.1618 13.8682 54.7194 14.9796 53.9255 15.8178C53.1472 16.6611 52.054 17.1426 50.9062 17.1504H44.4564V18.444C44.459 18.8917 44.1336 19.2717 43.6912 19.3368L41.6401 19.6569H41.6375C41.5126 20.1098 41.359 20.5549 41.1794 20.9896C41.1768 21.0182 41.1768 21.0468 41.1794 21.0755H44.8963C48.2123 21.1067 50.888 23.798 50.8932 27.114V39.3658C53.3451 39.8083 55.1254 41.9426 55.1254 44.4309C55.1254 45.5293 54.7689 46.5965 54.113 47.4762C55.62 48.0879 56.9006 49.1524 57.7778 50.5215C58.7121 51.9583 59.1781 53.6527 59.1104 55.3654C59.087 56.0291 58.91 56.6773 58.5898 57.2576C58.2619 57.8381 57.8064 58.3326 57.2572 58.71C55.0682 60.0661 52.5435 60.7819 49.9669 60.7819C47.3927 60.7819 44.868 60.0661 42.6786 58.71C42.1268 58.3378 41.6688 57.8407 41.346 57.2576C41.0258 56.6746 40.8462 56.0291 40.8202 55.3654C40.7551 53.6527 41.2211 51.9609 42.1529 50.5215C43.0404 49.142 44.3392 48.0775 45.8645 47.4762C45.2008 46.5913 44.8416 45.5163 44.8442 44.4101C44.852 41.9269 46.6376 39.8056 49.0817 39.3658V27.0334C49.0791 24.7065 47.1894 22.822 44.8651 22.822H41.0858L41.7521 23.7955C42.0514 24.1573 42.0306 24.6856 41.7 25.0214L38.5948 28.1526C38.2799 28.4701 37.7775 28.5092 37.4209 28.2385L35.7551 26.9995C35.3491 27.2233 34.93 27.4238 34.5032 27.6008C34.0685 27.7804 33.6234 27.9339 33.1705 28.0589L32.8634 30.0578C32.8165 30.5237 32.4261 30.8803 31.9576 30.8855H30.664V39.3659C33.1158 39.8058 34.9014 41.9401 34.9014 44.431C34.8988 45.5294 34.5422 46.5966 33.8837 47.4763C35.3908 48.088 36.6688 49.1525 37.5485 50.5216C38.4777 51.961 38.9437 53.6528 38.8812 55.3655C38.8525 56.0292 38.6729 56.6747 38.3528 57.2577C38.0248 57.8382 37.5693 58.3327 37.0201 58.7101C34.8598 60.1105 32.3324 60.8392 29.7585 60.8028C27.1765 60.8496 24.6387 60.1287 22.4682 58.7309C21.919 58.3535 21.4636 57.8564 21.1356 57.2785C20.8181 56.6955 20.6385 56.0474 20.6098 55.3863C20.5474 53.671 21.0107 51.9818 21.9425 50.5424C22.8248 49.1603 24.1158 48.088 25.6333 47.4763C24.9722 46.5913 24.613 45.5163 24.6156 44.4101C24.6156 41.9192 26.4012 39.7849 28.8531 39.3475V30.8859H27.5595C27.1118 30.8833 26.7318 30.5605 26.6615 30.1181L26.3413 28.0671C25.8884 27.9421 25.4433 27.7885 25.0087 27.6063C24.5792 27.432 24.1602 27.2315 23.7541 27.0077L22.1221 28.1946V28.1919C21.7708 28.4861 21.2554 28.4705 20.9222 28.1529L17.804 25.0217C17.4943 24.7016 17.4578 24.2044 17.7181 23.8426L18.4651 22.8224H14.652C12.3276 22.8224 10.438 24.7068 10.4354 27.0337V39.3661C12.8847 39.8086 14.6676 41.9429 14.6676 44.4313C14.665 45.5296 14.311 46.5968 13.6525 47.4766L13.6511 47.476ZM6.98781 48.8945L6.67547 48.9622C6.50629 49.0038 6.3397 49.0533 6.17573 49.1158C4.96541 49.5765 3.93467 50.4146 3.2371 51.5077C2.50307 52.627 2.13353 53.9466 2.17777 55.2845C2.19079 55.6697 2.2949 56.0471 2.4771 56.3855C2.66971 56.716 2.93259 57.0023 3.25017 57.2184C5.11642 58.4079 7.29497 59.0169 9.50737 58.9623C11.7198 59.0221 13.8957 58.4235 15.7646 57.2366C16.0847 57.0258 16.3502 56.7395 16.5376 56.4037C16.7224 56.0653 16.824 55.6905 16.837 55.3053C16.8838 53.9675 16.5142 52.6452 15.7776 51.526C15.0801 50.4354 14.0493 49.5973 12.839 49.134C12.675 49.0742 12.5085 49.0221 12.3393 48.9831L12.0269 48.9154C10.46 49.7847 8.55477 49.7847 6.98784 48.9154L6.98781 48.8945Z" fill="black"/>
<path fill-rule="evenodd" clip-rule="evenodd" d="M49.9399 3.16564C49.7108 2.9418 49.4011 2.81946 49.0809 2.83248C48.4224 2.83248 47.8888 3.36606 47.8888 4.0246C47.8888 4.68312 48.4223 5.21673 49.0809 5.21673C49.4089 5.21673 49.7212 5.07617 49.9399 4.83151C50.4006 4.3656 50.4006 3.616 49.9399 3.1527V3.16564ZM11.259 2.99906C11.0403 2.78302 10.7436 2.65809 10.4339 2.65288C9.77793 2.65288 9.24699 3.18387 9.24699 3.83974C9.24699 4.15469 9.37193 4.45922 9.59317 4.68564C9.81701 4.90688 10.1189 5.03182 10.4339 5.03182C10.7514 5.03182 11.0559 4.90688 11.2798 4.68304C11.5036 4.45919 11.6286 4.15466 11.6259 3.83974C11.6259 3.52479 11.5036 3.22286 11.2798 2.99903L11.259 2.99906ZM55.0959 8.32967H55.0985C54.6977 7.93924 54.0808 7.88458 53.6174 8.19953C53.1567 8.51187 52.9798 9.10793 53.1958 9.62327C53.4144 10.1386 53.9636 10.4275 54.5102 10.3182C55.0568 10.2089 55.4499 9.7274 55.4499 9.17036C55.4421 8.85542 55.3093 8.55609 55.0777 8.34265L55.0959 8.32967ZM6.09494 8.32967C5.70451 7.93404 5.08765 7.86896 4.62176 8.17349C4.15325 8.48063 3.96844 9.0715 4.17406 9.58944C4.37969 10.1074 4.92368 10.4094 5.47027 10.3104C6.01947 10.2115 6.42291 9.74038 6.43591 9.18338C6.43591 8.86583 6.30837 8.5639 6.08192 8.34267L6.09494 8.32967ZM32.1623 26.4477C32.7193 26.3202 33.2632 26.1458 33.789 25.9272C34.3174 25.7085 34.8276 25.4456 35.3143 25.1411C35.6423 24.9433 36.0588 24.9667 36.3607 25.201L37.8599 26.2993L39.8589 24.3004L38.7605 22.7543C38.5419 22.455 38.5262 22.0515 38.7189 21.7366C38.7657 21.6637 38.8178 21.583 38.8646 21.4971L38.9167 21.4112L38.9193 21.4086C39.1379 21.0234 39.3331 20.6252 39.5049 20.2165C39.721 19.6881 39.8953 19.1415 40.0255 18.5846C40.1244 18.2097 40.4523 17.9417 40.8376 17.9182L42.6439 17.6319V14.7532L40.7725 14.4591C40.4133 14.407 40.1218 14.1441 40.0333 13.7927C39.9005 13.2357 39.7235 12.6892 39.5049 12.1608C39.3357 11.7521 39.1405 11.3539 38.9193 10.9686C38.8984 10.9374 38.8802 10.9062 38.8672 10.8749L38.7214 10.6355H38.7188C38.5184 10.3075 38.5419 9.89107 38.7787 9.58916L39.8771 8.08992L37.8781 6.09094L36.3528 7.20497V7.20237C36.0535 7.42361 35.65 7.44184 35.3351 7.24402C34.8484 6.94209 34.3382 6.6818 33.8073 6.46315C33.2815 6.24191 32.7375 6.06752 32.1831 5.93738C31.8109 5.83326 31.5454 5.50791 31.5168 5.12526L31.2356 3.32671L28.3309 3.32411L28.0367 5.19035H28.0393C27.9847 5.55215 27.7244 5.84367 27.373 5.93737C26.8212 6.0597 26.2824 6.22369 25.7592 6.42931C25.2309 6.65315 24.7207 6.91604 24.234 7.21537C23.906 7.4184 23.4895 7.39497 23.1876 7.15551L21.6884 6.06233L19.6894 8.06131L20.8086 9.59439C21.0273 9.89372 21.0429 10.2946 20.8477 10.6095C20.7956 10.6902 20.7488 10.7682 20.7019 10.8489C20.6863 10.8802 20.6681 10.9114 20.6473 10.9426C20.4078 11.3331 20.1944 11.7417 20.0096 12.1607C19.7935 12.6891 19.6191 13.2331 19.489 13.7875C19.3849 14.1571 19.0595 14.4252 18.6769 14.4538L16.8705 14.735V17.5876L18.742 17.8818V17.8765C19.1012 17.9312 19.3901 18.1941 19.4812 18.5429C19.614 19.0999 19.7883 19.6464 20.0018 20.1774C20.1736 20.5861 20.3714 20.9843 20.5874 21.3696L20.6395 21.4555C20.6863 21.5361 20.7332 21.622 20.7852 21.6949H20.7878C20.9909 22.0229 20.9674 22.4393 20.728 22.7412L19.6296 24.2405L21.6286 26.2395L23.1539 25.1202C23.4558 24.9016 23.8566 24.886 24.1741 25.0812C24.6765 25.4091 25.2075 25.6929 25.7593 25.9271C26.285 26.1457 26.829 26.3201 27.386 26.4477C27.7556 26.5518 28.0211 26.8771 28.0524 27.2598L28.3335 29.0661H31.1861L31.4803 27.1947L31.4751 27.1921C31.5297 26.8355 31.7926 26.544 32.1414 26.4529L32.1623 26.4477ZM33.547 12.3869H33.5496C35.3455 14.1829 35.6266 16.9992 34.2185 19.1128C32.8103 21.2289 30.1034 22.0541 27.7531 21.0883C25.4027 20.1227 24.0622 17.6318 24.549 15.1383C25.0357 12.6421 27.2169 10.8384 29.7572 10.8279C31.181 10.8253 32.5449 11.3901 33.5496 12.4001L33.547 12.3869ZM29.7572 9.00326C33.18 9.00586 36.1264 11.4265 36.7903 14.7842C37.4566 18.1419 35.6581 21.5021 32.493 22.8114C29.328 24.118 25.6812 23.0092 23.7815 20.1617C21.8814 17.3142 22.2588 13.5192 24.6795 11.101C26.0251 9.75274 27.8519 8.99806 29.7572 9.00326ZM32.1102 42.0777C30.9831 40.9559 29.221 40.7867 27.9014 41.6716C26.5817 42.5566 26.0716 44.251 26.6807 45.719C27.2923 47.187 28.8566 48.0173 30.4132 47.705C31.9722 47.3901 33.0915 46.021 33.0889 44.4306C33.0889 43.5483 32.7401 42.7023 32.1154 42.0777L32.1102 42.0777ZM27.2377 48.9155L26.9253 48.9832C26.7561 49.0222 26.5896 49.0743 26.4256 49.1342C25.2153 49.5975 24.1845 50.4356 23.4869 51.5261C22.7529 52.648 22.3834 53.9676 22.4276 55.3055C22.4406 55.6907 22.5447 56.0655 22.7269 56.4038C22.9143 56.7396 23.1798 57.0259 23.5 57.2367C25.3663 58.4289 27.5448 59.0353 29.7572 58.9832C31.9696 59.0353 34.1482 58.4288 36.0144 57.2367C36.3346 57.0259 36.6001 56.7396 36.7875 56.4038C36.9697 56.0655 37.0738 55.6907 37.0868 55.3055C37.1311 53.9676 36.7615 52.648 36.0275 51.5261C35.3299 50.4356 34.2992 49.5975 33.0889 49.1342C32.9249 49.0743 32.7583 49.0222 32.5891 48.9832L32.2768 48.9155C30.7098 49.7849 28.8046 49.7849 27.2377 48.9155ZM52.3395 42.0777C51.7486 41.3385 50.8715 40.8856 49.9293 40.8309C48.9844 40.7763 48.0604 41.125 47.3889 41.7914C46.7174 42.4577 46.3607 43.3765 46.4076 44.3213C46.4544 45.2662 46.8995 46.1459 47.6335 46.742C48.2243 47.4838 49.1015 47.9367 50.0463 47.9913C50.9912 48.046 51.9126 47.6972 52.5841 47.0309C53.2556 46.3646 53.6148 45.4458 53.5654 44.5009C53.5185 43.5561 53.0735 42.6737 52.3395 42.0777ZM47.467 48.9155L47.1546 48.9832C46.9855 49.0222 46.8189 49.0743 46.6549 49.1342C45.4576 49.6027 44.4399 50.4408 43.7501 51.5261C43.0135 52.6454 42.6439 53.9676 42.6908 55.3055C42.7038 55.6907 42.8053 56.0655 42.9901 56.4038C43.1749 56.7396 43.4352 57.0233 43.7501 57.2367C45.6164 58.4289 47.7949 59.0379 50.0073 58.9832C52.2197 59.0353 54.3983 58.4288 56.2645 57.2367C56.5821 57.0207 56.845 56.737 57.0376 56.4038C57.2198 56.0655 57.3239 55.6907 57.3369 55.3055C57.3812 53.9676 57.0116 52.648 56.2776 51.5261C55.58 50.4356 54.5493 49.5975 53.339 49.1342C53.175 49.0743 53.0084 49.0222 52.8392 48.9832L52.5269 48.9155C50.96 49.7849 49.0547 49.7849 47.4878 48.9155H47.467ZM11.8812 42.0777C10.7568 40.9533 8.99465 40.7789 7.6724 41.6586C6.35014 42.541 5.8348 44.2354 6.44123 45.706C7.05029 47.174 8.61198 48.0095 10.1711 47.6998C11.7302 47.3901 12.852 46.021 12.852 44.4307C12.852 43.5483 12.5032 42.7023 11.8812 42.0777ZM13.6511 47.476C15.1607 48.085 16.4413 49.1496 17.3159 50.5213C18.2477 51.9607 18.7136 53.6525 18.6485 55.3652C18.6225 56.0289 18.4429 56.6744 18.1227 57.2574C17.8 57.8404 17.3419 58.3376 16.7901 58.7098C14.6297 60.1101 12.1024 60.8389 9.52847 60.8024C6.94646 60.8493 4.40869 60.1283 2.2382 58.7306C1.689 58.3532 1.23352 57.856 0.905549 57.2782C0.5854 56.6951 0.40841 56.047 0.387587 55.3859C0.335531 53.6655 0.81966 51.9736 1.77228 50.5421C2.63904 49.1704 3.90659 48.098 5.40322 47.4759C3.90659 45.4353 4.11481 42.6112 5.89776 40.8127C6.63958 40.0708 7.58963 39.5737 8.6229 39.3863V27.0333C8.62811 23.7173 11.3038 21.026 14.6198 20.9973H18.3367C18.3393 20.9661 18.3393 20.9375 18.3367 20.9088C18.1571 20.4742 18.0035 20.0291 17.8786 19.5762L15.8796 19.269V19.2716C15.4033 19.2352 15.0337 18.8396 15.0311 18.3632V17.0904H8.60211C7.45423 17.0826 6.36366 16.6011 5.58286 15.7578C4.789 14.9197 4.34909 13.8082 4.35169 12.6526V12.0331C3.88057 11.9003 3.45368 11.6505 3.10493 11.3069C2.24596 10.448 1.9883 9.15695 2.45422 8.03253C2.92013 6.9107 4.01595 6.17934 5.23146 6.17934C6.44698 6.17934 7.54282 6.91077 8.00611 8.03253C8.47202 9.15695 8.21434 10.448 7.3554 11.3069C7.01704 11.6505 6.59799 11.9056 6.13729 12.0461V12.6682C6.12949 13.358 6.39237 14.0243 6.86872 14.5267C7.3112 14.9978 7.92804 15.2685 8.57618 15.2737H15.0338L15.0312 13.9801C15.0312 13.5324 15.3566 13.1524 15.799 13.0873L17.85 12.7672C17.9776 12.3143 18.1311 11.8692 18.3107 11.4345C18.3133 11.4059 18.3133 11.3773 18.3107 11.3486H13.4929C12.4075 11.3408 11.3768 10.8775 10.6532 10.068C9.91137 9.25331 9.50271 8.19139 9.50791 7.09035V6.69733C8.26114 6.29649 7.41264 5.13559 7.41005 3.82379C7.40744 2.81911 7.90719 1.87686 8.7453 1.31468C9.5808 0.755071 10.6428 0.648352 11.572 1.03357C12.5038 1.41878 13.1806 2.24388 13.3757 3.23038C13.5709 4.21947 13.2612 5.23975 12.548 5.95032C12.207 6.29389 11.788 6.54897 11.3273 6.69734V7.09036C11.3247 7.73587 11.5616 8.36052 11.9936 8.84207C12.3815 9.26633 12.9254 9.5084 13.5007 9.5084H18.4721L17.7641 8.56874C17.4648 8.20695 17.4856 7.676 17.8161 7.34284L20.9343 4.22463H20.937C21.2571 3.9253 21.7464 3.89928 22.0952 4.16476L23.761 5.36468C24.1671 5.13824 24.5862 4.93782 25.013 4.75822C25.4477 4.57602 25.8927 4.42245 26.3457 4.29752L26.658 2.29854H26.6606C26.71 1.84044 27.0979 1.49688 27.5586 1.49948H31.9574C32.4051 1.49948 32.7851 1.82483 32.8554 2.26469L33.1756 4.31571V4.31831C33.6285 4.44585 34.0736 4.59942 34.5082 4.77902C34.9351 4.9482 35.3515 5.14601 35.755 5.36466L37.374 4.16474C37.7332 3.86281 38.2641 3.88623 38.5947 4.21679L41.7129 7.335V7.3376C42.0226 7.65515 42.0591 8.15492 41.7988 8.51667L41.0856 9.54221H46.057C46.6296 9.53961 47.1762 9.30014 47.5614 8.87588C47.9935 8.39435 48.233 7.76965 48.2278 7.12418V6.88992C47.754 6.75458 47.3219 6.50731 46.968 6.16376C46.1064 5.3022 45.8488 4.006 46.3147 2.88157C46.7806 1.75455 47.879 1.02053 49.0971 1.02053C50.3152 1.02053 51.4137 1.75455 51.8822 2.88157C52.3481 4.006 52.0878 5.3022 51.2263 6.16376C50.8853 6.50473 50.4688 6.75981 50.0081 6.90298V7.13724C50.0134 8.23821 49.6047 9.3002 48.8629 10.1149C48.1393 10.9244 47.1086 11.3877 46.0232 11.3955H41.1455C41.1429 11.4242 41.1429 11.4528 41.1455 11.4814C41.3251 11.9161 41.4786 12.3612 41.6062 12.8141L43.6052 13.1212C44.0815 13.1524 44.4511 13.5481 44.4511 14.027V15.3206H50.9087L50.9061 15.318C51.5542 15.3128 52.171 15.0447 52.6135 14.5736C53.0899 14.0712 53.3528 13.4049 53.345 12.7126V12.0931C52.8843 11.9525 52.4652 11.6974 52.1269 11.3539C51.2679 10.4949 51.0102 9.20128 51.4762 8.07946C51.9421 6.95763 53.0379 6.22627 54.2534 6.22627C55.4663 6.22627 56.5621 6.9577 57.028 8.07946C57.494 9.20122 57.2363 10.4949 56.3773 11.3539C56.039 11.6974 55.6199 11.9525 55.1592 12.0931V12.7126C55.1618 13.8682 54.7194 14.9796 53.9255 15.8178C53.1472 16.6611 52.054 17.1426 50.9062 17.1504H44.4564V18.444C44.459 18.8917 44.1336 19.2717 43.6912 19.3368L41.6401 19.6569H41.6375C41.5126 20.1098 41.359 20.5549 41.1794 20.9896C41.1768 21.0182 41.1768 21.0468 41.1794 21.0755H44.8963C48.2123 21.1067 50.888 23.798 50.8932 27.114V39.3658C53.3451 39.8083 55.1254 41.9426 55.1254 44.4309C55.1254 45.5293 54.7689 46.5965 54.113 47.4762C55.62 48.0879 56.9006 49.1524 57.7778 50.5215C58.7121 51.9583 59.1781 53.6527 59.1104 55.3654C59.087 56.0291 58.91 56.6773 58.5898 57.2576C58.2619 57.8381 57.8064 58.3326 57.2572 58.71C55.0682 60.0661 52.5435 60.7819 49.9669 60.7819C47.3927 60.7819 44.868 60.0661 42.6786 58.71C42.1268 58.3378 41.6688 57.8407 41.346 57.2576C41.0258 56.6746 40.8462 56.0291 40.8202 55.3654C40.7551 53.6527 41.2211 51.9609 42.1529 50.5215C43.0404 49.142 44.3392 48.0775 45.8645 47.4762C45.2008 46.5913 44.8416 45.5163 44.8442 44.4101C44.852 41.9269 46.6376 39.8056 49.0817 39.3658V27.0334C49.0791 24.7065 47.1894 22.822 44.8651 22.822H41.0858L41.7521 23.7955C42.0514 24.1573 42.0306 24.6856 41.7 25.0214L38.5948 28.1526C38.2799 28.4701 37.7775 28.5092 37.4209 28.2385L35.7551 26.9995C35.3491 27.2233 34.93 27.4238 34.5032 27.6008C34.0685 27.7804 33.6234 27.9339 33.1705 28.0589L32.8634 30.0578C32.8165 30.5237 32.4261 30.8803 31.9576 30.8855H30.664V39.3659C33.1158 39.8058 34.9014 41.9401 34.9014 44.431C34.8988 45.5294 34.5422 46.5966 33.8837 47.4763C35.3908 48.088 36.6688 49.1525 37.5485 50.5216C38.4777 51.961 38.9437 53.6528 38.8812 55.3655C38.8525 56.0292 38.6729 56.6747 38.3528 57.2577C38.0248 57.8382 37.5693 58.3327 37.0201 58.7101C34.8598 60.1105 32.3324 60.8392 29.7585 60.8028C27.1765 60.8496 24.6387 60.1287 22.4682 58.7309C21.919 58.3535 21.4636 57.8564 21.1356 57.2785C20.8181 56.6955 20.6385 56.0474 20.6098 55.3863C20.5474 53.671 21.0107 51.9818 21.9425 50.5424C22.8248 49.1603 24.1158 48.088 25.6333 47.4763C24.9722 46.5913 24.613 45.5163 24.6156 44.4101C24.6156 41.9192 26.4012 39.7849 28.8531 39.3475V30.8859H27.5595C27.1118 30.8833 26.7318 30.5605 26.6615 30.1181L26.3413 28.0671C25.8884 27.9421 25.4433 27.7885 25.0087 27.6063C24.5792 27.432 24.1602 27.2315 23.7541 27.0077L22.1221 28.1946V28.1919C21.7708 28.4861 21.2554 28.4705 20.9222 28.1529L17.804 25.0217C17.4943 24.7016 17.4578 24.2044 17.7181 23.8426L18.4651 22.8224H14.652C12.3276 22.8224 10.438 24.7068 10.4354 27.0337V39.3661C12.8847 39.8086 14.6676 41.9429 14.6676 44.4313C14.665 45.5296 14.311 46.5968 13.6525 47.4766L13.6511 47.476ZM6.98781 48.8945L6.67547 48.9622C6.50629 49.0038 6.3397 49.0533 6.17573 49.1158C4.96541 49.5765 3.93467 50.4146 3.2371 51.5077C2.50307 52.627 2.13353 53.9466 2.17777 55.2845C2.19079 55.6697 2.2949 56.0471 2.4771 56.3855C2.66971 56.716 2.93259 57.0023 3.25017 57.2184C5.11642 58.4079 7.29497 59.0169 9.50737 58.9623C11.7198 59.0221 13.8957 58.4235 15.7646 57.2366C16.0847 57.0258 16.3502 56.7395 16.5376 56.4037C16.7224 56.0653 16.824 55.6905 16.837 55.3053C16.8838 53.9675 16.5142 52.6452 15.7776 51.526C15.0801 50.4354 14.0493 49.5973 12.839 49.134C12.675 49.0742 12.5085 49.0221 12.3393 48.9831L12.0269 48.9154C10.46 49.7847 8.55477 49.7847 6.98784 48.9154L6.98781 48.8945Z" fill="url(#paint0_linear_858_2683)"/>
<defs>
<linearGradient id="paint0_linear_858_2683" x1="29.7503" y1="60.8049" x2="29.7503" y2="0.804932" gradientUnits="userSpaceOnUse">
<stop stop-color="#5934DF"/>
<stop offset="1" stop-color="#DB80EB"/>
</linearGradient>
</defs>
</svg>
