<svg width="61" height="61" viewBox="0 0 61 61" fill="none" xmlns="http://www.w3.org/2000/svg">
<path d="M16.1413 0.805065H3.61959C2.0361 0.805065 0.75 2.09117 0.75 3.67465V14.1095C0.75 15.6929 2.0361 16.979 3.61959 16.979H16.1413C17.7248 16.979 19.0109 15.6929 19.0109 14.1095V3.67465C19.0109 2.09117 17.7248 0.805065 16.1413 0.805065ZM12.2283 2.37032V6.80509C12.2283 6.94857 12.1109 7.06596 11.9674 7.06596H7.79349C7.65002 7.06596 7.53263 6.94857 7.53263 6.80509V2.37032H12.2283ZM17.4457 14.1094C17.4457 14.8294 16.8613 15.4137 16.1413 15.4137H3.61959C2.8996 15.4137 2.31525 14.8294 2.31525 14.1094V3.67459C2.31525 2.9546 2.8996 2.37025 3.61959 2.37025H5.9674V6.80503C5.9674 7.81198 6.78656 8.63113 7.79351 8.63113H11.9674C12.9744 8.63113 13.7935 7.81198 13.7935 6.80503V2.37025H16.1413C16.8613 2.37025 17.4457 2.9546 17.4457 3.67459V14.1094ZM57.8806 0.804932H45.3589C43.7754 0.804932 42.4893 2.09103 42.4893 3.67452V14.1093C42.4893 15.6928 43.7754 16.9789 45.3589 16.9789H57.8806C59.4641 16.9789 60.7502 15.6928 60.7502 14.1093V3.67452C60.7502 2.09103 59.4641 0.804932 57.8806 0.804932ZM53.9675 2.37019V6.80496C53.9675 6.94843 53.8502 7.06583 53.7067 7.06583H49.5328C49.3893 7.06583 49.2719 6.94843 49.2719 6.80496V2.37019H53.9675ZM59.1849 14.1093C59.1849 14.8292 58.6006 15.4136 57.8806 15.4136H45.3589C44.6389 15.4136 44.0545 14.8292 44.0545 14.1093V3.67445C44.0545 2.95447 44.6389 2.37012 45.3589 2.37012H47.7067V6.80489C47.7067 7.81184 48.5258 8.631 49.5328 8.631H53.7067C54.7136 8.631 55.5328 7.81184 55.5328 6.80489V2.37012H57.8806C58.6006 2.37012 59.1849 2.95447 59.1849 3.67445V14.1093ZM16.1415 44.631H3.61972C2.03624 44.631 0.750133 45.9171 0.750133 47.5006V57.9354C0.750133 59.5188 2.03624 60.8049 3.61972 60.8049H16.1415C17.725 60.8049 19.0111 59.5188 19.0111 57.9354V47.5006C19.0111 45.9171 17.725 44.631 16.1415 44.631ZM12.2284 46.1962V50.631C12.2284 50.7745 12.111 50.8919 11.9675 50.8919H7.79363C7.65015 50.8919 7.53276 50.7745 7.53276 50.631V46.1962H12.2284ZM17.4458 57.9353C17.4458 58.6553 16.8615 59.2396 16.1415 59.2396H3.61972C2.89974 59.2396 2.31539 58.6553 2.31539 57.9353V47.5005C2.31539 46.7805 2.89974 46.1962 3.61972 46.1962H5.96753V50.6309C5.96753 51.6379 6.78669 52.457 7.79364 52.457H11.9676C12.9745 52.457 13.7937 51.6379 13.7937 50.6309V46.1962H16.1415C16.8615 46.1962 17.4458 46.7805 17.4458 47.5005V57.9353ZM57.8807 44.6308H45.359C43.7755 44.6308 42.4894 45.9169 42.4894 47.5004V57.9352C42.4894 59.5187 43.7755 60.8048 45.359 60.8048H57.8807C59.4642 60.8048 60.7503 59.5187 60.7503 57.9352V47.5004C60.7503 45.9169 59.4642 44.6308 57.8807 44.6308ZM53.9677 46.1961V50.6309C53.9677 50.7743 53.8503 50.8917 53.7068 50.8917H49.5329C49.3894 50.8917 49.272 50.7743 49.272 50.6309V46.1961H53.9677ZM59.1851 57.9352C59.1851 58.6551 58.6007 59.2395 57.8807 59.2395H45.359C44.639 59.2395 44.0547 58.6551 44.0547 57.9352V47.5004C44.0547 46.7804 44.639 46.196 45.359 46.196H47.7068V50.6308C47.7068 51.6377 48.526 52.4569 49.5329 52.4569H53.7068C54.7138 52.4569 55.5329 51.6377 55.5329 50.6308V46.196H57.8807C58.6007 46.196 59.1851 46.7804 59.1851 47.5004V57.9352ZM24.4895 9.67394C24.0564 9.67394 23.7068 9.32438 23.7068 8.89132C23.7068 8.45826 24.0564 8.10869 24.4895 8.10869H35.1226L32.2843 5.27043C31.9791 4.96521 31.9791 4.46957 32.2843 4.16437C32.5895 3.85917 33.0852 3.85915 33.3904 4.16437L36.826 7.60001C37.5382 8.31218 37.5382 9.47046 36.826 10.1826L33.3904 13.6183C33.2365 13.7722 33.0382 13.8478 32.8373 13.8478C32.6365 13.8478 32.4356 13.7722 32.2843 13.6183C31.9791 13.313 31.9791 12.8174 32.2843 12.5122L35.1226 9.67394H24.4895ZM53.4458 24.5438V35.1769L56.284 32.3387C56.5893 32.0334 57.0849 32.0334 57.3901 32.3387C57.6953 32.6439 57.6953 33.1395 57.3901 33.4447L53.9545 36.8804C53.6101 37.2247 53.151 37.4151 52.6631 37.4151C52.1753 37.4151 51.7162 37.2247 51.3718 36.8804L47.9362 33.4447C47.631 33.1395 47.631 32.6439 47.9362 32.3387C48.2414 32.0335 48.7371 32.0334 49.0423 32.3387L51.8805 35.1769V24.5438C51.8805 24.1107 52.2301 23.7612 52.6631 23.7612C53.0962 23.7612 53.4458 24.1107 53.4458 24.5438ZM37.7932 52.7181C37.7932 53.1511 37.4437 53.5007 37.0106 53.5007H26.3775L29.2157 56.339C29.5209 56.6442 29.5209 57.1398 29.2157 57.445C29.0618 57.5989 28.8636 57.6746 28.6627 57.6746C28.4618 57.6746 28.261 57.5989 28.1097 57.445L24.674 54.0094C23.9618 53.2972 23.9618 52.1389 24.674 51.4268L28.1097 47.9911C28.4149 47.6859 28.9105 47.6859 29.2157 47.9911C29.5209 48.2963 29.5209 48.792 29.2157 49.0972L26.3774 51.9355H37.0106C37.4436 51.9355 37.7932 52.285 37.7932 52.7181ZM8.05423 37.0655V26.4324L5.21596 29.2707C4.91074 29.5759 4.4151 29.5759 4.10991 29.2707C3.80471 28.9655 3.80469 28.4698 4.10991 28.1646L7.54554 24.729C8.23688 24.0376 9.43943 24.0403 10.1282 24.729L13.5638 28.1646C13.869 28.4698 13.869 28.9655 13.5638 29.2707C13.4099 29.4246 13.2116 29.5002 13.0108 29.5002C12.8099 29.5002 12.609 29.4246 12.4577 29.2707L9.61945 26.4324V37.0655C9.61945 37.4986 9.26989 37.8482 8.83683 37.8482C8.40377 37.8482 8.05423 37.4986 8.05423 37.0655Z" fill="url(#paint0_linear_858_2692)"/>
<defs>
<linearGradient id="paint0_linear_858_2692" x1="30.7502" y1="60.8049" x2="30.7502" y2="0.804932" gradientUnits="userSpaceOnUse">
<stop stop-color="#5934DF"/>
<stop offset="1" stop-color="#DB80EB"/>
</linearGradient>
</defs>
</svg>
