<svg width="37" height="36" viewBox="0 0 37 36" fill="none" xmlns="http://www.w3.org/2000/svg">
<path d="M17.2473 8.35826V1.25217C17.2473 0.560348 17.8077 0 18.4995 0C19.1913 0 19.7517 0.560348 19.7517 1.25217V8.35826C19.7517 9.05009 19.1913 9.61043 18.4995 9.61043C17.8077 9.61043 17.2473 9.05009 17.2473 8.35826ZM10.1099 18C10.1099 17.3082 9.5496 16.7478 8.85777 16.7478H1.75169C1.05986 16.7478 0.499512 17.3082 0.499512 18C0.499512 18.6918 1.05986 19.2522 1.75169 19.2522H8.85777C9.5496 19.2522 10.1099 18.6918 10.1099 18ZM16.6213 7.11313V2.772C9.63725 3.636 4.13551 9.13774 3.27151 16.1217H7.61186C8.40856 11.5161 12.0156 7.90983 16.6205 7.11313H16.6213ZM24.8019 6.44557L26.4007 4.8467C24.5616 3.7393 22.5096 3.03261 20.3786 2.77278V7.11313C21.9688 7.38548 23.4785 8.0053 24.8026 8.92722V6.44557H24.8019ZM27.5731 11.6984C28.495 13.0218 29.1148 14.5323 29.3872 16.1225H33.7275C33.4677 13.9915 32.761 11.9387 31.6528 10.1003L30.0539 11.6992H27.5723L27.5731 11.6984ZM19.4801 15.2499C19.1655 15.138 18.8345 15.0809 18.5003 15.0801C16.8881 15.0801 15.5804 16.387 15.5796 17.9992C15.5796 19.6114 16.8866 20.9191 18.4987 20.9199C20.1109 20.9199 21.4186 19.613 21.4194 18.0008C21.4194 17.6666 21.3623 17.3356 21.2504 17.0202L19.3846 18.8859C18.8986 19.3578 18.1254 19.3578 17.6402 18.8859C17.144 18.4038 17.1323 17.611 17.6144 17.1157L19.4801 15.2499ZM26.054 6.96443V9.56113L18.0573 17.5578C17.8155 17.8051 17.8202 18.2011 18.0675 18.443C18.3109 18.6809 18.6999 18.6809 18.9433 18.443L26.9399 10.4463H29.5366L36.5003 3.48261H33.0185V0L26.0548 6.96365L26.054 6.96443ZM7.61264 19.8783H3.27151C4.13473 26.8623 9.63725 32.364 16.6213 33.228V28.8877C12.0156 28.091 8.40934 24.4839 7.61264 19.8783ZM33.7275 19.8783H29.3872C29.3316 20.1991 29.2627 20.5145 29.1813 20.8244C30.6386 20.7595 32.0864 21.085 33.3746 21.7683C33.5319 21.1461 33.6493 20.5153 33.7275 19.8783ZM35.2473 16.7478H28.1413C27.4494 16.7478 26.8891 17.3082 26.8891 18C26.8891 18.6918 27.4494 19.2522 28.1413 19.2522H35.2473C35.9392 19.2522 36.4995 18.6918 36.4995 18C36.4995 17.3082 35.9392 16.7478 35.2473 16.7478ZM36.4995 29.034C36.4995 32.8805 33.3808 35.9992 29.5343 35.9992C25.6878 35.9992 22.5691 32.8813 22.5691 29.0348C22.5691 25.1883 25.6878 22.0696 29.5343 22.0696C33.3808 22.0696 36.4995 25.1875 36.4995 29.034ZM33.7901 26.0593C33.5499 25.8104 33.1539 25.8034 32.905 26.0437C32.8995 26.0483 32.8948 26.0538 32.8893 26.0593L28.2673 30.6814L26.1777 28.5918C25.9335 28.3469 25.5367 28.3469 25.2918 28.5918C25.0468 28.836 25.0468 29.2328 25.2918 29.4777L27.8243 32.0103C28.0685 32.2544 28.4653 32.2544 28.7094 32.0103L33.7745 26.9452C34.0233 26.705 34.0304 26.309 33.7901 26.0601V26.0593ZM18.4995 26.3896C17.8077 26.3896 17.2473 26.9499 17.2473 27.6417V34.7478C17.2473 35.4397 17.8077 36 18.4995 36C19.1913 36 19.7517 35.4397 19.7517 34.7478V27.6417C19.7517 26.9499 19.1913 26.3896 18.4995 26.3896ZM21.3239 28.681C21.0133 28.7632 20.6979 28.8321 20.3778 28.8869V33.2272C21.0148 33.1497 21.6456 33.0316 22.2678 32.8743C21.5853 31.5853 21.259 30.1375 21.3239 28.6803V28.681Z" fill="white"/>
</svg>
