<svg width="36" height="36" viewBox="0 0 36 36" fill="none" xmlns="http://www.w3.org/2000/svg">
<path d="M35.2894 14.9064H32.5521C32.3509 14.9064 32.179 14.7722 32.1329 14.5752C31.7808 13.1206 31.2065 11.7289 30.4268 10.4546C30.3052 10.2827 30.3262 10.048 30.4729 9.89707L32.4095 7.96041C32.6862 7.68374 32.6862 7.23521 32.4095 6.95436L29.0393 3.58407C28.7626 3.30741 28.3099 3.30741 28.0332 3.58407L26.0965 5.52073C25.954 5.66325 25.736 5.6884 25.5684 5.5836C24.294 4.80391 22.9065 4.22543 21.4561 3.87331C21.2465 3.83978 21.0914 3.65953 21.0914 3.44574V0.70843C21.0914 0.318584 20.7728 0 20.383 0H15.6168C15.227 0 14.9084 0.318584 14.9084 0.70843V3.44574C14.9084 3.64695 14.7742 3.81882 14.5772 3.86493C13.1226 4.21705 11.7309 4.79134 10.4566 5.57103C10.2847 5.69259 10.05 5.67164 9.89906 5.52492L7.9624 3.58826C7.68574 3.3116 7.23721 3.3116 6.95635 3.58826L3.58607 6.95855C3.3094 7.23521 3.3094 7.68374 3.58607 7.9646L5.52272 9.90126C5.66525 10.0438 5.6904 10.2618 5.5856 10.4294C4.80591 11.7038 4.22743 13.0913 3.87531 14.5417C3.84177 14.7513 3.66152 14.9064 3.44773 14.9064H0.706233C0.316387 14.9064 -0.00219727 15.225 -0.00219727 15.6148V20.381C-0.00219727 20.7708 0.316387 21.0894 0.706233 21.0894H3.44354C3.64056 21.0894 3.81662 21.2236 3.86273 21.4206C4.21485 22.8752 4.78914 24.2669 5.56883 25.5412C5.6904 25.7131 5.66944 25.9478 5.52272 26.0987L3.58607 28.0354C3.3094 28.3121 3.3094 28.7648 3.58607 29.0415L6.95635 32.4117C7.23302 32.6884 7.68155 32.6884 7.9624 32.4117L9.89906 30.4751C10.0416 30.3326 10.2596 30.3074 10.4272 30.4122C10.8925 30.6973 11.3704 30.953 11.8651 31.1793C12.1753 31.326 12.4897 31.456 12.804 31.5776V30.7727C12.737 30.7182 12.6699 30.6595 12.607 30.6008C12.213 30.2068 11.9908 29.6744 11.9908 29.1169C11.9908 26.2119 11.0896 25.1011 10.1841 23.986C9.34154 22.9506 8.49897 21.911 8.24745 19.7019H11.2321C11.404 20.3726 11.9279 20.8966 12.5986 21.0685C13.6131 21.3284 14.6443 20.7163 14.9042 19.7019H17.478V22.6823C17.478 22.9422 17.6876 23.1476 17.9433 23.1476C18.4589 23.1602 18.8739 23.5752 18.8823 24.0866C18.8949 24.619 18.4715 25.055 17.9433 25.0675C17.6876 25.0675 17.478 25.2771 17.478 25.5328V31.2087H14.091C13.9484 31.2087 13.8059 31.1961 13.6676 31.1667V32.089C13.6676 32.6758 14.1455 33.1537 14.7323 33.1537H21.2381C21.825 33.1537 22.3029 32.6758 22.3029 32.089V31.1667C22.1645 31.1961 22.022 31.2087 21.8795 31.2087H18.4128V25.9395C19.0835 25.7676 19.6117 25.2436 19.7794 24.5729C20.0393 23.5585 19.423 22.5272 18.4128 22.2673V19.6935H20.9866C21.1585 20.3642 21.6825 20.8924 22.3532 21.0601C23.3676 21.32 24.3988 20.7038 24.6587 19.6935H27.7272C27.4757 21.9027 26.6331 22.9381 25.7905 23.9776C24.8851 25.0927 23.9838 26.2035 23.9838 29.1085C23.9838 29.666 23.7617 30.1984 23.3676 30.5925C23.3047 30.6553 23.2419 30.7098 23.1706 30.7643V31.5776C23.4934 31.456 23.812 31.3218 24.1264 31.1751C24.6126 30.9488 25.0905 30.6931 25.5474 30.4164C25.7193 30.2948 25.954 30.3158 26.1049 30.4625L28.0416 32.3992C28.3183 32.6758 28.771 32.6758 29.0476 32.3992L32.4179 29.0289C32.6946 28.7522 32.6946 28.2995 32.4179 28.0228L30.4813 26.0862C30.3387 25.9436 30.3136 25.7257 30.4184 25.558C31.1981 24.2837 31.7766 22.8961 32.1287 21.4457C32.1622 21.2361 32.3425 21.081 32.5563 21.081H35.2936C35.6834 21.081 36.002 20.7625 36.002 20.3726V15.6064C36.002 15.2124 35.6834 14.898 35.2936 14.8938L35.2894 14.9064ZM17.478 18.7755H14.4976C14.2419 18.7755 14.0323 18.9851 14.0323 19.2408C14.0197 19.7564 13.6047 20.1714 13.0933 20.1798C12.5609 20.1924 12.125 19.769 12.1124 19.2408C12.1124 18.9809 11.9028 18.7755 11.6471 18.7755H8.25584C8.23069 18.7755 8.20973 18.7755 8.18458 18.7797C8.18038 18.6162 8.17619 18.4443 8.17619 18.2683C8.17619 13.0452 12.2675 8.73591 17.4822 8.46344V12.5254C16.8073 12.6973 16.2833 13.2212 16.1115 13.8961C15.8557 14.9106 16.4678 15.9418 17.4822 16.1975V18.7713L17.478 18.7755ZM27.7523 18.7755H24.2521C23.9922 18.7755 23.7868 18.9851 23.7868 19.2408C23.7868 19.2534 23.7868 19.266 23.7868 19.2827C23.7742 19.8151 23.3383 20.2343 22.8059 20.2217C22.2735 20.2091 21.8543 19.7732 21.8669 19.2408C21.8669 18.9809 21.6573 18.7755 21.4016 18.7755H18.417V15.7951C18.417 15.5352 18.2074 15.3298 17.9517 15.3298C17.4193 15.3298 16.9917 14.898 16.9917 14.3698C16.9917 13.8374 17.4235 13.4099 17.9517 13.4099C18.2116 13.4099 18.417 13.2003 18.417 12.9446V8.47182C23.6652 8.69818 27.8068 13.02 27.8068 18.2767C27.8068 18.4527 27.8068 18.6204 27.7985 18.7839C27.7859 18.7839 27.7691 18.7839 27.7565 18.7839L27.7523 18.7755ZM14.9084 34.034H21.0956V35.2916C21.0956 35.6814 20.777 36 20.3872 36H15.621C15.2312 36 14.9126 35.6814 14.9126 35.2916V34.034H14.9084Z" fill="white"/>
</svg>
