<svg width="37" height="38" viewBox="0 0 37 38" fill="none" xmlns="http://www.w3.org/2000/svg">
<path d="M9.56778 17.8217L4.23504 25.9751C3.86939 26.5212 3.14285 26.6779 2.58726 26.3408L0.830256 25.2391C0.797015 25.2201 0.820759 25.2391 0.811261 25.2296C0.293658 24.8924 0.141701 24.1991 0.469358 23.672L0.478855 23.653L5.81159 15.4949C6.17724 14.9535 6.90378 14.7921 7.45938 15.134L9.21638 16.2356C9.24487 16.2546 9.22113 16.2404 9.23537 16.2499C9.75298 16.587 9.90493 17.2803 9.57728 17.8027L9.56303 17.8217H9.56778ZM9.79097 27.0436C9.30185 26.7349 8.65129 26.8774 8.33788 27.3665L7.41189 28.8148C7.41189 28.8148 7.38815 28.8528 7.3739 28.8718L6.71859 29.9023C6.40518 30.3914 6.54763 31.0419 7.03675 31.3554C7.53061 31.664 8.17642 31.5216 8.49458 31.0324L10.1139 28.4919C10.4225 27.9981 10.2801 27.3522 9.79097 27.0388V27.0436ZM10.0806 12.0996L7.79178 11.7862V10.7177V9.64926L10.0901 9.33585C10.3276 9.30261 10.5175 9.12216 10.565 8.88948C10.7692 7.99673 11.1253 7.15147 11.6097 6.37744C11.7332 6.18275 11.7237 5.92632 11.586 5.74587L10.1851 3.89864L11.6952 2.38857L13.5424 3.78943C13.7371 3.94138 14.003 3.94138 14.2025 3.80367C14.9717 3.32406 15.817 2.97266 16.705 2.77321C16.9329 2.72098 17.1039 2.53103 17.1371 2.29835L17.4363 0H18.5047H19.5732L19.8866 2.29835C19.9198 2.53578 20.1003 2.72098 20.333 2.76846C21.2257 2.97266 22.071 3.32881 22.845 3.81317C23.0397 3.93663 23.2914 3.92714 23.4766 3.78943L25.3238 2.38857L26.8339 3.89864L25.433 5.74587C25.2858 5.94057 25.2811 6.20649 25.4235 6.40593C25.9031 7.17521 26.2545 8.02522 26.454 8.90847C26.5062 9.13641 26.6914 9.30736 26.9241 9.3406L29.213 9.65401V11.7862L26.9146 12.0996C26.6772 12.1328 26.4872 12.3133 26.4397 12.5459C26.2356 13.4387 25.8794 14.2839 25.395 15.058C25.2716 15.2527 25.2858 15.5044 25.4235 15.6896L26.1928 16.701C26.1928 16.701 26.1833 16.7295 26.1833 16.7437C26.1548 16.8815 26.1358 17.0239 26.1311 17.1664C24.9819 17.5748 24.0274 17.4418 22.6836 17.2566C22.0187 17.1616 21.2685 17.0572 20.3662 16.9954C18.1486 16.834 16.7382 17.9926 15.5701 19.517C14.7771 19.1038 14.0173 18.7857 13.286 18.477C12.455 18.1494 11.6477 17.7695 10.8689 17.3373C10.8784 17.1331 10.8689 16.9242 10.8214 16.7248V16.701L11.5765 15.6943C11.7237 15.4996 11.7284 15.2337 11.586 15.0342C11.1063 14.265 10.7549 13.4197 10.5555 12.5317C10.5033 12.3038 10.3133 12.1328 10.0806 12.0996ZM14.0837 13.6666C15.4941 15.7798 18.1961 16.5965 20.5419 15.6278C22.8878 14.6543 24.2174 12.166 23.7235 9.67301C23.2297 7.18471 21.0453 5.38972 18.5095 5.38972C17.0991 5.38972 15.7458 5.95006 14.7486 6.94728C12.9536 8.74227 12.6781 11.5535 14.0885 13.6619L14.0837 13.6666ZM19.3263 14.8348C21.2922 14.4454 22.7073 12.7169 22.7073 10.713C22.7073 9.60178 22.2657 8.52858 21.4774 7.74505C20.0623 6.32995 17.8399 6.10677 16.1732 7.2227C14.5064 8.33389 13.8558 10.4708 14.6251 12.3228C15.3944 14.1747 17.3603 15.2242 19.3263 14.8348ZM17.9444 32.2434C17.4553 31.9347 16.8047 32.0772 16.4913 32.5663L15.7553 33.7202L14.8673 35.1068C14.5586 35.6007 14.7011 36.2465 15.1902 36.5599C15.684 36.8685 16.3299 36.7261 16.648 36.237L18.2673 33.6964C18.576 33.2073 18.4335 32.5568 17.9444 32.2434ZM26.4872 18.42C26.454 18.3678 26.4255 18.3156 26.397 18.2586C25.0674 18.7097 24.0132 18.5625 22.5458 18.3583C21.9048 18.2681 21.1782 18.1683 20.3045 18.1019C17.8352 17.9214 16.4866 20.0346 15.1712 22.1002C14.6441 22.9692 14.0553 23.8002 13.4094 24.5838C13.4522 24.6788 13.5139 24.769 13.5946 24.845C14.6583 25.9087 15.5273 25.4243 16.3251 24.6265C16.5863 24.3606 16.8712 24.0377 17.1514 23.7148C18.0584 22.6748 18.9369 21.6634 20.0908 21.7203C20.4042 21.7583 20.7081 21.877 20.974 22.0527C21.297 22.2522 21.6009 22.4849 21.881 22.7413C22.3227 23.1402 22.8308 23.4631 23.3816 23.6958C23.4054 23.7053 23.4291 23.7148 23.4528 23.729C23.8185 23.8857 24.1889 24.0092 24.5735 24.1089C25.4758 24.3938 26.4397 24.4176 27.3562 24.1849C27.6459 24.0757 27.9688 24.2181 28.078 24.5078C28.1872 24.7975 28.0448 25.1204 27.7551 25.2296C27.1853 25.4195 26.5822 25.4908 25.9791 25.448L29.854 28.093C30.2102 27.8556 30.5473 27.5897 30.8607 27.3048C31.1599 27.0341 31.4733 26.7872 31.8057 26.5545L26.5205 18.4675L26.4967 18.4295L26.4872 18.42ZM13.1483 27.9078L13.1388 27.8983C12.6402 27.5944 11.9896 27.7369 11.6619 28.2212L8.9837 32.3526L8.9742 32.3621C8.67978 32.8322 8.80799 33.4495 9.26861 33.7629C9.28761 33.7724 9.3066 33.7867 9.3256 33.8009C9.81946 34.0811 10.4558 33.9339 10.7692 33.459L10.8072 33.3973L13.5614 29.076C13.6991 28.6344 13.5282 28.1548 13.1388 27.9031L13.1483 27.9078ZM36.5354 23.7005L36.5259 23.6815L31.1979 15.5281C30.8322 14.9867 30.1057 14.8253 29.5454 15.1672L27.7884 16.2689L27.7694 16.2784C27.2518 16.6155 27.0998 17.3088 27.4275 17.8359L27.437 17.8549L32.7649 26.0131C33.1306 26.5545 33.8571 26.7159 34.4127 26.374L36.1697 25.2723L36.1887 25.2581C36.7063 24.9209 36.8583 24.2276 36.5306 23.7053L36.5354 23.7005ZM29.7543 29.3752L29.7353 29.3657C29.7353 29.3657 29.7116 29.3514 29.7021 29.3419L22.9115 24.7025C22.2514 24.4223 21.6436 24.0329 21.1118 23.5486C20.8886 23.3444 20.6464 23.1592 20.39 23.0025C20.2807 22.9265 20.162 22.8648 20.0338 22.8268C19.4212 22.7935 18.7184 23.6056 17.9919 24.4413C17.7117 24.7642 17.4315 25.0871 17.1134 25.4053C15.8835 26.6352 14.5396 27.3617 12.8064 25.6332C12.5784 25.4148 12.4122 25.1394 12.3172 24.8355C12.2175 24.503 12.2983 24.1469 12.5309 23.8905C13.1625 23.1402 13.7323 22.3472 14.2357 21.5067C14.4636 21.1458 14.6963 20.7849 14.9338 20.4335C14.2405 20.0821 13.5424 19.7876 12.8681 19.5075C12.0703 19.1893 11.2868 18.8284 10.527 18.42C10.527 18.42 10.527 18.42 10.5175 18.439L5.18952 26.5972L5.16103 26.6399C5.55042 26.8964 5.86858 27.1148 6.1535 27.3095C6.38143 27.471 6.58562 27.6134 6.78982 27.7606L7.41664 26.7824C8.04821 25.7947 9.34934 25.4908 10.3561 26.0891C10.394 26.1081 10.4273 26.1271 10.4558 26.1508C10.7977 26.3835 11.0684 26.7112 11.2298 27.0911C11.9421 26.5402 12.9203 26.4785 13.6991 26.9391C13.7276 26.9534 13.7561 26.9723 13.7846 26.9961C14.193 27.2668 14.4921 27.6657 14.6393 28.1263C15.2994 27.8414 16.0592 27.9031 16.667 28.2877C17.5645 28.8623 17.9112 30.0067 17.4838 30.985C17.8399 31.004 18.1913 31.1037 18.5 31.2889C18.538 31.3079 18.5712 31.3269 18.5997 31.3506C19.5684 32.0107 19.8391 33.3213 19.2123 34.309L18.0109 36.1942L20.4042 37.7186C20.4042 37.7186 20.4374 37.7375 20.4564 37.7518C20.7604 37.9465 21.126 38.032 21.4916 37.9892C21.7813 37.9607 22.0377 37.804 22.2039 37.5666C22.3512 37.3149 22.3844 37.0158 22.2847 36.7403C22.1755 36.4032 21.9523 36.1183 21.6578 35.9236C21.6578 35.9236 21.6246 35.9046 21.6104 35.8951L21.5771 35.8713L20.4754 35.1685C20.2143 35.0023 20.1383 34.6604 20.3045 34.3992C20.4707 34.1428 20.8126 34.0668 21.0738 34.2283L22.1755 34.9311C22.1755 34.9311 22.2087 34.9501 22.2277 34.9643C22.2277 34.9643 22.2467 34.9786 22.2609 34.9881L23.0729 35.5057C23.3816 35.7099 23.752 35.7953 24.1177 35.7526C24.4073 35.7241 24.6685 35.5674 24.83 35.33C24.9772 35.083 25.0104 34.7791 24.9154 34.5085C24.8015 34.1618 24.5688 33.8626 24.2554 33.668H24.2506L22.0472 32.2624C21.919 32.1864 21.8241 32.0582 21.7908 31.9157C21.7576 31.7685 21.7813 31.6165 21.862 31.4883C21.9428 31.3601 22.071 31.2746 22.2182 31.2414C22.3654 31.2081 22.5174 31.2414 22.6408 31.3269L25.6087 33.2216H25.6182L25.6325 33.2311C25.9411 33.4353 26.3115 33.5207 26.6772 33.478C26.9478 33.4495 27.1995 33.3071 27.3657 33.0886C27.3752 33.0744 27.3847 33.0601 27.3895 33.0459C27.5414 32.8084 27.5937 32.514 27.5177 32.2339C27.4322 31.9442 27.247 31.6973 26.9953 31.5311L23.5288 29.2992C23.2676 29.133 23.1964 28.7863 23.3579 28.5299C23.5241 28.2735 23.8707 28.1975 24.1271 28.3637L28.5434 31.2034H28.5529C28.8568 31.4076 29.2225 31.4931 29.5834 31.4503C29.873 31.4218 30.1342 31.2699 30.2956 31.0277L30.3004 31.0182C30.4429 30.7713 30.4713 30.4721 30.3811 30.1967C30.2719 29.8595 30.0535 29.5746 29.7543 29.3847V29.3752ZM15.5463 31.9727L16.3773 30.6763C16.6813 30.2014 16.553 29.5699 16.0924 29.2422C16.0687 29.228 16.0449 29.2137 16.0259 29.1995C15.5511 28.924 14.9433 29.057 14.6251 29.5081C14.6108 29.5319 14.5966 29.5604 14.5776 29.5841C14.5301 29.7028 14.4731 29.8168 14.4019 29.9213C14.3972 29.9308 14.3924 29.9403 14.3829 29.945L11.7047 34.0763L11.6857 34.1048L11.2298 34.8171C10.9259 35.2967 11.0494 35.9236 11.5147 36.2512C11.5385 36.2655 11.5622 36.2797 11.586 36.294C12.0608 36.5694 12.6686 36.4364 12.9821 35.9853C12.9963 35.9616 13.0106 35.9331 13.0295 35.9093V35.8998L13.9175 34.5085L15.4893 32.0439L15.5368 31.9679L15.5463 31.9727Z" fill="white"/>
</svg>
