<svg width="30" height="36" viewBox="0 0 30 36" fill="none" xmlns="http://www.w3.org/2000/svg">
<path d="M29.3259 18.0013C29.3259 15.0871 28.3645 12.3365 26.6943 10.1063C25.4999 8.51542 23.9387 7.1872 22.1099 6.26538L25.0637 4.22349C26.1144 3.49991 26.3771 2.03292 25.6485 0.982245C25.2818 0.461861 24.7366 0.134763 24.1469 0.0356418C23.9982 0.0108617 23.8545 -0.00400645 23.7008 0.000949585C23.2498 0.0108617 22.7988 0.144675 22.4073 0.417257L3.17292 13.7093C1.5969 14.7997 0.704814 16.346 0.675077 17.9319C0.645341 19.5228 1.48787 21.0938 3.04902 22.209C9.43735 26.7933 16.019 31.0753 22.4123 35.5803C23.453 36.3138 24.9151 36.0611 25.6436 35.0154C26.3721 33.9696 26.1144 32.5126 25.0637 31.784L22.105 29.7372C26.496 27.5169 29.3259 22.992 29.3259 17.9963V18.0013ZM20.6281 28.7212L5.56669 18.3036C5.33871 18.145 5.33871 17.8625 5.56669 17.7039L20.6281 7.28632C21.3517 7.58864 22.0356 7.95539 22.67 8.38656C20.0135 10.8646 18.4821 14.3437 18.4821 18.0062C18.4821 21.6687 20.0135 25.1479 22.67 27.6259C22.0356 28.0571 21.3517 28.4238 20.6281 28.7261V28.7212ZM23.909 26.6545C21.4508 24.459 20.0334 21.3169 20.0334 18.0013C20.0334 14.6857 21.4508 11.5436 23.904 9.34804C24.2906 9.69 24.6524 10.0617 24.9894 10.4532C22.8335 12.3563 21.5796 15.102 21.5796 18.0013C21.5796 20.9006 22.8335 23.6412 24.9894 25.5444C24.6524 25.9359 24.2906 26.3076 23.904 26.6545H23.909Z" fill="white"/>
</svg>
