<svg width="70" height="21" viewBox="0 0 70 21" fill="none" xmlns="http://www.w3.org/2000/svg">
<g clip-path="url(#clip0_113_578)">
<path d="M21.0108 15.7519H19.7014V5.63962H25.6483V6.88201H21.011V10.202H25.1938V11.4157H21.011V15.7519L21.0108 15.7519ZM28.1104 7.09495C27.7983 7.40614 27.3081 7.45502 26.9398 7.21171C26.5716 6.96839 26.4278 6.50066 26.5966 6.09474C26.7653 5.68881 27.1995 5.45775 27.6335 5.54298C28.0674 5.6282 28.3803 6.00596 28.3806 6.44507C28.3848 6.68963 28.2866 6.92498 28.1094 7.09495H28.1104ZM28.1104 15.7519H26.801V8.83165H28.1104V15.7519ZM30.9838 15.7519H29.6744V8.83165H30.9261V9.9615H30.9827C31.1339 9.56335 31.4243 9.23244 31.8009 9.02916C32.1605 8.80002 32.5764 8.67295 33.0036 8.66174C33.339 8.65227 33.6728 8.71007 33.9851 8.83165L33.4871 10.0453C33.2625 9.97115 33.0265 9.93752 32.7902 9.94604C32.31 9.94845 31.853 10.1511 31.5308 10.5043C31.1654 10.8765 30.9828 11.3639 30.9828 11.9663L30.9838 15.7519ZM37.5733 15.9726C36.5202 15.9726 35.6643 15.6243 35.0055 14.9278C34.3467 14.2313 34.017 13.3526 34.0162 12.2919C33.9969 11.3368 34.3397 10.4095 34.9766 9.69345C35.5867 8.98077 36.4891 8.58077 37.431 8.60539C38.4647 8.60539 39.2924 8.93972 39.9142 9.60835C40.5359 10.277 40.8464 11.1714 40.8455 12.2917L40.8311 12.5323H35.3233C35.3611 13.2288 35.596 13.7805 36.028 14.1873C36.432 14.5809 36.9769 14.7992 37.5429 14.7942C38.4818 14.7942 39.1173 14.3986 39.4493 13.608L40.6164 14.088C40.3799 14.6352 39.9898 15.1032 39.4926 15.4363C38.9703 15.7938 38.3303 15.9725 37.5729 15.9725L37.5733 15.9726ZM39.4518 11.4488C39.4236 11.0531 39.241 10.6765 38.9038 10.3189C38.5666 9.96144 38.0653 9.78641 37.3998 9.79375C36.9383 9.78572 36.4899 9.94678 36.1404 10.2461C35.7743 10.5646 35.5181 10.9891 35.4079 11.4598L39.4518 11.4488ZM45.5765 15.9726C45.0811 15.9823 44.5911 15.8685 44.1515 15.6416C43.7654 15.4483 43.4388 15.1556 43.2056 14.7942H43.1489V15.7519H41.8962V5.63962H43.2056V8.83165L43.1489 9.79157H43.2056C43.4388 9.43013 43.7654 9.13747 44.1515 8.9442C44.5905 8.71462 45.0805 8.59814 45.5766 8.60547C46.4777 8.60547 47.2558 8.95854 47.9109 9.66469C48.566 10.3708 48.8931 11.2465 48.8924 12.2918C48.8917 13.337 48.5652 14.2127 47.9109 14.9189C47.2565 15.625 46.4784 15.9762 45.5765 15.9726ZM45.3631 14.7864C45.9596 14.7911 46.5295 14.5417 46.9282 14.1013C47.3647 13.6445 47.5829 13.0395 47.5829 12.2862C47.5829 11.533 47.3647 10.928 46.9282 10.4712C46.5249 10.0361 45.9569 9.78792 45.3612 9.78665C44.7656 9.78538 44.1965 10.0312 43.7913 10.4646C43.3601 10.9162 43.1444 11.5234 43.1444 12.2862C43.1444 13.049 43.3623 13.658 43.798 14.1134C44.1992 14.5521 44.7706 14.7992 45.3675 14.7919L45.3631 14.7864ZM52.226 15.9726C51.4849 15.9726 50.8661 15.7607 50.3696 15.337C49.8731 14.9134 49.6241 14.3532 49.6227 13.6566C49.6227 12.9034 49.9168 12.3127 50.5053 11.8846C51.0937 11.4565 51.8191 11.2425 52.6817 11.2425C53.4502 11.2425 54.0802 11.3837 54.5714 11.6662V11.4687C54.5901 11.0035 54.3966 10.5548 54.0445 10.2472C53.686 9.94077 53.2247 9.77895 52.7517 9.79377C52.3898 9.78929 52.0334 9.8818 51.7202 10.0619C51.4268 10.2232 51.2019 10.4841 51.0866 10.7967L49.8917 10.2881C50.0533 9.87247 50.3712 9.48702 50.8469 9.13175C51.3227 8.77648 51.9474 8.59993 52.7255 8.60214C53.6147 8.60214 54.3558 8.8596 54.9486 9.37448C55.5414 9.88936 55.8356 10.6191 55.8312 11.5635V15.7519H54.5751V14.792H54.5184C53.996 15.579 53.2323 15.9711 52.2275 15.9711L52.226 15.9726ZM52.4394 14.7864C52.9896 14.7845 53.5178 14.5714 53.9133 14.1917C54.3349 13.839 54.5788 13.3201 54.5803 12.7728C54.2097 12.4712 53.654 12.3204 52.9129 12.3204C52.2771 12.3204 51.798 12.4569 51.4757 12.7298C51.1748 12.9593 50.9966 13.3131 50.9921 13.6897C50.986 14.0174 51.1552 14.324 51.4369 14.4951C51.733 14.6927 52.0827 14.7963 52.4395 14.7919V14.7864L52.4394 14.7864ZM59.6813 15.9726C58.9032 15.9726 58.2607 15.7842 57.7538 15.4076C57.2607 15.0461 56.8763 14.5578 56.6422 13.9953L57.8094 13.5154C58.1799 14.3819 58.8098 14.8151 59.6991 14.8151C60.0523 14.8295 60.4015 14.7359 60.6995 14.547C60.9452 14.3956 61.0935 14.1279 61.0908 13.8409C61.0908 13.3892 60.7728 13.0832 60.1355 12.9229L58.7272 12.5841C58.2637 12.4624 57.832 12.2435 57.4611 11.942C57.0663 11.6364 56.8438 11.1609 56.8631 10.6643C56.8631 10.0524 57.1358 9.5558 57.6812 9.17475C58.2517 8.78602 58.9313 8.58599 59.6231 8.60321C60.2007 8.59405 60.7702 8.73844 61.2727 9.02139C61.747 9.28871 62.1137 9.71041 62.3109 10.2152L61.1737 10.6764C60.9181 10.0645 60.3867 9.75842 59.5797 9.75842C59.2365 9.74708 58.8968 9.83036 58.5982 9.99896C58.3536 10.1247 58.2002 10.3754 58.2003 10.6488C58.2003 11.0446 58.5085 11.3131 59.1251 11.4543L60.5046 11.7798C61.1589 11.9269 61.6428 12.1843 61.9563 12.5521C62.2599 12.8957 62.4267 13.3375 62.4254 13.7945C62.4314 14.4038 62.1465 14.98 61.6573 15.348C61.1452 15.7644 60.486 15.9725 59.6798 15.9725L59.6813 15.9726ZM66.7242 15.9726C65.6711 15.9726 64.8152 15.6243 64.1564 14.9278C63.4977 14.2313 63.1678 13.3506 63.1671 12.2862C63.1477 11.3312 63.4905 10.4039 64.1275 9.68784C64.7398 8.97695 65.6432 8.57908 66.5852 8.60545C67.6225 8.60545 68.4504 8.93978 69.0684 9.60841C69.6864 10.277 69.9969 11.1715 69.9999 12.2918L69.9855 12.5323H64.4731C64.5108 13.2289 64.7457 13.7806 65.1778 14.1873C65.583 14.581 66.1293 14.7985 66.6962 14.792C67.6351 14.792 68.2705 14.3964 68.6025 13.6058L69.7697 14.0858C69.5332 14.633 69.1431 15.1011 68.6459 15.4341C68.1235 15.793 67.4828 15.9725 66.724 15.9725L66.7242 15.9726ZM68.6027 11.4488C68.5746 11.0531 68.3919 10.6765 68.0547 10.3189C67.7175 9.96144 67.2169 9.78641 66.553 9.79375C66.0914 9.78584 65.6431 9.94689 65.2936 10.2461C64.9274 10.5646 64.6712 10.9891 64.561 11.4598L68.6027 11.4488Z" fill="white"/>
<path d="M0.124268 16.528L2.53206 1.12087C2.56149 0.931916 2.70845 0.782961 2.89698 0.750931C3.08552 0.718902 3.2734 0.811051 3.36355 0.979693L5.85363 5.62407L6.84616 3.73429C6.92303 3.58817 7.07457 3.49668 7.23969 3.49668C7.4048 3.49668 7.55633 3.58817 7.63321 3.73429L14.353 16.528L0.124268 16.528Z" fill="#F2F2F2"/>
<path d="M8.44257 10.5261L5.85248 5.62158L0.124268 16.5278L8.44257 10.5261Z" fill="#CFCFCF" fill-opacity="0.972549"/>
<path d="M14.3531 16.528L12.5089 5.11601C12.4811 4.95212 12.3641 4.8175 12.2057 4.76675C12.0473 4.71601 11.874 4.75824 11.7564 4.87574L0.124268 16.5278L6.5606 20.1373C6.96478 20.363 7.45701 20.363 7.86119 20.1373L14.3531 16.5278V16.528Z" fill="white"/>
<path d="M12.5091 5.11581C12.4813 4.95193 12.3643 4.81731 12.2059 4.76656C12.0475 4.71581 11.8742 4.75805 11.7566 4.87554L9.44785 7.19011L7.6324 3.73396C7.55554 3.58784 7.404 3.49635 7.23888 3.49635C7.07376 3.49635 6.92224 3.58784 6.84536 3.73396L5.85282 5.62374L3.36262 0.979439C3.27233 0.810753 3.08422 0.718753 2.89546 0.751021C2.7067 0.78329 2.56024 0.932619 2.53113 1.12172L0.12446 16.5278H0.116699L0.12446 16.5367L0.187819 16.5678L11.7532 4.98908C11.8708 4.87095 12.0445 4.82848 12.2033 4.87908C12.3621 4.92968 12.4793 5.06483 12.5069 5.22919L14.3355 16.5389L14.3533 16.5278L12.5091 5.11581ZM0.14558 16.5067L2.53225 1.23068C2.56133 1.04157 2.70813 0.892245 2.89673 0.859977C3.08533 0.827708 3.27345 0.919678 3.36389 1.08839L5.85382 5.73277L6.84636 3.84299C6.92322 3.69687 7.07476 3.60538 7.23988 3.60538C7.405 3.60538 7.55652 3.69687 7.6334 3.84299L9.41201 7.22568L0.14558 16.5067Z" fill="white" fill-opacity="0.2"/>
<path opacity="0.2" d="M7.86121 20.0285C7.45703 20.2542 6.96479 20.2542 6.56061 20.0285L0.139835 16.4291L0.124268 16.5281L6.5606 20.1364C6.96478 20.3621 7.45701 20.3621 7.86119 20.1364L14.3531 16.5281L14.3364 16.4258L7.86121 20.0285Z" fill="#A52714"/>
</g>
<defs>
<clipPath id="clip0_113_578">
<rect width="70" height="19.7015" fill="white" transform="translate(0 0.749023)"/>
</clipPath>
</defs>
</svg>
