<svg width="73" height="41" viewBox="0 0 73 41" fill="none" xmlns="http://www.w3.org/2000/svg">
<path d="M70.4359 15.3686H67.6161V10.8279C67.6161 8.80469 65.9708 7.15934 63.9475 7.15934H59.9998V4.4791C59.9998 2.45585 58.3545 0.810502 56.3312 0.810502H54.0173C51.994 0.810502 50.3487 2.45585 50.3487 4.4791V15.3745H23.1684V4.47329C23.1684 2.45004 21.5231 0.804688 19.4998 0.804688H17.1859C15.1626 0.804688 13.5173 2.45004 13.5173 4.47329V7.15352H9.56961C7.54635 7.15352 5.901 8.79887 5.901 10.8221V15.3628H3.07542C1.85449 15.3628 0.854492 16.357 0.854492 17.5779V24.0256C0.854492 25.2465 1.84868 26.2465 3.07542 26.2465H5.89519V30.7872C5.89519 32.8105 7.54054 34.4559 9.56379 34.4559H13.5115V37.1361C13.5115 39.1593 15.1568 40.8047 17.1801 40.8047H19.494C21.5173 40.8047 23.1626 39.1593 23.1626 37.1361V26.2407H50.337V37.1361C50.337 39.1593 51.9824 40.8047 54.0057 40.8047H56.3196C58.3429 40.8047 59.9882 39.1593 59.9882 37.1361V34.4559H63.9359C65.9591 34.4559 67.6045 32.8105 67.6045 30.7872V26.2465H70.4243C71.6452 26.2465 72.6452 25.2524 72.6452 24.0256V17.5779C72.6568 16.3628 71.6626 15.3686 70.4359 15.3686ZM3.07542 24.2175C2.97659 24.2175 2.88938 24.1361 2.88938 24.0314V17.5838C2.88938 17.4849 2.97077 17.4035 3.07542 17.4035H5.89519V24.2175H3.07542ZM9.56379 32.4326C8.66263 32.4326 7.93007 31.7 7.93007 30.7989V25.2407V16.3919V10.8338C7.93007 9.93259 8.66263 9.20004 9.56379 9.20004H13.5115V32.4384H9.56379V32.4326ZM21.1336 37.1477C21.1336 38.0489 20.401 38.7814 19.4998 38.7814H17.1859C16.2847 38.7814 15.5522 38.0489 15.5522 37.1477V33.45V8.17678V4.4791C15.5522 3.57794 16.2847 2.84539 17.1859 2.84539H19.4998C20.401 2.84539 21.1336 3.57794 21.1336 4.4791V16.3919V25.2407V37.1477ZM23.1684 24.2175V17.4035H50.3429V24.2175H23.1684ZM57.9591 37.1477C57.9591 38.0489 57.2266 38.7814 56.3254 38.7814H54.0115C53.1103 38.7814 52.3777 38.0489 52.3777 37.1477V25.2349V16.3861V4.47329C52.3777 3.57213 53.1103 2.83957 54.0115 2.83957H56.3254C57.2266 2.83957 57.9591 3.57213 57.9591 4.47329V8.17097V33.4442V37.1477ZM65.5812 30.7989C65.5812 31.7 64.8487 32.4326 63.9475 32.4326H59.9998V9.19422H63.9475C64.8487 9.19422 65.5812 9.92678 65.5812 10.8279V16.3861V25.2349V30.7989ZM70.6219 24.0372C70.6219 24.1361 70.5405 24.2233 70.4359 24.2233H67.6161V17.4093H70.4359C70.5347 17.4093 70.6219 17.4907 70.6219 17.5896V24.0372Z" fill="black"/>
<path d="M70.4359 15.3686H67.6161V10.8279C67.6161 8.80469 65.9708 7.15934 63.9475 7.15934H59.9998V4.4791C59.9998 2.45585 58.3545 0.810502 56.3312 0.810502H54.0173C51.994 0.810502 50.3487 2.45585 50.3487 4.4791V15.3745H23.1684V4.47329C23.1684 2.45004 21.5231 0.804688 19.4998 0.804688H17.1859C15.1626 0.804688 13.5173 2.45004 13.5173 4.47329V7.15352H9.56961C7.54635 7.15352 5.901 8.79887 5.901 10.8221V15.3628H3.07542C1.85449 15.3628 0.854492 16.357 0.854492 17.5779V24.0256C0.854492 25.2465 1.84868 26.2465 3.07542 26.2465H5.89519V30.7872C5.89519 32.8105 7.54054 34.4559 9.56379 34.4559H13.5115V37.1361C13.5115 39.1593 15.1568 40.8047 17.1801 40.8047H19.494C21.5173 40.8047 23.1626 39.1593 23.1626 37.1361V26.2407H50.337V37.1361C50.337 39.1593 51.9824 40.8047 54.0057 40.8047H56.3196C58.3429 40.8047 59.9882 39.1593 59.9882 37.1361V34.4559H63.9359C65.9591 34.4559 67.6045 32.8105 67.6045 30.7872V26.2465H70.4243C71.6452 26.2465 72.6452 25.2524 72.6452 24.0256V17.5779C72.6568 16.3628 71.6626 15.3686 70.4359 15.3686ZM3.07542 24.2175C2.97659 24.2175 2.88938 24.1361 2.88938 24.0314V17.5838C2.88938 17.4849 2.97077 17.4035 3.07542 17.4035H5.89519V24.2175H3.07542ZM9.56379 32.4326C8.66263 32.4326 7.93007 31.7 7.93007 30.7989V25.2407V16.3919V10.8338C7.93007 9.93259 8.66263 9.20004 9.56379 9.20004H13.5115V32.4384H9.56379V32.4326ZM21.1336 37.1477C21.1336 38.0489 20.401 38.7814 19.4998 38.7814H17.1859C16.2847 38.7814 15.5522 38.0489 15.5522 37.1477V33.45V8.17678V4.4791C15.5522 3.57794 16.2847 2.84539 17.1859 2.84539H19.4998C20.401 2.84539 21.1336 3.57794 21.1336 4.4791V16.3919V25.2407V37.1477ZM23.1684 24.2175V17.4035H50.3429V24.2175H23.1684ZM57.9591 37.1477C57.9591 38.0489 57.2266 38.7814 56.3254 38.7814H54.0115C53.1103 38.7814 52.3777 38.0489 52.3777 37.1477V25.2349V16.3861V4.47329C52.3777 3.57213 53.1103 2.83957 54.0115 2.83957H56.3254C57.2266 2.83957 57.9591 3.57213 57.9591 4.47329V8.17097V33.4442V37.1477ZM65.5812 30.7989C65.5812 31.7 64.8487 32.4326 63.9475 32.4326H59.9998V9.19422H63.9475C64.8487 9.19422 65.5812 9.92678 65.5812 10.8279V16.3861V25.2349V30.7989ZM70.6219 24.0372C70.6219 24.1361 70.5405 24.2233 70.4359 24.2233H67.6161V17.4093H70.4359C70.5347 17.4093 70.6219 17.4907 70.6219 17.5896V24.0372Z" fill="url(#paint0_linear_858_1782)"/>
<defs>
<linearGradient id="paint0_linear_858_1782" x1="36.7499" y1="40.8047" x2="36.7499" y2="0.804688" gradientUnits="userSpaceOnUse">
<stop stop-color="#5934DF"/>
<stop offset="1" stop-color="#DB80EB"/>
</linearGradient>
</defs>
</svg>
