<svg xmlns="http://www.w3.org/2000/svg" xmlns:xlink="http://www.w3.org/1999/xlink" version="1.1" id="Flutter" x="0px" y="0px" viewBox="0 0 111.1 40.3" style="enable-background:new 0 0 111.1 40.3;" xml:space="preserve">
<style type="text/css">
	.st0{fill:#ffffff;}
	.st1{fill:#ffffff;}
	.st2{fill:#ffffff;}
	.st3{fill:url(#SVGID_1_);}
	.st4{fill:#ffffff;}
</style>
<g transform="matrix(.038819 0 0 .038819 -.560501 8.162276)">
	<path class="st0" d="M413.8,708.5L853.2,269H533.7L254.1,548.7L413.8,708.5z" fill="#000000"/>
	<path class="st0" d="M14.4,309l519.3-519.3h319.5l-679,679.1L14.4,309z" fill="#000000"/>
	<path class="st1" d="M533.7,828.3h319.5L573.6,548.7L413.8,708.5L533.7,828.3z" fill="#000000"/>
	<path class="st2" d="M254.1,548.7l159.8-159.8l159.8,159.8L413.9,708.5L254.1,548.7z" fill="#000000"/>
	
		<linearGradient id="SVGID_1_" gradientUnits="userSpaceOnUse" x1="107630.4688" y1="-210729.4219" x2="107749.4844" y2="-210610.4062" gradientTransform="matrix(3.881900e-02 0 0 -3.881900e-02 -3717.6455 -7440.9434)" fill="#000000">
		<stop offset="0" style="stop-color:#1A237E;stop-opacity:0.4" fill="#000000"/>
		<stop offset="1" style="stop-color:#1A237E;stop-opacity:0" fill="#000000"/>
	</linearGradient>
	<path class="st3" d="M573.6,548.7L413.8,708.5l237-82.1L573.6,548.7z" fill="#000000"/>
</g>
<path class="st4" d="M36.5,10.8h10.8v2.1h-8.6v6.4h7.8v2.1h-7.8v8.1h-2.2V10.8z M50,10.8h2.2v18.7H50V10.8z M60.3,30  c-1.6,0-2.8-0.5-3.7-1.4c-0.8-0.9-1.2-2.3-1.2-4v-8.4h2.2v8.1c0,1.3,0.3,2.2,0.9,2.8c0.6,0.6,1.4,0.9,2.3,0.9c0.8,0,1.4-0.2,2-0.6  c0.6-0.4,1.1-0.9,1.4-1.6c0.3-0.6,0.5-1.3,0.5-2v-7.5h2.2v13.4h-2.1v-1.9h-0.1c-0.4,0.7-1,1.2-1.8,1.7C62.1,29.7,61.2,30,60.3,30  L60.3,30z M75.4,29.8c-0.5,0-1-0.1-1.5-0.3c-0.5-0.2-0.8-0.4-1.2-0.7c-0.3-0.3-0.6-0.7-0.8-1.2c-0.2-0.4-0.3-1-0.3-1.6v-7.8h-2.3v-2  h2.3v-3.8H74v3.8h3.2v2H74v7.3c0,0.7,0.1,1.3,0.4,1.6c0.3,0.4,0.8,0.6,1.4,0.6c0.5,0,1-0.1,1.5-0.4v2.2c-0.3,0.1-0.5,0.2-0.8,0.3  C76.2,29.7,75.9,29.8,75.4,29.8L75.4,29.8z M84.9,29.8c-0.5,0-1-0.1-1.5-0.3c-0.5-0.2-0.8-0.4-1.2-0.7c-0.3-0.3-0.6-0.7-0.8-1.2  c-0.2-0.4-0.3-1-0.3-1.6v-7.8h-2.3v-2h2.3v-3.8h2.2v3.8h3.2v2h-3.2v7.3c0,0.7,0.1,1.3,0.4,1.6c0.3,0.4,0.8,0.6,1.4,0.6  c0.5,0,1-0.1,1.5-0.4v2.2c-0.3,0.1-0.5,0.2-0.8,0.3C85.6,29.7,85.3,29.8,84.9,29.8L84.9,29.8z M94.7,30c-1.3,0-2.4-0.3-3.4-0.9  c-1-0.6-1.8-1.4-2.4-2.5c-0.6-1.1-0.8-2.3-0.8-3.6c0-1.3,0.3-2.5,0.8-3.6c0.5-1.1,1.3-1.9,2.3-2.6c1-0.6,2.1-1,3.4-1  c1.3,0,2.4,0.3,3.4,0.9c1,0.6,1.7,1.4,2.2,2.4c0.5,1,0.8,2.2,0.8,3.5c0,0.3,0,0.5-0.1,0.7H90.3c0.1,1,0.3,1.9,0.7,2.6  c0.4,0.7,1,1.2,1.7,1.6c0.7,0.3,1.4,0.5,2.1,0.5c1.7,0,3-0.8,4-2.4l1.9,0.9c-0.6,1.1-1.4,1.9-2.4,2.6C97.3,29.7,96.1,30,94.7,30  L94.7,30z M98.5,21.5c0-0.6-0.2-1.1-0.5-1.7c-0.3-0.6-0.7-1-1.3-1.4c-0.6-0.4-1.3-0.6-2.2-0.6c-1,0-1.9,0.3-2.7,1  c-0.7,0.7-1.2,1.5-1.4,2.6L98.5,21.5L98.5,21.5z M103.5,16.2h2.1v2.1h0.1c0.3-0.7,0.8-1.3,1.5-1.8c0.8-0.5,1.5-0.7,2.4-0.7  c0.6,0,1.1,0.1,1.6,0.3v2.4c-0.6-0.3-1.2-0.4-1.9-0.4c-0.6,0-1.2,0.2-1.8,0.5c-0.5,0.4-1,0.9-1.3,1.5c-0.3,0.6-0.5,1.3-0.5,2v7.5  h-2.2L103.5,16.2L103.5,16.2z" fill="#000000"/>
</svg>