<svg width="49" height="61" viewBox="0 0 49 61" fill="none" xmlns="http://www.w3.org/2000/svg">
<path d="M14.994 4.69209C14.994 4.33813 15.2836 4.04852 15.6375 4.04852H19.0484C19.4024 4.04852 19.692 4.33813 19.692 4.69209C19.692 5.04606 19.4024 5.33566 19.0484 5.33566H15.6375C15.2836 5.33566 14.994 5.04606 14.994 4.69209ZM48.8779 21.4635V25.2284C48.8779 30.1517 44.5274 34.1547 39.1793 34.1547H30.5941L17.2078 39.1102C17.137 39.1359 17.0598 39.1488 16.9826 39.1488C16.8088 39.1488 16.6415 39.078 16.5128 38.9493C16.3326 38.7627 16.2875 38.4859 16.3905 38.2478L18.9069 32.3849C16.4484 30.7052 14.994 28.0665 14.994 25.222V21.4571C14.994 16.5338 19.3445 12.5308 24.6926 12.5308H39.1857C44.5274 12.5308 48.8779 16.5402 48.8779 21.4635ZM47.5843 21.4635C47.5843 17.2546 43.813 13.8243 39.1793 13.8243H24.6861C20.0524 13.8243 16.2811 17.2481 16.2811 21.4635V25.2284C16.2811 27.7962 17.6905 30.171 20.046 31.5933C20.0524 31.5997 20.0589 31.5997 20.0653 31.6062C20.0846 31.619 20.1039 31.6319 20.1168 31.6448C20.1296 31.6577 20.1489 31.6705 20.1618 31.6834C20.1747 31.6963 20.1876 31.7156 20.2069 31.7285C20.2197 31.7413 20.2326 31.7606 20.2455 31.7799C20.2584 31.7992 20.2648 31.8121 20.2777 31.8314C20.2905 31.8507 20.297 31.87 20.3034 31.8893C20.3098 31.9087 20.3163 31.928 20.3227 31.9473C20.3291 31.9666 20.3356 31.9859 20.342 32.0052C20.3485 32.0245 20.3485 32.0438 20.3485 32.0695C20.3485 32.0889 20.3549 32.1082 20.3549 32.1339C20.3549 32.1532 20.3549 32.1725 20.3549 32.1983C20.3549 32.2176 20.3549 32.2433 20.3485 32.2626C20.342 32.2819 20.342 32.3012 20.3356 32.3205C20.3291 32.3398 20.3227 32.3656 20.3163 32.3849C20.3163 32.3913 20.3098 32.3978 20.3098 32.4042L18.1732 37.3854L30.2594 32.9126C30.2723 32.9062 30.2852 32.9062 30.3045 32.8997C30.3238 32.8933 30.3495 32.8869 30.3688 32.8804C30.3946 32.874 30.4203 32.874 30.4461 32.874C30.4589 32.874 30.4718 32.8676 30.4847 32.8676H39.1857C43.8194 32.8676 47.5908 29.4438 47.5908 25.2284V21.4635H47.5843ZM34.0629 36.3815V37.9196V44.5226V53.3009C34.0629 57.4391 30.6971 60.8049 26.5589 60.8049H8.12707C3.98892 60.8049 0.623047 57.4391 0.623047 53.3009V8.31539C0.623047 8.11588 0.635918 7.91638 0.64879 7.71687C0.635918 7.65895 0.623047 7.60746 0.623047 7.54311C0.623047 7.4337 0.655225 7.33073 0.700275 7.24063C1.22157 3.6109 4.34932 0.804932 8.12707 0.804932H26.5653C30.7035 0.804932 34.0694 4.1708 34.0694 8.30895V10.2847C34.0694 10.6387 33.7798 10.9283 33.4258 10.9283C33.0718 10.9283 32.7822 10.6387 32.7822 10.2847V8.30895C32.7822 8.27034 32.7822 8.22529 32.7822 8.18668H1.91662C1.91662 8.22529 1.91662 8.27034 1.91662 8.30895V49.9543H32.7758V44.5098V37.9132V36.375C32.7758 36.0211 33.0654 35.7315 33.4194 35.7315C33.7798 35.7315 34.0629 36.0211 34.0629 36.3815ZM2.07751 6.89954H32.6085C31.9649 4.15793 29.5 2.10494 26.5653 2.10494H8.12707C5.18596 2.10494 2.72108 4.15793 2.07751 6.89954ZM32.7758 53.3009V51.2544H1.91662V53.3009C1.91662 56.7247 4.70328 59.5114 8.12707 59.5114H26.5653C29.9891 59.5114 32.7758 56.7247 32.7758 53.3009ZM43.5105 27.8027V28.2854C43.5105 29.7334 42.3328 30.9111 40.8848 30.9111H22.9935C21.5455 30.9111 20.3678 29.7334 20.3678 28.2854V27.8027C20.3678 27.3264 20.7539 26.9403 21.2301 26.9403H22.8841C22.8777 26.8051 22.8713 26.67 22.8713 26.5348C22.8713 24.3531 23.6564 22.2487 25.0787 20.6011C26.3658 19.1145 28.097 18.0912 29.9956 17.6729V17.3125C29.9956 16.2377 30.8708 15.3625 31.9456 15.3625C32.4669 15.3625 32.956 15.5684 33.3228 15.9353C33.6897 16.3021 33.8956 16.7912 33.8956 17.3125V17.6729C35.8006 18.0912 37.5318 19.1145 38.8125 20.6011C40.2348 22.2487 41.0199 24.3531 41.0199 26.5348C41.0199 26.67 41.0135 26.8051 41.007 26.9403H42.661C43.1244 26.9467 43.5105 27.3329 43.5105 27.8027ZM31.2763 17.3189V17.4927C31.7139 17.4605 32.1515 17.4605 32.5891 17.4927V17.3189C32.5891 17.1452 32.5184 16.9778 32.3961 16.8556C32.2738 16.7333 32.1065 16.6625 31.9327 16.6625C31.5723 16.6625 31.2763 16.9585 31.2763 17.3189ZM24.1648 26.9467H39.707C39.7135 26.8116 39.7199 26.6764 39.7199 26.5413C39.7199 22.7378 36.8882 19.4363 33.1426 18.8506C32.3575 18.7283 31.5208 18.7283 30.7357 18.8506C26.9837 19.4298 24.1584 22.7378 24.1584 26.5413C24.152 26.6764 24.1584 26.8116 24.1648 26.9467ZM42.217 28.2339H21.6485V28.2789C21.6485 29.019 22.247 29.6175 22.9871 29.6175H40.8783C41.6184 29.6175 42.217 29.019 42.217 28.2789V28.2339ZM27.2861 42.2315C27.2861 41.8775 26.9965 41.5879 26.6426 41.5879H8.04984C7.69588 41.5879 7.40627 41.8775 7.40627 42.2315C7.40627 42.5855 7.69588 42.8751 8.04984 42.8751H26.6426C26.9965 42.8751 27.2861 42.5855 27.2861 42.2315ZM8.04984 45.8934C7.69588 45.8934 7.40627 46.183 7.40627 46.537C7.40627 46.891 7.69588 47.1806 8.04984 47.1806H21.0628C21.4168 47.1806 21.7064 46.891 21.7064 46.537C21.7064 46.183 21.4168 45.8934 21.0628 45.8934H8.04984ZM25.9926 55.3989C25.9926 56.6603 24.9693 57.6836 23.7079 57.6836H10.9845C9.72312 57.6836 8.69985 56.6603 8.69985 55.3989C8.69985 54.1376 9.72312 53.1143 10.9845 53.1143H23.7079C24.9693 53.1143 25.9926 54.1376 25.9926 55.3989ZM24.7054 55.3989C24.7054 54.8519 24.2614 54.4014 23.7079 54.4014H10.9845C10.4375 54.4014 9.98699 54.8455 9.98699 55.3989C9.98699 55.9524 10.431 56.3965 10.9845 56.3965H23.7079C24.2549 56.3965 24.7054 55.946 24.7054 55.3989Z" fill="black"/>
<path d="M14.994 4.69209C14.994 4.33813 15.2836 4.04852 15.6375 4.04852H19.0484C19.4024 4.04852 19.692 4.33813 19.692 4.69209C19.692 5.04606 19.4024 5.33566 19.0484 5.33566H15.6375C15.2836 5.33566 14.994 5.04606 14.994 4.69209ZM48.8779 21.4635V25.2284C48.8779 30.1517 44.5274 34.1547 39.1793 34.1547H30.5941L17.2078 39.1102C17.137 39.1359 17.0598 39.1488 16.9826 39.1488C16.8088 39.1488 16.6415 39.078 16.5128 38.9493C16.3326 38.7627 16.2875 38.4859 16.3905 38.2478L18.9069 32.3849C16.4484 30.7052 14.994 28.0665 14.994 25.222V21.4571C14.994 16.5338 19.3445 12.5308 24.6926 12.5308H39.1857C44.5274 12.5308 48.8779 16.5402 48.8779 21.4635ZM47.5843 21.4635C47.5843 17.2546 43.813 13.8243 39.1793 13.8243H24.6861C20.0524 13.8243 16.2811 17.2481 16.2811 21.4635V25.2284C16.2811 27.7962 17.6905 30.171 20.046 31.5933C20.0524 31.5997 20.0589 31.5997 20.0653 31.6062C20.0846 31.619 20.1039 31.6319 20.1168 31.6448C20.1296 31.6577 20.1489 31.6705 20.1618 31.6834C20.1747 31.6963 20.1876 31.7156 20.2069 31.7285C20.2197 31.7413 20.2326 31.7606 20.2455 31.7799C20.2584 31.7992 20.2648 31.8121 20.2777 31.8314C20.2905 31.8507 20.297 31.87 20.3034 31.8893C20.3098 31.9087 20.3163 31.928 20.3227 31.9473C20.3291 31.9666 20.3356 31.9859 20.342 32.0052C20.3485 32.0245 20.3485 32.0438 20.3485 32.0695C20.3485 32.0889 20.3549 32.1082 20.3549 32.1339C20.3549 32.1532 20.3549 32.1725 20.3549 32.1983C20.3549 32.2176 20.3549 32.2433 20.3485 32.2626C20.342 32.2819 20.342 32.3012 20.3356 32.3205C20.3291 32.3398 20.3227 32.3656 20.3163 32.3849C20.3163 32.3913 20.3098 32.3978 20.3098 32.4042L18.1732 37.3854L30.2594 32.9126C30.2723 32.9062 30.2852 32.9062 30.3045 32.8997C30.3238 32.8933 30.3495 32.8869 30.3688 32.8804C30.3946 32.874 30.4203 32.874 30.4461 32.874C30.4589 32.874 30.4718 32.8676 30.4847 32.8676H39.1857C43.8194 32.8676 47.5908 29.4438 47.5908 25.2284V21.4635H47.5843ZM34.0629 36.3815V37.9196V44.5226V53.3009C34.0629 57.4391 30.6971 60.8049 26.5589 60.8049H8.12707C3.98892 60.8049 0.623047 57.4391 0.623047 53.3009V8.31539C0.623047 8.11588 0.635918 7.91638 0.64879 7.71687C0.635918 7.65895 0.623047 7.60746 0.623047 7.54311C0.623047 7.4337 0.655225 7.33073 0.700275 7.24063C1.22157 3.6109 4.34932 0.804932 8.12707 0.804932H26.5653C30.7035 0.804932 34.0694 4.1708 34.0694 8.30895V10.2847C34.0694 10.6387 33.7798 10.9283 33.4258 10.9283C33.0718 10.9283 32.7822 10.6387 32.7822 10.2847V8.30895C32.7822 8.27034 32.7822 8.22529 32.7822 8.18668H1.91662C1.91662 8.22529 1.91662 8.27034 1.91662 8.30895V49.9543H32.7758V44.5098V37.9132V36.375C32.7758 36.0211 33.0654 35.7315 33.4194 35.7315C33.7798 35.7315 34.0629 36.0211 34.0629 36.3815ZM2.07751 6.89954H32.6085C31.9649 4.15793 29.5 2.10494 26.5653 2.10494H8.12707C5.18596 2.10494 2.72108 4.15793 2.07751 6.89954ZM32.7758 53.3009V51.2544H1.91662V53.3009C1.91662 56.7247 4.70328 59.5114 8.12707 59.5114H26.5653C29.9891 59.5114 32.7758 56.7247 32.7758 53.3009ZM43.5105 27.8027V28.2854C43.5105 29.7334 42.3328 30.9111 40.8848 30.9111H22.9935C21.5455 30.9111 20.3678 29.7334 20.3678 28.2854V27.8027C20.3678 27.3264 20.7539 26.9403 21.2301 26.9403H22.8841C22.8777 26.8051 22.8713 26.67 22.8713 26.5348C22.8713 24.3531 23.6564 22.2487 25.0787 20.6011C26.3658 19.1145 28.097 18.0912 29.9956 17.6729V17.3125C29.9956 16.2377 30.8708 15.3625 31.9456 15.3625C32.4669 15.3625 32.956 15.5684 33.3228 15.9353C33.6897 16.3021 33.8956 16.7912 33.8956 17.3125V17.6729C35.8006 18.0912 37.5318 19.1145 38.8125 20.6011C40.2348 22.2487 41.0199 24.3531 41.0199 26.5348C41.0199 26.67 41.0135 26.8051 41.007 26.9403H42.661C43.1244 26.9467 43.5105 27.3329 43.5105 27.8027ZM31.2763 17.3189V17.4927C31.7139 17.4605 32.1515 17.4605 32.5891 17.4927V17.3189C32.5891 17.1452 32.5184 16.9778 32.3961 16.8556C32.2738 16.7333 32.1065 16.6625 31.9327 16.6625C31.5723 16.6625 31.2763 16.9585 31.2763 17.3189ZM24.1648 26.9467H39.707C39.7135 26.8116 39.7199 26.6764 39.7199 26.5413C39.7199 22.7378 36.8882 19.4363 33.1426 18.8506C32.3575 18.7283 31.5208 18.7283 30.7357 18.8506C26.9837 19.4298 24.1584 22.7378 24.1584 26.5413C24.152 26.6764 24.1584 26.8116 24.1648 26.9467ZM42.217 28.2339H21.6485V28.2789C21.6485 29.019 22.247 29.6175 22.9871 29.6175H40.8783C41.6184 29.6175 42.217 29.019 42.217 28.2789V28.2339ZM27.2861 42.2315C27.2861 41.8775 26.9965 41.5879 26.6426 41.5879H8.04984C7.69588 41.5879 7.40627 41.8775 7.40627 42.2315C7.40627 42.5855 7.69588 42.8751 8.04984 42.8751H26.6426C26.9965 42.8751 27.2861 42.5855 27.2861 42.2315ZM8.04984 45.8934C7.69588 45.8934 7.40627 46.183 7.40627 46.537C7.40627 46.891 7.69588 47.1806 8.04984 47.1806H21.0628C21.4168 47.1806 21.7064 46.891 21.7064 46.537C21.7064 46.183 21.4168 45.8934 21.0628 45.8934H8.04984ZM25.9926 55.3989C25.9926 56.6603 24.9693 57.6836 23.7079 57.6836H10.9845C9.72312 57.6836 8.69985 56.6603 8.69985 55.3989C8.69985 54.1376 9.72312 53.1143 10.9845 53.1143H23.7079C24.9693 53.1143 25.9926 54.1376 25.9926 55.3989ZM24.7054 55.3989C24.7054 54.8519 24.2614 54.4014 23.7079 54.4014H10.9845C10.4375 54.4014 9.98699 54.8455 9.98699 55.3989C9.98699 55.9524 10.431 56.3965 10.9845 56.3965H23.7079C24.2549 56.3965 24.7054 55.946 24.7054 55.3989Z" fill="url(#paint0_linear_858_1730)"/>
<defs>
<linearGradient id="paint0_linear_858_1730" x1="24.7505" y1="60.8049" x2="24.7505" y2="0.804932" gradientUnits="userSpaceOnUse">
<stop stop-color="#5934DF"/>
<stop offset="1" stop-color="#DB80EB"/>
</linearGradient>
</defs>
</svg>
