<svg xmlns="http://www.w3.org/2000/svg" xmlns:xlink="http://www.w3.org/1999/xlink" version="1.1" id="Layer_1" x="0px" y="0px" viewBox="0 0 194.2 140.8" style="enable-background:new 0 0 194.2 140.8;" xml:space="preserve">
<style type="text/css">
	.st0{fill:#ffffff;}
	.st1{fill:#ffffff;}
	.st2{fill:#ffffff;}
	.st3{fill:#ffffff;}
	.st4{fill:#ffffff;}
</style>
<path class="st0" d="M108.9,35.6h2.7l7.6-7.6l0.4-3.2c-14.2-12.6-36-11.2-48.5,3c-3.5,4-6,8.7-7.4,13.8c0.9-0.4,1.8-0.4,2.7-0.2  l15.3-2.5c0,0,0.8-1.3,1.2-1.2C89.7,30.1,101.1,29.2,108.9,35.6L108.9,35.6z" fill="#ffffff"/>
<path class="st1" d="M130.2,41.5c-1.8-6.5-5.4-12.3-10.4-16.7L109,35.5c4.5,3.7,7.1,9.3,7,15.1v1.9c5.3,0.1,9.4,4.5,9.3,9.8  c-0.1,5.1-4.2,9.1-9.3,9.3H96.9L95,73.5V85l1.9,1.9H116c13.7,0.1,24.9-11,25-24.7C141.1,53.9,137,46.1,130.2,41.5z" fill="#ffffff"/>
<path class="st2" d="M77.8,86.8h19.1V71.5H77.8c-1.4,0-2.7-0.3-3.9-0.9l-2.7,0.8l-7.7,7.6l-0.7,2.7C67.1,85.1,72.4,86.8,77.8,86.8z" fill="#ffffff"/>
<path class="st3" d="M77.8,37.2c-13.7,0.1-24.8,11.3-24.7,25c0,7.7,3.6,14.9,9.7,19.5l11.1-11.1c-4.8-2.2-6.9-7.8-4.8-12.6  s7.8-6.9,12.6-4.8c2.1,1,3.8,2.7,4.8,4.8l11.1-11.1C92.9,40.8,85.6,37.1,77.8,37.2z" fill="#ffffff"/>
<path class="st4" d="M32.6,118.7c-2.8,0-5.4-1-7.4-3c-4-3.9-4.1-10.3-0.3-14.3c0.1-0.1,0.2-0.2,0.3-0.3c1.9-2,4.6-3.1,7.4-3.1  c2.6,0,5.2,1,7,2.9l-2,2c-1.4-1.3-3.2-2-5.1-2c-2,0-3.9,0.8-5.2,2.2c-2.9,2.9-2.9,7.6,0,10.5c2.9,2.9,7.5,2.9,10.4,0.1  c0.9-1,1.4-2.2,1.5-3.5h-6.7v-2.8h9.5c0.1,0.6,0.1,1.2,0.1,1.7c0.1,2.4-0.8,4.8-2.4,6.6C37.9,117.7,35.3,118.8,32.6,118.7z   M54.6,116.8c-2.6,2.5-6.8,2.5-9.4,0c-2.6-2.6-2.6-6.8,0-9.5c2.6-2.5,6.8-2.5,9.4,0C57.2,110,57.2,114.2,54.6,116.8z M47.2,115  c1.4,1.5,3.6,1.5,5.1,0.2l0.2-0.2c1.5-1.6,1.5-4.1,0-5.8c-1.4-1.5-3.7-1.5-5.2-0.1c0,0,0,0,0,0l-0.1,0.1  C45.7,110.8,45.7,113.3,47.2,115L47.2,115L47.2,115z M69.1,116.8c-2.6,2.5-6.8,2.5-9.4,0c-2.6-2.6-2.6-6.8,0-9.5  c2.6-2.5,6.8-2.5,9.4,0C71.7,110,71.7,114.2,69.1,116.8z M61.7,115c1.4,1.5,3.6,1.5,5.1,0.2L67,115c1.5-1.6,1.5-4.1,0-5.8  c-1.4-1.5-3.7-1.5-5.2-0.1l-0.1,0.1C60.2,110.8,60.2,113.3,61.7,115L61.7,115L61.7,115z M78.6,124.7c-1.3,0-2.6-0.4-3.7-1.2  c-0.9-0.7-1.7-1.7-2.2-2.7l2.5-1.1c0.3,0.6,0.7,1.2,1.3,1.7c0.6,0.5,1.3,0.7,2.1,0.7c1,0.1,1.9-0.3,2.6-1c0.7-0.8,1-1.8,0.9-2.9v-1  H82c-0.9,1-2.1,1.6-3.5,1.5c-1.7,0-3.3-0.7-4.5-1.9c-2.5-2.6-2.5-6.8,0-9.4c1.1-1.2,2.8-2,4.5-2c0.7,0,1.4,0.2,2.1,0.5  c0.6,0.2,1.1,0.6,1.5,1.1h0.1v-1.1h2.8v11.9c0.1,1.9-0.5,3.8-1.8,5.2C82,124.1,80.3,124.7,78.6,124.7L78.6,124.7z M78.8,116.1  c1,0,1.9-0.4,2.5-1.1c0.7-0.8,1-1.8,1-2.9c0-1.1-0.3-2.1-1-2.9c-0.6-0.7-1.6-1.1-2.5-1.1c-1,0-1.9,0.4-2.6,1.1  c-0.7,0.8-1.1,1.8-1.1,2.9c0,1.1,0.4,2.1,1.1,2.9C76.9,115.7,77.8,116.1,78.8,116.1L78.8,116.1z M89.8,98.9v19.5H87V98.9H89.8z   M97.8,118.7c-1.7,0-3.4-0.6-4.6-1.9c-1.2-1.2-1.9-3-1.9-4.7c-0.1-1.8,0.6-3.5,1.8-4.8c1.2-1.2,2.8-1.9,4.5-1.9  c0.8,0,1.5,0.1,2.2,0.4c0.6,0.3,1.2,0.6,1.7,1.1c0.4,0.4,0.8,0.9,1.1,1.4c0.3,0.4,0.5,0.9,0.7,1.3l0.3,0.8l-8.9,3.6  c0.6,1.3,1.8,2.1,3.2,2c1.3,0,2.6-0.7,3.3-1.8l2.2,1.5c-0.6,0.8-1.3,1.5-2.1,2C100.2,118.4,99,118.7,97.8,118.7z M94.1,111.9  l5.9-2.5c-0.2-0.4-0.5-0.8-0.9-1c-0.5-0.3-1-0.4-1.5-0.4c-0.9,0-1.8,0.4-2.4,1.1C94.4,109.8,94,110.8,94.1,111.9L94.1,111.9z   M118.8,118.7c-5.1,0.1-9.2-3.9-9.3-9c0,0,0,0,0,0c0-0.1,0-0.2,0-0.4c-0.1-5.1,3.9-9.3,9-9.4h0.4c2.5-0.1,5,1,6.6,2.9l-1.6,1.5  c-1.2-1.5-3.1-2.4-5-2.3c-1.9,0-3.6,0.7-5,2c-2.7,2.9-2.7,7.4,0,10.4c1.3,1.3,3.1,2,5,2c2.2,0,4.2-0.9,5.6-2.6l1.6,1.6  c-0.8,1-1.9,1.8-3.1,2.3C121.6,118.4,120.2,118.7,118.8,118.7z M130.3,118.3h-2.3v-18h2.3V118.3z M134.1,107.5  c2.5-2.5,6.6-2.5,9.1,0c2.4,2.7,2.4,6.7,0,9.4c-2.5,2.5-6.6,2.5-9.1,0C131.7,114.2,131.7,110.2,134.1,107.5z M135.8,115.4  c1.5,1.6,3.9,1.6,5.5,0.2c0,0,0,0,0,0l0.2-0.2c1.6-1.9,1.6-4.6,0-6.5c-1.5-1.6-3.9-1.6-5.5-0.2c0,0,0,0,0,0l-0.2,0.2  C134.2,110.8,134.2,113.5,135.8,115.4L135.8,115.4z M157.7,118.3h-2.2v-1.7h-0.1c-0.4,0.6-1,1.2-1.6,1.5c-0.7,0.4-1.5,0.6-2.3,0.6  c-1.3,0.1-2.6-0.4-3.5-1.4c-0.8-1.1-1.3-2.4-1.2-3.8V106h2.3v7.2c0,2.3,1,3.4,3,3.4c0.9,0,1.8-0.4,2.3-1.1c0.6-0.8,0.9-1.7,0.9-2.7  V106h2.3L157.7,118.3L157.7,118.3z M165.5,118.7c-1.6,0-3.1-0.7-4.1-1.9c-2.3-2.7-2.3-6.7,0-9.3c1-1.2,2.5-1.9,4.1-1.9  c0.9,0,1.7,0.2,2.5,0.6c0.7,0.3,1.3,0.9,1.7,1.5h0.1l-0.1-1.7v-5.7h2.3v18h-2.2v-1.7h-0.1c-0.4,0.6-1,1.2-1.7,1.5  C167.2,118.5,166.4,118.7,165.5,118.7z M165.9,116.6c1.1,0,2.1-0.4,2.8-1.2c1.5-1.9,1.5-4.6,0-6.5c-1.4-1.5-3.8-1.6-5.3-0.2  c-0.1,0.1-0.2,0.2-0.2,0.2c-1.5,1.9-1.5,4.6,0,6.5C163.8,116.2,164.8,116.6,165.9,116.6L165.9,116.6z" fill="#ffffff"/>
</svg>