<svg width="61" height="61" viewBox="0 0 61 61" fill="none" xmlns="http://www.w3.org/2000/svg">
<path fill-rule="evenodd" clip-rule="evenodd" d="M30.4655 35.4603C30.2983 35.3929 26.3386 33.7615 21.9686 30.5748C16.1374 26.3196 12.4263 21.3108 11.2342 16.0914C9.55308 8.72503 13.6037 3.41192 18.0792 1.59302C22.7416 -0.302064 27.6068 1.28837 30.7496 5.63497C33.8951 1.2884 38.7571 -0.301989 43.423 1.59594C47.8985 3.41499 51.9463 8.72803 50.265 16.0944C49.0758 21.3131 45.3651 26.319 39.5307 30.5748C35.1636 33.7615 31.2007 35.3929 31.0338 35.4603C30.943 35.4984 30.8463 35.5159 30.7497 35.5159C30.653 35.5159 30.5563 35.4984 30.4655 35.4603ZM22.036 2.31012C20.8293 2.31012 19.6723 2.56201 18.6413 2.98085C14.7371 4.57121 11.2111 9.24583 12.6961 15.7598C15.1855 26.6676 28.6208 33.0087 30.7501 33.9519C32.8796 33.0086 46.3175 26.6674 48.8042 15.7598C50.2892 9.24591 46.7656 4.57126 42.8584 2.98375C39.4549 1.59839 34.6572 2.02894 31.3884 7.38014C31.2537 7.60274 31.0106 7.73747 30.7499 7.73747C30.4893 7.73747 30.2461 7.60275 30.1085 7.38014C27.8324 3.64869 24.8097 2.31012 22.036 2.31012ZM36.4235 59.1823C39.0098 59.6421 41.6751 58.8132 43.5438 56.9562L58.3759 42.2152C58.9646 41.6265 59.278 40.8152 59.237 39.9833C59.1959 39.1515 58.8005 38.3753 58.1562 37.851C57.0608 36.9606 55.4791 36.9752 54.4012 37.8891L44.1528 46.5615C44.018 46.6728 43.8452 46.7372 43.6695 46.7372H27.9999C27.584 46.7372 27.2501 46.4033 27.2501 45.9874C27.2501 45.5715 27.584 45.2376 27.9999 45.2376H41.2274V44.3676C41.2274 42.376 39.6018 40.7533 37.6072 40.7533H29.5467C29.4969 40.7533 29.4471 40.7474 29.4002 40.7387L17.4294 38.3632C15.9591 38.0733 14.4507 38.4511 13.2937 39.4001C12.1339 40.349 11.4719 41.752 11.4719 43.2487C11.4719 43.6646 11.138 43.9985 10.7221 43.9985H1.50763C1.09171 43.9985 0.757812 43.6646 0.757812 43.2487C0.757812 42.8328 1.09171 42.4989 1.50763 42.4989H10.0165C10.2098 40.8382 11.0329 39.3151 12.3422 38.2402C13.8476 37.0042 15.8071 36.5121 17.7197 36.8928L29.6171 39.2536L37.6041 39.2565C40.4276 39.2565 42.7239 41.5499 42.7239 44.3705V45.2404H43.3976L53.4353 36.7435C55.0639 35.364 57.448 35.3434 59.1029 36.6849C60.0782 37.4757 60.6728 38.6532 60.7373 39.9068C60.7987 41.1604 60.3243 42.3906 59.4339 43.2751L44.6018 58.0165C42.7917 59.8178 40.349 60.8049 37.8417 60.8049C37.2852 60.8049 36.7199 60.7551 36.1605 60.6555L16.894 57.214H1.50781C1.09189 57.214 0.757993 56.8801 0.757993 56.4642C0.757993 56.0483 1.09189 55.7144 1.50781 55.7144L16.9607 55.7173C17.0047 55.7173 17.0486 55.7202 17.0925 55.729L36.4235 59.1823Z" fill="black"/>
<path fill-rule="evenodd" clip-rule="evenodd" d="M30.4655 35.4603C30.2983 35.3929 26.3386 33.7615 21.9686 30.5748C16.1374 26.3196 12.4263 21.3108 11.2342 16.0914C9.55308 8.72503 13.6037 3.41192 18.0792 1.59302C22.7416 -0.302064 27.6068 1.28837 30.7496 5.63497C33.8951 1.2884 38.7571 -0.301989 43.423 1.59594C47.8985 3.41499 51.9463 8.72803 50.265 16.0944C49.0758 21.3131 45.3651 26.319 39.5307 30.5748C35.1636 33.7615 31.2007 35.3929 31.0338 35.4603C30.943 35.4984 30.8463 35.5159 30.7497 35.5159C30.653 35.5159 30.5563 35.4984 30.4655 35.4603ZM22.036 2.31012C20.8293 2.31012 19.6723 2.56201 18.6413 2.98085C14.7371 4.57121 11.2111 9.24583 12.6961 15.7598C15.1855 26.6676 28.6208 33.0087 30.7501 33.9519C32.8796 33.0086 46.3175 26.6674 48.8042 15.7598C50.2892 9.24591 46.7656 4.57126 42.8584 2.98375C39.4549 1.59839 34.6572 2.02894 31.3884 7.38014C31.2537 7.60274 31.0106 7.73747 30.7499 7.73747C30.4893 7.73747 30.2461 7.60275 30.1085 7.38014C27.8324 3.64869 24.8097 2.31012 22.036 2.31012ZM36.4235 59.1823C39.0098 59.6421 41.6751 58.8132 43.5438 56.9562L58.3759 42.2152C58.9646 41.6265 59.278 40.8152 59.237 39.9833C59.1959 39.1515 58.8005 38.3753 58.1562 37.851C57.0608 36.9606 55.4791 36.9752 54.4012 37.8891L44.1528 46.5615C44.018 46.6728 43.8452 46.7372 43.6695 46.7372H27.9999C27.584 46.7372 27.2501 46.4033 27.2501 45.9874C27.2501 45.5715 27.584 45.2376 27.9999 45.2376H41.2274V44.3676C41.2274 42.376 39.6018 40.7533 37.6072 40.7533H29.5467C29.4969 40.7533 29.4471 40.7474 29.4002 40.7387L17.4294 38.3632C15.9591 38.0733 14.4507 38.4511 13.2937 39.4001C12.1339 40.349 11.4719 41.752 11.4719 43.2487C11.4719 43.6646 11.138 43.9985 10.7221 43.9985H1.50763C1.09171 43.9985 0.757812 43.6646 0.757812 43.2487C0.757812 42.8328 1.09171 42.4989 1.50763 42.4989H10.0165C10.2098 40.8382 11.0329 39.3151 12.3422 38.2402C13.8476 37.0042 15.8071 36.5121 17.7197 36.8928L29.6171 39.2536L37.6041 39.2565C40.4276 39.2565 42.7239 41.5499 42.7239 44.3705V45.2404H43.3976L53.4353 36.7435C55.0639 35.364 57.448 35.3434 59.1029 36.6849C60.0782 37.4757 60.6728 38.6532 60.7373 39.9068C60.7987 41.1604 60.3243 42.3906 59.4339 43.2751L44.6018 58.0165C42.7917 59.8178 40.349 60.8049 37.8417 60.8049C37.2852 60.8049 36.7199 60.7551 36.1605 60.6555L16.894 57.214H1.50781C1.09189 57.214 0.757993 56.8801 0.757993 56.4642C0.757993 56.0483 1.09189 55.7144 1.50781 55.7144L16.9607 55.7173C17.0047 55.7173 17.0486 55.7202 17.0925 55.729L36.4235 59.1823Z" fill="url(#paint0_linear_858_1693)"/>
<defs>
<linearGradient id="paint0_linear_858_1693" x1="30.7502" y1="60.8049" x2="30.7502" y2="35.6936" gradientUnits="userSpaceOnUse">
<stop stop-color="#5934DF"/>
<stop offset="1" stop-color="#DB80EB"/>
</linearGradient>
</defs>
</svg>
