<svg xmlns="http://www.w3.org/2000/svg" xmlns:xlink="http://www.w3.org/1999/xlink" version="1.1" id="Layer_1" x="0px" y="0px" viewBox="0 0 196.5 79.3" style="enable-background:new 0 0 196.5 79.3;" xml:space="preserve">
<style type="text/css">
	.st0{fill:#ffffff;}
</style>
<g>
	<g>
		<polygon class="st0" points="196.4,5.6 163.7,5.6 165.7,0 196.4,0   " fill="#000000"/>
		<path class="st0" d="M109.2,0h30.4l2,5.6h-32.3C109.3,5.6,109.2,0,109.2,0z" fill="#000000"/>
		<path class="st0" d="M85.1,0c5,0.5,9.4,2.3,13.1,5.6h-55V0H85.1z" fill="#000000"/>
		<g>
			<rect class="st0" width="38.2" height="5.6" fill="#000000"/>
		</g>
		<path class="st0" d="M196.4,16.2H160l2-5.6h34.5L196.4,16.2L196.4,16.2z" fill="#000000"/>
		<polygon class="st0" points="145.3,16.2 109.2,16.2 109.2,10.6 143.4,10.6   " fill="#000000"/>
		<path class="st0" d="M102.5,10.6c0.7,1.9,1.6,3.4,1.6,5.6H43.2v-5.6H102.5z" fill="#000000"/>
		<g>
			<rect y="10.6" class="st0" width="38.2" height="5.6" fill="#000000"/>
		</g>
		<polygon class="st0" points="156.2,26.8 158.2,21.2 185.6,21.2 185.6,26.8   " fill="#000000"/>
		<polygon class="st0" points="147.1,21.2 149.1,26.8 120,26.8 120,21.2   " fill="#000000"/>
		<path class="st0" d="M104.5,21.2c0,1.9-0.2,3.9-0.8,5.6H87.1v-5.6H104.5z" fill="#000000"/>
		<g>
			<rect x="10.7" y="21.2" class="st0" width="16.4" height="5.6" fill="#000000"/>
		</g>
		<g>
			<rect x="54.3" y="21.2" class="st0" width="16.4" height="5.6" fill="#000000"/>
		</g>
		<path class="st0" d="M136.2,32.9v4.3H120v-5.6h30.8l1.9,5.2l1.8-5.2h31v5.6h-16.1v-4.3l-1.5,4.3h-30.4L136.2,32.9z" fill="#000000"/>
		<path class="st0" d="M54.3,31.6h47.1l0,0c-1,1.9-2.9,4.2-4.7,5.6H54.3C54.2,37.2,54.3,31.6,54.3,31.6z" fill="#000000"/>
		<g>
			<rect x="10.7" y="31.6" class="st0" width="16.4" height="5.6" fill="#000000"/>
		</g>
		<g>
			<rect x="169.5" y="42.1" class="st0" width="16.1" height="5.6" fill="#000000"/>
		</g>
		<path class="st0" d="M136.2,42.1H120v5.6h16.2C136.2,47.8,136.2,42.1,136.2,42.1z" fill="#000000"/>
		<path class="st0" d="M166.3,42.1c-0.1,0-1.9,5.6-2,5.6h-22.9l-2-5.6H166.3z" fill="#000000"/>
		<path class="st0" d="M54.2,42.1h42.3c1.9,1.6,3.7,3.6,5,5.6c0.1,0-47.4,0-47.4,0C54.2,47.8,54.2,42.1,54.2,42.1z" fill="#000000"/>
		<path class="st0" d="M27.1,47.8v-5.6H10.7v5.6H27.1z" fill="#000000"/>
		<g>
			<rect x="169.5" y="52.7" class="st0" width="16.1" height="5.6" fill="#000000"/>
		</g>
		<g>
			<rect x="120" y="52.7" class="st0" width="16.2" height="5.6" fill="#000000"/>
		</g>
		<path class="st0" d="M160.5,58.4l2-5.6H143l2,5.6H160.5z" fill="#000000"/>
		<path class="st0" d="M54.2,58.3v-5.6h16.6v5.6C70.9,58.3,54.2,58.3,54.2,58.3z" fill="#000000"/>
		<path class="st0" d="M104,52.7c0.8,1.7,0.9,3.7,1,5.6H87.4v-5.6H104z" fill="#000000"/>
		<g>
			<rect x="10.7" y="52.7" class="st0" width="16.4" height="5.6" fill="#000000"/>
		</g>
		<g>
			<rect x="169.5" y="63.1" class="st0" width="26.9" height="5.6" fill="#000000"/>
		</g>
		<g>
			<rect x="109.2" y="63.1" class="st0" width="26.9" height="5.6" fill="#000000"/>
		</g>
		<polygon class="st0" points="156.9,68.7 148.7,68.7 146.7,63.1 158.8,63.1   " fill="#000000"/>
		<path class="st0" d="M0,63.1v5.6h38.2v-5.6H0z" fill="#000000"/>
		<path class="st0" d="M104.3,63.1c-0.4,1.9-0.8,4.1-2.1,5.6h-0.5H43.2v-5.6H104.3z" fill="#000000"/>
		<polygon class="st0" points="153.2,79.3 152.4,79.3 150.5,73.7 155.2,73.7   " fill="#000000"/>
		<g>
			<rect x="169.5" y="73.7" class="st0" width="26.9" height="5.6" fill="#000000"/>
		</g>
		<path class="st0" d="M43.2,79.3v-5.6c0,0,55.2,0,55.3,0c-3.7,3.5-8.8,5.5-14.3,5.6H43.2" fill="#000000"/>
		<g>
			<rect x="109.2" y="73.7" class="st0" width="26.9" height="5.6" fill="#000000"/>
		</g>
		<path class="st0" d="M38.2,73.7v5.6H0v-5.6H38.2z" fill="#000000"/>
	</g>
</g>
</svg>