<svg width="59" height="61" viewBox="0 0 59 61" fill="none" xmlns="http://www.w3.org/2000/svg">
<path d="M56.8409 45.8732C53.7094 42.1753 48.2259 41.5957 44.3948 44.5606L39.6376 39.8034C41.6698 37.5247 42.8691 34.6264 43.0423 31.5815H46.327C46.7401 33.7336 48.719 35.2194 50.8977 35.0129C53.0831 34.8063 54.7488 32.974 54.7488 30.782C54.7488 28.5899 53.0831 26.7577 50.8977 26.5511C48.719 26.3446 46.7335 27.8304 46.327 29.9825H43.0423C42.8691 26.9376 41.6698 24.0392 39.6376 21.7606L44.3948 17.0033C48.2259 19.9683 53.7094 19.3953 56.8409 15.6974C59.9724 11.9996 59.6393 6.49614 56.0814 3.20472C52.5301 -0.0866928 47.0133 0.00658643 43.5687 3.40461C40.124 6.80929 39.9708 12.3194 43.2222 15.9107L38.5116 20.6212C36.2329 18.5891 33.3346 17.3898 30.2897 17.2166V13.9318C32.4418 13.5187 33.9276 11.5399 33.7211 9.36114C33.5145 7.17574 31.6822 5.51005 29.4902 5.51005C27.2981 5.51005 25.4659 7.17574 25.2593 9.36114C25.0528 11.5399 26.5386 13.5254 28.6907 13.9318V17.2166C25.6458 17.3898 22.7541 18.5891 20.4754 20.6212L15.7649 15.9107C19.0163 12.3194 18.8697 6.80929 15.4317 3.39794C11.9937 0.0132492 6.47693 -0.0866928 2.919 3.20472C-0.638922 6.48948 -0.978724 11.9996 2.14612 15.6974C5.27763 19.3953 10.7611 19.9816 14.5922 17.0167L19.3494 21.7739C17.3173 24.0526 16.118 26.9509 15.9447 29.9958H12.66C12.2469 27.8437 10.2681 26.3579 8.08933 26.5644C5.90393 26.771 4.23824 28.6033 4.23824 30.7953C4.23824 32.9874 5.90393 34.8196 8.08933 35.0262C10.2681 35.2327 12.2536 33.7469 12.66 31.5948H15.9447C16.118 34.6397 17.3239 37.5381 19.3494 39.8167L14.5922 44.5739C10.7611 41.609 5.27763 42.182 2.14612 45.8799C-0.985386 49.5777 -0.652247 55.0812 2.89902 58.3726C6.45028 61.664 11.9671 61.5707 15.4117 58.1727C18.8564 54.768 19.0096 49.2579 15.7582 45.6666L20.4688 40.9561C22.7474 42.9882 25.6458 44.1875 28.6907 44.3607V47.6455C26.5386 48.0586 25.0528 50.0374 25.2593 52.2162C25.4659 54.4016 27.2981 56.0672 29.4902 56.0672C31.6822 56.0672 33.5145 54.4016 33.7211 52.2162C33.9276 50.0374 32.4418 48.0519 30.2897 47.6455V44.3607C33.3346 44.1875 36.2329 42.9882 38.5049 40.9561L43.2155 45.6666C39.9641 49.2579 40.1173 54.7747 43.562 58.1794C47.0067 61.584 52.5234 61.6773 56.0747 58.3859C59.6326 55.0945 59.9658 49.591 56.8343 45.8932L56.8409 45.8732ZM49.4852 28.3367C50.478 27.9303 51.6173 28.1568 52.3769 28.9097C53.4096 29.9491 53.4096 31.6215 52.3769 32.6609C51.6173 33.4204 50.478 33.647 49.4852 33.2339C48.4991 32.8208 47.8462 31.8547 47.8462 30.782C47.8462 29.7093 48.4925 28.7432 49.4852 28.3301V28.3367ZM42.476 9.86084C42.476 6.8426 44.2949 4.12419 47.0799 2.97153C49.865 1.81886 53.0764 2.45849 55.2085 4.59058C58.1202 7.50222 58.1202 12.2261 55.2085 15.1311C53.0764 17.2632 49.8717 17.9028 47.0799 16.7502C44.2949 15.5975 42.476 12.8791 42.476 9.86084ZM14.3257 15.1311C12.1936 17.2632 8.9888 17.9028 6.20376 16.7502C3.41871 15.5975 1.59977 12.8791 1.59977 9.86084C1.59977 6.8426 3.41871 4.12419 6.20376 2.97153C8.9888 1.81886 12.2003 2.45849 14.3257 4.59058C17.2373 7.50222 17.2373 12.2261 14.3257 15.1311ZM10.3613 32.6676C9.60178 33.4271 8.46244 33.6536 7.46969 33.2406C6.47693 32.8275 5.83064 31.8614 5.83064 30.7886C5.83064 29.7159 6.47693 28.7498 7.46969 28.3367C8.45578 27.9303 9.60178 28.1568 10.3613 28.9097C11.3941 29.9491 11.3941 31.6215 10.3613 32.6609V32.6676ZM14.3257 56.9934C12.1936 59.1255 8.9888 59.7651 6.20376 58.6124C3.41871 57.4598 1.59977 54.7414 1.59977 51.7231C1.59977 48.7049 3.41871 45.9865 6.20376 44.8338C8.9888 43.6811 12.2003 44.3141 14.3257 46.4529C17.2373 49.3645 17.2373 54.0817 14.3257 56.9934ZM28.4774 12.2328C27.4847 11.8197 26.8384 10.8536 26.8384 9.78089C26.8384 8.70818 27.4847 7.74208 28.4774 7.32899C29.4702 6.91589 30.6095 7.14243 31.3691 7.90199C32.4018 8.93472 32.4018 10.6137 31.3691 11.6531C30.6095 12.4127 29.4702 12.6392 28.4774 12.2261V12.2328ZM31.3691 49.9242C32.4018 50.9569 32.4018 52.6359 31.3691 53.6753C30.6095 54.4349 29.4702 54.6614 28.4774 54.2483C27.4847 53.8352 26.8384 52.8691 26.8384 51.7964C26.8384 50.7237 27.4847 49.7576 28.4774 49.3445C29.4635 48.9314 30.6095 49.1579 31.3691 49.9175V49.9242ZM35.48 41.1626C32.2552 43.0282 28.3509 43.2814 24.9062 41.8555C21.4682 40.4297 18.883 37.4847 17.9236 33.8868C16.9575 30.2889 17.7237 26.4512 19.9891 23.4996C22.2544 20.548 25.7657 18.8156 29.4902 18.809C32.6683 18.809 35.7132 20.0682 37.9586 22.3203C40.5904 24.9521 41.8497 28.6632 41.3633 32.3544C40.8769 36.0456 38.6982 39.3037 35.4734 41.1626H35.48ZM55.2019 56.9934C53.0698 59.1255 49.865 59.7651 47.0733 58.6124C44.2882 57.4598 42.4693 54.7414 42.4693 51.7231C42.4693 48.7049 44.2882 45.9865 47.0733 44.8338C49.8583 43.6811 53.0698 44.3141 55.2019 46.4529C58.1135 49.3645 58.1135 54.0817 55.2019 56.9934Z" fill="url(#paint0_linear_455_724)"/>
<defs>
<linearGradient id="paint0_linear_455_724" x1="29.4932" y1="60.7949" x2="29.4932" y2="0.794922" gradientUnits="userSpaceOnUse">
<stop stop-color="#5934DF"/>
<stop offset="1" stop-color="#DB80EB"/>
</linearGradient>
</defs>
</svg>
