<svg width="60" height="61" viewBox="0 0 60 61" fill="none" xmlns="http://www.w3.org/2000/svg">
<path d="M59.5093 24.8155L50.6008 19.67C50.3008 19.4939 49.9356 19.4939 49.6356 19.67L45.7357 21.9199L39.8337 17.4722C39.8598 17.3874 39.8728 17.2961 39.8728 17.1983V6.91378C39.8728 6.56813 39.6902 6.24858 39.3968 6.07902L30.4818 0.926984C30.1818 0.750901 29.8166 0.750901 29.5166 0.926984L20.6081 6.0725C20.3081 6.24858 20.1255 6.56161 20.1255 6.90726V17.1918C20.1255 17.2831 20.1386 17.3744 20.1647 17.4657L14.2627 21.9134L10.3628 19.6634C10.0628 19.4873 9.69756 19.4873 9.39757 19.6634L0.489117 24.8155C0.189125 24.985 0 25.3046 0 25.6502V35.9347C0 36.2804 0.182604 36.5999 0.482596 36.7695L9.39105 41.915C9.54104 41.9998 9.71061 42.0454 9.87364 42.0454C10.0367 42.0454 10.2062 41.9998 10.3562 41.915L18.1169 37.4347L23.7841 41.7063L20.5951 43.5454C20.2951 43.7215 20.1125 44.0345 20.1125 44.3802V54.6647C20.1125 55.0103 20.2951 55.3299 20.5951 55.4994L29.5035 60.6449C29.6666 60.7493 29.8296 60.7949 30.0057 60.7949C30.1818 60.7949 30.3383 60.7493 30.4883 60.6645L39.3968 55.519C39.6967 55.3494 39.8794 55.0299 39.8794 54.6842V44.3932C39.8794 44.0476 39.6967 43.728 39.4033 43.5584L36.2142 41.7194L41.8815 37.4477L49.6421 41.928C49.7921 42.0128 49.9617 42.0585 50.1247 42.0585C50.2878 42.0585 50.4573 42.0128 50.6073 41.928L59.5158 36.7825C59.8158 36.6064 59.9984 36.2934 59.9984 35.9478V25.6502C60.0114 25.3046 59.8223 24.985 59.5223 24.8155H59.5093ZM33.8665 15.3983L36.5599 17.4331L30.9579 20.6678V12.6136L37.9294 8.58982V16.044L35.0338 13.8527C34.6099 13.5332 34.0034 13.6179 33.6773 14.0418C33.3578 14.4657 33.4426 15.0723 33.8665 15.3983ZM29.9992 2.88345L36.9707 6.90726L29.9992 10.9376L23.0276 6.91378L29.9992 2.88345ZM22.0559 8.58982L29.0275 12.6136V20.6678L23.4254 17.4331L26.1189 15.3983C26.5428 15.0788 26.6275 14.4723 26.308 14.0418C25.9884 13.6179 25.3819 13.5332 24.9515 13.8527L22.0494 16.044V8.58982H22.0559ZM8.90845 39.4042L1.9369 35.3804V27.3263L8.90845 31.3501V39.4042ZM9.88017 29.6805L2.90862 25.6502L9.88017 21.6264L16.8517 25.6502L9.88017 29.674V29.6805ZM17.8169 34.7869L14.9148 32.5957C14.4909 32.2761 13.8844 32.3609 13.5583 32.7848C13.2388 33.2087 13.3236 33.8152 13.7475 34.1413L16.4409 36.176L10.8454 39.4042V31.3566L17.8169 27.3328V34.7869ZM29.0275 58.1537L22.0559 54.1299V46.0758L29.0275 50.0996V58.1537ZM37.9359 54.1234L30.9644 58.1472V50.093L37.9359 46.0692V54.1234ZM36.9707 44.3932L29.9992 48.417L23.0276 44.3932L29.9992 40.3694L36.9707 44.3932ZM40.7272 24.8089C40.4272 24.9785 40.2446 25.2981 40.2446 25.6437V35.9282C40.2446 36.0195 40.2576 36.1108 40.2837 36.2021L34.3817 40.6498L30.4818 38.4129C30.1818 38.2368 29.8166 38.2368 29.5166 38.4129L25.6167 40.6629L19.7147 36.2152C19.7408 36.1304 19.7538 36.0391 19.7538 35.9412V25.6502C19.7538 25.3046 19.5712 24.985 19.2777 24.8155L16.0887 22.9699L21.7559 18.6982L29.5166 23.1786C29.6666 23.2633 29.8361 23.309 29.9992 23.309C30.1622 23.309 30.3318 23.2633 30.4818 23.1786L38.2424 18.6982L43.9227 22.9699L40.7337 24.8089H40.7272ZM49.1465 39.4042L43.5445 36.1695L46.2379 34.1348C46.6748 33.8152 46.7596 33.2087 46.4335 32.7848C46.114 32.3609 45.5075 32.2761 45.077 32.5957L42.1749 34.7869V27.3263L49.1465 31.3501V39.4042ZM50.1182 29.674L43.1467 25.6502L50.1182 21.6264L57.0898 25.6502L50.1182 29.674ZM58.0549 35.3804L51.0834 39.3977V31.3501L58.0549 27.3263V35.3804Z" fill="url(#paint0_linear_455_706)"/>
<defs>
<linearGradient id="paint0_linear_455_706" x1="29.9995" y1="60.7949" x2="29.9995" y2="0.794922" gradientUnits="userSpaceOnUse">
<stop stop-color="#5934DF"/>
<stop offset="1" stop-color="#DB80EB"/>
</linearGradient>
</defs>
</svg>
