<svg width="59" height="61" viewBox="0 0 59 61" fill="none" xmlns="http://www.w3.org/2000/svg">
<path d="M52.8991 13.8868H52.8193V3.8696C52.818 2.1726 51.4416 0.796209 49.7446 0.794922H9.16609C7.4691 0.796209 6.0927 2.1726 6.09142 3.8696V13.8868H6.01159C2.70386 13.8868 0 16.1438 0 18.9185V41.7198C0 44.4945 2.69742 46.7516 6.01159 46.7516H23.6305V52.7554H22.7511C20.5313 52.758 18.7339 54.5554 18.7313 56.7752V59.7649C18.7313 60.334 19.1923 60.7949 19.7614 60.7949H39.1494C39.7185 60.7949 40.1794 60.334 40.1794 59.7649V56.7752C40.1768 54.5554 38.3794 52.758 36.1597 52.7554H35.2803V46.7516H52.8991C56.2133 46.7516 58.9107 44.4945 58.9107 41.7198V18.9185C58.9107 16.1438 56.2133 13.8868 52.8991 13.8868ZM8.1515 12.3353H50.7592V35.658C50.7579 36.2181 50.3047 36.6713 49.7446 36.6726H9.16609C8.60601 36.6713 8.15279 36.2181 8.1515 35.658V12.3353ZM9.16609 2.85501H49.7446C50.3047 2.8563 50.7579 3.30951 50.7592 3.8696V10.2752H8.1515V3.8696C8.15279 3.30951 8.60601 2.8563 9.16609 2.85501ZM38.1193 56.7752V58.7348H20.7914V56.7752C20.7927 55.6936 21.6695 54.8168 22.7511 54.8155H36.1597C37.2412 54.8168 38.118 55.6936 38.1193 56.7752ZM33.2202 52.7554H25.6906V46.7516H33.2202V52.7554ZM56.8506 41.7198C56.8506 43.3305 55.0403 44.6915 52.8991 44.6915H6.01159C3.87039 44.6915 2.06009 43.3305 2.06009 41.7198V18.9185C2.06009 17.3078 3.87039 15.9469 6.01159 15.9469H6.09142V35.658C6.09399 37.355 7.4691 38.7301 9.16609 38.7327H49.7446C51.4416 38.7301 52.8167 37.355 52.8193 35.658V15.9469H52.8991C55.0403 15.9469 56.8506 17.3078 56.8506 18.9185V41.7198ZM42.1918 9.35329C43.7305 9.352 44.9781 8.10436 44.9794 6.56574V6.56316C44.9794 5.02325 43.7292 3.77432 42.1893 3.77561C40.6494 3.77561 39.4004 5.02582 39.4017 6.56574C39.4017 8.10565 40.6519 9.35458 42.1918 9.35329ZM42.1918 5.83698C42.5936 5.83698 42.9193 6.16402 42.9193 6.56574C42.9193 6.97003 42.5923 7.29578 42.1893 7.29449C41.7863 7.2932 41.4605 6.96745 41.4618 6.56445C41.4618 6.16145 41.7888 5.83569 42.1918 5.83698ZM35.2674 9.35329C36.806 9.352 38.0536 8.10436 38.0549 6.56574V6.56316C38.0549 5.02325 36.8047 3.77432 35.2648 3.77561C33.7249 3.77561 32.476 5.02582 32.4773 6.56574C32.4773 8.10565 33.7275 9.35458 35.2674 9.35329ZM35.2674 5.83698C35.6691 5.83698 35.9949 6.16402 35.9949 6.56574C35.9949 6.97003 35.6678 7.29578 35.2648 7.29449C34.8618 7.29449 34.536 6.96745 34.5373 6.56445C34.5386 6.16145 34.8644 5.83569 35.2674 5.83698ZM11.7064 23.8846C11.7644 23.8074 11.8326 23.7391 11.9099 23.6812L20.933 16.8893C21.3876 16.5469 22.0339 16.6383 22.3764 17.0928C22.7189 17.5473 22.6275 18.1936 22.1717 18.5361L14.2416 24.5052L22.1717 30.4743C22.6262 30.8155 22.7189 31.4619 22.3777 31.9164C22.1833 32.1765 21.8768 32.3284 21.5524 32.3284C21.3283 32.3271 21.112 32.2537 20.933 32.1198L11.9099 25.3267C11.4554 24.9842 11.3652 24.3391 11.7064 23.8846ZM25.0468 18.8065C24.7622 18.3134 24.9309 17.6838 25.424 17.3992C25.9172 17.1147 26.5468 17.2833 26.8313 17.7765L33.8639 29.958C34.1485 30.4511 33.9798 31.0808 33.4867 31.3653C33.3309 31.4554 33.1532 31.5031 32.973 31.5031C32.6047 31.5031 32.2635 31.3074 32.0794 30.9881L25.0468 18.8065ZM36.7391 30.473L44.6691 24.5039L36.7391 18.5348C36.2923 18.182 36.215 17.5344 36.5678 17.0876C36.909 16.655 37.5296 16.5675 37.9777 16.8893L47.0009 23.6825C47.4554 24.025 47.5468 24.67 47.2043 25.1245C47.1464 25.2018 47.0781 25.27 47.0009 25.328L37.9777 32.1211C37.7987 32.255 37.5811 32.3271 37.3584 32.3271C36.7893 32.3271 36.3283 31.8675 36.327 31.2984C36.327 30.9739 36.479 30.6675 36.7391 30.473ZM10.0597 6.56574C10.0597 5.99664 10.5206 5.53569 11.0897 5.53569H29.006C29.5751 5.53569 30.0361 5.99664 30.0361 6.56574C30.0361 7.13484 29.5751 7.59578 29.006 7.59578H11.0897C10.5206 7.59578 10.0597 7.13484 10.0597 6.56574Z" fill="url(#paint0_linear_455_715)"/>
<defs>
<linearGradient id="paint0_linear_455_715" x1="29.4554" y1="60.7949" x2="29.4554" y2="0.794922" gradientUnits="userSpaceOnUse">
<stop stop-color="#5934DF"/>
<stop offset="1" stop-color="#DB80EB"/>
</linearGradient>
</defs>
</svg>
