<svg width="63" height="61" viewBox="0 0 63 61" fill="none" xmlns="http://www.w3.org/2000/svg">
<path d="M10.8823 8.32668H5.07381V6.50038H10.8823V8.32668ZM16.059 11.533H5.07381V13.3593H16.0522V11.533H16.059ZM47.6073 26.4317H56.6838V24.6054H47.6073V26.4317ZM62.2932 3.2666V44.0493C62.2932 45.4156 61.1878 46.521 59.8215 46.521H39.6292L40.9955 48.924L42.6296 51.8008H50.6145C51.6924 51.8214 52.7085 52.3294 53.3608 53.1945C54.0474 54.0802 54.4181 55.1719 54.4113 56.2978V59.8818C54.4113 60.3898 53.9993 60.7949 53.4981 60.7949H8.80879C8.30072 60.7949 7.89564 60.383 7.89564 59.8818V56.291C7.88877 55.1719 8.25266 54.0733 8.93924 53.1876C9.59149 52.3294 10.6076 51.8145 11.6855 51.7939H19.6704L22.6639 46.5141H2.47168C1.10539 46.5141 0 45.4087 0 44.0424V3.2666C0 1.90031 1.10539 0.794922 2.47168 0.794922H59.8215C61.1878 0.794922 62.2932 1.90031 62.2932 3.2666ZM11.6855 53.6202C11.1637 53.6408 10.6763 53.9017 10.3673 54.3274C9.93478 54.8904 9.70821 55.5769 9.72194 56.2841V58.9549H52.5712V56.2841C52.585 55.5769 52.3584 54.8904 51.9327 54.3274C51.6238 53.9017 51.1363 53.6408 50.6076 53.6202H11.6855ZM37.5352 46.5141H24.7648L21.7714 51.7939H40.5287L37.5352 46.5141ZM60.4669 40.5958H1.8263V44.0493C1.8263 44.4063 2.11466 44.6878 2.47168 44.6947H59.8215C60.1785 44.6947 60.46 44.4063 60.4669 44.0493V40.5958ZM60.4669 3.2666C60.4669 2.90958 60.1785 2.62808 59.8215 2.62122H2.47168C2.11466 2.62122 1.83316 2.90958 1.8263 3.2666V38.7627H60.46V3.2666H60.4669ZM16.0522 16.5725H5.07381V18.4056H16.0522V16.5725ZM42.5266 21.303V35.3298C42.5266 35.8378 42.1147 36.2429 41.6135 36.2429H37.2194C36.7113 36.2429 36.3062 35.831 36.3062 35.3298V21.2961C36.3062 20.7949 36.7113 20.383 37.2194 20.383H41.6135C42.1215 20.383 42.5266 20.7881 42.5266 21.2961V21.303ZM40.6934 22.2161H38.1325V34.4166H40.6934V22.2161ZM47.6004 33.8399H56.677V32.0136H47.6004V33.8399ZM26.7491 21.2961V35.3298C26.7491 35.8378 26.344 36.2429 25.8359 36.2429H21.4418C20.9337 36.2429 20.5287 35.831 20.5287 35.3298V21.2961C20.5287 20.7881 20.9406 20.383 21.4418 20.383H25.8359C26.3371 20.383 26.7491 20.7881 26.7491 21.2961ZM24.9228 34.4166V22.2161H22.3618V34.4166H24.9228ZM47.6073 30.1392H56.6838V28.3061H47.6073V30.1392ZM46.8795 11.6428C46.4126 11.6428 45.9595 11.5261 45.5475 11.3064L42.1353 13.8124C42.4168 15.316 41.4281 16.7647 39.9245 17.0462C38.4209 17.3277 36.9722 16.339 36.6907 14.8354C36.5808 14.2587 36.6564 13.6682 36.9104 13.1396L33.3333 9.61744C32.2348 10.5581 30.5939 10.4963 29.5709 9.47326C29.5572 9.45953 29.5434 9.45266 29.5366 9.43893L26.2959 12.0479C26.3714 12.3088 26.4126 12.5835 26.4126 12.8581C26.4126 14.3892 25.1699 15.625 23.6389 15.625C22.1078 15.625 20.872 14.3823 20.872 12.8512C20.872 11.3202 22.1147 10.0843 23.6389 10.0843C24.2019 10.0843 24.7511 10.256 25.218 10.5787L28.7676 7.72249C28.7676 7.65383 28.7607 7.58517 28.7607 7.51651C28.7607 5.98545 30.0034 4.74274 31.5276 4.74274C33.0587 4.74274 34.3014 5.98545 34.3014 7.50965C34.3014 7.66756 34.2877 7.81861 34.2671 7.97652L38.1943 11.842C39.1898 11.3476 40.3845 11.4987 41.229 12.2264L44.3254 9.947C43.735 8.53265 44.401 6.90546 45.8153 6.315C46.1517 6.17082 46.5225 6.10217 46.8864 6.10217C48.4174 6.12963 49.6395 7.39293 49.6121 8.924C49.5915 10.4207 48.3831 11.6291 46.8864 11.6497L46.8795 11.6428ZM24.5863 12.8512C24.5863 12.6041 24.4902 12.3638 24.3117 12.1852C23.941 11.8145 23.3505 11.8145 22.9797 12.1852C22.8012 12.3638 22.7051 12.6041 22.7051 12.8512C22.7051 13.373 23.1239 13.7918 23.6457 13.7918C24.1675 13.7918 24.5863 13.373 24.5863 12.8512ZM32.4751 7.50965C32.4751 7.26248 32.379 7.01531 32.2005 6.84367C31.8435 6.46605 31.2461 6.45232 30.8685 6.80934C30.4909 7.16636 30.4772 7.76368 30.8342 8.1413C30.8479 8.15503 30.8548 8.1619 30.8685 8.17563C31.2393 8.54638 31.8366 8.54638 32.2005 8.17563C32.379 7.99712 32.4751 7.75682 32.4751 7.50965ZM40.3639 14.3205C40.3639 14.0733 40.2678 13.833 40.0893 13.6545C39.7185 13.2838 39.1212 13.2838 38.7504 13.6545C38.3797 14.0253 38.3797 14.6226 38.7504 14.9933C39.1212 15.3641 39.7185 15.3641 40.0893 14.9933C40.2678 14.8148 40.3708 14.5745 40.3708 14.3205H40.3639ZM47.5524 8.20309C47.3738 8.02458 47.1335 7.92846 46.8864 7.92846C46.6392 7.92846 46.3989 8.02458 46.2204 8.20309C45.8496 8.56698 45.8428 9.1643 46.2067 9.53505C46.5705 9.9058 47.1679 9.91267 47.5386 9.54878C47.5386 9.54878 47.5455 9.54192 47.5524 9.53505C47.9231 9.1643 47.9231 8.56698 47.5524 8.20309ZM34.6447 16.2498V35.3298C34.6447 35.8378 34.2328 36.2429 33.7316 36.2429H29.3443C28.8363 36.2429 28.4312 35.831 28.4312 35.3298V16.2498C28.4312 15.7417 28.8431 15.3366 29.3443 15.3366H33.7316C34.2396 15.3366 34.6447 15.7486 34.6447 16.2498ZM32.8184 17.1629H30.2575V34.4166H32.8184V17.1629ZM18.874 26.5004V35.3366C18.874 35.8378 18.4689 36.2498 17.9609 36.2498H13.5668C13.0587 36.2498 12.6536 35.8378 12.6536 35.3366V26.5004C12.6536 25.9923 13.0656 25.5872 13.5668 25.5872H17.9609C18.4621 25.5872 18.874 25.9992 18.874 26.5004ZM17.0477 27.4135H14.4868V34.4235H17.0477V27.4135Z" fill="url(#paint0_linear_455_700)"/>
<defs>
<linearGradient id="paint0_linear_455_700" x1="31.1466" y1="60.7949" x2="31.1466" y2="0.794922" gradientUnits="userSpaceOnUse">
<stop stop-color="#5934DF"/>
<stop offset="1" stop-color="#DB80EB"/>
</linearGradient>
</defs>
</svg>
