<svg width="60" height="61" viewBox="0 0 60 61" fill="none" xmlns="http://www.w3.org/2000/svg">
<path d="M41.5688 24.0574C44.5875 24.0574 47.0437 21.6012 47.0437 18.5824C47.0437 15.5637 44.5875 13.1074 41.5688 13.1074C38.55 13.1074 36.0938 15.5637 36.0938 18.5824C36.0938 21.6012 38.55 24.0574 41.5688 24.0574ZM41.5688 14.5637C43.7812 14.5637 45.5812 16.3637 45.5812 18.5762C45.5812 20.7887 43.7812 22.5887 41.5688 22.5887C39.3563 22.5887 37.5563 20.7887 37.5563 18.5762C37.5563 16.3637 39.3563 14.5637 41.5688 14.5637ZM59.35 18.5762C59.35 28.3824 51.375 36.3574 41.5688 36.3574C36.8875 36.3574 32.3625 34.5199 29.1562 31.3074C26.225 28.3699 22.0813 26.6887 17.7812 26.6887C8.78125 26.6887 1.4625 34.0074 1.4625 43.0074C1.4625 52.0074 8.78125 59.3262 17.7812 59.3262C26.7812 59.3262 34.1 52.0074 34.1 43.0074C34.1 41.9449 34 40.8949 33.8 39.8637L33.3937 40.5949C33.2 40.9512 32.7562 41.0762 32.4 40.8824C32.0438 40.6887 31.9188 40.2449 32.1125 39.8887L33.4125 37.5324C33.6063 37.1762 34.05 37.0512 34.4062 37.2449L36.7625 38.5387C37.1188 38.7324 37.2437 39.1762 37.05 39.5324C36.8563 39.8887 36.4125 40.0137 36.0562 39.8199L35.1938 39.3449C35.4438 40.5449 35.5687 41.7699 35.5687 43.0012C35.5625 52.8199 27.5875 60.7949 17.7812 60.7949C7.975 60.7949 0 52.8199 0 43.0137C0 33.2074 7.975 25.2324 17.7812 25.2324C22.4625 25.2324 26.9875 27.0699 30.1938 30.2824C33.125 33.2199 37.2688 34.9012 41.5688 34.9012C50.5688 34.9012 57.8875 27.5824 57.8875 18.5824C57.8875 9.58242 50.5688 2.26367 41.5688 2.26367C32.5688 2.26367 25.25 9.58242 25.25 18.5824C25.25 19.6449 25.35 20.6949 25.55 21.7262L25.9562 20.9949C26.15 20.6387 26.5938 20.5137 26.95 20.7074C27.3062 20.9012 27.4313 21.3449 27.2375 21.7012L25.9375 24.0574C25.7437 24.4137 25.3 24.5387 24.9438 24.3449L22.5875 23.0449C22.2312 22.8512 22.1063 22.4074 22.3 22.0512C22.4937 21.6949 22.9375 21.5699 23.2938 21.7637L24.1562 22.2387C23.9062 21.0387 23.7812 19.8137 23.7812 18.5824C23.7875 8.76992 31.7625 0.794922 41.5688 0.794922C51.375 0.794922 59.35 8.76992 59.35 18.5762ZM17.7812 37.5324C14.7625 37.5324 12.3063 39.9887 12.3063 43.0074C12.3063 46.0262 14.7625 48.4824 17.7812 48.4824C20.8 48.4824 23.2562 46.0262 23.2562 43.0074C23.2562 39.9887 20.8 37.5324 17.7812 37.5324ZM17.7812 47.0262C15.5688 47.0262 13.7688 45.2262 13.7688 43.0137C13.7688 40.8012 15.5688 39.0012 17.7812 39.0012C19.9937 39.0012 21.7937 40.8012 21.7937 43.0137C21.7937 45.2262 19.9937 47.0262 17.7812 47.0262ZM30.6875 16.0387C30.0062 16.1637 29.5125 16.7512 29.5125 17.4449V19.7074C29.5125 20.4012 30.0062 20.9887 30.6875 21.1137L31.9312 21.3387C32.1375 22.0637 32.4313 22.7699 32.8 23.4387L32.0813 24.4762C31.6875 25.0449 31.7563 25.8137 32.2438 26.3012L33.8438 27.9012C34.3312 28.3887 35.1 28.4574 35.6688 28.0637L36.7062 27.3449C37.3688 27.7137 38.075 28.0074 38.8063 28.2137L39.0312 29.4574C39.1562 30.1387 39.7437 30.6324 40.4375 30.6324H42.7C43.3937 30.6324 43.9813 30.1387 44.1063 29.4574L44.3312 28.2137C45.0563 28.0074 45.7625 27.7137 46.4313 27.3449L47.4688 28.0637C48.0375 28.4574 48.8063 28.3887 49.2938 27.9012L50.8937 26.3012C51.3812 25.8137 51.45 25.0449 51.0563 24.4762L50.3375 23.4387C50.7062 22.7762 51 22.0699 51.2062 21.3387L52.45 21.1137C53.1312 20.9887 53.625 20.4012 53.625 19.7074V17.4449C53.625 16.7512 53.1312 16.1637 52.45 16.0387L51.2062 15.8137C51 15.0887 50.7062 14.3824 50.3375 13.7137L51.0563 12.6762C51.45 12.1074 51.3812 11.3387 50.8937 10.8512L49.2938 9.25117C48.8063 8.76367 48.0375 8.69492 47.4688 9.08867L46.4313 9.80742C45.7687 9.43867 45.0625 9.14492 44.3312 8.93867L44.1063 7.69492C43.9813 7.01367 43.3937 6.51992 42.7 6.51992H40.4375C39.7437 6.51992 39.1562 7.01367 39.0312 7.69492L38.8063 8.93867C38.0812 9.14492 37.375 9.43867 36.7062 9.80742L35.6688 9.08867C35.1 8.69492 34.3312 8.76367 33.8438 9.25117L32.2438 10.8512C31.7563 11.3387 31.6875 12.1074 32.0813 12.6762L32.8 13.7199C32.4313 14.3824 32.1375 15.0887 31.9312 15.8199L30.6875 16.0387ZM33.3313 16.2324C33.5125 15.6012 33.7625 14.9824 34.0875 14.4074C34.3563 13.9262 34.325 13.3449 34.0125 12.8949L33.2938 11.8637L34.85 10.3074L35.8875 11.0262C36.3375 11.3387 36.9188 11.3699 37.4 11.1012C37.975 10.7762 38.5875 10.5262 39.225 10.3449C39.7562 10.1949 40.1437 9.76367 40.2438 9.22617L40.4688 7.98867H42.675L42.9 9.22617C43 9.76992 43.3875 10.1949 43.9187 10.3449C44.55 10.5262 45.1625 10.7762 45.7438 11.1012C46.225 11.3699 46.8063 11.3387 47.2562 11.0262L48.2937 10.3074L49.85 11.8637L49.1312 12.9012C48.8187 13.3512 48.7875 13.9324 49.0562 14.4137C49.375 14.9887 49.6312 15.6012 49.8125 16.2387C49.9625 16.7699 50.3937 17.1574 50.9312 17.2574L52.1688 17.4824V19.6887L50.925 19.9074C50.3813 20.0074 49.9563 20.3949 49.8063 20.9262C49.625 21.5574 49.375 22.1699 49.05 22.7512C48.7813 23.2324 48.8125 23.8137 49.125 24.2637L49.8438 25.2949L48.2875 26.8512L47.25 26.1324C46.8 25.8199 46.2188 25.7887 45.7375 26.0574C45.1625 26.3824 44.55 26.6324 43.9125 26.8137C43.3813 26.9637 42.9937 27.3949 42.8937 27.9324L42.6687 29.1699H40.4625L40.2375 27.9324C40.1375 27.3887 39.75 26.9637 39.2188 26.8137C38.5875 26.6324 37.975 26.3824 37.3938 26.0574C36.9125 25.7887 36.3312 25.8199 35.8812 26.1324L34.85 26.8512L33.2938 25.2949L34.0125 24.2574C34.325 23.8074 34.3563 23.2262 34.0875 22.7449C33.7625 22.1699 33.5125 21.5574 33.3313 20.9199C33.1813 20.3887 32.75 20.0012 32.2125 19.9012L30.975 19.6762V17.4699L32.2125 17.2449C32.75 17.1512 33.1813 16.7637 33.3313 16.2324ZM28.6625 45.5512C29.3438 45.4262 29.8375 44.8387 29.8375 44.1449V41.8824C29.8375 41.1887 29.3438 40.6012 28.6625 40.4762L27.4187 40.2512C27.2125 39.5262 26.9187 38.8199 26.55 38.1512L27.2688 37.1137C27.6625 36.5449 27.5938 35.7762 27.1062 35.2887L25.5063 33.6887C25.0188 33.2012 24.25 33.1324 23.6812 33.5262L22.6437 34.2449C21.9812 33.8762 21.275 33.5824 20.5437 33.3762L20.3187 32.1324C20.1937 31.4512 19.6063 30.9574 18.9125 30.9574H16.65C15.9562 30.9574 15.3687 31.4512 15.2437 32.1324L15.0188 33.3762C14.2938 33.5824 13.5875 33.8762 12.9187 34.2449L11.8813 33.5262C11.3125 33.1324 10.5437 33.2012 10.0562 33.6887L8.45625 35.2887C7.96875 35.7762 7.9 36.5449 8.29375 37.1137L9.0125 38.1512C8.64375 38.8137 8.35 39.5199 8.14375 40.2512L6.9 40.4762C6.21875 40.6012 5.725 41.1887 5.725 41.8824V44.1449C5.725 44.8387 6.21875 45.4262 6.9 45.5512L8.14375 45.7762C8.35 46.5012 8.64375 47.2074 9.0125 47.8762L8.29375 48.9137C7.9 49.4824 7.96875 50.2512 8.45625 50.7387L10.0562 52.3387C10.5437 52.8262 11.3125 52.8949 11.8813 52.5012L12.9187 51.7824C13.5813 52.1512 14.2875 52.4449 15.0188 52.6512L15.2437 53.8949C15.3687 54.5762 15.9562 55.0699 16.65 55.0699H18.9125C19.6063 55.0699 20.1937 54.5762 20.3187 53.8949L20.5437 52.6512C21.2687 52.4449 21.975 52.1512 22.6437 51.7824L23.6812 52.5012C24.25 52.8949 25.0188 52.8262 25.5063 52.3387L27.1062 50.7387C27.5938 50.2512 27.6625 49.4824 27.2688 48.9137L26.55 47.8699C26.9187 47.2074 27.2125 46.5012 27.4187 45.7699L28.6625 45.5512ZM26.0188 45.3574C25.8375 45.9887 25.5875 46.6012 25.2625 47.1824C24.9937 47.6637 25.025 48.2449 25.3375 48.6949L26.0562 49.7262L24.5 51.2824L23.4625 50.5637C23.0125 50.2512 22.4312 50.2199 21.95 50.4887C21.375 50.8074 20.7625 51.0637 20.125 51.2449C19.5938 51.3949 19.2062 51.8262 19.1063 52.3637L18.8812 53.6012H16.675L16.45 52.3637C16.35 51.8199 15.9625 51.3949 15.4313 51.2449C14.8 51.0637 14.1875 50.8137 13.6063 50.4887C13.125 50.2199 12.5437 50.2512 12.0938 50.5637L11.0625 51.2824L9.50625 49.7262L10.225 48.6887C10.5375 48.2387 10.5687 47.6574 10.3 47.1762C9.975 46.6012 9.725 45.9887 9.54375 45.3512C9.39375 44.8199 8.9625 44.4324 8.425 44.3324L7.1875 44.1074V41.9012L8.425 41.6824C8.96875 41.5824 9.39375 41.1949 9.54375 40.6637C9.725 40.0324 9.975 39.4199 10.3 38.8387C10.5687 38.3574 10.5375 37.7762 10.225 37.3262L9.50625 36.2949L11.0625 34.7387L12.1 35.4574C12.55 35.7699 13.1313 35.8012 13.6125 35.5324C14.1875 35.2074 14.8 34.9574 15.4375 34.7762C15.9688 34.6262 16.3563 34.1949 16.4562 33.6574L16.6812 32.4199H18.8875L19.1125 33.6574C19.2125 34.2012 19.6 34.6262 20.1312 34.7762C20.7625 34.9574 21.375 35.2074 21.9563 35.5324C22.4375 35.8012 23.0187 35.7699 23.4688 35.4574L24.5062 34.7387L26.0625 36.2949L25.3438 37.3324C25.0312 37.7824 25 38.3637 25.2687 38.8449C25.5875 39.4199 25.8438 40.0324 26.025 40.6699C26.175 41.2012 26.6063 41.5887 27.1437 41.6887L28.3813 41.9137V44.1199L27.1437 44.3449C26.6 44.4387 26.1688 44.8262 26.0188 45.3574Z" fill="url(#paint0_linear_455_697)"/>
<defs>
<linearGradient id="paint0_linear_455_697" x1="29.675" y1="60.7949" x2="29.675" y2="0.794922" gradientUnits="userSpaceOnUse">
<stop stop-color="#5934DF"/>
<stop offset="1" stop-color="#DB80EB"/>
</linearGradient>
</defs>
</svg>
