<svg width="53" height="61" viewBox="0 0 53 61" fill="none" xmlns="http://www.w3.org/2000/svg">
<path fill-rule="evenodd" clip-rule="evenodd" d="M51.7142 15.6247C51.1872 15.091 50.4467 14.7642 49.6395 14.7642C48.8323 14.7642 48.0985 15.091 47.5648 15.6247C47.1912 15.9983 46.9177 16.4719 46.7909 16.999H40.5802V15.9716C40.5802 15.7114 40.4868 15.4713 40.3267 15.2778C40.1665 15.091 39.9464 14.9509 39.6862 14.9042L37.5582 14.5107C37.4314 14.0704 37.2846 13.6434 37.1112 13.2298C36.9311 12.8095 36.7376 12.4026 36.5175 12.009L37.5315 10.528H44.5161C44.9364 10.528 45.3166 10.3612 45.5901 10.0811C45.8636 9.80754 46.0371 9.42729 46.0371 9.00702V6.57874C46.5641 6.45199 47.0378 6.17848 47.4113 5.8049C47.945 5.27788 48.2719 4.5374 48.2719 3.7302C48.2719 2.92299 47.9384 2.18918 47.4113 1.65549C46.8843 1.1218 46.1438 0.794922 45.3366 0.794922C44.5294 0.794922 43.7956 1.12848 43.2619 1.65549C42.7282 2.18251 42.4014 2.92299 42.4014 3.7302C42.4014 4.5374 42.7282 5.27121 43.2619 5.8049C43.6355 6.17848 44.1092 6.45199 44.6362 6.57874V9.00702C44.6362 9.00702 44.6228 9.07373 44.6028 9.09374C44.5761 9.11375 44.5161 9.12709 44.5161 9.12709H37.8183C37.7783 9.04704 37.7316 8.97366 37.6716 8.90695C37.6516 8.88694 37.6315 8.86025 37.6115 8.84024L35.1566 6.39195C34.9698 6.20516 34.7296 6.09843 34.4828 6.07841C34.236 6.0584 33.9825 6.11844 33.769 6.2652L31.9811 7.49268C31.5875 7.27254 31.1806 7.0724 30.7603 6.89896C30.3467 6.72551 29.9198 6.57874 29.4795 6.45199L29.0859 4.32392C29.0392 4.06375 28.9058 3.8436 28.7123 3.6835C28.5255 3.52339 28.2787 3.43 28.0185 3.43H24.5496C24.2894 3.43 24.0492 3.52339 23.8558 3.6835C23.669 3.8436 23.5289 4.06375 23.4822 4.32392L23.0886 6.45199C22.6483 6.57874 22.2214 6.72551 21.8077 6.89896C21.3875 7.0724 20.9805 7.27254 20.5869 7.49268L18.7991 6.2652C18.5856 6.11844 18.3321 6.0584 18.0853 6.07841C17.8651 6.09843 17.6517 6.18515 17.4782 6.33191C17.4582 6.35193 17.4315 6.37194 17.4115 6.39195L14.9566 8.84691C14.8698 8.93363 14.8031 9.0337 14.7497 9.13377H8.05199C8.05199 9.13377 7.98528 9.12042 7.96526 9.10041C7.94525 9.07373 7.93191 9.01369 7.93191 9.01369V6.58542C8.45892 6.45866 8.93257 6.18515 9.30615 5.81157C9.83984 5.28456 10.1667 4.54407 10.1667 3.73687C10.1667 2.92967 9.83984 2.19585 9.30615 1.66216C8.77914 1.12848 8.03865 0.801593 7.23145 0.801593C6.42425 0.801593 5.69043 1.12848 5.15674 1.66216C4.62306 2.18918 4.29617 2.92967 4.29617 3.73687C4.29617 4.54407 4.62306 5.27788 5.15674 5.81157C5.53032 6.18515 6.00397 6.45866 6.53098 6.58542V9.01369C6.53098 9.43396 6.70443 9.81422 6.97795 10.0944C7.25146 10.3679 7.63171 10.5414 8.05199 10.5414H15.0366L16.0506 12.0223C15.8438 12.4026 15.6503 12.8029 15.4769 13.2098C15.4769 13.2165 15.4636 13.2298 15.4636 13.2431C15.2901 13.6568 15.1433 14.0837 15.0166 14.524L12.8885 14.9176C12.6283 14.9643 12.4082 15.0977 12.2481 15.2912C12.088 15.478 11.9946 15.7248 11.9946 15.985V17.0123H5.78382C5.65707 16.4853 5.38356 16.0116 5.00998 15.6381C4.48296 15.1044 3.74247 14.7775 2.93527 14.7775C2.12807 14.7775 1.39425 15.1044 0.860569 15.6381C0.326883 16.1651 0 16.9056 0 17.7128C0 18.52 0.326883 19.2538 0.860569 19.7875C1.38758 20.3212 2.12807 20.648 2.93527 20.648C3.74247 20.648 4.47629 20.3212 5.00998 19.7875C5.38356 19.4139 5.65707 18.9402 5.78382 18.4132H11.9946V19.4406C11.9946 19.7008 12.088 19.9409 12.2481 20.1344C12.4082 20.3212 12.6283 20.4613 12.8885 20.5079L15.0166 20.9015C15.1433 21.3418 15.2901 21.7688 15.4636 22.1824C15.6437 22.6027 15.8371 23.0096 16.0573 23.4032L15.0433 24.8842H8.05866C7.63838 24.8842 7.25813 25.051 6.98462 25.3311C6.7111 25.6047 6.53765 25.9849 6.53765 26.4052V28.8335C6.01064 28.9602 5.53699 29.2337 5.16341 29.6073C4.62973 30.1343 4.30284 30.8748 4.30284 31.682C4.30284 32.4892 4.62973 33.223 5.16341 33.7567C5.69043 34.2904 6.43092 34.6173 7.23812 34.6173C8.04532 34.6173 8.77914 34.2904 9.31282 33.7567C9.84651 33.2297 10.1734 32.4892 10.1734 31.682C10.1734 30.8748 9.84651 30.141 9.31282 29.6073C8.93924 29.2337 8.4656 28.9602 7.93858 28.8335V26.4052C7.93858 26.3718 7.95192 26.3385 7.97194 26.3185C7.99862 26.2984 8.05866 26.2851 8.05866 26.2851H14.7564C14.8098 26.3918 14.8765 26.4852 14.9632 26.572L17.4182 29.0269C17.605 29.2137 17.8451 29.3204 18.092 29.3405C18.3388 29.3605 18.5923 29.3004 18.8058 29.1537L20.5936 27.9262C20.9405 28.1196 21.3007 28.2931 21.661 28.4532C21.9945 28.5933 22.3414 28.7267 22.695 28.8401V42.1422L21.2874 38.9134C20.8471 37.8994 20.0332 37.159 19.0793 36.7854C18.1253 36.4118 17.0313 36.3984 16.0173 36.8387C15.0033 37.279 14.2628 38.0929 13.8892 39.0469C13.5156 40.0008 13.5023 41.0949 13.9425 42.1089L17.7651 50.9014C17.7651 50.9014 17.7918 50.9614 17.8118 50.9881C20.3868 55.1642 23.9892 58.0127 27.785 59.5204C30.7003 60.6745 33.729 61.0481 36.5108 60.6278C39.3193 60.2008 41.881 58.9734 43.8223 56.932C45.6302 55.0308 46.8843 52.4424 47.2913 49.1535C47.3046 49.1135 47.3046 49.0735 47.3046 49.0335V38.1596C47.3046 37.1656 46.8977 36.265 46.2439 35.6113C45.5901 34.9575 44.6895 34.5506 43.6955 34.5506C42.7016 34.5506 41.801 34.9575 41.1472 35.6113C41.0938 35.6646 41.0471 35.7113 41.0004 35.7647C40.8403 35.4979 40.6535 35.251 40.4334 35.0309C39.7796 34.3771 38.879 33.9702 37.885 33.9702C36.9444 33.9702 36.0838 34.3371 35.4368 34.9375C35.25 34.4772 34.9765 34.0636 34.6296 33.7167C33.9758 33.0629 33.0752 32.656 32.0812 32.656C31.2607 32.656 30.4935 32.9362 29.8864 33.4098V28.8268C30.24 28.7134 30.5802 28.5866 30.9204 28.4399C31.2873 28.2864 31.6409 28.1063 31.9878 27.9128L33.7757 29.1403C33.9891 29.2871 34.2426 29.3471 34.4895 29.3271C34.743 29.3071 34.9764 29.2004 35.1632 29.0136L37.6182 26.5586C37.7049 26.4719 37.7716 26.3785 37.825 26.2718H44.5228C44.5228 26.2718 44.5895 26.2851 44.6095 26.3051C44.6295 26.3318 44.6428 26.3918 44.6428 26.3918V28.8201C44.1158 28.9469 43.6422 29.2204 43.2686 29.594C42.7349 30.121 42.408 30.8615 42.408 31.6687C42.408 32.4759 42.7349 33.2097 43.2686 33.7434C43.7956 34.277 44.5361 34.6039 45.3433 34.6039C46.1505 34.6039 46.8843 34.277 47.418 33.7434C47.9517 33.2163 48.2786 32.4759 48.2786 31.6687C48.2786 30.8615 47.9517 30.1276 47.418 29.594C47.0444 29.2204 46.5708 28.9469 46.0438 28.8201V26.3918C46.0438 25.9782 45.8703 25.598 45.5968 25.3178C45.3233 25.0443 44.943 24.8708 44.5228 24.8708H37.5381L36.5241 23.3899C36.7309 23.0096 36.9244 22.6093 37.0979 22.2024C37.0979 22.2024 37.1112 22.1824 37.1112 22.169C37.2846 21.7554 37.4314 21.3285 37.5582 20.8882L39.6862 20.4946C39.9464 20.4479 40.1665 20.3145 40.3267 20.121C40.4868 19.9342 40.5802 19.6874 40.5802 19.4272V18.3999H46.7909C46.9177 18.9269 47.1912 19.4006 47.5648 19.7741C48.0918 20.3078 48.8323 20.6347 49.6395 20.6347C50.4467 20.6347 51.1805 20.3078 51.7142 19.7741C52.2479 19.2471 52.5747 18.5066 52.5747 17.6994C52.5747 16.8922 52.2479 16.1584 51.7142 15.6247ZM44.2693 4.77088C43.9957 4.49737 43.8223 4.11045 43.8223 3.69017C43.8223 3.26989 43.9957 2.88297 44.2693 2.60945C44.5428 2.33594 44.9297 2.16249 45.35 2.16249C45.7703 2.16249 46.1572 2.33594 46.4307 2.60945C46.7042 2.88297 46.8776 3.26989 46.8776 3.69017C46.8776 4.11045 46.7042 4.49737 46.4307 4.77088C46.1572 5.0444 45.7703 5.21784 45.35 5.21784C44.9297 5.21784 44.5428 5.0444 44.2693 4.77088ZM6.16407 4.77088C5.89056 4.49737 5.71711 4.11045 5.71711 3.69017C5.71711 3.26989 5.89056 2.88297 6.16407 2.60945C6.43759 2.33594 6.82451 2.16249 7.24479 2.16249C7.66507 2.16249 8.05199 2.33594 8.3255 2.60945C8.59902 2.88297 8.77246 3.26989 8.77246 3.69017C8.77246 4.11045 8.59902 4.49737 8.3255 4.77088C8.05199 5.0444 7.66507 5.21784 7.24479 5.21784C6.82451 5.21784 6.43759 5.0444 6.16407 4.77088ZM4.02266 18.7668C3.74914 19.0403 3.36222 19.2138 2.94194 19.2138C2.52167 19.2138 2.13474 19.0403 1.86123 18.7668C1.58772 18.4933 1.41427 18.1064 1.41427 17.6861C1.41427 17.2658 1.58772 16.8789 1.86123 16.6054C2.13474 16.3319 2.52167 16.1584 2.94194 16.1584C3.36222 16.1584 3.74914 16.3319 4.02266 16.6054C4.29617 16.8789 4.46962 17.2658 4.46962 17.6861C4.46962 18.1064 4.29617 18.4933 4.02266 18.7668ZM8.3255 30.6013C8.59902 30.8748 8.77246 31.2617 8.77246 31.682C8.77246 32.1023 8.59902 32.4892 8.3255 32.7627C8.05199 33.0362 7.66507 33.2097 7.24479 33.2097C6.82451 33.2097 6.43759 33.0362 6.16407 32.7627C5.89056 32.4892 5.71711 32.1023 5.71711 31.682C5.71711 31.2617 5.89056 30.8748 6.16407 30.6013C6.43759 30.3278 6.82451 30.1543 7.24479 30.1543C7.66507 30.1543 8.05199 30.3278 8.3255 30.6013ZM46.4307 30.6013C46.7042 30.8748 46.8776 31.2617 46.8776 31.682C46.8776 32.1023 46.7042 32.4892 46.4307 32.7627C46.1572 33.0362 45.7703 33.2097 45.35 33.2097C44.9297 33.2097 44.5428 33.0362 44.2693 32.7627C43.9957 32.4892 43.8223 32.1023 43.8223 31.682C43.8223 31.2617 43.9957 30.8748 44.2693 30.6013C44.5428 30.3278 44.9297 30.1543 45.35 30.1543C45.7703 30.1543 46.1572 30.3278 46.4307 30.6013ZM30.5268 34.704C30.9271 34.3037 31.4741 34.0569 32.0812 34.0569C32.6883 34.0569 33.2353 34.3037 33.6356 34.704C34.0358 35.1043 34.2827 35.658 34.2827 36.2584V37.5726H35.6903C35.6903 36.9655 35.9371 36.4185 36.3373 36.0182C36.7376 35.6179 37.2846 35.3711 37.8917 35.3711C38.4988 35.3711 39.0458 35.6179 39.4461 36.0182C39.8463 36.4185 40.0932 36.9722 40.0932 37.5726V38.1529H41.5008C41.5008 37.5525 41.7476 37.0055 42.1479 36.6053C42.5481 36.205 43.0951 35.9582 43.7022 35.9582C44.3093 35.9582 44.8563 36.205 45.2566 36.6053C45.6568 36.9988 45.9037 37.5525 45.9037 38.1529V48.9868C45.5368 51.9487 44.416 54.2703 42.815 55.958C41.1005 57.7592 38.8257 58.8466 36.3107 59.2269C33.7623 59.6138 30.9871 59.2669 28.312 58.2062C24.7897 56.8119 21.4475 54.1702 19.0393 50.2876L15.2367 41.5419C14.9566 40.8881 14.9632 40.1743 15.2101 39.5539C15.4569 38.9335 15.9372 38.4064 16.591 38.1196C17.2447 37.8394 17.9585 37.8461 18.5789 38.0929C19.1994 38.3397 19.7264 38.82 20.0132 39.4738L22.7617 45.798C22.9151 46.1516 23.3288 46.3117 23.6823 46.1582C23.9425 46.0448 24.1026 45.7913 24.1026 45.5178V20.588L24.0692 20.5747C24.0692 19.9676 24.3161 19.4206 24.7163 19.0203C25.1166 18.62 25.6636 18.3732 26.2707 18.3732C26.8778 18.3732 27.4248 18.62 27.8251 19.0203C28.2253 19.4206 28.4722 19.9743 28.4722 20.5747V36.2584H29.8797C29.8797 35.6513 30.1266 35.1043 30.5268 34.704ZM28.8524 18.0397C28.1986 17.3859 27.298 16.979 26.3041 16.979C25.3101 16.979 24.4095 17.3859 23.7557 18.0397C23.1019 18.6934 22.695 19.594 22.695 20.588V22.7361C22.695 22.7361 22.7017 22.7428 22.7083 22.7494H22.695V22.7361C22.0546 22.2691 21.5009 21.6954 21.0739 21.0283C20.4535 20.0677 20.1 18.9202 20.1 17.6861C20.1 15.9716 20.8004 14.4173 21.9212 13.2965C23.0419 12.1691 24.5963 11.4753 26.3107 11.4753C28.0252 11.4753 29.5795 12.1758 30.7003 13.2965C31.8277 14.4173 32.5215 15.9716 32.5215 17.6861C32.5215 18.9202 32.1613 20.0677 31.5475 21.0283C31.1206 21.7021 30.5602 22.2891 29.9131 22.7494V20.588C29.9131 19.594 29.5062 18.6934 28.8524 18.0397ZM39.2059 19.1671L36.8977 19.594C36.6109 19.6474 36.3974 19.8675 36.3373 20.1344C36.2106 20.648 36.0438 21.1484 35.8437 21.6354C35.837 21.642 35.8303 21.6554 35.8303 21.6687C35.6235 22.149 35.3901 22.6093 35.1165 23.0563C34.9698 23.2965 34.9831 23.5967 35.1366 23.8168L36.4641 25.7581L34.3827 27.8395L32.4414 26.5119C32.2013 26.3451 31.8944 26.3518 31.6609 26.5052C31.2607 26.7521 30.8337 26.9655 30.3934 27.159C30.2333 27.2257 30.0732 27.2924 29.9131 27.3525V24.4039C31.0605 23.7901 32.0278 22.8829 32.7283 21.7888C33.4821 20.6013 33.9224 19.2004 33.9224 17.6928C33.9224 15.5847 33.0685 13.6834 31.6876 12.3025C30.3134 10.9216 28.4121 10.0677 26.3041 10.0677C24.196 10.0677 22.2947 10.9216 20.9138 12.3025C19.5396 13.6834 18.6857 15.5914 18.6857 17.6928C18.6857 19.2004 19.1193 20.6013 19.8798 21.7888C20.5803 22.8829 21.5476 23.7901 22.695 24.4039V27.3458C22.695 27.3458 22.695 27.3458 22.7017 27.3458H22.695C22.5349 27.2858 22.3815 27.219 22.2214 27.1523C21.7677 26.9589 21.3408 26.7321 20.9338 26.4852C20.6937 26.3385 20.3935 26.3518 20.1733 26.5052L18.232 27.8328L16.1507 25.7514L17.4782 23.8101C17.645 23.57 17.6383 23.2631 17.4782 23.0296C17.2047 22.5827 16.9645 22.1157 16.7644 21.6287C16.5643 21.1417 16.3975 20.6347 16.2708 20.1144C16.204 19.8342 15.9772 19.634 15.7104 19.5873L13.4089 19.1604V16.2118L15.7171 15.7848C16.0039 15.7315 16.2174 15.5113 16.2774 15.2445C16.4042 14.7308 16.571 14.2305 16.7711 13.7435C16.7778 13.7368 16.7844 13.7235 16.7844 13.7101C16.9912 13.2298 17.2247 12.7695 17.4982 12.3225C17.645 12.0824 17.6317 11.7822 17.4782 11.562L16.1507 9.62075L18.232 7.53938L20.1733 8.86692C20.4135 9.0337 20.7204 9.02703 20.9538 8.86692C21.4008 8.59341 21.8745 8.35325 22.3614 8.15312C22.8551 7.95299 23.3621 7.78621 23.8825 7.65946C24.1626 7.59275 24.3628 7.36593 24.4095 7.09909L24.8364 4.79757H27.785L28.212 7.10576C28.2653 7.39262 28.4855 7.60609 28.7523 7.66613C29.266 7.79288 29.7663 7.95966 30.2533 8.15979C30.7537 8.36659 31.2273 8.61342 31.6809 8.88694C31.9211 9.0337 32.2213 9.02036 32.4414 8.86692L34.3827 7.53938L36.4641 9.62075L35.1366 11.562C34.9698 11.8022 34.9765 12.1091 35.1299 12.3426C35.4034 12.7895 35.6436 13.2565 35.8437 13.7435C36.0438 14.2305 36.2106 14.7375 36.3373 15.2578C36.4041 15.538 36.6309 15.7381 36.8977 15.7848L39.1992 16.2118V19.1604L39.2059 19.1671ZM50.7335 18.7668C50.46 19.0403 50.0731 19.2138 49.6528 19.2138C49.2325 19.2138 48.8456 19.0403 48.5721 18.7668C48.2986 18.4933 48.1251 18.1064 48.1251 17.6861C48.1251 17.2658 48.2986 16.8789 48.5721 16.6054C48.8456 16.3319 49.2325 16.1584 49.6528 16.1584C50.0731 16.1584 50.46 16.3319 50.7335 16.6054C51.007 16.8789 51.1805 17.2658 51.1805 17.6861C51.1805 18.1064 51.007 18.4933 50.7335 18.7668Z" fill="url(#paint0_linear_455_727)"/>
<defs>
<linearGradient id="paint0_linear_455_727" x1="26.2874" y1="60.7949" x2="26.2874" y2="0.794922" gradientUnits="userSpaceOnUse">
<stop stop-color="#5934DF"/>
<stop offset="1" stop-color="#DB80EB"/>
</linearGradient>
</defs>
</svg>
