<svg width="61" height="61" viewBox="0 0 61 61" fill="none" xmlns="http://www.w3.org/2000/svg">
<path d="M7.51171 43.395C7.59185 43.5917 7.58456 43.8102 7.49715 44.0069C7.3733 44.2765 7.10377 44.4513 6.80509 44.4513C6.67396 44.4659 6.54284 44.444 6.42628 44.393C4.39383 43.4096 3.25012 41.2023 3.61436 38.9731C3.67263 38.5506 4.05873 38.2592 4.47396 38.3175C4.89648 38.3758 5.18787 38.7619 5.12959 39.1771C4.86734 40.7288 5.6541 42.2732 7.06734 42.9725H7.08191C7.2786 43.0453 7.43887 43.1983 7.519 43.395H7.51171ZM60.6761 42.4553C60.6761 44.4732 59.139 46.1632 57.1356 46.3599C55.125 46.5566 53.2966 45.1944 52.9032 43.2129H48.3866C46.5946 43.2129 45.1449 41.7632 45.1449 39.9712C45.1449 39.0241 44.38 38.252 43.4257 38.252H40.7959V39.3738C40.7959 41.297 39.2369 42.8632 37.3065 42.8632H34.2687V51.2116C36.2502 51.605 37.6197 53.4334 37.423 55.4513C37.2263 57.4692 35.5363 58.999 33.5111 58.999C31.4859 58.999 29.7959 57.4619 29.5992 55.4513C29.4025 53.4334 30.772 51.605 32.7535 51.2116V42.8632H27.7634V51.9692C27.778 53.0765 27.5449 54.1692 27.0859 55.1818C25.578 58.6785 22.0886 60.9003 18.2859 60.7911C17.521 60.7911 16.7634 60.7255 16.0131 60.5944C11.4601 59.8368 9.0488 56.4858 9.11437 51.1897C6.93622 50.2646 -1.21545 46.0758 0.154086 37.101C0.86071 32.4096 3.34482 29.9837 5.83622 28.7526C4.41568 27.485 2.36137 24.7095 3.36667 19.3989C4.12429 15.3122 7.35145 12.9301 12.174 12.8645C12.2614 12.8645 12.3342 12.8135 12.3779 12.7406C12.4144 12.6824 12.4144 12.6095 12.3779 12.5512C10.9064 9.88501 11.0594 6.62143 12.7713 4.10818C14.4395 1.74791 17.2806 0.487646 20.1581 0.85917L20.4568 0.895594C24.7038 1.73334 27.7561 5.46315 27.7416 9.79031V20.6665H32.7389V12.3546C30.7575 11.9612 29.3952 10.1327 29.5919 8.11481C29.7886 6.09693 31.4786 4.55984 33.5038 4.55984C35.529 4.55984 37.2191 6.09693 37.4157 8.11481C37.6124 10.1254 36.2502 11.9612 34.2614 12.3546V20.7029H37.2992C39.1131 20.7102 40.6138 22.1089 40.7595 23.9155H45.1522C46.0992 23.9155 46.8714 23.1506 46.8714 22.2036C46.8714 21.344 47.2138 20.5208 47.8184 19.9162C48.423 19.3042 49.2462 18.9691 50.1058 18.9691H52.8668C53.2601 16.9877 55.0886 15.6254 57.0992 15.8221C59.1098 16.0188 60.6396 17.7089 60.6396 19.7268C60.6396 21.7446 59.1025 23.4347 57.0992 23.6314C55.0886 23.8281 53.2601 22.4658 52.8668 20.4844H50.1131C49.1661 20.4844 48.3939 21.2566 48.3939 22.2109C48.3939 23.9956 46.937 25.4453 45.1522 25.4453L40.8104 25.4089V30.6102H49.1588C49.5522 28.6288 51.3807 27.2665 53.3913 27.4632C55.4019 27.6599 56.9317 29.35 56.9317 31.3678C56.9317 33.3857 55.3946 35.0758 53.3913 35.2725C51.3807 35.4692 49.5522 34.1069 49.1588 32.1255H40.8104V36.7586H43.4403C45.225 36.7586 46.6747 38.201 46.6747 39.993C46.6747 40.94 47.4469 41.7122 48.4012 41.7122H52.8886C53.282 39.7308 55.1105 38.3685 57.1211 38.5652C59.1317 38.7619 60.6615 40.452 60.6615 42.4698L60.6761 42.4553ZM50.5284 31.4625C50.5866 32.7738 51.6793 33.7937 52.9906 33.7645C54.3019 33.7354 55.3509 32.6645 55.3509 31.3533C55.3509 30.042 54.3019 28.9711 52.9906 28.942C51.6793 28.9129 50.5866 29.9327 50.5284 31.244V31.4625ZM54.3237 19.6976H54.3456C54.3456 20.6738 54.9356 21.5552 55.839 21.934C56.7423 22.3056 57.784 22.0943 58.4688 21.4023C59.1608 20.7102 59.3575 19.6685 58.9787 18.7652C58.5999 17.8691 57.7111 17.2791 56.735 17.2936C55.4019 17.2936 54.3237 18.3718 54.3237 19.7049V19.6976ZM26.2482 9.78303C26.2627 6.17706 23.7131 3.07374 20.1799 2.38169L19.9614 2.34527C17.6448 2.06116 15.3574 3.07374 14.0243 4.98964C12.6256 7.04395 12.5164 9.71018 13.7475 11.8738C14.0243 12.4055 13.9952 13.032 13.6819 13.542C13.3687 14.0592 12.8078 14.3797 12.2031 14.387C9.30377 14.4307 5.67595 15.3777 4.86734 19.6976C3.77462 25.2996 6.64483 27.5506 7.46801 28.0678C8.92496 27.6016 10.4475 27.3831 11.97 27.4268C12.3852 27.4559 12.6985 27.8274 12.6693 28.2427C12.6402 28.6579 12.276 28.9784 11.8534 28.942C10.4329 28.891 9.02695 29.095 7.68655 29.5612L7.53357 29.6122C5.08588 30.5155 2.36866 32.5917 1.64747 37.3268C0.518325 44.7791 6.7541 48.4506 9.18721 49.5871C9.22364 49.2083 9.26735 48.8295 9.33291 48.4434C9.93755 44.3566 13.6091 41.4281 17.7323 41.7559H17.9217C18.3369 41.7924 18.6429 42.1639 18.6064 42.5791C18.5846 42.7831 18.4899 42.9652 18.3296 43.0963C18.1766 43.2275 17.9727 43.2857 17.7687 43.2639H17.5939C14.272 43.0016 11.3144 45.3692 10.8336 48.6692C10.2945 52.1513 10.2872 58.1394 16.2389 59.101C22.1905 60.0626 24.7184 56.6533 25.7091 54.548C26.0733 53.7394 26.2555 52.8652 26.2482 51.9838V9.78303ZM33.4164 10.8903H33.6422C34.9535 10.8247 35.9734 9.73203 35.9369 8.42077C35.9078 7.10951 34.8369 6.06779 33.5257 6.06779C32.2144 6.06779 31.1435 7.1168 31.1144 8.42077C31.0853 9.73203 32.1051 10.8247 33.4164 10.8903ZM35.7184 35.9572V27.5725C35.6455 26.4215 34.6694 25.54 33.5184 25.5983H27.778V37.9314H33.5184C34.6694 37.9897 35.6528 37.1082 35.7184 35.9572ZM33.6495 52.6321C33.5767 52.6613 33.4965 52.6613 33.4237 52.6321C32.1124 52.6904 31.0926 53.7904 31.1217 55.1017C31.1508 56.4129 32.2217 57.4546 33.533 57.4546C34.8442 57.4546 35.9151 56.4056 35.9442 55.1017C35.9734 53.7904 34.9535 52.6977 33.6495 52.6321ZM39.2952 24.1559C39.2952 23.6314 39.0912 23.1287 38.7197 22.7572C38.3482 22.3857 37.8455 22.1817 37.321 22.1817H27.778V24.0831H33.5184C35.5071 24.0248 37.1753 25.5837 37.2409 27.5725V35.9572C37.1681 37.946 35.5071 39.5049 33.5184 39.4467H27.778V41.348H37.321C38.4138 41.348 39.2952 40.4665 39.2952 39.3738V24.1413V24.1559ZM58.9787 41.5374C58.6072 40.6341 57.7257 40.0513 56.7496 40.0513C56.1085 40.0513 55.4966 40.3063 55.0449 40.7579C54.5933 41.2096 54.3383 41.8215 54.3383 42.4626C54.3383 43.4387 54.9284 44.3202 55.8244 44.6917C56.7277 45.0632 57.7621 44.8592 58.4542 44.1672C59.1462 43.4751 59.3502 42.4407 58.9714 41.5374H58.9787ZM15.9548 17.0532C15.7581 17.0314 15.5541 17.0897 15.3938 17.2208C15.2409 17.3519 15.1389 17.534 15.117 17.738C15.0806 18.1532 15.3793 18.5248 15.8018 18.5612C17.2952 18.6996 18.4462 19.9307 18.4972 21.4241C18.519 21.8248 18.8468 22.1453 19.2548 22.1453H19.2912C19.6919 22.1234 20.0124 21.7956 20.0124 21.3877C19.9541 19.1221 18.2058 17.2645 15.9548 17.0532ZM18.1694 45.0851L18.1839 45.0996C16.829 44.8811 13.9879 45.3838 12.8733 48.895C12.7495 49.2957 12.9753 49.7182 13.376 49.842C13.4488 49.8566 13.5289 49.8566 13.6018 49.842C13.9296 49.842 14.221 49.6235 14.323 49.3102C15.27 46.2725 17.6594 46.5566 17.9362 46.6003C18.3588 46.6659 18.7521 46.3818 18.8104 45.9593C18.876 45.544 18.5919 45.1506 18.1694 45.0851ZM21.0905 3.78037C20.719 3.58368 20.2601 3.72209 20.0561 4.09361C19.8521 4.46514 19.9978 4.92408 20.3694 5.12805C22.1905 6.1115 23.2687 8.05653 23.1449 10.1181C23.123 10.3221 23.1813 10.5188 23.3124 10.6791C23.4435 10.832 23.6257 10.934 23.8223 10.9559H23.9025C24.2959 10.9559 24.6164 10.6645 24.6601 10.2784C24.8495 7.59759 23.4508 5.0552 21.0833 3.78765L21.0905 3.78037Z" fill="url(#paint0_linear_455_709)"/>
<defs>
<linearGradient id="paint0_linear_455_709" x1="30.338" y1="60.7949" x2="30.338" y2="0.794922" gradientUnits="userSpaceOnUse">
<stop stop-color="#5934DF"/>
<stop offset="1" stop-color="#DB80EB"/>
</linearGradient>
</defs>
</svg>
