<svg width="55" height="61" viewBox="0 0 55 61" fill="none" xmlns="http://www.w3.org/2000/svg">
<path d="M43.8034 32.605C43.8034 32.605 43.8034 32.605 43.7966 32.605H41.705C41.5777 32.1826 41.4235 31.7737 41.229 31.3782L42.6972 29.9033C42.9587 29.615 42.9587 29.1793 42.6972 28.891L40.2771 26.5044C39.9888 26.243 39.5531 26.243 39.2648 26.5044L37.8034 27.9726C37.4145 27.7715 37.0123 27.6039 36.5966 27.4698V25.4318C36.6168 25.0363 36.3084 24.7011 35.9128 24.681C35.8994 24.681 35.8793 24.681 35.8659 24.681H34.8603V5.57481C34.8603 2.94017 32.7218 0.794922 30.0872 0.794922H4.77318C2.13855 0.794922 0 2.94017 0 5.57481V56.015C0 58.6497 2.13855 60.7882 4.77318 60.7949H30.0872C32.7218 60.7949 34.8603 58.6497 34.8603 56.015V45.2888H35.8659C36.2615 45.2888 36.5832 44.967 36.5832 44.5715C36.5832 44.5715 36.5832 44.5715 36.5832 44.5648V42.5C36.9989 42.3659 37.3944 42.1983 37.7832 41.9972L39.2514 43.4586C39.3922 43.586 39.5732 43.6597 39.7609 43.6597C39.9486 43.6597 40.1296 43.5927 40.2704 43.4653L42.657 41.072C42.9184 40.7838 42.9184 40.348 42.657 40.0597L41.229 38.5983C41.4302 38.2094 41.5978 37.8072 41.7318 37.3916H43.7966C44.1922 37.3916 44.514 37.0765 44.5207 36.681C44.5207 36.681 44.5207 36.681 44.5207 36.6743V33.3223C44.5207 32.9268 44.1989 32.605 43.8034 32.605ZM1.34078 5.57481C1.34078 3.6776 2.87598 2.14241 4.77318 2.1357H30.0872C31.9844 2.1357 33.5196 3.6776 33.5196 5.57481V9.17481H1.34078V5.57481ZM33.5196 56.015C33.5196 57.9122 31.9844 59.4474 30.0872 59.4541H4.77318C2.87598 59.4541 1.34078 57.9122 1.34078 56.015V48.2251H33.5196V56.015ZM33.5196 46.8843H1.34078V10.5156H33.5196V24.681H32.514C32.1184 24.6743 31.7899 24.9893 31.7832 25.3849C31.7832 25.3983 31.7832 25.4184 31.7832 25.4318V27.443C31.3676 27.577 30.9721 27.7446 30.5832 27.9458L29.1151 26.4843C28.9743 26.3569 28.7933 26.2832 28.6056 26.2832C28.4179 26.2966 28.2436 26.3636 28.0961 26.4776L25.7095 28.8642C25.448 29.1525 25.448 29.5949 25.7095 29.8832L27.1508 31.3715C26.9497 31.7603 26.7821 32.1625 26.648 32.5782H24.6101C24.2145 32.5782 23.8927 32.8932 23.886 33.2888C23.886 33.2888 23.886 33.2888 23.886 33.2955V36.6474C23.886 37.043 24.2078 37.3648 24.6034 37.3648C24.6034 37.3648 24.6034 37.3648 24.6101 37.3648H26.6749C26.8022 37.7871 26.9564 38.196 27.1508 38.5916L25.6827 40.0597C25.4212 40.348 25.4212 40.7905 25.6827 41.0787L28.076 43.4653C28.3642 43.7268 28.8 43.7268 29.0883 43.4653L30.5497 41.9972C30.9385 42.1983 31.3408 42.3659 31.7564 42.5V44.5648C31.7564 44.9603 32.0715 45.2888 32.467 45.2888C32.4804 45.2888 32.5006 45.2888 32.514 45.2888H33.5196V46.8843ZM43.1531 36.0508H41.229C40.914 36.0709 40.6458 36.2854 40.5587 36.5871C40.4045 37.1972 40.1698 37.7804 39.848 38.3167C39.6804 38.605 39.714 38.967 39.9419 39.215L41.2827 40.5558L39.7743 42.0642L38.4335 40.7234C38.1989 40.4955 37.8436 40.4553 37.5553 40.6094C37.0123 40.9379 36.4223 41.1793 35.8056 41.3335C35.5039 41.4206 35.2894 41.6888 35.2693 42.0039V43.9279H33.124V42.024C33.124 41.9435 33.1106 41.8698 33.0838 41.796C33.0034 41.5748 32.8156 41.4005 32.5877 41.3335C31.9844 41.1927 31.4078 40.9648 30.8648 40.6631C30.5765 40.4888 30.2078 40.5223 29.9598 40.7502L28.619 42.091L27.1106 40.5826L28.4514 39.2418C28.6659 39.0005 28.7061 38.6519 28.552 38.3703C28.2235 37.8139 27.9754 37.2106 27.8212 36.5871C27.7341 36.2854 27.4659 36.0709 27.1508 36.0508H25.2268V33.9189H27.1508C27.4659 33.8988 27.7341 33.6843 27.8212 33.3826C27.9754 32.7793 28.2168 32.196 28.5318 31.653C28.7196 31.3782 28.6994 31.0162 28.4916 30.7547L27.1508 29.4139L28.6592 27.9055L30 29.2463C30.2346 29.4675 30.5899 29.5145 30.8782 29.3603C31.4212 29.0318 32.0112 28.7905 32.6279 28.6363C32.8559 28.5692 33.0436 28.3949 33.124 28.1737C33.1508 28.1 33.1642 28.0262 33.1642 27.9458V26.0217H35.2559V27.9458C35.276 28.2608 35.4905 28.529 35.7922 28.6162C36.3955 28.7569 36.9721 28.9849 37.5151 29.2865C37.8034 29.4608 38.1721 29.4273 38.4201 29.1994L39.7609 27.8586L41.2693 29.367L39.9285 30.7078C39.714 30.9491 39.6737 31.2977 39.8279 31.5793C40.1631 32.1424 40.4045 32.7458 40.5587 33.3826C40.6458 33.6843 40.914 33.8988 41.229 33.9189H43.1531V36.0508ZM17.4302 58.1536C19.8168 58.1536 21.7475 56.2229 21.7475 53.8363C21.7475 51.4497 19.8168 49.5189 17.4302 49.5189C15.0436 49.5189 13.1128 51.4497 13.1128 53.8363C13.1196 56.2229 15.0503 58.1469 17.4302 58.1536ZM17.4302 50.8664C19.0726 50.8664 20.4067 52.2005 20.4067 53.843C20.4067 55.4854 19.0726 56.8195 17.4302 56.8195C15.7877 56.8195 14.4536 55.4854 14.4536 53.843C14.4536 52.2005 15.7877 50.8664 17.4302 50.8664ZM13.2402 4.98487H21.6201V6.32565H13.2402V4.98487ZM34.1832 30.634C31.7832 30.634 29.8391 32.5849 29.8324 34.9849C29.8324 37.3849 31.7832 39.3357 34.1832 39.3357C36.5832 39.3357 38.5341 37.3849 38.5341 34.9849C38.5341 32.5849 36.5832 30.634 34.1832 30.634ZM34.1832 37.9949C32.5207 37.9949 31.1732 36.6474 31.1732 34.9849C31.1732 33.3223 32.5207 31.9748 34.1832 31.9748C35.8458 31.9748 37.1933 33.3223 37.1933 34.9849C37.1933 36.6474 35.8458 37.9949 34.1832 37.9949ZM53.4235 16.0463H51.6804C51.5732 15.7245 51.4391 15.4027 51.2849 15.1011L52.5117 13.8675C52.7799 13.586 52.7799 13.1435 52.5117 12.862L50.4335 10.777C50.152 10.5223 49.7162 10.5223 49.4346 10.777L48.2078 12.024C47.9062 11.8698 47.5844 11.7357 47.2626 11.6284V9.88543C47.2425 9.5033 46.9341 9.19492 46.552 9.17481H43.6156C43.2335 9.19492 42.9251 9.5033 42.905 9.88543V11.6284C42.5832 11.7357 42.2682 11.8631 41.9598 12.0173L40.733 10.7905C40.4514 10.529 40.0089 10.529 39.7274 10.7905L37.6492 12.862C37.3877 13.1435 37.3877 13.586 37.6492 13.8675L38.876 15.1011C38.7218 15.4027 38.5944 15.7245 38.4872 16.0463H36.7508C36.362 16.0597 36.0536 16.3681 36.0335 16.7569V19.6932C36.0536 20.0821 36.362 20.3905 36.7508 20.4039H38.4872C38.5944 20.7256 38.7218 21.0407 38.876 21.3491L37.6425 22.5826C37.3877 22.8642 37.3877 23.3 37.6425 23.5815L39.714 25.653C40.0022 25.9078 40.438 25.9078 40.7263 25.653L41.9531 24.4262C42.2615 24.5737 42.5765 24.7078 42.8983 24.815V26.5513C42.9117 26.9402 43.2201 27.2486 43.6089 27.2687H46.5453C46.9341 27.2553 47.2425 26.9469 47.2626 26.5581V24.8217C47.5844 24.7145 47.8994 24.5871 48.2078 24.4329L49.4413 25.6664C49.7296 25.9212 50.1587 25.9212 50.4469 25.6664L52.5251 23.5882C52.7866 23.3067 52.7866 22.8642 52.5251 22.5826L51.2849 21.3491C51.4391 21.0407 51.5665 20.7256 51.6737 20.4039H53.4168C53.7989 20.3837 54.1073 20.0754 54.1274 19.6932V16.7569C54.114 16.3748 53.8056 16.0664 53.4235 16.0463ZM52.7732 19.0832H51.2112C50.8961 19.1033 50.6279 19.3178 50.5408 19.6195C50.4067 20.1424 50.1989 20.6452 49.924 21.1145C49.7631 21.396 49.8101 21.7446 50.0313 21.9793L51.1508 23.0988L49.9441 24.2653L48.8179 23.1458C48.5765 22.9178 48.2212 22.8776 47.933 23.0385C47.4704 23.3201 46.9676 23.5279 46.4447 23.662C46.1363 23.7491 45.9218 24.0173 45.9017 24.3324V25.9145H44.2458V24.3525C44.2257 24.0374 44.0112 23.7692 43.7095 23.6821C43.1866 23.548 42.6905 23.3402 42.2279 23.0653C41.9464 22.9044 41.5911 22.9446 41.3497 23.1659L40.2302 24.2854L39.0436 23.0988L40.1698 21.9726C40.3844 21.7379 40.4246 21.396 40.2704 21.1145C39.9888 20.6519 39.781 20.1491 39.6469 19.6195C39.5598 19.3178 39.2916 19.1033 38.9765 19.0832H37.3743V17.3871H38.9564C39.2715 17.367 39.5397 17.1525 39.6268 16.8441C39.7676 16.3279 39.9821 15.8318 40.2704 15.3759C40.4246 15.0944 40.3777 14.7458 40.1631 14.5044L39.0436 13.3648L40.2302 12.1782L41.343 13.291C41.5777 13.5189 41.933 13.5659 42.2145 13.405C42.6838 13.1301 43.1866 12.9223 43.7095 12.7882C44.0112 12.7011 44.2257 12.4329 44.2458 12.1178V10.5156H45.9218V12.0977C45.9419 12.4128 46.1564 12.681 46.4648 12.7681C46.9877 12.9022 47.4972 13.11 47.9598 13.3916C48.2413 13.5391 48.5899 13.4988 48.8246 13.2776L49.9441 12.1782L51.1307 13.3648L50.0179 14.4776C49.7832 14.7189 49.7363 15.0877 49.9039 15.3759C50.1788 15.8385 50.3866 16.3413 50.5207 16.8642C50.6078 17.1659 50.876 17.3871 51.1911 17.4072H52.7732V19.0832ZM45.124 14.3301C42.9855 14.3167 41.2425 16.0463 41.229 18.1849C41.229 18.1983 41.229 18.2117 41.229 18.2251C41.2425 20.3502 42.9587 22.0664 45.0838 22.0798C47.2223 22.0932 48.9654 20.3636 48.9788 18.2251C48.9922 16.0865 47.2626 14.3435 45.124 14.3301ZM45.124 20.7458C43.7229 20.7592 42.5832 19.6329 42.5698 18.2318C42.5698 16.8441 43.6961 15.7111 45.0838 15.6977V15.6843C46.4849 15.6709 47.6246 16.7972 47.638 18.1983C47.6514 19.5994 46.5251 20.7391 45.124 20.7525V20.7458ZM24.3419 30.2519C24.3419 30.0575 24.2615 29.8765 24.1274 29.7357L22.3575 27.9659C22.619 27.4765 22.8335 26.9603 22.9944 26.424H25.5017C25.9039 26.424 26.2324 26.0955 26.2324 25.6932V21.7513C26.2324 21.3491 25.9106 21.0273 25.5084 21.0273C25.5084 21.0273 25.5084 21.0273 25.5017 21.0273H22.9944C22.8335 20.491 22.619 19.9748 22.3575 19.4854L24.1274 17.7089C24.2682 17.5748 24.3419 17.3871 24.3419 17.1927C24.3352 17.005 24.2615 16.824 24.1274 16.6832L21.3385 13.8944C21.2045 13.7536 21.0235 13.6731 20.8291 13.6798C20.6413 13.6865 20.4603 13.7603 20.3196 13.8944L18.5497 15.6642C18.0536 15.4027 17.5374 15.1882 17.0011 15.0273V12.5201C17.0011 12.1178 16.6793 11.796 16.2771 11.796H12.3285C11.9263 11.796 11.6045 12.1111 11.5978 12.5134C11.5978 12.5134 11.5978 12.5134 11.5978 12.5201V15.0273C11.0615 15.1882 10.5453 15.4027 10.0559 15.6642L8.28603 13.8944C7.99777 13.6128 7.5419 13.6128 7.25363 13.8944L4.47151 16.6765C4.33073 16.8106 4.25698 16.9983 4.25698 17.1927C4.25698 17.3871 4.33073 17.5681 4.4648 17.7089L6.24134 19.4854C5.96648 19.9748 5.74525 20.491 5.57095 21.0273H3.09721C2.69497 21.0139 2.35978 21.3223 2.34637 21.7245C2.34637 21.7312 2.34637 21.7446 2.34637 21.7513V25.6932C2.34637 26.0955 2.67486 26.424 3.0771 26.424H5.57765C5.75196 26.9603 5.97989 27.4698 6.24804 27.9659L4.47821 29.7357C4.33743 29.8698 4.26369 30.0575 4.26369 30.2519C4.26369 30.4463 4.34413 30.6273 4.47151 30.7681L7.26704 33.5569C7.5486 33.8385 8.01117 33.8385 8.29274 33.5569L10.0626 31.7871C10.5587 32.0553 11.0749 32.2765 11.6045 32.4575V34.9648C11.6045 35.367 11.933 35.6888 12.3352 35.6888H16.2771C16.6793 35.6888 17.0011 35.367 17.0011 34.9648V32.424C17.5374 32.243 18.0536 32.0217 18.5497 31.7536L20.3196 33.5234C20.6011 33.805 21.0637 33.805 21.3453 33.5234L24.1274 30.7949C24.2749 30.6541 24.3486 30.453 24.3419 30.2519ZM20.8291 32.1759L19.1598 30.5067C18.9251 30.272 18.5564 30.2251 18.2749 30.3994C17.6313 30.7815 16.9341 31.0698 16.2034 31.2508C15.895 31.3312 15.667 31.5994 15.6536 31.9212V34.281H12.9385V31.9547C12.9251 31.6329 12.6972 31.3648 12.3888 31.2843C11.6648 31.1033 10.9676 30.815 10.324 30.4329C10.0425 30.2586 9.67374 30.3055 9.43911 30.5402L7.76983 32.2094L5.85251 30.2854L7.51508 28.6162C7.74972 28.3815 7.79665 28.0195 7.62905 27.7312C7.24022 27.081 6.95196 26.3703 6.77095 25.6329C6.6905 25.3111 6.40224 25.0832 6.06704 25.0832H3.68715V22.4016H6.04693C6.37542 22.4016 6.66369 22.1737 6.75084 21.8519C6.93184 21.1212 7.22011 20.424 7.60894 19.7804C7.77654 19.4921 7.72961 19.1301 7.49497 18.8955L5.8324 17.2329L7.74972 15.3089L9.41899 16.9782C9.65363 17.2128 10.0223 17.2597 10.3039 17.0854C10.9542 16.6899 11.6648 16.3882 12.4022 16.1938C12.7173 16.1201 12.9385 15.8452 12.952 15.5234V13.1368H15.667V15.4899C15.6804 15.8117 15.9084 16.0865 16.2168 16.1603C16.9475 16.348 17.6447 16.6363 18.2883 17.0184C18.5698 17.1927 18.9385 17.1458 19.1732 16.9111L20.8425 15.2418L22.7598 17.1659L21.0771 18.862C20.8425 19.0966 20.8022 19.4586 20.9698 19.7469C21.3587 20.3905 21.6469 21.0877 21.8279 21.8184C21.9017 22.1268 22.1765 22.3547 22.4983 22.3681H24.8581V25.0497H22.5318C22.2101 25.0631 21.9352 25.291 21.8615 25.5994C21.6737 26.3234 21.3855 27.0206 21.0034 27.6642C20.8358 27.9525 20.876 28.3145 21.1106 28.5491L22.7799 30.2184L20.8291 32.1759ZM14.2994 18.7279C11.5508 18.7279 9.32514 20.9469 9.31844 23.6955C9.31844 26.4441 11.5374 28.6698 14.286 28.6765C17.0346 28.6765 19.2603 26.4575 19.267 23.7089V23.6955C19.267 20.9536 17.0413 18.7346 14.2994 18.7279ZM17.9263 23.6955C17.9397 25.7 16.324 27.3424 14.3196 27.3558C14.3128 27.3558 14.3061 27.3558 14.2994 27.3558V27.329C12.295 27.329 10.6659 25.7067 10.6592 23.7022C10.6592 21.6977 12.2816 20.0687 14.286 20.062C16.2905 20.062 17.9196 21.6843 17.9263 23.6888V23.6955Z" fill="url(#paint0_linear_455_721)"/>
<defs>
<linearGradient id="paint0_linear_455_721" x1="27.0637" y1="60.7949" x2="27.0637" y2="0.794922" gradientUnits="userSpaceOnUse">
<stop stop-color="#5934DF"/>
<stop offset="1" stop-color="#DB80EB"/>
</linearGradient>
</defs>
</svg>
