<svg width="60" height="61" viewBox="0 0 60 61" fill="none" xmlns="http://www.w3.org/2000/svg">
<path d="M57.8608 26.5131H55.3514C54.7069 22.6873 53.1985 19.0534 50.9565 15.9063L52.7323 14.1374C53.5619 13.3421 53.5619 11.8954 52.7323 11.1L49.7017 8.06952C48.9064 7.2399 47.4597 7.2399 46.6644 8.06952L44.8954 9.84532C41.7484 7.60329 38.1145 6.09489 34.2887 5.45039V2.93411C34.2887 1.75481 33.3288 0.794922 32.1495 0.794922H27.8642C26.6849 0.794922 25.7251 1.75481 25.7251 2.93411V5.44353C21.8992 6.08803 18.2653 7.59643 15.1183 9.83846L13.3493 8.06266C12.554 7.23304 11.1073 7.23304 10.312 8.06266L7.28145 11.0932C6.45183 11.8885 6.45183 13.3352 7.28145 14.1305L9.05725 15.8995C6.81522 19.0466 5.30682 22.6804 4.66232 26.5063H2.13918C0.95989 26.5063 0 27.4662 0 28.6455V32.9307C0 34.11 0.95989 35.0699 2.13918 35.0699H4.64861C5.29311 38.8957 6.80151 42.5296 9.04354 45.6766L7.26774 47.4456C6.86322 47.8501 6.64381 48.3918 6.64381 48.9677C6.64381 49.5436 6.87007 50.0784 7.26774 50.483L10.2983 53.5135C11.0936 54.3431 12.5403 54.3431 13.3356 53.5135L15.1046 51.7377C17.5866 53.5135 20.336 54.8093 23.2911 55.6047C23.8464 55.7555 24.4498 55.4264 24.6006 54.8505C24.7515 54.2814 24.4155 53.6917 23.8464 53.5409C20.8639 52.7387 18.1076 51.3743 15.6531 49.4888C15.228 49.1597 14.6246 49.2008 14.2407 49.5779L11.8135 52.0051L8.783 48.9677L11.217 46.5474C11.601 46.1703 11.6352 45.5601 11.3061 45.135C8.78985 41.8645 7.17175 37.9701 6.63696 33.8631C6.56839 33.3283 6.10902 32.9307 5.57422 32.9307H2.14604V28.6455H5.57422C6.11587 28.6455 6.56839 28.2478 6.63696 27.713C7.17861 23.6129 8.78985 19.7116 11.3061 16.4411C11.6352 16.016 11.5941 15.4058 11.217 15.0287L8.78985 12.6016L11.8272 9.57106L14.2475 12.0051C14.6246 12.3822 15.2348 12.4233 15.6599 12.0942C18.9304 9.57792 22.8248 7.95982 26.9318 7.42502C27.4666 7.35646 27.8642 6.89708 27.8642 6.36229V2.94782H32.1495V6.376C32.1495 6.91765 32.5471 7.37017 33.0819 7.43873C37.182 7.98039 41.0833 9.59163 44.3538 12.1079C44.7789 12.437 45.3891 12.3959 45.7662 12.0188L48.1933 9.59163L51.2239 12.629L48.7899 15.0493C48.4059 15.4264 48.3716 16.0366 48.7007 16.4617C51.217 19.7322 52.8351 23.6266 53.3699 27.7336C53.4385 28.2684 53.8978 28.666 54.4326 28.666H57.8608V32.9512H54.4326C53.6099 32.965 53.3356 33.6643 53.3082 34.3705C53.1299 35.4744 54.6932 36.0366 55.2691 35.0973H57.8677C59.047 35.0973 60.0069 34.1374 60.0069 32.9581V28.6729C60.0069 27.4936 59.047 26.5337 57.8677 26.5337L57.8608 26.5131ZM47.6448 35.5429C48.2208 35.6595 48.7899 35.2824 48.9064 34.6996C49.1601 33.4106 49.2904 32.0942 49.2904 30.7915C48.2345 5.21042 11.7792 5.21042 10.7233 30.7915C10.7233 38.7792 15.7353 46.0263 23.2019 48.8374C23.7436 49.0431 24.3744 48.7757 24.58 48.2135C24.7857 47.6581 24.5046 47.0411 23.9561 46.8354C17.3192 44.3397 12.8625 37.8947 12.8625 30.7915C13.8087 8.05581 46.205 8.05581 47.1443 30.7915C47.1443 31.9571 47.0278 33.1295 46.8015 34.2814C46.685 34.8642 47.062 35.4264 47.6448 35.5429ZM55.9273 38.7792H45.7388C45.2245 38.7792 44.7446 38.5803 44.3744 38.2032C43.1128 36.9759 41.5427 34.9259 39.5681 35.0836H31.9301C29.688 35.0836 27.8574 36.9074 27.8574 39.1563V56.7222C27.8574 58.9643 29.6812 60.7949 31.9301 60.7949H55.9273C58.1694 60.7949 60 58.9711 60 56.7222V42.8518C60 40.6098 58.1762 38.7792 55.9273 38.7792ZM57.854 56.7222C57.854 57.785 56.9901 58.6489 55.9273 58.6489H31.9301C30.8673 58.6489 30.0034 57.785 30.0034 56.7222V39.1563C30.0034 38.0935 30.8673 37.2296 31.9301 37.2296H39.5681C40.0754 37.2296 40.5622 37.4353 40.9325 37.7918C42.2215 39.0328 43.7299 41.0692 45.7388 40.9252H55.9273C56.9901 40.9252 57.854 41.7891 57.854 42.8518V56.7222ZM39.3281 45.8138C38.9098 45.3955 38.2311 45.3955 37.8128 45.8138L34.5972 49.0294C34.179 49.4476 34.179 50.1264 34.5972 50.5447L37.8128 53.7603C38.2311 54.1785 38.9098 54.1785 39.3281 53.7603C39.7463 53.3421 39.7463 52.6633 39.3281 52.245L36.8735 49.7905L39.3281 47.3359C39.7463 46.9176 39.7463 46.2389 39.3281 45.8206V45.8138ZM50.0446 45.8138C49.0504 44.8265 47.542 46.3349 48.5293 47.329L50.9839 49.7836L48.5293 52.2382C47.8437 52.8758 48.3716 54.0963 49.2904 54.0688C49.5646 54.0688 49.8389 53.966 50.0514 53.7534L53.2671 50.5378C53.6853 50.1196 53.6853 49.4408 53.2671 49.0225L50.0514 45.8069L50.0446 45.8138ZM45.3411 45.5532C44.7789 45.3681 44.1755 45.6698 43.9835 46.232L41.8444 52.6633C41.6592 53.2255 41.9609 53.8289 42.5231 54.0208C43.0716 54.206 43.6887 53.9111 43.8807 53.3421L46.0199 46.9108C46.205 46.3486 45.9033 45.7452 45.3411 45.5532Z" fill="url(#paint0_linear_455_718)"/>
<defs>
<linearGradient id="paint0_linear_455_718" x1="30.0034" y1="60.7949" x2="30.0034" y2="0.794922" gradientUnits="userSpaceOnUse">
<stop stop-color="#5934DF"/>
<stop offset="1" stop-color="#DB80EB"/>
</linearGradient>
</defs>
</svg>
