<svg xmlns="http://www.w3.org/2000/svg" version="1.1" viewBox="0 0 2000 889" width="2000" height="889">
<path transform="translate(255,5)" d="m0 0h26l22 2 23 4 26 7 19 7 20 9 20 11 15 10 12 9 11 9 12 11 16 16 9 11 12 16 12 19 13 25 10 26 7 25 4 21 2 18v44l-3 32-6 36-9 36-11 33-11 27-12 26-16 30-16 26-13 19-10 14-10 13-13 16-11 13-10 11-7 8-7 7-7 8-15 15-8 7-8 8-8 7-10 9-7 6h-2v3l4 2 10 9 13 10 18 12 16 9 17 7 13 3h20l22-3 15-4 16-7 15-10 11-9 14-14 9-11 10-13 14-20 14-22 32-52 22-33 7-11 10-17 10-14 9-11 9-10 11-11 11-9 15-11 19-11 21-10 24-8 22-5 15-2 13-1h19l22 2 25 5 19 6 20 8 19 10 18 12 14 10 13 11 9 11 7 9 11 15 8 13 11 21 8 21 1 4 11-1 19-4 18-6 16-8 15-9 13-11 8-7 19-19 9-11 9-10 7-8 12-11 17-13 21-13 21-10 30-10 26-5 24-2h13l24 2 25 5 20 6 24 10 18 10 12 8 13 10 12 11 10 10 8 16 3 12v15l-3 12-7 14-9 10-7 6-14 7-15 3h-9l-15-3-14-7-10-9-14-11-14-8-17-6-16-3h-24l-19 4-15 6-12 7-13 10-7 7-10 14-8 15-5 16-2 11v26l3 15 5 14 8 15 10 13 9 9 14 10 17 8 13 4 11 2h27l18-4 15-6 14-8 14-12 8-7 12-6 11-3 13-1 16 3 10 4 11 8 8 8 8 14 4 15v15l-3 13-6 12-10 12-8 7-13 11-21 14-23 12-21 8-17 5-21 4-21 2h-24l-26-3-19-4-27-9-25-12-18-11-14-11-14-12-10-10-9-11-8-10-11-17-11-21-8-21-6-21-4-23-1-10-1-22-21 10-20 7-21 6-6 1-2 17-5 23-8 24-13 27-11 17-10 13-12 14-10 10-11 9-10 8-15 10-27 14-25 9-20 5-20 3-12 1h-24l-20-2-25-5-19-6-15-6-16-8-14-8-17-12-15-13-16-16-11-14-10-14-10-18-4 4-11 16-13 16-11 12-14 14-14 11-14 10-16 9-16 8-25 9-25 6-20 3-11 1h-36l-24-4-21-6-24-10-25-13-20-13-18-13-11-9-13-11-24-22-4-3-29 14-24 10-19 7-24 6-13 2h-20l-10-3-8-7-3-6-1-10 3-13 6-10 10-9 24-13 26-13 20-12 7-5-2-5-10-13-14-20-13-20-13-21-14-25-14-27-14-29-14-34-11-30-9-28-10-37-8-39-5-33-3-32-1-19v-35l2-24 5-29 6-22 8-23 11-24 12-21 12-17 9-11 11-12 17-17 14-11 14-10 15-9 19-10 26-10 22-6 20-4zm544 555-16 6-13 7-12 9-13 13-10 15-7 15-5 19-1 8v19l3 17 6 16 8 15 8 10 7 8 14 11 14 8 16 6 15 3h27l15-3 14-5 15-8 13-10 10-10 10-14 9-19 2-10-4-1h-22l-21-3-15-5-16-8-11-8-10-9-8-9-10-16-7-17-4-18v-32z" fill="#ffffff"/>
<path transform="translate(259,126)" d="m0 0h22l20 3 21 6 18 8 14 8 16 12 13 12 10 11 12 17 11 21 8 24 3 15 1 8v40l-4 33-6 31-7 25-8 24-10 24-13 28-13 24-12 20-20 30-10 14-16 21-13 16-11 13-12 14-14 15-4 4-9-11-11-16-10-15-13-21-14-25-14-27-13-29-11-28-12-36-7-25-6-26-5-28-4-32-2-28v-26l2-20 5-22 7-20 10-19 10-14 9-10 11-11 14-10 16-9 19-7 16-4z" fill="#1e1441"/>
<path transform="translate(1642,446)" d="m0 0h20l14 4 12 7 8 7 9 13 5 13 1 4 1 194 2 16 5 15 8 13 9 10 10 8 15 8 12 4 11 2h27l18-4 17-8 12-9 8-8 9-14 5-13 2-9 1-11 1-194 5-15 7-11 6-7 13-9 13-5 5-1h20l14 4 12 7 8 7 9 13 4 9v235l-5 21-7 20-8 16-6 11-9 13-8 10-11 12-9 9-14 11-15 10-14 8-24 10-20 6-20 4-21 2h-23l-21-2-24-5-24-8-25-12-16-10-14-11-12-11-9-9-11-14-7-10-8-14-8-16-9-27-4-21-1-8v-212l4-13 7-12 7-8 13-9 13-5z" fill="#ffffff"/>
<path transform="translate(817,438)" d="m0 0h19l22 2 25 5 19 6 20 8 19 10 18 12 14 10 13 11 9 11 7 9 11 15 8 13 11 21 7 18-1 4-7-15-10-20-14-21-14-18-9-10-11-10-23-16-19-11-19-9h-3v-2l-8-1v-2h-6v-2l-4 1-2-2h-5l-3-1v-2l-5 1-3-2-11-2h-9v-1h-11v-1h-31l-4 1h-6l-3 1h-5l-2 1-9 1-2 1-8 1-6 2-2 1-9 2-20 8h-2l-1 2-6 2-18 10-8 6-2 2-4 2-3 3-3 2-2 2-3 2-3 3-7 5-2 4-7 6-5 5-2 4h-2l-3 6-2 2-3 4-6 7-8 13-11 18-20 30-12 19-14 23-12 19-4 6-1 4-4 4-12 18-1 3-2 2-6 8-2 2-2 4-3 1-3 6-3 1-3 5-6 7-10 8-3 3-5 3-3 3-5 2-12 7h-2l-1 2-10 3-16 4-12 2-4 1h-24l-3-1-5-2-16-6-19-10-12-8-16-12-10-9-2-3v-4l5 2 13 11 21 14 16 9 17 7 13 3h20l22-3 15-4 16-7 15-10 11-9 14-14 9-11 10-13 14-20 14-22 32-52 22-33 7-11 10-17 10-14 9-11 9-10 11-11 11-9 15-11 19-11 21-10 24-8 22-5 15-2z" fill="#ffffff"/>
<path transform="translate(255,5)" d="m0 0h26l22 2 23 4 26 7 19 7 20 9 20 11 15 10 12 9 11 9 12 11 16 16 9 11 12 16 12 19 13 25 10 26 1 7-2-2-8-20-13-26-12-19-14-19-9-10-7-8-14-14-11-9-14-11-15-10-17-10-25-12-10-3-1-2-11-3h-4v-2l-10-2-8-2h-6l-9-3h-8v-1h-8v-1h-11v-1h-38l-4 1h-7l-3 1h-5l-2 1-10 1-2 1-13 2-24 7h-2l-1 2-10 3-4 1-1 2-6 2-21 11-18 12-3 3-4 3-3 2-2 2-3 2-3 3-4 3-5 6-4 2-10 12h-2l-3 5-2 2-6 8-2 2-4 5-1 3-5 5-9 15-12 23-8 19-4 10-1-3 8-23 11-24 12-21 12-17 9-11 11-12 17-17 14-11 14-10 15-9 19-10 26-10 22-6 20-4z" fill="#ffffff"/>
<path transform="translate(1336,438)" d="m0 0h13l24 2 25 5 20 6 24 10 18 10 12 8 13 10 12 11 10 10 8 16 1 8-3-4-6-11-11-12-11-10-16-12-15-9-19-10-10-4h-3v-2l-11-3-8-1-2-2-9-1v-2l-9-1-13-1-2-1h-12v-1h-27v1h-12l-2 1h-6l-2 1-9 1-2 1-8 1-20 6-20 8-23 12-16 11-7 6-3 3-4 2-2 4-4 2-11 11-2 4-3 1-3 6-3 1-3 6-3 1-4 6-6 7-11 11-4 2-5 5-4 3-2 2-4 3-9 5-14 8-6 2-1 2-10 3-9 2-1 2-6 1-2 1-8 1-2 1-10-3-2-3 5-2 25-5 18-6 16-8 15-9 13-11 8-7 19-19 9-11 9-10 7-8 12-11 17-13 21-13 21-10 30-10 26-5z" fill="#ffffff"/>
<path transform="translate(1244,700)" d="m0 0 3 3 8 15 10 13 9 9 14 10 17 8 13 4 11 2h27l18-4 15-6 14-8 14-12 8-7 12-6 11-3 13-1 16 3 10 4 11 8 8 8 8 14 2 6v5l-3-4-7-12-7-8-10-7-11-5-8-1-4-1-3-1h-9l-3 1-9 1-12 5-5 4-4 2-5 5-5 4-2 2-7 4-9 6-8 4h-2l-1 2-11 3-7 2-2 1-6 1h-7v1h-13v-1h-10l-4-2h-6l-2-2h-4v-2l-3 1v-2l-9-3-13-7-14-11-7-7-11-15-7-15-2-5z" fill="#ffffff"/>
<path transform="translate(406,414)" d="m0 0 1 3-10 27-7 17-12 25-10 19-15 25-16 24-2 5-4 4-1 3-4 3-1 4-2 2-6 8-5 5-3 6h-2l-2 5h-2l-2 5h-2l-2 5-7 7-2 4-4 2-3 6-4 2-3 5-8 8-5 6-10-2-5-5-11-15-13-20-12-20-10-18-12-23-11-23v-2l-2-1-3-9-1-4-2-1-3-10-13-36 2-1 14 37 13 29 12 25 12 22 13 22 16 25 11 15 9 12 12-12 7-8 24-28 11-14 16-21 16-23 11-17 12-20 10-18 10-19 12-27 9-24z" fill="#ffffff"/>
<path transform="translate(728,699)" d="m0 0 3 3 9 17 8 10 6 7 14 11 14 8 16 6 15 3h27l15-3 14-5 15-8 13-10 9-9 10-14 5-10h2l-2 9-6 10-1 4-5 5-1 3h-2l-4 6-2 2-6 4-1 3-5 2-11 7-15 7-6 1-1 2-6 1-2 1-6 1h-7v1h-15v-1h-9l-12-4-16-6-14-8-11-9-11-11-9-13-4-7v-2l-2-1-1-5-2-5z" fill="#ffffff"/>
<path transform="translate(1716,715)" d="m0 0 2 1 6 12 8 10 7 7 14 9 13 6 18 4h27l18-4 17-8 12-9 8-8 9-14 3-6 1 3-4 11-7 11-1 3h-2l-7 8-5 5-11 6-11 5h-2l-1 2-2-1-1 2-6 1-2 1-6 1h-6v1h-15v-1h-9l-3-1-5-2h-4v-2l-3 1v-2l-9-3-11-6-11-9-8-9-8-13-3-9z" fill="#ffffff"/>
<path transform="translate(1642,446)" d="m0 0h20l14 4 12 7 8 7 9 13 5 13-1 4-8-15-11-12-13-8-6-1v-2l-4 1-4-2h-9l-4-1-4 1h-5l-4 2-4-1-1 2-9 3-9 6-2 4-5 4-4 4-8 15-1-4 5-13 7-10 5-6 13-9 13-5z" fill="#ffffff"/>
<path transform="translate(1933,446)" d="m0 0h20l14 4 12 7 8 7 9 13 4 9v5l-3-3-6-10-9-10-14-9-6-1v-2l-4 1-4-2h-9l-4-1-4 1h-5l-4 2-4-1-1 2-9 3-9 6-2 4-5 4-4 4-8 15-1-4 5-13 7-10 5-6 13-9 13-5z" fill="#ffffff"/>
<path transform="translate(26,169)" d="m0 0 1 3-6 14-4 10-1-3 8-23z" fill="#202020"/>
<path transform="translate(527,183)" d="m0 0 2 3 5 14-1 4-7-17z" fill="#222"/>
</svg>