<?xml version="1.0" encoding="UTF-8"?>
<svg version="1.1" viewBox="0 0 2048 475" width="633" height="147" xmlns="http://www.w3.org/2000/svg">
<path transform="translate(56,2)" d="m0 0h24l12 4 9 5 10 9 6 4 6 14 10 19 9 22 3 3 6 18 8 16 9 21 5 12 9 19 5 13 8 15 5 14 1 1 1 7 5 6 7 14 1 10 5 3h9l3-3 4-12 8-16 4-10 8-16 7-15 3-8 9-19 5-10 2-7 7-13 4-5 1-9 9-17 4-7 2-2 1-9 9-16 6-10 2-8 5-5 2-5 12-12 15-8 3-3h27l13 4 6 5 6 4 5 3 5 4 8 15 4 13 2 3v17l-2 2-1 7-2 2-2 9-5 12-8 17-4 8-2 10-1 2h-2l-2 4-2 8-3 4h-2l-1 9-5 12-8 17-4 8-3 8-9 20-3 8-6 15-6 9-3 8-6 19-3 3-7 16-8 20-4 7-6 17-13 27-3 12-4 4-7 15-4 13-10 17-8 13-15 9-15 7-3 1h-24l-9-3-17-10-8-8-7-8-3-4-6-17-1-12-2-4-1-9-8-15-4-7-6-7-3-9-10-19-5-8-2-5-1-7-9-15-3-6-2-6-9-19-8-15-3-9-3-6-6-7-3-11-8-16-6-10-4-10-2-7-4-5-6-15-3-9-6-10-7-15-6-13-5-9-9-21-3-8-3-12 3-18 2-3 3-10 6-11 16-14 3-4z" fill="#D6D6D6"/>
<path transform="translate(914,231)" d="m0 0h95l13 2 12 7 10 8 6 10 4 11v18l-3 9-7 12-6 5-9 5 1 4 9 6 3 3 3 8 2 7 3 36 3 12v3h-38l-3-7-3-25-2-17-1-3-14-7-4-1h-36l-1 60h-37l-1-1-1-41v-108l1-15zm38 32-1 1v42h41l9-3 8-6 3-4 1-3v-10l-3-8-5-5-7-3-12-1z" fill="#fff"/>
<path transform="translate(755,231)" d="m0 0h131v32l-91 1v32l79 1v29l-2 2h-78v37h93l1 1v30l-1 1h-131l-2-5v-157z" fill="#fff"/>
<path transform="translate(1303,227)" d="m0 0h15l18 2 12 4 9 6 6 7 5 4 4 8 3 16-1 3-15 1h-19l-3-5-4-6-4-3-10-3h-20l-10 4-4 5v8l6 7 9 6 25 5 17 4 14 6 11 7 7 8 5 11 2 9v12l-3 12-4 11-9 10-10 8-21 6-12 2h-26l-15-3-15-5-14-12-6-7-6-16-2-8v-7l2-1h37l2 3 3 12 4 4 11 5 9 2h12l14-4 6-4 1-2v-12l-3-5-10-7-10-4-30-6-15-6-12-7-7-6-5-10-2-8v-24l3-11 4-6 12-11 8-4 12-3z" fill="#fff"/>
<path transform="translate(1584,231)" d="m0 0h37l1 1v62l59-1 1-60 1-2h37l1 1-1 165h-36l-2-3v-67h-59l-1 70h-38l-2-5v-156z" fill="#fff"/>
<path transform="translate(1471,227)" d="m0 0h15l20 2 12 3 9 5 10 8 6 5 8 16 4 12 1 8-4 2h-35l-8-20-6-4-11-3h-18l-10 3-7 5-6 10-5 16-1 6v27l4 15 6 14 5 4 12 6 10 2 10-1 11-4 6-4 4-9 5-12h39l1 4-4 15-10 19-5 5-12 11-23 7-12 2h-22l-19-4-14-4-8-7-8-6-6-9-7-11-5-22-1-14v-18l2-19 4-16 6-11 7-12 13-10 5-4 9-4 16-3z" fill="#fff"/>
<path transform="translate(1802,231)" d="m0 0h39l3 5 6 16 6 14 8 24 9 21 8 24 8 18 6 20 7 16 1 8h-41l-3-7-7-23h-59l-11 29-1 1h-39l-1-2 6-16 5-16 10-24 5-16 5-12 7-18 7-21 5-12 6-20 4-8zm19 47-8 19-8 28-4 9v4h41l-1-9-8-22-7-21-2-8z" fill="#fff"/>
<path transform="translate(1129,231)" d="m0 0h39l3 5 5 13 8 19 6 19 10 24 7 21 7 18 5 16 9 21 2 6v4h-41l-3-7-7-23h-59l-11 29-1 1h-39l1-6 6-19 6-16 7-17 8-24 8-19 7-21 6-15 6-20 4-8zm19 47-8 19-8 28-4 10v3h41l-1-9-6-17-7-19-4-15z" fill="#fff"/>
<path transform="translate(586,231)" d="m0 0h43l3 5 8 33 10 31 6 26 5 15h4l7-30 8-25 8-34 6-19 2-2h41l-1 7-5 15-7 23-5 13-6 21-9 23-7 25-10 25-4 13-1 1h-43l-9-30-6-16-6-21-9-23-7-25-9-23-7-25z" fill="#fff"/>
<path transform="translate(1906,231)" d="m0 0h139l1 1v26l-1 5-48 1-1 132-1 1h-39l-1-134-41 1-8-1-1-10z" fill="#fff"/>
</svg>
