<svg xmlns="http://www.w3.org/2000/svg" version="1.1" viewBox="0 0 2048 568" width="641" height="178">
<path transform="translate(236,23)" d="m0 0 4 1 11 14 13 18 11 18 12 21 11 24 4 7 1-20v-20l-1-7 4 2 12 15 9 14 12 22 10 26 9-27h3l11 9 11 13 10 15 10 21 9 27 4 21 2 17 1 21v116l-2 16-5 16-7 13-9 12-12 11-13 8-15 6-14 3-11 1-8 6-13 10-11 9-42 33-16 13-4 1v-73h-105l-14-3-15-6-11-7-12-11-8-9-9-16-6-18-1-6v-142l3-24 5-22 5-17 8-18 9-16 9-12 12-13 7-6 3 1 7 24 2 3 5-15 14-29 14-21 11-14h2v47l3-3 6-15 12-23 10-17 14-21 9-12zm-97 193-12 2-12 5-11 7-11 11-8 14-4 13-1 10v22h25l8-16 8-9 11-7 9-4 9-2h19l11 3 12 6 10 9 6 8 6 12h47l7-14 8-10 10-7 11-5 9-2h19l11 3 12 6 10 9 7 10 5 10h24l1-1v-16l-2-18-4-11-7-12-9-10-10-7-12-6-13-3zm11 59-12 5-11 8-7 11-4 12v15l3 10 6 10 7 7 8 5 9 3h19l10-3 9-6 8-8 6-12 1-5v-18l-4-11-6-9-8-7-12-6-4-1zm157 0-11 4-9 6-7 7-7 14-1 5v15l3 10 6 9 6 7 10 6 8 3 13 1 14-3 10-6 5-5 6-7 5-12 1-7v-9l-3-11-6-11-7-7-10-6-8-3zm-226 61-1 1v56l2 12 6 15 8 11 10 9 10 6 13 5 6 1h205l12-3 12-6 10-8 8-8 8-14 3-9 1-6v-61l-2-1-23 1-8 16-7 8-14 9-12 4-5 1h-16l-15-4-10-6-10-9-6-9-5-10-3-1h-43l-3 5-7 12-6 7-10 7-10 5-12 3h-17l-14-4-10-6-10-9-7-10-5-10z" fill="#FEFEFE"/>
<path transform="translate(813,245)" d="m0 0h28l12 3 8 4 7 8 1 4h2l2-6 4-5 8-5 13-3h29l10 2 12 6 6 8 3 10 1 13v102h-42l-1-99-1-9-2-4-4-2-6-1h-13l-9 1-6 3-2 7-1 104h-42l-1-106-3-6-3-2-5-1h-15l-11 2-5 5-1 18v89l-1 1h-41l-1-5v-132l1-1h41l1 12 5-6 9-6z" fill="#FEFEFE"/>
<path transform="translate(1024,245)" d="m0 0h50l19 3 12 5 10 9 4 9 2 11v104h-41v-10l-11 9-9 3-8 1h-34l-14-3-9-7-4-8-2-7-1-9v-19l2-12 6-12 6-5 8-4 9-2h60l-2-20-4-6-8-3-10-1h-12l-44 3v-26l1-1zm14 79-5 2-3 5-1 8v9l2 10 4 4 3 1h30l8-3 3-9v-27z" fill="#FEFEFE"/>
<path transform="translate(1624,245)" d="m0 0h47l16 2 15 5 8 6 5 7 3 9 1 6v106h-41v-7l1-3-5 3-7 6-8 3-9 1h-33l-11-2-8-4-7-8-3-9-2-17 1-18 3-12 6-9 10-6 6-2 7-1h58l-1-16-3-8-4-3-6-2-9-1h-14l-42 3-1-1v-24l1-2zm14 79-6 2-3 4-1 4v21l3 5 6 3h29l7-2 4-6v-31z" fill="#FEFEFE"/>
<path transform="translate(1943,245)" d="m0 0h33l16 3 12 5 9 7 6 9 3 8 1 6 1 44-1 1h-90l1 16 3 9 6 5 9 3 6 1h29l27-4h5l1 3-1 23-16 3-19 2h-36l-16-2-16-5-11-6-7-7-6-12-1-4v-69l4-13 6-9 9-8 12-5 13-3zm12 25-13 2-6 3-3 7v22h50l1-3v-16l-2-8-5-4-12-3z" fill="#FEFEFE"/>
<path transform="translate(1229,245)" d="m0 0h29l14 3 9 6 6 7 4 10 1 5v110h-42l-1-104-3-7-6-3-6-1h-13l-13 2-6 4-1 4-1 105h-42l-1-137 1-1h41l1 12 5-6 8-5 10-3z" fill="#FEFEFE"/>
<path transform="translate(1313,247)" d="m0 0 45 1 4 9 21 66 6 19 2 1 2-10 19-66 5-18 1-1h43l-3 10-12 32-35 91-18 47-7 18h-43l2-6 15-36 6-14 1-5-6-16-24-60-23-57z" fill="#FEFEFE"/>
<path transform="translate(1530,183)" d="m0 0h35l11 1 2 1v25h-10l-20-1-9 3-3 7-1 29h38l1 24-1 1-37 1-1 112h-42v-113l-14 1h-12v-26l2-1h23l1-31 3-12 6-9 7-6 10-4z" fill="#FEFEFE"/>
<path transform="translate(1801,245)" d="m0 0h38l24 3 6 2v27l-8-1-22-4-10-1h-11l-10 2-6 3-3 1-2 4-1 3v63l4 8 5 4 11 3h23l25-4h7v26l-6 2-26 3h-36l-17-2-11-4-11-7-7-9-4-11-1-6v-63l4-16 7-11 10-7 11-5z" fill="#FEFEFE"/>
<path transform="translate(310,278)" d="m0 0h12l10 3 11 7 8 11 4 10 1 10-2 13-6 11-8 8-11 6-6 1-22-18v-2l11 2 6 2-5-5-14-12-8-6-1-2 10 1 16 3-20-16-11-9-1-4 9-8 8-4z" fill="#ffffff"/>
<path transform="translate(154,278)" d="m0 0h12l12 4 11 8 2 5-16 13-10 8-6 4-1 2 23-5 4 1-14 11-11 9-3 3 10-2h7l-5 5-9 7-7 6h-8l-10-6-9-9-6-12-1-5v-15l4-11 7-9 7-6 8-4z" fill="#ffffff"/>
<path transform="translate(422,277)" d="m0 0 9 1 10 4 8 6 6 9 3 7 1 6v16l-3 12-6 9-8 7-9 4-10 2-1-2z" fill="#FEFEFE"/>
<path transform="translate(48,277)" d="m0 0h4v82h-7l-11-4-8-7-6-7-4-10v-25l4-10 4-6 7-7 12-5z" fill="#FEFEFE"/>
<path transform="translate(205,407)" d="m0 0h64l1 3-4 10-5 6-9 4h-31l-7-4-6-8-3-6z" fill="#FEFEFE"/>
</svg>