<svg width="300" height="63" viewBox="0 0 300 63" fill="none" xmlns="http://www.w3.org/2000/svg">
<path d="M5 8.8418V53.3486C5 57.8896 15.575 61.7827 28.5293 61.7827V8.8418H5Z" fill="#0072C6"/>
<path d="M27.5488 61.7827H27.9388C40.8084 61.7827 51.0781 58.02 51.0781 53.3486V8.8418H27.5488V61.7827Z" fill="#0072C6"/>
<path opacity="0.15" d="M27.5488 61.7827H27.9388C40.8084 61.7827 51.0781 58.02 51.0781 53.3486V8.8418H27.5488V61.7827Z" fill="white"/>
<path d="M51.0782 9.3333C51.0782 13.8204 40.6944 17.6666 27.9742 17.6666C15.254 17.6666 5 13.9487 5 9.3333C5 4.84616 15.3838 1 28.104 1C40.8242 1 51.0782 4.84616 51.0782 9.3333Z" fill="white"/>
<path d="M47.1571 8.4165C47.1571 11.3346 38.7616 13.7452 28.5297 13.7452C18.2978 13.7452 9.90234 11.3346 9.90234 8.4165C9.90234 5.37152 18.2978 2.96094 28.5297 2.96094C38.7616 2.96094 47.1571 5.37152 47.1571 8.4165Z" fill="#7FBA00"/>
<path d="M43.3529 11.7844C45.8452 10.7614 47.1571 9.73836 47.1571 8.45964C47.1571 5.39063 38.7616 2.96094 28.5297 2.96094C18.2978 2.96094 9.90234 5.39063 9.90234 8.45964C9.90234 9.73836 11.3453 10.8893 13.7066 11.7844C17.1171 10.5057 22.4954 9.73836 28.3986 9.73836C34.5639 9.61052 39.9422 10.5057 43.3529 11.7844Z" fill="#B8D432"/>
<path fill-rule="evenodd" clip-rule="evenodd" d="M24.2815 39.8322C25.4579 40.9831 27.0266 41.6225 28.8567 41.6225C29.5103 41.6225 30.1638 41.6225 30.6868 41.4945L32.3861 43.157H36.4383L33.1704 40.088L33.3011 39.96L33.4318 39.8322C34.6083 38.5534 35.2618 37.0189 35.2618 34.9729C35.2618 33.0548 34.739 31.3923 33.5625 30.2415C32.3861 29.0906 30.8174 28.4512 28.9873 28.4512C27.0266 28.4512 25.4579 29.0906 24.2815 30.3693C23.105 31.5202 22.4515 33.1826 22.4515 35.2286C22.4515 37.0189 23.105 38.6813 24.2815 39.8322ZM12.2554 38.1698V40.9831C12.3842 41.0671 12.5412 41.1373 12.7079 41.2118C13.0487 41.3643 13.43 41.5347 13.6933 41.8783C14.3469 42.0061 15.1312 42.0061 15.7849 42.0061C16.4384 42.0061 17.092 41.8783 17.7456 41.7503C18.3992 41.6225 18.9221 41.3667 19.4449 41.1109C19.9678 40.8552 20.3599 40.4716 20.6214 39.96C20.8829 39.4486 21.0136 38.9371 21.0136 38.1698C21.0136 37.6583 20.8829 37.1468 20.7521 36.7632C20.6214 36.3796 20.3599 35.9959 20.0986 35.7402C19.8371 35.4844 19.4449 35.2286 19.0528 34.9729C18.8244 34.8239 18.5515 34.7183 18.2601 34.6056C18.0514 34.5248 17.8332 34.4403 17.6148 34.3335C17.2227 34.2057 16.8305 34.0777 16.5692 33.9499L15.7849 33.5662C15.6026 33.477 15.4838 33.3258 15.3844 33.199C15.3411 33.1439 15.3015 33.0934 15.2619 33.0548C15.1312 32.799 15.1312 32.6711 15.1312 32.4154C15.1312 32.2874 15.1312 32.0317 15.2619 31.9038C15.2619 31.8186 15.3782 31.7333 15.4944 31.6481C15.5524 31.6055 15.6105 31.5628 15.6541 31.5202C15.7849 31.3923 16.0462 31.2645 16.3077 31.2645C16.5692 31.1366 16.8305 31.1365 17.2227 31.1365H18.007C18.2685 31.1365 18.5299 31.1366 18.7913 31.2645C19.0528 31.2645 19.3142 31.3923 19.5756 31.5202L20.3599 31.9038V29.2184C19.9678 29.0906 19.4449 28.9626 18.9221 28.8348C18.3992 28.707 17.7456 28.707 17.092 28.707C16.4384 28.707 15.7849 28.8348 15.1312 28.9626C14.4776 29.0906 13.9548 29.3463 13.4319 29.602C12.909 29.8578 12.5169 30.2415 12.2554 30.7529C11.994 31.1366 11.8633 31.776 11.8633 32.4154C11.8633 33.3105 12.1247 33.9499 12.6476 34.5893C13.0398 35.2286 13.8241 35.7402 14.8698 36.1238C15.2619 36.3796 15.6541 36.5074 16.0462 36.6353C16.2924 36.7155 16.4871 36.8462 16.6626 36.964C16.7666 37.0339 16.864 37.0992 16.9613 37.1468C17.2227 37.2747 17.4842 37.4025 17.6148 37.6583C17.7456 37.7861 17.8763 38.0419 17.8763 38.2977C17.8763 38.4255 17.8763 38.6813 17.7456 38.8092C17.7456 38.8945 17.6295 38.9797 17.5132 39.065C17.4551 39.1076 17.397 39.1501 17.3535 39.1928C17.28 39.2646 17.1654 39.2961 17.0327 39.3326C16.9292 39.361 16.8145 39.3925 16.6998 39.4486C16.4384 39.5764 16.177 39.5764 15.7849 39.5764C15.2619 39.5764 14.6084 39.4486 13.9548 39.1928C13.3011 38.9371 12.7783 38.5534 12.2554 38.1698ZM28.9873 30.8809C27.9417 30.8809 27.1574 31.2645 26.5037 32.0317C25.8501 32.799 25.5887 33.822 25.5887 34.9729C25.5887 36.2516 25.8501 37.2747 26.5037 37.9141C27.1574 38.6813 27.9417 39.065 28.8567 39.065C29.9024 39.065 30.6868 38.6813 31.2096 38.0419C31.8632 37.2747 32.1246 36.3796 32.1246 35.1008C32.1246 33.822 31.8632 32.799 31.2096 32.0317C30.6868 31.2645 29.9024 30.8809 28.9873 30.8809ZM37.3534 41.3667H45.1965V39.065H40.3598V28.579H37.3534V41.3667Z" fill="white"/>
<path fill-rule="evenodd" clip-rule="evenodd" d="M189.267 12.2824C189.789 12.2824 190.442 12.4147 190.964 12.6794V9.50299C190.442 9.37063 189.789 9.23828 188.875 9.23828C187.178 9.23828 185.743 9.76769 184.698 10.8265C183.653 11.8853 183.132 13.3412 183.132 15.0618V17.4441H180.391V20.3559H183.132V33.5911H186.787V20.3559H190.311V17.4441H186.787V15.3265C186.787 13.3412 187.57 12.2824 189.267 12.2824ZM95.804 13.8706C95.1512 13.8706 94.6291 13.6059 94.2375 13.2089C93.8459 12.8118 93.5849 12.2824 93.5849 11.753C93.5849 11.0912 93.8459 10.6942 94.2375 10.1647C94.6291 9.76769 95.1512 9.50299 95.804 9.50299C96.4566 9.50299 96.9788 9.76769 97.3703 10.1647C97.762 10.5618 98.023 11.0912 98.023 11.753C98.023 12.2824 97.762 12.8118 97.3703 13.2089C96.8482 13.7383 96.326 13.8706 95.804 13.8706ZM84.9695 33.7235V19.2971C84.9695 17.7088 84.9695 16.3853 85.1001 15.1941V14.4C85.0479 14.6379 85.0011 14.8598 84.9573 15.067L84.9571 15.068C84.7816 15.8981 84.6563 16.4912 84.4475 16.9147L77.6596 33.7235H75.1795L68.3916 17.1794C68.3263 17.0471 68.2611 16.7493 68.1632 16.3027C68.0653 15.856 67.9348 15.2603 67.739 14.5324C67.8695 15.8559 67.8695 17.5765 67.8695 19.8265V33.7235H64.4756V11.0912H69.8275L75.571 25.3853C76.0932 26.7088 76.4847 27.7676 76.6153 28.5617H76.7458C77.268 27.2382 77.6596 26.1794 77.9207 25.3853L83.7947 11.0912H88.6245V33.7235H84.9695ZM93.9764 17.5765V33.7235H97.6314V17.5765H93.9764ZM113.687 33.0617C112.513 33.7235 110.946 34.1205 109.118 34.1205C106.768 34.1205 104.811 33.3264 103.375 31.8705C101.939 30.2823 101.156 28.4294 101.156 26.047C101.156 23.2676 101.939 21.15 103.506 19.5618C105.072 17.9735 107.161 17.1794 109.771 17.1794C111.207 17.1794 112.513 17.4441 113.557 17.9735V21.4147C112.382 20.4882 111.207 20.0912 109.902 20.0912C108.465 20.0912 107.161 20.6206 106.247 21.5471C105.333 22.4735 104.811 23.9294 104.811 25.65C104.811 27.3706 105.203 28.6941 106.116 29.6205C107.03 30.547 108.205 31.0764 109.771 31.0764C110.946 31.0764 112.252 30.6794 113.557 29.7529V33.0617H113.687ZM124.521 20.4882C125.305 20.4882 125.958 20.6206 126.611 21.0176V17.5765C126.349 17.4441 125.827 17.3118 125.174 17.3118C123.216 17.3118 121.911 18.5029 121.127 20.7529V17.5765H117.472V33.7235H121.127V25.3853C121.127 23.9294 121.389 22.7382 122.042 21.8118C122.694 20.8853 123.477 20.4882 124.521 20.4882ZM136.401 34.1205C133.92 34.1205 131.962 33.3264 130.526 31.8705C129.09 30.4147 128.308 28.297 128.308 25.7823C128.308 23.1353 129.09 21.0176 130.526 19.4294C132.093 17.8412 134.051 17.1794 136.792 17.1794C139.272 17.1794 141.23 17.9735 142.666 19.4294C144.102 20.8853 144.755 23.0029 144.755 25.5176C144.755 28.1647 143.971 30.2823 142.535 31.8705C140.969 33.3264 138.88 34.1205 136.401 34.1205ZM133.267 21.5471C134.051 20.6206 135.095 20.0912 136.531 20.0912C137.966 20.0912 139.011 20.6206 139.925 21.4147C140.708 22.3412 141.1 23.6647 141.1 25.5176C141.1 29.2235 139.533 31.0764 136.661 31.0764C135.225 31.0764 134.051 30.547 133.267 29.6205C132.484 28.6941 132.093 27.3706 132.093 25.65C132.093 23.9294 132.484 22.4735 133.267 21.5471ZM148.018 33.1941V29.7529C149.454 30.8117 150.89 31.2088 152.325 31.2088C154.022 31.2088 154.936 30.6794 154.936 29.4882C154.936 28.9588 154.805 28.5617 154.414 28.1647C154.022 27.7676 153.239 27.3706 151.934 26.8411C150.367 26.1794 149.323 25.5176 148.932 24.7235C148.54 23.9294 148.149 23.1353 148.149 22.0765C148.149 20.6206 148.67 19.4294 149.846 18.5029C151.02 17.5765 152.456 17.1794 154.284 17.1794C155.589 17.1794 156.763 17.4441 157.808 17.8412V21.15C156.633 20.3559 155.458 20.0912 154.153 20.0912C153.501 20.0912 152.848 20.2235 152.456 20.6206C152.064 20.8853 151.804 21.4147 151.804 21.8118C151.804 22.3412 151.934 22.7382 152.195 23.1353C152.456 23.4 153.239 23.9294 154.545 24.4588C156.111 25.1206 157.155 25.7823 157.677 26.5764C158.33 27.3706 158.591 28.297 158.591 29.3558C158.591 30.8117 158.069 32.0029 156.895 32.9294C155.719 33.8558 154.153 34.3852 152.195 34.3852C150.759 34.1205 149.323 33.8558 148.018 33.1941ZM163.812 31.8705C165.249 33.3264 167.206 34.1205 169.687 34.1205C172.167 34.1205 174.255 33.3264 175.822 31.8705C177.257 30.2823 178.041 28.1647 178.041 25.5176C178.041 23.0029 177.388 20.8853 175.952 19.4294C174.516 17.9735 172.558 17.1794 170.078 17.1794C167.337 17.1794 165.379 17.8412 163.812 19.4294C162.377 21.0176 161.594 23.1353 161.594 25.7823C161.594 28.297 162.377 30.4147 163.812 31.8705ZM169.817 20.0912C168.381 20.0912 167.337 20.6206 166.553 21.5471C165.77 22.4735 165.379 23.9294 165.379 25.65C165.379 27.3706 165.77 28.6941 166.553 29.6205C167.337 30.547 168.512 31.0764 169.948 31.0764C172.819 31.0764 174.386 29.2235 174.386 25.5176C174.386 23.6647 173.995 22.3412 173.211 21.4147C172.298 20.6206 171.253 20.0912 169.817 20.0912ZM201.798 33.5911C201.015 33.9882 200.101 34.1205 199.057 34.1205C195.924 34.1205 194.357 32.3999 194.357 28.9588V20.4882H191.747V17.5765H194.357V13.8706L198.013 12.8118V17.7088H201.798V20.6206H198.013V28.4294C198.013 29.4882 198.144 30.15 198.535 30.547C198.927 30.9441 199.448 31.2088 200.232 31.2088C200.754 31.2088 201.276 31.0764 201.798 30.6794V33.5911ZM226.469 28.0323L228.558 33.7235H232.604L224.12 11.0912H219.942L211.458 33.7235H215.504L217.462 28.0323H226.469ZM222.292 16.1206C222.162 15.7235 222.031 15.1941 222.031 14.5324H221.9C221.9 15.1941 221.77 15.7235 221.509 16.1206L218.506 24.8559H225.425L222.292 16.1206ZM247.225 30.8117H238.609L247.225 19.0324V17.5765H234.562V20.4882H242.264L233.518 32.3999V33.7235H247.225V30.8117ZM260.67 33.7235V31.3411C259.625 33.1941 257.929 34.1205 255.839 34.1205C252.054 34.1205 250.096 31.8705 250.096 27.3706V17.5765H253.751V26.9735C253.751 29.7529 254.795 31.2088 257.015 31.2088C258.059 31.2088 258.973 30.8117 259.625 30.0176C260.278 29.2235 260.67 28.1647 260.67 26.9735V17.5765H264.325V33.7235H260.67ZM276.726 20.4882C277.508 20.4882 278.161 20.6206 278.814 21.0176V17.5765C278.553 17.4441 278.03 17.3118 277.377 17.3118C275.42 17.3118 274.115 18.5029 273.331 20.7529V17.5765H269.677V33.7235H273.331V25.3853C273.331 23.9294 273.592 22.7382 274.245 21.8118C274.898 20.8853 275.68 20.4882 276.726 20.4882ZM284.035 26.7088C284.166 29.7529 285.863 31.2088 288.865 31.2088C290.562 31.2088 292.259 30.6794 293.695 29.6205V32.6647C292.259 33.5911 290.301 33.9882 288.081 33.9882C285.602 33.9882 283.774 33.1941 282.469 31.7382C281.164 30.2823 280.511 28.1647 280.511 25.65C280.511 23.0029 281.294 20.8853 282.729 19.2971C284.166 17.7088 285.993 16.9147 288.081 16.9147C290.301 16.9147 291.998 17.5765 293.173 19.0324C294.347 20.3559 295 22.3412 295 24.7235V26.5764H284.035V26.7088ZM287.951 19.9588C290.171 19.9588 291.345 21.2823 291.345 23.9294H284.035C284.296 22.7382 284.819 21.6794 285.471 21.0176C286.124 20.3559 287.037 19.9588 287.951 19.9588Z" fill="#0072C6"/>
<path fill-rule="evenodd" clip-rule="evenodd" d="M196.298 56.7552C196.269 57.1317 196.242 57.4787 196.242 57.7729H197.81L197.941 56.2337C198.595 57.516 199.771 58.0287 201.078 58.0287C203.3 58.0287 205.392 56.3621 205.392 53.0291C205.392 50.2085 203.693 48.2855 201.34 48.2855C199.771 48.2855 198.725 48.9264 198.072 49.9521V44.0547H196.372V55.3367C196.372 55.8229 196.334 56.3101 196.298 56.7552ZM80.6866 58.1572C82.2552 58.6699 83.9545 59.1827 85.7846 59.6954L86.1768 58.1572C85.0003 58.0288 83.5624 57.7729 82.2552 57.3876V57.2601C84.4774 56.619 86.0461 54.4393 86.0461 51.1059C86.0461 47.2598 83.6931 44.5675 80.1637 44.5675C76.6343 44.5675 74.0199 47.2598 74.0199 51.3624C74.0199 55.465 76.765 57.7729 79.9023 57.9003C80.1637 57.9003 80.4251 58.0288 80.6866 58.1572ZM68.0069 56.619C66.8305 56.619 65.7847 56.2337 65.0004 55.7209L64.4775 57.3876C65.2618 57.7729 66.569 58.1572 67.8762 58.1572C70.8827 58.1572 72.4513 56.4905 72.4513 54.4393C72.4513 52.5162 71.2749 51.4905 69.0526 50.5931C67.2226 49.8239 66.4383 49.1829 66.4383 48.0291C66.4383 47.1316 67.0918 46.106 68.9219 46.106C70.0984 46.106 71.0134 46.4906 71.4055 46.747L71.9285 45.3367C71.4056 44.9521 70.3599 44.6958 69.0526 44.6958C66.4383 44.6958 64.7389 46.106 64.7389 48.1572C64.7389 50.0803 66.1768 51.1059 68.2683 51.8752C70.0984 52.5162 70.752 53.2854 70.752 54.4393C70.752 55.7209 69.7062 56.619 68.0069 56.619ZM84.3467 51.2342C84.3467 48.6701 83.0395 45.9777 80.1637 45.9777C77.2879 45.9777 75.85 48.5418 75.85 51.3624C75.85 54.0546 77.4187 56.619 80.033 56.619C82.9088 56.619 84.3467 54.1829 84.3467 51.2342ZM90.0983 44.8239H88.399V57.7729H95.7192V56.3621H90.0983V44.8239ZM101.602 55.7209C102.386 56.2337 103.431 56.619 104.608 56.619C106.308 56.619 107.353 55.7209 107.353 54.4393C107.353 53.2854 106.7 52.5162 104.869 51.8752C102.778 51.1059 101.34 50.0803 101.34 48.1572C101.34 46.106 103.039 44.6958 105.654 44.6958C106.961 44.6958 108.007 44.9521 108.529 45.3367L108.007 46.747C107.615 46.4906 106.7 46.106 105.523 46.106C103.693 46.106 103.039 47.1316 103.039 48.0291C103.039 49.1829 103.823 49.8239 105.654 50.5931C107.876 51.4905 109.053 52.5162 109.053 54.4393C109.053 56.4905 107.484 58.1572 104.477 58.1572C103.17 58.1572 101.863 57.7729 101.078 57.3876L101.602 55.7209ZM115.85 56.619C114.151 56.619 112.582 55.7209 112.582 53.4137V53.2854H119.249V52.5162C119.249 50.8496 118.464 48.1572 115.327 48.1572C112.582 48.1572 110.882 50.3367 110.882 53.1572C110.882 55.9778 112.713 57.9003 115.588 57.9003C117.026 57.9003 118.072 57.516 118.725 57.2601L118.464 56.1062C117.811 56.3621 117.026 56.619 115.85 56.619ZM117.549 52.2598C117.549 51.2342 117.157 49.5675 115.196 49.5675C113.497 49.5675 112.713 51.1059 112.582 52.2598H117.549ZM121.21 48.4137C121.34 49.311 121.34 50.2085 121.34 51.3624V57.6444H122.909V52.6444C122.909 52.5162 122.941 52.388 122.974 52.2598C123.007 52.1316 123.039 52.0034 123.039 51.8752C123.301 50.5931 124.215 49.6957 125.392 49.6957H126.046V48.1572H125.523C124.347 48.1572 123.301 48.9264 122.909 50.2085H122.778V48.4137H121.21ZM128.921 48.4137L130.752 53.67C131.013 54.5675 131.274 55.3367 131.536 56.1062C131.798 55.3374 132.059 54.5673 132.32 53.67L134.151 48.4137H135.98L132.32 57.7729H130.621L126.961 48.4137H128.921ZM141.732 56.619C140.033 56.619 138.464 55.7209 138.464 53.4137V53.2854H145.131V52.5162C145.131 50.8496 144.347 48.1572 141.209 48.1572C138.464 48.1572 136.764 50.3367 136.764 53.1572C136.764 55.9778 138.595 57.9003 141.47 57.9003C142.908 57.9003 143.955 57.516 144.607 57.2601L144.347 56.1062C143.693 56.3621 142.908 56.619 141.732 56.619ZM143.562 52.2598C143.562 51.2342 143.17 49.5675 141.209 49.5675C139.509 49.5675 138.725 51.1059 138.595 52.2598H143.562ZM147.222 48.4137C147.353 49.311 147.353 50.2085 147.353 51.3624H147.222V57.6444H148.921V52.6444C148.921 52.5162 148.955 52.388 148.987 52.2598C149.019 52.1316 149.053 52.0034 149.053 51.8752C149.313 50.5931 150.229 49.6957 151.405 49.6957H152.058V48.1572H151.536C150.359 48.1572 149.313 48.9264 148.921 50.2085H148.791V48.4137H147.222ZM157.941 44.9521C158.987 44.8239 160.163 44.6958 161.602 44.6958C164.085 44.6958 165.784 45.2085 166.96 46.3624C168.137 47.388 168.791 48.9264 168.791 50.9777C168.791 53.1572 168.137 54.8239 166.83 55.9778C165.653 57.1317 163.562 57.9003 160.948 57.9003C159.771 57.9003 158.725 57.9003 157.81 57.7729V44.9521H157.941ZM161.34 56.619C160.686 56.619 160.033 56.6189 159.641 56.4905V46.2342C159.796 46.2342 159.992 46.2141 160.229 46.1899C160.591 46.1528 161.049 46.106 161.602 46.106C165.261 46.106 166.96 48.0291 166.96 51.1059C166.96 54.5675 165 56.619 161.34 56.619ZM176.242 57.7729L176.111 56.619C175.588 57.3876 174.543 58.0287 173.235 58.0287C171.274 58.0287 170.359 56.7474 170.359 55.3367C170.359 53.0291 172.451 51.8752 176.111 51.8752V51.747C176.111 50.9777 175.85 49.5675 174.019 49.5675C173.104 49.5675 172.19 49.8239 171.536 50.2085L171.144 49.0547C171.928 48.5418 173.104 48.2855 174.281 48.2855C177.156 48.2855 177.941 50.2085 177.941 52.1316V55.5935C177.941 56.3621 177.941 57.1317 178.072 57.7729H176.242ZM171.928 55.0803C171.928 53.2854 174.151 53.0291 175.98 53.0291V54.6957C175.98 54.7597 175.948 54.8559 175.915 54.9521C175.882 55.0483 175.85 55.1443 175.85 55.2085C175.457 55.9778 174.673 56.7474 173.497 56.7474C172.712 56.7474 171.928 56.2337 171.928 55.0803ZM182.386 45.7214V48.4137H184.869V49.6957H182.386V54.6957C182.386 55.8493 182.778 56.4905 183.693 56.4905C184.085 56.4905 184.477 56.4905 184.739 56.3621L184.869 57.6444C184.477 57.7729 183.954 57.9003 183.3 57.9003C182.516 57.9003 181.862 57.6444 181.47 57.1317C180.948 56.6189 180.817 55.8493 180.817 54.6957V49.5675H179.379V48.2855H180.817V46.106L182.386 45.7214ZM191.928 56.619L192.058 57.7729H193.889C193.758 57.1317 193.758 56.3621 193.758 55.5935V52.1316C193.758 50.2085 192.974 48.2855 190.097 48.2855C188.921 48.2855 187.745 48.5418 186.96 49.0547L187.352 50.2085C188.006 49.8239 188.921 49.5675 189.837 49.5675C191.666 49.5675 191.928 50.9777 191.928 51.747V51.8752C188.268 51.8752 186.176 53.0291 186.176 55.3367C186.176 56.7474 187.092 58.0287 189.052 58.0287C190.359 58.0287 191.405 57.3876 191.928 56.619ZM191.797 53.0291C189.967 53.0291 187.745 53.2854 187.745 55.0803C187.745 56.2337 188.529 56.7474 189.313 56.7474C190.49 56.7474 191.274 55.9778 191.666 55.2085C191.666 55.1443 191.699 55.0483 191.732 54.9521C191.764 54.8559 191.797 54.7597 191.797 54.6957V53.0291ZM197.941 54.0546C197.941 54.311 197.941 54.4393 198.072 54.6957C198.464 55.8493 199.379 56.619 200.686 56.619C202.516 56.619 203.562 55.2085 203.562 53.0291C203.562 51.1059 202.516 49.5675 200.686 49.5675C199.509 49.5675 198.464 50.3367 198.072 51.6188C198.072 51.747 198.039 51.8431 198.006 51.9393C197.974 52.0354 197.941 52.1316 197.941 52.2598V54.0546ZM212.582 56.619L212.712 57.7729H214.542C214.411 57.1317 214.411 56.3621 214.411 55.5935V52.1316C214.411 50.2085 213.627 48.2855 210.751 48.2855C209.575 48.2855 208.398 48.5418 207.614 49.0547L208.006 50.2085C208.66 49.8239 209.575 49.5675 210.49 49.5675C212.32 49.5675 212.582 50.9777 212.582 51.747V51.8752C208.921 51.8752 206.83 53.0291 206.83 55.3367C206.83 56.7474 207.744 58.0287 209.705 58.0287C211.013 58.0287 212.058 57.3876 212.582 56.619ZM212.45 53.0291C210.621 53.0291 208.398 53.2854 208.398 55.0803C208.398 56.2337 209.183 56.7474 209.967 56.7474C211.143 56.7474 211.928 55.9778 212.32 55.2085C212.32 55.1443 212.352 55.0483 212.386 54.9521C212.418 54.8559 212.45 54.7597 212.45 54.6957V53.0291ZM218.856 56.619C218.072 56.619 217.156 56.3621 216.634 55.9778L216.372 57.3876C217.026 57.7729 217.941 58.0287 218.987 58.0287C221.209 58.0287 222.516 56.8748 222.516 55.2085C222.516 53.7983 221.732 53.0291 220.033 52.388C218.725 52.0034 218.202 51.6188 218.202 50.8496C218.202 50.2085 218.725 49.5675 219.771 49.5675C220.686 49.5675 221.34 49.8239 221.732 50.0804L222.124 48.7983C221.601 48.4137 220.686 48.1572 219.771 48.1572C217.68 48.1572 216.503 49.311 216.503 50.8496C216.503 52.0034 217.288 52.9008 218.987 53.5418C220.163 53.9264 220.686 54.4393 220.686 55.2085C220.686 55.9778 220.163 56.619 218.856 56.619ZM225.653 53.4137C225.653 55.7209 227.222 56.619 228.921 56.619C230.097 56.619 230.882 56.3621 231.536 56.1062L231.797 57.2601C231.143 57.516 230.097 57.9003 228.66 57.9003C225.784 57.9003 223.954 55.9778 223.954 53.1572C223.954 50.3367 225.653 48.1572 228.398 48.1572C231.536 48.1572 232.32 50.8496 232.32 52.5162V53.2854H225.653V53.4137ZM228.268 49.5675C230.229 49.5675 230.621 51.2342 230.621 52.2598H225.653C225.784 51.1059 226.568 49.5675 228.268 49.5675Z" fill="#0072C6"/>
</svg>
