<svg xmlns="http://www.w3.org/2000/svg" xmlns:xlink="http://www.w3.org/1999/xlink" version="1.1" id="Microsoft" x="0px" y="0px" viewBox="0 0 800 170.8" style="enable-background:new 0 0 800 170.8;" xml:space="preserve">
<style type="text/css">
	.st0{fill:#ffffff;}
	.st1{fill:#ffffff;}
	.st2{fill:#ffffff;}
	.st3{fill:#ffffff;}
	.st4{fill:#ffffff;}
</style>
<path class="st0" d="M800,77.3V63.2h-17.5V41.3l-0.6,0.2l-16.4,5l-0.3,0.1v16.6h-25.9V54c0-4.3,1-7.6,2.9-9.8c1.9-2.2,4.6-3.3,8-3.3  c2.5,0,5,0.6,7.6,1.7l0.6,0.3V28.1l-0.3-0.1c-2.4-0.9-5.7-1.3-9.7-1.3c-5.1,0-9.7,1.1-13.8,3.3c-4,2.2-7.2,5.3-9.4,9.3  c-2.2,4-3.3,8.6-3.3,13.7v10.2h-12.2v14.1h12.2v59.3h17.5V77.3h25.9v37.7c0,15.5,7.3,23.4,21.7,23.4c2.4,0,4.9-0.3,7.4-0.8  c2.6-0.6,4.4-1.1,5.4-1.7l0.2-0.1v-14.2l-0.7,0.5c-0.9,0.6-2.1,1.1-3.5,1.5c-1.4,0.4-2.6,0.6-3.5,0.6c-3.4,0-5.9-0.9-7.4-2.7  c-1.6-1.8-2.4-5-2.4-9.4V77.3H800L800,77.3z M670.7,124c-6.3,0-11.3-2.1-14.9-6.2c-3.5-4.2-5.3-10.1-5.3-17.6  c0-7.8,1.8-13.9,5.3-18.1c3.5-4.2,8.5-6.3,14.7-6.3c6.1,0,10.9,2,14.3,6.1c3.5,4,5.2,10.1,5.2,18c0,8-1.7,14.1-4.9,18.2  C681.9,122,677.1,124,670.7,124 M671.5,61.4c-12.1,0-21.7,3.5-28.5,10.5c-6.8,7-10.3,16.7-10.3,28.8c0,11.5,3.4,20.7,10.1,27.4  c6.7,6.7,15.8,10.1,27,10.1c11.7,0,21.1-3.6,28-10.7c6.8-7.1,10.3-16.7,10.3-28.5c0-11.7-3.3-21-9.7-27.7  C691.9,64.8,682.8,61.4,671.5,61.4 M604.4,61.4c-8.2,0-15,2.1-20.2,6.3c-5.2,4.2-7.9,9.6-7.9,16.3c0,3.4,0.6,6.5,1.7,9.1  c1.1,2.6,2.9,4.9,5.2,6.8c2.3,1.9,5.9,3.9,10.6,5.9c4,1.6,6.9,3,8.8,4.1c1.8,1.1,3.1,2.1,3.9,3.2c0.7,1,1.1,2.4,1.1,4.2  c0,4.9-3.7,7.3-11.3,7.3c-2.8,0-6-0.6-9.5-1.7c-3.5-1.1-6.8-2.8-9.8-5l-0.7-0.5v16.8l0.3,0.1c2.5,1.1,5.6,2.1,9.3,2.9  c3.7,0.8,7,1.1,9.9,1.1c8.9,0,16.1-2.1,21.4-6.3c5.3-4.2,8-9.8,8-16.7c0-4.9-1.4-9.2-4.3-12.6c-2.8-3.4-7.7-6.5-14.5-9.3  c-5.4-2.2-8.9-4-10.4-5.4c-1.4-1.3-2.1-3.2-2.1-5.6c0-2.1,0.9-3.8,2.7-5.2c1.8-1.4,4.3-2.1,7.4-2.1c2.9,0,5.9,0.5,8.8,1.4  c3,0.9,5.6,2.1,7.7,3.6l0.7,0.5V64.6l-0.3-0.1c-2-0.9-4.6-1.6-7.8-2.2C609.8,61.7,606.9,61.4,604.4,61.4 M530.8,124  c-6.3,0-11.3-2.1-14.9-6.2c-3.5-4.2-5.3-10.1-5.3-17.6c0-7.8,1.8-13.9,5.3-18.1c3.5-4.2,8.5-6.3,14.7-6.3c6.1,0,10.9,2,14.3,6.1  c3.5,4,5.2,10.1,5.2,18c0,8-1.7,14.1-4.9,18.2C542,122,537.2,124,530.8,124 M531.6,61.4c-12.1,0-21.7,3.5-28.5,10.5  c-6.8,7-10.3,16.7-10.3,28.8c0,11.5,3.4,20.7,10.1,27.4c6.7,6.7,15.8,10.1,27,10.1c11.7,0,21.1-3.6,28-10.7  c6.8-7.1,10.3-16.7,10.3-28.5c0-11.7-3.3-21-9.7-27.7C552,64.8,543,61.4,531.6,61.4 M466.2,75.9V63.2h-17.3v73.3h17.3V99  c0-6.4,1.4-11.6,4.3-15.6c2.8-3.9,6.6-5.9,11.2-5.9c1.6,0,3.3,0.3,5.2,0.8c1.9,0.5,3.2,1.1,4,1.6l0.7,0.5V63.1l-0.3-0.1  c-1.6-0.7-3.9-1-6.8-1c-4.3,0-8.2,1.4-11.5,4.1c-2.9,2.4-5,5.7-6.6,9.8H466.2z M418,61.4c-7.9,0-15,1.7-21,5  c-6,3.4-10.7,8.1-13.8,14.2c-3.2,6.1-4.8,13.2-4.8,21.1c0,6.9,1.6,13.3,4.6,18.9c3.1,5.6,7.4,10,12.9,13.1c5.5,3,11.8,4.6,18.9,4.6  c8.2,0,15.2-1.6,20.8-4.9l0.2-0.1v-15.8l-0.7,0.5c-2.5,1.9-5.4,3.3-8.4,4.4c-3,1.1-5.8,1.6-8.3,1.6c-6.8,0-12.2-2.1-16.1-6.3  c-4-4.2-6-10.1-6-17.4c0-7.4,2.1-13.5,6.2-17.9c4.1-4.4,9.6-6.7,16.2-6.7c5.7,0,11.2,1.9,16.4,5.7l0.7,0.5V65.3l-0.2-0.1  c-2-1.1-4.7-2-8-2.7C424.4,61.8,421.1,61.4,418,61.4 M366.6,63.2h-17.3v73.3h17.3C366.6,136.5,366.6,63.2,366.6,63.2z M358.2,32  c-2.8,0-5.3,1-7.4,2.9c-2,1.9-3.1,4.3-3.1,7.2c0,2.8,1,5.2,3,7.1c2,1.9,4.5,2.8,7.4,2.8c2.9,0,5.4-0.9,7.4-2.8  c2-1.9,3.1-4.2,3.1-7.1c0-2.8-1-5.1-3-7.1C363.7,32.9,361.1,32,358.2,32 M315.1,57.8v78.7h17.6V34.2h-24.4l-31,76l-30.1-76H222  v102.3h16.5V57.8h0.6l31.7,78.8h12.5l31.2-78.7L315.1,57.8L315.1,57.8z" fill="#000000"/>
<g>
	<path class="st1" d="M81.2,81.2H0V0h81.2V81.2z" fill="#000000"/>
	<path class="st2" d="M170.8,81.2H89.6V0h81.2L170.8,81.2L170.8,81.2z" fill="#000000"/>
	<path class="st3" d="M81.2,170.8H0V89.6h81.2V170.8z" fill="#000000"/>
	<path class="st4" d="M170.8,170.8H89.6V89.6h81.2L170.8,170.8L170.8,170.8z" fill="#000000"/>
</g>
</svg>