<svg xmlns="http://www.w3.org/2000/svg" xmlns:xlink="http://www.w3.org/1999/xlink" version="1.1" id="Azure" x="0px" y="0px" viewBox="0 0 589.9 170.7" style="enable-background:new 0 0 589.9 170.7;" xml:space="preserve">
<style type="text/css">
	.st0{fill:#ffffff;}
</style>
<path id="path21" class="st0" d="M101.5,161.7l51.8-9.2l0.6-0.2l-26.7-31.6c-14.7-17.5-26.7-31.8-26.7-31.8s27.6-75.9,27.6-76.1  s18.8,32.2,45.4,78.3l45.6,79l0.4,0.6H50.4L101.5,161.7z M425.9,154.1c-12.9-0.7-20.4-8.1-22.4-21.9c-0.6-3.7-0.6-3.7-0.6-27.4v-23  h11.4v22.2c0,20,0,22.4,0.2,23.7c0.7,5.7,2.4,9.6,5,12.3c2.2,2.2,5,3.7,8.1,4.2c2.6,0.4,5.1,0.4,7.7,0c3.3-0.7,6.3-2.4,8.6-4.8  c2.9-3.1,5-7,5.9-11.2l0.4-1.5V82.1h11.6v70.4h-11.4V147c0-1.8,0-3.7-0.2-5.5c-0.2,0.4-0.6,0.7-0.7,1.1c-2,3.7-5.1,6.8-9,9  C436.2,153.8,431.1,154.7,425.9,154.1z M556.6,154.1c-4.8-0.4-9.2-1.8-13.2-4.4c-8.3-5.1-13.1-13.4-14.5-25  c-0.6-4.2-0.6-8.5-0.2-12.7c0.9-7.4,3.7-14.5,8.1-20.4c1.5-1.8,3.1-3.5,5-5c3.7-2.9,7.9-5,12.7-6.1c3.3-0.6,6.8-0.9,10.1-0.6  c7,0.6,13.4,3.9,18,9.2c4.6,5.3,7,12.9,7.4,22.1v8.6h-50v1.1c0,3.7,0.7,7.4,2.2,10.7c1.3,2.8,2.9,5.3,5.1,7.4  c3.5,3.1,7.9,5,12.7,5.3c2.8,0.2,5.5,0,8.3-0.4c5.7-0.9,11-3.1,15.6-6.4l1.1-0.7c0.2,1.7,0.4,3.5,0.2,5.1v5.3l-1.1,0.7  c-5.1,3.1-10.8,5.1-16.7,5.7C563.6,154.1,560.1,154.1,556.6,154.1L556.6,154.1z M578.3,109.5c0-5.7-2-11-5.7-15.3  c-2.4-2.4-5.5-3.9-8.8-4.2c-2.2-0.2-4.6-0.2-6.8,0.2c-3.5,0.7-6.8,2.4-9.4,5c-2.8,2.8-5,6.1-6.3,9.9c-0.6,1.7-0.9,3.3-1.1,4.8v0.6  h38.2L578.3,109.5L578.3,109.5z M240.1,152.3c0,0,8.5-22.2,18.8-49.4l18.6-49.3h12.1l0.6,1.3c1.5,3.9,37.5,97.4,37.5,97.6  c0,0.2-2.9,0-6.4,0h-6.4l-5.1-13.8l-5.1-13.8h-41.7l-0.2,0.6c-0.2,0.2-2.4,6.4-5,13.8l-4.8,13.4h-6.4  C244.3,152.5,242.1,152.5,240.1,152.3z M300.7,114.2L293,93.1c-8.1-21.7-8.5-23-9-26.5c-0.4-1.7-0.4-1.7-0.6-0.2  c-0.2,1.7-0.6,3.1-1.1,4.8c-0.2,0.7-3.9,10.5-8.1,22.1c-4.2,11.6-7.7,20.6-7.7,20.8c0,0.2,7.7,0.2,17.1,0.2L300.7,114.2L300.7,114.2  z M331.8,150.6v-1.8l20.8-28.7l20.8-28.7h-37.9v-9.6h54.6v3.3l-20.6,28.9c-11.4,15.8-20.8,28.9-20.8,28.9h41v9.6h-58.1L331.8,150.6  L331.8,150.6z M484.6,152.3V81.7H496v7.4c0,4,0,7.2,0.2,7.2c0.2-0.4,0.6-0.9,0.6-1.5c1.3-3.7,3.5-7.2,6.4-9.7c2.4-2.4,5.5-4,9-4.4  c1.3-0.2,2.4-0.2,3.7-0.2c1.8,0,3.5,0.2,5.3,0.7l0.4,0.2v11.6l-1.3-0.7c-2.4-1.1-5-1.7-7.5-1.5c-1.5,0-3.1,0.4-4.6,0.9  c-2.9,1.1-5.5,3.1-7.2,5.9c-2.6,4.2-4.2,8.8-4.8,13.8c0,0.7-0.2,7.7-0.2,21.1v19.9h-5.7C487.1,152.5,484.6,152.3,484.6,152.3  L484.6,152.3z M0,152.1c0,0,12.5-21.9,27.9-48.3l27.9-48.3l32.4-27.2C106.1,13.1,120.8,1,120.8,1c-0.2,0.4-0.4,0.9-0.6,1.3  C119.9,3,104,37,84.9,78l-34.6,74.3H25.2C11.4,152.1,0,152.1,0,152.1L0,152.1z" fill="#ffffff"/>
</svg>