<svg width="29" height="30" viewBox="0 0 29 30" fill="none" xmlns="http://www.w3.org/2000/svg">
<g clip-path="url(#clip0_858_1597)">
<g clip-path="url(#clip1_858_1597)">
<g clip-path="url(#clip2_858_1597)">
<path d="M28.1928 15.2087C28.1928 16.4004 26.7287 17.3826 26.4354 18.4812C26.1328 19.6171 26.8986 21.1999 26.3237 22.1937C25.7395 23.2039 23.9821 23.325 23.1628 24.1443C22.3435 24.9636 22.2225 26.7209 21.2123 27.3051C20.2184 27.88 18.6357 27.1143 17.4998 27.4168C16.4012 27.7101 15.419 29.1742 14.2272 29.1742C13.0355 29.1742 12.0533 27.7101 10.9546 27.4168C9.81879 27.1143 8.23603 27.88 7.24215 27.3051C6.23198 26.7209 6.11094 24.9636 5.29163 24.1443C4.47232 23.325 2.71499 23.2039 2.13077 22.1937C1.55586 21.1999 2.32163 19.6171 2.01905 18.4812C1.72577 17.3826 0.261719 16.4004 0.261719 15.2087C0.261719 14.0169 1.72577 13.0347 2.01905 11.9361C2.32163 10.8002 1.55586 9.21747 2.13077 8.22359C2.71499 7.21342 4.47232 7.09239 5.29163 6.27308C6.11094 5.45377 6.23198 3.69644 7.24215 3.11221C8.23603 2.5373 9.81879 3.30308 10.9546 3.00049C12.0533 2.70721 13.0355 1.24316 14.2272 1.24316C15.419 1.24316 16.4012 2.70721 17.4998 3.00049C18.6357 3.30308 20.2184 2.5373 21.2123 3.11221C22.2225 3.69644 22.3435 5.45377 23.1628 6.27308C23.9821 7.09239 25.7395 7.21342 26.3237 8.22359C26.8986 9.21747 26.1328 10.8002 26.4354 11.9361C26.7287 13.0347 28.1928 14.0169 28.1928 15.2087Z" fill="white"/>
<path d="M18.2629 11.0473L12.9467 16.3635L10.1908 13.6099C9.59263 13.0117 8.62203 13.0117 8.02384 13.6099C7.42565 14.2081 7.42565 15.1787 8.02384 15.7769L11.89 19.643C12.4719 20.2249 13.4169 20.2249 13.9988 19.643L20.4275 13.2142C21.0257 12.616 21.0257 11.6454 20.4275 11.0473C19.8294 10.4491 18.8611 10.4491 18.2629 11.0473Z" fill="#A38CFF"/>
</g>
</g>
</g>
<defs>
<clipPath id="clip0_858_1597">
<rect width="29" height="29" fill="white" transform="translate(0 0.794922)"/>
</clipPath>
<clipPath id="clip1_858_1597">
<rect width="29" height="29" fill="white" transform="translate(0 0.794922)"/>
</clipPath>
<clipPath id="clip2_858_1597">
<rect width="29" height="29" fill="white" transform="translate(0 0.794922)"/>
</clipPath>
</defs>
</svg>
