<svg width="70" height="19" viewBox="0 0 70 19" fill="none" xmlns="http://www.w3.org/2000/svg">
<g clip-path="url(#clip0_113_563)">
<path d="M5.22772 2.65019C4.54169 1.84443 3.95095 1.02609 3.83661 0.856122C3.82391 0.843532 3.80485 0.843532 3.79215 0.856122C3.67146 1.02609 3.08071 1.84443 2.39469 2.65019C-3.48734 10.0845 3.32209 15.1016 3.32209 15.1016L3.37926 15.1394C3.43008 15.9137 3.55712 17.0279 3.55712 17.0279H3.8112H4.06529C4.06529 17.0279 4.19233 15.92 4.24315 15.1394L4.30031 15.0953C4.30031 15.1016 11.1098 10.0845 5.22772 2.65019ZM3.8112 14.9883C3.8112 14.9883 3.5063 14.7302 3.42373 14.598V14.5854L3.79215 6.49012C3.79215 6.46494 3.83026 6.46494 3.83026 6.49012L4.19233 14.5854V14.598C4.10975 14.7302 3.8112 14.9883 3.8112 14.9883ZM16.5471 13.339L13.7078 6.47123L13.7014 6.45235H11.4972V6.91188H11.8529C11.9609 6.91188 12.0626 6.95594 12.1388 7.03148C12.215 7.10702 12.2531 7.20774 12.2531 7.31476L12.1896 14.2266C12.1896 14.4407 12.0117 14.6169 11.7958 14.6232L11.4337 14.6358V15.089H13.5807V14.6358L13.3584 14.6295C13.1424 14.6232 12.9646 14.447 12.9646 14.2329V7.71763L16.058 15.089C16.1025 15.1961 16.2041 15.2653 16.3185 15.2653C16.4328 15.2653 16.5344 15.1961 16.5789 15.089L19.6025 7.8813L19.647 14.2266C19.647 14.4469 19.4691 14.6232 19.2468 14.6295H19.0181V15.0827H21.5335V14.6358H21.1905C20.9745 14.6358 20.7967 14.4532 20.7903 14.2392L20.7713 7.32735C20.7713 7.10702 20.9491 6.93076 21.1651 6.92447L21.5335 6.91817V6.45235H19.3865L16.5471 13.339ZM36.3275 14.5099C36.2577 14.4407 36.2196 14.3462 36.2196 14.2329V10.8399C36.2196 10.1916 36.029 9.68796 35.6479 9.32914C35.2731 8.97033 34.7459 8.78148 34.098 8.78148C33.1833 8.78148 32.4655 9.14659 31.9637 9.87051C31.9573 9.8831 31.9382 9.8894 31.9192 9.8894C31.9001 9.8894 31.8874 9.87681 31.8874 9.85792L31.6524 8.95145H31.2522L30.2359 9.53058V9.84533H30.4963C30.617 9.84533 30.7186 9.87681 30.7885 9.93976C30.8584 10.0027 30.8965 10.0971 30.8965 10.2293V14.2266C30.8965 14.3399 30.8584 14.4344 30.7885 14.5036C30.7186 14.5728 30.6234 14.6106 30.509 14.6106H30.2549V15.0702H32.5862V14.6106H32.3321C32.2177 14.6106 32.1225 14.5728 32.0526 14.5036C31.9827 14.4344 31.9446 14.3399 31.9446 14.2266V11.5764C31.9446 11.2428 32.0208 10.9029 32.1606 10.5755C32.3067 10.2545 32.5226 9.97753 32.8085 9.76979C33.0943 9.56206 33.4373 9.46134 33.8375 9.46134C34.2822 9.46134 34.6188 9.59983 34.8348 9.87681C35.0444 10.1538 35.1524 10.5189 35.1524 10.9469V14.214C35.1524 14.3273 35.1143 14.4218 35.0444 14.491C34.9745 14.5603 34.8793 14.598 34.7649 14.598H34.5108V15.0576H36.8421V14.598H36.588C36.4927 14.6232 36.4038 14.5854 36.3275 14.5099ZM57.6451 6.96853C57.0036 6.6286 56.2794 6.45235 55.5045 6.45235H52.4682V6.91188H52.7667C52.8811 6.91188 52.9827 6.95594 53.0843 7.05666C53.1796 7.15109 53.2304 7.2581 53.2304 7.37141V14.1574C53.2304 14.2707 53.1796 14.3777 53.0843 14.4721C52.9891 14.5666 52.8811 14.6169 52.7667 14.6169H52.4682V15.0764H55.5045C56.2794 15.0764 57.0036 14.9002 57.6515 14.5603C58.2994 14.2203 58.8203 13.7167 59.2014 13.0746C59.5825 12.4326 59.7794 11.6583 59.7794 10.7707C59.7794 9.8894 59.5825 9.12141 59.2014 8.46673C58.8139 7.81206 58.2931 7.31476 57.6451 6.96853ZM58.5535 10.7581C58.5535 11.5639 58.4074 12.2437 58.1215 12.7914C57.8357 13.339 57.4546 13.7482 56.9909 14.0126C56.5208 14.277 56.0063 14.4092 55.4473 14.4092H54.8312C54.7168 14.4092 54.6152 14.3651 54.5136 14.2644C54.4183 14.17 54.3675 14.063 54.3675 13.9496V7.55396C54.3675 7.44065 54.4119 7.33994 54.5136 7.23922C54.6088 7.14479 54.7168 7.09443 54.8312 7.09443H55.4473C56.0063 7.09443 56.5208 7.22663 56.9909 7.49101C57.4609 7.7554 57.8357 8.16458 58.1215 8.71224C58.4074 9.27249 58.5535 9.95864 58.5535 10.7581ZM66.951 11.2176C66.6715 10.8966 66.1315 10.6259 65.49 10.4811C66.3666 10.0468 66.8239 9.43616 66.8239 8.64929C66.8239 8.22123 66.7096 7.83724 66.4809 7.5099C66.2522 7.18256 65.9283 6.91817 65.5154 6.73562C65.1025 6.55306 64.6134 6.45864 64.0671 6.45864H60.6306V6.91817H60.9038C61.0181 6.91817 61.1197 6.96224 61.2214 7.06296C61.3166 7.15738 61.3675 7.2644 61.3675 7.37771V14.1637C61.3675 14.277 61.3166 14.384 61.2214 14.4784C61.1261 14.5728 61.0181 14.6232 60.9038 14.6232H60.5989V15.0827H64.3275C64.8929 15.0827 65.4265 14.9883 65.9029 14.7995C66.3793 14.6106 66.7667 14.3336 67.0399 13.9685C67.3194 13.6034 67.4591 13.1565 67.4591 12.6403C67.4528 12.0737 67.2876 11.6016 66.951 11.2176ZM62.6696 14.277C62.5744 14.1826 62.5235 14.0755 62.5235 13.9622V10.9155H64.2958C64.9183 10.9155 65.401 11.0728 65.7314 11.3876C66.0617 11.7023 66.2268 12.1115 66.2268 12.6151C66.2268 12.9173 66.1506 13.2131 66.0108 13.4838C65.8647 13.7608 65.6488 13.9811 65.3566 14.1511C65.0707 14.3211 64.715 14.4092 64.2958 14.4092H62.9872C62.8729 14.4155 62.7713 14.3714 62.6696 14.277ZM62.5299 10.2671V7.56026C62.5299 7.44695 62.5744 7.34623 62.676 7.24551C62.7713 7.15109 62.8793 7.10073 62.9936 7.10073H63.8321C64.4355 7.10073 64.8865 7.25181 65.166 7.54137C65.4455 7.83724 65.5853 8.21494 65.5853 8.68076C65.5853 9.15918 65.4519 9.54317 65.1914 9.83274C64.931 10.116 64.5372 10.2608 64.0099 10.2608H62.5299V10.2671ZM27.441 9.18436C26.9519 8.91997 26.4119 8.78148 25.8212 8.78148C25.2304 8.78148 24.6842 8.91368 24.2014 9.18436C23.7123 9.44875 23.3312 9.83274 23.0453 10.3175C22.7595 10.7959 22.6134 11.3624 22.6134 11.9919C22.6134 12.6214 22.7595 13.188 23.0453 13.6664C23.3312 14.1511 23.7186 14.5351 24.2014 14.7995C24.6905 15.0639 25.2304 15.2023 25.8212 15.2023C26.4119 15.2023 26.9582 15.0702 27.441 14.7995C27.9301 14.5351 28.3112 14.1511 28.597 13.6664C28.8829 13.1817 29.029 12.6151 29.029 11.9919C29.029 11.3687 28.8829 10.7959 28.597 10.3175C28.3112 9.83274 27.9301 9.44875 27.441 9.18436ZM27.911 11.9919C27.911 12.7662 27.7205 13.3957 27.3393 13.8426C26.9646 14.2959 26.4564 14.5288 25.8212 14.5288C25.186 14.5288 24.6778 14.2959 24.303 13.8426C23.9219 13.3894 23.7313 12.7599 23.7313 11.9919C23.7313 11.2239 23.9219 10.5881 24.303 10.1412C24.6778 9.68796 25.186 9.45504 25.8212 9.45504C26.4564 9.45504 26.9646 9.68796 27.3393 10.1412C27.7205 10.5881 27.911 11.2176 27.911 11.9919ZM49.8638 9.18436C49.3747 8.91997 48.8348 8.78148 48.244 8.78148C47.6533 8.78148 47.107 8.91368 46.6243 9.18436C46.1352 9.44875 45.754 9.83274 45.4682 10.3175C45.1823 10.8022 45.0362 11.3624 45.0362 11.9919C45.0362 12.6214 45.1823 13.188 45.4682 13.6664C45.754 14.1448 46.1415 14.5351 46.6243 14.7995C47.1134 15.0639 47.6533 15.2023 48.244 15.2023C48.8348 15.2023 49.3811 15.0702 49.8638 14.7995C50.3529 14.5351 50.7341 14.1511 51.0199 13.6664C51.3058 13.1817 51.4519 12.6214 51.4519 11.9919C51.4519 11.3624 51.3058 10.7959 51.0199 10.3175C50.7341 9.83904 50.3466 9.44875 49.8638 9.18436ZM50.3339 11.9919C50.3339 12.7662 50.1433 13.3957 49.7622 13.8426C49.3874 14.2959 48.8793 14.5288 48.244 14.5288C47.6088 14.5288 47.1007 14.2959 46.7259 13.8426C46.3448 13.3894 46.1542 12.7599 46.1542 11.9919C46.1542 11.2113 46.3448 10.5881 46.7259 10.1412C47.1007 9.68796 47.6088 9.45504 48.244 9.45504C48.8793 9.45504 49.3874 9.68796 49.7622 10.1412C50.137 10.5881 50.3339 11.2176 50.3339 11.9919ZM40.8185 8.78148C40.3103 8.78148 39.8466 8.8885 39.421 9.10253C39.0018 9.31656 38.6715 9.60612 38.4364 9.97753C38.2014 10.3426 38.0807 10.7518 38.0807 11.1925C38.0807 11.5827 38.1696 11.9416 38.3539 12.2626C38.5317 12.5711 38.7731 12.8291 39.078 13.0432L38.1696 14.2707C38.0553 14.4218 38.0426 14.6232 38.1252 14.7869C38.2141 14.9568 38.3793 15.0576 38.5698 15.0576H38.8303C38.5762 15.2275 38.3729 15.429 38.2332 15.6682C38.068 15.9389 37.9854 16.2221 37.9854 16.5117C37.9854 17.0531 38.2268 17.5 38.7032 17.8399C39.1733 18.1736 39.8402 18.3435 40.6724 18.3435C41.2504 18.3435 41.8094 18.2491 42.3112 18.0666C42.8194 17.884 43.2323 17.6133 43.5435 17.2608C43.8548 16.9083 44.0136 16.4802 44.0136 15.9829C44.0136 15.4667 43.823 15.1016 43.3784 14.7428C42.9972 14.4469 42.4001 14.2896 41.6506 14.2896H39.1034C39.097 14.2896 39.0907 14.2833 39.0907 14.2833C39.0907 14.2833 39.0843 14.2707 39.0907 14.2644L39.7513 13.3831C39.9292 13.4649 40.0943 13.5153 40.2404 13.5468C40.3929 13.5782 40.5644 13.5908 40.7549 13.5908C41.2885 13.5908 41.7776 13.4838 42.1969 13.2698C42.6161 13.0558 42.9528 12.7662 43.2005 12.3948C43.4419 12.0297 43.5626 11.6205 43.5626 11.1862C43.5626 10.7203 43.3339 9.86422 42.7114 9.42986C42.7114 9.42357 42.7177 9.42357 42.7177 9.42357L44.0898 9.57465V8.95145H41.8983C41.549 8.84443 41.1932 8.78148 40.8185 8.78148ZM41.5871 12.7347C41.3457 12.8606 41.0853 12.9299 40.8248 12.9299C40.3992 12.9299 40.0244 12.7788 39.7005 12.4829C39.3829 12.1871 39.2241 11.7527 39.2241 11.1925C39.2241 10.6322 39.3829 10.2041 39.7005 9.90199C40.0181 9.60612 40.3929 9.45504 40.8248 9.45504C41.0916 9.45504 41.3457 9.51799 41.5871 9.65019C41.8284 9.77609 42.0254 9.97123 42.1842 10.2293C42.3366 10.4874 42.4192 10.8085 42.4192 11.1862C42.4192 11.5702 42.343 11.8912 42.1842 12.143C42.0317 12.4137 41.8284 12.6088 41.5871 12.7347ZM39.8593 15.0576H41.5871C42.0635 15.0576 42.3684 15.152 42.5716 15.3534C42.7749 15.5549 42.8765 15.8255 42.8765 16.1403C42.8765 16.5998 42.6923 16.9775 42.3239 17.2608C41.9555 17.5441 41.46 17.6889 40.8439 17.6889C40.3103 17.6889 39.8657 17.5693 39.5353 17.3426C39.2114 17.116 39.0462 16.7698 39.0462 16.3291C39.0462 16.0522 39.1225 15.7941 39.2749 15.5675C39.4337 15.3408 39.6179 15.1772 39.8593 15.0576ZM68.7486 14.9694C68.6216 14.9002 68.5263 14.7995 68.45 14.6862C68.3802 14.5603 68.3421 14.4344 68.3421 14.2896C68.3421 14.1448 68.3802 14.0126 68.45 13.893C68.5199 13.7671 68.6216 13.679 68.7486 13.6097C68.8756 13.5405 69.0154 13.5027 69.1742 13.5027C69.333 13.5027 69.4727 13.5405 69.5998 13.6097C69.7268 13.679 69.8221 13.7797 69.8983 13.893C69.9682 14.0189 70.0063 14.1448 70.0063 14.2896C70.0063 14.4344 69.9682 14.5666 69.8983 14.6862C69.8284 14.8121 69.7268 14.9002 69.5998 14.9694C69.4727 15.0387 69.333 15.0764 69.1742 15.0764C69.0217 15.0764 68.8756 15.045 68.7486 14.9694ZM69.5299 14.8813C69.6379 14.8246 69.7141 14.7365 69.7776 14.6421C69.8348 14.5351 69.8666 14.4218 69.8666 14.2896C69.8666 14.1574 69.8348 14.0441 69.7776 13.9371C69.7205 13.83 69.6379 13.7482 69.5299 13.6979C69.4219 13.6412 69.3076 13.6097 69.1742 13.6097C69.0408 13.6097 68.9265 13.6412 68.8185 13.6979C68.7105 13.7545 68.6343 13.8426 68.5707 13.9371C68.5136 14.0441 68.4818 14.1574 68.4818 14.2896C68.4818 14.4218 68.5136 14.5351 68.5707 14.6421C68.6279 14.7491 68.7105 14.8309 68.8185 14.8813C68.9265 14.938 69.0408 14.9694 69.1742 14.9694C69.3076 14.9694 69.4283 14.938 69.5299 14.8813ZM68.8312 14.6673V14.6106L68.8439 14.6043H68.882C68.8947 14.6043 68.9074 14.598 68.9137 14.5917C68.9265 14.5791 68.9264 14.5728 68.9264 14.5603V13.9811C68.9264 13.9685 68.9201 13.9559 68.9137 13.9496C68.901 13.9371 68.8947 13.9371 68.882 13.9371H68.8439L68.8312 13.9308V13.8804L68.8439 13.8741H69.1742C69.2695 13.8741 69.3393 13.893 69.3965 13.9371C69.4537 13.9811 69.4791 14.0378 69.4791 14.1133C69.4791 14.17 69.46 14.2266 69.4156 14.2644C69.3711 14.3085 69.3203 14.3336 69.2568 14.3399L69.333 14.3651L69.4791 14.5917C69.4918 14.6106 69.5045 14.6169 69.5235 14.6169H69.5617L69.568 14.6232V14.6799L69.5617 14.6862H69.3647L69.352 14.6799L69.1488 14.3462H69.098V14.5666C69.098 14.5791 69.1043 14.5917 69.1107 14.598C69.1234 14.6106 69.1297 14.6106 69.1424 14.6106H69.1805L69.1932 14.6169V14.6736L69.1805 14.6799H68.8439L68.8312 14.6673ZM69.1551 14.2581C69.2059 14.2581 69.2504 14.2455 69.2758 14.214C69.3012 14.1889 69.3203 14.1448 69.3203 14.0944C69.3203 14.0441 69.3076 14.0063 69.2822 13.9748C69.2568 13.9434 69.2186 13.9308 69.1742 13.9308H69.1488C69.1361 13.9308 69.1234 13.9371 69.117 13.9434C69.1043 13.9559 69.1043 13.9622 69.1043 13.9748V14.2518H69.1551V14.2581Z" fill="white"/>
</g>
<defs>
<clipPath id="clip0_113_563">
<rect width="70" height="17.5" fill="white" transform="translate(0 0.849609)"/>
</clipPath>
</defs>
</svg>
