<svg width="60" height="49" viewBox="0 0 60 49" fill="none" xmlns="http://www.w3.org/2000/svg">
<g clip-path="url(#clip0_113_590)">
<path d="M40.5658 15.8848L34.0108 18.0299L28.3039 20.5441L26.7075 20.9631C26.2985 21.3522 25.8794 21.7413 25.4105 22.1404C24.9017 22.5794 24.4328 22.9685 24.0736 23.2579C23.6745 23.5771 23.0759 24.1658 22.7766 24.5449C22.3276 25.1136 21.9684 25.7122 21.8187 26.1712C21.5494 26.9993 21.6791 27.8474 22.2079 28.6256C22.8863 29.6133 24.2232 30.631 25.7896 31.3194C26.5878 31.6686 27.9347 32.1176 28.9424 32.377C30.6186 32.806 33.8711 33.2649 35.667 33.3348C36.0262 33.3448 36.5151 33.3448 36.535 33.3348C36.5749 33.3148 36.8543 32.7761 37.1736 32.1176C38.271 29.8727 39.0692 27.7675 39.4982 25.9617C39.7576 24.8742 39.9572 23.4175 40.0969 21.7014C40.1268 21.2225 40.1467 19.6062 40.1168 19.0675C40.0769 18.1795 39.9971 17.4512 39.8674 16.7428C39.8474 16.643 39.8474 16.5433 39.8574 16.5433C39.8774 16.5333 39.9372 16.5133 40.7454 16.2739L40.5658 15.8848ZM39.0692 16.7628C39.1291 16.7628 39.2887 18.2893 39.3286 19.2471C39.3386 19.4466 39.3286 19.5863 39.3286 19.5863C39.2887 19.5863 38.4905 19.1174 37.9218 18.7582C37.423 18.4489 36.4851 17.8203 36.3355 17.7006C36.2856 17.6707 36.2956 17.6607 36.6947 17.521C37.3831 17.2915 39.0193 16.7628 39.0692 16.7628ZM35.7269 17.8602C35.7668 17.8602 35.8865 17.9201 36.1559 18.0897C37.1736 18.7283 38.5604 19.5065 39.159 19.7559C39.3386 19.8357 39.3586 19.8058 38.9395 20.0951C38.0416 20.7137 36.9142 21.3123 35.5373 21.9209C35.2979 22.0307 35.0883 22.1105 35.0883 22.1105C35.0784 22.1105 35.1083 21.9908 35.1482 21.8411C35.4774 20.604 35.667 19.3568 35.677 18.3591C35.687 17.8702 35.687 17.8702 35.7269 17.8602ZM35.0385 18.1296C35.0684 18.1596 35.0484 19.267 35.0085 19.5763C34.9187 20.3046 34.779 20.9731 34.5496 21.7314C34.4997 21.911 34.4498 22.0706 34.4398 22.0806C34.4199 22.1005 33.7414 21.442 33.5219 21.1826C33.1328 20.7337 32.8335 20.2947 32.614 19.8557C32.5043 19.6362 32.3247 19.1972 32.3346 19.1772C32.4045 19.1174 35.0185 18.1097 35.0385 18.1296ZM31.7959 19.3967H31.8059C31.8158 19.4067 31.8458 19.4865 31.8757 19.5763C32.0353 20.0053 32.3945 20.6439 32.6938 21.0529C33.033 21.5019 33.472 21.9708 33.8412 22.2901C33.9609 22.3899 34.0707 22.4797 34.0806 22.4996C34.1106 22.5295 34.1206 22.5196 33.3124 22.8289C32.3746 23.188 31.3569 23.5472 30.1896 23.9164C29.9102 24.0062 29.6308 24.0959 29.3515 24.1857C29.3116 24.1957 29.3216 24.1758 29.4513 23.9762C30.0299 23.0683 30.9179 21.2924 31.4068 20.0353C31.4866 19.8158 31.5764 19.5963 31.5864 19.5464C31.6063 19.4765 31.6263 19.4566 31.6961 19.4167C31.746 19.4067 31.7859 19.3967 31.7959 19.3967ZM30.8081 19.8158C30.8181 19.8257 30.5687 20.3545 30.3193 20.8434C29.8404 21.7813 29.3116 22.6992 28.6132 23.8266C28.4935 24.0161 28.3837 24.1957 28.3637 24.2157C28.3438 24.2456 28.3338 24.2356 28.254 24.086C28.0844 23.7567 27.9447 23.3277 27.8749 22.9386C27.805 22.5495 27.815 21.881 27.8948 21.462C27.9547 21.1527 27.9547 21.1627 28.1043 21.0829C28.7329 20.7536 30.7882 19.7958 30.8081 19.8158ZM39.3586 20.155V20.3645C39.3586 21.472 39.2388 22.9885 39.0692 24.096C39.0393 24.2855 39.0193 24.4452 39.0094 24.4551C39.0094 24.4551 38.8697 24.4152 38.7001 24.3653C37.9518 24.1359 37.1536 23.7867 36.4153 23.3876C35.9364 23.1282 35.238 22.6892 35.2579 22.6692C35.2579 22.6692 35.4675 22.5595 35.7169 22.4298C36.6847 21.9209 37.6225 21.3822 38.4307 20.8434C38.73 20.6439 39.1889 20.3146 39.2887 20.2248L39.3586 20.155ZM27.0667 21.6316C27.0867 21.6316 27.0767 21.6715 27.0567 21.8511C27.0368 21.9808 27.0168 22.2202 27.0069 22.3799C26.9669 23.1082 27.0867 23.637 27.4459 24.3753C27.5456 24.5749 27.6254 24.7445 27.6155 24.7544C27.5855 24.7844 24.3031 25.7422 23.2654 26.0315C22.9561 26.1113 22.6868 26.1911 22.6668 26.1911C22.6369 26.2011 22.6269 26.2011 22.6468 26.1113C22.7566 25.383 23.3153 24.4352 24.0935 23.627C24.6123 23.0883 25.0214 22.779 25.7198 22.3799C26.2187 22.0806 26.9969 21.6516 27.0667 21.6316C27.0567 21.6316 27.0567 21.6316 27.0667 21.6316ZM34.799 23.0084C34.799 23.0084 34.9187 23.0683 35.0684 23.1481C36.126 23.7667 37.6026 24.3354 38.8697 24.6247L38.9794 24.6447L38.8198 24.7345C38.1613 25.1036 35.9963 26.0016 33.7813 26.8297C33.4621 26.9494 33.1428 27.0691 33.0829 27.0891C33.0231 27.109 32.9732 27.129 32.9732 27.119C32.9732 27.109 33.063 26.9394 33.1727 26.7299C33.7913 25.5726 34.4199 24.1558 34.7292 23.1781C34.7691 23.0982 34.789 23.0184 34.799 23.0084ZM34.0108 23.2678C34.0208 23.2778 33.9809 23.3776 33.931 23.4973C33.502 24.5449 32.9333 25.6823 32.2149 26.9594C32.0353 27.2886 31.8757 27.548 31.8757 27.548C31.8757 27.548 31.726 27.4582 31.5465 27.3485C30.4989 26.7 29.561 25.9118 28.9524 25.1435L28.8626 25.0338L29.3116 24.9141C30.9279 24.4751 32.3047 23.9962 33.6616 23.4075C33.8512 23.3277 34.0008 23.2678 34.0108 23.2678ZM38.9096 24.9739C38.9096 25.0837 38.6602 26.1113 38.4506 26.8496C38.281 27.4682 38.1314 27.9571 37.852 28.8151C37.7323 29.1943 37.6325 29.5036 37.6225 29.5036C37.6225 29.5036 37.5926 29.5036 37.5627 29.4936C36.0861 29.2242 34.7691 28.855 33.5319 28.3562C33.1827 28.2165 32.6938 27.997 32.6639 27.9671C32.6539 27.9571 32.9532 27.8174 33.3324 27.6578C35.5872 26.6701 37.9318 25.5526 38.73 25.0737C38.8198 25.0039 38.8896 24.9739 38.9096 24.9739ZM27.6055 25.363C27.6155 25.373 26.9869 26.2809 26.0989 27.5181C25.7896 27.9471 25.4305 28.456 25.3008 28.6455C25.1711 28.8351 24.9615 29.1344 24.8518 29.314L24.6423 29.6333L24.4228 29.4437C24.1634 29.2242 23.7044 28.7553 23.5049 28.5058C23.0759 27.9771 22.7865 27.4183 22.6768 26.9095C22.6269 26.6701 22.6269 26.5503 22.6668 26.5403C22.7366 26.5204 24.0636 26.2111 25.3008 25.9218C25.9892 25.7621 26.7874 25.5726 27.0767 25.5027C27.366 25.4229 27.5955 25.363 27.6055 25.363ZM28.234 25.6025L28.3937 25.7821C29.112 26.5803 29.8404 27.1689 30.7184 27.6877C30.878 27.7775 30.9977 27.8573 30.9877 27.8573C30.9578 27.8773 27.9248 28.9548 26.518 29.4437C25.7298 29.7231 25.0813 29.9426 25.0713 29.9426C25.0713 29.9426 25.0214 29.9126 24.9715 29.8827L24.8817 29.8228L25.0214 29.6133C25.4903 28.9349 26.069 28.1966 27.3461 26.6601L28.234 25.6025ZM32.195 28.436C32.195 28.436 32.4145 28.5058 32.6838 28.6056C33.3324 28.8451 33.8412 29.0047 34.5196 29.1743C35.3577 29.3838 36.5849 29.5934 37.3033 29.6532C37.413 29.6632 37.4729 29.6732 37.4529 29.6831C37.423 29.7031 36.6847 29.9426 36.1559 30.1122C35.3078 30.3815 32.7038 31.1498 30.5787 31.7584C30.1896 31.8681 29.8503 31.9679 29.8304 31.9679C29.7805 31.9779 29.6209 31.938 29.6209 31.918C29.6209 31.908 29.7406 31.7584 29.8803 31.5888C30.5986 30.7407 31.307 29.7829 31.8957 28.885C32.0553 28.6455 32.195 28.446 32.195 28.436ZM31.317 28.4659C31.317 28.4659 30.9678 29.0346 30.3592 30.0024C30.0998 30.4115 29.8005 30.8804 29.7007 31.04C29.6009 31.1997 29.4513 31.4491 29.3714 31.5888L29.2318 31.8382L29.1619 31.8183C28.9823 31.7684 27.7252 31.3294 27.396 31.1897C26.9869 31.0301 26.5579 30.8305 26.2386 30.6609C25.8395 30.4514 25.3507 30.1321 25.3906 30.1221C25.4005 30.1221 26.079 29.9326 26.8971 29.7131C29.0721 29.1244 30.2694 28.7852 31.0576 28.5358C31.1873 28.4959 31.317 28.456 31.317 28.4659ZM37.4928 29.9126C37.5128 29.9625 36.7146 32.1974 36.4253 32.8958C36.3654 33.0554 36.3355 33.0953 36.3055 33.0854C36.2257 33.0854 35.0584 32.9157 34.35 32.816C33.1129 32.6264 31.0476 32.2672 30.5188 32.1475L30.3991 32.1275L31.1374 31.9579C32.7238 31.5988 33.482 31.4092 34.2602 31.1697C35.238 30.8704 36.2058 30.5013 37.1835 30.0423C37.3232 29.9725 37.4529 29.9126 37.4928 29.9126Z" fill="url(#paint0_linear_113_590)"/>
<path d="M33.8113 0.599727C33.7016 0.58975 31.9456 1.21831 30.8082 1.67726C29.2717 2.30582 28.0844 2.89447 27.3561 3.41328C27.0867 3.60284 26.7375 3.95204 26.6876 4.08175C26.6677 4.13163 26.6577 4.1915 26.6577 4.25136L27.3262 4.87992L28.9026 5.38875L32.6639 6.0672L36.9641 6.8055L37.004 6.43635C36.994 6.43635 36.984 6.43635 36.9641 6.43635L36.3954 6.34656L36.2857 6.14701C35.697 5.11937 35.0585 3.83232 34.6793 2.97428C34.39 2.30582 34.1106 1.5276 33.951 0.978858C33.8712 0.629658 33.8612 0.609704 33.8113 0.599727ZM33.7315 0.849155C33.7415 0.849155 33.7614 0.988835 33.7814 1.15845C33.8612 1.85685 34.0208 2.52531 34.2603 3.24367C34.4399 3.79241 34.4399 3.76248 34.2304 3.69264C33.7215 3.55296 31.4567 3.16385 29.8205 2.93438C29.5611 2.90444 29.3316 2.86454 29.3316 2.86454C29.3116 2.84458 30.5189 2.21602 31.0477 1.96659C31.7261 1.6573 33.5918 0.879086 33.7315 0.849155ZM28.9525 3.07406L29.142 3.13392C30.1896 3.4931 32.8336 3.99195 34.2902 4.11168C34.4499 4.12166 34.5895 4.14161 34.5995 4.14161C34.5995 4.14161 34.4698 4.22143 34.2902 4.30124C33.5818 4.65044 32.8136 5.07946 32.2748 5.41868C32.1152 5.51845 31.9755 5.59827 31.9556 5.59827C31.9356 5.59827 31.8358 5.57832 31.7261 5.56834L31.5266 5.53841L31.0277 5.04953C30.1597 4.20147 29.4713 3.54298 29.2119 3.30353L28.9525 3.07406ZM28.7529 3.22371L29.4513 4.09172C29.8304 4.57063 30.2196 5.03955 30.2994 5.1493C30.3792 5.24907 30.449 5.33887 30.449 5.33887C30.4291 5.34884 29.4413 5.15928 28.9125 5.03955C28.3738 4.91983 28.1443 4.85996 27.8151 4.75021L27.5457 4.66042V4.61054C27.5457 4.28129 27.9747 3.78243 28.6831 3.2736L28.7529 3.22371ZM34.6893 4.42097C34.7093 4.42097 34.7292 4.46088 34.7891 4.60056C34.9587 4.96971 35.4875 5.9774 35.6072 6.16697C35.6471 6.22683 35.717 6.23681 35.0186 6.12706C33.3424 5.85768 32.7937 5.76788 32.7937 5.75791C32.7937 5.75791 32.8435 5.718 32.9034 5.68807C33.4222 5.39873 33.951 5.02957 34.4199 4.64047C34.5297 4.55067 34.6394 4.46088 34.6594 4.44092C34.6793 4.42097 34.6893 4.41099 34.6893 4.42097Z" fill="white"/>
<path d="M26.7176 4.01172C26.7176 4.01172 26.6078 4.18133 26.7176 4.44074C26.7774 4.60037 26.967 4.78994 27.1865 4.98948C27.1865 4.98948 29.3914 7.14454 29.6608 7.44385C30.878 8.85063 31.4068 10.2375 31.4567 12.1531C31.4866 13.3802 31.2572 14.4678 30.6785 15.7149C29.6508 17.9697 27.4758 20.4441 24.1135 23.2077L24.6024 23.0481C24.9217 22.8086 25.3507 22.5592 26.3584 22.0005C28.693 20.7234 31.317 19.5461 34.5396 18.3389C39.179 16.5929 46.8115 14.5476 51.1516 13.8891L51.6005 13.8192L51.5307 13.7095C51.1316 13.0909 50.8622 12.7118 50.533 12.3027C49.5852 11.1254 48.4278 10.1676 47.0111 9.36944C45.0655 8.28193 42.5513 7.43388 39.3686 6.80532C38.7699 6.68559 37.453 6.45612 36.3754 6.29648C34.1006 5.94728 32.634 5.69785 31.0177 5.42847C30.439 5.3287 29.571 5.17904 28.9923 5.05932C28.693 4.99946 28.1243 4.85978 27.6754 4.71012C27.3361 4.58042 26.8273 4.44074 26.7176 4.01172ZM27.9946 5.25886C27.9946 5.25886 28.0744 5.27881 28.1842 5.31872C28.3738 5.37859 28.6132 5.4584 28.9026 5.53822C29.122 5.59808 29.3415 5.65795 29.561 5.70783C29.8604 5.77767 30.1098 5.84751 30.1098 5.84751C30.1397 5.87744 30.6485 7.48376 30.8182 8.10234C30.878 8.33182 30.9279 8.53136 30.9279 8.53136C30.9179 8.54134 30.868 8.45154 30.8082 8.34179C30.2295 7.32413 29.3116 6.28651 28.254 5.44843C28.0944 5.34865 27.9946 5.25886 27.9946 5.25886ZM30.4291 5.92733C30.449 5.92733 30.5588 5.93731 30.6984 5.96724C31.5365 6.1568 33.053 6.44614 34.0208 6.60577C34.1805 6.62573 34.3102 6.65566 34.3102 6.66564C34.3102 6.67561 34.2503 6.70554 34.1805 6.74545C34.0208 6.82527 33.3623 7.22436 33.1428 7.37401C32.5941 7.74317 32.0952 8.14225 31.7361 8.49145C31.5964 8.63113 31.4667 8.75086 31.4667 8.75086C31.4667 8.75086 31.4367 8.67104 31.4168 8.56129C31.2372 7.87287 30.868 6.8552 30.5288 6.13685C30.469 6.03708 30.4291 5.93731 30.4291 5.92733ZM34.7192 6.74545C34.7492 6.75543 34.799 6.92504 34.8988 7.2942C35.0784 8.01255 35.1682 8.8207 35.1383 9.56898C35.1283 9.7785 35.1183 9.96807 35.1083 9.998L35.0984 10.0479L34.8389 9.96807C34.3102 9.79846 33.4421 9.54903 32.7038 9.33951C32.2848 9.22976 31.9356 9.12001 31.9356 9.11003C31.9356 9.0801 32.5542 8.46152 32.8136 8.23205C33.3224 7.78308 34.6793 6.73548 34.7192 6.74545ZM35.0684 6.79534C35.0784 6.78536 37.1237 7.13456 38.0516 7.31415C38.74 7.44385 39.7377 7.65337 39.7976 7.6833C39.8275 7.69328 39.7277 7.75314 39.3885 7.9028C38.0815 8.49145 37.1038 9.02024 36.146 9.66875C35.8965 9.83837 35.677 9.97805 35.677 9.97805C35.677 9.97805 35.667 9.83837 35.667 9.65878C35.667 8.72093 35.4775 7.76312 35.1283 6.96495C35.0884 6.87516 35.0584 6.80532 35.0684 6.79534ZM40.3363 7.83296C40.3463 7.84294 40.2865 8.252 40.2266 8.49145C40.047 9.22976 39.5681 10.3272 38.9795 11.3549C38.8797 11.5345 38.7799 11.6841 38.7699 11.6941C38.76 11.6941 38.6303 11.6243 38.4706 11.5345C37.892 11.1953 37.2434 10.876 36.5251 10.5867C36.3255 10.5068 36.1559 10.437 36.146 10.427C36.116 10.3971 37.7024 9.33951 38.5504 8.84065C39.2289 8.42161 40.3164 7.81301 40.3363 7.83296ZM40.7155 7.89282C40.7554 7.89282 41.6633 8.14225 42.1322 8.28193C43.2996 8.63113 44.6365 9.12001 45.5045 9.5191L45.8637 9.67873L45.6143 9.73859C43.4791 10.2275 41.6633 10.7962 39.8974 11.5045C39.7577 11.5644 39.628 11.6143 39.618 11.6143C39.608 11.6143 39.6579 11.5045 39.7178 11.3649C40.2466 10.2375 40.5858 9.06015 40.6756 8.06244C40.6855 7.97264 40.6955 7.89282 40.7155 7.89282ZM31.7261 9.95809C31.7361 9.94811 32.4345 10.1077 32.8036 10.2075C33.3723 10.3672 34.5696 10.7662 34.5696 10.7962C34.5696 10.7962 34.4399 10.9159 34.2802 11.0556C33.6317 11.5943 33.0032 12.163 32.2549 12.8914C32.0354 13.1009 31.8458 13.2805 31.8358 13.2805C31.8259 13.2805 31.8259 13.2505 31.8259 13.2106C31.9356 12.3825 31.9156 11.305 31.756 10.2175C31.7361 10.0778 31.7261 9.96807 31.7261 9.95809ZM46.2129 9.97805C46.2229 9.98802 45.8936 10.5068 45.6841 10.7962C45.3848 11.2252 44.9458 11.7839 43.968 13.031C43.4492 13.6895 42.8606 14.4278 42.671 14.6673C42.4715 14.9167 42.3118 15.1262 42.3018 15.1262C42.3018 15.1262 42.232 15.0365 42.1622 14.9267C41.6034 14.0986 40.945 13.3703 40.1568 12.7118C40.0071 12.5921 39.8475 12.4524 39.7876 12.4125C39.7377 12.3726 39.6878 12.3326 39.6878 12.3326C39.6878 12.3227 40.5259 11.9535 41.1744 11.6941C42.2919 11.2352 43.8184 10.6964 44.9657 10.3372C45.5544 10.1477 46.2029 9.96807 46.2129 9.97805ZM46.592 10.0678C46.612 10.0678 46.7317 10.1177 46.8714 10.2075C48.0786 10.8959 49.2559 11.7839 50.1838 12.6918C50.4432 12.9512 51.0917 13.6197 51.0817 13.6297C51.0817 13.6297 50.8523 13.6496 50.5829 13.6696C48.4976 13.8292 45.8238 14.2682 43.2596 14.8868C43.09 14.9267 42.9304 14.9566 42.9204 14.9566C42.9104 14.9566 43.1 14.7671 43.3494 14.5276C44.856 13.071 45.5444 12.163 46.3625 10.5268C46.4823 10.2973 46.582 10.0878 46.592 10.0678C46.582 10.0678 46.582 10.0678 46.592 10.0678ZM35.5473 11.2052C35.6172 11.2152 36.2657 11.5245 36.7446 11.764C37.1936 11.9834 37.862 12.3426 37.892 12.3726C37.892 12.3726 37.6625 12.5023 37.3632 12.6419C36.4353 13.1109 35.6371 13.5499 34.799 14.0587C34.5596 14.1984 34.36 14.3181 34.36 14.3181C34.3401 14.3181 34.3501 14.2981 34.4798 14.0587C34.9287 13.2505 35.2779 12.2728 35.4875 11.325C35.5174 11.2551 35.5373 11.2052 35.5473 11.2052ZM34.9088 11.325C34.9188 11.3349 34.7591 11.9535 34.6494 12.2828C34.4498 12.9113 34.1006 13.6995 33.7714 14.2981C33.6916 14.4378 33.5718 14.6374 33.512 14.7571L33.3923 14.9566L33.1129 14.6873C32.7936 14.378 32.5243 14.1784 32.195 14.0088C32.0653 13.939 31.9556 13.8791 31.9556 13.8691C31.9556 13.8292 32.8036 13.061 33.4521 12.5023C33.9111 12.0932 34.8888 11.305 34.9088 11.325ZM38.8498 12.9413L39.0892 13.1009C39.6479 13.4601 40.2964 13.939 40.7953 14.368C41.0747 14.5975 41.6234 15.0963 41.7331 15.2061L41.793 15.2659L41.3939 15.3757C39.1191 16.0042 37.3731 16.563 35.3178 17.3212C35.0884 17.401 34.8988 17.4709 34.8789 17.4709C34.8489 17.4709 34.829 17.4908 35.3378 17.0219C36.6448 15.8147 37.8022 14.4877 38.6702 13.1907L38.8498 12.9413ZM37.8121 13.2007C37.8221 13.2106 37.1437 14.1684 36.7346 14.7072C36.2457 15.3557 35.3877 16.4333 34.7891 17.1317C34.5396 17.421 34.3301 17.6704 34.3201 17.6704C34.3102 17.6704 34.3002 17.6006 34.3002 17.4908C34.3002 16.8922 34.1505 16.2537 33.8811 15.7049C33.7714 15.4754 33.7514 15.4256 33.7714 15.3956C33.8612 15.3158 35.3079 14.4877 36.2158 13.9988C36.8344 13.6796 37.7922 13.1907 37.8121 13.2007ZM31.5465 14.7371C31.5565 14.7371 31.6762 14.797 31.8059 14.8668C32.1252 15.0365 32.4045 15.236 32.654 15.4455C32.6639 15.4555 32.5342 15.5553 32.3646 15.685C31.8957 16.0242 31.1773 16.563 30.7683 16.8922C30.3293 17.2414 30.3193 17.2514 30.3692 17.1716C30.6984 16.6727 30.8581 16.3933 31.0377 16.0242C31.1873 15.7049 31.347 15.3158 31.4567 14.9866C31.4866 14.8469 31.5365 14.7371 31.5465 14.7371ZM33.2127 16.0441C33.2326 16.0441 33.2626 16.0841 33.4022 16.2836C33.6816 16.7026 33.9011 17.2713 33.961 17.7303L33.9709 17.8301L33.2925 18.0895C32.0753 18.5584 30.9578 19.0273 30.1996 19.3765C29.9901 19.4763 29.6109 19.6559 29.3715 19.7756C29.132 19.8953 28.9325 19.9951 28.9325 19.9851C28.9325 19.9751 29.0821 19.8654 29.2717 19.7257C30.7583 18.6482 32.0354 17.4709 33.0032 16.2936C33.1029 16.1639 33.1927 16.0541 33.2127 16.0441ZM32.4444 16.2337C32.4644 16.2537 31.8957 16.8922 31.5166 17.2813C30.5588 18.2591 29.6109 19.0173 28.4336 19.7656C28.284 19.8554 28.1543 19.9452 28.1343 19.9552C28.1044 19.9751 28.1443 19.9253 28.6631 19.3665C28.9923 19.0173 29.2418 18.718 29.5211 18.3489C29.7107 18.1094 29.7406 18.0695 30.02 17.8799C30.7483 17.3511 32.4245 16.2138 32.4444 16.2337Z" fill="white"/>
<path d="M10.9837 36.7569C10.8939 36.7569 10.8042 36.7669 10.7144 36.7669C8.86859 36.8667 7.62145 37.6748 6.89312 39.2612C6.27454 40.6979 6.3344 42.5736 6.90309 44.0203C7.55161 45.4271 8.60919 46.1754 10.3751 46.4547C10.7443 46.5146 10.9937 46.7241 11.7221 47.5622L12.61 48.5998H14.2263L13.1388 47.5322C12.5502 46.9436 12.0713 46.4248 12.0713 46.3749C12.0713 46.325 12.3007 46.2352 12.5701 46.1454C13.478 45.876 14.2263 45.1776 14.7551 44.1001C15.1841 43.2421 15.244 42.9727 15.3038 41.9051C15.4635 38.7224 13.7773 36.737 10.9837 36.7569ZM12.4005 45.0878C11.6123 45.467 10.4749 45.5468 9.7366 45.2674C8.96836 44.9881 8.22008 44.1899 7.89083 43.282C7.52168 42.2942 7.57156 40.4684 8.00058 39.6503C8.689 38.3433 9.58694 37.7447 10.9139 37.7447C12.8694 37.7447 13.9869 38.9419 14.1365 41.1968C14.2363 43.0824 13.6077 44.4992 12.4005 45.0878ZM40.2367 39.4807C39.5583 39.4807 39.0395 39.7501 38.6903 40.2888L38.4209 40.7179V39.6104H37.2535V46.2651H38.4209V44.14C38.4209 42.1945 38.4408 41.965 38.7202 41.4362C39.0993 40.7079 39.7379 40.3387 40.3664 40.5183L40.7854 40.638V39.4807H40.2367ZM33.3625 39.4208C33.133 39.4208 32.8935 39.4508 32.6441 39.5006C31.0777 39.9097 30.1997 41.4063 30.2496 42.9527C30.2496 44.2398 30.499 44.8883 31.1276 45.5667C32.4047 46.6143 33.562 46.6942 35.1184 46.1354C35.3878 46.0257 35.6772 45.896 35.6772 45.896V44.8484L35.1184 45.1377C33.8613 45.6865 32.9035 45.6865 32.1452 45.038C31.6564 44.5391 31.4468 43.9504 31.3471 43.272H36.0663V42.3741C36.0663 40.5383 34.9688 39.3909 33.3625 39.4208ZM31.4568 42.3342C31.4568 42.3342 31.6264 41.1968 32.275 40.7478C32.5842 40.5283 32.9434 40.4185 33.2926 40.4185C33.6418 40.4185 33.991 40.5283 34.2804 40.7478C34.869 41.2067 34.9688 42.3242 34.9688 42.3242L31.4568 42.3342ZM3.25146 41.1369C1.98437 40.3687 1.41567 39.8099 1.48551 39.1614C1.68505 37.3556 3.91993 37.605 5.1571 38.2834L5.16707 37.0662C5.16707 37.0662 4.47865 36.7669 3.50089 36.7569C1.99434 36.737 1.02656 37.2259 0.567614 38.2336C-0.100854 39.7102 0.487797 40.8276 2.63288 42.0747C3.83014 42.7731 4.3689 43.3818 4.3689 44.0402C4.3689 45.4071 2.72268 45.886 1.01658 45.028C0.667385 44.8584 0.368071 44.7087 0.358094 44.7087C0.298231 45.0978 0.328163 46.0257 0.328163 46.0257C0.328163 46.0257 0.846974 46.2452 1.63517 46.3948C3.58071 46.784 5.34666 45.8661 5.51627 44.3894C5.65595 43.0026 5.1571 42.2743 3.25146 41.1369ZM50.593 39.4009C50.3635 39.4009 50.124 39.4308 49.8746 39.4807C48.3082 39.8898 47.4302 41.3863 47.4901 42.9328C47.4901 44.2198 47.7395 44.8584 48.3581 45.5368C49.6352 46.5844 50.7925 46.6742 52.3489 46.1055C52.6183 45.9958 52.8977 45.8661 52.8977 45.8661V44.8185L52.339 45.1078C51.0719 45.6565 50.1241 45.6565 49.3658 45.008C48.8769 44.5191 48.6674 43.9305 48.5676 43.2421H53.2768V42.3441C53.2968 40.5283 52.1893 39.3709 50.593 39.4009ZM48.6873 42.3142C48.6873 42.3142 48.8669 41.1768 49.5055 40.7179C49.8148 40.4984 50.1739 40.3886 50.5231 40.3886C50.8723 40.3886 51.2215 40.4984 51.5109 40.7278C52.0995 41.1868 52.1993 42.3042 52.1993 42.3042L48.6873 42.3142ZM27.2365 41.1469C25.9694 40.3786 25.4107 39.8199 25.4705 39.1714C25.6701 37.3655 27.905 37.615 29.1421 38.2934L29.1521 37.0762C29.1521 37.0762 28.4637 36.7769 27.4859 36.7669C25.9794 36.747 25.0116 37.2358 24.5526 38.2435C23.8842 39.7201 24.4828 40.8376 26.6179 42.0847C27.8152 42.7831 28.3539 43.3818 28.3539 44.0402C28.3539 45.4071 26.7077 45.896 25.0016 45.028C24.6524 44.8584 24.3531 44.7087 24.3431 44.7087C24.2833 45.0978 24.3132 46.0257 24.3132 46.0257C24.3132 46.0257 24.832 46.2352 25.6102 46.3948C27.5558 46.784 29.3217 45.876 29.4913 44.3894C29.641 43.0226 29.1421 42.2942 27.2365 41.1469ZM57.4672 39.4607C56.7888 39.4607 56.27 39.7301 55.9208 40.2789L55.6514 40.7079V39.6004H54.4841V46.2552H55.6514V44.1201C55.6514 42.1745 55.6713 41.945 55.9507 41.4163C56.3298 40.6879 56.9684 40.3188 57.5969 40.4984L58.016 40.6181V39.4607H57.4672ZM17.9378 41.107V36.8667H16.7605V46.2552H21.7191V45.1477H17.9378V41.107ZM45.2153 42.4339L44.2475 44.9681L43.3097 42.4239L42.3618 39.6004H41.1546C41.9328 41.8153 42.7909 44.0702 43.6489 46.2651C44.018 46.2751 44.3972 46.2651 44.7663 46.2651L46.0833 42.9727L47.4202 39.6104H46.2629C46.2529 39.6004 45.7441 40.9374 45.2153 42.4339ZM20.6516 34.3125C20.8412 34.3125 21.0008 34.2527 21.1305 34.123C21.2602 33.9933 21.33 33.8436 21.33 33.654C21.33 33.4645 21.2602 33.3048 21.1305 33.1851C21.0008 33.0654 20.8511 33.0055 20.6616 33.0055C20.472 33.0055 20.3124 33.0654 20.1827 33.1951C20.053 33.3248 19.9931 33.4844 19.9931 33.664C19.9931 33.8536 20.053 34.0132 20.1827 34.1329C20.3024 34.2527 20.462 34.3125 20.6516 34.3125ZM20.2325 33.235C20.3423 33.1253 20.482 33.0654 20.6616 33.0654C20.8312 33.0654 20.9609 33.1153 21.0806 33.235C21.1904 33.3448 21.2502 33.4844 21.2502 33.654C21.2502 33.8237 21.1904 33.9633 21.0806 34.0831C20.9609 34.1928 20.8312 34.2527 20.6616 34.2527C20.492 34.2527 20.3523 34.2028 20.2425 34.0831C20.1328 33.9733 20.0729 33.8237 20.0729 33.654C20.0729 33.4844 20.1228 33.3448 20.2325 33.235ZM20.5219 33.7139H20.6017C20.6516 33.7139 20.7115 33.7638 20.7514 33.8636L20.8412 34.0731H20.9808L20.8711 33.8436C20.8212 33.7538 20.7813 33.7039 20.7314 33.684C20.8012 33.664 20.8511 33.6441 20.891 33.6042C20.9309 33.5642 20.9409 33.5144 20.9409 33.4545C20.9409 33.3847 20.921 33.3348 20.8711 33.2949C20.8212 33.255 20.7314 33.225 20.6316 33.225H20.3922V34.0731H20.5119V33.7139H20.5219ZM20.5219 33.3148H20.6316C20.7115 33.3148 20.7613 33.3348 20.7913 33.3547C20.8212 33.3747 20.8312 33.4046 20.8312 33.4645C20.8312 33.5642 20.7713 33.6042 20.6616 33.6042H20.5319L20.5219 33.3148ZM1.03654 33.6341C1.03654 33.3348 1.02656 33.1153 1.01658 32.9856H1.02656C1.05649 33.1352 1.0964 33.255 1.12633 33.3248L2.25375 35.859H2.44332L3.57073 33.3048C3.60066 33.235 3.63059 33.1352 3.6705 32.9856H3.68048C3.66053 33.235 3.65055 33.4545 3.65055 33.6341V35.869H4.03966V32.5466H3.56075L2.52313 34.8513C2.48322 34.9411 2.43334 35.0808 2.3635 35.2604H2.34354C2.32359 35.1706 2.26373 35.0309 2.19389 34.8713L1.17622 32.5466H0.657408V35.869H1.02656L1.03654 33.6341ZM4.89769 33.6441H5.23691V35.7093H4.89769V33.6441ZM5.05732 32.8858C5.12716 32.8858 5.18703 32.8658 5.22694 32.816C5.27682 32.7661 5.30675 32.7162 5.30675 32.6464C5.30675 32.5765 5.2868 32.5166 5.22694 32.4767C5.17705 32.4269 5.11719 32.4069 5.04735 32.4069C4.97751 32.4069 4.91764 32.4269 4.87774 32.4767C4.82785 32.5266 4.79792 32.5865 4.79792 32.6464C4.79792 32.7262 4.81787 32.7761 4.87774 32.816C4.9376 32.8658 4.98748 32.8858 5.05732 32.8858ZM7.61147 35.7592V35.3901C7.43188 35.5297 7.23234 35.5996 7.02282 35.5996C6.78337 35.5996 6.58383 35.5198 6.43417 35.3601C6.29449 35.2005 6.21467 34.981 6.21467 34.7116C6.21467 34.4223 6.29449 34.1928 6.45412 34.0232C6.60378 33.8536 6.80332 33.7738 7.04277 33.7738C7.24232 33.7738 7.43188 33.8336 7.60149 33.9534V33.5642C7.44186 33.4844 7.26227 33.4445 7.05275 33.4445C6.67362 33.4445 6.37431 33.5642 6.15481 33.8037C5.93531 34.0432 5.82556 34.3624 5.82556 34.7416C5.82556 35.0808 5.92534 35.3701 6.12488 35.5896C6.3344 35.8191 6.61376 35.9288 6.943 35.9288C7.22236 35.9189 7.43188 35.859 7.61147 35.7592ZM8.56928 34.6518C8.56928 34.3824 8.62914 34.1629 8.73889 34.0032C8.84864 33.8636 8.97834 33.7937 9.128 33.7937C9.2577 33.7937 9.34749 33.8137 9.41733 33.8735V33.4745C9.36745 33.4545 9.28763 33.4445 9.18786 33.4445C9.04818 33.4445 8.92845 33.4944 8.81871 33.5742C8.70896 33.664 8.61916 33.8037 8.5593 33.9733H8.54932V33.4844H8.17019V35.849H8.54932L8.56928 34.6518ZM10.7543 35.9189C11.1134 35.9189 11.4028 35.7991 11.6123 35.5796C11.8218 35.3502 11.9316 35.0508 11.9316 34.6717C11.9316 34.2826 11.8318 33.9833 11.6323 33.7638C11.4327 33.5443 11.1633 33.4345 10.8042 33.4345C10.445 33.4345 10.1556 33.5443 9.94612 33.7438C9.71665 33.9733 9.59692 34.2926 9.59692 34.7016C9.59692 35.0608 9.69669 35.3502 9.89624 35.5796C10.1157 35.7991 10.3951 35.9189 10.7543 35.9189ZM10.2055 33.9833C10.3452 33.8336 10.5447 33.7538 10.7742 33.7538C11.0137 33.7538 11.2032 33.8336 11.3329 33.9833C11.4726 34.1429 11.5425 34.3724 11.5425 34.6717C11.5425 34.961 11.4826 35.1905 11.3529 35.3402C11.2232 35.4998 11.0336 35.5796 10.7842 35.5796C10.5447 35.5796 10.3552 35.4998 10.2055 35.3402C10.0658 35.1805 9.99601 34.961 9.99601 34.6717C9.98603 34.3924 10.0559 34.1529 10.2055 33.9833ZM13.5878 35.7093C13.7275 35.5796 13.8073 35.42 13.8073 35.2205C13.8073 35.0508 13.7474 34.9012 13.6377 34.7914C13.5479 34.7016 13.3982 34.6218 13.1987 34.532C13.0191 34.4522 12.8994 34.3924 12.8395 34.3325C12.7796 34.2726 12.7397 34.1928 12.7397 34.093C12.7397 33.9933 12.7796 33.9234 12.8495 33.8536C12.9293 33.7937 13.0191 33.7638 13.1588 33.7638C13.3683 33.7638 13.5379 33.8137 13.6975 33.9334V33.5543C13.5479 33.4745 13.3783 33.4445 13.1887 33.4445C12.9492 33.4445 12.7397 33.5144 12.5901 33.6441C12.4304 33.7738 12.3506 33.9434 12.3506 34.1329C12.3506 34.3026 12.4005 34.4522 12.5003 34.562C12.5801 34.6518 12.7297 34.7416 12.9293 34.8313C13.1189 34.9112 13.2486 34.991 13.3184 35.0508C13.3882 35.1107 13.4182 35.1905 13.4182 35.2803C13.4182 35.4998 13.2685 35.6195 12.9692 35.6195C12.7397 35.6195 12.5402 35.5397 12.3506 35.3901V35.7991C12.5202 35.8989 12.7198 35.9388 12.9393 35.9388C13.2186 35.9189 13.4381 35.849 13.5878 35.7093ZM15.3936 33.4345C15.0345 33.4345 14.7451 33.5443 14.5356 33.7438C14.3061 33.9733 14.1864 34.2926 14.1864 34.7016C14.1864 35.0608 14.2862 35.3502 14.4857 35.5796C14.6952 35.8091 14.9846 35.9189 15.3338 35.9189C15.7029 35.9189 15.9823 35.7991 16.1918 35.5796C16.4013 35.3502 16.5111 35.0508 16.5111 34.6717C16.5111 34.2826 16.4113 33.9833 16.2118 33.7638C16.0222 33.5343 15.7528 33.4345 15.3936 33.4345ZM16.1319 34.6717C16.1319 34.961 16.0721 35.1905 15.9424 35.3402C15.8127 35.4998 15.6231 35.5796 15.3737 35.5796C15.1342 35.5796 14.9447 35.4998 14.795 35.3402C14.6553 35.1805 14.5855 34.961 14.5855 34.6717C14.5855 34.3624 14.6653 34.1329 14.815 33.9733C14.9546 33.8237 15.1442 33.7438 15.3837 33.7438C15.6231 33.7438 15.8127 33.8237 15.9424 33.9733C16.0621 34.1429 16.1319 34.3724 16.1319 34.6717ZM17.1596 35.859H17.5387V33.8037H18.0974V33.4844H17.5387V33.1153C17.5387 32.786 17.6684 32.6164 17.9378 32.6164C18.0276 32.6164 18.1174 32.6364 18.1872 32.6763V32.347C18.1174 32.3171 18.0276 32.3071 17.9179 32.3071C17.7083 32.3071 17.5487 32.367 17.409 32.4967C17.2494 32.6464 17.1696 32.8459 17.1696 33.1153V33.5044H16.7705V33.8237H17.1696L17.1596 35.859ZM18.716 35.2205C18.716 35.6794 18.9255 35.9189 19.3346 35.9189C19.4843 35.9189 19.604 35.8989 19.6938 35.839V35.5098C19.6239 35.5597 19.5441 35.5896 19.4543 35.5896C19.3246 35.5896 19.2348 35.5597 19.1849 35.4898C19.1351 35.42 19.1051 35.3102 19.1051 35.1506V33.8137H19.7038V33.4944H19.1051V32.796C18.9754 32.8459 18.8457 32.8758 18.726 32.9157V33.4944H18.3169V33.8137H18.726L18.716 35.2205ZM59.4826 39.5805C59.3529 39.4607 59.2032 39.4009 59.0137 39.4009C58.8241 39.4009 58.6645 39.4607 58.5348 39.5904C58.4051 39.7201 58.3452 39.8798 58.3452 40.0594C58.3452 40.2489 58.4051 40.4086 58.5348 40.5283C58.6645 40.648 58.8241 40.7079 59.0137 40.7079C59.2032 40.7079 59.3629 40.648 59.4926 40.5183C59.6223 40.3886 59.6921 40.239 59.6921 40.0494C59.6821 39.8598 59.6123 39.7102 59.4826 39.5805ZM59.4227 40.4784C59.313 40.5882 59.1733 40.648 59.0037 40.648C58.8341 40.648 58.7044 40.5981 58.5847 40.4784C58.4749 40.3587 58.4151 40.219 58.4151 40.0494C58.4151 39.8798 58.4649 39.7501 58.5847 39.6303C58.6944 39.5206 58.8341 39.4607 59.0137 39.4607C59.1833 39.4607 59.313 39.5106 59.4327 39.6303C59.5425 39.7501 59.6023 39.8798 59.6023 40.0494C59.6023 40.229 59.5425 40.3687 59.4227 40.4784ZM59.0835 40.0893C59.1534 40.0693 59.2032 40.0394 59.2432 40.0095C59.2831 39.9696 59.293 39.9197 59.293 39.8598C59.293 39.79 59.2731 39.7401 59.2232 39.7002C59.1733 39.6603 59.0835 39.6303 58.9837 39.6303H58.7443V40.4784H58.864V40.1192H58.9438C58.9937 40.1192 59.0436 40.1691 59.0935 40.2689L59.1833 40.4784H59.3329L59.2232 40.2489C59.1733 40.1492 59.1234 40.1092 59.0835 40.0893ZM59.0037 40.0195H58.874V39.7301H58.9837C59.0636 39.7301 59.1134 39.7401 59.1434 39.77C59.1733 39.79 59.1833 39.8199 59.1833 39.8798C59.1733 39.9696 59.1134 40.0195 59.0037 40.0195ZM37.8023 33.3946H37.912V32.5466H38.1914V32.4368H37.5229V32.5466H37.8023V33.3946ZM38.4508 32.7561C38.4508 32.6763 38.4508 32.6064 38.4408 32.5665C38.4508 32.6164 38.4608 32.6464 38.4708 32.6663L38.8 33.3946H38.8499L39.1791 32.6563C39.1891 32.6364 39.1991 32.6064 39.2091 32.5665C39.1991 32.6464 39.1991 32.7062 39.1991 32.7461V33.3946H39.3088V32.4368H39.1791L38.8798 33.0953C38.8698 33.1153 38.8499 33.1652 38.8299 33.215H38.82C38.81 33.1851 38.8 33.1552 38.78 33.1053L38.4807 32.4368H38.3311V33.3946H38.4408L38.4508 32.7561Z" fill="white"/>
</g>
<defs>
<linearGradient id="paint0_linear_113_590" x1="26.6156" y1="30.108" x2="28.9868" y2="28.7068" gradientUnits="userSpaceOnUse">
<stop stop-color="#909CA9"/>
<stop offset="1" stop-color="#EDEDEE"/>
</linearGradient>
<clipPath id="clip0_113_590">
<rect width="59.3839" height="48" fill="white" transform="translate(0.308105 0.599609)"/>
</clipPath>
</defs>
</svg>
