<?xml version="1.0" encoding="utf-8"?>
<!-- Generator: Adobe Illustrator 27.0.0, SVG Export Plug-In . SVG Version: 6.00 Build 0)  -->
<svg version="1.1" id="MSsql" xmlns="http://www.w3.org/2000/svg" xmlns:xlink="http://www.w3.org/1999/xlink" x="0px" y="0px"
	 viewBox="0 0 595.2 481.1" style="enable-background:new 0 0 595.2 481.1;" xml:space="preserve">
<style type="text/css">
	.st0{fill:url(#SVGID_1_);}
	.st1{fill:url(#SVGID_00000129200774155574121990000013379962264227035567_);}
	.st2{fill:url(#SVGID_00000036971367730802232360000015554274225947961522_);}
	.st3{fill:#231F1F;}
</style>
<linearGradient id="SVGID_1_" gradientUnits="userSpaceOnUse" x1="6568.9614" y1="-5032.9902" x2="7194.3965" y2="-4663.4307" gradientTransform="matrix(3.800003e-02 0 0 -3.800003e-02 14.0575 104.504)">
	<stop  offset="0" style="stop-color:#909CA9"/>
	<stop  offset="1" style="stop-color:#EDEDEE"/>
</linearGradient>
<path class="st0" d="M403.5,153.2l-65.7,21.5l-57.2,25.2l-16,4.2c-4.1,3.9-8.3,7.8-13,11.8c-5.1,4.4-9.8,8.3-13.4,11.2
	c-4,3.2-10,9.1-13,12.9c-4.5,5.7-8.1,11.7-9.6,16.3c-2.7,8.3-1.4,16.8,3.9,24.6c6.8,9.9,20.2,20.1,35.9,27c8,3.5,21.5,8,31.6,10.6
	c16.8,4.3,49.4,8.9,67.4,9.6c3.6,0.1,8.5,0.1,8.7,0c0.4-0.2,3.2-5.6,6.4-12.2c11-22.5,19-43.6,23.3-61.7c2.6-10.9,4.6-25.5,6-42.7
	c0.3-4.8,0.5-21,0.2-26.4c-0.4-8.9-1.2-16.2-2.5-23.3c-0.2-1-0.2-2-0.1-2c0.2-0.1,0.8-0.3,8.9-2.7L403.5,153.2L403.5,153.2
	L403.5,153.2L403.5,153.2z M388.5,162c0.6,0,2.2,15.3,2.6,24.9c0.1,2,0,3.4,0,3.4c-0.4,0-8.4-4.7-14.1-8.3
	c-5-3.1-14.4-9.4-15.9-10.6c-0.5-0.3-0.4-0.4,3.6-1.8C371.6,167.3,388,162,388.5,162z M355,173c0.4,0,1.6,0.6,4.3,2.3
	c10.2,6.4,24.1,14.2,30.1,16.7c1.8,0.8,2,0.5-2.2,3.4c-9,6.2-20.3,12.2-34.1,18.3c-2.4,1.1-4.5,1.9-4.5,1.9c-0.1,0,0.2-1.2,0.6-2.7
	c3.3-12.4,5.2-24.9,5.3-34.9C354.6,173.1,354.6,173.1,355,173C354.9,173,355,173,355,173L355,173z M348.1,175.7
	c0.3,0.3,0.1,11.4-0.3,14.5c-0.9,7.3-2.3,14-4.6,21.6c-0.5,1.8-1,3.4-1.1,3.5c-0.2,0.2-7-6.4-9.2-9c-3.9-4.5-6.9-8.9-9.1-13.3
	c-1.1-2.2-2.9-6.6-2.8-6.8C321.7,185.6,347.9,175.5,348.1,175.7L348.1,175.7z M315.6,188.4h0.1c0.1,0.1,0.4,0.9,0.7,1.8
	c1.6,4.3,5.2,10.7,8.2,14.8c3.4,4.5,7.8,9.2,11.5,12.4c1.2,1,2.3,1.9,2.4,2.1c0.3,0.3,0.4,0.2-7.7,3.3c-9.4,3.6-19.6,7.2-31.3,10.9
	c-2.8,0.9-5.6,1.8-8.4,2.7c-0.4,0.1-0.3-0.1,1-2.1c5.8-9.1,14.7-26.9,19.6-39.5c0.8-2.2,1.7-4.4,1.8-4.9c0.2-0.7,0.4-0.9,1.1-1.3
	C315.1,188.5,315.5,188.4,315.6,188.4L315.6,188.4z M305.7,192.6c0.1,0.1-2.4,5.4-4.9,10.3c-4.8,9.4-10.1,18.6-17.1,29.9
	c-1.2,1.9-2.3,3.7-2.5,3.9c-0.2,0.3-0.3,0.2-1.1-1.3c-1.7-3.3-3.1-7.6-3.8-11.5c-0.7-3.9-0.6-10.6,0.2-14.8c0.6-3.1,0.6-3,2.1-3.8
	C284.9,202,305.5,192.4,305.7,192.6L305.7,192.6z M391.4,196v2.1c0,11.1-1.2,26.3-2.9,37.4c-0.3,1.9-0.5,3.5-0.6,3.6
	c0,0-1.4-0.4-3.1-0.9c-7.5-2.3-15.5-5.8-22.9-9.8c-4.8-2.6-11.8-7-11.6-7.2c0,0,2.1-1.1,4.6-2.4c9.7-5.1,19.1-10.5,27.2-15.9
	c3-2,7.6-5.3,8.6-6.2L391.4,196L391.4,196z M268.2,210.8c0.2,0,0.1,0.4-0.1,2.2c-0.2,1.3-0.4,3.7-0.5,5.3c-0.4,7.3,0.8,12.6,4.4,20
	c1,2,1.8,3.7,1.7,3.8c-0.3,0.3-33.2,9.9-43.6,12.8c-3.1,0.8-5.8,1.6-6,1.6c-0.3,0.1-0.4,0.1-0.2-0.8c1.1-7.3,6.7-16.8,14.5-24.9
	c5.2-5.4,9.3-8.5,16.3-12.5C259.7,215.3,267.5,211,268.2,210.8C268.1,210.8,268.1,210.8,268.2,210.8L268.2,210.8z M345.7,224.6
	c0,0,1.2,0.6,2.7,1.4c10.6,6.2,25.4,11.9,38.1,14.8l1.1,0.2l-1.6,0.9c-6.6,3.7-28.3,12.7-50.5,21c-3.2,1.2-6.4,2.4-7,2.6
	s-1.1,0.4-1.1,0.3s0.9-1.8,2-3.9c6.2-11.6,12.5-25.8,15.6-35.6C345.4,225.5,345.6,224.7,345.7,224.6L345.7,224.6z M337.8,227.2
	c0.1,0.1-0.3,1.1-0.8,2.3c-4.3,10.5-10,21.9-17.2,34.7c-1.8,3.3-3.4,5.9-3.4,5.9s-1.5-0.9-3.3-2c-10.5-6.5-19.9-14.4-26-22.1
	l-0.9-1.1l4.5-1.2c16.2-4.4,30-9.2,43.6-15.1C336.2,227.8,337.7,227.2,337.8,227.2z M386.9,244.3
	C386.9,244.3,386.9,244.4,386.9,244.3c0,1.1-2.5,11.4-4.6,18.8c-1.7,6.2-3.2,11.1-6,19.7c-1.2,3.8-2.2,6.9-2.3,6.9
	c0,0-0.3,0-0.6-0.1c-14.8-2.7-28-6.4-40.4-11.4c-3.5-1.4-8.4-3.6-8.7-3.9c-0.1-0.1,2.9-1.5,6.7-3.1c22.6-9.9,46.1-21.1,54.1-25.9
	C386,244.6,386.7,244.3,386.9,244.3L386.9,244.3z M273.6,248.2c0.1,0.1-6.2,9.2-15.1,21.6c-3.1,4.3-6.7,9.4-8,11.3s-3.4,4.9-4.5,6.7
	l-2.1,3.2l-2.2-1.9c-2.6-2.2-7.2-6.9-9.2-9.4c-4.3-5.3-7.2-10.9-8.3-16c-0.5-2.4-0.5-3.6-0.1-3.7c0.7-0.2,14-3.3,26.4-6.2
	c6.9-1.6,14.9-3.5,17.8-4.2C271.2,248.8,273.5,248.2,273.6,248.2L273.6,248.2z M279.9,250.6l1.6,1.8c7.2,8,14.5,13.9,23.3,19.1
	c1.6,0.9,2.8,1.7,2.7,1.7c-0.3,0.2-30.7,11-44.8,15.9c-7.9,2.8-14.4,5-14.5,5c0,0-0.5-0.3-1-0.6l-0.9-0.6l1.4-2.1
	c4.7-6.8,10.5-14.2,23.3-29.6L279.9,250.6L279.9,250.6z M319.6,279c0,0,2.2,0.7,4.9,1.7c6.5,2.4,11.6,4,18.4,5.7
	c8.4,2.1,20.7,4.2,27.9,4.8c1.1,0.1,1.7,0.2,1.5,0.3c-0.3,0.2-7.7,2.6-13,4.3c-8.5,2.7-34.6,10.4-55.9,16.5
	c-3.9,1.1-7.3,2.1-7.5,2.1c-0.5,0.1-2.1-0.3-2.1-0.5c0-0.1,1.2-1.6,2.6-3.3c7.2-8.5,14.3-18.1,20.2-27.1
	C318.2,281.1,319.6,279.1,319.6,279L319.6,279z M310.8,279.3c0,0-3.5,5.7-9.6,15.4c-2.6,4.1-5.6,8.8-6.6,10.4s-2.5,4.1-3.3,5.5
	l-1.4,2.5l-0.7-0.2c-1.8-0.5-14.4-4.9-17.7-6.3c-4.1-1.6-8.4-3.6-11.6-5.3c-4-2.1-8.9-5.3-8.5-5.4c0.1,0,6.9-1.9,15.1-4.1
	c21.8-5.9,33.8-9.3,41.7-11.8C309.5,279.6,310.8,279.2,310.8,279.3L310.8,279.3z M372.7,293.8L372.7,293.8
	c0.2,0.5-7.8,22.9-10.7,29.9c-0.6,1.6-0.9,2-1.2,1.9c-0.8,0-12.5-1.7-19.6-2.7c-12.4-1.9-33.1-5.5-38.4-6.7l-1.2-0.2l7.4-1.7
	c15.9-3.6,23.5-5.5,31.3-7.9c9.8-3,19.5-6.7,29.3-11.3C371,294.4,372.3,293.8,372.7,293.8L372.7,293.8z"/>
<linearGradient id="SVGID_00000016772432664147385390000000308520119065475485_" gradientUnits="userSpaceOnUse" x1="6580.5386" y1="1931.6661" x2="7083.7798" y2="1931.6661" gradientTransform="matrix(3.800003e-02 0 0 -3.800003e-02 14.0575 104.504)">
	<stop  offset="0" style="stop-color:#939FAB"/>
	<stop  offset="1" style="stop-color:#DCDEE1"/>
</linearGradient>
<path style="fill:url(#SVGID_00000016772432664147385390000000308520119065475485_);" d="M335.8,0c-1.1-0.1-18.7,6.2-30.1,10.8
	c-15.4,6.3-27.3,12.2-34.6,17.4c-2.7,1.9-6.2,5.4-6.7,6.7c-0.2,0.5-0.3,1.1-0.3,1.7l6.7,6.3l15.8,5.1l37.7,6.8l43.1,7.4l0.4-3.7
	c-0.1,0-0.2,0-0.4,0l-5.7-0.9l-1.1-2c-5.9-10.3-12.3-23.2-16.1-31.8c-2.9-6.7-5.7-14.5-7.3-20C336.4,0.3,336.3,0.1,335.8,0L335.8,0
	L335.8,0L335.8,0z M335,2.5L335,2.5c0.1,0,0.3,1.4,0.5,3.1c0.8,7,2.4,13.7,4.8,20.9c1.8,5.5,1.8,5.2-0.3,4.5
	c-5.1-1.4-27.8-5.3-44.2-7.6c-2.6-0.3-4.9-0.7-4.9-0.7c-0.2-0.2,11.9-6.5,17.2-9C314.9,10.6,333.6,2.8,335,2.5z M287.1,24.8l1.9,0.6
	c10.5,3.6,37,8.6,51.6,9.8c1.6,0.1,3,0.3,3.1,0.3c0,0-1.3,0.8-3.1,1.6c-7.1,3.5-14.8,7.8-20.2,11.2c-1.6,1-3,1.8-3.2,1.8
	s-1.2-0.2-2.3-0.3l-2-0.3l-5-4.9c-8.7-8.5-15.6-15.1-18.2-17.5L287.1,24.8z M285.1,26.3l7,8.7c3.8,4.8,7.7,9.5,8.5,10.6
	c0.8,1,1.5,1.9,1.5,1.9c-0.2,0.1-10.1-1.8-15.4-3c-5.4-1.2-7.7-1.8-11-2.9l-2.7-0.9v-0.5c0-3.3,4.3-8.3,11.4-13.4L285.1,26.3z
	 M344.6,38.3c0.2,0,0.4,0.4,1,1.8c1.7,3.7,7,13.8,8.2,15.7c0.4,0.6,1.1,0.7-5.9-0.4c-16.8-2.7-22.3-3.6-22.3-3.7
	c0,0,0.5-0.4,1.1-0.7c5.2-2.9,10.5-6.6,15.2-10.5c1.1-0.9,2.2-1.8,2.4-2C344.5,38.3,344.6,38.2,344.6,38.3z"/>
<radialGradient id="SVGID_00000156585050217782270920000016812807060455807361_" cx="-25104.584" cy="10680.498" r="668.15" gradientTransform="matrix(-3.649111e-02 -5.481365e-03 -1.108591e-02 7.298223e-02 -436.9819 -798.3998)" gradientUnits="userSpaceOnUse">
	<stop  offset="0" style="stop-color:#EE352C"/>
	<stop  offset="1" style="stop-color:#A91D22"/>
</radialGradient>
<path style="fill:url(#SVGID_00000156585050217782270920000016812807060455807361_);" d="M264.7,34.2c0,0-1.1,1.7,0,4.3
	c0.6,1.6,2.5,3.5,4.7,5.5c0,0,22.1,21.6,24.8,24.6c12.2,14.1,17.5,28,18,47.2c0.3,12.3-2,23.2-7.8,35.7
	c-10.3,22.6-32.1,47.4-65.8,75.1l4.9-1.6c3.2-2.4,7.5-4.9,17.6-10.5c23.4-12.8,49.7-24.6,82-36.7c46.5-17.5,123-38,166.5-44.6
	l4.5-0.7l-0.7-1.1c-4-6.2-6.7-10-10-14.1c-9.5-11.8-21.1-21.4-35.3-29.4c-19.5-10.9-44.7-19.4-76.6-25.7c-6-1.2-19.2-3.5-30-5.1
	c-22.8-3.5-37.5-6-53.7-8.7c-5.8-1-14.5-2.5-20.3-3.7c-3-0.6-8.7-2-13.2-3.5C270.9,39.9,265.8,38.5,264.7,34.2L264.7,34.2z
	 M277.5,46.7c0,0,0.8,0.2,1.9,0.6c1.9,0.6,4.3,1.4,7.2,2.2c2.2,0.6,4.4,1.2,6.6,1.7c3,0.7,5.5,1.4,5.5,1.4
	c0.3,0.3,5.4,16.4,7.1,22.6c0.6,2.3,1.1,4.3,1.1,4.3c-0.1,0.1-0.6-0.8-1.2-1.9c-5.8-10.2-15-20.6-25.6-29
	C278.5,47.6,277.5,46.7,277.5,46.7z M301.9,53.4c0.2,0,1.3,0.1,2.7,0.4c8.4,1.9,23.6,4.8,33.3,6.4c1.6,0.2,2.9,0.5,2.9,0.6
	s-0.6,0.4-1.3,0.8c-1.6,0.8-8.2,4.8-10.4,6.3c-5.5,3.7-10.5,7.7-14.1,11.2c-1.4,1.4-2.7,2.6-2.7,2.6s-0.3-0.8-0.5-1.9
	c-1.8-6.9-5.5-17.1-8.9-24.3C302.3,54.5,301.9,53.5,301.9,53.4C301.9,53.5,301.9,53.4,301.9,53.4L301.9,53.4z M344.9,61.6
	c0.3,0.1,0.8,1.8,1.8,5.5c1.8,7.2,2.7,15.3,2.4,22.8c-0.1,2.1-0.2,4-0.3,4.3l-0.1,0.5l-2.6-0.8c-5.3-1.7-14-4.2-21.4-6.3
	c-4.2-1.1-7.7-2.2-7.7-2.3c0-0.3,6.2-6.5,8.8-8.8C330.9,72,344.5,61.5,344.9,61.6L344.9,61.6z M348.4,62.1
	c0.1-0.1,20.6,3.4,29.9,5.2c6.9,1.3,16.9,3.4,17.5,3.7c0.3,0.1-0.7,0.7-4.1,2.2c-13.1,5.9-22.9,11.2-32.5,17.7
	c-2.5,1.7-4.7,3.1-4.7,3.1s-0.1-1.4-0.1-3.2c0-9.4-1.9-19-5.4-27C348.6,62.9,348.3,62.2,348.4,62.1z M401.2,72.5
	c0.1,0.1-0.5,4.2-1.1,6.6c-1.8,7.4-6.6,18.4-12.5,28.7c-1,1.8-2,3.3-2.1,3.4c-0.1,0-1.4-0.7-3-1.6c-5.8-3.4-12.3-6.6-19.5-9.5
	c-2-0.8-3.7-1.5-3.8-1.6c-0.3-0.3,15.6-10.9,24.1-15.9C390.1,78.4,401,72.3,401.2,72.5z M405,73.1c0.4,0,9.5,2.5,14.2,3.9
	c11.7,3.5,25.1,8.4,33.8,12.4l3.6,1.6l-2.5,0.6c-21.4,4.9-39.6,10.6-57.3,17.7c-1.4,0.6-2.7,1.1-2.8,1.1c-0.1,0,0.4-1.1,1-2.5
	c5.3-11.3,8.7-23.1,9.6-33.1C404.7,73.9,404.8,73.1,405,73.1L405,73.1z M314.9,93.8c0.1-0.1,7.1,1.5,10.8,2.5
	c5.7,1.6,17.7,5.6,17.7,5.9c0,0-1.3,1.2-2.9,2.6c-6.5,5.4-12.8,11.1-20.3,18.4c-2.2,2.1-4.1,3.9-4.2,3.9s-0.1-0.3-0.1-0.7
	c1.1-8.3,0.9-19.1-0.7-30C315,95,314.9,93.9,314.9,93.8z M460.1,94c0.1,0.1-3.2,5.3-5.3,8.2c-3,4.3-7.4,9.9-17.2,22.4
	c-5.2,6.6-11.1,14-13,16.4c-2,2.5-3.6,4.6-3.7,4.6c0,0-0.7-0.9-1.4-2c-5.6-8.3-12.2-15.6-20.1-22.2c-1.5-1.2-3.1-2.6-3.7-3
	c-0.5-0.4-1-0.8-1-0.8c0-0.1,8.4-3.8,14.9-6.4c11.2-4.6,26.5-10,38-13.6C453.5,95.7,460,93.9,460.1,94L460.1,94z M463.9,94.9
	c0.2,0,1.4,0.5,2.8,1.4c12.1,6.9,23.9,15.8,33.2,24.9c2.6,2.6,9.1,9.3,9,9.4c0,0-2.3,0.2-5,0.4c-20.9,1.6-47.7,6-73.4,12.2
	c-1.7,0.4-3.3,0.7-3.4,0.7c-0.1,0,1.8-1.9,4.3-4.3c15.1-14.6,22-23.7,30.2-40.1C462.8,97.2,463.8,95.1,463.9,94.9
	C463.8,94.9,463.8,94.9,463.9,94.9L463.9,94.9z M353.2,106.3c0.7,0.1,7.2,3.2,12,5.6c4.5,2.2,11.2,5.8,11.5,6.1c0,0-2.3,1.3-5.3,2.7
	c-9.3,4.7-17.3,9.1-25.7,14.2c-2.4,1.4-4.4,2.6-4.4,2.6c-0.2,0-0.1-0.2,1.2-2.6c4.5-8.1,8-17.9,10.1-27.4
	C352.9,106.8,353.1,106.3,353.2,106.3L353.2,106.3z M346.8,107.5c0.1,0.1-1.5,6.3-2.6,9.6c-2,6.3-5.5,14.2-8.8,20.2
	c-0.8,1.4-2,3.4-2.6,4.6l-1.2,2l-2.8-2.7c-3.2-3.1-5.9-5.1-9.2-6.8c-1.3-0.7-2.4-1.3-2.4-1.4c0-0.4,8.5-8.1,15-13.7
	C336.8,115.2,346.6,107.3,346.8,107.5L346.8,107.5z M386.3,123.7l2.4,1.6c5.6,3.6,12.1,8.4,17.1,12.7c2.8,2.3,8.3,7.3,9.4,8.4
	l0.6,0.6l-4,1.1c-22.8,6.3-40.3,11.9-60.9,19.5c-2.3,0.8-4.2,1.5-4.4,1.5c-0.3,0-0.5,0.2,4.6-4.5c13.1-12.1,24.7-25.4,33.4-38.4
	L386.3,123.7L386.3,123.7z M375.9,126.3c0.1,0.1-6.7,9.7-10.8,15.1c-4.9,6.5-13.5,17.3-19.5,24.3c-2.5,2.9-4.6,5.4-4.7,5.4
	s-0.2-0.7-0.2-1.8c0-6-1.5-12.4-4.2-17.9c-1.1-2.3-1.3-2.8-1.1-3.1c0.9-0.8,15.4-9.1,24.5-14C366.1,131.1,375.7,126.2,375.9,126.3
	L375.9,126.3z M313.1,141.7c0.1,0,1.3,0.6,2.6,1.3c3.2,1.7,6,3.7,8.5,5.8c0.1,0.1-1.2,1.1-2.9,2.4c-4.7,3.4-11.9,8.8-16,12.1
	c-4.4,3.5-4.5,3.6-4,2.8c3.3-5,4.9-7.8,6.7-11.5c1.5-3.2,3.1-7.1,4.2-10.4C312.5,142.8,313,141.7,313.1,141.7L313.1,141.7z
	 M329.8,154.8c0.2,0,0.5,0.4,1.9,2.4c2.8,4.2,5,9.9,5.6,14.5l0.1,1l-6.8,2.6c-12.2,4.7-23.4,9.4-31,12.9c-2.1,1-5.9,2.8-8.3,4
	s-4.4,2.2-4.4,2.1s1.5-1.2,3.4-2.6c14.9-10.8,27.7-22.6,37.4-34.4C328.7,156,329.6,154.9,329.8,154.8L329.8,154.8L329.8,154.8z
	 M322.1,156.7c0.2,0.2-5.5,6.6-9.3,10.5c-9.6,9.8-19.1,17.4-30.9,24.9c-1.5,0.9-2.8,1.8-3,1.9c-0.3,0.2,0.1-0.3,5.3-5.9
	c3.3-3.5,5.8-6.5,8.6-10.2c1.9-2.4,2.2-2.8,5-4.7C305.1,167.9,321.9,156.5,322.1,156.7z"/>
<path class="st3" d="M107,362.4c-0.9,0-1.8,0.1-2.7,0.1c-18.5,1-31,9.1-38.3,25c-6.2,14.4-5.6,33.2,0.1,47.7
	c6.5,14.1,17.1,21.6,34.8,24.4c3.7,0.6,6.2,2.7,13.5,11.1l8.9,10.4h16.2l-10.9-10.7c-5.9-5.9-10.7-11.1-10.7-11.6
	c0-0.5,2.3-1.4,5-2.3c9.1-2.7,16.6-9.7,21.9-20.5c4.3-8.6,4.9-11.3,5.5-22C151.9,382.1,135,362.2,107,362.4L107,362.4L107,362.4z
	 M121.2,445.9c-7.9,3.8-19.3,4.6-26.7,1.8c-7.7-2.8-15.2-10.8-18.5-19.9c-3.7-9.9-3.2-28.2,1.1-36.4c6.9-13.1,15.9-19.1,29.2-19.1
	c19.6,0,30.8,12,32.3,34.6C139.6,425.8,133.3,440,121.2,445.9L121.2,445.9z M400.2,389.7c-6.8,0-12,2.7-15.5,8.1l-2.7,4.3V391h-11.7
	v66.7H382v-21.3c0-19.5,0.2-21.8,3-27.1c3.8-7.3,10.2-11,16.5-9.2l4.2,1.2v-11.6H400.2L400.2,389.7L400.2,389.7z M331.3,389.1
	c-2.3,0-4.7,0.3-7.2,0.8c-15.7,4.1-24.5,19.1-24,34.6c0,12.9,2.5,19.4,8.8,26.2c12.8,10.5,24.4,11.3,40,5.7c2.7-1.1,5.6-2.4,5.6-2.4
	v-10.5l-5.6,2.9c-12.6,5.5-22.2,5.5-29.8-1c-4.9-5-7-10.9-8-17.7h47.3v-9C358.4,400.3,347.4,388.8,331.3,389.1L331.3,389.1
	L331.3,389.1z M312.2,418.3c0,0,1.7-11.4,8.2-15.9c3.1-2.2,6.7-3.3,10.2-3.3s7,1.1,9.9,3.3c5.9,4.6,6.9,15.8,6.9,15.8L312.2,418.3
	L312.2,418.3L312.2,418.3L312.2,418.3z M29.5,406.3c-12.7-7.7-18.4-13.3-17.7-19.8c2-18.1,24.4-15.6,36.8-8.8l0.1-12.2
	c0,0-6.9-3-16.7-3.1c-15.1-0.2-24.8,4.7-29.4,14.8c-6.7,14.8-0.8,26,20.7,38.5c12,7,17.4,13.1,17.4,19.7c0,13.7-16.5,18.5-33.6,9.9
	c-3.5-1.7-6.5-3.2-6.6-3.2c-0.6,3.9-0.3,13.2-0.3,13.2s5.2,2.2,13.1,3.7c19.5,3.9,37.2-5.3,38.9-20.1
	C53.6,425,48.6,417.7,29.5,406.3L29.5,406.3z M504,388.9c-2.3,0-4.7,0.3-7.2,0.8c-15.7,4.1-24.5,19.1-23.9,34.6
	c0,12.9,2.5,19.3,8.7,26.1c12.8,10.5,24.4,11.4,40,5.7c2.7-1.1,5.5-2.4,5.5-2.4v-10.5l-5.6,2.9c-12.7,5.5-22.2,5.5-29.8-1
	c-4.9-4.9-7-10.8-8-17.7h47.2v-9C531.1,400.2,520,388.6,504,388.9L504,388.9L504,388.9z M484.9,418.1c0,0,1.8-11.4,8.2-16
	c3.1-2.2,6.7-3.3,10.2-3.3s7,1.1,9.9,3.4c5.9,4.6,6.9,15.8,6.9,15.8L484.9,418.1L484.9,418.1L484.9,418.1z M269.9,406.4
	c-12.7-7.7-18.3-13.3-17.7-19.8c2-18.1,24.4-15.6,36.8-8.8l0.1-12.2c0,0-6.9-3-16.7-3.1c-15.1-0.2-24.8,4.7-29.4,14.8
	c-6.7,14.8-0.7,26,20.7,38.5c12,7,17.4,13,17.4,19.6c0,13.7-16.5,18.6-33.6,9.9c-3.5-1.7-6.5-3.2-6.6-3.2
	c-0.6,3.9-0.3,13.2-0.3,13.2s5.2,2.1,13,3.7c19.5,3.9,37.2-5.2,38.9-20.1C294,425.2,289,417.9,269.9,406.4L269.9,406.4L269.9,406.4z
	 M572.9,389.5c-6.8,0-12,2.7-15.5,8.2l-2.7,4.3v-11.1H543v66.7h11.7v-21.4c0-19.5,0.2-21.8,3-27.1c3.8-7.3,10.2-11,16.5-9.2l4.2,1.2
	v-11.6H572.9L572.9,389.5z M176.7,406v-42.5h-11.8v94.1h49.7v-11.1h-37.9V406L176.7,406z M450.1,419.3l-9.7,25.4l-9.4-25.5
	l-9.5-28.3h-12.1c7.8,22.2,16.4,44.8,25,66.8c3.7,0.1,7.5,0,11.2,0l13.2-33l13.4-33.7h-11.6C460.5,390.9,455.4,404.3,450.1,419.3
	L450.1,419.3L450.1,419.3z M203.9,337.9c1.9,0,3.5-0.6,4.8-1.9s2-2.8,2-4.7c0-1.9-0.7-3.5-2-4.7s-2.8-1.8-4.7-1.8
	c-1.9,0-3.5,0.6-4.8,1.9s-1.9,2.9-1.9,4.7c0,1.9,0.6,3.5,1.9,4.7C200.4,337.3,202,337.9,203.9,337.9L203.9,337.9L203.9,337.9z
	 M199.7,327.1c1.1-1.1,2.5-1.7,4.3-1.7c1.7,0,3,0.5,4.2,1.7c1.1,1.1,1.7,2.5,1.7,4.2s-0.6,3.1-1.7,4.3c-1.2,1.1-2.5,1.7-4.2,1.7
	s-3.1-0.5-4.2-1.7c-1.1-1.1-1.7-2.6-1.7-4.3C198.1,329.6,198.6,328.2,199.7,327.1z M202.6,331.9h0.8c0.5,0,1.1,0.5,1.5,1.5l0.9,2.1
	h1.4l-1.1-2.3c-0.5-0.9-0.9-1.4-1.4-1.6c0.7-0.2,1.2-0.4,1.6-0.8s0.5-0.9,0.5-1.5c0-0.7-0.2-1.2-0.7-1.6s-1.4-0.7-2.4-0.7h-2.4v8.5
	h1.2v-3.6H202.6L202.6,331.9z M202.6,327.9h1.1c0.8,0,1.3,0.2,1.6,0.4c0.3,0.2,0.4,0.5,0.4,1.1c0,1-0.6,1.4-1.7,1.4h-1.3
	L202.6,327.9L202.6,327.9L202.6,327.9z M7.3,331.1c0-3-0.1-5.2-0.2-6.5h0.1c0.3,1.5,0.7,2.7,1,3.4l11.3,25.4h1.9l11.3-25.6
	c0.3-0.7,0.6-1.7,1-3.2h0.1c-0.2,2.5-0.3,4.7-0.3,6.5v22.4h3.9v-33.3h-4.8l-10.4,23.1c-0.4,0.9-0.9,2.3-1.6,4.1h-0.2
	c-0.2-0.9-0.8-2.3-1.5-3.9L8.7,320.2H3.5v33.3h3.7L7.3,331.1C7.2,331.1,7.3,331.1,7.3,331.1z M46,331.2h3.4v20.7H46V331.2z
	 M47.6,323.6c0.7,0,1.3-0.2,1.7-0.7c0.5-0.5,0.8-1,0.8-1.7s-0.2-1.3-0.8-1.7c-0.5-0.5-1.1-0.7-1.8-0.7s-1.3,0.2-1.7,0.7
	c-0.5,0.5-0.8,1.1-0.8,1.7c0,0.8,0.2,1.3,0.8,1.7C46.4,323.4,46.9,323.6,47.6,323.6L47.6,323.6z M73.2,352.4v-3.7
	c-1.8,1.4-3.8,2.1-5.9,2.1c-2.4,0-4.4-0.8-5.9-2.4c-1.4-1.6-2.2-3.8-2.2-6.5c0-2.9,0.8-5.2,2.4-6.9c1.5-1.7,3.5-2.5,5.9-2.5
	c2,0,3.9,0.6,5.6,1.8v-3.9c-1.6-0.8-3.4-1.2-5.5-1.2c-3.8,0-6.8,1.2-9,3.6s-3.3,5.6-3.3,9.4c0,3.4,1,6.3,3,8.5
	c2.1,2.3,4.9,3.4,8.2,3.4C69.3,354,71.4,353.4,73.2,352.4z M82.8,341.3c0-2.7,0.6-4.9,1.7-6.5c1.1-1.4,2.4-2.1,3.9-2.1
	c1.3,0,2.2,0.2,2.9,0.8v-4c-0.5-0.2-1.3-0.3-2.3-0.3c-1.4,0-2.6,0.5-3.7,1.3c-1.1,0.9-2,2.3-2.6,4h-0.1v-4.9h-3.8v23.7h3.8
	L82.8,341.3L82.8,341.3z M104.7,354c3.6,0,6.5-1.2,8.6-3.4c2.1-2.3,3.2-5.3,3.2-9.1c0-3.9-1-6.9-3-9.1s-4.7-3.3-8.3-3.3
	s-6.5,1.1-8.6,3.1c-2.3,2.3-3.5,5.5-3.5,9.6c0,3.6,1,6.5,3,8.8C98.3,352.8,101.1,354,104.7,354L104.7,354L104.7,354z M99.2,334.6
	c1.4-1.5,3.4-2.3,5.7-2.3c2.4,0,4.3,0.8,5.6,2.3c1.4,1.6,2.1,3.9,2.1,6.9c0,2.9-0.6,5.2-1.9,6.7c-1.3,1.6-3.2,2.4-5.7,2.4
	c-2.4,0-4.3-0.8-5.8-2.4c-1.4-1.6-2.1-3.8-2.1-6.7C97,338.7,97.7,336.3,99.2,334.6z M133.1,351.9c1.4-1.3,2.2-2.9,2.2-4.9
	c0-1.7-0.6-3.2-1.7-4.3c-0.9-0.9-2.4-1.7-4.4-2.6c-1.8-0.8-3-1.4-3.6-2s-1-1.4-1-2.4s0.4-1.7,1.1-2.4c0.8-0.6,1.7-0.9,3.1-0.9
	c2.1,0,3.8,0.5,5.4,1.7v-3.8c-1.5-0.8-3.2-1.1-5.1-1.1c-2.4,0-4.5,0.7-6,2c-1.6,1.3-2.4,3-2.4,4.9c0,1.7,0.5,3.2,1.5,4.3
	c0.8,0.9,2.3,1.8,4.3,2.7c1.9,0.8,3.2,1.6,3.9,2.2s1,1.4,1,2.3c0,2.2-1.5,3.4-4.5,3.4c-2.3,0-4.3-0.8-6.2-2.3v4.1
	c1.7,1,3.7,1.4,5.9,1.4C129.4,354,131.6,353.3,133.1,351.9L133.1,351.9L133.1,351.9z M151.2,329.1c-3.6,0-6.5,1.1-8.6,3.1
	c-2.3,2.3-3.5,5.5-3.5,9.6c0,3.6,1,6.5,3,8.8c2.1,2.3,5,3.4,8.5,3.4c3.7,0,6.5-1.2,8.6-3.4c2.1-2.3,3.2-5.3,3.2-9.1
	c0-3.9-1-6.9-3-9.1C157.5,330.1,154.8,329.1,151.2,329.1L151.2,329.1L151.2,329.1z M158.6,341.5c0,2.9-0.6,5.2-1.9,6.7
	c-1.3,1.6-3.2,2.4-5.7,2.4c-2.4,0-4.3-0.8-5.8-2.4c-1.4-1.6-2.1-3.8-2.1-6.7c0-3.1,0.8-5.4,2.3-7c1.4-1.5,3.3-2.3,5.7-2.3
	s4.3,0.8,5.6,2.3C157.9,336.2,158.6,338.5,158.6,341.5L158.6,341.5L158.6,341.5z M168.9,353.4h3.8v-20.6h5.6v-3.2h-5.6v-3.7
	c0-3.3,1.3-5,4-5c0.9,0,1.8,0.2,2.5,0.6v-3.3c-0.7-0.3-1.6-0.4-2.7-0.4c-2.1,0-3.7,0.6-5.1,1.9c-1.6,1.5-2.4,3.5-2.4,6.2v3.9h-4v3.2
	h4L168.9,353.4L168.9,353.4z M184.5,347c0,4.6,2.1,7,6.2,7c1.5,0,2.7-0.2,3.6-0.8v-3.3c-0.7,0.5-1.5,0.8-2.4,0.8
	c-1.3,0-2.2-0.3-2.7-1s-0.8-1.8-0.8-3.4v-13.4h6v-3.2h-6v-7c-1.3,0.5-2.6,0.8-3.8,1.2v5.8h-4.1v3.2h4.1L184.5,347L184.5,347z
	 M593.1,390.7c-1.3-1.2-2.8-1.8-4.7-1.8s-3.5,0.6-4.8,1.9s-1.9,2.9-1.9,4.7c0,1.9,0.6,3.5,1.9,4.7c1.3,1.2,2.9,1.8,4.8,1.8
	c1.9,0,3.5-0.6,4.8-1.9s2-2.8,2-4.7C595.1,393.5,594.4,392,593.1,390.7L593.1,390.7z M592.5,399.7c-1.1,1.1-2.5,1.7-4.2,1.7
	s-3-0.5-4.2-1.7c-1.1-1.2-1.7-2.6-1.7-4.3c0-1.7,0.5-3,1.7-4.2c1.1-1.1,2.5-1.7,4.3-1.7c1.7,0,3,0.5,4.2,1.7
	c1.1,1.2,1.7,2.5,1.7,4.2C594.3,397.2,593.7,398.6,592.5,399.7z M589.1,395.8c0.7-0.2,1.2-0.5,1.6-0.8c0.4-0.4,0.5-0.9,0.5-1.5
	c0-0.7-0.2-1.2-0.7-1.6s-1.4-0.7-2.4-0.7h-2.4v8.5h1.2v-3.6h0.8c0.5,0,1,0.5,1.5,1.5l0.9,2.1h1.5l-1.1-2.3
	C590,396.4,589.5,396,589.1,395.8L589.1,395.8L589.1,395.8z M588.3,395.1H587v-2.9h1.1c0.8,0,1.3,0.1,1.6,0.4
	c0.3,0.2,0.4,0.5,0.4,1.1C590,394.6,589.4,395.1,588.3,395.1L588.3,395.1L588.3,395.1z M375.8,328.7h1.1v-8.5h2.8v-1.1H373v1.1h2.8
	L375.8,328.7L375.8,328.7z M382.3,322.3c0-0.8,0-1.5-0.1-1.9c0.1,0.5,0.2,0.8,0.3,1l3.3,7.3h0.5l3.3-7.4c0.1-0.2,0.2-0.5,0.3-0.9
	c-0.1,0.8-0.1,1.4-0.1,1.8v6.5h1.1v-9.6h-1.3l-3,6.6c-0.1,0.2-0.3,0.7-0.5,1.2H386c-0.1-0.3-0.2-0.6-0.4-1.1l-3-6.7h-1.5v9.6h1.1
	L382.3,322.3L382.3,322.3L382.3,322.3z"/>
</svg>
