<svg width="36" height="37" viewBox="0 0 36 37" fill="none" xmlns="http://www.w3.org/2000/svg">
<g clip-path="url(#clip0_53_5723)">
<path d="M18 18.0498C19.863 18.0498 21.375 16.0361 21.375 13.5498C21.375 11.0636 19.863 9.0498 18 9.0498C16.137 9.0498 14.625 11.0636 14.625 13.5498C14.625 16.0361 16.137 18.0498 18 18.0498Z" fill="white"/>
<path d="M26.8943 19.8723C26.4555 12.2493 24.7162 7.48155 22.896 4.52955C21.8407 2.82405 20.7675 1.73955 19.9283 1.0713C19.6005 0.80761 19.2521 0.570601 18.8865 0.362555C18.7808 0.301942 18.6727 0.245646 18.5625 0.193805C18.3891 0.101874 18.1963 0.0525151 18 0.0498047C17.7898 0.0528272 17.5838 0.109355 17.4015 0.214055C17.2926 0.269688 17.186 0.329738 17.082 0.394055C16.7207 0.616888 16.3756 0.865008 16.0492 1.13655C15.2168 1.82955 14.1502 2.9433 13.1017 4.66905C11.2905 7.64355 9.5535 12.3933 9.11025 19.8701L5.742 23.9786L5.733 23.9898C4.93483 24.9873 4.49998 26.2268 4.5 27.5043V34.9248C4.5 35.1609 4.57429 35.3911 4.71235 35.5826C4.85041 35.7742 5.04524 35.9174 5.26924 35.9921C5.49324 36.0667 5.73506 36.069 5.96044 35.9986C6.18582 35.9282 6.38333 35.7887 6.525 35.5998L9.05625 32.2248C9.42975 31.7253 10.0012 31.3248 10.7483 30.9423C11.2297 30.6993 11.6797 30.5103 12.1545 30.3101L12.6 30.1211C14.175 31.0841 16.0875 31.5498 18 31.5498C19.9125 31.5498 21.825 31.0841 23.4 30.1211C23.55 30.1871 23.697 30.2493 23.841 30.3078C24.3202 30.5103 24.7702 30.6993 25.2517 30.9423C25.9987 31.3248 26.5703 31.7253 26.9438 32.2248L29.475 35.5998C29.6167 35.7887 29.8142 35.9282 30.0396 35.9986C30.2649 36.069 30.5068 36.0667 30.7308 35.9921C30.9548 35.9174 31.1496 35.7742 31.2876 35.5826C31.4257 35.3911 31.5 35.1609 31.5 34.9248V27.5043C31.5 26.2268 31.0652 24.9873 30.267 23.9898L26.8943 19.8723ZM27 23.5511V23.6748C27 25.6233 26.361 27.2411 25.3125 28.4898C25.641 28.6338 25.9695 28.7823 26.2688 28.9376C27.1462 29.3808 28.0687 29.9726 28.7437 30.8726L29.25 31.5498V27.5043C29.25 26.74 28.9906 25.9983 28.5143 25.4006L27 23.5511ZM10.6875 28.4898C9.639 27.2411 9 25.6233 9 23.6748V23.5533L7.48575 25.3983C7.00888 25.9966 6.74945 26.7392 6.75 27.5043V31.5498L7.25625 30.8748C7.93125 29.9748 8.85375 29.3808 9.73125 28.9376C10.0305 28.7846 10.359 28.6338 10.6875 28.4898ZM18.0202 2.46405C18.1642 2.55405 18.3337 2.6763 18.5287 2.8308C19.1677 3.3393 20.0655 4.22806 20.9812 5.7108C22.8083 8.68081 24.75 14.0831 24.75 23.6748C24.75 25.6053 23.9085 27.0048 22.6283 27.9341C21.4132 28.8183 19.7572 29.2998 18 29.2998C16.2428 29.2998 14.5868 28.8183 13.3717 27.9341C12.0892 27.0026 11.25 25.6053 11.25 23.6748C11.25 14.2653 13.185 8.85631 15.0233 5.8368C15.9435 4.3293 16.8457 3.4023 17.4892 2.8668C17.6932 2.6973 17.8702 2.56455 18.0202 2.46405Z" fill="white"/>
<path d="M21.3279 32.3623C20.2479 32.5716 19.1229 32.6751 18.0001 32.6751C16.8774 32.6751 15.7524 32.5716 14.6724 32.3623L17.1001 35.6001C17.2049 35.7398 17.3408 35.8532 17.497 35.9313C17.6532 36.0094 17.8255 36.0501 18.0001 36.0501C18.1748 36.0501 18.347 36.0094 18.5032 35.9313C18.6594 35.8532 18.7953 35.7398 18.9001 35.6001L21.3279 32.3623Z" fill="white"/>
</g>
<defs>
<clipPath id="clip0_53_5723">
<rect width="36" height="36" fill="white" transform="translate(0 0.0498047)"/>
</clipPath>
</defs>
</svg>
