<?xml version="1.0" encoding="utf-8"?>
<!-- Generator: Adobe Illustrator 27.0.0, SVG Export Plug-In . SVG Version: 6.00 Build 0)  -->
<svg version="1.1" id="MySql" xmlns="http://www.w3.org/2000/svg" xmlns:xlink="http://www.w3.org/1999/xlink" x="0px" y="0px"
	 viewBox="0 0 175.7 112" style="enable-background:new 0 0 175.7 112;" xml:space="preserve">
<style type="text/css">
	.st0{fill-rule:evenodd;clip-rule:evenodd;fill:#00678F;}
	.st1{fill-rule:evenodd;clip-rule:evenodd;fill:#E38D1A;}
</style>
<path class="st0" d="M0,83.2v-23c0-2.2,0.9-3.3,2.8-3.9c4.4-1.4,7.5-0.2,8.7,2.8l8.6,19.8l8.8-19.8c1.3-3,4.3-4.2,8.7-2.8
	c1.8,0.6,2.7,1.7,2.7,3.9v23h-5.8v-23l-9,20.1c-1.1,2.4-2.5,3.3-5.4,3.3c-2.9,0-4.3-0.8-5.4-3.3l-9-20.1v23H0L0,83.2z M45.2,64.4
	c0.1,0.1,0,12.8,0,13.1c0,2.9,3.7,5.4,9.5,5.5h12.4v1.5c0,0.6,0.4,2.5-3.3,2.9c0,0-18.4,0-18.4,0v3.9h18.4c2.9-0.1,9.2-1.2,9.2-6.2
	c0-0.1,0-20.7,0-20.7h-5.8v15.1c-0.1,0-11,0-12.6,0c-3.2,0-3.5-1.7-3.4-2.4V64.4H45.2L45.2,64.4z"/>
<path class="st0" d="M170.6,49.8c-0.1-0.9-2.3-2.1-3-2.5c-1.5-1-2.9-2.1-4.5-3c-0.8-0.5-2.2-0.9-3-1.2c-1.2-0.5-3.9-1-4.6-1.9
	c-1.3-1.7-2.2-3.9-3.1-6c-0.9-2.1-2.1-4.3-3.1-6.5c-0.4-1.1-0.7-2-1.2-3c-3.3-6.3-8.1-11.6-14-15.3c-1.9-1.2-4.1-2.4-6.4-3.1
	c-1.3-0.4-2.9-0.2-4.4-0.5c-0.3,0-0.6,0-0.9,0c-0.8-0.2-1.5-1.1-2.1-1.5c-1.4-0.9-2.8-1.6-4.4-2.3c-0.6-0.2-2.3-0.8-2.9-0.4
	c-0.4,0.1-0.5,0.3-0.6,0.6c-0.3,0.5,0,1.3,0.2,1.8c0.7,1.4,1.6,2.3,2.5,3.5c0.8,1,1.7,2.2,2.2,3.4c1.2,2.5,1.7,5.3,2.7,7.8
	c0.4,0.9,1,2,1.7,2.8c0.5,0.7,1.3,1.2,1.6,2.1c0.6,0.9-0.8,3.8-1.1,4.8c-1.2,3.7-0.9,8.7,0.4,11.9c0.5,1.2,1,2.7,2.5,3.1
	c0.1-0.1,0,0,0.2-0.1c0.3-2.4,0.4-4.8,1.2-6.7c0.5-1.2,1.5-2.1,2.1-3.1c0.5,0.3,0.5,1.1,0.7,1.7c0.6,1.4,1.2,2.9,1.9,4.3
	c1.5,2.9,3.2,5.6,5,8.1c0.7,0.9,1.6,1.9,2.4,2.7c0.3,0.3,0.7,0.5,1,0.9c0,0,0.1,0,0.1,0c0,0,0,0.1,0,0.1c-1.4-0.4-2.2-1.8-3.3-2.6
	c-2.1-1.5-4.5-3.8-5.8-6c-0.6-1.2-1.2-2.4-1.8-3.7c0,0,0,0,0-0.1c-0.3,0.4-0.2,0.7-0.3,1.2c-0.6,2.3-0.1,4.8-2.1,5.6
	c-2.3,0.9-4-1.5-4.7-2.6c-2.3-3.7-2.9-9.9-1.3-15c0.4-1.1,0.4-2.5,1-3.3c-0.1-0.8-0.8-1-1.1-1.5c-0.6-0.8-1.2-1.8-1.7-2.8
	c-0.9-1.8-1.6-4-2.3-6c-0.3-0.8-0.4-1.6-0.7-2.3c-0.5-1.2-1.5-2.3-2.2-3.3c-1.1-1.5-4.1-4.3-2.9-7.2c1.9-4.6,8.4-1.1,11,0.5
	c0.7,0.4,1.4,1.2,2.1,1.5c1.1,0.1,2.2,0.1,3.3,0.2c2.1,0.5,4.1,0.9,5.7,1.8c7.7,4.5,12.7,9.1,17.3,16.7c0.9,1.6,1.5,3.3,2.2,5.1
	c1.1,2.6,2.4,5.3,3.7,7.8c0.6,1.2,1,2.5,1.8,3.4c0.4,0.4,1.2,0.6,1.7,0.8c1.5,0.8,3.3,1.3,4.7,2.3c2.5,1.6,5,3.5,7.3,5.5
	c0.9,0.7,1.4,1.8,2.2,2.6c0,0.1,0,0.3,0,0.4c-0.7,0.2-1.4,0.4-2.1,0.6c-1.6,0.4-2.9,0.3-4.5,0.7c-0.9,0.2-2.1,0.6-3,0.7
	c0,0,0,0,0.1,0.1c0.6,1.6,3.7,3,5.1,4c1.7,1.2,3.4,2.8,4.7,4.5c0.4,0.4,0.9,0.9,1.3,1.3c0.3,0.4,0.4,1,0.7,1.4c0,0,0,0.1,0,0.1
	c-0.6-0.2-0.9-0.8-1.4-1.1c-1-0.7-2-1.5-3-2.1c-1.7-1.1-3.6-1.7-5.4-2.7c-1-0.6-1.9-1.3-2.8-2.1c-0.8-0.6-1.8-1.8-2.4-2.7
	c-0.3-0.5-0.4-1.1-0.7-1.4c0.1-0.8,1.2-0.8,1.8-1.1C164.3,50,167,49.7,170.6,49.8L170.6,49.8z M125.1,11.1c-0.7,0-1.2,0.1-1.8,0.2
	c0,0,0,0,0,0.1c0,0,0.1,0,0.1,0c0.4,0.7,1,1.2,1.4,1.8c0.3,0.7,0.7,1.4,1,2.1c0,0,0.1-0.1,0.1-0.1c0.6-0.4,0.9-1.1,0.9-2.2
	c-0.2-0.3-0.3-0.6-0.5-0.9C126,11.6,125.5,11.4,125.1,11.1L125.1,11.1z"/>
<path class="st1" d="M77.5,83.2v-3.9h16.1c0.2,0,0.4,0,0.6,0c1.1-0.1,2-0.4,2.5-0.8c0.6-0.4,0.8-1,0.8-1.4v-3.4
	c0-0.4-0.1-0.7-0.4-1.1c-0.6-0.7-1.3-1-3.2-1.2c-0.2,0-0.4,0-0.6,0h-6c-0.6,0-1.1,0-1.7,0c-5-0.5-7.9-2.8-7.9-5.4v-3.4
	c0-3,1.5-4.7,5-5.8c1.1-0.3,2.3-0.5,4.7-0.5h16.4v3.9H86.9c-0.2,0-0.4,0-0.6,0c-2.1,0.2-2.7,0.5-2.9,1.7c0,0.2,0,0.3,0,0.5V65
	c0,0.2,0,0.4,0,0.5c0.3,1.6,1.4,2.3,3.7,2.3h7c1.7,0,3.5,0.3,5,0.8c2.7,1,4.1,2.6,4.1,4.3v4.3c0,2.1-1.2,3.6-3.7,4.8
	c-1.5,0.7-3.4,1.1-5.4,1.1H77.5L77.5,83.2z M139.7,76.4c0,4,2.9,6.2,9,6.7c0.5,0,1.1,0.1,1.7,0.1h15.2v-3.9h-15.3
	c-3.4,0-4.7-0.8-4.7-2.9V56.3h-5.8V76.4L139.7,76.4z M107,76.6c0,3.2,1.8,5.2,5.5,6.2c1.2,0.4,2.4,0.5,3.4,0.5h6.2l4.7-0.3l4.6,4.1
	h6.8l-5.8-5.2c2.4-1,3.5-2.5,3.5-5.4V62.8c0-3.5-2.5-5.7-7.4-6.3c-0.6-0.1-1.1-0.1-1.6-0.1H116c-0.5,0-1.1,0-1.6,0.1
	c-4.9,0.7-7.4,2.8-7.4,6.3V76.6L107,76.6z M113.3,76.2V63.1c0-1.7,1.7-2.9,4.2-2.9h8.8c2.2,0,3.7,0.8,4.1,2.4c0,0.2,0,0.4,0,0.5
	v13.3c0,0.2,0,0.4,0,0.6c-0.2,0.8-0.7,1.4-1.5,1.8l-4.2-3.8H118l4.9,4.4h-5.3c-2.3,0-3.8-0.9-4.1-2.5
	C113.4,76.6,113.3,76.5,113.3,76.2L113.3,76.2z M168.1,83.2v-3.2H167v-0.7h3.2v0.7H169v3.2H168.1L168.1,83.2z M174.6,83.2v-2.9h0
	l-1.1,2.9h-0.6l-1.1-2.9l0,0v2.9H171v-3.9h1.2l1,2.7l1-2.7h1.2v3.9H174.6L174.6,83.2z"/>
</svg>
