<svg width="64" height="42" viewBox="0 0 64 42" fill="none" xmlns="http://www.w3.org/2000/svg">
<g clip-path="url(#clip0_113_566)">
<path fill-rule="evenodd" clip-rule="evenodd" d="M0 30.5297V22.1329C0 21.3297 0.327832 20.9281 1.01992 20.7091C2.62265 20.198 3.75185 20.6361 4.18896 21.7313L7.32157 28.9599L10.527 21.7313C11.0006 20.6361 12.0933 20.198 13.6961 20.7091C14.3517 20.9281 14.6796 21.3297 14.6796 22.1329V30.5297H12.5669V22.1329L9.28856 29.471C8.88788 30.3472 8.37792 30.6757 7.32157 30.6757C6.26522 30.6757 5.75526 30.3837 5.35458 29.471L2.07627 22.1329V30.5297H0ZM16.4644 23.6662C16.5009 23.7027 16.4644 28.3392 16.4644 28.4488C16.4644 29.5075 17.8122 30.4202 19.9249 30.4567H24.4417V31.0043C24.4417 31.2234 24.5874 31.917 23.2396 32.063H16.5373V33.4869H23.2396C24.296 33.4503 26.5908 33.0488 26.5908 31.2234C26.5908 31.1869 26.5908 23.6662 26.5908 23.6662H24.4781V29.1789C24.4417 29.1789 20.4713 29.1789 19.8884 29.1789C18.7228 29.1789 18.6135 28.5583 18.65 28.3027V23.6662H16.4644Z" fill="white"/>
<path fill-rule="evenodd" clip-rule="evenodd" d="M62.1422 18.3364C62.1058 18.0079 61.3044 17.5698 61.0494 17.4237C60.5031 17.0587 59.9931 16.6571 59.4103 16.3285C59.1189 16.146 58.6089 15.9999 58.3175 15.8904C57.8804 15.7079 56.8969 15.5253 56.6419 15.1968C56.1684 14.5761 55.8406 13.7729 55.5127 13.0063C55.1849 12.2396 54.7478 11.4364 54.3835 10.6333C54.2378 10.2317 54.1286 9.9031 53.9464 9.53803C52.7444 7.23803 50.9959 5.3031 48.8468 3.95231C48.1547 3.51422 47.3534 3.07612 46.5156 2.82056C46.042 2.67453 45.4592 2.74755 44.9129 2.63803C44.8036 2.63803 44.6943 2.63803 44.585 2.63803C44.2936 2.56501 44.0386 2.23644 43.8201 2.09041C43.3101 1.76183 42.8002 1.50628 42.2173 1.25072C41.9988 1.17771 41.3796 0.95866 41.161 1.10469C41.0153 1.1412 40.9789 1.21422 40.9424 1.32374C40.8332 1.50628 40.9424 1.79834 41.0153 1.98088C41.2703 2.49199 41.5981 2.82056 41.9259 3.25866C42.2173 3.62374 42.5452 4.06183 42.7273 4.49993C43.1644 5.41263 43.3465 6.43485 43.7108 7.34755C43.8565 7.67612 44.0751 8.07771 44.33 8.36977C44.5122 8.62533 44.8036 8.80787 44.9129 9.13644C45.1314 9.46501 44.6214 10.5237 44.5122 10.8888C44.0751 12.2396 44.1843 14.065 44.6579 15.2333C44.84 15.6714 45.0221 16.219 45.5685 16.365C45.6049 16.3285 45.5685 16.365 45.6414 16.3285C45.7506 15.4523 45.7871 14.5761 46.0785 13.8825C46.2606 13.4444 46.6249 13.1158 46.8434 12.7507C47.0255 12.8602 47.0255 13.1523 47.0984 13.3714C47.3169 13.8825 47.5355 14.4301 47.7905 14.9412C48.3369 15.9999 48.9561 16.9856 49.6118 17.8983C49.8667 18.2269 50.1946 18.592 50.486 18.8841C50.5953 18.9936 50.741 19.0666 50.8502 19.2126H50.8867V19.2491C50.3767 19.1031 50.0853 18.592 49.6846 18.2999C48.9197 17.7523 48.0455 16.9126 47.5719 16.1095C47.3534 15.6714 47.1348 15.2333 46.9163 14.7587C46.9163 14.7587 46.9163 14.7587 46.9163 14.7222C46.807 14.8682 46.8434 14.9777 46.807 15.1602C46.5884 15.9999 46.7706 16.9126 46.042 17.2047C45.2043 17.5333 44.585 16.6571 44.33 16.2555C43.4922 14.9047 43.2737 12.6412 43.8565 10.7793C44.0022 10.3777 44.0022 9.8666 44.2208 9.57453C44.1843 9.28247 43.9294 9.20945 43.8201 9.02691C43.6015 8.73485 43.383 8.36977 43.2008 8.00469C42.873 7.34755 42.618 6.54437 42.363 5.81422C42.2538 5.52215 42.2173 5.23009 42.1081 4.97453C41.9259 4.53644 41.5617 4.13485 41.3067 3.76977C40.906 3.22215 39.8132 2.19993 40.2504 1.1412C40.9424 -0.538165 43.3101 0.739612 44.2572 1.32374C44.5122 1.46977 44.7671 1.76183 45.0221 1.87136C45.4228 1.90787 45.8235 1.90787 46.2242 1.94437C46.9891 2.12691 47.7176 2.27295 48.3004 2.60152C51.1052 4.24437 52.9265 5.92374 54.6021 8.69834C54.9299 9.28247 55.1485 9.9031 55.4035 10.5602C55.8041 11.5095 56.2777 12.4952 56.7512 13.4079C56.9698 13.846 57.1155 14.3206 57.4069 14.6491C57.5526 14.7952 57.844 14.8682 58.0261 14.9412C58.5725 15.2333 59.2282 15.4158 59.7381 15.7809C60.6488 16.365 61.5594 17.0587 62.3972 17.7888C62.725 18.0444 62.9072 18.446 63.1986 18.738C63.1986 18.7745 63.1986 18.8475 63.1986 18.8841C62.9436 18.9571 62.6886 19.0301 62.4336 19.1031C61.8508 19.2491 61.3773 19.2126 60.7945 19.3587C60.4666 19.4317 60.0295 19.5777 59.7017 19.6142C59.7017 19.6142 59.7017 19.6142 59.7381 19.6507C59.9567 20.2349 61.0859 20.746 61.5958 21.111C62.2151 21.5491 62.8343 22.1333 63.3078 22.7539C63.4535 22.8999 63.6357 23.0825 63.7814 23.2285C63.8907 23.3745 63.9271 23.5936 64.0364 23.7396V23.7761C63.8178 23.7031 63.7085 23.4841 63.5264 23.3745C63.1621 23.119 62.7979 22.8269 62.4336 22.6079C61.8144 22.2063 61.1223 21.9872 60.4666 21.6222C60.1024 21.4031 59.7745 21.1476 59.4467 20.8555C59.1553 20.6364 58.7911 20.1983 58.5725 19.8698C58.4632 19.6872 58.4268 19.4682 58.3175 19.3587C58.3539 19.0666 58.7546 19.0666 58.9732 18.9571C59.8474 18.4095 60.8309 18.2999 62.1422 18.3364ZM45.5685 4.20787C45.3135 4.20787 45.1314 4.24437 44.9129 4.28088C44.9129 4.28088 44.9129 4.28088 44.9129 4.31739H44.9493C45.095 4.57295 45.3135 4.75549 45.4592 4.97453C45.5685 5.23009 45.7142 5.48564 45.8235 5.7412L45.8599 5.70469C46.0785 5.55866 46.1878 5.3031 46.1878 4.90152C46.1149 4.79199 46.0785 4.68247 46.0056 4.57295C45.8963 4.39041 45.7142 4.31739 45.5685 4.20787Z" fill="white"/>
<path fill-rule="evenodd" clip-rule="evenodd" d="M28.23 30.5301V29.1063H34.0945C34.1674 29.1063 34.2402 29.1063 34.3131 29.1063C34.7138 29.0698 35.0416 28.9603 35.2237 28.8142C35.4423 28.6682 35.5151 28.4492 35.5151 28.3031V27.0619C35.5151 26.9158 35.4787 26.8063 35.3694 26.6603C35.1509 26.4047 34.8959 26.2952 34.2038 26.2222C34.1309 26.2222 34.0581 26.2222 33.9852 26.2222H31.7997C31.5811 26.2222 31.399 26.2222 31.1805 26.2222C29.3592 26.0396 28.3028 25.1999 28.3028 24.2507V23.0095C28.3028 21.9142 28.8492 21.2936 30.1241 20.892C30.5248 20.7825 30.9619 20.7095 31.8361 20.7095H37.8099V22.1333H31.654C31.5811 22.1333 31.5083 22.1333 31.4354 22.1333C30.6705 22.2063 30.452 22.3158 30.3791 22.7539C30.3791 22.8269 30.3791 22.8634 30.3791 22.9365V23.8857C30.3791 23.9587 30.3791 24.0317 30.3791 24.0682C30.4884 24.6523 30.8891 24.9079 31.7268 24.9079H34.2767C34.8959 24.9079 35.5516 25.0174 36.0979 25.1999C37.0814 25.565 37.5914 26.1492 37.5914 26.7698V28.3396C37.5914 29.1063 37.1543 29.6539 36.2436 30.092C35.6973 30.3476 35.0052 30.4936 34.2767 30.4936H28.23V30.5301ZM50.8868 28.0476C50.8868 29.5079 51.9431 30.3111 54.1651 30.4936C54.3472 30.4936 54.5658 30.5301 54.7843 30.5301H60.321V29.1063H54.7479C53.5094 29.1063 53.0359 28.8142 53.0359 28.0476V20.7095H50.9232V28.0476H50.8868ZM38.9756 28.1206C38.9756 29.2888 39.6312 30.019 40.979 30.3841C41.4161 30.5301 41.8532 30.5666 42.2175 30.5666H44.4759L46.1879 30.4571L47.8634 31.9539H50.3404L48.2277 30.0555C49.1019 29.6904 49.5026 29.1428 49.5026 28.0841V23.0825C49.5026 21.8047 48.592 21.0015 46.8071 20.7825C46.5885 20.746 46.4064 20.746 46.2243 20.746H42.2539C42.0718 20.746 41.8532 20.746 41.6711 20.7825C39.8862 21.038 38.9756 21.8047 38.9756 23.0825V28.1206ZM41.2704 27.9746V23.192C41.2704 22.5714 41.8896 22.1333 42.8003 22.1333H46.0057C46.8071 22.1333 47.3535 22.4253 47.4992 23.0095C47.4992 23.0825 47.4992 23.1555 47.4992 23.192V28.0476C47.4992 28.1206 47.4992 28.1936 47.4992 28.2666C47.4263 28.5587 47.2442 28.7777 46.9528 28.9238L45.4229 27.5365H42.9824L44.7673 29.1428H42.8367C41.9989 29.1428 41.4525 28.8142 41.3432 28.2301C41.3068 28.1206 41.2704 28.0841 41.2704 27.9746ZM61.2317 30.5301V29.3619H60.831V29.1063H61.9966V29.3619H61.5595V30.5301H61.2317ZM63.5994 30.5301V29.4714L63.1987 30.5301H62.9801L62.5794 29.4714V30.5301H62.288V29.1063H62.7251L63.0894 30.092L63.4537 29.1063H63.8908V30.5301H63.5994Z" fill="white"/>
</g>
<defs>
<clipPath id="clip0_113_566">
<rect width="64" height="40.8889" fill="white" transform="translate(0 0.155273)"/>
</clipPath>
</defs>
</svg>
