<svg width="209" height="47" viewBox="0 0 209 47" fill="none" xmlns="http://www.w3.org/2000/svg">
<path d="M89.7227 22.0057H105.808V25.9553H89.7227V22.0057ZM89.7227 18.039H105.808V14.0894H89.7227V18.039ZM89.7227 33.8818H105.808V29.9322H89.7227V33.8818ZM72.2419 17.9979H77.7747V33.8818H81.9774V17.9979H87.5102V14.0791H72.2419V17.9979ZM47.2996 33.8818H51.5022V14.0757H47.2996V33.8818ZM65.7208 24.7037L53.8207 14.0757V33.8818H58.0233V23.2812L69.9234 33.8818V14.0757H65.7208V24.7037ZM126.873 14.0757H122.67V33.8818H135.001V29.9322H126.873V14.0757ZM199.61 14.0483L190.832 33.8818H195.377L199.61 24.2968L203.875 33.8818H208.419L199.61 14.0483ZM185.156 33.8818H189.359V14.0757H185.156V33.8818ZM137.32 33.8818H141.522V14.0757H137.32V33.8818ZM112.22 14.0757H108.017V33.8818H120.352V29.9322H112.223V14.0757H112.22Z" fill="white"/>
<path d="M51.0745 45.8501H47.2959V41.1243H51.0643V42.0715H48.2363V43.0187H51.0506V43.9591H48.2363V44.9063H51.0745V45.8467V45.8501ZM58.642 45.8501H58.0641L54.8805 42.646V45.8501H53.9264V41.1243H54.7232L57.7119 44.2019V41.1243H58.6454V45.8501H58.642ZM66.0454 41.1243L64.127 45.8501H63.1866L61.3195 41.1243H62.4035L63.6825 44.6088L65.0298 41.1243H66.0454ZM69.6633 45.8501H68.7229V41.1243H69.6633V45.8501ZM76.9914 44.9098C76.9914 45.5184 76.646 45.8501 76.0373 45.8501H72.6588V44.9098H76.0373V43.9625H73.5308C72.9734 43.9625 72.5904 43.6377 72.5904 43.0222V42.0749C72.5904 41.4731 72.9597 41.1277 73.5308 41.1277H76.7589V42.0749H73.5308V43.0222H76.0373C76.6153 43.0222 76.9914 43.3915 76.9914 43.9625V44.9098ZM80.8658 45.8501H79.9254V41.1243H80.8658V45.8501ZM86.1832 45.9322C84.8359 45.9322 83.7382 44.8345 83.7382 43.4941C83.7382 42.1536 84.8359 41.0491 86.1832 41.0491C87.5305 41.0491 88.6214 42.1639 88.6214 43.4941C88.6214 44.8243 87.5066 45.9322 86.1832 45.9322ZM86.1832 41.9895C85.3625 41.9895 84.6786 42.6734 84.6786 43.4941C84.6786 44.3148 85.3625 44.9918 86.1832 44.9918C87.0039 44.9918 87.6741 44.3011 87.6741 43.4941C87.6741 42.687 87.0039 41.9895 86.1832 41.9895ZM96.2128 45.8501H95.6349L92.4513 42.646V45.8501H91.4972V41.1243H92.294L95.2827 44.2019V41.1243H96.2162V45.8501H96.2128ZM108.181 42.0715H106.287V45.8501H105.353V42.0715H103.459V41.1243H108.185V42.0715H108.181ZM112.928 45.9322C111.58 45.9322 110.483 44.8345 110.483 43.4941C110.483 42.1536 111.58 41.0491 112.928 41.0491C114.275 41.0491 115.366 42.1639 115.366 43.4941C115.366 44.8243 114.251 45.9322 112.928 45.9322ZM112.928 41.9895C112.107 41.9895 111.423 42.6734 111.423 43.4941C111.423 44.3148 112.107 44.9918 112.928 44.9918C113.748 44.9918 114.419 44.3011 114.419 43.4941C114.419 42.687 113.748 41.9895 112.928 41.9895ZM123.904 45.8501H122.957V43.1624L121.671 45.8501H120.481L119.196 43.1624V45.8501H118.242V41.1243H119.244L121.094 44.9098L122.95 41.1243H123.904V45.8501ZM129.229 45.9322C127.881 45.9322 126.784 44.8345 126.784 43.4941C126.784 42.1536 127.881 41.0491 129.229 41.0491C130.576 41.0491 131.667 42.1639 131.667 43.4941C131.667 44.8243 130.552 45.9322 129.229 45.9322ZM129.229 41.9895C128.408 41.9895 127.724 42.6734 127.724 43.4941C127.724 44.3148 128.408 44.9918 129.229 44.9918C130.049 44.9918 130.72 44.3011 130.72 43.4941C130.72 42.687 130.049 41.9895 129.229 41.9895ZM139.265 45.8501H137.843L135.63 43.9625H135.487V45.8501H134.539V41.1243H138.15C138.67 41.1243 139.104 41.5449 139.104 42.0715V43.0187C139.104 43.6514 138.78 43.9591 138.15 43.9591H136.998L139.262 45.8467L139.265 45.8501ZM138.15 43.0598V42.0749H135.487V43.0598H138.15ZM146.689 45.8501H145.266L143.054 43.9625H142.91V45.8501H141.963V41.1243H145.574C146.094 41.1243 146.528 41.5449 146.528 42.0715V43.0187C146.528 43.6514 146.203 43.9591 145.574 43.9591H144.422L146.686 45.8467L146.689 45.8501ZM145.574 43.0598V42.0749H142.91V43.0598H145.574ZM151.699 45.9356C150.351 45.9356 149.254 44.8379 149.254 43.4975C149.254 42.157 150.351 41.0525 151.699 41.0525C153.046 41.0525 154.137 42.1673 154.137 43.4975C154.137 44.8277 153.022 45.9356 151.699 45.9356ZM151.699 41.9929C150.878 41.9929 150.194 42.6768 150.194 43.4975C150.194 44.3182 150.878 44.9952 151.699 44.9952C152.519 44.9952 153.19 44.3045 153.19 43.4975C153.19 42.6905 152.519 41.9929 151.699 41.9929ZM163.855 41.1277L162.05 45.8536H161.072L160.08 42.8443L159.058 45.8536H158.035L156.305 41.1277H157.382L158.572 44.5575L159.724 41.1277H160.484L161.561 44.5575L162.816 41.1277H163.862H163.855ZM165.938 46.4999L165.818 46.2981C166.03 46.1989 166.17 46.0416 166.208 45.8707C165.883 45.8707 165.695 45.5834 165.695 45.3064C165.695 44.9234 165.951 44.643 166.358 44.643C166.69 44.643 167.005 44.8824 167.005 45.3269C167.005 45.8912 166.642 46.3426 165.938 46.4999ZM178.894 42.0749H177V45.8536H176.066V42.0749H174.172V41.1277H178.898V42.0749H178.894ZM183.641 45.9356C182.294 45.9356 181.196 44.8379 181.196 43.4975C181.196 42.157 182.294 41.0525 183.641 41.0525C184.988 41.0525 186.079 42.1673 186.079 43.4975C186.079 44.8277 184.964 45.9356 183.641 45.9356ZM183.641 41.9929C182.82 41.9929 182.136 42.6768 182.136 43.4975C182.136 44.3182 182.82 44.9952 183.641 44.9952C184.462 44.9952 185.132 44.3045 185.132 43.4975C185.132 42.6905 184.462 41.9929 183.641 41.9929ZM193.677 44.9132C193.677 45.5458 193.363 45.8536 192.737 45.8536H188.951V41.1277H192.737C193.257 41.1277 193.677 41.5552 193.677 42.0749V44.9132ZM192.737 44.9132V42.0749H189.909V44.9132H192.737ZM201.306 45.8536H200.359V43.966H197.531V45.8536H196.591V42.0749C196.591 41.4868 196.974 41.1277 197.531 41.1277H200.359C200.91 41.1277 201.306 41.5415 201.306 42.0749V45.8536ZM200.359 43.0256V42.0784H197.531V43.0256H200.359ZM208.416 41.1311L206.511 44.2088V45.857H205.564V44.2088L203.69 41.1311H204.781L206.053 43.2444L207.356 41.1311H208.416Z" fill="#DB80EB"/>
<path d="M175.311 13.949H164.444V16.0931C166.225 18.2337 167.299 20.983 167.299 23.9786C167.299 26.9741 166.225 29.7269 164.444 31.8675V34.0116H171.437V29.0703H175.311C179.507 29.1319 182.964 25.8593 183.176 21.9268C183.405 17.7037 179.832 13.8977 175.311 13.949ZM176.409 21.7251C176.33 22.7715 175.472 23.6503 174.36 23.7666H171.361V19.3451H174.36C175.598 19.4784 176.494 20.5659 176.409 21.7251Z" fill="url(#paint0_linear_829_3)"/>
<path d="M164.447 17.5669C162.388 14.5235 158.904 12.5231 154.954 12.5231C148.628 12.5231 143.499 17.6524 143.499 23.9786C143.499 30.3048 148.628 35.4342 154.954 35.4342C158.904 35.4342 162.388 33.4337 164.447 30.3903C165.685 28.5608 166.41 26.3518 166.41 23.9786C166.41 21.6054 165.685 19.3964 164.447 17.5669ZM154.954 28.0308C152.718 28.0308 150.902 26.2184 150.902 23.9786C150.902 21.7388 152.718 19.9299 154.954 19.9299C157.19 19.9299 159.006 21.7422 159.006 23.9786C159.006 26.215 157.19 28.0308 154.954 28.0308Z" fill="url(#paint1_linear_829_3)"/>
<path d="M33.8605 17.1909V28.92C33.8605 38.2691 26.2794 45.8503 16.9303 45.8503C7.58118 45.8503 0 38.2691 0 28.92V19.4102H6.4835C7.57776 19.4102 8.46343 20.2959 8.46343 21.3901V29.0602C8.46343 33.6835 12.1668 37.4416 16.7696 37.5271C21.5159 37.616 25.404 33.6185 25.404 28.8687V17.0541C25.404 13.6756 23.424 10.7587 20.5584 9.40113C20.0763 9.17202 19.7548 8.70012 19.7548 8.16667V0.5C27.76 1.84389 33.864 8.80271 33.864 17.1909H33.8605ZM1.84657 13.7816L12.0198 14.7425C13.2953 14.8622 14.3622 13.7953 14.2425 12.5198L13.2816 2.34657C13.1824 1.30018 12.3036 0.5 11.2504 0.5H0V11.7504C0 12.8036 0.800178 13.6824 1.84657 13.7816Z" fill="url(#paint2_linear_829_3)"/>
<defs>
<linearGradient id="paint0_linear_829_3" x1="161.752" y1="31.317" x2="178.881" y2="14.1884" gradientUnits="userSpaceOnUse">
<stop stop-color="#5934DF"/>
<stop offset="1" stop-color="#DB80EB"/>
</linearGradient>
<linearGradient id="paint1_linear_829_3" x1="146.85" y1="32.0796" x2="163.052" y2="15.8811" gradientUnits="userSpaceOnUse">
<stop stop-color="#5934DF"/>
<stop offset="1" stop-color="#DB80EB"/>
</linearGradient>
<linearGradient id="paint2_linear_829_3" x1="-0.393251" y1="35.5403" x2="29.4117" y2="5.73535" gradientUnits="userSpaceOnUse">
<stop stop-color="#5934DF"/>
<stop offset="1" stop-color="#DB80EB"/>
</linearGradient>
</defs>
</svg>
