<svg width="80" height="81" viewBox="0 0 80 81" fill="none" xmlns="http://www.w3.org/2000/svg">
<g clip-path="url(#clip0_858_3062)">
<path fill-rule="evenodd" clip-rule="evenodd" d="M57.7623 34.1056C57.5607 34.221 57.3324 34.2818 57.1001 34.2819H22.8953C22.663 34.2818 22.4347 34.221 22.2331 34.1056C22.0315 33.9901 21.8636 33.824 21.746 33.6236C21.6284 33.4233 21.5652 33.1957 21.5626 32.9634C21.56 32.7311 21.6182 32.5022 21.7313 32.2993L38.8337 1.63303C38.9595 1.43877 39.1319 1.27907 39.3352 1.1685C39.5385 1.05793 39.7663 1 39.9977 1C40.2291 1 40.4569 1.05793 40.6602 1.1685C40.8635 1.27907 41.0359 1.43877 41.1617 1.63303L58.2641 32.2993C58.3773 32.5022 58.4354 32.7311 58.4328 32.9634C58.4303 33.1957 58.367 33.4233 58.2494 33.6236C58.1318 33.824 57.9639 33.9901 57.7623 34.1056ZM54.8295 31.6153L39.9977 5.01965L25.1659 31.6153H54.8295ZM11.9701 56.2906C12.088 56.4909 12.2562 56.657 12.458 56.7723C12.6599 56.8876 12.8883 56.9481 13.1208 56.9479H66.6587C66.891 56.9478 67.1193 56.887 67.3209 56.7715C67.5224 56.6561 67.6904 56.4899 67.808 56.2896C67.9256 56.0893 67.9888 55.8617 67.9914 55.6294C67.994 55.3971 67.9358 55.1681 67.8227 54.9652L58.1562 37.6321C58.0406 37.4249 57.8718 37.2522 57.6671 37.1319C57.4625 37.0117 57.2295 36.9482 56.9922 36.9482H22.7926C22.5553 36.9482 22.3223 37.0117 22.1177 37.1319C21.9131 37.2522 21.7442 37.4249 21.6287 37.6321L11.9621 54.9652C11.8478 55.1677 11.7884 55.3965 11.7898 55.629C11.7912 55.8614 11.8534 56.0895 11.9701 56.2906ZM23.57 39.6148H56.2095L64.3921 54.2812H15.3914L23.57 39.6148ZM67.8943 60.2324C67.7738 60.0431 67.6075 59.8873 67.4108 59.7794C67.2141 59.6715 66.9933 59.615 66.769 59.6151H13.231C13.0067 59.615 12.7859 59.6715 12.5892 59.7794C12.3925 59.8873 12.2262 60.0431 12.1057 60.2324L0.208554 78.8988C0.0802183 79.1004 0.0084288 79.3328 0.000697942 79.5716C-0.00703292 79.8105 0.0495792 80.0471 0.16461 80.2565C0.279641 80.466 0.448862 80.6407 0.654563 80.7624C0.860265 80.8841 1.09489 80.9482 1.33387 80.9481H78.6661C78.9051 80.9482 79.1397 80.8841 79.3454 80.7624C79.5511 80.6407 79.7204 80.466 79.8354 80.2565C79.9504 80.0471 80.007 79.8105 79.9993 79.5716C79.9916 79.3328 79.9198 79.1004 79.7915 78.8988L67.8943 60.2324ZM3.7645 78.2815L13.963 62.2817H66.037L76.2355 78.2815H3.7645Z" fill="white"/>
</g>
<defs>
<clipPath id="clip0_858_3062">
<rect width="80" height="80" fill="white" transform="translate(0 0.799805)"/>
</clipPath>
</defs>
</svg>
