<svg width="29" height="30" viewBox="0 0 29 30" fill="none" xmlns="http://www.w3.org/2000/svg">
<g clip-path="url(#clip0_858_4149)">
<g clip-path="url(#clip1_858_4149)">
<g clip-path="url(#clip2_858_4149)">
<path d="M28.1928 14.8039C28.1928 15.9956 26.7287 16.9778 26.4354 18.0764C26.1328 19.2123 26.8986 20.7951 26.3237 21.7889C25.7395 22.7991 23.9821 22.9202 23.1628 23.7395C22.3435 24.5588 22.2225 26.3161 21.2123 26.9003C20.2184 27.4752 18.6357 26.7095 17.4998 27.012C16.4012 27.3053 15.419 28.7694 14.2272 28.7694C13.0355 28.7694 12.0533 27.3053 10.9546 27.012C9.81879 26.7095 8.23603 27.4752 7.24215 26.9003C6.23198 26.3161 6.11094 24.5588 5.29163 23.7395C4.47232 22.9202 2.71499 22.7991 2.13077 21.7889C1.55586 20.7951 2.32163 19.2123 2.01905 18.0764C1.72577 16.9778 0.261719 15.9956 0.261719 14.8039C0.261719 13.6121 1.72577 12.6299 2.01905 11.5313C2.32163 10.3954 1.55586 8.81269 2.13077 7.81881C2.71499 6.80864 4.47232 6.68761 5.29163 5.8683C6.11094 5.04899 6.23198 3.29166 7.24215 2.70743C8.23603 2.13252 9.81879 2.8983 10.9546 2.59571C12.0533 2.30243 13.0355 0.838379 14.2272 0.838379C15.419 0.838379 16.4012 2.30243 17.4998 2.59571C18.6357 2.8983 20.2184 2.13252 21.2123 2.70743C22.2225 3.29166 22.3435 5.04899 23.1628 5.8683C23.9821 6.68761 25.7395 6.80864 26.3237 7.81881C26.8986 8.81269 26.1328 10.3954 26.4354 11.5313C26.7287 12.6299 28.1928 13.6121 28.1928 14.8039Z" fill="url(#paint0_linear_858_4149)"/>
<path d="M18.2629 10.6425L12.9467 15.9587L10.1908 13.2051C9.59263 12.6069 8.62203 12.6069 8.02384 13.2051C7.42565 13.8033 7.42565 14.7739 8.02384 15.3721L11.89 19.2382C12.4719 19.8201 13.4169 19.8201 13.9988 19.2382L20.4275 12.8094C21.0257 12.2112 21.0257 11.2406 20.4275 10.6425C19.8294 10.0443 18.8611 10.0443 18.2629 10.6425Z" fill="white"/>
</g>
</g>
</g>
<defs>
<linearGradient id="paint0_linear_858_4149" x1="14.2273" y1="28.7694" x2="14.2273" y2="0.838379" gradientUnits="userSpaceOnUse">
<stop stop-color="#5934DF"/>
<stop offset="1" stop-color="#DB80EB"/>
</linearGradient>
<clipPath id="clip0_858_4149">
<rect width="29" height="29" fill="white" transform="translate(0 0.390137)"/>
</clipPath>
<clipPath id="clip1_858_4149">
<rect width="29" height="29" fill="white" transform="translate(0 0.390137)"/>
</clipPath>
<clipPath id="clip2_858_4149">
<rect width="29" height="29" fill="white" transform="translate(0 0.390137)"/>
</clipPath>
</defs>
</svg>
