<?xml version="1.0" encoding="utf-8"?>
<!-- Generator: Adobe Illustrator 27.0.0, SVG Export Plug-In . SVG Version: 6.00 Build 0)  -->
<svg version="1.1" id="Nodejs" xmlns="http://www.w3.org/2000/svg" xmlns:xlink="http://www.w3.org/1999/xlink" x="0px" y="0px"
	 viewBox="0 0 111.4 31.5" style="enable-background:new 0 0 111.4 31.5;" xml:space="preserve">
<style type="text/css">
	.st0{fill:#83CD29;}
	.st1{fill:#404137;}
</style>
<path class="st0" d="M102.5,11.2c-0.3,0-0.5,0.1-0.8,0.2l-7.4,4.3c-0.5,0.3-0.8,0.8-0.8,1.3v8.5c0,0.6,0.3,1.1,0.8,1.3l1.9,1.1
	c0.9,0.5,1.3,0.5,1.7,0.5c1.4,0,2.2-0.8,2.2-2.3v-8.4c0-0.1-0.1-0.2-0.2-0.2H99c-0.1,0-0.2,0.1-0.2,0.2v8.4c0,0.6-0.7,1.3-1.8,0.8
	l-2-1.2c-0.1,0-0.1-0.1-0.1-0.2V17c0-0.1,0.1-0.2,0.1-0.2l7.4-4.2c0.1,0,0.2,0,0.2,0l7.4,4.2c0.1,0,0.1,0.1,0.1,0.2v8.5
	c0,0.1,0,0.2-0.1,0.2l-7.4,4.2c-0.1,0-0.2,0-0.2,0l-1.9-1.1c-0.1,0-0.1,0-0.2,0c-0.5,0.3-0.6,0.3-1.1,0.5c-0.1,0-0.3,0.1,0.1,0.3
	l2.5,1.5c0.2,0.1,0.5,0.2,0.8,0.2c0.3,0,0.5-0.1,0.8-0.2l7.4-4.2c0.5-0.3,0.8-0.8,0.8-1.3V17c0-0.6-0.3-1.1-0.8-1.3l-7.4-4.3
	C103,11.2,102.8,11.2,102.5,11.2L102.5,11.2z M104.5,17.2c-2.1,0-3.4,0.9-3.4,2.4c0,1.6,1.2,2.1,3.3,2.3c2.4,0.2,2.6,0.6,2.6,1.1
	c0,0.8-0.7,1.2-2.2,1.2c-2,0-2.4-0.5-2.5-1.5c0-0.1-0.1-0.2-0.2-0.2h-1c-0.1,0-0.2,0.1-0.2,0.2c0,1.2,0.7,2.7,3.9,2.7
	c2.3,0,3.7-0.9,3.7-2.5c0-1.6-1.1-2-3.4-2.3c-2.3-0.3-2.5-0.5-2.5-1c0-0.4,0.2-1,1.9-1c1.5,0,2.1,0.3,2.3,1.3c0,0.1,0.1,0.2,0.2,0.2
	h1c0.1,0,0.1,0,0.2-0.1c0,0,0.1-0.1,0.1-0.2C108,18.1,106.8,17.2,104.5,17.2L104.5,17.2z"/>
<path class="st1" d="M59.1,0c-0.1,0-0.2,0-0.2,0.1c-0.1,0.1-0.2,0.2-0.2,0.4v12c0,0.1-0.1,0.2-0.2,0.3c-0.1,0.1-0.2,0.1-0.3,0
	l-2-1.1c-0.3-0.2-0.6-0.2-0.9,0l-7.8,4.5c-0.3,0.2-0.5,0.5-0.5,0.8v9c0,0.3,0.2,0.6,0.5,0.8l7.8,4.5c0.3,0.2,0.6,0.2,0.9,0l7.8-4.5
	c0.3-0.2,0.5-0.5,0.5-0.8V3.5c0-0.3-0.2-0.7-0.5-0.8L59.3,0C59.2,0,59.1,0,59.1,0L59.1,0z M8.7,11.3c-0.1,0-0.3,0-0.4,0.1l-7.8,4.5
	C0.2,16.1,0,16.4,0,16.7l0,12.1c0,0.2,0.1,0.3,0.2,0.4c0.1,0.1,0.3,0.1,0.5,0l4.6-2.7c0.3-0.2,0.5-0.5,0.5-0.8v-5.7
	c0-0.3,0.2-0.6,0.5-0.8l2-1.1C8.4,18.1,8.6,18,8.8,18c0.2,0,0.3,0,0.5,0.1l2,1.1c0.3,0.2,0.5,0.5,0.5,0.8v5.7c0,0.3,0.2,0.6,0.5,0.8
	l4.6,2.7c0.1,0.1,0.3,0.1,0.5,0c0.1-0.1,0.2-0.2,0.2-0.4l0-12.1c0-0.3-0.2-0.6-0.5-0.8l-7.8-4.5C9.1,11.3,9,11.3,8.7,11.3L8.7,11.3
	L8.7,11.3z M79,11.4c-0.2,0-0.3,0-0.5,0.1L70.7,16c-0.3,0.2-0.5,0.5-0.5,0.8v9c0,0.3,0.2,0.6,0.5,0.8l7.8,4.4c0.3,0.2,0.6,0.2,0.9,0
	l4.7-2.6c0.1-0.1,0.3-0.2,0.3-0.4c0-0.2-0.1-0.3-0.2-0.4l-7.9-4.5c-0.1-0.1-0.3-0.3-0.3-0.4v-2.8c0-0.2,0.1-0.3,0.3-0.4l2.4-1.4
	c0.1-0.1,0.3-0.1,0.5,0l2.4,1.4c0.1,0.1,0.2,0.2,0.2,0.4v2.2c0,0.2,0.1,0.3,0.2,0.4c0.1,0.1,0.3,0.1,0.5,0l4.7-2.7
	c0.3-0.2,0.5-0.5,0.5-0.8v-2.2c0-0.3-0.2-0.6-0.5-0.8l-7.8-4.5C79.4,11.4,79.2,11.4,79,11.4L79,11.4z M55.6,18.1c0,0,0.1,0,0.1,0
	l2.7,1.6c0.1,0,0.1,0.1,0.1,0.2V23c0,0.1-0.1,0.2-0.1,0.2l-2.7,1.6c-0.1,0-0.2,0-0.2,0l-2.7-1.6c-0.1,0-0.1-0.1-0.1-0.2v-3.1
	c0-0.1,0.1-0.2,0.1-0.2l2.7-1.6C55.6,18.1,55.6,18.1,55.6,18.1L55.6,18.1L55.6,18.1z"/>
<path class="st0" d="M32.2,11.3c-0.2,0-0.3,0-0.5,0.1L23.9,16c-0.3,0.2-0.5,0.5-0.5,0.8v9c0,0.3,0.2,0.6,0.5,0.8l7.8,4.5
	c0.3,0.2,0.6,0.2,0.9,0l7.8-4.5c0.3-0.2,0.5-0.5,0.5-0.8v-9c0-0.3-0.2-0.7-0.5-0.8l-7.8-4.5C32.6,11.4,32.4,11.3,32.2,11.3
	L32.2,11.3z M79,19.4C79,19.4,79,19.4,79,19.4l-1.6,0.9c-0.1,0-0.1,0.1-0.1,0.2v1.7c0,0.1,0,0.1,0.1,0.2l1.5,0.9c0.1,0,0.1,0,0.2,0
	l1.5-0.9c0.1,0,0.1-0.1,0.1-0.2v-1.7c0-0.1,0-0.1-0.1-0.2L79,19.4C79.1,19.4,79,19.4,79,19.4L79,19.4z"/>
</svg>
