<svg width="70" height="10" viewBox="0 0 70 10" fill="none" xmlns="http://www.w3.org/2000/svg">
<g clip-path="url(#clip0_113_587)">
<path d="M30.2225 5.97355H34.8512L32.4012 2.03605L27.9125 9.14981H25.8738L31.325 0.601055C31.5612 0.259805 31.955 0.0498047 32.3925 0.0498047C32.8213 0.0498047 33.215 0.251055 33.4425 0.592305L38.92 9.14981H36.8812L35.9188 7.55731H31.2375L30.2225 5.97355ZM51.4412 7.55731V0.137305H49.7087V8.28356C49.7087 8.50231 49.7962 8.72106 49.9625 8.88731C50.1287 9.05356 50.3475 9.14981 50.5925 9.14981H58.5025L59.5262 7.55731H51.4412ZM22.7588 6.2273C24.4387 6.2273 25.8125 4.87105 25.8125 3.1823C25.8125 1.5023 24.4387 0.137305 22.7588 0.137305H15.1725V9.14981H16.905V1.7298H22.645C23.45 1.7298 24.0975 2.38605 24.0975 3.19106C24.0975 3.99606 23.45 4.6523 22.645 4.6523L17.7537 4.64356L22.925 9.14981H25.445L21.9625 6.2273H22.7588ZM4.50625 9.14981C2.02125 9.14981 0 7.13731 0 4.64356C0 2.15855 2.02125 0.137305 4.50625 0.137305H9.7475C12.2325 0.137305 14.2537 2.15855 14.2537 4.64356C14.2537 7.12856 12.2325 9.14981 9.7475 9.14981H4.50625ZM9.63375 7.55731C11.2437 7.55731 12.5475 6.25356 12.5475 4.64356C12.5475 3.03356 11.2437 1.72105 9.63375 1.72105H4.62C3.01 1.72105 1.70625 3.03356 1.70625 4.64356C1.70625 6.25356 3.01 7.55731 4.62 7.55731H9.63375ZM42.5512 9.14981C40.0662 9.14981 38.045 7.13731 38.045 4.64356C38.045 2.15855 40.0662 0.137305 42.5512 0.137305H48.7725L47.7575 1.7298H42.665C41.055 1.7298 39.7425 3.0423 39.7425 4.6523C39.7425 6.2623 41.055 7.56606 42.665 7.56606H48.9125L47.8975 9.14981H42.5512ZM63.7525 7.55731C62.4225 7.55731 61.2938 6.6648 60.9437 5.43106H68.355L69.3788 3.83855H60.9437C61.285 2.61355 62.4225 1.7123 63.7525 1.7123H68.8363L69.86 0.137305H63.63C61.145 0.137305 59.1237 2.15855 59.1237 4.64356C59.1237 7.12856 61.145 9.14981 63.63 9.14981H68.9762L70 7.55731H63.7525Z" fill="white"/>
</g>
<defs>
<clipPath id="clip0_113_587">
<rect width="70" height="9.1" fill="white" transform="translate(0 0.0498047)"/>
</clipPath>
</defs>
</svg>
