<svg xmlns="http://www.w3.org/2000/svg" xmlns:xlink="http://www.w3.org/1999/xlink" version="1.1" id="Layer_1" x="0px" y="0px" viewBox="0 0 111.7 30" style="enable-background:new 0 0 111.7 30;" xml:space="preserve">
<style type="text/css">
	.st0{fill:#ffffff;}
</style>
<path class="st0" d="M48.1,17.1h7.4l-3.9-6.3l-7.2,11.4h-3.2l8.7-13.6c0.4-0.5,1-0.9,1.7-0.9c0.7,0,1.3,0.3,1.7,0.8L62,22.2h-3.2  l-1.5-2.6h-7.5L48.1,17.1z M82,19.6V7.8h-2.8v13c0,0.4,0.2,0.7,0.4,1c0.3,0.3,0.6,0.5,1,0.5h12.6l1.7-2.6H82z M36.3,17.5  c2.7,0,4.8-2.2,4.8-4.8c0-2.7-2.2-4.8-4.8-4.8H24.3v14.4H27V10.3h9.1c1.3,0,2.3,1,2.3,2.3c0,1.3-1,2.3-2.3,2.3h-7.8l8.2,7.2h4  L35,17.5L36.3,17.5z M7.2,22.2c-4,0-7.2-3.2-7.2-7.2c0-4,3.2-7.2,7.2-7.2h8.4c4,0,7.2,3.2,7.2,7.2c0,4-3.2,7.2-7.2,7.2H7.2z   M15.4,19.6c2.6,0,4.7-2.1,4.7-4.7c0-2.6-2.1-4.7-4.7-4.7h-8c-2.6,0-4.7,2.1-4.7,4.7c0,2.6,2.1,4.7,4.7,4.7H15.4z M67.8,22.2  c-4,0-7.2-3.2-7.2-7.2c0-4,3.2-7.2,7.2-7.2h9.9l-1.7,2.6H68c-2.6,0-4.7,2.1-4.7,4.7c0,2.6,2.1,4.7,4.7,4.7h9.9l-1.7,2.6h-8.4  L67.8,22.2z M101.6,19.6c-2.1,0-3.9-1.4-4.4-3.4H109l1.7-2.6H97.3c0.5-2,2.3-3.4,4.4-3.4h8.1l1.7-2.6h-9.9c-4,0-7.2,3.2-7.2,7.2  c0,4,3.2,7.2,7.2,7.2h8.5l1.7-2.6h-10.1L101.6,19.6z" fill="#000000"/>
</svg>