<svg width="36" height="37" viewBox="0 0 36 37" fill="none" xmlns="http://www.w3.org/2000/svg">
<g clip-path="url(#clip0_105_1746)">
<path d="M36 18.48C36 27.1785 27.9405 34.23 18 34.23C16.2171 34.2339 14.4415 34.0024 12.7192 33.5415C11.4052 34.2075 8.388 35.4855 3.312 36.318C2.862 36.39 2.52 35.922 2.69775 35.5035C3.49425 33.6225 4.21425 31.116 4.43025 28.83C1.674 26.0625 0 22.44 0 18.48C0 9.78148 8.0595 2.72998 18 2.72998C27.9405 2.72998 36 9.78148 36 18.48ZM11.25 18.48C11.25 17.8832 11.0129 17.3109 10.591 16.889C10.169 16.467 9.59674 16.23 9 16.23C8.40326 16.23 7.83097 16.467 7.40901 16.889C6.98705 17.3109 6.75 17.8832 6.75 18.48C6.75 19.0767 6.98705 19.649 7.40901 20.071C7.83097 20.4929 8.40326 20.73 9 20.73C9.59674 20.73 10.169 20.4929 10.591 20.071C11.0129 19.649 11.25 19.0767 11.25 18.48ZM20.25 18.48C20.25 17.8832 20.0129 17.3109 19.591 16.889C19.169 16.467 18.5967 16.23 18 16.23C17.4033 16.23 16.831 16.467 16.409 16.889C15.9871 17.3109 15.75 17.8832 15.75 18.48C15.75 19.0767 15.9871 19.649 16.409 20.071C16.831 20.4929 17.4033 20.73 18 20.73C18.5967 20.73 19.169 20.4929 19.591 20.071C20.0129 19.649 20.25 19.0767 20.25 18.48ZM27 20.73C27.5967 20.73 28.169 20.4929 28.591 20.071C29.0129 19.649 29.25 19.0767 29.25 18.48C29.25 17.8832 29.0129 17.3109 28.591 16.889C28.169 16.467 27.5967 16.23 27 16.23C26.4033 16.23 25.831 16.467 25.409 16.889C24.9871 17.3109 24.75 17.8832 24.75 18.48C24.75 19.0767 24.9871 19.649 25.409 20.071C25.831 20.4929 26.4033 20.73 27 20.73Z" fill="white"/>
</g>
<defs>
<clipPath id="clip0_105_1746">
<rect width="36" height="36" fill="white" transform="translate(0 0.47998)"/>
</clipPath>
</defs>
</svg>
