<svg width="36" height="37" viewBox="0 0 36 37" fill="none" xmlns="http://www.w3.org/2000/svg">
<g clip-path="url(#clip0_105_1752)">
<path d="M5.62512 1.60498C5.62512 1.30661 5.74365 1.02046 5.95463 0.809485C6.16561 0.598507 6.45175 0.47998 6.75012 0.47998L29.2501 0.47998C29.5485 0.47998 29.8346 0.598507 30.0456 0.809485C30.2566 1.02046 30.3751 1.30661 30.3751 1.60498C30.3751 2.81548 30.3496 3.96748 30.2986 5.06098C31.1877 5.2082 32.0382 5.53195 32.8002 6.01314C33.5621 6.49432 34.22 7.12321 34.735 7.8627C35.25 8.60219 35.6117 9.43732 35.7988 10.3188C35.9859 11.2004 35.9946 12.1104 35.8244 12.9953C35.6541 13.8803 35.3084 14.7222 34.8077 15.4714C34.3069 16.2206 33.6611 16.8619 32.9085 17.3576C32.1559 17.8532 31.3117 18.1932 30.4256 18.3573C29.5396 18.5215 28.6296 18.5066 27.7494 18.3135C25.9719 22.5097 23.5239 24.5617 21.3751 25.0882V29.9775L24.5814 30.7785C25.0179 30.8865 25.4296 31.0822 25.7896 31.3522L29.9251 34.455C30.114 34.5967 30.2535 34.7942 30.3239 35.0195C30.3944 35.2449 30.3921 35.4867 30.3174 35.7107C30.2427 35.9347 30.0995 36.1296 29.9079 36.2676C29.7164 36.4057 29.4862 36.48 29.2501 36.48H6.75012C6.514 36.48 6.28387 36.4057 6.09232 36.2676C5.90077 36.1296 5.75752 35.9347 5.68285 35.7107C5.60819 35.4867 5.60589 35.2449 5.67629 35.0195C5.7467 34.7942 5.88623 34.5967 6.07512 34.455L10.2106 31.3522C10.5706 31.0822 10.9824 30.8865 11.4189 30.7785L14.6251 29.9775V25.0882C12.4764 24.5617 10.0284 22.5097 8.25087 18.3112C7.37019 18.5054 6.45953 18.5211 5.57268 18.3575C4.68582 18.1938 3.84075 17.8541 3.08737 17.3584C2.334 16.8627 1.68759 16.221 1.18634 15.4713C0.685076 14.7217 0.339127 13.8791 0.168919 12.9935C-0.00128831 12.1079 0.00769643 11.1971 0.195343 10.315C0.38299 9.43294 0.745493 8.5974 1.26145 7.85774C1.7774 7.11809 2.43634 6.48932 3.19934 6.00858C3.96235 5.52783 4.81396 5.20486 5.70387 5.05873C5.65084 3.90825 5.62458 2.75669 5.62512 1.60498ZM5.84787 7.31998C4.67379 7.53481 3.63314 8.20723 2.95484 9.18934C2.27655 10.1714 2.01617 11.3828 2.231 12.5569C2.44582 13.7309 3.11825 14.7716 4.10035 15.4499C5.08246 16.1282 6.29379 16.3886 7.46787 16.1737C6.71862 13.8112 6.14487 10.8952 5.84787 7.31998ZM28.5346 16.1737C29.7087 16.3886 30.92 16.1282 31.9021 15.4499C32.8842 14.7716 33.5567 13.7309 33.7715 12.5569C33.9863 11.3828 33.7259 10.1714 33.0476 9.18934C32.3694 8.20723 31.3287 7.53481 30.1546 7.31998C29.8554 10.8975 29.2816 13.8112 28.5346 16.1737Z" fill="white"/>
</g>
<defs>
<clipPath id="clip0_105_1752">
<rect width="36" height="36" fill="white" transform="translate(0 0.47998)"/>
</clipPath>
</defs>
</svg>
