<svg width="36" height="37" viewBox="0 0 36 37" fill="none" xmlns="http://www.w3.org/2000/svg">
<path d="M6.75 31.98C6.75 31.98 4.5 31.98 4.5 29.73C4.5 27.48 6.75 20.73 18 20.73C29.25 20.73 31.5 27.48 31.5 29.73C31.5 31.98 29.25 31.98 29.25 31.98H6.75ZM18 18.48C19.7902 18.48 21.5071 17.7688 22.773 16.503C24.0388 15.2371 24.75 13.5202 24.75 11.73C24.75 9.93977 24.0388 8.22288 22.773 6.95701C21.5071 5.69114 19.7902 4.97998 18 4.97998C16.2098 4.97998 14.4929 5.69114 13.227 6.95701C11.9612 8.22288 11.25 9.93977 11.25 11.73C11.25 13.5202 11.9612 15.2371 13.227 16.503C14.4929 17.7688 16.2098 18.48 18 18.48Z" fill="white"/>
</svg>
