<svg width="36" height="37" viewBox="0 0 36 37" fill="none" xmlns="http://www.w3.org/2000/svg">
<g clip-path="url(#clip0_105_1749)">
<path d="M15.75 36.4801H20.25V13.9801H31.5C31.8493 13.9801 32.1938 13.8988 32.5062 13.7426C32.8187 13.5864 33.0904 13.3596 33.3 13.0801L35.4937 10.1551C35.6398 9.96039 35.7188 9.72354 35.7188 9.48012C35.7188 9.2367 35.6398 8.99985 35.4937 8.80512L33.3 5.88012C33.0904 5.60068 32.8187 5.37387 32.5062 5.21766C32.1938 5.06145 31.8493 4.98012 31.5 4.98012H20.25V3.66162C20.25 3.06488 20.0129 2.49259 19.591 2.07063C19.169 1.64867 18.5967 1.41162 18 1.41162C17.4033 1.41162 16.831 1.64867 16.409 2.07063C15.9871 2.49259 15.75 3.06488 15.75 3.66162V16.2301H4.5C4.1507 16.2301 3.80619 16.3114 3.49377 16.4677C3.18134 16.6239 2.90958 16.8507 2.7 17.1301L0.50625 20.0551C0.3602 20.2499 0.28125 20.4867 0.28125 20.7301C0.28125 20.9735 0.3602 21.2104 0.50625 21.4051L2.7 24.3301C2.90958 24.6096 3.18134 24.8364 3.49377 24.9926C3.80619 25.1488 4.1507 25.2301 4.5 25.2301H15.75V36.4801Z" fill="white"/>
</g>
<defs>
<clipPath id="clip0_105_1749">
<rect width="36" height="36" fill="white" transform="translate(0 0.47998)"/>
</clipPath>
</defs>
</svg>
