<svg width="70" height="33" viewBox="0 0 70 33" fill="none" xmlns="http://www.w3.org/2000/svg">
<g clip-path="url(#clip0_113_571)">
<path d="M4.35874 26.0648H0.975836V22.6819H4.5539C5.85502 22.6819 6.50558 23.2674 6.50558 24.4384C6.50558 25.4793 5.78996 26.0648 4.35874 26.0648ZM6.83086 22.6169C6.37546 22.2265 5.72491 21.9663 4.87918 21.9663H0V30.1633H0.975836V26.7154H4.61896C5.52974 26.7154 6.24535 26.5202 6.7658 26.0648C7.28625 25.6094 7.54647 25.089 7.54647 24.3083C7.54647 23.5276 7.28625 23.0072 6.83086 22.6169ZM13.1413 28.4719C13.0762 28.7321 12.881 28.9923 12.6859 29.1875C12.2305 29.6429 11.5799 29.8381 10.6691 29.8381C9.88848 29.8381 9.23792 29.6429 8.78253 29.1875C8.32714 28.7321 8.13197 28.2117 8.13197 27.496C8.13197 27.1057 8.19703 26.7804 8.32714 26.5202C8.45725 26.26 8.58736 25.9998 8.84758 25.8046C9.30297 25.4143 9.88848 25.2191 10.7342 25.2191C12.4907 25.2191 13.3364 25.9998 13.3364 27.496C13.2714 27.8864 13.2714 28.2117 13.1413 28.4719ZM13.3364 25.4793C12.7509 24.9589 11.8401 24.6336 10.6691 24.6336C9.5632 24.6336 8.71747 24.8938 8.13197 25.4793C7.61152 25.9998 7.28625 26.6503 7.28625 27.496C7.28625 28.3418 7.54647 29.0574 8.13197 29.5778C8.45725 29.8381 8.78253 30.0332 9.23792 30.1633C9.69331 30.2934 10.1487 30.3585 10.6691 30.3585C11.8401 30.3585 12.7509 30.0983 13.3364 29.5778C13.8569 29.0574 14.1822 28.4068 14.1822 27.5611C14.1822 26.6503 13.8569 25.9347 13.3364 25.4793ZM20.7528 28.6671C20.7528 29.773 19.777 30.2934 17.8253 30.2934C17.2398 30.2934 16.7193 30.2284 16.329 30.1633C15.9387 30.0983 15.6134 29.9682 15.3532 29.773C15.158 29.6429 14.9628 29.4477 14.8978 29.2526C14.7677 29.0574 14.7026 28.7321 14.6375 28.4068H15.5483C15.5483 28.8622 15.6784 29.1875 16.0037 29.3827C16.329 29.6429 16.9796 29.773 17.8253 29.773C19.1915 29.773 19.9071 29.4477 19.9071 28.7321C19.9071 28.3418 19.6468 28.0816 19.1915 27.8864C19.1264 27.8864 18.5409 27.7563 17.5 27.6262C16.4591 27.496 15.8736 27.3659 15.6134 27.3009C15.0929 27.1057 14.7677 26.7154 14.7677 26.1299C14.7677 25.6094 15.0279 25.154 15.4833 24.8938C15.7435 24.7637 16.0037 24.6987 16.3941 24.6336C16.7844 24.5685 17.1747 24.5685 17.6301 24.5685C19.5167 24.5685 20.4926 25.154 20.4926 26.325H19.6468C19.6468 25.4793 18.9963 25.089 17.6301 25.089C16.9796 25.089 16.4591 25.154 16.1338 25.3492C15.8085 25.5444 15.6134 25.8697 15.6134 26.1949C15.6134 26.5202 15.8086 26.7804 16.2639 26.9105C16.5242 26.9756 17.1097 27.1057 18.0855 27.1708C18.9312 27.2358 19.5167 27.3659 19.842 27.496C20.4275 27.7563 20.7528 28.1466 20.7528 28.6671ZM24.3309 30.1633L23.9405 30.2284H23.6803C23.0948 30.2284 22.6394 30.1633 22.3792 29.9682C22.119 29.773 21.9888 29.5128 21.9888 29.0574V25.3492H20.8829V24.8288H21.9888V23.0723H22.8346V24.8288H24.2658V25.4143H22.8346V29.0574C22.8346 29.3176 22.8996 29.5128 23.0297 29.6429C23.1599 29.773 23.4201 29.773 23.8104 29.773C23.8755 29.773 23.9405 29.773 24.0056 29.773C24.0706 29.773 24.1357 29.773 24.2658 29.7079L24.3309 30.1633ZM30.1208 28.9273C29.8606 29.1224 29.6004 29.2526 29.3401 29.3827C29.0149 29.5128 28.6896 29.5128 28.3643 29.5128C26.6078 29.5128 25.7621 28.7972 25.7621 27.3659C25.7621 26.7154 25.9572 26.1949 26.4126 25.8046C26.868 25.4143 27.5186 25.2191 28.2993 25.2191C29.145 25.2191 29.7305 25.4143 30.1859 25.8046C30.6413 26.1949 30.8364 26.7154 30.8364 27.3659C30.7714 28.0165 30.5762 28.5369 30.1208 28.9273ZM31.6171 24.8288H30.7714V25.7395C30.381 25.3492 30.1208 25.154 29.9907 25.0239C29.5353 24.7637 28.8848 24.6336 28.1691 24.6336C27.0632 24.6336 26.2175 24.8938 25.697 25.3492C25.1766 25.8046 24.8513 26.4552 24.8513 27.3009C24.8513 27.7563 24.9164 28.0816 25.0465 28.4719C25.1766 28.8622 25.3717 29.1224 25.632 29.3176C26.2175 29.773 26.9981 30.0332 28.039 30.0332C29.2751 30.0332 30.1859 29.7079 30.7063 28.9923V29.9682C30.7063 30.5537 30.5112 31.0741 30.1208 31.3994C29.7305 31.7247 29.0799 31.9198 28.2342 31.9198C27.3885 31.9198 26.803 31.7897 26.4777 31.5946C26.2175 31.3994 26.0223 31.1392 25.9573 30.6838H25.1115C25.1766 31.2693 25.4368 31.7247 25.8922 31.9849C26.3476 32.3102 27.1933 32.4403 28.2993 32.4403C30.5112 32.4403 31.552 31.6596 31.552 30.0332L31.6171 24.8288ZM36.1059 25.3492C35.8457 25.2842 35.6506 25.2842 35.3903 25.2842C34.0242 25.2842 33.3086 26.0648 33.3086 27.5611V30.1633H32.5279V24.8288H33.3736V25.8046H33.4387C33.5688 25.4143 33.829 25.154 34.0892 24.9589C34.4145 24.7637 34.9349 24.6987 35.5855 24.6987H36.171L36.1059 25.3492ZM36.8866 27.1708C37.0167 26.5853 37.2119 26.0648 37.6022 25.7395C37.8625 25.5444 38.1227 25.4143 38.448 25.2842C38.7732 25.154 39.0985 25.154 39.4888 25.154C40.2045 25.154 40.855 25.3492 41.3104 25.7395C41.7658 26.1299 42.026 26.5853 42.026 27.1057L36.8866 27.1708ZM42.0911 25.4793C41.7658 25.154 41.4405 24.9589 40.9851 24.8288C40.5297 24.6987 40.0744 24.6336 39.4888 24.6336C38.3829 24.6336 37.5372 24.8938 36.9517 25.4143C36.3662 25.9347 36.0409 26.5853 36.0409 27.496C36.0409 28.4068 36.3011 29.0574 36.8866 29.5778C37.5372 30.1633 38.3829 30.4236 39.4888 30.4236C39.9442 30.4236 40.3346 30.3585 40.7249 30.2934C41.1152 30.2284 41.4405 30.0332 41.7007 29.8381C42.2212 29.4477 42.5465 29.0574 42.6766 28.4719H41.7658C41.4405 29.3827 40.6599 29.8381 39.4238 29.8381C38.5781 29.8381 37.8625 29.6429 37.4071 29.1875C37.0167 28.7972 36.8216 28.2767 36.8216 27.6912H42.8067C42.8717 26.7154 42.6115 25.9998 42.0911 25.4793Z" fill="white"/>
<path d="M51.7193 28.0168C51.7193 29.5782 50.4181 30.4239 47.881 30.4239C46.3196 30.4239 45.2137 30.1637 44.4981 29.5782C43.9126 29.1228 43.6523 28.4072 43.6523 27.4964H44.6932C44.6932 28.9927 45.7341 29.7083 47.881 29.7083C48.9219 29.7083 49.6375 29.5782 50.0929 29.2529C50.4832 28.9927 50.6784 28.5373 50.6784 28.0168C50.6784 27.4313 50.4181 27.041 49.8977 26.8458C49.5724 26.7157 48.8568 26.5856 47.6858 26.3904C46.2546 26.1953 45.2787 25.9351 44.8233 25.7399C44.1728 25.4146 43.9126 24.8291 43.9126 24.0484C43.9126 23.3328 44.1728 22.7473 44.6932 22.422C45.2787 22.0317 46.2546 21.8365 47.6207 21.8365C50.1579 21.8365 51.394 22.6823 51.394 24.3737H50.3531C50.3531 23.1377 49.4423 22.4871 47.5557 22.4871C46.6449 22.4871 45.9293 22.6172 45.4739 22.8774C45.0836 23.1377 44.8884 23.528 44.8884 24.0484C44.8884 24.5689 45.1486 24.9592 45.6691 25.2194C45.9293 25.3496 46.775 25.5447 48.1412 25.7399C49.4423 25.9351 50.288 26.1302 50.7434 26.3904C51.394 26.6507 51.7193 27.2362 51.7193 28.0168ZM60.1115 28.7975C59.7211 29.1228 59.2657 29.318 58.8103 29.5131C58.3549 29.6432 57.7694 29.7733 57.1839 29.7733C55.9479 29.7733 54.972 29.4481 54.1914 28.7975C53.4107 28.1469 53.0204 27.2362 53.0204 26.1302C53.0204 24.9592 53.4107 24.1135 54.1263 23.4629C54.8419 22.8124 55.8828 22.4871 57.1189 22.4871C58.3549 22.4871 59.3958 22.8124 60.1115 23.4629C60.5018 23.7882 60.762 24.1785 60.9572 24.6339C61.1523 25.0893 61.2174 25.5447 61.2174 26.1302C61.2825 27.2362 60.8921 28.1469 60.1115 28.7975ZM60.6319 29.318C61.1523 28.9276 61.5427 28.4722 61.8029 27.9518C62.0631 27.4313 62.1932 26.7808 62.1932 26.0652C62.1932 24.7641 61.8029 23.7882 60.9572 23.0075C60.5018 22.6172 59.9813 22.2919 59.3308 22.0968C58.6802 21.9016 57.9646 21.7715 57.1189 21.7715C55.5576 21.7715 54.2564 22.1618 53.3457 22.9425C52.4349 23.7232 52.0445 24.7641 52.0445 26.0652C52.0445 27.3663 52.4999 28.4072 53.4107 29.1878C54.3215 29.9685 55.5576 30.3588 57.1839 30.3588C57.8345 30.3588 58.3549 30.2938 58.8103 30.2287C59.2657 30.1637 59.6561 30.0336 59.9813 29.8384L61.4776 30.8793L62.1282 30.2938L60.6319 29.318ZM69.9999 30.1637H62.9088V21.9667H63.8847V29.4481H69.9999V30.1637Z" fill="white"/>
<path d="M43.0019 12.9888C40.725 13.4442 40.5949 12.6636 40.5949 12.6636C42.9369 9.15056 43.9778 4.66171 43.067 3.55576C40.725 0.563198 36.6265 1.99442 36.5614 1.99442C36.106 1.92937 35.5856 1.86431 35.0651 1.86431C34.0242 1.86431 33.2436 2.12454 32.6581 2.57993C32.6581 2.57993 25.3718 -0.412638 25.6971 6.35316C25.7622 7.78439 27.7789 17.2825 30.1209 14.4201C30.9666 13.3792 31.8123 12.4684 31.8123 12.4684C32.2027 12.7286 32.7231 12.8587 33.2436 12.8587L33.3086 12.7937C33.3086 12.9238 33.3086 13.0539 33.3086 13.184C32.7231 13.8996 32.8532 13.9647 31.6822 14.2249C30.4462 14.4851 31.1618 14.9405 31.6172 15.0706C32.2027 15.2007 33.5038 15.3959 34.4146 14.1599L34.3495 14.29C34.6097 14.4851 34.7399 15.526 34.7399 16.5019C34.7399 17.4777 34.6748 18.1283 34.87 18.6487C35.0651 19.1691 35.2603 20.3402 36.8867 19.9498C38.2529 19.6896 38.9034 18.9089 39.0335 17.6729C39.0986 16.7621 39.2287 16.8922 39.2938 16.1115L39.4239 15.7212C39.554 14.4851 39.4239 14.1599 40.2696 14.29H40.4648C41.0503 14.29 41.896 14.2249 42.3514 13.9647C43.3923 13.5744 43.9778 12.7937 43.0019 12.9888Z" fill="#1E1441"/>
<path d="M32.9833 7.52405C32.7231 7.459 32.593 7.26383 32.593 7.13372C32.593 7.06866 32.7881 7.00361 33.0484 7.00361C33.3086 7.00361 33.4387 7.13372 33.4387 7.19877C33.4387 7.39394 33.2435 7.58911 32.9833 7.52405ZM42.4815 14.2899C42.0261 14.485 41.3105 14.6151 40.6599 14.6151C40.3346 14.6151 40.0744 14.5501 39.8792 14.485L39.4238 17.933C39.1636 19.2991 38.5781 19.9497 37.1469 20.275C36.8867 20.34 36.6915 20.34 36.4963 20.34C35.1302 20.34 34.7398 19.2341 34.5447 18.8438C34.3495 18.3233 34.2844 16.5668 34.2844 14.7452C33.764 15.2006 33.1785 15.3958 32.4629 15.3958C32.2026 15.3958 31.8774 15.3307 31.5521 15.2657C31.487 15.2657 30.7064 15.0055 30.7064 14.5501C30.7064 14.0947 31.3569 13.9646 31.6171 13.8995C32.4629 13.7044 32.5279 13.6393 32.7881 13.314C32.8532 13.249 32.9183 13.1839 32.9833 13.0538C32.593 13.0538 32.2026 12.9237 31.8774 12.7285C31.6822 12.9887 31.0316 13.6393 30.316 14.485C29.9257 15.0055 29.5354 15.1356 29.2101 15.1356C29.08 15.1356 28.9499 15.1356 28.8848 15.0705C26.738 14.42 25.4368 7.19877 25.3718 6.28799C25.3067 4.33632 25.7621 2.97015 26.8681 2.25454C28.8197 0.888366 31.9424 1.92926 32.593 2.18948C33.2435 1.73409 34.0893 1.53892 35 1.53892C35.5205 1.53892 35.9759 1.60398 36.4313 1.73409C36.8867 1.47387 40.9852 0.36792 43.3272 3.36048C44.3681 4.6616 43.132 9.34561 40.9201 12.7285C41.0502 12.8586 41.5707 13.0538 42.9368 12.7936C43.3922 12.6635 43.6525 12.7936 43.7826 13.0538C43.9127 13.4441 43.0019 14.0296 42.4815 14.2899ZM37.4071 1.99431C39.9443 3.10026 40.9201 5.76755 40.9852 6.22294C40.9852 6.28799 40.9852 6.28799 40.9852 6.35305C40.9852 6.74338 40.9201 7.13372 40.9201 7.459C40.8551 7.71922 40.8551 7.97944 40.8551 8.30472C40.8551 8.63 40.8551 8.95528 40.9201 9.28056C41.0502 10.1263 41.1153 11.0371 40.5298 12.0129C40.5298 12.0129 40.5298 12.0129 40.5948 12.078L40.6599 12.143C42.8718 8.63 43.6525 4.53149 42.9368 3.68576C41.1803 1.53892 38.6432 1.73409 37.4071 1.99431ZM40.2045 8.30472C40.2045 7.97944 40.2696 7.65416 40.3346 7.39394C40.3346 7.13372 40.3346 6.8735 40.3346 6.54822C39.6841 6.48316 38.9034 6.48316 38.6432 6.93855C38.0577 7.78428 39.2287 9.801 39.6841 10.7118C39.8142 10.907 39.8792 11.1021 39.9443 11.2322C40.0093 11.3623 40.0093 11.4274 40.0744 11.5575C40.3997 10.8419 40.3346 10.1263 40.2696 9.41067C40.2045 9.02034 40.2045 8.63 40.2045 8.30472ZM31.422 12.4683C31.3569 12.4032 31.2919 12.3382 31.2268 12.2731C30.5763 11.6226 30.316 10.7118 30.4461 9.801C30.5763 8.82517 30.5112 7.91439 30.5112 7.459C30.5112 7.32889 30.5112 7.26383 30.5112 7.19877C30.5112 7.00361 30.4461 4.27127 32.0725 2.64487C32.0725 2.64487 32.0725 2.64487 32.1376 2.57982C31.1618 2.25454 28.7547 1.60398 27.2584 2.70993C26.3476 3.36048 25.9573 4.53149 26.0223 6.28799C26.0874 7.78428 27.5837 14.0947 29.08 14.6151C29.2101 14.6802 29.4703 14.7452 29.9257 14.2248C30.5763 13.3791 31.1618 12.7285 31.422 12.4683ZM33.0484 12.5333C33.1134 12.2731 33.1785 12.0129 33.3086 11.7527L33.3736 11.6226C33.4387 11.4925 33.5038 11.3623 33.5688 11.1672C33.8941 10.4516 34.2844 9.54078 33.829 7.39394C33.764 7.00361 33.5038 6.74338 33.1785 6.67833C32.3978 6.48316 31.2919 7.06866 31.0967 7.26383C31.0967 7.32889 31.0967 7.39394 31.0967 7.459C31.0967 7.91439 31.1618 8.82517 31.0316 9.86606C30.9015 10.5817 31.1618 11.3623 31.6822 11.8828C32.0075 12.2731 32.5279 12.5333 33.0484 12.5333ZM34.2844 13.6393C34.2194 13.4441 34.0893 13.314 33.9592 13.249C33.829 13.1839 33.6989 13.1839 33.5688 13.3791C33.4387 13.5092 33.3736 13.6393 33.3086 13.7043C32.9833 14.1597 32.7881 14.2899 31.8123 14.485C31.6171 14.5501 31.487 14.5501 31.422 14.6151C31.487 14.6802 31.6171 14.7452 31.8123 14.7452C32.593 14.9404 33.6339 14.9404 34.3495 13.9646C34.2844 13.8345 34.2844 13.7043 34.2844 13.6393ZM40.2045 12.5984C40.1394 12.5333 40.1394 12.4683 40.0744 12.4032C39.8792 12.2081 39.619 11.8828 39.4238 11.4274C39.3588 11.3623 39.2937 11.1672 39.1636 10.972C38.5781 9.93112 37.342 7.71922 38.1227 6.61327C38.5131 6.09283 39.2287 5.89766 40.2696 5.96271C39.9443 4.98688 38.448 2.05937 35 2.05937C33.9592 2.05937 33.1134 2.38465 32.4629 3.03521C31.422 4.0761 31.1618 5.70249 31.0967 6.61327C31.5521 6.35305 32.1376 6.15788 32.593 6.09283C33.5688 5.96271 34.1543 6.41811 34.3495 7.26383C34.8699 9.60584 34.4145 10.6467 34.0242 11.3623C33.9592 11.4925 33.8941 11.6226 33.829 11.7527V11.9478C33.6989 12.2081 33.6339 12.4683 33.5688 12.6635C33.829 12.5984 34.0242 12.6635 34.1543 12.7285C34.4145 12.8586 34.6748 13.1188 34.8049 13.4441C34.8049 13.5092 34.8049 13.5092 34.8049 13.5742V13.6393C34.7398 15.9813 34.8049 18.0631 35 18.5835C35.2603 19.2991 35.7157 19.9497 36.9517 19.6895C38.1227 19.4293 38.5781 18.9739 38.7733 17.8679L39.2937 13.9646C39.2937 12.9237 39.8792 12.7285 40.2045 12.5984ZM43.067 13.249C41.896 13.5092 41.0502 13.4441 40.5948 13.1839L40.5298 13.1188C40.4647 13.1188 40.4647 13.1188 40.3997 13.1839C40.1394 13.249 39.8792 13.314 39.9443 14.0296C40.1395 14.2248 41.5056 14.1597 42.2863 13.8345C42.6116 13.5742 42.8718 13.3791 43.067 13.249ZM39.3588 6.8735C39.0986 6.8735 38.9684 7.00361 38.9684 7.06866C38.9684 7.13372 39.1636 7.32889 39.4238 7.32889C39.6841 7.26383 39.8142 7.06866 39.8142 6.93855C39.8142 6.8735 39.619 6.80844 39.3588 6.8735Z" fill="white"/>
</g>
<defs>
<clipPath id="clip0_113_571">
<rect width="70" height="31.6822" fill="white" transform="translate(0 0.758301)"/>
</clipPath>
</defs>
</svg>
