<?xml version="1.0" encoding="utf-8"?>
<!-- Generator: Adobe Illustrator 27.0.0, SVG Export Plug-In . SVG Version: 6.00 Build 0)  -->
<svg version="1.1" id="PostgreSQL" xmlns="http://www.w3.org/2000/svg" xmlns:xlink="http://www.w3.org/1999/xlink" x="0px" y="0px"
	 viewBox="0 0 107.6 48.7" style="enable-background:new 0 0 107.6 48.7;" xml:space="preserve">
<style type="text/css">
	.st0{fill:#231F20;}
	.st1{fill:#367FAF;}
	.st2{fill:#417BA2;}
	.st3{fill:#FFFFFF;}
</style>
<path class="st0" d="M6.7,38.9H1.5v-5.2H7c2,0,3,0.9,3,2.7C10,38,8.9,38.9,6.7,38.9 M10.5,33.6c-0.7-0.6-1.7-1-3-1l-7.5,0v12.6h1.5
	l0-5.3h5.6c1.4,0,2.5-0.3,3.3-1s1.2-1.5,1.2-2.7S11.2,34.2,10.5,33.6L10.5,33.6z M20.2,42.6c-0.1,0.4-0.4,0.8-0.7,1.1
	c-0.7,0.7-1.7,1-3.1,1c-1.2,0-2.2-0.3-2.9-1s-1-1.5-1-2.6c0-0.6,0.1-1.1,0.3-1.5c0.2-0.4,0.4-0.8,0.8-1.1c0.7-0.6,1.6-0.9,2.9-0.9
	c2.7,0,4,1.2,4,3.5C20.4,41.7,20.4,42.2,20.2,42.6 M20.5,38c-0.9-0.8-2.3-1.3-4.1-1.3c-1.7,0-3,0.4-3.9,1.3
	c-0.8,0.8-1.3,1.8-1.3,3.1c0,1.3,0.4,2.4,1.3,3.2c0.5,0.4,1,0.7,1.7,0.9s1.4,0.3,2.2,0.3c1.8,0,3.2-0.4,4.1-1.2
	c0.8-0.8,1.3-1.8,1.3-3.1C21.8,39.8,21.3,38.7,20.5,38L20.5,38z M31.9,42.9c0,1.7-1.5,2.5-4.5,2.5c-0.9,0-1.7-0.1-2.3-0.2
	s-1.1-0.3-1.5-0.6c-0.3-0.2-0.6-0.5-0.7-0.8c-0.2-0.3-0.3-0.8-0.4-1.3l1.4,0c0,0.7,0.2,1.2,0.7,1.5c0.5,0.4,1.5,0.6,2.8,0.6
	c2.1,0,3.2-0.5,3.2-1.6c0-0.6-0.4-1-1.1-1.3c-0.1,0-1-0.2-2.6-0.4s-2.5-0.4-2.9-0.5c-0.8-0.3-1.3-0.9-1.3-1.8c0-0.8,0.4-1.5,1.1-1.9
	c0.4-0.2,0.8-0.3,1.4-0.4s1.2-0.1,1.9-0.1c2.9,0,4.4,0.9,4.4,2.7h-1.3c0-1.3-1-1.9-3.1-1.9c-1,0-1.8,0.1-2.3,0.4S24,38.6,24,39.1
	c0,0.5,0.3,0.9,1,1.1c0.4,0.1,1.3,0.3,2.8,0.4c1.3,0.1,2.2,0.3,2.7,0.5C31.4,41.5,31.9,42.1,31.9,42.9L31.9,42.9z M37.4,45.2
	l-0.6,0.1l-0.4,0c-0.9,0-1.6-0.1-2-0.4s-0.6-0.7-0.6-1.4v-5.7h-1.7V37h1.7l0-2.7h1.3V37h2.2v0.9l-2.2,0v5.6c0,0.4,0.1,0.7,0.3,0.9
	s0.6,0.2,1.2,0.2c0.1,0,0.2,0,0.3,0s0.2,0,0.4-0.1L37.4,45.2L37.4,45.2z M46.3,43.3c-0.4,0.3-0.8,0.5-1.2,0.7
	c-0.5,0.2-1,0.2-1.5,0.2c-2.7,0-4-1.1-4-3.3c0-1,0.3-1.8,1-2.4s1.7-0.9,2.9-0.9c1.3,0,2.2,0.3,2.9,0.9s1,1.4,1,2.4
	C47.3,41.9,47,42.7,46.3,43.3 M48.6,37h-1.3l0,1.4c-0.6-0.6-1-0.9-1.2-1.1c-0.7-0.4-1.7-0.6-2.8-0.6c-1.7,0-3,0.4-3.8,1.1
	c-0.8,0.7-1.3,1.7-1.3,3c0,0.7,0.1,1.2,0.3,1.8s0.5,1,0.9,1.3c0.9,0.7,2.1,1.1,3.7,1.1c1.9,0,3.3-0.5,4.1-1.6v1.5
	c0,0.9-0.3,1.7-0.9,2.2s-1.6,0.8-2.9,0.8c-1.3,0-2.2-0.2-2.7-0.5c-0.4-0.3-0.7-0.7-0.8-1.4h-1.3c0.1,0.9,0.5,1.6,1.2,2
	c0.7,0.5,2,0.7,3.7,0.7c3.4,0,5-1.2,5-3.7L48.6,37L48.6,37z M55.5,37.8c-0.4-0.1-0.7-0.1-1.1-0.1c-2.1,0-3.2,1.2-3.2,3.5v4H50l0-8.2
	l1.3,0v1.5h0.1c0.2-0.6,0.6-1,1-1.3c0.5-0.3,1.3-0.4,2.3-0.4h0.9L55.5,37.8L55.5,37.8z M56.7,40.6c0.2-0.9,0.5-1.7,1.1-2.2
	c0.4-0.3,0.8-0.5,1.3-0.7s1-0.2,1.6-0.2c1.1,0,2.1,0.3,2.8,0.9s1.1,1.3,1.1,2.1L56.7,40.6 M64.7,38c-0.5-0.5-1-0.8-1.7-1
	c-0.7-0.2-1.4-0.3-2.3-0.3c-1.7,0-3,0.4-3.9,1.2s-1.4,1.8-1.4,3.2s0.4,2.4,1.3,3.2c1,0.9,2.3,1.3,4,1.3c0.7,0,1.3-0.1,1.9-0.2
	s1.1-0.4,1.5-0.7c0.8-0.6,1.3-1.2,1.5-2.1h-1.4c-0.5,1.4-1.7,2.1-3.6,2.1c-1.3,0-2.4-0.3-3.1-1c-0.6-0.6-0.9-1.4-0.9-2.3h9.2
	C65.9,39.9,65.5,38.8,64.7,38L64.7,38z"/>
<path class="st1" d="M79.5,41.9c0,2.4-2,3.7-5.9,3.7c-2.4,0-4.1-0.4-5.2-1.3c-0.9-0.7-1.3-1.8-1.3-3.2h1.6c0,2.3,1.6,3.4,4.9,3.4
	c1.6,0,2.7-0.2,3.4-0.7c0.6-0.4,0.9-1.1,0.9-1.9c0-0.9-0.4-1.5-1.2-1.8c-0.5-0.2-1.6-0.4-3.4-0.7c-2.2-0.3-3.7-0.7-4.4-1
	c-1-0.5-1.4-1.4-1.4-2.6c0-1.1,0.4-2,1.2-2.5c0.9-0.6,2.4-0.9,4.5-0.9c3.9,0,5.8,1.3,5.8,3.9h-1.6c0-1.9-1.4-2.9-4.3-2.9
	c-1.4,0-2.5,0.2-3.2,0.6c-0.6,0.4-0.9,1-0.9,1.8c0,0.8,0.4,1.4,1.2,1.8c0.4,0.2,1.7,0.5,3.8,0.8c2,0.3,3.3,0.6,4,1
	C79,39.8,79.5,40.7,79.5,41.9L79.5,41.9z M92.4,43.1c-0.6,0.5-1.3,0.8-2,1.1c-0.7,0.2-1.6,0.4-2.5,0.4c-1.9,0-3.4-0.5-4.6-1.5
	s-1.8-2.4-1.8-4.1c0-1.8,0.6-3.1,1.7-4.1s2.7-1.5,4.6-1.5c1.9,0,3.5,0.5,4.6,1.5c0.6,0.5,1,1.1,1.3,1.8s0.4,1.4,0.4,2.3
	C94.2,40.7,93.6,42.1,92.4,43.1 M93.2,43.9c0.8-0.6,1.4-1.3,1.8-2.1s0.6-1.8,0.6-2.9c0-2-0.6-3.5-1.9-4.7c-0.7-0.6-1.5-1.1-2.5-1.4
	s-2.1-0.5-3.4-0.5c-2.4,0-4.4,0.6-5.8,1.8S80,36.9,80,38.9c0,2,0.7,3.6,2.1,4.8s3.3,1.8,5.8,1.8c1,0,1.8-0.1,2.5-0.2
	s1.3-0.3,1.8-0.6l2.3,1.6l1-0.9L93.2,43.9L93.2,43.9z M107.6,45.2H96.7V32.6l1.5,0v11.5h9.4L107.6,45.2L107.6,45.2z"/>
<path class="st0" d="M68.1,18.5c-0.1-0.3-0.6-1.3-2.3-1c-0.7,0.1-1.2,0.2-1.6,0.2c3-5.1,4.9-11.9,3-14.3c-3.5-4.5-9.3-3.5-11.2-2.9
	c-0.7-0.1-1.4-0.2-2.2-0.2c-1.5,0-2.8,0.3-3.9,1c-1.7-0.6-6.2-1.8-9.2,0.3c-1.9,1.4-2.8,3.7-2.6,7c0.1,1,2,13,5.9,14.3
	c0.6,0.2,1.6,0.3,2.6-0.6c0.4,0.5,1,0.8,1.6,0.9c1.3,0.3,2.6,0.2,3.6-0.2c0,0.2,0,0.4,0,0.5l0,0.7c0.1,1.6,0.2,2.8,0.5,3.6l0.1,0.2
	c0.6,1.9,1.7,2.8,3.4,2.8c0.3,0,0.7,0,1.1-0.1c3-0.6,4.7-2.1,4.8-8.1l0,0l0-0.3c0-0.1,0-0.1,0-0.2l0.3,0c1,0,2.5-0.1,3.5-0.6
	C66.4,21.3,68.6,20.1,68.1,18.5z M60.6,22.5L60.6,22.5C60.6,22.5,60.6,22.5,60.6,22.5L60.6,22.5L60.6,22.5z"/>
<path class="st2" d="M66.1,18.8c-3.5,0.7-3.7-0.5-3.7-0.5C66,12.9,67.6,6,66.2,4.3c-3.6-4.6-9.9-2.4-10-2.4l0,0
	c-0.7-0.1-1.5-0.2-2.3-0.2c-1.6,0-2.8,0.4-3.7,1.1c0,0-11.2-4.6-10.7,5.8c0.1,2.2,3.2,16.8,6.8,12.4c1.3-1.6,2.6-3,2.6-3
	c0.6,0.4,1.4,0.6,2.2,0.6l0.1-0.1c0,0.2,0,0.4,0,0.6c-0.9,1.1-0.7,1.2-2.5,1.6c-1.9,0.4-0.8,1.1-0.1,1.3c0.9,0.2,2.9,0.5,4.3-1.4
	l-0.1,0.2c0.4,0.3,0.6,1.9,0.6,3.4s-0.1,2.5,0.2,3.3c0.3,0.8,0.6,2.6,3.1,2c2.1-0.4,3.1-1.6,3.3-3.5c0.1-1.4,0.3-1.2,0.4-2.4
	l0.2-0.6c0.2-1.9,0-2.4,1.3-2.2l0.3,0c0.9,0,2.2-0.1,2.9-0.5C66.7,19.7,67.6,18.5,66.1,18.8L66.1,18.8z"/>
<path class="st3" d="M50.7,10.4c-0.4-0.1-0.6-0.4-0.6-0.6l0,0c0-0.1,0.3-0.2,0.7-0.2s0.6,0.2,0.6,0.3C51.4,10.2,51.1,10.5,50.7,10.4
	z M65.3,20.8c-0.7,0.3-1.8,0.5-2.8,0.5c-0.5,0-0.9-0.1-1.2-0.2l-0.7,5.3c-0.4,2.1-1.3,3.1-3.5,3.6c-0.4,0.1-0.7,0.1-1,0.1
	c-2.1,0-2.7-1.7-3-2.3c-0.3-0.8-0.4-3.5-0.4-6.3c-0.8,0.7-1.7,1-2.8,1c-0.4,0-0.9-0.1-1.4-0.2c-0.1,0-1.3-0.4-1.3-1.1
	c0-0.7,1-0.9,1.4-1c1.3-0.3,1.4-0.4,1.8-0.9c0.1-0.1,0.2-0.2,0.3-0.4c0,0,0,0,0,0c-0.6,0-1.2-0.2-1.7-0.5c-0.3,0.4-1.3,1.4-2.4,2.7
	c-0.6,0.8-1.2,1-1.7,1c-0.2,0-0.4,0-0.5-0.1C41.1,21,39.1,9.9,39,8.5c-0.1-3,0.6-5.1,2.3-6.2c3-2.1,7.8-0.5,8.8-0.1
	c1-0.7,2.3-1,3.7-1c0.8,0,1.5,0.1,2.2,0.3c0.7-0.4,7-2.1,10.6,2.5c1.6,2-0.3,9.2-3.7,14.4c0.2,0.2,1,0.5,3.1,0.1
	c0.7-0.2,1.1,0,1.3,0.4C67.5,19.5,66.1,20.4,65.3,20.8z M57.5,1.9c3.9,1.7,5.4,5.8,5.5,6.5c0,0.1,0,0.1,0,0.2c0,0.6-0.1,1.2-0.1,1.7
	c-0.1,0.4-0.1,0.8-0.1,1.3c0,0.5,0,1,0.1,1.5c0.2,1.3,0.3,2.7-0.6,4.2c0,0,0,0,0.1,0.1c0,0,0.1,0.1,0.1,0.1c3.4-5.4,4.6-11.7,3.5-13
	C63.3,1.2,59.4,1.5,57.5,1.9z M61.8,11.6c0-0.5,0.1-1,0.2-1.4C62,9.8,62,9.4,62,8.9c-1-0.1-2.2-0.1-2.6,0.6
	c-0.9,1.3,0.9,4.4,1.6,5.8c0.2,0.3,0.3,0.6,0.4,0.8c0.1,0.2,0.1,0.3,0.2,0.5c0.5-1.1,0.4-2.2,0.3-3.3C61.8,12.7,61.8,12.1,61.8,11.6
	z M48.3,18c-0.1-0.1-0.2-0.2-0.3-0.3c-1-1-1.4-2.4-1.2-3.8c0.2-1.5,0.1-2.9,0.1-3.6c0-0.2,0-0.3,0-0.4c0,0,0,0,0,0
	c0-0.3-0.1-4.5,2.4-7c0,0,0,0,0.1-0.1c-1.5-0.5-5.2-1.5-7.5,0.2c-1.4,1-2,2.8-1.9,5.5c0.1,2.3,2.4,12,4.7,12.8
	c0.2,0.1,0.6,0.2,1.3-0.6C47,19.4,47.9,18.4,48.3,18z M50.8,18.1c0.1-0.4,0.2-0.8,0.4-1.2l0.1-0.2c0.1-0.2,0.2-0.4,0.3-0.7
	c0.5-1.1,1.1-2.5,0.4-5.8c-0.1-0.6-0.5-1-1-1.1c-1.2-0.3-2.9,0.6-3.2,0.9c0,0.1,0,0.2,0,0.3c0,0.7,0.1,2.1-0.1,3.7
	c-0.2,1.1,0.2,2.3,1,3.1C49.2,17.7,50,18.1,50.8,18.1z M52.7,19.8c-0.1-0.3-0.3-0.5-0.5-0.6c-0.2-0.1-0.4-0.1-0.6,0.2l0,0
	c0,0,0,0,0,0l0,0c-0.2,0.2-0.3,0.4-0.4,0.5c-0.5,0.7-0.8,0.9-2.3,1.2c-0.3,0.1-0.5,0.1-0.6,0.2c0.1,0.1,0.3,0.2,0.6,0.2
	c1.2,0.3,2.8,0.3,3.9-1.2C52.7,20.1,52.7,19.9,52.7,19.8z M61.8,18.2c-0.1-0.1-0.1-0.2-0.2-0.3c-0.3-0.3-0.7-0.8-1-1.5
	c-0.1-0.1-0.2-0.4-0.4-0.7c-0.9-1.6-2.8-5-1.6-6.7c0.6-0.8,1.7-1.1,3.3-1c-0.5-1.5-2.8-6-8.1-6c-1.6,0-2.9,0.5-3.9,1.5
	c-1.6,1.6-2,4.1-2.1,5.5c0.7-0.4,1.6-0.7,2.3-0.8c1.5-0.2,2.4,0.5,2.7,1.8c0.8,3.6,0.1,5.2-0.5,6.3c-0.1,0.2-0.2,0.4-0.3,0.6
	L52,17.2c-0.2,0.4-0.3,0.8-0.4,1.1c0.4-0.1,0.7,0,0.9,0.1c0.4,0.2,0.8,0.6,1,1.1c0,0.1,0,0.1,0,0.2c0,0,0,0.1,0,0.1c0,0,0,0,0,0
	c0,0,0,0,0,0c-0.1,3.6,0,6.8,0.3,7.6c0.4,1.1,1.1,2.1,3,1.7c1.8-0.4,2.5-1.1,2.8-2.8l0.8-6C60.4,18.7,61.3,18.4,61.8,18.2z
	 M66.2,19.2C66.2,19.2,66.2,19.2,66.2,19.2c-1.8,0.4-3.1,0.3-3.8-0.1c0,0-0.1-0.1-0.1-0.1c-0.1,0-0.1,0-0.2,0.1
	c-0.4,0.1-0.8,0.2-0.7,1.3c0.3,0.3,2.4,0.2,3.6-0.3C65.5,19.7,65.9,19.4,66.2,19.2z M60.5,9.4c-0.4,0-0.6,0.2-0.6,0.3
	c0,0.1,0.3,0.4,0.7,0.4c0.4-0.1,0.6-0.4,0.6-0.6l0,0C61.2,9.4,60.9,9.3,60.5,9.4z"/>
</svg>
