<svg xmlns="http://www.w3.org/2000/svg" xmlns:xlink="http://www.w3.org/1999/xlink" version="1.1" id="Python" x="0px" y="0px" viewBox="0 0 112.2 32.5" style="enable-background:new 0 0 112.2 32.5;" xml:space="preserve">
<style type="text/css">
	.st0{fill:#ffffff;}
	.st1{fill:url(#SVGID_1_);}
	.st2{fill:url(#SVGID_00000018236753289977060150000011517664809001563809_);}
	.st3{opacity:0.444;fill:url(#SVGID_00000143603107500262910520000009604232134565074048_);enable-background:new    ;}
</style>
<path class="st0" d="M42.3,13.9c0-3.4-1-5.2-2.9-5.3c-0.8,0-1.5,0.1-2.3,0.4c-0.6,0.2-1,0.4-1.2,0.6v8.2c1.3,0.8,2.4,1.2,3.3,1.1  C41.3,18.7,42.3,17.1,42.3,13.9L42.3,13.9z M44.7,14c0,1.7-0.4,3.2-1.2,4.4c-0.9,1.3-2.2,2-3.8,2c-1.2,0-2.5-0.3-3.8-1.2v7.5  l-2.1-0.8V9.4c0.3-0.4,0.8-0.8,1.3-1.1c1.3-0.7,2.8-1.1,4.6-1.1l0,0c1.6,0,2.9,0.6,3.8,2C44.3,10.4,44.7,12,44.7,14L44.7,14z   M57.6,18.9c0,2.3-0.2,4-0.7,4.9c-0.5,0.9-1.4,1.6-2.7,2.2c-1.1,0.4-2.2,0.7-3.5,0.7l-0.3-1.3c1.3-0.2,2.2-0.3,2.7-0.5  c1-0.3,1.7-0.9,2.1-1.6c0.3-0.6,0.5-1.7,0.5-3.3v-0.5c-1.4,0.6-3,1-4.5,1c-1,0-2-0.3-2.7-1c-0.9-0.7-1.3-1.6-1.3-2.7V7.9l2.1-0.7V16  c0,0.9,0.3,1.7,0.9,2.2c0.6,0.5,1.4,0.8,2.4,0.7c1,0,2-0.4,3.1-1.1V7.5h2.1C57.6,7.5,57.6,18.9,57.6,18.9z M65.8,20.3l-0.7,0  c-1.2,0-2.1-0.3-2.8-0.9c-0.7-0.6-1-1.4-1-2.4V8.8h-1.4V7.5h1.4V3.9l2.1-0.7v4.3h2.4v1.3h-2.4V17c0,0.8,0.2,1.3,0.6,1.7  c0.4,0.3,0.9,0.4,1.7,0.5L65.8,20.3L65.8,20.3z M78.5,20.1h-2.1V12c0-0.8-0.2-1.5-0.6-2.1c-0.4-0.7-1.1-1-1.9-1  c-1,0-2.2,0.5-3.6,1.5v9.7h-2.1V0.7L70.4,0v8.8c1.3-1,2.8-1.5,4.4-1.5c1.1,0,2,0.4,2.7,1.1c0.7,0.7,1,1.7,1,2.8L78.5,20.1L78.5,20.1  z M89.7,13.5c0-1.3-0.3-2.4-0.8-3.3c-0.6-1.1-1.5-1.6-2.8-1.7c-2.3,0.1-3.5,1.8-3.5,5c0,1.5,0.2,2.7,0.7,3.6  c0.6,1.2,1.5,1.9,2.8,1.8C88.5,19,89.7,17.2,89.7,13.5L89.7,13.5z M92,13.5c0,1.9-0.5,3.4-1.4,4.7c-1.1,1.4-2.5,2.1-4.4,2.1  c-1.8,0-3.3-0.7-4.3-2.1c-0.9-1.3-1.4-2.8-1.4-4.7c0-1.8,0.5-3.3,1.5-4.5c1.1-1.3,2.5-1.9,4.2-1.9s3.2,0.6,4.3,1.9  C91.5,10.3,92,11.8,92,13.5L92,13.5z M104.1,20.1H102v-8.6c0-0.9-0.3-1.7-0.8-2.2c-0.6-0.5-1.3-0.8-2.3-0.8c-1,0-2,0.3-2.9,1v10.6  h-2.1V9.2c1.2-0.9,2.3-1.5,3.3-1.7c1-0.3,1.8-0.4,2.5-0.4c0.5,0,1,0,1.4,0.1c0.8,0.2,1.5,0.5,2,1.1c0.6,0.6,0.9,1.3,0.9,2.1  L104.1,20.1L104.1,20.1z" fill="#ffffff"/>
<linearGradient id="SVGID_1_" gradientUnits="userSpaceOnUse" x1="446.1734" y1="-692.7846" x2="497.5464" y2="-737.4106" gradientTransform="matrix(0.282 0 0 -0.282 -126.4543 -193.8481)" fill="#ffffff">
	<stop offset="0" style="stop-color:#ffffff" fill="#ffffff"/>
	<stop offset="1" style="stop-color:#ffffff" fill="#ffffff"/>
</linearGradient>
<path class="st1" d="M13,0.7c-1.1,0-2.1,0.1-3,0.3C7.3,1.5,6.8,2.5,6.8,4.3v2.4h6.3v0.8H4.4c-1.8,0-3.5,1.1-4,3.2  c-0.6,2.4-0.6,3.9,0,6.4C0.9,19,2,20.4,3.8,20.4H6v-2.9c0-2.1,1.8-3.9,4-3.9h6.3c1.8,0,3.2-1.4,3.2-3.2v-6c0-1.7-1.4-3-3.2-3.3  C15.2,0.8,14.1,0.7,13,0.7L13,0.7z M9.5,2.7c0.7,0,1.2,0.5,1.2,1.2c0,0.7-0.5,1.2-1.2,1.2c-0.7,0-1.2-0.5-1.2-1.2  C8.4,3.2,8.9,2.7,9.5,2.7z" fill="#ffffff"/>
<linearGradient id="SVGID_00000003098800687887339820000005558687912728001950_" gradientUnits="userSpaceOnUse" x1="517.5095" y1="-764.528" x2="499.1645" y2="-738.322" gradientTransform="matrix(0.282 0 0 -0.282 -126.4543 -193.8481)" fill="#ffffff">
	<stop offset="0" style="stop-color:#ffffff" fill="#ffffff"/>
	<stop offset="1" style="stop-color:#ffffff" fill="#ffffff"/>
</linearGradient>
<path style="fill:url(#SVGID_00000003098800687887339820000005558687912728001950_);" d="M20.2,7.5v2.8c0,2.2-1.8,4-4,4H10  c-1.7,0-3.2,1.5-3.2,3.2v6c0,1.7,1.5,2.7,3.2,3.2c2,0.6,3.9,0.7,6.3,0c1.6-0.5,3.2-1.4,3.2-3.2v-2.4h-6.3v-0.8h9.5  c1.8,0,2.5-1.3,3.2-3.2c0.7-2,0.6-3.9,0-6.4c-0.5-1.8-1.3-3.2-3.2-3.2L20.2,7.5L20.2,7.5z M16.7,22.8c0.7,0,1.2,0.5,1.2,1.2  c0,0.7-0.5,1.2-1.2,1.2c-0.7,0-1.2-0.5-1.2-1.2C15.5,23.3,16,22.8,16.7,22.8z"/>
<path class="st0" d="M108.2,5.6h0.4V3.3h0.9V3h-2.1v0.3h0.9L108.2,5.6 M109.7,5.6h0.3V3.5l0.7,2.1h0.4l0.7-2.1v2.1h0.3V3h-0.5  l-0.8,2.2L110.3,3h-0.5L109.7,5.6" fill="#ffffff"/>
<radialGradient id="SVGID_00000040573668081236679350000002172788924485975972_" cx="-5260.2222" cy="-378.5657" r="29.0373" gradientTransform="matrix(4.131278e-09 -5.667555e-02 -0.2491 -8.955643e-08 -81.1192 -267.2223)" gradientUnits="userSpaceOnUse" fill="#ffffff">
	<stop offset="0" style="stop-color:#ffffff;stop-opacity:0.498" fill="#ffffff"/>
	<stop offset="1" style="stop-color:#ffffff;stop-opacity:0" fill="#ffffff"/>
</radialGradient>
<path style="opacity:0.444;fill:url(#SVGID_00000040573668081236679350000002172788924485975972_);enable-background:new    ;" d="  M21.7,30.9c0,0.9-3.8,1.6-8.5,1.6s-8.5-0.7-8.5-1.6c0-0.9,3.8-1.6,8.5-1.6S21.7,30,21.7,30.9z"/>
</svg>