<svg width="61" height="54" viewBox="0 0 61 54" fill="none" xmlns="http://www.w3.org/2000/svg">
<path d="M41.5598 52.5655H51.3532V41.4705H41.5598V52.5655ZM13.8993 20.8834H15.6846V11.6201H12.7607C12.421 11.6201 12.1466 11.3456 12.1466 11.006C12.1466 10.8293 12.2226 10.669 12.3395 10.5576L21.913 0.984034C22.0326 0.864465 22.1902 0.804688 22.3478 0.804688H48.1085C48.2852 0.804688 48.4428 0.878058 48.5569 0.99762L58.1304 10.5712C58.3696 10.8103 58.3696 11.1989 58.1304 11.4407C58.0109 11.5603 57.8533 11.6228 57.6957 11.6228H54.7718V27.8106L60.5707 33.6068C60.8098 33.8459 60.8098 34.2372 60.5707 34.4764C60.4511 34.5959 60.2935 34.6557 60.1359 34.6557H57.3506V53.183C57.3506 53.5227 57.0734 53.7971 56.7364 53.7971H4.76358C4.4239 53.7971 4.14945 53.52 4.14945 53.183V34.6557H1.36413C1.02446 34.6557 0.75 34.3813 0.75 34.0416C0.75 33.8649 0.826091 33.7046 0.942932 33.5932L13.4702 21.0659C13.5898 20.9464 13.7474 20.8866 13.905 20.8866L13.8993 20.8834ZM16.2987 22.1143H14.1547L2.8448 33.4243H34.7989L46.1088 22.1143H16.2966H16.2987ZM31.0382 47.8076H9.90775C9.56808 47.8076 9.29362 47.5331 9.29362 47.1934V40.0303C9.29362 39.6906 9.56808 39.4162 9.90775 39.4162H31.0382C31.3778 39.4162 31.6523 39.6906 31.6523 40.0303V47.1934C31.6523 47.5331 31.3751 47.8076 31.0382 47.8076ZM28.1333 46.5766H30.424V40.6446H28.1333V46.5766ZM24.6115 46.5766H26.9023V40.6446H24.6115V46.5766ZM21.0898 46.5766H23.3806V40.6446H21.0898V46.5766ZM17.5681 46.5766H19.8616V40.6446H17.5681V46.5766ZM14.0463 46.5766H16.3398V40.6446H14.0463V46.5766ZM10.5246 46.5766H12.8181V40.6446H10.5246V46.5766ZM51.6905 21.5004V24.726L53.5411 26.5765V11.62H16.9164V20.8833H18.7669V14.7747C18.7669 14.435 19.0441 14.1605 19.3811 14.1605H51.0764C51.416 14.1605 51.6905 14.435 51.6905 14.7747L51.6905 21.5004ZM50.7964 25.5738C50.6796 25.514 50.5845 25.4189 50.5247 25.3021L47.5927 22.3701L36.5353 33.4274H58.6466L50.7934 25.5742L50.7964 25.5738ZM50.4595 23.4977V22.1173H49.0763L50.4595 23.4977ZM50.4595 17.5249V15.3945H46.4079V17.5249H50.4595ZM45.1768 17.5249V15.3945H41.1252V17.5249H45.1768ZM39.8942 17.5249V15.3945H35.8399V17.5249H39.8942ZM34.6115 17.5249V15.3945H30.5572V17.5249H34.6115ZM29.3289 17.5249V15.3945H25.2773V17.5249H29.3289ZM24.0463 17.5249V15.3945H19.9946V17.5249H24.0463ZM50.4567 18.7559H46.4051V20.8863H50.4621V18.7559H50.4567ZM45.174 18.7559H41.1224V20.8863H45.174V18.7559ZM39.8914 18.7559H35.8371V20.8863H39.8914V18.7559ZM34.6088 18.7559H30.5544V20.8863H34.6088V18.7559ZM29.3261 18.7559H25.2745V20.8863H29.3261V18.7559ZM24.0435 18.7559H19.9919V20.8863H24.0435V18.7559ZM47.848 2.03589H22.5951L14.2362 10.3948H56.2062L47.8501 2.03589H47.848ZM5.37009 52.5715H35.5656V34.6585H5.37009V52.5715ZM56.1116 34.6585H36.7934V52.5715H40.3233V40.8623C40.3233 40.5226 40.5977 40.2482 40.9374 40.2482H51.9649C52.3045 40.2482 52.579 40.5226 52.579 40.8623V52.5715H56.1089V34.6585H56.1116Z" fill="black"/>
<path d="M41.5598 52.5655H51.3532V41.4705H41.5598V52.5655ZM13.8993 20.8834H15.6846V11.6201H12.7607C12.421 11.6201 12.1466 11.3456 12.1466 11.006C12.1466 10.8293 12.2226 10.669 12.3395 10.5576L21.913 0.984034C22.0326 0.864465 22.1902 0.804688 22.3478 0.804688H48.1085C48.2852 0.804688 48.4428 0.878058 48.5569 0.99762L58.1304 10.5712C58.3696 10.8103 58.3696 11.1989 58.1304 11.4407C58.0109 11.5603 57.8533 11.6228 57.6957 11.6228H54.7718V27.8106L60.5707 33.6068C60.8098 33.8459 60.8098 34.2372 60.5707 34.4764C60.4511 34.5959 60.2935 34.6557 60.1359 34.6557H57.3506V53.183C57.3506 53.5227 57.0734 53.7971 56.7364 53.7971H4.76358C4.4239 53.7971 4.14945 53.52 4.14945 53.183V34.6557H1.36413C1.02446 34.6557 0.75 34.3813 0.75 34.0416C0.75 33.8649 0.826091 33.7046 0.942932 33.5932L13.4702 21.0659C13.5898 20.9464 13.7474 20.8866 13.905 20.8866L13.8993 20.8834ZM16.2987 22.1143H14.1547L2.8448 33.4243H34.7989L46.1088 22.1143H16.2966H16.2987ZM31.0382 47.8076H9.90775C9.56808 47.8076 9.29362 47.5331 9.29362 47.1934V40.0303C9.29362 39.6906 9.56808 39.4162 9.90775 39.4162H31.0382C31.3778 39.4162 31.6523 39.6906 31.6523 40.0303V47.1934C31.6523 47.5331 31.3751 47.8076 31.0382 47.8076ZM28.1333 46.5766H30.424V40.6446H28.1333V46.5766ZM24.6115 46.5766H26.9023V40.6446H24.6115V46.5766ZM21.0898 46.5766H23.3806V40.6446H21.0898V46.5766ZM17.5681 46.5766H19.8616V40.6446H17.5681V46.5766ZM14.0463 46.5766H16.3398V40.6446H14.0463V46.5766ZM10.5246 46.5766H12.8181V40.6446H10.5246V46.5766ZM51.6905 21.5004V24.726L53.5411 26.5765V11.62H16.9164V20.8833H18.7669V14.7747C18.7669 14.435 19.0441 14.1605 19.3811 14.1605H51.0764C51.416 14.1605 51.6905 14.435 51.6905 14.7747L51.6905 21.5004ZM50.7964 25.5738C50.6796 25.514 50.5845 25.4189 50.5247 25.3021L47.5927 22.3701L36.5353 33.4274H58.6466L50.7934 25.5742L50.7964 25.5738ZM50.4595 23.4977V22.1173H49.0763L50.4595 23.4977ZM50.4595 17.5249V15.3945H46.4079V17.5249H50.4595ZM45.1768 17.5249V15.3945H41.1252V17.5249H45.1768ZM39.8942 17.5249V15.3945H35.8399V17.5249H39.8942ZM34.6115 17.5249V15.3945H30.5572V17.5249H34.6115ZM29.3289 17.5249V15.3945H25.2773V17.5249H29.3289ZM24.0463 17.5249V15.3945H19.9946V17.5249H24.0463ZM50.4567 18.7559H46.4051V20.8863H50.4621V18.7559H50.4567ZM45.174 18.7559H41.1224V20.8863H45.174V18.7559ZM39.8914 18.7559H35.8371V20.8863H39.8914V18.7559ZM34.6088 18.7559H30.5544V20.8863H34.6088V18.7559ZM29.3261 18.7559H25.2745V20.8863H29.3261V18.7559ZM24.0435 18.7559H19.9919V20.8863H24.0435V18.7559ZM47.848 2.03589H22.5951L14.2362 10.3948H56.2062L47.8501 2.03589H47.848ZM5.37009 52.5715H35.5656V34.6585H5.37009V52.5715ZM56.1116 34.6585H36.7934V52.5715H40.3233V40.8623C40.3233 40.5226 40.5977 40.2482 40.9374 40.2482H51.9649C52.3045 40.2482 52.579 40.5226 52.579 40.8623V52.5715H56.1089V34.6585H56.1116Z" fill="url(#paint0_linear_858_1773)"/>
<defs>
<linearGradient id="paint0_linear_858_1773" x1="30.75" y1="53.7971" x2="30.75" y2="0.804688" gradientUnits="userSpaceOnUse">
<stop stop-color="#5934DF"/>
<stop offset="1" stop-color="#DB80EB"/>
</linearGradient>
</defs>
</svg>
