<svg xmlns="http://www.w3.org/2000/svg" version="1.1" viewBox="0 0 2000 1596" width="500" height="399">
<path transform="translate(0)" d="m0 0h2e3v1596h-2e3z" fill="#1e1441"/>
<path transform="translate(1113,299)" d="m0 0h2l5 27-1 5-20 6-17 7-17 10-13 9-14 12-10 9-11 12-11 15-14 24-8 20-6 20-4 24v31l3 20 6 22 8 22 8 18 14 29 10 19 17 33 12 26 9 24 7 24 3 19 1 10v19l-3 19-4 15-9 22-10 17-12 16-9 10-13 13-8 7-13 10-24 14-22 11-20 8-38 12-32 7-41 6-52 5-8 7-17 16-10 9-11 9-10 9-13 10-16 13-17 13-18 14-17 12-16 12-11 7-18 12-25 16-42 26-29 17-27 14-38 19-26 11-28 10-25 8-31 6-23 3-14 1h-11l-28-2-31-5-23-6-23-8-26-11-29-14-29-15-8-4v-2l35-12 37-14 28-12 28-13 35-18 23-13 24-14 22-14 25-17 16-11 13-10 14-11 17-14 10-8 14-12 11-9 15-14 13-12 49-49 1-2h2l2-4 14-14 7-8 8-8 7-8 18-20 9-11 24-28 9-10 18-22 12-14 13-15 10-11 7-8 12-14 7-7 7-8 8-8 7-8 8-8 7-8 10-10 8-7 8-8 8-7 10-9 15-13 11-9 20-15 23-16 25-15 22-12 26-12 35-13 9-3h2l-1-12v-30l2-19 4-20 7-21 8-18 12-23 11-16 8-10 7-9 15-15 11-9 17-13 20-12 20-9 26-8z" fill="#ffffff"/>
<path transform="translate(1077,80)" d="m0 0 22 3 36 7 49 13 30 10 25 10 25 11 46 23 23 14 16 10 17 12 12 9 11 9 14 11 13 11 11 9 47 47 9 11 12 14 13 17 12 15 12 18 14 22 14 24 15 29 9 19 11 26 3 8v4l-53 1-20 2-26 4-21 6-16 7-14 8-10 7-12 11-13 18-9 19-7 21-5 25-4 32-2 39-1 57-2 34-4 35-5 29-7 30-9 29-11 28-9 19-12 21-10 14-8 11-9 11-11 12-12 11-10 9-17 13-21 14-18 10-24 11-27 10-24 7-11 3 8 16 12 19 9 15 13 22 15 24 10 17 15 24v2l85-17 76-13 48-7 56-7 65-7 55-5 84-6 39-2 88-2h38l1 1v14l-1 17-74 1-53 2-135 9-79 7-6 1 57 13 39 10 43 12 39 12 37 13 8 3-1 7-5 15-3 8-6-1-35-12-38-12-34-10-27-7-55-13-81-16-42-7h-9l-54 9-114 22-66 15-49 12-47 12-35 10-32 9-38 12-58 19-30 10-69 25-37 15-60 25-33 15-29 14-15 7-5 1-8-16-4-9v-3l16-8 33-16 36-16 35-15 30-12 41-16 55-20 34-12 28-9 50-16-2-6-14-22-16-25-13-21-10-15-14-22-8-13-6-12-10-60-16-3-66-10-15-3-1-5 4-25 4-1 66 10 41 5 35 3 58 3h40l38-3 32-4 28-5 21-5 36-12 23-11 17-9 21-13 13-10 14-12 19-19 11-14 12-17 11-19 8-16 10-24 8-25 7-29 6-34 3-25 2-29 3-90 3-37 4-29 5-23 7-21 6-14-2-5-7-7-14-21-11-23-8-24-4-22-1-12v-23l3-22 7-25 5-15 11-24 10-18 9-14 12-17 8-10 2-4-13-10-12-11-19-14-18-13-21-13-22-13-22-12-16-8-20-9-23-9-28-10-30-9-36-9-46-9-2-1 4-30z" fill="#ffffff"/>
<path transform="translate(948,576)" d="m0 0 3 1 3 9 8 22 12 26 8 17 12 22 23 46 10 24 6 19 4 17 2 11v26l-3 17-5 15-8 16-7 12-9 11-11 12-11 9-13 10-15 10-17 9-20 8-24 8-26 7-31 6-31 4-29 3-16 1-44 1-56-2-50-4-83-10-11-2 3-5 9-10 14-15 9-11 9-9 7-8 12-14 7-8 9-10 9-11 12-13 9-11 9-10 9-11 14-15 7-8 26-30 11-11 7-8 12-12 7-8 20-20 8-7 16-15 14-11 13-11 16-12 20-14 19-12 22-12 23-11 33-13z" fill="#1e1441"/>
<path transform="translate(491,984)" d="m0 0 16 3 66 9 36 4 51 4 53 3-1 3-11 9-11 10-11 9-8 7-14 11-18 14-15 11-31 21-20 14-12 8-20 13-28 17-22 13-17 10-15 9-42 22-30 14-21 8-34 10-27 6-23 3h-35l-18-2-17-3-25-7-26-9-15-6-1-3 39-18 27-13 23-11 24-13 17-10 25-15 19-12 30-21 17-13 12-9 18-14 16-13 14-12 17-16 20-18 12-11z" fill="#1e1441"/>
<path transform="translate(1084,1121)" d="m0 0h5l6 9 17 29 12 19 16 26 10 17 15 24 8 13-1 3-108 27-57 16-15 4-5-1-10-16-16-25-14-22-11-17-12-19-13-21-6-10-3-10-6-36v-6l37 2 29 1h34l41-2z" fill="#1e1441"/>
<path transform="translate(1423,285)" d="m0 0 4 1 9 9 7 8 10 10 7 8 11 13 10 13 13 18 12 17 13 20 15 26 16 30 2 5-12 2-37 4-25 5-20 6-22 10-14 9-14 11-7 7-4-2-7-10-12-21-4-11-4-13-3-14-1-10v-22l2-17 5-22 6-18 12-25 11-18 11-16z" fill="#1e1441"/>
<path transform="translate(1316,1301)" d="m0 0h16l21 3 18 6 17 8 16 12 12 12 11 15 11 19 8 17 9 27 6 27 3 26v13l-9-2-32-10-19-8-16-8-12-7-14-11-13-11-11-12-10-13-12-23-5-13-5-19-2-12v-32l2-3z" fill="#ffffff"/>
<path transform="translate(1505,982)" d="m0 0h2v52l-3 23-5 20-8 21-11 21-10 13-14 15-13 10-14 9-19 9-21 6h-5l-6-18-4-16-1-7v-25l3-17 6-16 10-19 8-10 9-10 15-15 17-13 22-14 22-11z" fill="#ffffff"/>
<path transform="translate(1765,969)" d="m0 0h1v49l-4 26-5 16-5 12-8 15-10 13-11 12-13 10-15 9-15 6-19 5-4-9-6-22-1-5v-27l4-15 7-16 7-11 9-12 12-12 14-11 14-10 29-15z" fill="#ffffff"/>
<path transform="translate(1577,1338)" d="m0 0 8 1 21 7 16 9 10 8 7 7 9 13 8 15 6 20 2 12v49l-3 20-6 24-4-1-18-13-11-8-11-10-8-7-11-13-10-15-9-19-5-16-3-20v-13l3-23 5-16z" fill="#ffffff"/>
<path transform="translate(1789,1257)" d="m0 0h27l19 3 15 4 22 9 14 9 18 14 8 8 9 11 10 13 4 7-10 5-23 7-17 3-11 1h-17l-23-4-19-6-12-5-14-9-13-11-7-7-13-18-8-15-3-9 8-3 23-5z" fill="#ffffff"/>
<path transform="translate(1234,348)" d="m0 0h12l12 2 10 4 11 8 9 9 6 10 5 16v17l-4 16-8 13-7 8-14 9-11 4-6 1h-16l-13-3-12-6-10-9-6-7-7-14-3-14v-10l3-15 7-14 10-11 10-7 12-5z" fill="#ffffff"/>
<path transform="translate(1051,193)" d="m0 0 25 5 60 15 39 14 27 12 25 13 21 13 17 12 10 8-5 5-9 12-6 7-4-1-9-7-19-13-17-10-29-14-27-11-31-10-38-10-34-7 1-14 2-18z" fill="#ffffff"/>
<path transform="translate(1337,1334)" d="m0 0 11 2 12 4 14 8 10 8 12 12 9 14 9 17 8 21 4 14v6l-6-1-19-10-11-7-9-7-12-11-11-13-8-13-8-17-5-18-1-8z" fill="#1e1441"/>
<path transform="translate(1473,1032)" d="m0 0h2l-2 17-4 18-8 21-9 15-10 13-9 9-14 10-10 6-4-1v-25l4-15 8-16 8-12 21-21 15-11z" fill="#1e1441"/>
<path transform="translate(1235,380)" d="m0 0h10l9 3 9 8 4 9v14l-4 8-5 6-8 4-3 1h-11l-10-3-7-7-4-8-1-4v-9l3-8 6-8 7-4z" fill="#1e1441"/>
<path transform="translate(1731,1021)" d="m0 0h2l-1 11-6 21-9 17-10 13-6 6h-2v2l-11 8-5 1-1-1v-15l3-11 4-9 7-12 12-13 11-10z" fill="#1e1441"/>
<path transform="translate(1599,1379)" d="m0 0 7 4 6 5 8 11 7 14 4 12 2 17 1 15-1 9-5-2-11-13-9-14-7-16-4-18v-19z" fill="#1e1441"/>
<path transform="translate(1797,1288)" d="m0 0 16 1 18 3 20 6 17 9 10 8 1 3-2 1h-15l-21-3-17-6-14-8-13-10z" fill="#1e1441"/>
</svg>