<svg xmlns="http://www.w3.org/2000/svg" xmlns:xlink="http://www.w3.org/1999/xlink" version="1.1" id="Layer_1" x="0px" y="0px" viewBox="0 0 95.3 47.1" style="enable-background:new 0 0 95.3 47.1;" xml:space="preserve">
<style type="text/css">
	.st0{fill:url(#SVGID_1_);}
	.st1{fill:#FFFFFF;}
</style>
<linearGradient id="SVGID_1_" gradientUnits="userSpaceOnUse" x1="-0.4551" y1="77.0368" x2="-0.4551" y2="34.6228" gradientTransform="matrix(1.1216 0 0 -1.1216 48.1485 86.5563)" fill="#000000">
	<stop offset="0" style="stop-color:#1e1441" fill="#000000"/>
	<stop offset="0.22" style="stop-color:#1e1441" fill="#000000"/>
	<stop offset="0.79" style="stop-color:#1e1441" fill="#000000"/>
	<stop offset="1" style="stop-color:#1e1441" fill="#000000"/>
</linearGradient>
<path class="st0" d="M0,0v47.1h48.1L95.3,0L0,0L0,0z" fill="#000000"/>
<path class="st1" d="M58.1,21.9h-2v-7.3h2c2.7,0,4.8,0.9,4.8,3.6C62.9,21.1,60.8,21.9,58.1,21.9 M36.5,27.2c-1,0-2-0.2-2.9-0.5  l2.9-9.1h0.1l2.8,9.2C38.4,27,37.5,27.2,36.5,27.2 M57.6,8.6h-9.1v21.7l-8-21.7h-7.9l-6.8,18.1c-0.7-4.6-5.5-6.2-9.2-7.3  c-2.5-0.8-5.1-2-5-3.2c0-1,1.4-2,4.1-1.9c1.8,0.1,3.5,0.2,6.7,1.8l3.2-5.5c-2.9-1.5-7-2.4-10.3-2.4h0c-3.9,0-7.1,1.3-9.1,3.3  c-1.4,1.4-2.2,3.3-2.2,5.3c-0.1,2.8,1,4.8,3.1,6.4c1.8,1.3,4.1,2.2,6.2,2.8c2.5,0.8,4.6,1.5,4.6,2.9c0,0.5-0.2,1-0.6,1.4  c-0.6,0.7-1.6,0.9-2.9,0.9c-2.6,0.1-4.5-0.3-7.6-2.2l-2.8,5.6c3.1,1.8,6.7,2.7,10.3,2.7h0.5c3.2-0.1,5.8-1,7.9-2.6l0.3-0.3L21.9,37  h8.3l1.4-4.2c3.1,1,6.5,1,9.6,0l1.3,4.2h13.5v-8.8h3c7.1,0,11.3-3.6,11.3-9.7C70.4,11.8,66.3,8.6,57.6,8.6" fill="#000000"/>
</svg>