<svg width="80" height="81" viewBox="0 0 80 81" fill="none" xmlns="http://www.w3.org/2000/svg">
<path d="M70 24.0498H63.75V20.2998C63.75 18.6422 63.0915 17.0525 61.9194 15.8804C60.7473 14.7083 59.1576 14.0498 57.5 14.0498H12.5C10.8424 14.0498 9.25269 14.7083 8.08058 15.8804C6.90848 17.0525 6.25 18.6422 6.25 20.2998V50.2998C6.25 51.9574 6.90848 53.5471 8.08058 54.7192C9.25269 55.8913 10.8424 56.5498 12.5 56.5498H48.75V60.2998C48.75 61.9574 49.4085 63.5471 50.5806 64.7192C51.7527 65.8913 53.3424 66.5498 55 66.5498H70C71.6576 66.5498 73.2473 65.8913 74.4194 64.7192C75.5915 63.5471 76.25 61.9574 76.25 60.2998V30.2998C76.25 28.6422 75.5915 27.0525 74.4194 25.8804C73.2473 24.7083 71.6576 24.0498 70 24.0498ZM12.5 54.0498C11.5054 54.0498 10.5516 53.6547 9.84835 52.9515C9.14509 52.2482 8.75 51.2944 8.75 50.2998V20.2998C8.75 19.3052 9.14509 18.3514 9.84835 17.6482C10.5516 16.9449 11.5054 16.5498 12.5 16.5498H57.5C58.4946 16.5498 59.4484 16.9449 60.1516 17.6482C60.8549 18.3514 61.25 19.3052 61.25 20.2998V24.0498H55C53.3424 24.0498 51.7527 24.7083 50.5806 25.8804C49.4085 27.0525 48.75 28.6422 48.75 30.2998V54.0498H12.5ZM73.75 60.2998C73.75 61.2944 73.3549 62.2482 72.6516 62.9515C71.9484 63.6547 70.9946 64.0498 70 64.0498H55C54.0054 64.0498 53.0516 63.6547 52.3484 62.9515C51.6451 62.2482 51.25 61.2944 51.25 60.2998V30.2998C51.25 29.3052 51.6451 28.3514 52.3484 27.6482C53.0516 26.9449 54.0054 26.5498 55 26.5498H70C70.9946 26.5498 71.9484 26.9449 72.6516 27.6482C73.3549 28.3514 73.75 29.3052 73.75 30.2998V60.2998ZM41.25 65.2998C41.25 65.6313 41.1183 65.9493 40.8839 66.1837C40.6495 66.4181 40.3315 66.5498 40 66.5498H27.5C27.1685 66.5498 26.8505 66.4181 26.6161 66.1837C26.3817 65.9493 26.25 65.6313 26.25 65.2998C26.25 64.9683 26.3817 64.6503 26.6161 64.4159C26.8505 64.1815 27.1685 64.0498 27.5 64.0498H40C40.3315 64.0498 40.6495 64.1815 40.8839 64.4159C41.1183 64.6503 41.25 64.9683 41.25 65.2998ZM66.25 35.2998C66.25 35.6313 66.1183 35.9493 65.8839 36.1837C65.6495 36.4181 65.3315 36.5498 65 36.5498H60C59.6685 36.5498 59.3505 36.4181 59.1161 36.1837C58.8817 35.9493 58.75 35.6313 58.75 35.2998C58.75 34.9683 58.8817 34.6503 59.1161 34.4159C59.3505 34.1815 59.6685 34.0498 60 34.0498H65C65.3315 34.0498 65.6495 34.1815 65.8839 34.4159C66.1183 34.6503 66.25 34.9683 66.25 35.2998Z" fill="white"/>
</svg>
