<svg width="48" height="49" viewBox="0 0 48 49" fill="none" xmlns="http://www.w3.org/2000/svg">
<g clip-path="url(#clip0_100_7981)">
<g clip-path="url(#clip1_100_7981)">
<path d="M25.3729 41.8174H7.20086C6.99718 41.8174 6.80183 41.7365 6.6578 41.5924C6.51377 41.4484 6.43286 41.2531 6.43286 41.0494V22.8774C6.43286 22.6737 6.51377 22.4783 6.6578 22.3343C6.80183 22.1903 6.99718 22.1094 7.20086 22.1094H25.3729C25.5766 22.1094 25.7719 22.1903 25.916 22.3343C26.06 22.4783 26.1409 22.6737 26.1409 22.8774V41.0494C26.1409 41.2531 26.06 41.4484 25.916 41.5924C25.7719 41.7365 25.5766 41.8174 25.3729 41.8174ZM7.96886 40.2814H24.6049V23.6454H7.96886V40.2814Z" fill="#DB80EB"/>
<path d="M40.7992 41.8171H29.5971V40.2811H40.0312V8.21708H7.96715V18.6546H6.43115V7.45062C6.43115 7.24693 6.51207 7.05159 6.65609 6.90756C6.80012 6.76353 6.99547 6.68262 7.19915 6.68262H40.7992C41.0028 6.68262 41.1982 6.76353 41.3422 6.90756C41.4862 7.05159 41.5672 7.24693 41.5672 7.45062V41.0506C41.5667 41.2541 41.4857 41.449 41.3417 41.5927C41.1977 41.7364 41.0026 41.8171 40.7992 41.8171Z" fill="#DB80EB"/>
</g>
</g>
<defs>
<clipPath id="clip0_100_7981">
<rect width="48" height="48" fill="white" transform="translate(0 0.25)"/>
</clipPath>
<clipPath id="clip1_100_7981">
<rect width="48" height="48" fill="white" transform="translate(0 0.25)"/>
</clipPath>
</defs>
</svg>
