<svg width="48" height="49" viewBox="0 0 48 49" fill="none" xmlns="http://www.w3.org/2000/svg">
<g clip-path="url(#clip0_100_7965)">
<path d="M25.2001 8.64987C25.1998 8.45403 25.1517 8.26121 25.0599 8.08824C24.968 7.91528 24.8352 7.76742 24.673 7.65759C24.5109 7.54775 24.3243 7.47927 24.1296 7.45813C23.9349 7.43698 23.738 7.46381 23.556 7.53627L9.47525 13.1139C8.80445 13.3794 8.22888 13.8403 7.82319 14.4368C7.4175 15.0334 7.2004 15.738 7.20005 16.4595V30.2427C7.20001 30.4384 7.24787 30.6312 7.33944 30.8042C7.43101 30.9772 7.56351 31.1252 7.7254 31.2353C7.88728 31.3453 8.07363 31.4141 8.2682 31.4356C8.46276 31.4571 8.65963 31.4307 8.84165 31.3587L9.60005 31.0563V33.6363C9.0571 33.8282 8.47602 33.8871 7.90559 33.808C7.33516 33.7289 6.79203 33.5142 6.3218 33.1817C5.85156 32.8492 5.46795 32.4088 5.20316 31.8974C4.93837 31.386 4.80013 30.8186 4.80005 30.2427V16.4595C4.80032 15.2568 5.162 14.082 5.83817 13.0874C6.51434 12.0929 7.47379 11.3244 8.59205 10.8819L22.6728 5.30427C23.2013 5.09474 23.7718 5.01332 24.3377 5.06667C24.9036 5.12002 25.4489 5.30663 25.9288 5.61122C26.4088 5.91581 26.8098 6.32973 27.099 6.81909C27.3882 7.30844 27.5575 7.85934 27.5928 8.42667L25.1976 9.37467L25.2001 8.64987ZM32.4 13.4523C32.4002 13.2562 32.3524 13.0631 32.2607 12.8898C32.169 12.7165 32.0362 12.5684 31.874 12.4583C31.7118 12.3482 31.5251 12.2795 31.3302 12.2582C31.1353 12.2369 30.9382 12.2637 30.756 12.3363L15.9168 18.2163C15.4702 18.3931 15.0868 18.6998 14.8164 19.0969C14.546 19.494 14.4009 19.9631 14.4 20.4435V35.0403C14.4 35.236 14.4479 35.4288 14.5394 35.6018C14.631 35.7748 14.7635 35.9228 14.9254 36.0329C15.0873 36.1429 15.2736 36.2117 15.4682 36.2332C15.6628 36.2547 15.8596 36.2283 16.0416 36.1563L19.2 34.9059V37.4883L16.9272 38.3907C16.3811 38.6073 15.7902 38.6869 15.2062 38.6226C14.6222 38.5584 14.0627 38.3521 13.5768 38.0219C13.0908 37.6917 12.693 37.2475 12.4182 36.7282C12.1433 36.2089 11.9998 35.6302 12 35.0427V20.4459C11.9999 19.4834 12.289 18.5432 12.83 17.7471C13.371 16.9511 14.1387 16.3361 15.0336 15.9819L29.8728 10.1043C30.4189 9.88816 31.0095 9.80892 31.5932 9.87344C32.1769 9.93797 32.736 10.1443 33.2216 10.4745C33.7073 10.8046 34.1048 11.2486 34.3795 11.7676C34.6542 12.2867 34.7978 12.865 34.7976 13.4523V13.6971L32.4 14.6499V13.4523ZM39.1585 17.1339C39.3405 17.0618 39.5373 17.0354 39.7319 17.0569C39.9265 17.0784 40.1128 17.1472 40.2747 17.2573C40.4366 17.3673 40.5691 17.5153 40.6607 17.6883C40.7522 17.8613 40.8001 18.0541 40.8 18.2499V34.1451C40.8001 34.3857 40.7278 34.6208 40.5926 34.8198C40.4573 35.0188 40.2654 35.1725 40.0416 35.2611L25.6416 40.9635C25.4598 41.0354 25.2632 41.0619 25.0688 41.0405C24.8744 41.0191 24.6882 40.9505 24.5264 40.8407C24.3646 40.731 24.232 40.5833 24.1403 40.4106C24.0485 40.2379 24.0004 40.0454 24 39.8499V23.9523C24 23.7117 24.0723 23.4766 24.2075 23.2776C24.3428 23.0786 24.5347 22.9248 24.7584 22.8363L39.1585 17.1339ZM43.2001 18.2499C43.2002 17.6626 43.0566 17.0843 42.7819 16.5652C42.5072 16.0462 42.1097 15.6022 41.624 15.2721C41.1384 14.9419 40.5793 14.7356 39.9956 14.671C39.4119 14.6065 38.8213 14.6858 38.2752 14.9019L23.8752 20.6067C23.2044 20.8722 22.6289 21.3331 22.2232 21.9296C21.8175 22.5262 21.6004 23.2308 21.6 23.9523V39.8499C21.6003 40.4369 21.7442 41.015 22.0191 41.5337C22.2939 42.0524 22.6915 42.4961 23.1771 42.826C23.6627 43.1558 24.2216 43.362 24.8051 43.4264C25.3886 43.4908 25.979 43.4115 26.5248 43.1955L40.9249 37.4931C41.596 37.2274 42.1719 36.7662 42.5776 36.1691C42.9833 35.5721 43.2002 34.8669 43.2001 34.1451V18.2499Z" fill="#DB80EB"/>
</g>
<defs>
<clipPath id="clip0_100_7965">
<rect width="48" height="48" fill="white" transform="translate(0 0.25)"/>
</clipPath>
</defs>
</svg>
