<svg xmlns="http://www.w3.org/2000/svg" xmlns:xlink="http://www.w3.org/1999/xlink" version="1.1" id="swift" x="0px" y="0px" viewBox="0 0 2095.3 650.9" style="enable-background:new 0 0 2095.3 650.9;" xml:space="preserve">
<style type="text/css">
	.st0{fill:#1e1441;}
	.st1{fill:#FFFFFF;}
</style>
<path class="st0" d="M716.8,204.4c0-5.5-0.1-10.9-0.2-16.4c-0.3-11.9-1-23.9-3.1-35.6c-2-11.8-5.8-23.2-11.2-33.9  c-10.9-21.5-28.4-38.9-49.8-49.8c-10.7-5.4-22.1-9.1-33.9-11.2c-11.8-2.1-23.8-2.8-35.7-3.1c-5.5-0.2-10.9-0.2-16.4-0.3  c-6.5,0-13,0-19.5,0H344c-6.5,0-13,0-19.4,0c-5.5,0-10.9,0.1-16.4,0.3c-3,0.1-6,0.2-8.9,0.3c-8.9,0.4-17.9,1.2-26.7,2.8  c-8.8,1.5-17.4,4-25.7,7.4c-13.9,5.7-26.4,14.1-37,24.7c-8.5,8.5-15.5,18.2-21,28.8c-5.5,10.9-9,22-11.2,33.9  c-2.1,11.8-2.8,23.8-3.1,35.6c-0.2,5.5-0.2,10.9-0.3,16.4c0,6.5,0,13,0,19.5V427c0,6.5,0,13,0,19.5c0,5.5,0.1,10.9,0.3,16.4  c0.3,11.9,1,23.9,3.1,35.6c2,11.8,5.8,23.2,11.2,33.9c10.9,21.5,28.4,38.9,49.8,49.8c10.8,5.5,21.9,9,33.9,11.2  c11.8,2.1,23.8,2.8,35.6,3.1c5.5,0.1,10.9,0.2,16.4,0.2c6.5,0,12.9,0,19.4,0h203.1c6.5,0,13,0,19.4,0c5.5,0,10.9-0.1,16.4-0.2  c11.9-0.3,23.9-1,35.7-3.1c11.8-2,23.2-5.8,33.9-11.2c21.5-10.9,38.9-28.4,49.8-49.8c5.5-10.9,9-22,11.2-33.9  c2.1-11.8,2.8-23.7,3.1-35.6c0.1-5.4,0.2-10.9,0.2-16.4c0-6.5,0-13,0-19.5V223.9C716.9,217.4,716.9,210.9,716.8,204.4L716.8,204.4z" fill="#ffffff"/>
<path class="st1" d="M604.2,389.1L604.2,389.1c0.6-2.1,1.2-4.1,1.7-6.2c22.5-89.7-32.5-195.8-125.5-251.7  c40.8,55.3,58.8,122.2,42.8,180.7c-1.4,5.2-3.1,10.2-5,15.1c-2.6-1.7-5.4-3.3-8.1-4.8c0,0-92.5-57.1-192.8-158.2  c-2.6-2.7,53.5,80.2,117.2,147.5c-30-16.8-113.6-77.7-166.5-126.1c6.5,10.9,14.2,21.3,22.7,31.3c44.2,56,101.8,125.2,170.9,178.3  c-48.5,29.7-117.1,32-185.3,0c-16.7-7.8-32.6-17.3-47.5-28.3c30.5,48.5,75,86.6,127.6,109.4c64.6,27.8,128.8,25.9,176.7,0.5l0,0.1  c0.2-0.1,0.5-0.3,0.7-0.4c2-1,3.9-2.1,5.8-3.3c23-11.9,68.4-24,92.8,23.4C638.2,508,650.9,446.5,604.2,389.1L604.2,389.1z" fill="#ffffff"/>
<path d="M922.8,406.3c4.2,37.6,40.2,62.3,90,62.3c47.4,0,81.5-24.7,81.5-58.8c0-29.4-20.7-47.4-68.3-59.3l-46.1-11.7  c-66.3-16.4-96.2-46.4-96.2-95.7c0-60.8,53.1-103,128.7-103c73.3,0,125.4,42.4,127.2,103.5h-48.6c-3.7-37.4-34.2-60.3-79.8-60.3  c-45.1,0-76.6,23.2-76.6,57.1c0,26.4,19.5,42.1,67.3,54.4l38.4,10c74.3,18.2,104.7,47.1,104.7,99.2c0,66.3-52.6,108-136.4,108  c-77.8,0-130.9-41.4-134.9-105.5L922.8,406.3L922.8,406.3z M1453.8,505.8H1405l-57.1-199h-1l-56.9,199h-48.9l-72.3-260.6h47.4  l50.4,209.2h1l56.8-209.2h45.9l57.3,209.2h1l50.4-209.2h46.9L1453.8,505.8z M1557.5,175.1c0-15.7,13-28.4,28.7-28.4  c16,0,28.9,12.7,28.9,28.4c0,15.7-13,28.7-28.9,28.7C1570.3,203.7,1557.6,190.9,1557.5,175.1L1557.5,175.1z M1562.5,245.2h47.6  v260.6h-47.6L1562.5,245.2z M1921.1,283.6v-38.4h-50.4v-62.3h-47.4v62.3h-91v-22.9c0.2-23.2,9.2-32.9,30.7-32.9c7,0,14,0.8,19.7,1.8  v-37.4c-8.3-1.3-16.7-2-25.2-2c-50.9,0-72.3,21.2-72.3,69.8v23.7h-36.4v38.4h36.4v222.2h47.4V283.6h90.8v153.8  c0,50.4,19.2,69.8,69.1,69.8c10.7,0,22.9-0.7,28.4-2v-38.9c-6,0.7-12,1.2-18,1.2c-22.2,0-32.2-10.5-32.2-33.9V283.6H1921.1z" fill="#ffffff"/>
</svg>