<svg width="93" height="51" viewBox="0 0 93 51" fill="none" xmlns="http://www.w3.org/2000/svg">
<path fill-rule="evenodd" clip-rule="evenodd" d="M1.87159 27.88C1.24362 27.88 0.71708 27.3683 0.707085 26.7337C0.709177 26.1014 1.22999 25.5729 1.87173 25.5729L21.1541 25.5684C21.7881 25.5684 22.3053 26.09 22.3188 26.7331C22.3188 27.3671 21.7971 27.8977 21.1541 27.8977H18.6089L18.0783 31.6166L59.3368 31.6121L63.0647 4.86086C63.1321 4.39322 63.0152 3.94354 62.7409 3.61976C62.4801 3.31848 62.0619 3.14759 61.6032 3.14759H24.0861C22.9799 3.14759 21.9186 4.08288 21.7702 5.19809L21.5859 6.51113H23.7983C24.4324 6.51113 24.963 7.04176 24.963 7.67579C24.963 8.30981 24.4414 8.84044 23.7983 8.84044H12.1967C11.5627 8.84044 11.032 8.30981 11.032 7.67579C11.032 7.04176 11.5536 6.51113 12.1967 6.51113H19.2297L19.4591 4.86528C19.7828 2.59894 21.8198 0.813681 24.0863 0.813681L61.5942 0.804688C62.7454 0.804688 63.7706 1.2544 64.4946 2.08181C65.2321 2.92275 65.5334 4.01546 65.3715 5.18012L65.1512 6.81699H77.6162C80.1749 6.81699 82.4637 7.80632 84.0871 9.59158L90.3736 16.5211C92.2758 18.6168 93.1032 21.5396 92.6895 24.5435L90.6749 38.969C90.4231 40.7093 88.8807 42.0673 87.1314 42.0673H82.0905C82.0815 42.3461 82.059 42.6339 82.0231 42.9082C81.425 47.2612 77.3869 50.8047 73.0115 50.8047C70.8395 50.8047 68.9059 49.9549 67.5568 48.3989C66.1942 46.834 65.6186 44.7745 65.9199 42.5756C65.9363 42.451 65.9647 42.324 65.9928 42.1982L66.0041 42.1472C66.0107 42.1175 66.0171 42.0879 66.0234 42.0584H37.1263C37.1173 42.3372 37.0948 42.625 37.0588 42.8993C36.4608 47.2523 32.4182 50.7958 28.0562 50.7958C25.8707 50.7958 23.9372 49.946 22.6015 48.39C21.23 46.8251 20.6544 44.7656 20.9557 42.5666C20.9721 42.4421 21.0004 42.3152 21.0285 42.1893C21.039 42.1425 21.0494 42.0958 21.0591 42.0495H18.6668C17.5157 42.0495 16.477 41.5998 15.753 40.7724C15.0245 39.9314 14.7142 38.8387 14.8761 37.6875L16.2476 27.88H1.87159ZM0.707085 26.7337L0.707031 26.7299L0.707079 26.7376L0.707085 26.7337ZM73.0024 48.4625C76.2447 48.4625 79.262 45.8139 79.7117 42.5672L79.7162 42.5672C79.923 41.0607 79.5408 39.6443 78.6324 38.5965C77.7331 37.5712 76.4201 36.9956 74.9361 36.9956C71.6939 36.9956 68.6765 39.6443 68.2269 42.891C68.1909 43.1563 68.1684 43.4306 68.1684 43.6959C68.1684 44.8921 68.5596 45.9983 69.3061 46.8617C70.2054 47.8869 71.5185 48.4625 73.0024 48.4625ZM64.8405 9.13789L62.2954 27.314L62.3083 27.305L60.568 39.7251H66.8771C68.4195 36.7752 71.5987 34.6707 74.9489 34.6707C77.1208 34.6707 79.0545 35.5207 80.4035 37.063C81.0691 37.8455 81.5547 38.7403 81.829 39.7206H87.1488C87.7244 39.7206 88.3 39.226 88.3809 38.6369L90.3955 24.2022C90.7193 21.8908 90.0718 19.6559 88.6463 18.0686L82.3732 11.139C81.1996 9.85288 79.5177 9.13789 77.6291 9.13789H64.8405ZM28.0473 48.4625C31.2805 48.4625 34.2978 45.8139 34.7475 42.5672C34.9544 41.0607 34.5721 39.6443 33.6638 38.5965C32.7645 37.5713 31.4514 36.9957 29.9674 36.9957C26.7342 36.9957 23.7079 39.6443 23.2582 42.891C23.0513 44.3975 23.4291 45.8139 24.3509 46.8617C25.2368 47.8869 26.5498 48.4625 28.0473 48.4625ZM17.7537 33.9333L17.1781 38.0075L17.2101 38.0253C17.1427 38.5065 17.2596 38.9561 17.5339 39.2664C17.8082 39.5767 18.1994 39.7386 18.6851 39.7386H21.9183C23.4607 36.7887 26.6399 34.6842 29.9901 34.6842C32.162 34.6842 34.0957 35.5341 35.4447 37.0765C36.1103 37.8589 36.596 38.7538 36.8703 39.7341H58.2121L58.7517 35.8894L59.026 33.9333H17.7537ZM87.1372 19.4753C88.3468 20.7973 88.8774 22.6411 88.6121 24.5387L88.5855 24.5345C88.4461 25.5013 87.5737 26.2747 86.5933 26.2747H66.2404C65.7097 26.2747 65.2151 26.0454 64.8823 25.6542C64.5361 25.2765 64.3877 24.7548 64.4551 24.2152L66.0785 12.6446C66.2179 11.6689 67.0904 10.8954 68.0707 10.8954H77.0508C78.5483 10.8954 79.8973 11.4845 80.8507 12.5323L87.1372 19.4753ZM68.3625 13.2247L66.865 23.9406L66.8742 23.945H86.3408C86.4217 22.8388 86.1024 21.7911 85.4099 21.0311L79.1234 14.0881C78.6288 13.535 77.8913 13.2247 77.0638 13.2247H68.3625ZM74.133 40.4129C72.9143 40.4129 71.8306 41.3572 71.6462 42.5669C71.5652 43.2234 71.7496 43.844 72.1633 44.3296C72.568 44.8017 73.1661 45.0671 73.8092 45.0671C75.0278 45.0671 76.1115 44.1137 76.296 42.9041C76.3769 42.2611 76.206 41.627 75.7788 41.1549C75.3876 40.6962 74.776 40.4174 74.133 40.4174V40.4129ZM26.704 42.5669C26.8748 41.3572 27.9675 40.4129 29.1772 40.4129L29.1773 40.4174C29.8248 40.4174 30.4319 40.6962 30.8366 41.1549C31.2548 41.627 31.4257 42.2611 31.3448 42.9041C31.1603 44.1137 30.0766 45.0671 28.858 45.0671C28.2149 45.0671 27.6168 44.8017 27.2121 44.3296C26.7939 43.844 26.614 43.2234 26.704 42.5669ZM22.9119 15.1679C23.555 15.1679 24.0766 14.6508 24.0766 14.0033C24.0766 13.3602 23.546 12.8386 22.9119 12.8386H8.7512C8.10815 12.8386 7.58654 13.3692 7.58654 14.0033C7.58654 14.6373 8.11717 15.1679 8.7512 15.1679H22.9119ZM5.32492 21.5259C4.6774 21.5259 4.16027 21.0042 4.16027 20.3612C4.16027 19.7272 4.66839 19.1965 5.32492 19.1965H22.0309C22.665 19.1965 23.1956 19.7272 23.1956 20.3612C23.1956 20.9952 22.674 21.5259 22.0309 21.5259H5.32492Z" fill="black"/>
<path fill-rule="evenodd" clip-rule="evenodd" d="M1.87159 27.88C1.24362 27.88 0.71708 27.3683 0.707085 26.7337C0.709177 26.1014 1.22999 25.5729 1.87173 25.5729L21.1541 25.5684C21.7881 25.5684 22.3053 26.09 22.3188 26.7331C22.3188 27.3671 21.7971 27.8977 21.1541 27.8977H18.6089L18.0783 31.6166L59.3368 31.6121L63.0647 4.86086C63.1321 4.39322 63.0152 3.94354 62.7409 3.61976C62.4801 3.31848 62.0619 3.14759 61.6032 3.14759H24.0861C22.9799 3.14759 21.9186 4.08288 21.7702 5.19809L21.5859 6.51113H23.7983C24.4324 6.51113 24.963 7.04176 24.963 7.67579C24.963 8.30981 24.4414 8.84044 23.7983 8.84044H12.1967C11.5627 8.84044 11.032 8.30981 11.032 7.67579C11.032 7.04176 11.5536 6.51113 12.1967 6.51113H19.2297L19.4591 4.86528C19.7828 2.59894 21.8198 0.813681 24.0863 0.813681L61.5942 0.804688C62.7454 0.804688 63.7706 1.2544 64.4946 2.08181C65.2321 2.92275 65.5334 4.01546 65.3715 5.18012L65.1512 6.81699H77.6162C80.1749 6.81699 82.4637 7.80632 84.0871 9.59158L90.3736 16.5211C92.2758 18.6168 93.1032 21.5396 92.6895 24.5435L90.6749 38.969C90.4231 40.7093 88.8807 42.0673 87.1314 42.0673H82.0905C82.0815 42.3461 82.059 42.6339 82.0231 42.9082C81.425 47.2612 77.3869 50.8047 73.0115 50.8047C70.8395 50.8047 68.9059 49.9549 67.5568 48.3989C66.1942 46.834 65.6186 44.7745 65.9199 42.5756C65.9363 42.451 65.9647 42.324 65.9928 42.1982L66.0041 42.1472C66.0107 42.1175 66.0171 42.0879 66.0234 42.0584H37.1263C37.1173 42.3372 37.0948 42.625 37.0588 42.8993C36.4608 47.2523 32.4182 50.7958 28.0562 50.7958C25.8707 50.7958 23.9372 49.946 22.6015 48.39C21.23 46.8251 20.6544 44.7656 20.9557 42.5666C20.9721 42.4421 21.0004 42.3152 21.0285 42.1893C21.039 42.1425 21.0494 42.0958 21.0591 42.0495H18.6668C17.5157 42.0495 16.477 41.5998 15.753 40.7724C15.0245 39.9314 14.7142 38.8387 14.8761 37.6875L16.2476 27.88H1.87159ZM0.707085 26.7337L0.707031 26.7299L0.707079 26.7376L0.707085 26.7337ZM73.0024 48.4625C76.2447 48.4625 79.262 45.8139 79.7117 42.5672L79.7162 42.5672C79.923 41.0607 79.5408 39.6443 78.6324 38.5965C77.7331 37.5712 76.4201 36.9956 74.9361 36.9956C71.6939 36.9956 68.6765 39.6443 68.2269 42.891C68.1909 43.1563 68.1684 43.4306 68.1684 43.6959C68.1684 44.8921 68.5596 45.9983 69.3061 46.8617C70.2054 47.8869 71.5185 48.4625 73.0024 48.4625ZM64.8405 9.13789L62.2954 27.314L62.3083 27.305L60.568 39.7251H66.8771C68.4195 36.7752 71.5987 34.6707 74.9489 34.6707C77.1208 34.6707 79.0545 35.5207 80.4035 37.063C81.0691 37.8455 81.5547 38.7403 81.829 39.7206H87.1488C87.7244 39.7206 88.3 39.226 88.3809 38.6369L90.3955 24.2022C90.7193 21.8908 90.0718 19.6559 88.6463 18.0686L82.3732 11.139C81.1996 9.85288 79.5177 9.13789 77.6291 9.13789H64.8405ZM28.0473 48.4625C31.2805 48.4625 34.2978 45.8139 34.7475 42.5672C34.9544 41.0607 34.5721 39.6443 33.6638 38.5965C32.7645 37.5713 31.4514 36.9957 29.9674 36.9957C26.7342 36.9957 23.7079 39.6443 23.2582 42.891C23.0513 44.3975 23.4291 45.8139 24.3509 46.8617C25.2368 47.8869 26.5498 48.4625 28.0473 48.4625ZM17.7537 33.9333L17.1781 38.0075L17.2101 38.0253C17.1427 38.5065 17.2596 38.9561 17.5339 39.2664C17.8082 39.5767 18.1994 39.7386 18.6851 39.7386H21.9183C23.4607 36.7887 26.6399 34.6842 29.9901 34.6842C32.162 34.6842 34.0957 35.5341 35.4447 37.0765C36.1103 37.8589 36.596 38.7538 36.8703 39.7341H58.2121L58.7517 35.8894L59.026 33.9333H17.7537ZM87.1372 19.4753C88.3468 20.7973 88.8774 22.6411 88.6121 24.5387L88.5855 24.5345C88.4461 25.5013 87.5737 26.2747 86.5933 26.2747H66.2404C65.7097 26.2747 65.2151 26.0454 64.8823 25.6542C64.5361 25.2765 64.3877 24.7548 64.4551 24.2152L66.0785 12.6446C66.2179 11.6689 67.0904 10.8954 68.0707 10.8954H77.0508C78.5483 10.8954 79.8973 11.4845 80.8507 12.5323L87.1372 19.4753ZM68.3625 13.2247L66.865 23.9406L66.8742 23.945H86.3408C86.4217 22.8388 86.1024 21.7911 85.4099 21.0311L79.1234 14.0881C78.6288 13.535 77.8913 13.2247 77.0638 13.2247H68.3625ZM74.133 40.4129C72.9143 40.4129 71.8306 41.3572 71.6462 42.5669C71.5652 43.2234 71.7496 43.844 72.1633 44.3296C72.568 44.8017 73.1661 45.0671 73.8092 45.0671C75.0278 45.0671 76.1115 44.1137 76.296 42.9041C76.3769 42.2611 76.206 41.627 75.7788 41.1549C75.3876 40.6962 74.776 40.4174 74.133 40.4174V40.4129ZM26.704 42.5669C26.8748 41.3572 27.9675 40.4129 29.1772 40.4129L29.1773 40.4174C29.8248 40.4174 30.4319 40.6962 30.8366 41.1549C31.2548 41.627 31.4257 42.2611 31.3448 42.9041C31.1603 44.1137 30.0766 45.0671 28.858 45.0671C28.2149 45.0671 27.6168 44.8017 27.2121 44.3296C26.7939 43.844 26.614 43.2234 26.704 42.5669ZM22.9119 15.1679C23.555 15.1679 24.0766 14.6508 24.0766 14.0033C24.0766 13.3602 23.546 12.8386 22.9119 12.8386H8.7512C8.10815 12.8386 7.58654 13.3692 7.58654 14.0033C7.58654 14.6373 8.11717 15.1679 8.7512 15.1679H22.9119ZM5.32492 21.5259C4.6774 21.5259 4.16027 21.0042 4.16027 20.3612C4.16027 19.7272 4.66839 19.1965 5.32492 19.1965H22.0309C22.665 19.1965 23.1956 19.7272 23.1956 20.3612C23.1956 20.9952 22.674 21.5259 22.0309 21.5259H5.32492Z" fill="url(#paint0_linear_858_1758)"/>
<defs>
<linearGradient id="paint0_linear_858_1758" x1="46.7504" y1="50.8047" x2="46.7504" y2="0.804688" gradientUnits="userSpaceOnUse">
<stop stop-color="#5934DF"/>
<stop offset="1" stop-color="#DB80EB"/>
</linearGradient>
</defs>
</svg>
