<svg width="61" height="61" viewBox="0 0 61 61" fill="none" xmlns="http://www.w3.org/2000/svg">
<path fill-rule="evenodd" clip-rule="evenodd" d="M48.4022 27.5881L58.9399 32.8545C60.5534 33.6605 61.2108 35.6293 60.4051 37.2432L49.5488 58.992C49.1585 59.7742 48.4865 60.3575 47.6574 60.6344C47.3168 60.7483 46.9663 60.8047 46.6177 60.8047C46.1167 60.8047 45.6194 60.6882 45.1584 60.4579L21.7226 48.7458L8.26904 50.8163C8.23095 50.8222 8.19287 50.8251 8.15478 50.8251C7.99621 50.8251 7.84058 50.775 7.7113 50.6797C7.5509 50.5622 7.44361 50.3857 7.41358 50.189L0.758827 6.90203C0.695839 6.4926 0.976721 6.10992 1.38578 6.04693L35.3901 0.813069C35.5864 0.783772 35.7878 0.831746 35.9478 0.949665C36.1082 1.06722 36.2155 1.24373 36.2456 1.44038L38.3304 15.0014L40.84 9.97342C40.9287 9.79544 41.0847 9.65994 41.2733 9.59696C41.4633 9.5347 41.668 9.54898 41.8464 9.63761L55.4155 16.4187C55.7861 16.6036 55.9363 17.0541 55.7513 17.4247L51.7549 25.4311C51.6663 25.6091 51.5103 25.7446 51.3213 25.8076C51.244 25.8332 51.1638 25.846 51.084 25.846C50.9686 25.846 50.8536 25.8193 50.7486 25.7669L49.5983 25.1921L48.4022 27.5881ZM38.658 22.7184L47.0605 26.9176L48.2567 24.5216L39.854 20.3221L38.658 22.7184ZM54.0745 17.4254L41.8467 11.3148L38.5208 17.9787L50.7482 24.0897L54.0745 17.4254ZM33.5016 5.9876C34.352 5.83077 35.0038 5.74545 35.3833 5.70265L34.877 2.40974L8.88953 6.4097C9.03245 10.2467 10.0499 15.4055 13.9497 19.0316C14.1936 19.2584 14.4377 19.4723 14.6829 19.6773C14.6981 19.6395 14.7124 19.6032 14.7267 19.5669L14.7268 19.5668L14.7268 19.5666C14.7448 19.521 14.7627 19.4755 14.7824 19.4271C14.9384 19.0433 15.3746 18.8576 15.7598 19.0151C16.1436 19.1715 16.3278 19.6091 16.1718 19.9925C16.1042 20.1587 16.0425 20.3153 15.9807 20.472L15.9218 20.6211C17.0861 21.4339 18.3239 22.0982 19.7435 22.7728L22.0795 18.093C22.4699 17.3108 23.1415 16.7274 23.971 16.4506C24.8012 16.1741 25.6885 16.2367 26.47 16.6274L37.3163 22.0479L38.5124 19.6516L37.1794 18.9855C36.8092 18.8002 36.659 18.3501 36.844 17.9795L37.1703 17.3257L35.6115 7.18694C35.2766 7.22342 34.6348 7.30389 33.7733 7.46269C33.7275 7.47111 33.6817 7.47514 33.6367 7.47514C33.2818 7.47514 32.9665 7.22246 32.8999 6.86101C32.8248 6.45379 33.0943 6.06267 33.5016 5.9876ZM7.41957 40.3571L8.7821 49.2197L19.4008 47.5855L12.6881 44.2308C11.0749 43.4248 10.418 41.456 11.2229 39.8422L19.0734 24.1152C17.7381 23.479 16.519 22.8299 15.3629 22.0542C15.2387 22.3257 14.9736 22.4959 14.6869 22.4959C14.6008 22.4959 14.5136 22.4809 14.4283 22.4494C14.0394 22.3066 13.8402 21.8759 13.983 21.487C14.0069 21.4219 14.0333 21.3528 14.0596 21.2837L14.0597 21.2834C14.078 21.2353 14.0964 21.1872 14.1139 21.1404C13.7152 20.825 13.3198 20.4945 12.9279 20.1302C8.71577 16.2131 7.57562 10.7465 7.39714 6.63941L2.35513 7.41545L7.09278 38.2315C7.11571 38.1973 7.14014 38.1613 7.16461 38.1252L7.16511 38.1245L7.16539 38.1241L7.16595 38.1232C7.19509 38.0803 7.22425 38.0373 7.25098 37.9972C7.48169 37.653 7.94678 37.5603 8.29138 37.7896C8.63598 38.0195 8.72863 38.4854 8.49902 38.83C8.21045 39.2621 7.90393 39.7158 7.57874 40.1926C7.53401 40.258 7.47881 40.3107 7.41957 40.3571ZM48.2071 58.3218L59.0633 36.573C59.4995 35.6992 59.1432 34.6328 58.2694 34.1963L25.7995 17.9692C25.5497 17.8443 25.2802 17.7814 25.0088 17.7814C24.8199 17.7814 24.6305 17.8118 24.446 17.8733C23.9966 18.0234 23.633 18.3391 23.4217 18.7628L12.565 40.512C12.1289 41.3861 12.4848 42.4525 13.3586 42.889L45.8289 59.1161C46.2519 59.3278 46.7338 59.3615 47.182 59.2117C47.6314 59.0619 47.9954 58.7459 48.2071 58.3218ZM32.5278 28.1202C35.3421 27.1813 38.352 27.394 41.0048 28.7194C46.4814 31.4564 48.7117 38.1415 45.9764 43.6211C44.6515 46.2758 42.3722 48.2551 39.5594 49.1948C38.4043 49.5805 37.216 49.772 36.0331 49.772C34.3343 49.772 32.6464 49.3772 31.0824 48.5957C25.6057 45.859 23.3751 39.1739 26.1107 33.6939C27.4357 31.0393 29.7149 29.0599 32.5278 28.1202ZM39.084 47.7721C41.5171 46.9595 43.4884 45.2471 44.6347 42.951C47.0004 38.2111 45.0712 32.4287 40.3339 30.0611C38.9815 29.3851 37.5218 29.0438 36.0525 29.0438C35.0294 29.0438 34.0021 29.2093 33.0031 29.543C30.57 30.3556 28.5987 32.0676 27.4525 34.3641C25.0864 39.1043 27.0156 44.8868 31.7529 47.2539C34.0487 48.4016 36.6517 48.5851 39.084 47.7721ZM39.1299 32.4761C37.4798 31.6518 35.607 31.5192 33.8569 32.1033C32.1071 32.6878 30.6895 33.919 29.8656 35.5699C28.1642 38.9785 29.5514 43.1365 32.9578 44.8386C33.9309 45.3249 34.9808 45.5703 36.0373 45.5703C36.773 45.5703 37.5124 45.4513 38.2305 45.2114C39.9803 44.6269 41.3979 43.3957 42.2218 41.7449C43.9236 38.3362 42.5364 34.1783 39.1299 32.4761ZM40.88 41.0747C40.2348 42.3674 39.1252 43.3313 37.7555 43.7887C36.3852 44.2457 34.9203 44.1421 33.6284 43.4968C30.9616 42.1642 29.8755 38.909 31.2074 36.24C31.8526 34.9473 32.9622 33.9834 34.3322 33.5261C34.8943 33.3382 35.4726 33.2452 36.0486 33.2452C36.8759 33.2452 37.6977 33.4374 38.4594 33.8179C41.1265 35.1506 42.2123 38.4058 40.88 41.0747ZM9.93211 33.7276C10.1379 33.3683 10.5968 33.2431 10.9553 33.4485C11.3149 33.654 11.4398 34.1121 11.2343 34.4717C10.9081 35.043 10.5316 35.6707 10.0943 36.369C9.95188 36.5965 9.70762 36.721 9.45787 36.721C9.32201 36.721 9.18431 36.684 9.06053 36.6067C8.70934 36.3866 8.60314 35.9241 8.82286 35.5729C9.2484 34.8936 9.61461 34.2827 9.93211 33.7276ZM19.9261 13.8753C20.11 13.8753 20.2942 13.8083 20.4388 13.6728C20.9405 13.203 21.4836 12.7481 22.0531 12.3208C22.3841 12.0721 22.4511 11.6019 22.2025 11.2705C21.9534 10.9394 21.484 10.8728 21.1522 11.1211C20.5399 11.581 19.955 12.071 19.4134 12.5779C19.1113 12.8609 19.0956 13.3355 19.3786 13.638C19.5262 13.7955 19.7262 13.8753 19.9261 13.8753ZM11.9016 32.2607C11.8027 32.2607 11.702 32.241 11.6053 32.1992C11.2248 32.0355 11.0494 31.5942 11.2131 31.2138C11.4991 30.5495 11.7144 29.9295 11.8906 29.2633C11.9961 28.8627 12.4062 28.625 12.8072 28.7298C13.2078 28.8356 13.4466 29.2461 13.3408 29.6464C13.1452 30.3861 12.9068 31.0728 12.5908 31.807C12.4685 32.0908 12.192 32.2607 11.9016 32.2607ZM16.3577 17.7329C16.4767 17.8029 16.6074 17.8362 16.7367 17.8362C16.9938 17.8362 17.2443 17.704 17.3841 17.466C17.7346 16.8694 18.1286 16.2871 18.5553 15.736C18.8087 15.4086 18.7486 14.9373 18.4209 14.6839C18.0935 14.4316 17.6229 14.4909 17.3688 14.8183C16.9037 15.4196 16.4738 16.0546 16.0907 16.7064C15.8809 17.0635 16.0002 17.5231 16.3577 17.7329ZM28.9446 8.73952C28.863 8.76808 28.7798 8.78163 28.6978 8.78163C28.3876 8.78163 28.0976 8.58754 27.9895 8.2781C27.8533 7.88698 28.0599 7.45962 28.451 7.32302C29.146 7.08059 29.8656 6.85647 30.59 6.65689C30.9899 6.54336 31.4022 6.78103 31.5121 7.18057C31.6223 7.57973 31.388 7.99282 30.9884 8.10268C30.2963 8.29384 29.6086 8.50771 28.9446 8.73952ZM24.0445 10.8751C24.1701 10.8751 24.2976 10.8436 24.4144 10.777C25.0175 10.4342 25.6544 10.1072 26.3062 9.80507C26.682 9.63112 26.8457 9.18508 26.6714 8.80935C26.4974 8.43362 26.0528 8.27102 25.6756 8.44424C24.9861 8.76357 24.3126 9.10964 23.6732 9.47329C23.3132 9.67763 23.1872 10.1358 23.3919 10.4957C23.53 10.7389 23.7834 10.8751 24.0445 10.8751ZM13.2328 27.3678C13.1794 27.3678 13.1252 27.3623 13.0706 27.3502C12.6659 27.2609 12.4103 26.861 12.4997 26.4563C12.6656 25.7048 12.8403 25.0186 13.0501 24.2968C13.1662 23.8991 13.5815 23.6698 13.9799 23.7859C14.3776 23.9016 14.6061 24.318 14.4908 24.7157C14.2901 25.4049 14.1231 26.0608 13.9645 26.7793C13.8872 27.1294 13.5771 27.3678 13.2328 27.3678Z" fill="black"/>
<path fill-rule="evenodd" clip-rule="evenodd" d="M48.4022 27.5881L58.9399 32.8545C60.5534 33.6605 61.2108 35.6293 60.4051 37.2432L49.5488 58.992C49.1585 59.7742 48.4865 60.3575 47.6574 60.6344C47.3168 60.7483 46.9663 60.8047 46.6177 60.8047C46.1167 60.8047 45.6194 60.6882 45.1584 60.4579L21.7226 48.7458L8.26904 50.8163C8.23095 50.8222 8.19287 50.8251 8.15478 50.8251C7.99621 50.8251 7.84058 50.775 7.7113 50.6797C7.5509 50.5622 7.44361 50.3857 7.41358 50.189L0.758827 6.90203C0.695839 6.4926 0.976721 6.10992 1.38578 6.04693L35.3901 0.813069C35.5864 0.783772 35.7878 0.831746 35.9478 0.949665C36.1082 1.06722 36.2155 1.24373 36.2456 1.44038L38.3304 15.0014L40.84 9.97342C40.9287 9.79544 41.0847 9.65994 41.2733 9.59696C41.4633 9.5347 41.668 9.54898 41.8464 9.63761L55.4155 16.4187C55.7861 16.6036 55.9363 17.0541 55.7513 17.4247L51.7549 25.4311C51.6663 25.6091 51.5103 25.7446 51.3213 25.8076C51.244 25.8332 51.1638 25.846 51.084 25.846C50.9686 25.846 50.8536 25.8193 50.7486 25.7669L49.5983 25.1921L48.4022 27.5881ZM38.658 22.7184L47.0605 26.9176L48.2567 24.5216L39.854 20.3221L38.658 22.7184ZM54.0745 17.4254L41.8467 11.3148L38.5208 17.9787L50.7482 24.0897L54.0745 17.4254ZM33.5016 5.9876C34.352 5.83077 35.0038 5.74545 35.3833 5.70265L34.877 2.40974L8.88953 6.4097C9.03245 10.2467 10.0499 15.4055 13.9497 19.0316C14.1936 19.2584 14.4377 19.4723 14.6829 19.6773C14.6981 19.6395 14.7124 19.6032 14.7267 19.5669L14.7268 19.5668L14.7268 19.5666C14.7448 19.521 14.7627 19.4755 14.7824 19.4271C14.9384 19.0433 15.3746 18.8576 15.7598 19.0151C16.1436 19.1715 16.3278 19.6091 16.1718 19.9925C16.1042 20.1587 16.0425 20.3153 15.9807 20.472L15.9218 20.6211C17.0861 21.4339 18.3239 22.0982 19.7435 22.7728L22.0795 18.093C22.4699 17.3108 23.1415 16.7274 23.971 16.4506C24.8012 16.1741 25.6885 16.2367 26.47 16.6274L37.3163 22.0479L38.5124 19.6516L37.1794 18.9855C36.8092 18.8002 36.659 18.3501 36.844 17.9795L37.1703 17.3257L35.6115 7.18694C35.2766 7.22342 34.6348 7.30389 33.7733 7.46269C33.7275 7.47111 33.6817 7.47514 33.6367 7.47514C33.2818 7.47514 32.9665 7.22246 32.8999 6.86101C32.8248 6.45379 33.0943 6.06267 33.5016 5.9876ZM7.41957 40.3571L8.7821 49.2197L19.4008 47.5855L12.6881 44.2308C11.0749 43.4248 10.418 41.456 11.2229 39.8422L19.0734 24.1152C17.7381 23.479 16.519 22.8299 15.3629 22.0542C15.2387 22.3257 14.9736 22.4959 14.6869 22.4959C14.6008 22.4959 14.5136 22.4809 14.4283 22.4494C14.0394 22.3066 13.8402 21.8759 13.983 21.487C14.0069 21.4219 14.0333 21.3528 14.0596 21.2837L14.0597 21.2834C14.078 21.2353 14.0964 21.1872 14.1139 21.1404C13.7152 20.825 13.3198 20.4945 12.9279 20.1302C8.71577 16.2131 7.57562 10.7465 7.39714 6.63941L2.35513 7.41545L7.09278 38.2315C7.11571 38.1973 7.14014 38.1613 7.16461 38.1252L7.16511 38.1245L7.16539 38.1241L7.16595 38.1232C7.19509 38.0803 7.22425 38.0373 7.25098 37.9972C7.48169 37.653 7.94678 37.5603 8.29138 37.7896C8.63598 38.0195 8.72863 38.4854 8.49902 38.83C8.21045 39.2621 7.90393 39.7158 7.57874 40.1926C7.53401 40.258 7.47881 40.3107 7.41957 40.3571ZM48.2071 58.3218L59.0633 36.573C59.4995 35.6992 59.1432 34.6328 58.2694 34.1963L25.7995 17.9692C25.5497 17.8443 25.2802 17.7814 25.0088 17.7814C24.8199 17.7814 24.6305 17.8118 24.446 17.8733C23.9966 18.0234 23.633 18.3391 23.4217 18.7628L12.565 40.512C12.1289 41.3861 12.4848 42.4525 13.3586 42.889L45.8289 59.1161C46.2519 59.3278 46.7338 59.3615 47.182 59.2117C47.6314 59.0619 47.9954 58.7459 48.2071 58.3218ZM32.5278 28.1202C35.3421 27.1813 38.352 27.394 41.0048 28.7194C46.4814 31.4564 48.7117 38.1415 45.9764 43.6211C44.6515 46.2758 42.3722 48.2551 39.5594 49.1948C38.4043 49.5805 37.216 49.772 36.0331 49.772C34.3343 49.772 32.6464 49.3772 31.0824 48.5957C25.6057 45.859 23.3751 39.1739 26.1107 33.6939C27.4357 31.0393 29.7149 29.0599 32.5278 28.1202ZM39.084 47.7721C41.5171 46.9595 43.4884 45.2471 44.6347 42.951C47.0004 38.2111 45.0712 32.4287 40.3339 30.0611C38.9815 29.3851 37.5218 29.0438 36.0525 29.0438C35.0294 29.0438 34.0021 29.2093 33.0031 29.543C30.57 30.3556 28.5987 32.0676 27.4525 34.3641C25.0864 39.1043 27.0156 44.8868 31.7529 47.2539C34.0487 48.4016 36.6517 48.5851 39.084 47.7721ZM39.1299 32.4761C37.4798 31.6518 35.607 31.5192 33.8569 32.1033C32.1071 32.6878 30.6895 33.919 29.8656 35.5699C28.1642 38.9785 29.5514 43.1365 32.9578 44.8386C33.9309 45.3249 34.9808 45.5703 36.0373 45.5703C36.773 45.5703 37.5124 45.4513 38.2305 45.2114C39.9803 44.6269 41.3979 43.3957 42.2218 41.7449C43.9236 38.3362 42.5364 34.1783 39.1299 32.4761ZM40.88 41.0747C40.2348 42.3674 39.1252 43.3313 37.7555 43.7887C36.3852 44.2457 34.9203 44.1421 33.6284 43.4968C30.9616 42.1642 29.8755 38.909 31.2074 36.24C31.8526 34.9473 32.9622 33.9834 34.3322 33.5261C34.8943 33.3382 35.4726 33.2452 36.0486 33.2452C36.8759 33.2452 37.6977 33.4374 38.4594 33.8179C41.1265 35.1506 42.2123 38.4058 40.88 41.0747ZM9.93211 33.7276C10.1379 33.3683 10.5968 33.2431 10.9553 33.4485C11.3149 33.654 11.4398 34.1121 11.2343 34.4717C10.9081 35.043 10.5316 35.6707 10.0943 36.369C9.95188 36.5965 9.70762 36.721 9.45787 36.721C9.32201 36.721 9.18431 36.684 9.06053 36.6067C8.70934 36.3866 8.60314 35.9241 8.82286 35.5729C9.2484 34.8936 9.61461 34.2827 9.93211 33.7276ZM19.9261 13.8753C20.11 13.8753 20.2942 13.8083 20.4388 13.6728C20.9405 13.203 21.4836 12.7481 22.0531 12.3208C22.3841 12.0721 22.4511 11.6019 22.2025 11.2705C21.9534 10.9394 21.484 10.8728 21.1522 11.1211C20.5399 11.581 19.955 12.071 19.4134 12.5779C19.1113 12.8609 19.0956 13.3355 19.3786 13.638C19.5262 13.7955 19.7262 13.8753 19.9261 13.8753ZM11.9016 32.2607C11.8027 32.2607 11.702 32.241 11.6053 32.1992C11.2248 32.0355 11.0494 31.5942 11.2131 31.2138C11.4991 30.5495 11.7144 29.9295 11.8906 29.2633C11.9961 28.8627 12.4062 28.625 12.8072 28.7298C13.2078 28.8356 13.4466 29.2461 13.3408 29.6464C13.1452 30.3861 12.9068 31.0728 12.5908 31.807C12.4685 32.0908 12.192 32.2607 11.9016 32.2607ZM16.3577 17.7329C16.4767 17.8029 16.6074 17.8362 16.7367 17.8362C16.9938 17.8362 17.2443 17.704 17.3841 17.466C17.7346 16.8694 18.1286 16.2871 18.5553 15.736C18.8087 15.4086 18.7486 14.9373 18.4209 14.6839C18.0935 14.4316 17.6229 14.4909 17.3688 14.8183C16.9037 15.4196 16.4738 16.0546 16.0907 16.7064C15.8809 17.0635 16.0002 17.5231 16.3577 17.7329ZM28.9446 8.73952C28.863 8.76808 28.7798 8.78163 28.6978 8.78163C28.3876 8.78163 28.0976 8.58754 27.9895 8.2781C27.8533 7.88698 28.0599 7.45962 28.451 7.32302C29.146 7.08059 29.8656 6.85647 30.59 6.65689C30.9899 6.54336 31.4022 6.78103 31.5121 7.18057C31.6223 7.57973 31.388 7.99282 30.9884 8.10268C30.2963 8.29384 29.6086 8.50771 28.9446 8.73952ZM24.0445 10.8751C24.1701 10.8751 24.2976 10.8436 24.4144 10.777C25.0175 10.4342 25.6544 10.1072 26.3062 9.80507C26.682 9.63112 26.8457 9.18508 26.6714 8.80935C26.4974 8.43362 26.0528 8.27102 25.6756 8.44424C24.9861 8.76357 24.3126 9.10964 23.6732 9.47329C23.3132 9.67763 23.1872 10.1358 23.3919 10.4957C23.53 10.7389 23.7834 10.8751 24.0445 10.8751ZM13.2328 27.3678C13.1794 27.3678 13.1252 27.3623 13.0706 27.3502C12.6659 27.2609 12.4103 26.861 12.4997 26.4563C12.6656 25.7048 12.8403 25.0186 13.0501 24.2968C13.1662 23.8991 13.5815 23.6698 13.9799 23.7859C14.3776 23.9016 14.6061 24.318 14.4908 24.7157C14.2901 25.4049 14.1231 26.0608 13.9645 26.7793C13.8872 27.1294 13.5771 27.3678 13.2328 27.3678Z" fill="url(#paint0_linear_858_1739)"/>
<defs>
<linearGradient id="paint0_linear_858_1739" x1="30.7496" y1="60.8047" x2="30.7496" y2="0.804688" gradientUnits="userSpaceOnUse">
<stop stop-color="#5934DF"/>
<stop offset="1" stop-color="#DB80EB"/>
</linearGradient>
</defs>
</svg>
