<svg width="80" height="81" viewBox="0 0 80 81" fill="none" xmlns="http://www.w3.org/2000/svg">
<path d="M61.9601 47.8088C63.4508 44.4644 64.2286 41.3533 64.6175 38.8903C64.6175 38.8255 64.6304 38.7607 64.6304 38.6829V11.4612C64.6304 10.852 64.2026 10.3335 63.6193 10.1909L40.2861 5.00576H40.2601C40.1823 4.9928 40.0916 5.00576 40.0138 5.00576H39.7416H39.7157L16.3825 10.1909C15.7862 10.3206 15.3713 10.852 15.3713 11.4612V38.6829C15.3713 38.7477 15.3713 38.8255 15.3843 38.8903C15.7732 41.3533 16.5509 44.4644 18.0416 47.7955L5.67525 63.0656C5.3771 63.4416 5.29933 63.9471 5.4808 64.3879C5.66227 64.8287 6.07709 65.1268 6.55674 65.1786L15.009 65.9694L17.5368 74.0582C17.6793 74.5119 18.0553 74.8489 18.5349 74.9397C18.6127 74.9526 18.7034 74.9656 18.7812 74.9656C19.1701 74.9656 19.546 74.7971 19.7923 74.486L29.7611 62.171C33.3389 64.7377 36.8518 66.2544 39.5996 67.1358C39.7293 67.1747 39.8589 67.2006 40.0015 67.2006C40.1441 67.2006 40.2737 67.1747 40.4033 67.1358C43.1515 66.2544 46.6645 64.7377 50.2419 62.171L60.2107 74.486C60.457 74.7971 60.8329 74.9656 61.2218 74.9656C61.2996 74.9656 61.3774 74.9656 61.4681 74.9397C61.9348 74.8489 62.3236 74.5119 62.4662 74.0582L64.994 65.9694L73.4462 65.1786C73.9259 65.1397 74.3407 64.8286 74.5222 64.3879C74.7037 63.9472 74.6388 63.4416 74.3407 63.0656L61.9743 47.7955L61.9601 47.8088ZM17.9642 12.5107L40.0007 7.61079L62.0372 12.5107V38.5925C61.3632 42.7665 59.5095 48.9238 54.5706 54.7055C49.7095 60.3962 44.0443 63.1834 40.0007 64.544C35.9563 63.1829 30.2916 60.3959 25.4308 54.7055C20.492 48.924 18.6383 42.7663 17.9642 38.5925V12.5107ZM19.2994 70.9861L17.2383 64.3749C17.0827 63.8824 16.642 63.5194 16.1234 63.4675L9.22716 62.8194L19.3254 50.3617C20.4143 52.3579 21.7753 54.3932 23.4735 56.3765C24.8475 57.9839 26.2735 59.3709 27.7253 60.5765L19.3121 70.9725L19.2994 70.9861ZM63.8918 63.4676C63.3733 63.5194 62.9326 63.8694 62.7769 64.375L60.7158 70.9861L52.3026 60.5901C53.7544 59.3846 55.1804 57.9846 56.5544 56.3901C58.2526 54.3939 59.6137 52.3586 60.7025 50.3753L70.8007 62.833L63.9045 63.4811L63.8918 63.4676Z" fill="white"/>
<path d="M32.1316 35.3899L30.7186 43.6343C30.6409 44.1269 30.8353 44.6065 31.2372 44.9046C31.639 45.1898 32.1705 45.2287 32.5982 45.0083L40.0001 41.1194L47.4019 45.0083C47.5964 45.112 47.8038 45.1509 48.0112 45.1509C48.2834 45.1509 48.5427 45.0731 48.776 44.9046C49.1778 44.6194 49.3723 44.1268 49.2945 43.6343L47.8816 35.3899L53.8705 29.5436C54.2205 29.1936 54.3501 28.6881 54.1945 28.2084C54.039 27.7417 53.6371 27.3917 53.1446 27.3269L44.8613 26.1214L41.1538 18.6158C40.9335 18.1751 40.4797 17.8899 39.9872 17.8899C39.4947 17.8899 39.0409 18.1751 38.8206 18.6158L35.1131 26.1214L26.8298 27.3269C26.3372 27.3917 25.9354 27.7417 25.7799 28.2084C25.6243 28.675 25.7539 29.1935 26.1039 29.5436L32.0928 35.3899H32.1316ZM36.176 28.5973C36.6038 28.5325 36.9667 28.2732 37.1482 27.8843L39.9871 22.1288L42.826 27.8843C43.0205 28.2732 43.3834 28.5325 43.7983 28.5973L50.15 29.5177L45.5482 34.0028C45.2371 34.301 45.1075 34.7287 45.1723 35.1565L46.2612 41.4824L40.5704 38.4879C40.376 38.3842 40.1686 38.3453 39.9612 38.3453C39.7538 38.3453 39.5464 38.3972 39.3519 38.4879L33.6612 41.4824L34.7501 35.1565C34.8278 34.7417 34.6852 34.301 34.3741 34.0028L29.7723 29.5177L36.1241 28.5973H36.176Z" fill="white"/>
<path d="M11.2611 32.2532C11.9741 32.2532 12.5574 31.6699 12.5574 30.9569C12.5574 30.244 11.9741 29.6606 11.2611 29.6606H6.29629C5.58333 29.6606 5 30.244 5 30.9569C5 31.6699 5.58333 32.2532 6.29629 32.2532H11.2611Z" fill="white"/>
<path d="M12.1435 37.4253L7.68428 39.9661C7.06206 40.3161 6.84171 41.1068 7.19169 41.729C7.42502 42.1438 7.86576 42.3901 8.31949 42.3901C8.53985 42.3901 8.76022 42.3383 8.95466 42.2216L13.4139 39.6809C14.0361 39.3309 14.2565 38.5401 13.9065 37.9179C13.5565 37.2957 12.7657 37.0754 12.1435 37.4253Z" fill="white"/>
<path d="M7.66964 21.9346L12.1289 24.4753C12.3363 24.592 12.5566 24.6438 12.7641 24.6438C13.2178 24.6438 13.6585 24.4105 13.8918 23.9827C14.2418 23.3605 14.0215 22.5698 13.3993 22.2197L8.94002 19.679C8.3178 19.329 7.52708 19.5494 7.17706 20.1716C6.82704 20.7938 7.04742 21.5845 7.66964 21.9346Z" fill="white"/>
<path d="M73.7035 29.6599H68.7387C68.0257 29.6599 67.4424 30.2432 67.4424 30.9562C67.4424 31.6692 68.0257 32.2525 68.7387 32.2525H73.7035C74.4164 32.2525 74.9998 31.6692 74.9998 30.9562C74.9998 30.2432 74.4164 29.6599 73.7035 29.6599Z" fill="white"/>
<path d="M66.5876 39.6809L71.0468 42.2216C71.2542 42.3383 71.4746 42.3901 71.682 42.3901C72.1357 42.3901 72.5764 42.1568 72.8098 41.729C73.1598 41.1068 72.9394 40.3161 72.3172 39.9661L67.858 37.4253C67.2358 37.0753 66.445 37.2957 66.095 37.9179C65.745 38.5402 65.9654 39.3309 66.5876 39.6809Z" fill="white"/>
<path d="M67.2218 24.6438C67.4422 24.6438 67.6626 24.5919 67.857 24.4753L72.3162 21.9345C72.9384 21.5845 73.1588 20.7938 72.8088 20.1716C72.4588 19.5494 71.6681 19.329 71.0459 19.679L66.5866 22.2197C65.9644 22.5697 65.7441 23.3605 66.094 23.9827C66.3274 24.3975 66.7681 24.6438 67.2218 24.6438Z" fill="white"/>
</svg>
