<?xml version="1.0" encoding="utf-8"?>
<!-- Generator: Adobe Illustrator 27.0.0, SVG Export Plug-In . SVG Version: 6.00 Build 0)  -->
<svg version="1.1"
	 id="VueJs" xmlns:svg="http://www.w3.org/2000/svg" xmlns:sodipodi="http://sodipodi.sourceforge.net/DTD/sodipodi-0.dtd" xmlns:rdf="http://www.w3.org/1999/02/22-rdf-syntax-ns#" xmlns:inkscape="http://www.inkscape.org/namespaces/inkscape" xmlns:cc="http://creativecommons.org/ns#" xmlns:dc="http://purl.org/dc/elements/1.1/" inkscape:version="0.92.4 (5da689c313, 2019-01-14)" sodipodi:docname="vue-ar21.svg"
	 xmlns="http://www.w3.org/2000/svg" xmlns:xlink="http://www.w3.org/1999/xlink" x="0px" y="0px" viewBox="0 0 120 36.9"
	 style="enable-background:new 0 0 120 36.9;" xml:space="preserve">
<style type="text/css">
	.st0{fill-rule:evenodd;clip-rule:evenodd;fill:#41B883;}
	.st1{fill-rule:evenodd;clip-rule:evenodd;fill:#35495E;}
	.st2{fill-rule:evenodd;clip-rule:evenodd;fill:#010101;}
</style>
<path id="path893" inkscape:connector-curvature="0" class="st0" d="M39.1,0h8.5L26.2,36.9L4.6,0h8.7l12.9,22.2L39.1,0z"/>
<path id="path895" inkscape:connector-curvature="0" class="st1" d="M31.1,0h8.1l-13,22.3L13.3,0h7.9l5,8.6L31.1,0z"/>
<path id="path897" inkscape:connector-curvature="0" class="st2" d="M52.6,7.3c0-0.3,0.2-0.5,0.5-0.7c0.3-0.2,0.6-0.3,0.9-0.3
	c0.5,0,0.7,0.2,0.9,0.5L59.7,23l4.8-16.2c0.1-0.3,0.4-0.5,0.8-0.5c0.3,0,0.7,0.1,1,0.3c0.3,0.2,0.5,0.4,0.5,0.7c0,0,0,0,0,0.1
	c0,0,0,0.1,0,0.1l-5.6,18.1c-0.2,0.5-0.7,0.8-1.5,0.8c-0.8,0-1.2-0.3-1.4-0.8L52.7,7.5C52.7,7.4,52.6,7.3,52.6,7.3L52.6,7.3z
	 M67,21.2v-7.1c0-0.2,0.1-0.4,0.3-0.6c0.2-0.2,0.5-0.2,0.8-0.2c0.3,0,0.6,0.1,0.8,0.3c0.2,0.2,0.3,0.4,0.3,0.6v7.1
	c0,0.8,0.3,1.6,0.9,2.2s1.4,1,2.2,1c0.8,0,1.6-0.3,2.2-1s0.9-1.4,0.9-2.2v-7.1c0-0.2,0.1-0.4,0.3-0.5c0.2-0.2,0.5-0.2,0.8-0.2
	c0.3,0,0.6,0.1,0.8,0.2c0.2,0.2,0.3,0.3,0.3,0.6v7.1c0,1.4-0.5,2.6-1.6,3.7c-1.1,1-2.3,1.6-3.8,1.6c-1.5,0-2.8-0.5-3.8-1.6
	C67.5,23.8,67,22.6,67,21.2L67,21.2z M79.7,21.2v-2.9c0-1.4,0.5-2.6,1.6-3.6c1.1-1,2.4-1.5,3.9-1.5c1.4,0,2.7,0.5,3.7,1.4
	c1,1,1.6,2.1,1.6,3.6c0,0.5-0.1,0.9-0.2,1.3c-0.1,0.3-0.3,0.5-0.6,0.7c-0.3,0.1-0.5,0.2-0.7,0.3c-0.2,0-0.5,0.1-0.9,0.1h-6v0.8
	c0,1,0.4,1.8,1.1,2.4c0.7,0.6,1.7,0.9,2.8,0.9c0.6,0,1.1-0.1,1.6-0.3c0.4-0.2,0.8-0.4,1.1-0.5c0.3-0.2,0.5-0.3,0.7-0.3
	c0.3,0,0.5,0.1,0.7,0.3c0.2,0.2,0.3,0.5,0.3,0.7c0,0.4-0.4,0.8-1.3,1.3c-0.8,0.4-1.9,0.7-3.1,0.7c-1.8,0-3.3-0.5-4.4-1.5
	C80.3,24,79.7,22.8,79.7,21.2L79.7,21.2z M82,18.9h5.1c0.5,0,0.8-0.1,1-0.2s0.2-0.3,0.2-0.7c0-0.8-0.3-1.5-0.9-2.2
	C86.8,15.3,86,15,85.2,15c-0.9,0-1.6,0.3-2.2,0.9c-0.6,0.6-0.9,1.3-0.9,2.1L82,18.9z M91.6,25c0-0.4,0.1-0.7,0.4-1
	c0.3-0.3,0.6-0.4,1-0.4c0.4,0,0.7,0.1,1,0.4c0.3,0.3,0.4,0.6,0.4,1c0,0.4-0.1,0.7-0.4,1c-0.3,0.3-0.6,0.4-1,0.4
	c-0.4,0-0.7-0.1-1-0.4C91.8,25.7,91.6,25.4,91.6,25z M93.7,31.5c0-0.3,0.1-0.5,0.3-0.7c0.2-0.2,0.4-0.3,0.7-0.3
	c0.7,0,1.2-0.3,1.4-0.8c0.2-0.5,0.3-1.3,0.3-2.4V14.1c0-0.2,0.1-0.4,0.3-0.6c0.2-0.1,0.5-0.2,0.8-0.2c0.3,0,0.6,0.1,0.8,0.2
	c0.2,0.1,0.3,0.3,0.3,0.6v13.2c0,1.6-0.3,2.8-0.9,3.8c-0.6,0.9-1.6,1.4-2.8,1.4C94,32.5,93.7,32.1,93.7,31.5L93.7,31.5z M96,8.5
	c0-0.3,0.1-0.6,0.4-0.9c0.3-0.3,0.6-0.4,1-0.4c0.4,0,0.7,0.1,1,0.4c0.3,0.3,0.4,0.6,0.4,0.9s-0.1,0.6-0.4,0.9
	c-0.3,0.3-0.6,0.4-1,0.4s-0.7-0.1-1-0.4C96.2,9.1,96,8.8,96,8.5L96,8.5z M100.3,24.4c0-0.2,0.1-0.5,0.2-0.7c0.2-0.2,0.3-0.3,0.6-0.3
	c0.1,0,0.4,0.1,0.6,0.3c0.3,0.2,0.7,0.4,1.2,0.6c0.5,0.2,1.1,0.3,1.8,0.3c0.9,0,1.6-0.2,2-0.5c0.4-0.3,0.6-0.7,0.6-1.2
	c0-0.6-0.2-1.1-0.7-1.4c-0.5-0.4-1-0.6-1.7-0.8c-0.7-0.2-1.3-0.4-2-0.6c-0.7-0.2-1.2-0.6-1.7-1.1c-0.5-0.5-0.7-1.2-0.7-2
	c0-1,0.4-1.9,1.1-2.7c0.7-0.8,1.9-1.1,3.4-1.1c1,0,1.9,0.1,2.7,0.4c0.8,0.3,1.2,0.6,1.2,1c0,0.2-0.1,0.5-0.3,0.7
	c-0.2,0.3-0.4,0.4-0.6,0.4c-0.1,0-0.4-0.1-1.1-0.4c-0.6-0.3-1.3-0.4-1.9-0.4c-0.8,0-1.5,0.2-1.9,0.6c-0.4,0.4-0.6,0.8-0.6,1.3
	c0,0.5,0.2,0.9,0.7,1.2c0.5,0.3,1,0.5,1.7,0.7c0.7,0.2,1.3,0.4,2,0.6c0.7,0.2,1.2,0.6,1.7,1.2c0.5,0.6,0.7,1.3,0.7,2.2
	c0,1.1-0.4,2-1.2,2.7c-0.8,0.7-1.9,1-3.4,1c-1.2,0-2.3-0.2-3.2-0.7C100.7,25.3,100.3,24.9,100.3,24.4L100.3,24.4z"/>
</svg>
