<svg width="44" height="49" viewBox="0 0 44 49" fill="none" xmlns="http://www.w3.org/2000/svg">
<g clip-path="url(#clip0_858_4025)">
<path d="M42.8165 40.4279L35.7051 30.31C36.8323 30.043 37.7352 29.3765 38.3201 28.3738C38.9051 27.3669 39.0295 26.2459 38.6911 25.1289C38.3466 24.0018 38.6809 22.7503 39.541 21.9452C40.391 21.1524 40.8455 20.1129 40.8455 18.9511C40.8455 17.7872 40.3971 16.7498 39.541 15.9569C38.6748 15.1539 38.3405 13.9065 38.6911 12.7732C39.0294 11.6563 38.9051 10.5353 38.3201 9.52839C37.7352 8.52151 36.8282 7.84889 35.695 7.588C34.5475 7.32099 33.6282 6.40788 33.3673 5.26038C33.1065 4.12306 32.4338 3.21401 31.427 2.6352C30.4201 2.05023 29.2991 1.92589 28.1821 2.26424C27.0549 2.6087 25.8076 2.27444 24.9984 1.41432C24.1994 0.558282 23.162 0.109863 21.9982 0.109863C20.8343 0.109863 19.7969 0.558271 19.004 1.41432C18.201 2.28058 16.9536 2.61483 15.8203 2.26424C14.7034 1.9259 13.5824 2.05023 12.5755 2.6352C11.5686 3.22017 10.896 4.12718 10.6351 5.26038C10.3681 6.40788 9.45497 7.32711 8.30746 7.588C7.17014 7.84889 6.26109 8.52151 5.68228 9.52839C5.09731 10.5353 4.97297 11.6563 5.31133 12.7732C5.65578 13.9004 5.32152 15.1518 4.4614 15.9569C3.61147 16.7498 3.15694 17.7893 3.15694 18.9511C3.15694 20.1149 3.60535 21.1524 4.4614 21.9452C5.32766 22.7483 5.66191 23.9957 5.31133 25.1289C4.97298 26.2458 5.09731 27.3669 5.68228 28.3738C6.26114 29.3806 7.16403 30.0492 8.29729 30.31L1.17968 40.4279C0.87191 40.8661 0.841333 41.4307 1.10222 41.8995C1.36311 42.3683 1.85839 42.6414 2.3965 42.6149L7.77137 42.3234C7.94257 42.3132 8.08525 42.3968 8.15659 42.5476L10.5943 47.3476C10.8348 47.8164 11.3097 48.1099 11.8356 48.1099H11.8621C12.4001 48.0997 12.875 47.7919 13.0993 47.3068L18.364 35.9685C18.5984 36.1152 18.8185 36.2865 19.0101 36.4903C19.803 37.3402 20.8425 37.7947 22.0043 37.7947C23.1681 37.7947 24.2056 37.3463 24.9984 36.4903C25.192 36.2865 25.4101 36.1091 25.6445 35.9685L30.9093 47.3068C31.1335 47.7919 31.6084 48.0996 32.1465 48.1099H32.173C32.7009 48.1099 33.1758 47.8184 33.4143 47.3476L35.852 42.5476C35.9294 42.3968 36.0721 42.3132 36.2372 42.3234L41.6121 42.6149C42.1501 42.6455 42.6454 42.3703 42.9063 41.8995C43.157 41.4348 43.1243 40.8722 42.8165 40.4279ZM12.2046 46.899C12.1374 47.0498 12.0069 47.1334 11.8398 47.1395C11.6727 47.1395 11.5422 47.0621 11.4648 46.9153L9.02707 42.1154C8.77637 41.614 8.2709 41.3225 7.71244 41.3531L2.33758 41.6446C2.17044 41.6547 2.03592 41.5773 1.95643 41.4367C1.87898 41.2899 1.88306 41.1391 1.97681 41.0046L9.21444 30.7098C9.91967 31.1378 10.4415 31.837 10.6289 32.6563C10.8898 33.7936 11.5625 34.7027 12.5693 35.2815C13.5762 35.8665 14.7033 35.9908 15.8142 35.6525C16.3522 35.4914 16.9148 35.4813 17.4427 35.6117L12.2046 46.899ZM24.2792 35.8253C23.6677 36.4836 22.9014 36.8158 21.9984 36.8158C21.1016 36.8158 20.3332 36.4815 19.7177 35.8253C18.935 34.9855 17.8384 34.5269 16.7174 34.5269C16.32 34.5269 15.9185 34.584 15.5332 34.7042C14.6731 34.9651 13.8436 34.8714 13.065 34.423C12.2884 33.9746 11.7911 33.302 11.5893 32.4255C11.2387 30.9132 10.0402 29.7127 8.52588 29.3621C7.64945 29.1583 6.97682 28.663 6.52845 27.8865C6.08005 27.1099 5.98627 26.2804 6.24718 25.4182C6.7017 23.9364 6.26349 22.2936 5.12619 21.2338C4.46786 20.6223 4.13564 19.8559 4.13564 18.953C4.13564 18.0562 4.4699 17.2878 5.12619 16.6722C6.26351 15.6124 6.70171 13.9696 6.24718 12.4878C5.98629 11.6277 6.08005 10.7981 6.52845 10.0195C6.97686 9.24297 7.64945 8.74566 8.52588 8.54389C10.0382 8.19332 11.2387 6.99482 11.5893 5.48046C11.7931 4.60402 12.2884 3.9314 13.065 3.48303C13.8415 3.03462 14.6711 2.94085 15.5332 3.20176C17.0212 3.65628 18.6578 3.21807 19.7177 2.08077C20.3291 1.42243 21.0955 1.09022 21.9984 1.09022C22.8953 1.09022 23.6636 1.42448 24.2792 2.08077C25.339 3.21809 26.9818 3.65628 28.4636 3.20176C29.3237 2.93475 30.1533 3.03463 30.9319 3.48303C31.7085 3.93144 32.2058 4.60402 32.4075 5.48046C32.7581 6.99279 33.9566 8.1933 35.471 8.54389C36.3474 8.74771 37.02 9.24297 37.4684 10.0195C37.9168 10.7961 38.0106 11.6256 37.7497 12.4878C37.2951 13.9696 37.7334 15.6124 38.8707 16.6722C39.529 17.2837 39.8612 18.0501 39.8612 18.953C39.8612 19.8498 39.5269 20.6182 38.8707 21.2338C37.7333 22.2936 37.2951 23.9364 37.7497 25.4182C38.0106 26.2783 37.9168 27.1079 37.4684 27.8865C37.02 28.663 36.3474 29.1603 35.471 29.3621C33.9586 29.7127 32.7581 30.9112 32.4075 32.4255C32.2037 33.302 31.7085 33.9746 30.9319 34.423C30.1553 34.8714 29.3258 34.9651 28.4636 34.7042C26.9757 34.2497 25.3329 34.688 24.2792 35.8253ZM42.0338 41.4302C41.9564 41.577 41.8198 41.6504 41.6527 41.6381L36.2778 41.3467C35.7193 41.3161 35.2138 41.6076 34.9632 42.1089L32.5255 46.9089C32.4521 47.0557 32.3217 47.1331 32.1606 47.1331H32.1504C31.9833 47.127 31.8529 47.0434 31.7856 46.8926L26.5433 35.5971C27.0752 35.4728 27.6337 35.4768 28.1718 35.6379C29.2887 35.9762 30.4098 35.8519 31.4166 35.2669C32.4235 34.6819 33.0962 33.7749 33.357 32.6417C33.5446 31.8183 34.0725 31.1232 34.7715 30.6952L42.0092 40.9899C42.107 41.1265 42.1174 41.2835 42.0338 41.4302ZM34.672 18.9509C34.672 11.9637 28.9856 6.27733 21.9985 6.27733C15.0113 6.27733 9.32494 11.9637 9.32494 18.9509C9.32494 25.938 15.0113 31.6244 21.9985 31.6244C28.9856 31.6305 34.672 25.9438 34.672 18.9509ZM21.9985 30.6502C15.5498 30.6502 10.3054 25.4058 10.3054 18.9571C10.3054 12.5022 15.5498 7.25776 21.9985 7.25776C28.4472 7.25776 33.6916 12.5022 33.6916 18.9509C33.6916 25.3996 28.4472 30.6502 21.9985 30.6502ZM30.5713 16.0299C30.4001 15.4919 29.9456 15.1168 29.3872 15.0496L25.1232 14.5115L23.297 10.6247C23.0565 10.1131 22.5612 9.80123 21.9986 9.80123C21.4361 9.80123 20.9388 10.1192 20.7003 10.6247L18.8741 14.5115L14.6101 15.0496C14.0516 15.1168 13.5971 15.4939 13.4259 16.0299C13.2547 16.568 13.3994 17.1367 13.8071 17.5219L16.9378 20.459L16.1286 24.6801C16.0246 25.2324 16.2386 25.7807 16.6972 26.1089C17.1517 26.437 17.7408 26.4737 18.2361 26.2026L21.9986 24.1318L25.7611 26.2026C25.9812 26.3229 26.2197 26.3861 26.4541 26.3861C26.7516 26.3861 27.0431 26.2923 27.2938 26.1089C27.7483 25.7807 27.9664 25.2263 27.8624 24.6801L27.0594 20.459L30.1901 17.5219C30.6018 17.1347 30.7487 16.566 30.5713 16.0299ZM29.5237 16.8065L26.1953 19.927C26.0751 20.0412 26.018 20.2144 26.0486 20.3754L26.9046 24.8574C26.9413 25.0409 26.874 25.2019 26.7212 25.3119C26.5703 25.422 26.3971 25.4322 26.2299 25.3425L22.233 23.1412C22.1596 23.1005 22.0761 23.078 21.9986 23.078C21.915 23.078 21.8376 23.0984 21.7642 23.1412L17.7673 25.3425C17.6063 25.4322 17.4289 25.42 17.2761 25.3119C17.1252 25.2019 17.062 25.0409 17.0926 24.8574L17.9487 20.3754C17.9792 20.2083 17.9222 20.0412 17.8019 19.927L14.4735 16.8065C14.337 16.6761 14.2962 16.5089 14.3533 16.3316C14.4103 16.1543 14.5469 16.0442 14.7283 16.0177L19.2572 15.4491C19.4243 15.4287 19.5711 15.3248 19.6383 15.1719L21.5787 11.0384C21.6562 10.8713 21.8029 10.7775 21.9905 10.7775C22.178 10.7775 22.3247 10.8713 22.4022 11.0384L24.3426 15.1719C24.4159 15.3227 24.5566 15.4267 24.7237 15.4491L29.2526 16.0177C29.4401 16.0381 29.5706 16.1543 29.6276 16.3316C29.701 16.5089 29.6582 16.6761 29.5237 16.8065Z" fill="#8C71FF"/>
</g>
<defs>
<clipPath id="clip0_858_4025">
<rect width="42.1476" height="48" fill="white" transform="translate(0.925781 0.109863)"/>
</clipPath>
</defs>
</svg>
