<svg width="48" height="49" viewBox="0 0 48 49" fill="none" xmlns="http://www.w3.org/2000/svg">
<g clip-path="url(#clip0_858_3999)">
<path d="M27.9825 6.18996C27.78 6.18996 27.585 6.10746 27.4425 5.94996L24 2.12494L20.5575 5.94996C20.2875 6.24996 19.83 6.27247 19.53 6.00247C19.23 5.73247 19.2075 5.27498 19.4775 4.97498L23.46 0.549959C23.7375 0.242462 24.2625 0.242462 24.54 0.549959L28.5225 4.97498C28.7925 5.27498 28.77 5.73247 28.47 6.00247C28.3275 6.12996 28.155 6.18996 27.9825 6.18996Z" fill="#8C71FF"/>
<path d="M23.9999 18.6701C23.5949 18.6701 23.2725 18.3476 23.2725 17.9427V1.03755C23.2725 0.632546 23.595 0.310059 23.9999 0.310059C24.4049 0.310059 24.7274 0.632561 24.7274 1.03755V17.9427C24.7274 18.3402 24.4049 18.6701 23.9999 18.6701Z" fill="#8C71FF"/>
<path d="M34.86 17.59H34.8225C34.4175 17.5675 34.11 17.23 34.1325 16.8249L34.2825 14.0049L31.4625 14.1549C31.0725 14.1699 30.72 13.8699 30.6974 13.4649C30.6749 13.0674 30.9824 12.7224 31.3874 12.6999L35.01 12.5049C35.2125 12.4974 35.415 12.5724 35.5649 12.7149C35.7074 12.8574 35.7899 13.0599 35.7749 13.2699L35.5799 16.8924C35.5649 17.2899 35.2425 17.59 34.86 17.59Z" fill="#8C71FF"/>
<path d="M27.7654 21.2499C27.5779 21.2499 27.3904 21.1824 27.2479 21.0399C26.9629 20.7549 26.9629 20.2974 27.2479 20.0124L34.5305 12.7299C34.8155 12.4449 35.273 12.4449 35.558 12.7299C35.8429 13.0149 35.843 13.4724 35.558 13.7573L28.2754 21.0399C28.1404 21.1824 27.9529 21.2499 27.7654 21.2499Z" fill="#8C71FF"/>
<path d="M13.2531 17.59C12.8706 17.59 12.5481 17.29 12.5256 16.9L12.3306 13.2775C12.3231 13.075 12.3981 12.8725 12.5406 12.7225C12.6831 12.58 12.8856 12.4975 13.0956 12.5125L16.7181 12.7075C17.1231 12.73 17.4306 13.0675 17.4081 13.4725C17.3856 13.8775 17.0406 14.1775 16.6431 14.1625L13.8231 14.0125L13.9731 16.8325C13.9956 17.23 13.6881 17.575 13.2831 17.5975C13.2831 17.59 13.2681 17.59 13.2531 17.59Z" fill="#8C71FF"/>
<path d="M20.3478 21.2499C20.1603 21.2499 19.9728 21.1824 19.8303 21.0399L12.5477 13.7573C12.2627 13.4723 12.2627 13.0148 12.5477 12.7299C12.8327 12.4449 13.2902 12.4449 13.5752 12.7299L20.8578 20.0124C21.1428 20.2974 21.1428 20.7549 20.8578 21.0399C20.7228 21.1824 20.5353 21.2499 20.3478 21.2499Z" fill="#8C71FF"/>
<path d="M13.0661 35.898C12.8711 35.898 12.6912 35.823 12.5487 35.688C12.4062 35.5455 12.3237 35.343 12.3387 35.133L12.5337 31.5105C12.5562 31.1055 12.9012 30.798 13.2987 30.8205C13.7037 30.843 14.0112 31.1805 13.9887 31.5855L13.8387 34.4055L16.6587 34.2555C17.0487 34.233 17.4012 34.5405 17.4237 34.9455C17.4462 35.343 17.1387 35.688 16.7337 35.7105L13.1112 35.9055C13.0887 35.898 13.0811 35.898 13.0661 35.898Z" fill="#8C71FF"/>
<path d="M13.0652 35.8979C12.8777 35.8979 12.6902 35.8304 12.5477 35.6879C12.2627 35.4029 12.2627 34.9453 12.5477 34.6604L19.8303 27.3778C20.1153 27.0928 20.5728 27.0928 20.8578 27.3778C21.1428 27.6628 21.1428 28.1203 20.8578 28.4053L13.5752 35.6879C13.4402 35.8304 13.2527 35.8979 13.0652 35.8979Z" fill="#8C71FF"/>
<path d="M35.0475 35.8977H35.01L31.3874 35.7027C30.9824 35.6802 30.6749 35.3427 30.6975 34.9377C30.72 34.5327 31.0649 34.2327 31.4625 34.2477L34.2825 34.3977L34.1325 31.5777C34.11 31.1802 34.4175 30.8352 34.8225 30.8127C35.22 30.7902 35.565 31.0977 35.5875 31.5027L35.7825 35.1252C35.79 35.3277 35.715 35.5302 35.5725 35.6802C35.4225 35.8227 35.2425 35.8977 35.0475 35.8977Z" fill="#8C71FF"/>
<path d="M35.048 35.8978C34.8605 35.8978 34.673 35.8303 34.5305 35.6878L27.2479 28.4053C26.9629 28.1203 26.9629 27.6628 27.2479 27.3778C27.5329 27.0928 27.9904 27.0928 28.2754 27.3778L35.558 34.6604C35.843 34.9454 35.843 35.4029 35.558 35.6878C35.423 35.8303 35.2355 35.8978 35.048 35.8978Z" fill="#8C71FF"/>
<path d="M24 48.3101C23.79 48.3101 23.595 48.2201 23.46 48.0701L19.4775 43.6451C19.2075 43.3451 19.23 42.8876 19.53 42.6176C19.83 42.3476 20.2875 42.3701 20.5575 42.6701L24 46.4951L27.4425 42.6701C27.7125 42.3701 28.17 42.3476 28.47 42.6176C28.77 42.8876 28.7925 43.3451 28.5225 43.6451L24.54 48.0701C24.405 48.2201 24.21 48.3101 24 48.3101Z" fill="#8C71FF"/>
<path d="M23.9999 48.3103C23.5949 48.3103 23.2725 47.9878 23.2725 47.5828V30.6777C23.2725 30.2727 23.595 29.9502 23.9999 29.9502C24.4049 29.9502 24.7274 30.2727 24.7274 30.6777V47.5828C24.7274 47.9878 24.4049 48.3103 23.9999 48.3103Z" fill="#8C71FF"/>
<path d="M5.15251 29.0196C4.98001 29.0196 4.80751 28.9596 4.66502 28.8321L0.24 24.8496C0.0899999 24.7146 0 24.5196 0 24.3096C0 24.0996 0.0899999 23.9046 0.24 23.7696L4.66502 19.7871C4.96502 19.5171 5.42251 19.5396 5.69251 19.8396C5.96251 20.1396 5.94 20.597 5.64001 20.867L1.81498 24.3096L5.64001 27.7521C5.94 28.0221 5.96251 28.4796 5.69251 28.7796C5.55 28.937 5.35501 29.0196 5.15251 29.0196Z" fill="#8C71FF"/>
<path d="M17.6326 25.038H0.727487C0.322488 25.038 0 24.7155 0 24.3105C0 23.9055 0.322502 23.583 0.727487 23.583H17.6326C18.0376 23.583 18.3601 23.9055 18.3601 24.3105C18.3601 24.7155 18.0301 25.038 17.6326 25.038Z" fill="#8C71FF"/>
<path d="M42.8485 29.0196C42.646 29.0196 42.451 28.937 42.3085 28.7796C42.0385 28.4796 42.061 28.0221 42.361 27.7521L46.1861 24.3096L42.361 20.867C42.061 20.597 42.0385 20.1396 42.3085 19.8396C42.5785 19.5396 43.036 19.5171 43.336 19.7871L47.761 23.7696C47.911 23.9046 48.001 24.0996 48.001 24.3096C48.001 24.5196 47.911 24.7146 47.761 24.8496L43.336 28.8321C43.1935 28.9596 43.021 29.0196 42.8485 29.0196Z" fill="#8C71FF"/>
<path d="M47.2722 25.038H30.3671C29.9621 25.038 29.6396 24.7155 29.6396 24.3105C29.6396 23.9055 29.9621 23.583 30.3671 23.583H47.2722C47.6772 23.583 47.9997 23.9055 47.9997 24.3105C47.9997 24.7155 47.6772 25.038 47.2722 25.038Z" fill="#8C71FF"/>
</g>
<defs>
<clipPath id="clip0_858_3999">
<rect width="48" height="48" fill="white" transform="translate(0 0.310059)"/>
</clipPath>
</defs>
</svg>
