<svg width="46" height="49" viewBox="0 0 46 49" fill="none" xmlns="http://www.w3.org/2000/svg">
<g clip-path="url(#clip0_858_3979)">
<path fill-rule="evenodd" clip-rule="evenodd" d="M24.1485 48.71H19.9846C19.716 48.71 19.4995 48.4954 19.4955 48.2268L18.7497 40.5588C18.0601 40.3243 17.4085 40.0536 16.759 39.7348L10.779 44.6565C10.5825 44.8169 10.2999 44.8008 10.1235 44.6244L10.1214 44.6264L4.23329 38.7362C4.04284 38.5458 4.04284 38.239 4.22928 38.0486L9.12292 32.1004C8.80417 31.4509 8.53354 30.8014 8.29895 30.1097L0.592465 29.3619C0.339864 29.3379 0.149414 29.1254 0.149414 28.8768V20.5472C0.149414 20.2786 0.363924 20.0621 0.632563 20.0581L8.29902 19.3123C8.53358 18.6227 8.80422 17.9711 9.12299 17.3216L4.20333 11.3416C4.04295 11.1451 4.05899 10.8625 4.23541 10.6861L4.2334 10.684L10.1236 4.79384C10.3141 4.60339 10.6208 4.60339 10.8112 4.78983L16.7594 9.68347C17.4069 9.36472 18.0585 9.09409 18.7481 8.8595L19.4979 1.15301C19.522 0.900411 19.7345 0.709961 19.9831 0.709961V0.711966H24.1469C24.4176 0.711966 24.6361 0.930484 24.6361 1.20112V12.3775C24.6361 12.6481 24.4176 12.8666 24.1469 12.8666C17.6075 12.8666 12.3049 18.1692 12.3049 24.7086C12.3049 31.2481 17.6075 36.5506 24.1469 36.5506C24.4176 36.5506 24.6361 36.7692 24.6361 37.0398V48.2162C24.6381 48.4908 24.4176 48.7093 24.149 48.7093L24.1485 48.71ZM31.1073 42.1705C31.1073 42.9123 31.408 43.5839 31.8952 44.071C33.5832 45.7591 36.4821 44.5562 36.4821 42.1705C36.4821 39.7909 33.5812 38.566 31.8751 40.2901L27.7714 37.9204V33.4939C28.8459 33.093 29.8262 32.5015 30.6722 31.7598H38.6374L41.0591 34.5404C40.2091 35.6089 40.2993 37.1446 41.2636 38.1109C42.9517 39.7989 45.8505 38.596 45.8505 36.2104C45.8505 34.1234 43.5731 32.8444 41.7969 33.8969L39.2388 30.9599C39.1486 30.8496 39.0123 30.7795 38.8599 30.7795H31.6369C32.9299 29.2599 33.7459 27.3232 33.8541 25.2003H37.7794C38.012 26.4612 39.1146 27.3975 40.4217 27.3975C42.8073 27.3975 44.0102 24.4986 42.3222 22.8106C40.7865 21.2769 38.1683 22.1109 37.7794 24.2199H33.8541C33.7438 22.0969 32.9279 20.1603 31.6348 18.6407H38.8579C39.0102 18.6407 39.1466 18.5706 39.2368 18.4603L41.7949 15.5233C42.8514 16.1488 44.1966 15.9744 45.0606 15.1103C46.7486 13.4223 45.5458 10.5234 43.1601 10.5234C40.9128 10.5234 39.6638 13.1276 41.0551 14.8798L38.6333 17.6604L30.6702 17.6624C29.8242 16.9206 28.8439 16.3292 27.7694 15.9283V11.5018L31.8731 9.13214C32.9336 10.2047 34.6377 10.2067 35.6922 9.15219C37.3802 7.46417 36.1773 4.5653 33.7917 4.5653C31.8531 4.5653 30.562 6.55803 31.3258 8.32021L27.0737 10.7761C26.9053 10.8543 26.787 11.0227 26.787 11.2211V15.6216C20.8891 14.1381 15.1252 18.5946 15.1252 24.7112C15.1252 30.8277 20.8886 35.2845 26.7906 33.7987V38.1992C26.7906 38.3976 26.9089 38.568 27.0773 38.6442L31.3294 41.1001C31.1871 41.4289 31.1073 41.7897 31.1073 42.1705ZM32.5868 40.9616C33.2544 40.2941 34.3349 40.2941 35.0005 40.9616C36.073 42.0342 35.3092 43.8766 33.7936 43.8766C32.278 43.8766 31.5143 42.0342 32.5868 40.9616ZM32.0876 7.25141C32.0876 6.30919 32.8514 5.54537 33.7936 5.54537C35.3112 5.54537 36.073 7.38772 35.0005 8.46029C33.928 9.53282 32.0876 8.76902 32.0876 7.25141ZM41.4559 13.2114C41.4559 12.2692 42.2197 11.5054 43.1639 11.5054C44.6815 11.5054 45.4433 13.3477 44.3708 14.4203C43.2983 15.4908 41.4559 14.729 41.4559 13.2114ZM39.2166 23.504C39.8841 22.8364 40.9647 22.8364 41.6303 23.504C42.7028 24.5765 41.939 26.4189 40.4234 26.4189C38.9058 26.4169 38.144 24.5745 39.2166 23.504ZM41.4559 36.2103C41.4559 35.2681 42.2197 34.5042 43.1639 34.5042C44.6815 34.5042 45.4433 36.3466 44.3708 37.4192C43.2983 38.4897 41.4559 37.7259 41.4559 36.2103ZM24.4955 20.2743C22.0458 20.2743 20.059 22.261 20.059 24.7108C20.059 27.1606 22.0458 29.1474 24.4955 29.1474C26.9453 29.1474 28.9321 27.1606 28.9321 24.7108C28.9321 22.261 26.9473 20.2743 24.4955 20.2743ZM26.9413 22.267C25.5921 20.9178 23.403 20.9178 22.0518 22.267C20.7026 23.6162 20.7026 25.8054 22.0518 27.1566C23.401 28.5058 25.5901 28.5058 26.9413 27.1566C28.2905 25.8054 28.2905 23.6162 26.9413 22.267ZM30.4296 18.7768C27.1539 15.499 21.8394 15.499 18.5635 18.7768C15.2857 22.0525 15.2857 27.367 18.5635 30.6429C21.8393 33.9206 27.1538 33.9206 30.4296 30.6429C33.7074 27.3671 33.7074 22.0547 30.4296 18.7768ZM20.426 47.7295H23.6577V37.5231C16.7913 37.2645 11.3266 31.6149 11.3266 24.7106C11.3266 17.8063 16.7913 12.1567 23.6577 11.8981V1.69171H20.426L19.6902 9.27195C19.6722 9.4604 19.5439 9.6308 19.3514 9.69094C18.5315 9.95156 17.6875 10.3044 16.9196 10.7014C16.7512 10.7876 16.5407 10.7715 16.3864 10.6432L10.5023 5.80173L5.23977 11.0643L10.0632 16.9263C10.1975 17.0726 10.2336 17.2931 10.1374 17.4816C9.79256 18.1472 9.34348 19.1836 9.13301 19.8933C9.08089 20.0837 8.91649 20.2321 8.708 20.2521L1.12777 20.9899V28.4336L8.708 29.1693C8.89645 29.1874 9.06686 29.3157 9.127 29.5082C9.38762 30.3281 9.74045 31.1721 10.1374 31.9399C10.2236 32.1083 10.2076 32.3188 10.0793 32.4732L5.23779 38.3573L10.5003 43.6198L16.3623 38.7964C16.5087 38.6621 16.7292 38.626 16.9176 38.7222C17.5852 39.067 18.6196 39.5161 19.3293 39.7266C19.5198 39.7787 19.6681 39.9431 19.6882 40.1516L20.426 47.7295Z" fill="#8C71FF"/>
</g>
<defs>
<clipPath id="clip0_858_3979">
<rect width="45.7011" height="48" fill="white" transform="translate(0.149414 0.709961)"/>
</clipPath>
</defs>
</svg>
